<svg width="48" height="49" viewBox="0 0 48 49" fill="none" xmlns="http://www.w3.org/2000/svg">
<circle cx="24" cy="24.6001" r="24" fill="black"/>
<path fill-rule="evenodd" clip-rule="evenodd" d="M16.9391 8.44763C17.7154 8.11573 18.7079 7.77234 19.3709 7.62654C20.1716 7.43446 20.9562 7.21038 21.1324 7.14635C21.1366 7.14443 21.1388 7.14252 21.1391 7.14062C21.5018 7.07091 22.6118 7.01683 23.7745 7.0023C25.5814 6.98659 26.3399 7.04794 27.3964 7.29214C27.461 7.30989 27.5302 7.32889 27.6028 7.34887L27.603 7.34892L27.6032 7.34898C28.0047 7.45933 28.5143 7.59938 28.9788 7.72257C29.7635 7.94666 30.9644 8.37882 31.621 8.68294C32.0439 8.88915 32.6595 9.22156 33.2324 9.56036C33.5378 9.74509 33.8414 9.93512 34.103 10.1075C34.7195 10.5136 35.6793 11.2874 36.3816 11.9463C36.482 12.0405 36.577 12.1323 36.6651 12.2203C37.2816 12.8365 38.1065 13.7836 38.625 14.4826C38.699 14.5824 38.7668 14.6772 38.8269 14.7653C39.2472 15.3675 39.8024 16.3251 40.1492 17.0269C40.1987 17.1272 40.244 17.2222 40.2841 17.3102C40.6203 18.0145 41.0687 19.231 41.2769 20.0313C41.4287 20.5733 41.5952 21.2255 41.7217 21.7392C41.7241 21.7603 41.7253 21.778 41.7253 21.7919C41.7253 21.968 41.7893 22.2561 41.8694 22.4322C41.8743 22.4441 41.8793 22.4429 41.8841 22.4292C41.9856 22.9989 42.0273 24.0904 41.9814 25.3133C41.9616 26.0286 41.9109 26.824 41.8523 27.4509C41.8352 27.4825 41.819 27.5177 41.8053 27.5541C41.7573 27.6822 41.7092 28.0343 41.7092 28.3224C41.7092 28.5945 41.453 29.5549 41.1648 30.4352C41.1569 30.4592 41.1489 30.4834 41.1408 30.5079C41.1114 30.5929 41.082 30.6757 41.0527 30.7553C40.8283 31.4017 40.4734 32.2765 40.1942 32.8867C40.147 32.9858 40.1019 33.0764 40.0599 33.1563C39.796 33.6838 39.3153 34.4882 38.9312 35.0683C38.8511 35.1857 38.773 35.2964 38.6988 35.3971C38.281 35.9848 37.3997 37.006 36.7195 37.6952C36.4984 37.9134 36.2447 38.1521 35.9822 38.3895C35.6283 38.7083 35.256 39.0269 34.926 39.2924C34.7414 39.4396 34.5703 39.5689 34.4232 39.6707C34.2954 39.7649 34.1477 39.8669 33.9881 39.9723C33.4093 40.3478 32.6378 40.8017 32.1014 41.0633C31.4448 41.3994 30.468 41.8155 29.9396 42.0076C29.4772 42.1617 28.7574 42.3648 28.2306 42.4775C28.1554 42.4936 28.0841 42.5078 28.018 42.5198C27.6217 42.6038 27.2434 42.7149 27.0452 42.7989C26.9792 42.8269 26.9331 42.8519 26.9131 42.8719L26.9128 42.8722C26.8141 42.9361 25.5343 43 24.0628 43C22.4294 43 21.3406 42.936 21.2925 42.8399C21.2445 42.7439 21.0523 42.6799 20.8441 42.6799C20.8437 42.6799 20.8433 42.6799 20.8429 42.6799C20.6486 42.6791 19.8496 42.5033 19.0507 42.2637C18.25 42.0396 17.0651 41.6075 16.4085 41.3034C15.752 40.9832 14.599 40.327 13.8464 39.8308C13.0938 39.3346 11.9569 38.3902 11.3164 37.766C11.2676 37.716 11.2171 37.6634 11.1653 37.6087C10.5545 36.9632 9.76008 36.0193 9.34674 35.4291C9.13377 35.1326 8.88829 34.7603 8.66178 34.3944C8.54139 34.1987 8.42486 34.0035 8.31916 33.8198C8.21132 33.6308 8.1184 33.458 8.04968 33.3163C7.92074 33.0661 7.76306 32.7334 7.61067 32.3911C7.40186 31.9123 7.19171 31.3902 7.05686 30.9954C6.87991 30.512 6.65082 29.7679 6.47202 29.1152C6.44632 29.0182 6.42228 28.9242 6.40033 28.8346L6.28997 28.4029C6.09168 27.508 6 26.5302 6 25.2012C6 24.1128 6.09608 22.6563 6.2402 21.952C6.3683 21.2477 6.68856 20.0633 6.92876 19.311C6.98097 19.1577 7.04315 18.9865 7.11218 18.805C7.37179 18.1361 7.72682 17.3193 8.01765 16.75C8.40197 15.9977 9.07452 14.9253 9.50687 14.3491C9.93922 13.7729 10.884 12.7325 11.6206 12.0282C12.3572 11.3079 13.4301 10.4116 14.0066 10.0275C14.583 9.6433 15.6879 9.01907 16.4886 8.65093C16.6262 8.5849 16.778 8.51651 16.9391 8.44763ZM30.452 33.1563C30.8203 32.372 31.1886 31.5236 31.2847 31.2835V31.2675C31.3808 31.0274 31.5249 30.8354 31.621 30.8354C31.7171 30.8354 31.9092 31.6517 32.0534 32.7081C32.1975 33.7485 32.3256 35.2691 32.3416 37.6059L31.0605 38.2622C30.356 38.6303 29.123 39.1265 28.3383 39.3666C27.5537 39.6067 26.8651 39.7668 26.8171 39.7348C26.769 39.6867 27.1053 39.0785 27.5697 38.4063C28.0181 37.718 28.7066 36.5816 29.0909 35.8773C29.4752 35.173 30.0837 33.9405 30.452 33.1563ZM16.0242 32.516C16.1683 31.6357 16.3285 30.8514 16.3765 30.7874C16.4245 30.7073 16.5206 30.7073 16.5687 30.7874C16.6327 30.8514 16.8088 31.2835 16.969 31.7157C17.1131 32.1639 17.6896 33.4124 18.234 34.5168C18.7785 35.6212 19.6912 37.2218 20.2677 38.0861C20.8281 38.9505 21.2605 39.6867 21.2125 39.7188C21.1644 39.7668 20.5239 39.6067 19.7713 39.3826C19.0187 39.1425 17.9778 38.7584 17.4494 38.5023C16.9209 38.2462 16.2804 37.9101 15.5278 37.4459L15.6399 35.7813C15.7039 34.8689 15.8801 33.3963 16.0242 32.516ZM19.7873 30.8834C19.6333 30.4917 19.4848 30.115 19.3512 29.7761C19.0263 28.9518 18.7898 28.3518 18.7784 28.3064C18.7624 28.2424 21.1003 28.1784 23.9827 28.1944C26.8651 28.1944 29.219 28.2424 29.219 28.3224C29.219 28.3864 28.7866 29.5229 28.2582 30.8354C27.7298 32.1639 26.9291 33.9726 26.4807 34.8849C26.0324 35.7812 25.3278 37.0777 24.9115 37.766C24.5111 38.4383 24.1108 38.9825 24.0147 38.9505C23.9347 38.9184 23.6144 38.5343 23.3262 38.1021C23.0379 37.67 22.3333 36.4215 21.7889 35.3171C21.2284 34.2127 20.3317 32.2119 19.7873 30.8834ZM34.5354 27.234C34.8236 27.186 35.8965 26.8819 36.9053 26.5297C37.9141 26.1776 38.7948 25.8895 38.8749 25.8895C38.939 25.8735 38.987 26.1136 38.987 26.4017C38.987 26.6738 38.8749 27.3781 38.7628 27.9543C38.6347 28.5305 38.3465 29.5389 38.1223 30.1951C37.8821 30.8514 37.3697 31.9398 36.9693 32.596C36.569 33.2523 35.9285 34.1806 34.8236 35.4771L34.7435 34.8049C34.7115 34.4207 34.6314 33.3643 34.5834 32.436C34.5354 31.5076 34.3912 30.0991 34.2631 29.3148C34.135 28.5305 34.0229 27.7462 34.0229 27.6021C34.0229 27.3941 34.1831 27.282 34.5354 27.234ZM9.53893 28.9947C9.34677 28.3864 9.15461 27.4261 9.09056 26.8819C9.04252 26.3217 9.04252 25.8735 9.09056 25.8735C9.15461 25.8735 9.76311 26.0816 10.4357 26.3217C11.1242 26.5777 12.2131 26.9139 14.0386 27.3941L13.9425 28.1143C13.8936 28.42 13.798 29.118 13.6984 29.8444L13.6983 29.845C13.6676 30.0693 13.6365 30.2963 13.6063 30.5152C13.4782 31.4436 13.3661 32.7401 13.35 33.3963C13.35 34.0526 13.286 34.7729 13.238 34.9809C13.1259 35.3651 13.1099 35.3491 12.4373 34.5808C12.053 34.1486 11.4765 33.3643 11.1723 32.8361C10.868 32.3079 10.4517 31.4756 10.2435 30.9954C10.0353 30.5152 9.73109 29.6029 9.53893 28.9947ZM34.6635 16.4619C34.6635 15.8697 34.7275 15.2294 34.7916 15.0213C34.9037 14.6692 34.9197 14.6692 35.2079 14.9413C35.368 15.1014 35.8164 15.6616 36.1847 16.1898C36.569 16.718 37.2095 17.8384 37.6099 18.6707C38.0102 19.5031 38.4425 20.6235 38.5707 21.1517C38.6988 21.6799 38.8269 22.3201 38.8589 22.5922C38.9069 23.0404 38.8589 23.0884 38.0262 23.3605C37.5458 23.5206 36.3608 23.8247 35.384 24.0488C34.4072 24.2569 33.6066 24.4169 33.6066 24.4009C33.5906 24.3689 33.7507 23.4886 33.9589 22.4322C34.167 21.3758 34.4072 19.8392 34.5033 19.0229C34.5834 18.2226 34.6635 17.0701 34.6635 16.4619ZM11.5245 16.67C11.7967 16.2218 12.2611 15.5976 12.5654 15.2614C12.8536 14.9253 13.1258 14.6852 13.1579 14.7012C13.1899 14.7332 13.286 15.7896 13.366 17.0701C13.4461 18.3506 13.7343 20.5114 13.9905 21.872C14.2467 23.2325 14.4229 24.3849 14.3909 24.4329C14.3428 24.481 13.4301 24.2889 12.3572 24.0168C11.2843 23.7447 10.1314 23.3925 9.81112 23.2485C9.2987 23.0404 9.20262 22.9124 9.20262 22.5122C9.20262 22.2401 9.39478 21.4398 9.61896 20.7035C9.85916 19.9832 10.2595 18.9589 10.5317 18.4307C10.7879 17.9025 11.2363 17.1021 11.5245 16.67ZM21.4367 15.3895C21.9811 14.2371 22.7658 12.7805 23.1821 12.1563C23.5984 11.516 23.9667 10.9878 24.0148 10.9878C24.0628 10.9878 24.4151 11.468 24.7994 12.0762C25.1837 12.6685 25.9363 14.013 26.4648 15.0694C26.9772 16.1258 27.7458 17.8224 28.1462 18.8308C28.5465 19.8392 29.171 21.5678 29.5393 22.6723C30.0037 24.0968 30.1478 24.721 30.0197 24.8331C29.9076 24.9291 27.6497 24.9931 23.9347 24.9931C20.7001 24.9931 17.9778 24.9291 17.8978 24.8651C17.8337 24.8011 17.9778 24.1128 18.234 23.3445C18.4742 22.5762 19.0827 20.9436 19.5631 19.7111C20.0435 18.4787 20.8922 16.5419 21.4367 15.3895ZM27.6016 11.6281C27.2814 11.1479 26.9611 10.6197 26.8971 10.4436C26.817 10.2195 26.849 10.1715 27.0892 10.2355C27.2494 10.2835 27.6977 10.4116 28.0981 10.5076C28.4984 10.6197 29.251 10.8758 29.7794 11.0999C30.3079 11.3239 31.1245 11.7241 32.4536 12.5084L32.3736 14.109C32.3255 14.9893 32.1494 16.4779 31.9892 17.4383C31.8291 18.3826 31.6369 19.1349 31.5729 19.1189C31.5088 19.0869 31.0605 18.2066 30.5961 17.1502C30.1317 16.0938 29.4111 14.6212 28.9788 13.8689C28.5624 13.1166 27.9379 12.1082 27.6016 11.6281ZM16.8088 11.7881C17.4654 11.436 18.6343 10.9398 19.419 10.6677C20.1876 10.4116 20.9082 10.1875 21.0203 10.1875C21.1164 10.1875 21.2125 10.2355 21.2125 10.2996C21.2125 10.3796 20.8441 10.9718 20.3958 11.6281C19.9634 12.2843 19.0347 13.9489 18.3621 15.3095C17.6736 16.67 16.985 18.0945 16.8409 18.4627C16.6968 18.8468 16.5046 19.1509 16.4085 19.1509C16.3285 19.1509 16.1843 18.6707 16.0883 18.0785L16.0434 17.7381C15.9615 17.1167 15.8481 16.2565 15.768 15.6296C15.6879 14.8773 15.6079 13.8529 15.6079 12.4284L16.8088 11.7881Z" fill="white"/>
</svg>
