<svg width="48" height="48" viewBox="0 0 48 48" fill="none" xmlns="http://www.w3.org/2000/svg">
<circle cx="24" cy="24" r="24" fill="#E84142"/>
<path fill-rule="evenodd" clip-rule="evenodd" d="M25.436 7.12453C24.6045 5.68831 23.2817 5.68831 22.4502 7.12453L7.35097 33.7135C6.51947 35.1686 7.19979 36.3214 8.86278 36.3214H16.4407C17.9714 36.2269 19.351 35.4143 20.1825 34.1293L29.31 18.3119C29.9714 16.9513 29.9714 15.345 29.31 13.9844L26.5888 9.20327L25.436 7.12453ZM35.4705 24.6238C34.639 23.1876 33.2973 23.1876 32.4658 24.6238L27.1933 33.7136C26.3807 35.1498 27.0611 36.3214 28.7052 36.3214H39.1366C40.7996 36.3214 41.48 35.1498 40.6485 33.7136L35.4705 24.6238Z" fill="white"/>
</svg>
