<svg width="16" height="16" viewBox="0 0 16 16" fill="none" xmlns="http://www.w3.org/2000/svg">
<path d="M15.7589 9.93524C14.6904 14.221 10.3496 16.8292 6.06336 15.7605C1.77889 14.692 -0.829339 10.351 0.239588 6.06558C1.30758 1.77935 5.64835 -0.829071 9.93329 0.239387C14.2192 1.30785 16.8273 5.64936 15.7587 9.93532L15.7588 9.93524H15.7589Z" fill="#F3BA2F"/>
<path fill-rule="evenodd" clip-rule="evenodd" d="M8.00019 5.07766L5.92864 7.14921L5.92868 7.14913L4.72339 5.94379L8.00019 2.66699L11.2781 5.94477L10.0727 7.15011L8.00019 5.07766ZM3.87212 6.79478L2.66675 8.00033L3.87204 9.20545L5.07741 8.00007L3.87212 6.79478ZM5.92839 8.85157L7.99994 10.923L10.0724 8.85059L11.2784 10.0553L11.2778 10.0559L7.99994 13.3337L4.72314 10.0569L4.72144 10.0552L5.92839 8.85157ZM12.128 6.79541L10.9226 8.00079L12.1279 9.20608L13.3333 8.0007L12.128 6.79541Z" fill="white"/>
<path d="M9.22258 7.99945H9.22309L8.00009 6.77637L7.09611 7.68009L6.99226 7.78398L6.77807 7.99821L6.77637 7.99988L6.77807 8.00163L8.00009 9.22381L9.22317 8.00073L9.22377 8.00005L9.22266 7.99945" fill="white"/>
</svg>
