<svg width="32" height="32" viewBox="0 0 32 32" fill="none" xmlns="http://www.w3.org/2000/svg">
<path d="M31.5177 19.8705C29.3808 28.442 20.6992 33.6584 12.1267 31.521C3.55778 29.3841 -1.65868 20.702 0.479177 12.1312C2.61515 3.5587 11.2967 -1.65814 19.8666 0.478775C28.4385 2.61569 33.6546 11.2987 31.5175 19.8706L31.5176 19.8705H31.5177Z" fill="#F3BA2F"/>
<path fill-rule="evenodd" clip-rule="evenodd" d="M16.0003 10.1546L11.8572 14.2977L11.8572 14.2975L9.44665 11.8869L16.0003 5.33325L22.556 11.8888L20.1453 14.2995L16.0003 10.1546ZM7.74413 13.5888L5.33337 15.9999L7.74395 18.4102L10.1547 15.9994L7.74413 13.5888ZM11.8567 17.7024L15.9998 21.8452L20.1447 17.7004L22.5567 20.1098L22.5555 20.1111L15.9998 26.6666L9.44616 20.113L9.44275 20.1096L11.8567 17.7024ZM24.2558 13.5901L21.8451 16.0008L24.2558 18.4114L26.6664 16.0007L24.2558 13.5901Z" fill="white"/>
<path d="M18.4452 15.9987H18.4462L16.0002 13.5525L14.1922 15.3599L13.9845 15.5677L13.5561 15.9962L13.5527 15.9995L13.5561 16.003L16.0002 18.4474L18.4463 16.0012L18.4475 15.9999L18.4453 15.9987" fill="white"/>
</svg>
