<svg width="16" height="16" viewBox="0 0 16 16" fill="none" xmlns="http://www.w3.org/2000/svg">
<path d="M15.7608 9.93524C14.6924 14.221 10.3516 16.8292 6.06531 15.7605C1.78084 14.692 -0.827386 10.351 0.241541 6.06558C1.30953 1.77935 5.65031 -0.829071 9.93524 0.239387C14.2212 1.30785 16.8293 5.64936 15.7607 9.93532L15.7608 9.93524H15.7608Z" fill="#F7931A"/>
<path fill-rule="evenodd" clip-rule="evenodd" d="M11.5287 6.86022C11.6879 5.7956 10.8774 5.22332 9.76902 4.84156L10.1286 3.39943L9.2507 3.18068L8.90069 4.58484C8.6699 4.52728 8.4329 4.47305 8.19734 4.41928L8.54989 3.00585L7.67257 2.78711L7.31282 4.22877C7.12184 4.18529 6.93426 4.14231 6.75228 4.09703L6.75329 4.09249L5.5427 3.79019L5.30917 4.7278C5.30917 4.7278 5.96047 4.8771 5.94675 4.88629C6.30224 4.97502 6.36652 5.21034 6.35585 5.39686L5.94628 7.03978C5.97076 7.046 6.00251 7.055 6.03755 7.06907L6.01206 7.06271C5.99039 7.05729 5.96787 7.05165 5.94476 7.04612L5.37068 9.34762C5.32724 9.45562 5.21696 9.61771 4.96842 9.55616C4.97722 9.56891 4.33038 9.39693 4.33038 9.39693L3.89453 10.4018L5.03693 10.6866C5.16201 10.718 5.28561 10.7502 5.40796 10.7821L5.40805 10.7821C5.49356 10.8044 5.57846 10.8265 5.66282 10.8481L5.29955 12.3068L6.1764 12.5255L6.53615 11.0823C6.7757 11.1473 7.00817 11.2073 7.23575 11.2639L6.87721 12.7003L7.75512 12.919L8.11835 11.4631C9.6153 11.7464 10.7409 11.6322 11.2147 10.2782C11.5964 9.18804 11.1957 8.55926 10.4081 8.14922C10.9817 8.01694 11.4138 7.63967 11.529 6.86034L11.5287 6.86014L11.5287 6.86022ZM9.52309 9.67285C9.27418 10.673 7.70867 10.2595 6.99239 10.0703C6.92796 10.0533 6.8704 10.0381 6.82129 10.0259L7.30335 8.09342C7.36321 8.10837 7.43634 8.12478 7.5192 8.14338L7.51921 8.14338C8.26011 8.30965 9.77811 8.65032 9.52313 9.67285H9.52309ZM7.66767 7.2464C8.26484 7.40577 9.56755 7.75344 9.79443 6.84443H9.79451C10.0262 5.91473 8.76016 5.63444 8.14184 5.49754C8.07228 5.48214 8.01091 5.46856 7.9608 5.45606L7.52375 7.20871C7.56501 7.219 7.61343 7.23192 7.66767 7.2464Z" fill="white"/>
</svg>
