<svg width="48" height="48" viewBox="0 0 48 48" fill="none" xmlns="http://www.w3.org/2000/svg">
<circle cx="24" cy="24" r="24" fill="#EDF0F4"/>
<path d="M16.7721 23.8783C16.7039 25.0644 17.6169 26.0798 18.803 26.1481C18.8457 26.1481 18.8883 26.1481 18.931 26.1481C20.1256 26.1481 21.0898 25.1838 21.0813 23.9892C21.0813 22.7946 20.1171 21.8304 18.9225 21.8389C17.779 21.8389 16.8319 22.7349 16.7721 23.8783Z" fill="#0033AD"/>
<path d="M8.73455 23.3233C8.35057 23.2977 8.01778 23.5964 8.00072 23.9803C7.98365 24.3643 8.27377 24.6971 8.65775 24.7142C9.04174 24.7398 9.36599 24.4411 9.39159 24.0571C9.41719 23.6732 9.11853 23.3489 8.73455 23.3233Z" fill="#0033AD"/>
<path d="M16.6361 11.3686C16.9774 11.1979 17.114 10.7713 16.9433 10.43C16.7726 10.0887 16.346 9.95213 16.0047 10.1228C15.6634 10.2934 15.5268 10.7116 15.6975 11.0529C15.8682 11.4027 16.2863 11.5478 16.6361 11.3686C16.6361 11.3686 16.6276 11.3686 16.6361 11.3686Z" fill="#0033AD"/>
<path d="M18.8202 15.1829C19.3493 14.9183 19.5626 14.2698 19.2981 13.7408C19.0336 13.2117 18.3851 12.9984 17.856 13.2629C17.327 13.5275 17.1137 14.176 17.3782 14.705C17.6427 15.2341 18.2912 15.4474 18.8202 15.1829Z" fill="#0033AD"/>
<path d="M11.4646 17.8029C11.8742 18.0674 12.4203 17.9565 12.6933 17.5469C12.9579 17.1373 12.8469 16.5912 12.4374 16.3181C12.0278 16.0536 11.4817 16.1645 11.2086 16.5741C10.9356 16.9837 11.055 17.5383 11.4646 17.8029Z" fill="#0033AD"/>
<path d="M12.7705 22.9393C12.1732 22.9052 11.6697 23.3574 11.6356 23.9547C11.6015 24.552 12.0537 25.0555 12.651 25.0896C13.2483 25.1237 13.7518 24.6715 13.7859 24.0742C13.82 23.4854 13.3678 22.9734 12.7705 22.9393Z" fill="#0033AD"/>
<path d="M11.5846 30.1672C11.1494 30.389 10.9702 30.918 11.1921 31.3618C11.4139 31.7969 11.943 31.9761 12.3867 31.7543C12.8218 31.5324 13.001 31.0034 12.7792 30.5597C12.5573 30.1245 12.0197 29.9453 11.5846 30.1672Z" fill="#0033AD"/>
<path d="M15.7654 20.7124C16.3541 21.0963 17.1392 20.9342 17.5146 20.3454C17.8986 19.7567 17.7365 18.9716 17.1477 18.5962C16.5589 18.2122 15.7739 18.3743 15.3984 18.9631C15.0145 19.5433 15.1766 20.3284 15.7654 20.7124Z" fill="#0033AD"/>
<path d="M29.0349 15.0979C29.5298 15.4222 30.2039 15.2856 30.5282 14.7907C30.8524 14.2958 30.7159 13.6217 30.221 13.2975C29.7261 12.9732 29.052 13.1097 28.7277 13.6046C28.3949 14.1081 28.5315 14.7737 29.0349 15.0979Z" fill="#0033AD"/>
<path d="M31.2363 11.3006C31.5605 11.5139 31.9872 11.42 32.2005 11.0958C32.4138 10.7715 32.32 10.3449 31.9957 10.1316C31.6715 9.91824 31.2448 10.0121 31.0315 10.3278C30.8267 10.6521 30.9206 11.0873 31.2363 11.3006Z" fill="#0033AD"/>
<path d="M29.1962 21.8215C28.0101 21.7532 26.9862 22.6662 26.9264 23.8523C26.8582 25.0384 27.7712 26.0623 28.9573 26.1221C29 26.1221 29.0426 26.1221 29.0767 26.1221C30.2628 26.1221 31.2271 25.1578 31.2271 23.9632C31.2356 22.8284 30.3396 21.8812 29.1962 21.8215Z" fill="#0033AD"/>
<path d="M19.5283 20.5588C19.8952 21.2841 20.6375 21.7449 21.4567 21.7449C22.6428 21.7449 23.607 20.7807 23.607 19.5861C23.607 19.2533 23.5302 18.9205 23.3766 18.6133C22.839 17.5467 21.542 17.1201 20.4839 17.6576C19.4173 18.2038 18.9907 19.5008 19.5283 20.5588Z" fill="#0033AD"/>
<path d="M36.4159 17.8027C36.851 17.5809 37.0217 17.0433 36.7998 16.6081C36.578 16.1729 36.0404 16.0023 35.6052 16.2241C35.1701 16.446 34.9994 16.975 35.2127 17.4102C35.4431 17.8454 35.9722 18.0246 36.4159 17.8027Z" fill="#0033AD"/>
<path d="M30.9545 18.4852C30.3316 18.8009 30.0756 19.5604 30.3913 20.1833C30.707 20.8062 31.4664 21.0622 32.0893 20.7464C32.7123 20.4307 32.9682 19.6713 32.6525 19.0484C32.3368 18.4255 31.5774 18.178 30.9545 18.4852Z" fill="#0033AD"/>
<path d="M23.9146 10.9763C24.401 11.0019 24.8191 10.6265 24.8532 10.1401C24.8874 9.6537 24.5034 9.23559 24.017 9.20146C23.5306 9.17586 23.1125 9.54278 23.0784 10.0292C23.0528 10.5241 23.4282 10.9422 23.9146 10.9763Z" fill="#0033AD"/>
<path d="M23.9061 16.5481C24.6058 16.5908 25.2031 16.0532 25.2373 15.3535C25.2799 14.6538 24.7424 14.0565 24.0427 14.0224C23.343 13.9797 22.7457 14.5173 22.7115 15.217C22.6774 15.9167 23.2064 16.514 23.9061 16.5481Z" fill="#0033AD"/>
<path d="M17.0454 29.4841C17.6683 29.1683 17.9243 28.4089 17.6086 27.786C17.2929 27.1631 16.5334 26.9071 15.9105 27.2228C15.2876 27.5386 15.0316 28.298 15.3473 28.9209C15.6631 29.5438 16.4225 29.7998 17.0454 29.4841Z" fill="#0033AD"/>
<path d="M24.7254 18.4C24.0769 19.3984 24.3499 20.7295 25.3483 21.378C26.3466 22.0265 27.6778 21.7535 28.3263 20.7551C28.9748 19.7567 28.7017 18.4256 27.7034 17.7771C27.3535 17.5467 26.9439 17.4272 26.5258 17.4272C25.8005 17.4272 25.1264 17.7942 24.7254 18.4Z" fill="#0033AD"/>
<path d="M28.4713 27.4108C27.9338 26.3442 26.6368 25.9176 25.5787 26.4551C24.512 26.9927 24.0854 28.2897 24.623 29.3478C25.1606 30.4144 26.4576 30.8411 27.5156 30.3035C28.5737 29.7744 29.0089 28.4945 28.4799 27.4279C28.4799 27.4194 28.4799 27.4194 28.4713 27.4108Z" fill="#0033AD"/>
<path d="M32.2346 27.2573C31.6458 26.8733 30.8608 27.0355 30.4853 27.6242C30.1014 28.213 30.2635 28.998 30.8523 29.3735C31.441 29.7575 32.2261 29.5953 32.6015 29.0066C32.9855 28.4263 32.8234 27.6413 32.2346 27.2573Z" fill="#0033AD"/>
<path d="M36.364 24.0234C36.3982 23.4261 35.9459 22.9227 35.3486 22.8885C34.7513 22.8544 34.2479 23.3066 34.2137 23.904C34.1796 24.5013 34.6318 25.0047 35.2292 25.0388C35.8179 25.073 36.3299 24.6122 36.364 24.0234Z" fill="#0033AD"/>
<path d="M39.342 23.2554C38.958 23.2298 38.6252 23.5285 38.6081 23.9125C38.5911 24.2965 38.8812 24.6292 39.2652 24.6463C39.6492 24.6719 39.9734 24.3733 39.999 23.9893C40.0161 23.6053 39.726 23.281 39.342 23.2554Z" fill="#0033AD"/>
<path d="M36.5352 30.1668C36.1256 29.9022 35.5795 30.0132 35.3064 30.4228C35.0419 30.8323 35.1528 31.3784 35.5624 31.6515C35.972 31.916 36.5181 31.8051 36.7911 31.3955C37.0642 30.9859 36.9447 30.4313 36.5352 30.1668Z" fill="#0033AD"/>
<path d="M16.7559 36.6692C16.4317 36.4558 16.005 36.5497 15.7917 36.8654C15.5784 37.1897 15.6723 37.6163 15.988 37.8296C16.3122 38.043 16.7389 37.9491 16.9522 37.6334C17.1741 37.3177 17.0802 36.8825 16.7559 36.6692Z" fill="#0033AD"/>
<path d="M31.3641 36.6009C31.0227 36.7716 30.8862 37.1982 31.0569 37.5396C31.2275 37.8809 31.6542 38.0174 31.9955 37.8467C32.3368 37.6761 32.4733 37.258 32.3027 36.9167C32.132 36.5668 31.7139 36.4217 31.3641 36.6009C31.3726 36.6009 31.3641 36.6009 31.3641 36.6009Z" fill="#0033AD"/>
<path d="M23.2751 29.5698C23.9236 28.5714 23.6505 27.2403 22.6522 26.5833C21.6538 25.9348 20.3227 26.2078 19.6656 27.2062C19.0086 28.2045 19.2902 29.5357 20.2886 30.1927C20.6384 30.4231 21.048 30.5426 21.4661 30.5426C22.1999 30.5511 22.874 30.1842 23.2751 29.5698Z" fill="#0033AD"/>
<path d="M18.966 32.8717C18.4711 32.5474 17.797 32.684 17.4728 33.1789C17.1485 33.6738 17.285 34.3479 17.7799 34.6721C18.2748 34.9964 18.949 34.8599 19.2732 34.3649C19.606 33.87 19.4695 33.1959 18.966 32.8717Z" fill="#0033AD"/>
<path d="M23.9915 36.9934C23.5051 36.9678 23.087 37.3433 23.0529 37.8297C23.0188 38.316 23.4027 38.7341 23.8891 38.7683C24.3755 38.7939 24.7936 38.427 24.8277 37.9406C24.8533 37.4457 24.4779 37.0276 23.9915 36.9934Z" fill="#0033AD"/>
<path d="M23.9995 31.4213C23.2998 31.3787 22.7025 31.9162 22.6684 32.6159C22.6257 33.3156 23.1633 33.9129 23.863 33.9471C24.5627 33.9812 25.16 33.4522 25.1941 32.7525C25.2368 32.0613 24.6992 31.4555 23.9995 31.4213Z" fill="#0033AD"/>
<path d="M29.1792 32.7867C28.6501 33.0598 28.4368 33.7083 28.7099 34.2373C28.9829 34.7663 29.6314 34.9797 30.1605 34.7066C30.6895 34.4421 30.9028 33.7936 30.6383 33.2646C30.3653 32.7355 29.7168 32.5137 29.1792 32.7867Z" fill="#0033AD"/>
</svg>
