<svg width="48" height="48" viewBox="0 0 48 48" fill="none" xmlns="http://www.w3.org/2000/svg">
<circle cx="24" cy="24" r="24" fill="#2E3148"/>
<circle cx="24.0002" cy="23.9999" r="13.926" fill="#1B1E36"/>
<path fill-rule="evenodd" clip-rule="evenodd" d="M19.3579 24.0495C19.3579 12.4582 21.4586 3.06177 24.0492 3.06177C26.6399 3.06177 28.7406 12.4582 28.7406 24.0495C28.7406 35.6407 26.6399 45.0372 24.0492 45.0372C21.4586 45.0372 19.3579 35.6407 19.3579 24.0495ZM23.7806 43.9514C23.7806 43.9514 24.0769 44.2479 24.3731 43.8527C24.3731 43.8527 25.7648 42.6666 26.7584 37.0371C26.7584 37.0371 28.0492 29.6298 27.8516 23.0125C27.8516 23.0125 28.0492 15.4076 25.8675 7.30881C25.8675 7.30881 25.1287 4.69838 24.2478 4.07418C24.1011 3.96989 23.9007 3.98609 23.7728 4.11258C23.1657 4.71297 21.3816 7.41729 20.4009 18.8651C20.4009 18.8651 19.9041 33.2849 21.991 40.0008C21.991 40.0008 22.5875 42.569 23.7806 43.9514Z" fill="#6F7390"/>
<path fill-rule="evenodd" clip-rule="evenodd" d="M21.7098 19.9793C31.7688 14.2113 40.9639 11.357 42.2538 13.6049C43.5427 15.8519 36.4471 22.3505 26.388 28.1186C16.329 33.8867 7.13293 36.74 5.84403 34.493C4.55513 32.246 11.6507 25.7474 21.7098 19.9793ZM6.65192 33.7165C6.65192 33.7165 6.54036 34.1224 7.03419 34.1846H7.03438C7.03438 34.1846 8.75489 34.8019 14.1326 32.864C14.1326 32.864 21.2001 30.2991 26.8417 26.8335C26.8417 26.8335 33.5369 23.2197 39.472 17.2947C39.472 17.2947 41.3734 15.3555 41.4721 14.2803C41.4908 14.1007 41.3772 13.9338 41.2033 13.8852C40.3825 13.6592 37.1469 13.4547 26.7301 18.3012C26.7301 18.3012 13.9744 25.046 9.18536 30.1985C9.18536 30.1985 7.25768 31.9941 6.65192 33.7165Z" fill="#6F7390"/>
<path fill-rule="evenodd" clip-rule="evenodd" d="M26.4068 19.9861C36.4306 25.7975 43.5083 32.3259 42.2084 34.5679C40.9097 36.8139 31.7273 33.9241 21.6978 28.1127C11.6683 22.3012 4.59179 15.7767 5.89048 13.5308C7.18917 11.285 16.3831 14.1746 26.4068 19.9861ZM6.9651 13.8323C6.9651 13.8323 6.55979 13.9419 6.75179 14.3971L6.75313 14.4021C6.75313 14.4021 7.08184 16.1987 11.4571 19.8826C11.4571 19.8826 17.2152 24.7152 23.0384 27.856C23.0384 27.856 29.5193 31.8371 37.6231 34.01C37.6231 34.01 40.2523 34.6796 41.234 34.2302C41.3982 34.1557 41.4849 33.9739 41.4395 33.7995C41.2231 32.9758 39.7792 30.0741 30.3649 23.4864C30.3649 23.4864 18.1374 15.8272 11.2801 14.2656C11.2801 14.2656 8.75953 13.4934 6.9651 13.8323Z" fill="#6F7390"/>
<circle cx="23.9999" cy="23.9999" r="2.46912" fill="#B7B9C8"/>
<ellipse cx="34.1235" cy="14.5186" rx="1.43213" ry="1.48147" fill="#B7B9C8"/>
<ellipse cx="10.6172" cy="19.5557" rx="1.43213" ry="1.48147" fill="#B7B9C8"/>
<ellipse cx="21.0864" cy="37.7284" rx="1.43213" ry="1.48147" fill="#B7B9C8"/>
</svg>
