<svg width="48" height="48" viewBox="0 0 48 48" fill="none" xmlns="http://www.w3.org/2000/svg">
<path d="M23.9845 48C37.244 48 47.9845 37.2595 47.9845 24C47.9845 10.7405 37.244 0 23.9845 0C10.725 0 0 10.7405 0 24C0 37.2595 10.7405 48 23.9845 48Z" fill="#008CE3"/>
<path d="M27.6468 13.4912H18.2199L17.4472 17.8492L25.9468 17.8647C30.1349 17.8647 31.3712 19.3792 31.3403 21.8982C31.3248 23.1963 30.7685 25.3753 30.5212 26.0862C29.8721 27.9716 28.5586 30.1351 23.5824 30.1197H15.3145L14.5264 34.4931H23.9224C27.2295 34.4931 28.6513 34.1068 30.1349 33.4114C33.442 31.8814 35.4201 28.6206 36.2083 24.3553C37.3982 18.0038 35.9301 13.4912 27.6468 13.4912Z" fill="white"/>
<path d="M14.1707 21.8054C11.698 21.8054 11.3426 23.4126 11.1108 24.3862C10.8017 25.6535 10.709 26.1789 10.709 26.1789H20.3523C22.8249 26.1789 23.1803 24.5717 23.4121 23.5981C23.7212 22.3309 23.8139 21.8054 23.8139 21.8054H14.1707Z" fill="white"/>
</svg>
