<svg width="48" height="49" viewBox="0 0 48 49" fill="none" xmlns="http://www.w3.org/2000/svg">
<circle cx="24" cy="24.6001" r="24" fill="#11A4D6"/>
<path d="M17.5788 32.1989C16.5182 32.1989 15.5736 32.0166 14.745 31.652C13.9212 31.2827 13.2701 30.776 12.7919 30.1321C12.3184 29.4834 12.0746 28.7353 12.0604 27.8878H15.157C15.1759 28.2429 15.2919 28.5554 15.505 28.8253C15.7228 29.0904 16.0116 29.2964 16.3714 29.4432C16.7313 29.59 17.1361 29.6634 17.5859 29.6634C18.0547 29.6634 18.469 29.5805 18.8288 29.4148C19.1887 29.2491 19.4704 29.0194 19.674 28.7259C19.8776 28.4323 19.9794 28.0937 19.9794 27.7102C19.9794 27.322 19.8705 26.9787 19.6527 26.6804C19.4396 26.3774 19.1319 26.1406 18.7294 25.9702C18.3317 25.7997 17.8582 25.7145 17.3089 25.7145H15.9524V23.456H17.3089C17.773 23.456 18.1825 23.3755 18.5376 23.2145C18.8975 23.0535 19.1768 22.831 19.3757 22.5469C19.5746 22.258 19.674 21.9219 19.674 21.5384C19.674 21.1738 19.5864 20.8542 19.4112 20.5795C19.2408 20.3002 18.9993 20.0824 18.6868 19.9261C18.379 19.7699 18.0192 19.6918 17.6072 19.6918C17.1906 19.6918 16.8094 19.7675 16.4638 19.919C16.1181 20.0658 15.8411 20.2765 15.6328 20.5511C15.4245 20.8258 15.3132 21.1477 15.299 21.517H12.3516C12.3658 20.679 12.6049 19.9403 13.0689 19.3011C13.5329 18.6619 14.1579 18.1624 14.9439 17.8026C15.7346 17.438 16.6271 17.2557 17.6214 17.2557C18.6252 17.2557 19.5036 17.438 20.2564 17.8026C21.0092 18.1671 21.594 18.6596 22.0107 19.2798C22.4321 19.8954 22.6404 20.5866 22.6357 21.3537C22.6404 22.1681 22.3871 22.8475 21.8757 23.392C21.3691 23.9366 20.7086 24.2822 19.8942 24.429V24.5426C20.9643 24.6799 21.7786 25.0516 22.3374 25.6577C22.9008 26.259 23.1802 27.0118 23.1754 27.9162C23.1802 28.7448 22.9411 29.4811 22.4581 30.125C21.9799 30.7689 21.3194 31.2756 20.4766 31.6449C19.6338 32.0142 18.6679 32.1989 17.5788 32.1989ZM31.0891 32.3196C29.8675 32.3149 28.8164 32.0142 27.9357 31.4176C27.0598 30.821 26.3851 29.9569 25.9116 28.8253C25.4428 27.6937 25.2108 26.3324 25.2156 24.7415C25.2156 23.1553 25.4499 21.8035 25.9187 20.6861C26.3922 19.5687 27.0669 18.7187 27.9428 18.1364C28.8235 17.5492 29.8723 17.2557 31.0891 17.2557C32.306 17.2557 33.3524 17.5492 34.2283 18.1364C35.109 18.7235 35.7861 19.5758 36.2596 20.6932C36.7331 21.8059 36.9674 23.1553 36.9627 24.7415C36.9627 26.3371 36.726 27.7008 36.2525 28.8324C35.7837 29.964 35.1114 30.8281 34.2354 31.4247C33.3595 32.0213 32.3107 32.3196 31.0891 32.3196ZM31.0891 29.7699C31.9225 29.7699 32.5877 29.3509 33.0849 28.5128C33.582 27.6747 33.8282 26.4176 33.8235 24.7415C33.8235 23.6383 33.7099 22.7197 33.4826 21.9858C33.2601 21.2519 32.9428 20.7003 32.5309 20.331C32.1237 19.9616 31.6431 19.777 31.0891 19.777C30.2605 19.777 29.5977 20.1913 29.1005 21.0199C28.6033 21.8485 28.3524 23.089 28.3477 24.7415C28.3477 25.8589 28.4589 26.7917 28.6815 27.5398C28.9087 28.2831 29.2283 28.8419 29.6403 29.2159C30.0522 29.5852 30.5352 29.7699 31.0891 29.7699Z" fill="white"/>
</svg>
