<svg width="48" height="48" viewBox="0 0 48 48" fill="none" xmlns="http://www.w3.org/2000/svg">
<circle cx="24" cy="24" r="24" fill="#988430"/>
<circle cx="23.9998" cy="23.9998" r="23.2312" fill="#7A6A2A"/>
<circle cx="23.9996" cy="24.0001" r="22.7418" fill="#BA9F33"/>
<path fill-rule="evenodd" clip-rule="evenodd" d="M10.4937 21.4369C10.3577 21.3128 10.2141 21.1884 10.082 21.0642C9.94991 20.94 9.81424 20.8156 9.6783 20.6915L9.27433 20.3075C9.20828 20.2414 9.13839 20.1833 9.07235 20.117C9.0063 20.0589 8.92873 19.9928 8.86268 19.9345C8.32662 19.4258 7.78748 18.9171 7.25884 18.4082C7.80643 18.9092 8.34249 19.4066 8.89007 19.915L9.08028 20.1055C9.14633 20.1713 9.21622 20.2296 9.28227 20.2957L9.68598 20.6684C9.82192 20.7926 9.95401 20.917 10.0899 21.0524C10.2259 21.1879 10.358 21.3125 10.4939 21.4364L10.4937 21.4369ZM3.37891 21.3604C3.37891 21.3604 5.32835 21.5621 6.2799 21.698C7.16131 21.8224 9.91868 22.2456 9.91868 22.2456L3.37891 21.3604ZM3.37916 21.3601C3.92675 21.4067 4.47433 21.4648 5.02191 21.5232C5.30147 21.5503 5.5695 21.5813 5.83753 21.6085L6.24892 21.6553C6.38486 21.6745 6.51695 21.694 6.65289 21.7134L8.28412 21.9735L9.09948 22.1095C9.36751 22.156 9.63555 22.2067 9.9151 22.2533C9.64707 22.2262 9.36751 22.1873 9.09948 22.1484L8.28412 22.0319L6.65289 21.7912C6.51695 21.7718 6.38486 21.7444 6.24892 21.7252L5.83727 21.6778C5.56924 21.6507 5.28969 21.6118 5.02166 21.5806C4.47407 21.5148 3.92649 21.4446 3.37891 21.3594L3.37916 21.3601ZM9.72527 22.7534C9.72527 22.7534 7.64374 23.2818 6.94076 23.4838C6.24956 23.674 4.15625 24.3109 4.15625 24.3109L9.72502 22.7537L9.72527 22.7534Z" fill="#CFB66C"/>
<path fill-rule="evenodd" clip-rule="evenodd" d="M9.72405 22.7534C9.26197 22.8894 8.80245 23.0214 8.33371 23.1459L6.94338 23.5186C6.4813 23.6545 6.02178 23.7866 5.56098 23.9226L4.86978 24.1128C4.64066 24.1788 4.4077 24.2369 4.1709 24.3032C4.39976 24.2264 4.63298 24.1478 4.8621 24.0818L5.5533 23.8606C6.01538 23.7167 6.4749 23.5808 6.9357 23.4372C7.40546 23.3207 7.86779 23.1963 8.33755 23.0837C8.78402 22.971 9.25403 22.8586 9.72405 22.7537V22.7534ZM4.44629 25.5925C4.67515 25.507 7.31605 24.2761 7.92968 23.9886C8.23688 23.8448 9.12981 23.5278 9.12981 23.5278L4.44629 25.5925Z" fill="#CFB66C"/>
<path fill-rule="evenodd" clip-rule="evenodd" d="M4.44655 25.5924C4.64827 25.5156 4.83874 25.4217 5.03279 25.3323L5.60751 25.0643L6.76104 24.509C7.14504 24.3265 7.51829 24.125 7.91432 23.9535C8.11631 23.8683 8.31829 23.7984 8.52002 23.7323L8.82722 23.6353C8.93192 23.6082 9.0292 23.5769 9.13442 23.5498C8.75042 23.7323 8.34619 23.8877 7.96168 24.0662C7.57768 24.2566 7.18498 24.412 6.78869 24.5828L5.61595 25.0991C5.22223 25.2586 4.83823 25.4294 4.44629 25.5924H4.44655ZM4.70215 26.6678C4.70215 26.6678 7.09421 25.266 7.91751 24.8154C8.34861 24.5748 9.74279 23.8833 9.74279 23.8833L4.70215 26.6678Z" fill="#CFB66C"/>
<path fill-rule="evenodd" clip-rule="evenodd" d="M4.70312 26.6682C5.10684 26.4196 5.51848 26.1672 5.93013 25.9109L6.54453 25.5379C6.7542 25.4138 6.95618 25.2973 7.16994 25.1731C7.3796 25.0487 7.58159 24.9246 7.79509 24.8081C7.89673 24.7453 8.00323 24.6908 8.11356 24.645L8.4397 24.4819C8.8708 24.2723 9.30191 24.0585 9.75631 23.876C9.34466 24.1363 8.92124 24.3578 8.49807 24.5866C8.2884 24.7031 8.07464 24.8081 7.86498 24.9246C7.65532 25.041 7.45333 25.1654 7.23957 25.2781C7.02991 25.4022 6.82792 25.5187 6.61442 25.6314L5.98133 25.977L4.70364 26.6682H4.70312ZM9.72431 24.1903C9.72431 24.1903 8.23695 25.3321 7.75541 25.6972C7.27388 26.0622 5.8564 27.0875 5.8564 27.0875L9.72431 24.1903Z" fill="#CFB66C"/>
<path fill-rule="evenodd" clip-rule="evenodd" d="M18.2601 33.398L17.499 31.9573L17.9416 30.1553L21.0989 28.936L19.7552 26.1788L20.4192 23.3943L21.6659 20.9009L25.5185 20.2952L28.3493 17.5962L34.4621 18.0583L35.662 24.5942L33.3513 32.8233L32.035 37.0837L26.6989 37.2857L24.2213 35.5692L21.3203 34.3573L18.2601 33.398Z" fill="#E2CC85"/>
<path fill-rule="evenodd" clip-rule="evenodd" d="M27.62 33.3515C27.62 33.3515 26.882 33.6894 25.6232 33.6116C25.2589 33.1224 22.7076 32.8932 22.7076 32.8932C22.7076 32.8932 22.3892 32.7962 21.826 33.0292C21.2592 33.2596 20.7231 33.2312 20.2221 33.3553C19.7211 33.4795 19.2237 32.8272 18.8397 32.6912C18.4557 32.5476 17.9465 32.202 17.9465 32.202L16.8713 32.0971L14.7122 31.1844L11.2821 27.7671L10.35 29.2263L10.0625 31.0321L11.0996 33.172L13.8917 35.7156L19.3364 37.098L22.5635 36.1473L26.6062 34.4384L27.62 33.3512V33.3515Z" fill="#F1D789"/>
<path fill-rule="evenodd" clip-rule="evenodd" d="M8.27535 21.2741L8.96655 19.181L9.7901 17.8294L12.4423 17.6079L11.6461 19.9303L9.42888 23.8761L10.3492 27.3984L8.71823 28.2137L8.21698 27.445L7.81327 25.6819L7.78613 23.7012L8.27535 21.2741Z" fill="#F4ECB4"/>
<path fill-rule="evenodd" clip-rule="evenodd" d="M11.2503 33.208L10.7416 32.4973C10.7416 32.4973 10.6056 32.1594 10.6835 31.8642C10.7603 31.5652 10.7493 31.5458 10.7106 31.4331C10.672 31.3205 10.3456 30.9321 10.365 30.5981C10.3842 30.2601 10.3379 30.1475 10.5862 29.8797C10.8463 29.6196 10.7687 29.1691 10.7687 29.1691L11.1066 29.3787L11.1834 29.2623C11.1834 29.2623 11.3076 29.3593 11.3076 29.5108C11.3347 29.3012 11.2221 28.3302 11.4784 28.109C11.7346 27.8878 12.189 29.1458 12.189 29.1458L11.9095 27.3205L11.1909 25.4489L9.91317 23.7401L9.83637 21.8564V21.6934C9.83637 21.6934 9.24987 22.5945 9.0868 23.3062C8.97032 23.7954 9.24987 24.3896 9.19176 25.0925C9.14491 25.7917 9.0868 25.7371 9.25755 26.0141C9.4283 26.2911 9.84405 26.8607 9.68097 27.2724C9.53736 27.6259 9.04789 27.3773 9.04789 27.3773C9.04789 27.3773 8.95086 27.6646 8.81877 27.7695C8.77217 27.5988 8.72174 27.49 8.62856 27.3855C8.62062 27.4516 8.60142 27.5409 8.60142 27.5409C8.60142 27.5409 8.51592 27.2729 8.43041 26.935C8.31419 26.4847 8.18977 25.8905 8.07713 25.572C8.03054 25.7545 7.91406 26.3098 7.91406 26.3098L7.98011 27.1643L8.29857 28.3371L8.60577 29.1051L8.90478 30.0448L9.16462 30.6761L9.37429 31.1577L9.55681 32.2413L10.4382 33.1732L10.9082 33.3831L11.2497 33.2082L11.2503 33.208Z" fill="#F3E19D"/>
<path fill-rule="evenodd" clip-rule="evenodd" d="M8.73753 19.5651C8.73753 19.5651 8.10444 20.6403 7.92217 21.7242C7.73989 22.8081 7.57657 23.9534 7.69177 25.429C7.80825 26.9166 8.02969 27.829 8.20837 28.4815C8.51557 29.5652 9.31122 31.072 9.31122 31.072L9.33836 31.0136C9.20462 30.7601 9.09788 30.4933 9.01989 30.2175C8.91493 29.8058 8.87602 29.3166 8.779 29.0952C8.69349 28.874 8.54988 28.6835 8.47999 28.4117C8.41394 28.1516 8.40319 27.7399 8.20044 27.4332C8.11493 27.3088 8.00997 26.9827 7.979 26.6565C7.94009 26.1671 7.99845 25.6195 7.95186 25.1692C7.86636 24.4196 7.80825 23.9109 7.88581 23.5185C7.96338 23.126 8.36761 22.0119 8.61618 21.1264C8.77925 20.5594 8.68197 20.0817 8.98098 19.5884C9.27999 19.0991 9.46277 18.668 9.52857 18.369C9.60537 18.0972 8.7365 19.5651 8.7365 19.5651H8.73753Z" fill="#F2E8B0"/>
<path fill-rule="evenodd" clip-rule="evenodd" d="M11.7399 19.1338C11.7399 19.1338 11.4138 19.2311 11.2584 19.4018C11.103 19.5649 11.037 19.7008 10.8273 19.9765C10.6176 20.2523 10.6058 20.4775 10.4348 20.8231C10.2641 21.1611 9.88726 21.6697 9.84066 21.8523C9.79407 22.0348 9.7165 22.889 9.61948 23.293C9.53398 23.697 9.7165 24.1941 9.7165 24.1941L9.93769 24.1473C9.93769 24.1473 9.93769 24.4348 10.1591 24.6291C10.3803 24.8193 10.4192 23.9842 10.4192 23.9842L11.2464 21.192L12.4928 20.3454L12.6288 19.6619L11.7394 19.1338H11.7399Z" fill="#F5EEC0"/>
<path fill-rule="evenodd" clip-rule="evenodd" d="M12.3453 20.4C12.3453 20.4 11.7588 20.4387 11.4716 20.6486C11.3551 20.7338 11.3085 20.8037 11.1843 20.9087C10.9552 21.0989 10.722 21.2737 10.6096 21.5231C10.4852 21.7714 10.3493 22.1482 10.2561 22.8589C10.2172 23.1579 10.2172 23.4336 10.19 23.6745C10.1511 24.0007 10.093 24.2608 10.124 24.4425C10.1629 24.8153 10.5474 25.0096 10.5848 25.4327L11.381 25.029L12.1305 22.0735L13.7228 21.0751L12.8217 20.0654L12.3443 20.3982L12.3453 20.4Z" fill="#E6DB9D"/>
<path fill-rule="evenodd" clip-rule="evenodd" d="M8.14576 40.3018C8.14909 40.2726 8.15242 40.2434 8.15575 40.2135C8.27197 39.2151 8.29168 38.4583 8.37693 37.9845C8.50109 37.3127 8.5866 37.0629 8.56714 36.8115C8.54 36.4078 8.50903 36.1126 8.54794 35.8018C8.60605 35.3902 9.01002 34.9009 8.9985 34.563C8.99056 34.295 8.85463 34.1204 8.73815 33.9573C8.62167 33.7943 8.52848 33.6583 8.52848 33.6583C8.52848 33.6583 9.32464 33.1107 9.31696 30.9048C9.33322 30.9094 9.34887 30.9159 9.36356 30.9242L9.75575 32.0386L10.0238 32.3648L11.0529 34.2832L12.3772 35.5689L14.3343 36.8852L15.5616 38.2208L15.6857 41.782L14.0819 43.8635L13.8192 44.3392C11.7325 43.2916 9.81897 41.9298 8.14551 40.3015L8.14576 40.3018Z" fill="#E5CB7A"/>
<path fill-rule="evenodd" clip-rule="evenodd" d="M13.0449 43.7086C13.0449 43.7086 13.0721 43.266 13.4371 42.9785C13.4955 43.0755 13.5341 43.1689 13.5226 43.2386C13.5887 43.1223 14.0507 42.3766 15.0955 42.1823C16.1402 41.9921 16.3926 41.231 16.3926 41.231L18.6099 39.2155L21.1458 36.8816L24.2293 35.7979L25.6703 35.4444C25.6703 35.4444 25.6975 35.5494 25.6432 35.7823C25.911 35.7631 26.5051 35.6272 27.1226 35.4096C27.3712 35.3126 27.6044 35.2736 27.7286 35.4019C27.9111 35.5727 27.9382 35.9766 27.9498 36.2173C28.2488 36.1512 28.5944 35.864 28.8714 35.8911C29.3142 35.9377 29.7064 36.4582 30.157 36.4582C30.7512 36.4582 31.0189 36.0931 31.4347 35.8056C31.6833 35.6349 32.0404 35.4216 32.2424 35.2775C32.7239 34.9239 37.8191 33.3667 37.8191 33.3667L39.6054 33.4832L39.8929 35.4016L39.7393 40.4167C39.7204 40.4349 39.7014 40.4538 39.6822 40.472L31.5599 44.7142L20.301 46.4401C17.779 46.0281 15.3452 45.1909 13.1033 43.9643L13.0457 43.7083L13.0449 43.7086Z" fill="#D8C173"/>
<path fill-rule="evenodd" clip-rule="evenodd" d="M8.82812 40.9396C8.98813 40.605 9.132 40.3252 9.15734 40.2251C9.17731 40.4268 9.21392 40.8695 9.28765 41.34C9.13285 41.2084 8.97968 41.0749 8.82812 40.9393V40.9396Z" fill="#F1D789"/>
<path fill-rule="evenodd" clip-rule="evenodd" d="M17.0526 45.6596L18.5087 45.2546L18.6329 45.2935C18.6329 45.2935 18.6989 45.3324 18.6989 45.4643C18.8814 45.3595 19.0368 45.3787 19.1495 45.3091C19.2076 45.4333 19.2657 45.8449 19.5222 45.8954C19.79 45.9537 20.0775 45.7789 20.3688 45.5577C20.656 45.3286 20.9832 45.0411 21.2308 44.9246C21.3216 45.0916 21.402 45.2641 21.4716 45.441C21.7978 45.1809 22.3648 44.1246 23.1725 44.1438C23.406 43.5921 23.796 43.121 24.2943 42.7885C25.0439 42.2799 25.5136 42.241 26.1001 42.2875C26.3331 41.985 26.6201 41.7282 26.9467 41.5303C27.0437 41.5692 27.3118 41.7323 27.6459 41.5769C27.9838 41.4218 28.3642 40.8196 28.8652 40.7421C29.1352 40.7049 29.4097 40.7626 29.6419 40.9051C29.6419 40.9051 31.1011 39.4564 32.1079 38.9749C32.069 38.8584 31.9915 38.4196 33.1719 37.4486C33.2379 37.507 33.1913 37.6701 33.2379 37.679C33.2571 37.679 33.5451 37.5549 33.9097 37.2751C34.3602 36.9374 34.8999 36.5839 35.226 36.4868C35.8404 36.3043 36.4922 36.6771 36.4922 36.6771C36.5476 36.6382 36.6094 36.6092 36.6747 36.5915C36.8299 36.5644 36.9425 36.545 37.028 36.5147C37.0203 36.7167 37.133 37.0623 37.028 37.3613C37.1496 37.4297 37.2784 37.4844 37.412 37.5244C37.3462 37.668 37.2023 38.0331 36.9617 38.2079C37.1634 38.305 37.1906 38.4176 37.4781 38.5151C37.3616 38.6782 37.1709 38.958 37.0859 39.1295C37.0004 39.3121 36.6934 40.0693 36.5575 40.3565C36.4139 40.644 36.2198 41.1722 36.1264 41.2781C36.0329 41.3841 35.6953 41.8334 35.4352 42.0546C35.6656 41.9691 36.6082 41.6819 37.008 41.5731C36.889 41.7476 36.2856 42.6429 35.7055 43.5038C30.0867 46.8716 23.2904 47.6583 17.0508 45.6634L17.0526 45.6596Z" fill="#E0CD81"/>
<path fill-rule="evenodd" clip-rule="evenodd" d="M12.4412 20.2953C12.4412 20.2953 12.1036 20.2953 12.0375 20.3419C11.9715 20.3885 12.3754 20.4858 12.4996 20.5324C12.6238 20.5789 12.8918 20.7924 12.9617 20.9635C13.0277 21.1265 15.3888 22.0778 15.3888 22.0778L17.0587 21.9923L17.6344 21.1969L16.5393 20.2377L17.3073 17.9736L16.2899 18.1367L13.8433 19.5959L12.6161 20.0659L12.4412 20.2953Z" fill="#DFC57C"/>
<path fill-rule="evenodd" clip-rule="evenodd" d="M16.1086 21.0446C16.1578 21.1242 16.2456 21.1715 16.339 21.1688C16.6846 21.1688 17.0028 21.2543 17.1349 21.4289C17.3564 21.7087 17.97 22.6019 17.97 22.6019L19.4379 23.13L19.5326 21.4015L17.9288 20.2871L16.1035 20.9589V21.0444H16.1076L16.1086 21.0446Z" fill="#E5CC7C"/>
<path fill-rule="evenodd" clip-rule="evenodd" d="M15.8212 21.6856C15.8212 21.6856 16.089 21.7051 16.4269 21.5806C16.7648 21.4562 17.3201 21.1884 17.561 21.2934C17.8987 21.437 17.8288 21.8876 18.1941 22.2918C18.4153 22.5404 18.8192 22.5327 19.0483 22.8007C19.2775 23.0688 20.0657 22.9443 20.0657 22.9443L20.3647 24.5571L19.1648 26.0952L18.7724 28.0057H17.1499L15.6676 27.4177L14.9375 25.6513L15.3026 23.8649L15.8212 21.6856Z" fill="#D2C281"/>
<path fill-rule="evenodd" clip-rule="evenodd" d="M18.9595 21.7628C18.9997 21.7752 19.0415 21.7818 19.0836 21.7823C19.0371 21.8212 18.9398 21.9065 18.9787 22.1279C19.0176 22.3493 19.1418 22.6289 19.0371 22.7996C19.1206 22.891 19.183 22.9998 19.2196 23.1181C19.2856 23.3086 19.3051 23.4832 19.7359 23.5106C19.6738 23.5488 19.6164 23.5945 19.5652 23.6465C19.5652 23.6465 19.8642 23.9066 20.0157 24.1472C20.1709 24.1406 20.5825 24.0126 20.5825 24.0126L20.668 24.0709L20.8506 23.9941C20.8506 23.9941 20.6798 23.9281 20.804 23.5126C20.9204 23.1475 21.0254 23.167 21.0344 23.1399C21.0433 23.1127 21.1199 22.7282 21.1199 22.5728C21.178 22.3711 21.2246 21.7575 21.2246 21.7575L21.1004 20.4022L20.4015 19.9788L19.8332 19.4302L19.2972 20.4398L18.9441 20.7918L18.917 21.6656L18.9595 21.7628Z" fill="#E2C270"/>
<path fill-rule="evenodd" clip-rule="evenodd" d="M20.6406 20.6293C20.6406 20.6293 20.7648 20.9826 20.8116 21.2545C20.8281 21.2016 20.8373 21.1468 20.8388 21.0914C20.8388 21.0914 20.9358 21.6275 20.955 21.8489C20.9939 21.841 21.0318 21.8295 21.0405 21.8681C21.0492 21.9068 21.1378 22.3381 21.1173 22.5788C21.279 22.312 21.5028 22.0882 21.7696 21.9265C21.925 21.8292 22.1075 21.7245 22.298 21.7166C22.597 21.7089 22.8143 21.907 23.1717 21.907C24.0336 21.907 24.8144 21.2739 25.3892 21.0799C25.8123 20.936 26.1774 20.8313 26.4336 20.5981C26.5581 20.4934 26.7795 20.2604 26.9812 19.9146C27.2493 19.4538 27.5288 19.0526 27.8086 19.0022C27.682 19.0254 27.5532 19.0345 27.4246 19.0293C27.4246 19.0293 27.5101 18.9438 27.655 18.8273C27.7999 18.7109 27.9735 18.5672 28.2218 18.5672C28.6647 18.5672 28.8859 18.633 29.1344 18.633C29.383 18.6254 29.5266 18.5672 29.5266 18.5672C29.5266 18.5672 29.787 18.7498 30.3732 18.7498C30.9597 18.7575 31.3519 18.8079 31.6589 18.8353C31.9658 18.8627 32.9947 18.7498 33.2898 18.7585C33.4823 18.7659 33.6712 18.8121 33.8454 18.8944L32.8938 16.1296L29.4757 13.1421L27.4408 14.5829L24.3104 17.713L21.2814 18.8353L20.6483 19.5459V20.6293H20.6406Z" fill="#CCB360"/>
<path fill-rule="evenodd" clip-rule="evenodd" d="M27.437 19.0444C27.437 19.0444 27.5225 18.9591 27.6659 18.8426C27.8092 18.7262 27.9846 18.5823 28.2329 18.5823C28.6755 18.5823 28.897 18.6483 29.1456 18.6483C29.3941 18.6407 29.5378 18.5823 29.5378 18.5823C29.5378 18.5823 29.7984 18.7646 30.3843 18.7646C30.9708 18.7722 31.363 18.8227 31.67 18.8498C31.9769 18.877 33.0058 18.7646 33.301 18.773C33.4933 18.7803 33.6822 18.8265 33.8562 18.909L33.4251 17.6622L32.9244 16.7109L31.4951 15.1457C31.4951 15.1457 29.7799 14.1361 29.7669 14.1284C29.7592 14.1207 29.1727 13.9653 29.1727 13.9653L27.6193 14.9051L26.2098 18.5518L26.1826 19.3198L27.095 19.7509C27.3241 19.3669 27.5768 19.0597 27.8136 19.0208C27.5998 19.0441 27.4368 19.0441 27.4368 19.0441L27.437 19.0444Z" fill="#D5B457"/>
<path fill-rule="evenodd" clip-rule="evenodd" d="M27.4179 19.305C27.282 19.3127 27.1696 19.2856 27.1384 19.1886C27.0219 18.8624 26.9287 18.8158 26.8312 18.8158C26.7336 18.8158 26.602 19.0255 26.524 19.0447C26.4459 19.0639 26.3532 18.804 26.3532 18.804L26.2677 18.7651C26.2677 18.7651 25.7667 19.0913 25.4134 19.4758C25.0602 19.8603 24.4813 20.5128 24.2212 20.6291C23.9612 20.7453 23.0677 20.7845 22.762 20.8505C22.4564 20.9166 22.1174 21.138 22.0708 21.1884C22.0243 21.2389 22.207 21.2931 22.2342 21.3436C22.2613 21.3902 21.9349 21.3707 21.9078 21.4204C21.8886 21.4593 21.9846 21.6805 22.0322 21.7931C22.1155 21.7517 22.2069 21.7291 22.3 21.7271C22.599 21.7194 22.8166 21.9175 23.1737 21.9175C24.0359 21.9175 24.8164 21.2844 25.3912 21.0901C25.8146 20.9465 26.1796 20.8416 26.4359 20.6086C26.5601 20.5039 26.7815 20.2707 26.9835 19.9251C27.1309 19.6883 27.2748 19.4668 27.4187 19.3038L27.4179 19.305Z" fill="#D2B257"/>
<path fill-rule="evenodd" clip-rule="evenodd" d="M15.0531 38.5245C15.0531 38.5245 14.9763 38.237 14.2646 37.4954C14.0626 37.2857 13.9384 37.1114 13.8025 36.9867C13.4646 36.668 13.2664 36.5827 13.0258 36.4002C12.4977 36.008 11.9229 36.008 11.4803 35.5265C11.0377 35.0449 10.5219 34.1249 10.1635 33.1846C9.81017 32.2448 9.71289 31.9458 9.71289 31.9187C9.71289 31.8915 9.81017 31.709 9.93433 31.7361C10.0585 31.7633 10.0585 32.0039 10.0897 32.0623C10.1516 32.1575 10.2217 32.2472 10.2994 32.3301C10.4819 32.54 10.742 32.7909 10.8741 33.1651C10.847 32.8467 10.7382 32.4934 10.7382 32.4934C10.7382 32.4934 11.4217 32.9245 12.0041 33.3748C12.5906 33.8254 12.8312 33.9808 13.0025 34.268C13.1738 34.5552 13.5772 35.3127 13.7705 35.5342C13.9638 35.7556 16.6121 36.5904 16.6121 36.5904L17.8719 37.5297L18.4973 38.9006L18.0078 39.6686L17.068 39.8705L15.5418 39.187L15.0531 38.5242V38.5245Z" fill="#D2B159"/>
<path fill-rule="evenodd" clip-rule="evenodd" d="M11.6621 33.8018C11.6621 33.8018 11.9806 34.3105 12.7573 34.792C13.4564 35.2154 14.5631 35.6 15.5497 35.8291C16.1165 35.965 16.6835 36.0697 17.1922 36.0776C18.5631 36.0968 19.5067 35.7049 20.6759 35.5767C21.309 35.5106 22.0857 35.4602 22.8933 35.2695C23.9301 35.0209 24.5438 34.7411 25.3788 34.3479C25.9845 34.0683 26.5401 33.8586 26.9904 33.5906C27.6235 33.2179 28.0855 32.8024 28.6216 32.6782C28.5555 32.8608 28.4857 33.1869 27.9575 33.5248C28.2371 33.5169 28.6216 33.4977 28.6216 33.4977C28.6216 33.4977 28.2489 33.7189 27.5925 34.216C27.1885 34.5232 26.6527 35.0432 26.1051 35.3888C25.7516 35.6102 25.3671 35.7728 25.1147 35.9054C24.5003 36.2433 24.2524 36.414 23.8487 36.827C23.9923 36.8193 24.0041 36.827 24.0041 36.827C24.0041 36.827 23.4952 36.893 23.1304 37.0871C23.0536 37.0871 22.9205 37.0599 22.6875 37.126C22.505 37.1841 22.2641 37.3164 22.0158 37.3861C21.6622 37.491 21.546 37.4444 21.546 37.4444L21.6041 37.5609C21.6041 37.5609 21.1433 37.553 20.9897 37.5686C21.0169 37.5763 21.0092 37.588 21.0092 37.588C20.9822 37.5926 20.9562 37.6018 20.9324 37.6152C20.8585 37.6631 20.7772 37.6984 20.6917 37.7199C20.6451 37.7276 20.6062 37.7276 20.5479 37.7393C20.5673 37.7859 20.7189 38.0465 20.7888 38.2001C20.7307 38.2391 19.8567 38.8993 19.8567 38.8993C19.8838 38.9419 19.9059 38.9875 19.9227 39.0352C19.9499 39.1205 19.9616 39.2449 19.9888 39.303C20.0546 39.4195 20.0935 39.4389 20.0935 39.4389C20.0935 39.4389 19.9888 39.4584 19.806 39.505C19.6508 39.5439 19.4604 39.6097 19.1916 39.6486C19.1091 39.6593 19.0261 39.6658 18.943 39.668C18.9819 39.7536 19.1527 40.0797 18.838 40.4563C18.5234 40.8328 18.4264 40.8876 18.3294 41.1283C18.2805 41.0913 18.2285 41.0588 18.174 41.031C18.0693 40.9844 17.9254 40.9148 17.875 40.8213C17.8456 40.9458 17.8066 41.0679 17.7585 41.1864C17.6615 41.4465 17.5179 41.703 17.4907 41.897C17.3858 41.7806 17.1917 41.5514 16.9237 41.598C16.6556 41.6446 16.4421 42.0097 16.3955 42.1146C16.3955 42.0486 16.349 41.9982 16.3374 42.0757C16.3295 42.1612 16.182 43.0542 15.3587 43.7766C15.3511 43.5941 15.3511 43.1901 15.3316 43.0583C15.2548 43.1351 15.1609 43.2485 14.6015 43.4894C14.0539 43.73 14.1407 43.9709 14.1407 43.9709C14.1407 43.9709 14.0941 43.5869 14.3893 43.1824C14.6883 42.7787 14.8708 42.5882 14.8708 42.5573C14.866 42.5257 14.8525 42.4961 14.8319 42.4718C14.793 42.4328 14.7154 42.3863 14.7154 42.3553C14.762 42.3361 15.2241 42.1146 15.197 41.6561C15.1698 41.2448 14.9952 41.031 14.8708 40.8797C14.8516 40.8602 15.0536 40.7166 15.0262 40.67C15.0067 40.6429 14.7584 40.4601 14.7272 40.3628C14.7345 40.3048 14.7476 40.2476 14.7661 40.1921C14.7932 40.1066 14.8127 40.0482 14.805 39.9901C14.7856 39.8931 14.6806 39.625 14.6496 39.5979C14.6768 39.6056 14.8708 39.5979 14.8708 39.5979C14.8708 39.5979 14.7157 39.3493 14.6883 39.2328C14.6609 39.1164 14.6028 38.8094 14.5718 38.7513C14.6379 38.759 14.8009 38.7705 14.8009 38.7513C14.8089 38.6929 14.6573 38.5959 14.7241 38.5209C14.7707 38.5286 14.8601 38.5675 14.9453 38.6763C14.8987 38.5519 14.8211 38.3112 14.6578 38.2142C14.7346 38.1871 14.9957 38.1169 15.2249 38.2529C15.454 38.3888 15.5321 38.579 15.5321 38.579C15.5321 38.579 15.668 38.684 15.8779 38.8394C16.1186 39.0296 16.4252 39.3002 16.9147 39.4917C17.0197 39.55 17.2875 39.55 17.4818 39.5111C17.5664 39.491 17.6475 39.4583 17.7224 39.4141C17.7495 39.3982 17.7781 39.3851 17.8079 39.3752C17.7662 39.2914 17.7181 39.2109 17.6643 39.1343C17.7303 39.1343 17.8079 39.1422 17.8079 39.1422C17.8079 39.1422 17.8545 39.0373 17.6448 38.835C17.6914 38.7884 17.7498 38.7582 17.7498 38.6796C17.6837 38.672 17.5673 38.5749 17.5401 38.536C17.5788 38.5089 17.6371 38.4195 17.7032 38.3924C17.6448 38.3458 17.5012 38.1515 17.4352 38.1323C17.4983 38.1089 17.5593 38.0803 17.6177 38.0468C17.6177 38.0468 17.2915 37.9613 17.1866 37.8914C17.0816 37.8146 16.9265 37.6817 16.8333 37.6428C16.736 37.6039 16.5653 37.5847 16.4954 37.5069C16.5612 37.5264 16.6661 37.5069 16.744 37.5069C16.8021 37.5069 16.8295 37.5146 16.8487 37.5146C16.841 37.4874 16.841 37.4291 16.9925 37.4099C17.0654 37.3989 17.1362 37.3766 17.2022 37.3438C17.2022 37.3438 17.0583 37.3361 16.895 37.1808C16.7317 37.0254 16.596 36.9012 16.5028 36.8817C16.4058 36.8623 16.2233 36.9478 16.1106 36.9399C15.9552 36.9207 15.8892 36.8428 15.8892 36.8428C15.8892 36.8428 15.3728 36.8894 14.2272 36.1905C13.2368 35.5846 12.8057 35.0488 12.8057 35.0488C12.713 35.0151 12.6234 34.9735 12.5379 34.9244C12.1651 34.7303 11.6485 34.3264 11.6642 33.798L11.6621 33.8018Z" fill="#C2A44D"/>
<path fill-rule="evenodd" clip-rule="evenodd" d="M25.9495 10.4929C26.0393 10.5221 26.1192 10.576 26.1799 10.6483C26.3624 10.858 26.4789 11.254 26.0634 11.6775C26.2265 11.7356 26.2938 11.7543 26.4361 11.7356C26.2925 11.9066 25.9664 12.2716 25.9469 12.5901C25.9275 12.8502 26.0905 12.928 26.0905 12.928C26.0905 12.928 25.842 13.2153 25.8304 13.696C25.9478 13.5636 26.0763 13.4415 26.2144 13.331C26.5019 13.1018 26.898 12.8417 27.166 12.6787C27.1623 12.747 27.1716 12.8154 27.1931 12.8804C27.1931 12.8804 27.6939 12.4688 28.1147 12.6515C28.3049 12.737 28.2194 13.0048 28.2194 13.0048C28.2194 13.0048 28.4798 12.9078 28.6623 13.0903C28.8448 13.2729 29.1029 13.7436 29.2352 13.9262C29.2934 14.0117 29.4449 14.1747 29.6 14.4272C29.812 14.7805 29.9889 15.1538 30.1284 15.5415C30.1361 15.3395 30.1865 15.0252 30.7615 15.2231C31.3362 15.425 31.9885 15.8485 32.5361 16.6823C33.0837 17.5161 33.2194 18.4574 33.4951 18.8158C33.7746 19.1614 34.0621 19.7361 34.0816 19.977C34.101 20.2179 33.9961 20.9943 34.5708 23.0953C34.7339 22.443 34.9824 20.9943 34.9824 20.9943L35.1184 19.7166L35.2738 15.7632L31.1455 12.3336L27.9184 9.9917L25.8174 10.1937L25.9492 10.4927L25.9495 10.4929Z" fill="#CAA13E"/>
<path fill-rule="evenodd" clip-rule="evenodd" d="M33.6191 16.3763C33.6191 16.3763 33.5607 15.9923 32.59 15.3395C31.619 14.6949 30.8617 14.6949 30.1628 14.1474C29.6268 13.7163 29.0677 12.7258 28.7036 12.3996C28.3501 12.0773 28.292 11.1452 28.292 11.1452L29.4842 10.1468L31.2572 7.58403L32.7561 5.93359L33.4745 6.93199L34.4729 8.10473L35.0281 10.4581L35.2301 13.9029L33.6173 16.3766L33.6191 16.3763Z" fill="#B59544"/>
<path fill-rule="evenodd" clip-rule="evenodd" d="M34.8201 20.5054C34.8494 19.983 34.7849 19.4596 34.6296 18.9599C34.3736 18.1638 33.8142 16.7502 33.5544 16.2207C33.4494 15.6342 33.5273 15.5877 33.6399 15.5216C33.7525 15.4556 34.176 15.2144 34.4079 14.3683C34.6398 13.5222 35.3595 13.4946 35.3595 13.4946L35.8021 13.1685L36.4741 14.8499L37.0603 16.3685L37.2429 17.5297L37.3788 18.5199L37.0603 20.6132L35.4877 22.0345L34.8198 20.5054H34.8201Z" fill="#C89D3A"/>
<path fill-rule="evenodd" clip-rule="evenodd" d="M12.874 43.837V43.794C12.9067 43.7736 12.9356 43.7476 12.9593 43.7172C12.9864 43.6783 13.0061 43.6317 13.0253 43.6202C13.0642 43.6007 13.2468 43.5434 13.3438 43.5618C13.4408 43.5802 13.6973 43.686 13.8333 43.6783C14.1128 43.6706 14.439 43.4569 14.9556 43.5541C15.7323 43.6978 15.9148 44.2259 16.3654 44.5249C16.6726 44.7348 16.9905 44.6414 17.0371 44.6414H17.1418C17.1613 44.6414 17.3049 44.4783 17.3827 44.4862C17.5381 44.4939 17.5534 44.6222 17.6505 44.6298C17.8796 44.657 18.3225 44.5134 18.5439 44.5717C18.6772 44.6135 18.7816 44.7178 18.8235 44.851C18.8701 44.9946 18.8311 45.1772 18.7185 45.2821C18.4779 45.5033 18.2487 45.7132 18.2022 45.8965C18.2614 45.9417 18.3183 45.9899 18.3727 46.0409C16.4512 45.5514 14.6024 44.8111 12.874 43.8393V43.837Z" fill="#CEB052"/>
<path fill-rule="evenodd" clip-rule="evenodd" d="M33.5537 36.0777C33.5537 36.0777 34.1594 35.2701 34.3693 34.8699C34.579 34.4575 33.7053 29.2351 33.7053 29.2351L35.4607 23.4838L35.4138 21.6119C35.4138 21.6119 35.4993 19.8837 35.7013 19.1341C35.9422 19.5652 36.6918 20.0857 36.8548 20.3614C36.9316 19.833 37.1925 18.7186 37.1538 17.5303C37.2975 17.7515 37.6431 19.9769 37.6431 19.9769L37.9887 21.4757L38.4392 23.0681L38.9402 24.7497L39.2392 25.9109L39.41 26.1905L39.5538 26.6797L39.6898 27.2081L40.082 28.4469L40.3124 29.4642L40.4949 31.309C40.5346 31.4502 40.5632 31.5944 40.5804 31.7401C40.5881 31.942 40.5533 32.0585 40.5533 32.0936C40.5533 32.1287 40.6193 32.5362 40.5922 32.8432C40.5533 33.1504 40.5533 33.3908 40.3124 33.6112C40.0715 33.8316 39.9202 35.149 39.9202 35.149L39.4891 34.8617C39.4891 34.8617 39.5746 34.4693 39.3726 34.1122C39.1706 33.755 38.7784 33.6811 38.557 33.7394C38.3358 33.786 37.8932 33.8556 37.7493 33.9801C37.6134 34.1042 37.2795 34.4887 36.9726 34.6636C36.5886 34.894 35.9629 34.9122 35.6291 34.9897C35.2912 35.0665 34.9184 35.2969 34.526 35.5645C34.2183 35.7637 33.8934 35.935 33.5552 36.0765L33.5537 36.0777Z" fill="#CCA847"/>
<path fill-rule="evenodd" clip-rule="evenodd" d="M33.5537 44.5631C33.5537 44.5631 33.5793 44.5798 33.6287 44.6069C36.3878 43.3143 38.8599 41.4819 40.8991 39.2181C40.8768 38.4322 40.8479 37.6266 40.8162 37.3281C40.7504 36.695 40.797 36.0504 40.7775 35.6776C40.7581 35.3049 40.5484 33.7863 40.4514 33.3941C40.3464 33.0019 40.1442 32.8076 40.1135 32.8076C40.0863 32.8156 39.923 33.5457 39.923 33.7292C39.923 33.9128 39.8841 34.3546 39.8841 34.4673C39.8569 34.4593 39.8454 34.3905 39.8454 34.3623C39.8065 34.4593 39.7599 34.6303 39.7405 34.6498C39.721 34.6692 39.7676 34.4867 39.7405 34.4478C39.7133 34.4089 39.6637 34.4284 39.6744 34.3313C39.679 34.2738 39.6881 34.2167 39.7015 34.1606C39.7015 34.1606 39.5851 34.3313 39.4998 34.7663C39.4143 35.1974 39.4143 35.2092 39.3833 35.2478C39.3562 35.2947 39.2008 35.4498 39.1929 35.5082C39.1852 35.6129 39.3367 35.7178 39.3483 35.7759C39.3559 35.8732 39.2123 36.3235 39.1657 36.5439C39.1191 36.7644 39.1386 37.1962 39.0889 37.4177C39.05 37.6196 39.0121 37.7361 38.8793 37.8214C38.9763 37.8408 39.0695 37.868 39.0695 37.868C39.0695 37.868 39.2054 38.4427 38.8598 38.9322C38.7357 39.1029 38.7047 39.1807 38.5726 39.3361C38.3122 39.6234 38.1103 39.9505 38.0908 40.1633C38.0774 40.1005 38.0683 40.0368 38.0637 39.9728C38.0637 39.9728 37.6599 40.4428 37.4889 40.7108C37.2678 41.0564 36.9608 41.037 36.8745 41.1225C36.7883 41.208 36.7696 41.3631 36.7977 41.4875C36.7209 41.5067 36.5766 41.5341 36.4793 41.8331C36.4327 41.9883 36.3162 42.1403 36.1337 42.2448C35.9512 42.3492 35.7297 42.3807 35.6171 42.4079C35.7141 42.435 35.753 42.435 35.7996 42.466C35.7415 42.563 35.4735 42.7146 35.1744 42.9089C34.8754 43.0914 34.7316 43.3592 34.6578 43.534C34.581 43.6971 34.4676 43.802 34.2851 43.8215C34.3619 43.8681 34.4756 43.9766 34.5337 44.0117C34.4482 44.0312 34.3033 44.0312 34.0445 44.2526C33.7726 44.4779 33.6794 44.5439 33.555 44.5634L33.5537 44.5631Z" fill="#C39D3C"/>
<path fill-rule="evenodd" clip-rule="evenodd" d="M28.1497 46.3628C28.2984 46.2586 28.4595 46.1732 28.6292 46.1086C29.2349 45.868 29.8757 45.8214 30.1281 45.7438C30.369 45.667 30.5592 45.561 30.8582 45.5029C30.8503 45.571 30.8436 45.635 30.8364 45.6954C29.9549 45.9726 29.0572 46.1955 28.1484 46.3628H28.1497Z" fill="#D2BA6B"/>
<path fill-rule="evenodd" clip-rule="evenodd" d="M39.3213 30.4311C39.3213 30.4311 39.1972 31.1029 38.9757 31.5263C38.7543 31.9497 38.5149 32.5359 38.5149 32.5359C38.5164 32.4038 38.532 32.2723 38.5615 32.1435C38.282 32.3066 37.6023 32.699 37.4095 32.8736C37.227 33.0367 36.92 33.3242 36.8425 33.4601C37.025 32.9243 37.2152 32.4428 37.2464 32.2213C36.9669 32.4233 35.6618 33.499 34.9824 34.2097L32.8658 35.9223C32.6215 36.0541 32.37 36.1719 32.1124 36.2751C31.7476 36.4302 31.3165 36.5623 30.998 36.6867C31.0835 36.4576 31.2192 36.2554 31.4096 36.0613C31.6116 35.8711 32.2173 35.2147 32.3105 34.9093C32.396 34.5909 32.4155 34.4007 32.3028 34.1326C32.1979 34.1598 31.9572 34.1715 31.7942 34.2181C31.6311 34.2647 31.4562 34.4393 31.4562 34.4393C31.4562 34.4393 31.5804 33.7287 31.8484 33.0569C31.6464 33.0646 31.3008 33.1227 31.3008 33.1227C31.3008 33.1227 31.7824 32.315 32.6064 31.7521C32.3541 31.8058 32.1071 31.8824 31.8687 31.9809C31.3871 32.1829 30.859 32.4819 30.4668 32.645C30.688 32.3378 32.2414 30.1208 33.1658 28.0547C34.0874 25.9926 34.4317 25.4645 34.6337 24.3578C34.7384 23.8102 34.7105 23.001 34.7384 22.2762C34.7655 21.5576 34.8549 20.913 34.7968 20.4819C35.0374 20.7809 35.9385 21.6237 35.9695 23.5073C35.9966 25.3907 35.1076 27.9346 34.1637 29.3052C34.3941 29.3713 34.9911 29.4491 35.6045 28.3836C36.2178 27.3182 36.2104 27.0207 36.4318 26.5778C36.459 26.7992 36.451 26.8768 36.451 26.8768C36.451 26.8768 37.3445 25.7934 37.7677 24.4302C37.8532 25.0167 38.1056 25.5333 37.7093 26.609C37.356 27.5798 36.8939 27.8168 36.8939 27.8168C36.8939 27.8168 37.123 27.7779 37.4607 27.5759C37.5191 27.7196 37.5076 27.8831 37.6046 27.941C37.7016 27.9989 37.8337 28.0964 37.8532 28.1896C37.9579 28.0342 38.1209 27.836 38.1716 27.6886C38.1327 27.9958 38.1056 29.339 38.2484 30.0225C38.5477 29.9954 38.8544 29.9759 39.064 29.436C38.9204 29.9644 38.9204 30.2826 39.0174 30.7332C39.1767 30.6247 39.3203 30.4303 39.3203 30.4303L39.3213 30.4311Z" fill="#C0993A"/>
<path fill-rule="evenodd" clip-rule="evenodd" d="M29.2313 9.02511C29.2313 9.02511 28.9323 9.14927 28.4236 9.14927C27.981 9.14927 28.1052 8.97852 27.414 8.97852C26.35 8.97852 22.6334 9.59291 21.9809 9.58421C21.5575 9.57653 23.4099 9.76674 23.4099 9.76674L28.1441 9.83279L29.0954 9.75599L29.4489 9.03663L29.2313 9.02511Z" fill="#A88F33"/>
<path fill-rule="evenodd" clip-rule="evenodd" d="M16.9549 18.2798C16.9549 18.2798 16.349 18.7419 16.0927 19.0955C15.8364 19.449 15.7005 19.6817 15.4092 19.9692C15.4776 19.9718 15.5459 19.9626 15.6112 19.9421C15.6112 19.9421 15.6112 20.0189 15.5646 20.0391C15.6461 20.03 15.7274 20.0582 15.7858 20.1159C15.7003 20.1625 15.4673 20.3957 15.6498 20.6714C15.7858 20.8811 16.0732 20.9003 16.0732 20.9003C16.0732 20.9003 16.0072 21.0907 16.2829 21.0713C16.8771 21.0441 17.5411 20.7838 17.8478 20.8498C18.155 20.9266 18.3296 20.9548 18.547 21.3316C18.7774 21.7044 18.9781 21.7627 18.9781 21.7627C18.9781 21.7627 19.114 21.4169 19.083 20.9005C19.1945 20.6222 19.2563 20.3265 19.2656 20.0268L19.0636 18.5394L18.1822 17.4248L17.0404 18.0579L16.9549 18.2791V18.2798Z" fill="#E3C571"/>
<path fill-rule="evenodd" clip-rule="evenodd" d="M18.0391 18.0581C18.0391 18.0581 18.1246 18.2601 18.4819 18.2793C18.443 18.3648 18.443 18.3766 18.4548 18.4423C18.4625 18.5084 18.474 18.6054 18.474 18.6054C18.5134 18.5864 18.5489 18.5604 18.579 18.5286C18.5984 18.6141 18.5595 18.7498 18.579 18.8471C18.591 18.9062 18.6105 18.9636 18.6371 19.0178C18.6427 19.0045 18.6492 18.9916 18.6565 18.9792C18.6642 18.9597 18.7333 19.1888 18.9246 19.3632C18.9244 19.3364 18.931 19.3099 18.9438 19.2864C18.9467 19.3351 18.9628 19.3821 18.9904 19.4223C18.976 19.4155 18.963 19.4063 18.9517 19.3952C18.9517 19.3952 18.9709 20.0096 19.0759 20.3273C19.0934 20.3067 19.109 20.2846 19.1225 20.2612C19.1225 20.242 19.1148 20.4322 19.0953 20.5684C19.0682 20.7044 19.0876 20.8946 19.0876 20.8946C19.1577 20.8394 19.2346 20.7937 19.3165 20.7586C19.433 20.7118 19.6237 20.5682 19.7399 20.2497C19.8074 20.0693 19.8593 19.8836 19.8953 19.6944C19.9329 19.7667 19.9588 19.8445 19.9721 19.9248C19.9801 20.0219 20.1626 19.9714 20.1626 19.9714L20.2015 19.548L20.4319 18.5888L20.6416 17.9946L21.6512 16.422L23.4755 15.0171L25.0678 15.3821L26.4113 13.5568L24.0968 12.1665L21.9065 12.3956L19.9186 15.1489L18.3266 17.6462L18.0391 18.0578L18.0391 18.0581Z" fill="#D8B65B"/>
<path fill-rule="evenodd" clip-rule="evenodd" d="M29.5106 14.0739C29.5106 14.0739 29.3747 14.101 28.9825 14.3043C28.5903 14.5076 28.3184 14.5721 28.1669 14.8711C28.0153 15.1701 28.0038 15.4071 28.0038 15.4071C28.0038 15.4071 28.2718 15.2907 28.4272 15.2518C28.5903 15.2131 28.7728 15.2246 28.7534 15.2907C28.7347 15.336 28.7087 15.3779 28.6766 15.4148C28.6766 15.4148 28.9838 15.4071 28.9756 15.5587C28.9674 15.7102 28.9175 15.8772 28.8594 15.9509C28.801 16.0277 28.5603 16.1414 28.5332 16.2307C28.4672 16.4132 28.5603 16.4209 28.5253 16.5684C28.4981 16.7122 28.3701 16.9918 27.9506 17.481C27.5194 17.9705 27.3362 18.3161 27.3362 18.3161C27.3362 18.3161 27.1265 17.9239 27.0177 17.586C26.9409 17.6246 26.5285 17.8537 26.5285 17.8537L25.5731 14.5257L25.5923 14.3043C25.5923 14.3043 25.6778 14.1996 25.6972 14.0053C25.5536 13.9587 25.5342 13.9198 25.3437 13.7375C25.1532 13.5552 24.9981 13.3335 24.6799 13.182C24.6333 13.0965 24.5749 12.9803 24.342 12.9334C24.109 12.8866 23.9692 12.8482 23.9692 12.8482C23.9692 12.8482 24.0934 12.8013 24.1518 12.7043C24.0079 12.7238 23.8917 12.7703 23.577 12.7627C23.2586 12.7547 23.2235 12.7432 23.0489 12.7703C22.8743 12.7975 22.6649 12.8753 22.5868 12.6073C22.5013 12.5412 22.3188 12.5996 22.1634 12.8285C22.008 13.0573 21.9538 13.2401 21.6547 13.3294C21.6337 13.4613 21.5876 13.5878 21.5188 13.7022C21.4333 13.8461 21.2974 13.9897 21.1148 14.2032C20.8274 14.5411 20.8739 15.0964 20.4157 15.5198C19.9536 15.943 20.4925 14.3468 20.4925 14.3468L21.2303 12.5804L23.3313 10.526L26.5935 10.3048L26.912 11.9944L28.5043 12.542L29.5101 14.0759L29.5106 14.0739Z" fill="#D3AE4D"/>
<path fill-rule="evenodd" clip-rule="evenodd" d="M30.0277 14.4467L28.6568 12.4701L27.6976 11.7321C27.6976 11.7321 27.0141 10.4741 26.9675 10.4352C26.9286 10.4081 26.284 10.3382 25.8723 10.311L25.9491 10.5012C26.039 10.5304 26.1188 10.5843 26.1795 10.6566C26.362 10.8663 26.4785 11.2623 26.063 11.6858C26.2261 11.7439 26.2934 11.7626 26.4358 11.7439C26.2922 11.9149 25.966 12.2799 25.9466 12.5984C25.9271 12.8585 26.0902 12.9361 26.0902 12.9361C26.0902 12.9361 25.8416 13.2235 25.8301 13.7041C25.9475 13.5717 26.0759 13.4496 26.2141 13.339C26.5016 13.1086 26.8976 12.8495 27.1656 12.6865C27.162 12.7549 27.1712 12.8234 27.1928 12.8884C27.1928 12.8884 27.6935 12.4768 28.1144 12.6593C28.3046 12.7448 28.2191 13.0129 28.2191 13.0129C28.2191 13.0129 28.4794 12.9158 28.6619 13.0984C28.8445 13.2809 29.1046 13.7507 29.2367 13.9334C29.2948 14.0189 29.4463 14.182 29.6015 14.4342C29.8135 14.7876 29.9904 15.1609 30.1299 15.5488C30.1375 15.3934 30.1688 15.1761 30.4371 15.1761L30.0292 14.4459L30.0277 14.4467Z" fill="#CAA13E"/>
<path fill-rule="evenodd" clip-rule="evenodd" d="M9.47574 20.0624C9.47574 20.0624 9.37871 19.8215 9.47574 19.3517C9.57276 18.882 9.72432 18.6605 9.77475 17.9693C9.82518 17.2781 10.2757 16.4159 10.2757 16.4159L11.5222 15.8491L12.4039 16.0898L12.664 17.2704L11.5493 17.8848C11.5493 17.8848 11.4912 18.1449 11.1766 18.3546C10.862 18.5643 10.427 18.7273 10.3223 18.9411C10.2597 19.072 10.2141 19.2103 10.1864 19.3527C10.1864 19.3527 9.86793 19.2867 9.67772 19.4964C9.47574 19.7101 9.48342 19.9003 9.47574 20.0634V20.0624Z" fill="#F4EFC8"/>
<path fill-rule="evenodd" clip-rule="evenodd" d="M11.9922 19.7477C11.9922 19.7477 11.8873 19.8138 11.8097 19.9781C11.7329 19.854 11.5494 19.1159 11.5417 18.4519C11.534 17.7878 11.4943 17.6232 11.6479 17.3943C11.8015 17.1655 12.4039 16.9243 12.3184 16.5121C12.2329 16.12 11.8755 15.9569 11.4367 16.0695C11.1295 16.1463 10.9009 16.7996 10.5824 17.1258C10.3415 17.3743 10.0543 17.3354 9.97675 17.4714C9.87179 17.6539 9.96881 17.8364 9.93783 17.9529C9.9299 17.9918 9.83287 18.2015 9.65803 18.4539C9.30475 18.9626 8.70673 19.6812 8.62891 20.3258C8.65604 19.9607 8.63684 19.953 8.73387 19.5491L8.6755 19.452L9.0595 18.1938L9.30807 17.157L9.86359 15.4208L10.842 13.6462L11.7936 12.582L12.7838 12.6481L12.9003 14.1354L13.4673 16.9279L14.6595 18.3958L12.7487 19.6817L11.9915 19.7477H11.9922Z" fill="#EBCC73"/>
<path fill-rule="evenodd" clip-rule="evenodd" d="M12.5863 20.2754C12.5863 20.2754 12.4232 20.3143 12.3648 20.2833C12.3065 20.2523 12.2486 20.2173 12.2678 20.1783C12.287 20.1394 12.392 20.0736 12.392 20.0424C12.3965 19.9837 12.3535 19.9321 12.2949 19.9259C12.2056 19.9144 12.1785 19.9725 12.1785 19.9725C12.1785 19.9725 12.093 19.9067 12.0233 19.8957C12.0645 19.8907 12.106 19.888 12.1475 19.8878C12.0402 19.8392 11.9263 19.8065 11.8096 19.7908C11.9066 19.7327 12.0971 19.5616 12.2212 19.5616C12.3454 19.5616 12.4232 19.5424 12.4037 19.4764C12.3843 19.4103 12.2873 19.3133 12.1826 19.2744C12.2212 19.2278 12.2486 19.1579 12.1554 18.9672C12.0581 18.777 12.0971 18.6487 12.1283 18.6024C12.1554 18.544 12.2525 18.4393 12.299 18.3733C12.3456 18.3072 12.3845 18.2179 12.4621 18.1713C12.501 18.1442 12.6252 18.0945 12.7496 18.0471C12.8855 18.0006 12.9982 17.9422 13.0757 18.0006C13.1613 18.0587 13.1223 18.1365 13.1223 18.1365C13.1223 18.1365 13.3904 18.0392 13.631 18.1636C13.8719 18.2799 14.4584 18.3538 14.4584 18.3538L14.6686 18.7773L13.2782 19.9695L12.7035 20.2569L12.587 20.2761L12.5863 20.2754Z" fill="#E5C66B"/>
<path fill-rule="evenodd" clip-rule="evenodd" d="M14.5161 18.3262C14.5161 18.3262 14.085 18.6137 13.988 18.7184C14.0461 18.7264 14.1431 18.7653 14.1042 18.8234C14.0576 18.8815 13.7781 19.0835 13.6227 19.2739C13.4596 19.4641 13.3042 19.705 13.2499 19.8215C13.1918 19.9262 12.749 20.2332 12.5977 20.2718C12.9161 20.2718 13.5569 19.8796 13.7975 19.8796C13.7898 19.9961 13.8636 20.1282 13.9995 20.1397C14.1354 20.1512 14.5276 20.2252 15.0558 19.8991C15.5839 19.5806 15.4093 19.3436 15.6305 19.1884C16.0539 18.9086 16.2247 18.66 16.4576 18.5049C16.6906 18.3498 16.8112 18.3144 16.8112 18.3144C16.8112 18.3144 16.8188 18.198 16.888 18.2097C16.9265 18.2142 16.9594 18.2396 16.9735 18.2758C16.9735 18.2758 17.3774 17.9883 17.8951 17.9107C17.883 17.9053 17.8733 17.8957 17.8679 17.8836C17.8679 17.8836 17.9066 17.8641 17.9145 17.8447C17.9145 17.8447 17.9417 17.8058 17.9611 17.8252C17.9806 17.8447 18.0077 17.9883 18.0466 18.0467C18.1321 18.0078 18.2952 17.6427 18.2952 17.6427L18.6876 16.5204V15.4951L18.3804 15.5535L16.0764 16.5319L14.6782 17.9806L14.5151 18.3262H14.5161Z" fill="#E6BD62"/>
<path fill-rule="evenodd" clip-rule="evenodd" d="M21.1498 13.2972C21.2744 13.267 21.3939 13.2185 21.5044 13.1534C21.4578 13.2778 21.4578 13.4137 21.2558 13.7089C21.0538 14.004 21.0461 14.0468 20.883 14.3535C20.72 14.6719 20.7005 15.1302 20.5451 15.3319C20.6148 15.2981 20.6895 15.2758 20.7663 15.2661C20.7663 15.2661 20.6112 15.4021 20.5451 15.5457C20.4791 15.6893 20.3626 15.9883 20.0754 16.1711C19.7881 16.3539 19.4228 16.4701 19.0306 16.9012C18.6382 17.3244 18.2345 17.8604 18.0322 18.0532C18.1372 17.8707 18.2808 17.5056 18.3197 17.265C18.3586 17.0243 18.3118 16.7366 18.3778 16.4184C18.4439 16.1002 18.4439 15.8708 18.7618 15.3153C19.0798 14.7598 19.624 12.8298 19.624 12.8298L20.7968 12.457L21.1503 13.2959L21.1498 13.2972Z" fill="#B6933F"/>
<path fill-rule="evenodd" clip-rule="evenodd" d="M20.3032 12.5864C20.3032 12.5864 19.9499 13.0951 19.8529 13.5456C19.7558 13.9962 19.8449 13.9573 19.7868 14.1787C19.7521 14.3137 19.7521 14.4554 19.7868 14.5904C19.9092 14.3933 20.0767 14.2281 20.2755 14.1086C20.6096 13.9069 20.8815 13.763 21.0435 13.5922C21.2066 13.4097 21.3425 13.1107 21.6958 12.8816C21.5522 12.8621 21.3502 12.7961 21.3118 12.8048C21.4557 12.6417 21.8865 12.3931 22.3215 12.0941C22.7526 11.7869 22.7254 11.663 23.4246 11.3563C23.1955 11.3952 23.0867 11.3369 22.8962 11.3563C22.973 11.1933 23.2418 11.1154 23.5106 10.8477C23.7794 10.5799 23.3398 10.1836 23.3398 10.1836L21.2918 11.4224L20.3016 12.5874L20.3032 12.5864Z" fill="#C49937"/>
<path fill-rule="evenodd" clip-rule="evenodd" d="M14.7451 11.662L14.7917 11.2893L15.3782 10.3495L15.9918 8.69906V6.44267L15.9452 5.13784L16.0423 4.28331L16.116 4.0117L16.1938 3.90674L16.6946 4.16683L17.386 5.10661L17.4521 6.92037L16.7801 9.78245L14.8616 11.8758L14.7451 11.662Z" fill="#DFC068"/>
<path fill-rule="evenodd" clip-rule="evenodd" d="M16.2714 3.80162C16.2714 3.80162 15.9642 3.80955 15.8987 5.08725C15.8332 6.36495 15.8014 7.03669 15.7548 7.66978C15.7082 8.30287 15.5997 8.68712 15.5452 9.06011C15.4906 9.4331 15.4597 9.94152 15.2851 10.2523C15.2083 10.3959 15.0442 10.8465 14.6597 11.1844C14.2286 11.5571 13.5845 11.8175 13.4869 11.8369C13.3159 11.8756 12.4499 11.9611 12.0966 12.1554C11.9724 12.2215 11.7587 12.299 11.5219 12.5205C11.0519 12.9436 10.4267 13.7009 9.97615 14.6135C9.28495 15.9767 8.59375 19.8252 8.59375 19.8252L8.74914 19.5651C8.74914 19.5651 8.7686 19.2195 9.1142 18.6135C9.45212 18.0078 9.35509 17.3281 9.82485 16.1669C10.0074 15.7243 10.2365 15.1496 10.5161 14.6601C10.9589 13.864 11.4947 13.1804 12.0346 12.8077C12.9161 12.202 13.8871 12.0699 13.8871 12.0699L14.9318 11.3787C14.9318 11.3787 15.1143 11.0254 15.3552 10.6215C15.6929 10.0547 16.1232 9.42159 16.2172 8.50127C16.361 7.13807 16.0152 6.24488 16.0346 5.4372C16.0541 4.62952 16.0618 4.03535 16.2251 3.89147C16.3884 3.7476 16.2717 3.80213 16.2717 3.80213L16.2714 3.80162Z" fill="#A88F33"/>
<path fill-rule="evenodd" clip-rule="evenodd" d="M16.272 9.89891C16.272 9.89891 16.7328 8.76483 16.9437 7.75901C16.9826 7.55702 17.0602 7.35529 17.0797 7.19222C17.1767 6.24067 17.2038 5.84848 17.0797 5.32803C16.9826 4.94403 16.6099 4.59792 16.4156 4.32963C16.2254 4.04982 16.1361 3.94563 16.175 3.88675C16.2139 3.82787 16.3652 3.73161 16.5126 3.74313C16.8294 3.75235 17.1285 3.89117 17.34 4.12713C17.639 4.47273 17.8758 5.64573 17.8758 5.64573L18.1249 7.1935L18.758 9.14294L16.2725 9.90045L16.272 9.89891Z" fill="#C99E3D"/>
<path fill-rule="evenodd" clip-rule="evenodd" d="M20.6018 8.71871C20.6018 8.71871 20.5163 8.75737 20.3612 8.71871C20.3746 8.84797 20.3146 8.9739 20.2058 9.04486C20.0427 8.97881 18.5162 9.1109 18.5162 9.1109C18.5162 9.1109 17.8055 8.98649 17.5841 8.04671C17.4289 7.4213 17.7005 6.55935 17.6112 5.99231C17.4753 5.15724 17.2851 4.99391 17.2656 4.73407C17.2461 4.47423 17.2267 4.40793 17.2267 4.24486C17.1412 4.2254 17.0907 4.19827 17.0055 4.19827C16.986 4.12147 17.0247 4.05439 16.9395 3.91846C16.986 3.93791 17.3045 3.97683 17.6772 4.33011C17.9844 4.61759 17.9844 4.7223 18.0308 4.78066C18.0889 4.83878 18.5589 5.24146 18.7609 5.64287C18.9629 6.04428 19.3551 7.32428 19.4444 7.53394C19.4716 7.61945 19.5299 7.70495 19.6748 7.899C19.9001 8.17881 20.2301 8.6414 20.6028 8.7182L20.6018 8.71871Z" fill="#B58634"/>
<path fill-rule="evenodd" clip-rule="evenodd" d="M18.0859 4.7998C18.3212 5.17984 18.5325 5.57416 18.7188 5.98048C18.9479 6.49683 19.0838 6.92025 19.3713 7.26585C19.2159 6.81555 18.9402 5.93004 18.7771 5.61542C18.5946 5.28262 18.2219 4.92422 18.0859 4.80006V4.7998Z" fill="#A88F33"/>
<path fill-rule="evenodd" clip-rule="evenodd" d="M15.4449 11.1848C15.4449 11.1848 15.0527 11.2819 14.3226 11.6664C14.0817 11.7905 13.8528 11.8952 13.6314 11.9925C13.0561 12.2526 12.4392 12.493 11.9497 12.6256C11.9886 12.6722 12.0078 12.6914 12.0078 12.6914C12.0078 12.6914 12.0078 12.8819 12.1128 12.9904C12.0547 13.0488 11.2777 13.5769 11.5071 15.3438C11.6622 15.2857 11.8447 15.2079 11.8719 15.2079C11.9187 15.2158 11.9302 15.3438 11.9884 15.3438C12.0465 15.3438 12.2369 15.267 12.4389 15.0059C12.4312 15.1108 12.3148 16.1671 12.9399 16.8778C13.0564 16.7418 13.3516 16.2913 13.3516 16.2913L13.3592 16.1476C13.3592 16.1476 13.3864 15.6467 13.5497 15.1884C13.713 14.7302 14.0312 14.3923 14.0312 14.3923L15.6929 12.0194L15.4444 11.1846L15.4449 11.1848Z" fill="#E6C367"/>
<path fill-rule="evenodd" clip-rule="evenodd" d="M13.8915 14.669C13.8154 14.7227 13.7316 14.7646 13.6429 14.7931C13.6158 14.6961 13.5769 14.362 13.806 14.0359C14.074 13.6434 14.6602 13.1348 14.8233 12.7303C14.9283 12.4699 14.8817 11.8177 15.8138 10.9826C16.7459 10.1475 17.1107 9.86028 17.1107 9.86028L18.6175 9.10303L20.4699 9.83314L19.5496 13.4402L18.8351 15.1298L15.9935 14.594L13.8912 14.669H13.8915Z" fill="#DCBA5A"/>
<path fill-rule="evenodd" clip-rule="evenodd" d="M14.9756 13.6894L15.3291 13.2467V12.9321C15.3291 12.9321 15.7213 12.8272 16.1445 12.396C16.5677 11.9649 17.1541 11.1378 17.6708 11.1882C18.1874 11.2466 18.2378 12.3105 18.2573 12.6098C18.2767 12.9091 18.3428 13.5882 18.4475 13.9536C18.5639 14.3186 17.1892 15.701 17.1892 15.701L16.2556 16.4117L14.9756 13.6894Z" fill="#E9CE77"/>
<path fill-rule="evenodd" clip-rule="evenodd" d="M16.0703 17.3748C16.0703 17.3748 16.3578 16.9243 16.1471 16.8272C16.2713 16.5477 16.5004 16.2525 16.5004 16.2525C16.5004 16.2525 16.6635 15.8488 17.1916 15.3516C17.7197 14.8545 18.0461 14.5243 18.1316 14.1904C18.1843 13.9729 18.213 13.7502 18.2171 13.5264C18.2742 13.573 18.3353 13.6146 18.3997 13.6505C18.4852 13.6894 18.8889 14.0233 18.8308 14.6953C18.7726 15.3673 18.5236 15.6468 18.5236 15.6468C18.5236 15.6468 18.2829 15.8875 18.1122 16.0119C17.9294 16.136 17.8636 16.2796 17.5566 16.2914C17.5882 16.2663 17.6237 16.2466 17.6616 16.2331C17.6616 16.2331 17.3431 16.1944 17.1721 16.3495C17.0011 16.5047 16.6376 16.9826 16.4551 17.1265C16.2726 17.243 16.0711 17.3751 16.0711 17.3751L16.0703 17.3748Z" fill="#CDAE50"/>
<path fill-rule="evenodd" clip-rule="evenodd" d="M28.9828 9.82128C28.524 9.65406 28.0418 9.55973 27.5538 9.54173C26.7382 9.51459 25.546 9.56118 24.3771 9.56886C23.1189 9.57654 21.9771 9.13776 20.3927 9.06019C20.1327 8.9048 19.4711 8.22512 17.4062 9.66589C17.5304 9.65821 18.9054 9.34742 19.3828 9.94569C19.8644 10.5399 19.7284 11.5495 19.6626 11.7902C19.5382 12.3262 19.1343 13.1068 18.9714 13.6544C18.8086 14.2019 18.847 14.4897 18.7305 14.8737C18.6141 15.2577 18.3578 15.4484 18.5091 15.891C18.7111 15.7669 18.8163 15.7669 19.1537 15.0096C19.4911 14.2524 19.4217 13.7125 19.9811 13.0717C20.5287 12.4271 21.4403 11.5454 21.7869 11.324C22.1335 11.1026 24.8858 9.67357 27.7676 11.0368C28.4626 10.963 28.9831 9.82102 28.9831 9.82102L28.9828 9.82128Z" fill="#D2A83E"/>
<path fill-rule="evenodd" clip-rule="evenodd" d="M18.5669 9.29284C18.5641 9.26366 18.5576 9.23494 18.5477 9.20734C18.5208 9.15055 18.4854 9.09816 18.4427 9.05195C18.4427 9.05195 17.7592 8.92779 17.4136 8.96644C16.8077 9.03249 16.2601 9.78206 16.0038 10.1666C15.7476 10.5511 15.4291 11.145 15.0835 11.4519C15.0873 11.422 15.0804 11.3918 15.0641 11.3664C15.0641 11.3664 15.0835 11.3936 15.0449 11.4325C15.0062 11.4714 15.0059 11.4906 15.0254 11.5093L15.0838 11.5674C15.103 11.5674 15.639 11.3265 16.3691 10.6458C17.1458 9.93515 17.74 9.5706 18.0508 9.44568C18.2165 9.37524 18.3898 9.32397 18.5672 9.29284H18.5669Z" fill="#C29637"/>
<path fill-rule="evenodd" clip-rule="evenodd" d="M31.8251 6.37305C31.8251 6.37305 31.7007 6.52818 31.5453 6.69919C31.1997 7.06425 30.7491 7.47564 30.3646 7.89906C29.9998 8.30303 29.5882 8.61765 29.1258 9.14578C28.6635 9.67391 28.1274 10.2602 27.9918 10.4312C27.8676 10.6022 27.7706 10.8817 27.7706 11.0253C27.7045 10.9787 27.627 10.9283 27.627 10.9283C27.6596 10.9893 27.6987 11.0466 27.7434 11.0993C27.8405 11.2353 27.9918 11.4065 28.0696 11.511C28.1651 11.6439 28.2336 11.7943 28.2713 11.9536C28.3179 11.9613 28.6169 12.0196 28.9899 11.406C29.3629 10.7924 29.8518 10.1206 29.8518 10.1206L30.6285 8.96709L31.118 7.98866L31.7324 6.89349L31.8259 6.37305H31.8251Z" fill="#AC8132"/>
<path fill-rule="evenodd" clip-rule="evenodd" d="M32.6214 5.58838C32.6214 5.58838 32.1514 5.97238 31.9689 6.20278C31.7864 6.43318 31.3545 7.03785 31.3545 7.03785L31.5099 7.0184L32.2984 6.31952L32.6056 5.77193L32.6212 5.5894L32.6214 5.58838Z" fill="#A88F33"/>
<path fill-rule="evenodd" clip-rule="evenodd" d="M32.4776 36.4508C32.4776 36.4508 32.47 36.1323 32.6486 35.9421C32.8312 35.7516 33.2933 35.4721 33.7438 34.4235C34.1944 33.3749 34.2445 33.1381 34.2445 33.1381C34.2445 33.1381 33.4369 33.8293 32.9389 33.9924C33.0554 33.7515 33.1215 33.5808 33.1798 33.4563C33.1138 33.3982 32.8342 33.3322 32.8071 33.3012C32.9622 33.1458 33.0477 32.7651 33.3624 32.5127C33.7663 32.2055 34.5041 31.6777 35.0776 31.2071C35.651 30.7366 36.7784 29.6422 36.9223 29.3237C37.0078 29.4479 37.027 29.5255 37.027 29.5255C37.027 29.5255 36.4602 30.2635 36.1651 30.7333C35.9047 31.1372 35.9242 31.3664 35.9242 31.3664L36.4602 31.136C36.4602 31.136 36.6154 31.7107 35.9126 32.5847C36.2198 32.4682 36.3437 32.5381 36.5183 32.4408C36.2309 32.6236 35.8348 32.8721 35.4621 33.5554C35.097 34.2389 34.5999 35.0351 33.7612 35.532C32.9456 36.0563 32.4756 36.4485 32.4756 36.4485L32.4776 36.4508Z" fill="#A67A2E"/>
<path fill-rule="evenodd" clip-rule="evenodd" d="M30.3733 10.2253C30.3733 10.2253 30.0549 10.8891 30.0083 11.4057C30.0006 11.5301 29.9694 11.6272 29.9694 11.7708C29.9617 12.2329 29.9965 12.7495 29.8926 12.9901C29.8537 12.8931 29.8342 12.827 29.7953 12.7884C29.7372 12.9515 29.6322 13.4601 29.5467 13.6503C29.5081 13.5262 29.4226 13.0951 29.4305 12.5864C29.4384 12.0777 29.4497 11.9805 29.4497 11.8757C29.4305 12.0309 29.3255 12.2408 29.2866 12.365C29.2285 12.2603 29.1625 12.1243 29.0846 12.0117C29.0381 12.0885 28.9799 12.2019 28.9295 12.2603C28.9216 12.2137 28.9024 12.0893 28.8906 11.9147C28.8829 11.7127 28.8711 11.4526 28.8829 11.3981C28.9021 11.2933 29.0654 10.8817 29.411 10.5049C29.8227 10.0543 30.2461 9.18852 30.3703 8.92049C30.4944 8.65245 31.0226 7.53809 31.0226 7.53809H31.4265L30.84 8.87389C30.84 8.87389 30.4868 9.60401 30.3042 9.87229C30.1217 10.1406 29.7372 10.9093 29.5662 11.2084C29.6903 11.0453 29.7953 10.9598 29.9197 10.8044C30.04 10.6956 30.3739 10.2258 30.3739 10.2258L30.3733 10.2253Z" fill="#8C6228"/>
<path fill-rule="evenodd" clip-rule="evenodd" d="M32.6292 5.5376C32.5632 5.74069 32.4589 5.92926 32.322 6.09312C32.0811 6.38061 31.5645 6.76486 31.3123 7.07155C31.0819 7.37056 30.6211 8.18617 30.8305 9.15309C30.9073 8.94342 31.052 8.52793 31.4365 8.05792C31.821 7.5879 32.2327 7.04825 32.4349 6.62893C32.6366 6.2055 32.6638 5.87168 32.6638 5.87168L32.7406 5.77465L32.694 5.55321L32.6279 5.5376L32.6292 5.5376Z" fill="#CBA94C"/>
<path fill-rule="evenodd" clip-rule="evenodd" d="M40.493 31.2972C40.493 31.2972 40.3376 30.874 40.291 30.4895C40.2444 30.105 40.3678 30.0287 40.225 29.5887C40.1395 29.3206 39.9843 29.3583 39.9454 29.3206C39.9065 29.283 39.8794 28.878 39.887 28.6566C39.8947 28.4351 39.8794 28.1479 39.8405 28.0235C39.7823 27.9769 39.7434 27.938 39.6579 27.6507C39.5609 27.3632 39.5143 27.2196 39.4677 27.1344C39.4211 27.0491 39.2849 26.9713 39.2849 26.8858C39.2849 26.7148 39.4403 26.6257 39.4403 26.5786C39.4326 26.4816 39.3162 26.5594 39.2849 26.532C39.2463 26.4854 39.3822 26.2059 39.3318 26.167C39.3123 26.1478 39.1764 26.3108 39.1413 26.2642C39.1024 26.2174 39.0558 25.7553 38.9859 25.4486C38.9201 25.1496 38.85 24.9323 38.8423 24.8429C38.8346 24.7574 38.3062 23.2506 38.1782 22.8856C38.0751 22.5771 37.9883 22.2634 37.9182 21.9458C37.8792 21.7633 37.8521 21.3903 37.8326 21.4292C37.8132 21.4681 37.825 21.6583 37.7937 21.6506C37.7666 21.6427 37.6696 20.9789 37.6386 20.8739C37.6115 20.7689 37.4481 20.4131 37.4082 20.1556C37.3693 19.8952 37.284 19.2155 37.2257 18.7535C37.1673 18.2914 37.1402 18.1012 37.1402 17.9855C37.1497 17.7024 37.1341 17.4191 37.0936 17.1389C37.0168 16.6494 36.8632 16.0552 36.7285 15.7099C36.4684 15.0573 35.777 13.3874 35.6533 12.972C35.6533 12.867 35.7893 12.9254 35.7893 12.9254C35.7893 12.9254 36.1269 13.772 36.3755 14.4242C36.6164 15.0768 36.8455 15.6515 36.9039 15.7099C36.9505 15.768 37.3155 16.4088 37.4786 17.4573C37.6417 18.5059 37.6998 19.4728 37.7971 20.1174C37.8437 20.4246 37.8826 20.7505 37.9796 21.0767C38.0843 21.4302 38.2474 21.7952 38.4611 22.3544C38.6437 22.8244 38.7796 23.2166 38.8533 23.5545C38.9388 23.9856 38.9388 24.3117 38.9893 24.5255C39.0361 24.708 39.1057 25.0728 39.2691 25.6007C39.4324 26.1286 39.6728 26.8085 39.8358 27.2317C40.1546 28.0783 40.2966 28.7851 40.3448 29.1619C40.3873 29.5503 40.5311 30.894 40.4922 31.2977L40.493 31.2972Z" fill="#A88F33"/>
<path fill-rule="evenodd" clip-rule="evenodd" d="M32.6487 5.49104L32.6292 5.53763C32.6292 5.53763 32.6873 5.55708 32.6758 5.63491C32.6766 5.74138 32.6701 5.84779 32.6564 5.95337C32.6372 6.08931 32.5983 6.19401 32.5906 6.27952C32.5906 6.46204 32.6177 6.67171 32.3602 7.19216C32.2834 7.33577 32.236 7.45993 32.1971 7.54544C32.1001 7.7551 32.0806 7.78633 31.9951 7.88336C32.1311 7.80656 32.6205 7.49936 32.8688 7.54544C32.6981 7.64246 32.4377 7.83292 32.2747 8.0815C32.3136 8.08918 32.4767 8.12041 32.7355 8.0815C33.1666 8.01545 33.6481 7.86006 34.0713 7.89104C34.5336 7.91817 34.3511 7.33577 34.3511 7.33577L33.8176 6.16304L32.8079 5.45264L32.6487 5.49129V5.49104Z" fill="#BE9C44"/>
<path fill-rule="evenodd" clip-rule="evenodd" d="M35.2815 14.276C35.2815 14.276 34.8309 13.8254 34.6484 12.2792C34.4658 10.7258 34.5048 8.43917 34.5048 8.43917L34.1397 7.54599C34.1397 7.54599 34.0629 6.95181 33.8717 6.73063C33.6804 6.50945 33.3049 6.13645 33.1339 5.95393C32.9629 5.7714 32.7688 5.52282 32.6523 5.48391C32.7105 5.38689 32.9708 4.8393 33.9687 4.83162C34.9666 4.82394 35.2743 5.37921 35.3785 5.58119C35.4827 5.78317 35.9532 6.65639 36.1278 8.32039C36.2909 9.98234 36.2988 10.1068 36.2717 10.6815C36.2522 10.9999 36.1473 11.7377 35.9645 12.526C35.7976 13.1941 35.615 13.9398 35.2809 14.2775L35.2815 14.276Z" fill="#A17C34"/>
<path fill-rule="evenodd" clip-rule="evenodd" d="M33.8688 15.6003C34.019 15.6112 34.169 15.5773 34.2999 15.503C34.4436 15.4954 34.964 15.5614 35.3639 15.0527C35.391 15.169 35.4612 15.4838 35.2784 15.7634C35.3757 15.6661 35.5193 15.6275 35.5387 15.6003C35.5464 15.7439 35.6823 16.1866 35.1076 17.2623C35.2628 17.0915 35.4453 17.0992 35.6084 17.0797C35.6163 17.2817 35.7248 17.9611 35.4376 18.3265C35.2474 18.575 34.9366 18.4972 34.9366 18.4972C34.9412 18.443 34.9412 18.3884 34.9366 18.3341C34.9289 18.2292 34.89 18.1245 34.9174 18.0546C34.7672 17.986 34.6305 17.8912 34.5134 17.7748C34.1755 17.4563 33.7367 16.9128 33.7058 16.5089C33.6669 16.0583 34.0708 15.9613 34.0708 15.9613C34.037 15.931 34.0081 15.8956 33.9853 15.8563C33.9659 15.7905 33.9464 15.6856 33.8688 15.6003Z" fill="#8C6228"/>
<path fill-rule="evenodd" clip-rule="evenodd" d="M30.8732 10.7146C30.8732 10.7146 30.8537 10.6875 30.749 10.8117C30.7685 10.6875 30.7879 10.5708 30.7956 10.4581C30.8452 10.3539 30.9093 10.2571 30.9861 10.1709C30.9277 10.2871 30.8888 10.3921 30.8888 10.3921C30.8888 10.3921 31.0327 10.1241 31.2423 9.96098C31.386 9.8445 31.5685 9.79023 31.646 9.68143C31.7316 9.56495 31.7121 9.5455 31.7316 9.52604C31.7316 9.52604 31.922 9.40188 32.2133 9.03657C32.252 8.98998 32.3104 8.93954 32.3493 8.89295C32.4151 8.86582 32.5705 8.79593 32.753 8.70249C32.9435 8.59778 33.157 8.45417 33.2891 8.39529C33.5492 8.27881 33.8251 8.29058 33.9531 8.1078C34.0501 8.08066 34.1548 7.78934 34.1356 7.54102C34.2793 7.59913 35.0171 8.05737 35.2697 9.05935C35.4523 9.77001 35.1259 10.8652 34.9899 11.3936C34.854 11.9219 34.8348 12.3139 34.6443 12.5545C34.4034 12.8732 33.627 13.3225 33.4365 13.545C33.2734 13.7275 32.7842 14.1896 32.8034 14.5234C32.8229 14.772 33.1296 14.9074 33.1959 14.9545C33.2622 15.0016 33.2617 15.0595 33.3861 15.0313C33.5105 15.0032 33.5568 14.9458 33.6075 14.9458C33.6656 14.9535 33.6656 14.9653 33.6928 14.9653C33.7124 14.9647 33.732 14.962 33.7511 14.9573C33.7511 14.9573 33.7317 15.3109 32.9045 15.4181C32.8462 15.4261 32.7881 15.4453 32.7141 15.457C32.8114 15.4105 32.8695 15.4105 32.9744 15.2668C32.858 15.2474 32.5239 15.2279 32.4384 15.2008C32.4655 15.1542 32.5548 15.0298 32.6286 14.9717C32.6946 14.9136 32.6209 14.8949 32.5628 14.9251C32.4627 14.9931 32.3667 15.067 32.2753 15.1463C32.1783 15.2318 32.0928 15.3482 31.9374 15.4535C31.8908 15.2981 31.8985 15.0029 32.0812 14.7894C32.0344 14.7971 31.9451 14.933 31.8598 14.9059C31.8444 14.7642 31.8536 14.621 31.8869 14.4825C31.9335 14.3076 32.186 14.0009 32.186 14.0009L33.4053 11.8221L33.6654 10.1717L30.8732 10.7141V10.7146Z" fill="#92723A"/>
<path fill-rule="evenodd" clip-rule="evenodd" d="M30.8076 10.8079C30.8076 10.8079 30.7416 10.8545 30.8737 10.9439C30.8542 10.971 30.8076 11.068 30.7493 11.1341C30.6835 11.2109 30.6133 11.2585 30.5862 11.3245C30.5281 11.4605 30.4815 11.5537 30.4815 11.612C30.4815 11.6704 30.462 12.0431 30.299 12.2838C30.2406 12.3693 30.1746 12.5129 30.128 12.6099C30.0309 12.7807 29.9454 12.9171 29.926 12.9939C29.8873 13.1299 29.8602 13.5026 29.8602 13.5026C29.8602 13.5026 29.9457 13.3976 29.9767 13.359C29.9298 13.456 29.8794 13.5607 29.8057 13.6385C29.8523 13.5996 29.9882 13.5026 30.2173 13.3006C30.5358 13.0328 31.0329 12.5823 31.6389 12.2254C31.4561 12.2915 31.301 12.2915 31.1768 12.3109C31.2738 12.2139 32.1476 11.1886 32.6058 11.0916C32.6336 11.0563 32.6475 11.012 32.6447 10.9672L32.2523 10.9285L31.4561 11.0993L31.3399 10.4849L30.8076 10.8072V10.8079Z" fill="#B18E3E"/>
<path fill-rule="evenodd" clip-rule="evenodd" d="M32.0736 14.3031C32.0736 14.3031 31.9687 14.4078 31.8717 14.6681C31.797 14.5901 31.7329 14.5026 31.6812 14.4078C31.5376 14.1672 31.3164 13.8602 30.7998 14.0351C30.7921 13.872 30.7803 13.7865 30.7998 13.67C30.8853 13.6508 31.1454 13.4411 31.4055 13.1342C31.5883 12.9245 31.759 12.6836 31.8755 12.3769C31.9523 12.3186 32.0852 12.2216 32.2595 12.1089C32.5081 11.9382 32.8071 11.7049 32.8537 11.4449C32.7372 11.4914 32.4886 11.6079 32.1156 11.5887C32.2595 11.5227 32.4807 11.4528 32.4535 11.1653C32.5119 11.1264 32.5585 11.0993 32.5585 11.0993C32.5147 11.0846 32.4687 11.0781 32.4226 11.0798C32.4146 11.0527 32.4031 11.014 32.3371 11.0332C32.271 11.0524 32.2603 11.0527 32.2516 11.0798C32.2244 11.0877 32.1351 11.0798 32.069 11.1266C32.003 11.1735 31.8205 11.3284 31.7506 11.3555C31.7777 11.3089 31.8164 11.2393 31.8164 11.2393C31.8164 11.2393 31.6262 11.2585 31.4902 11.3161C31.2416 11.4016 30.9544 11.557 30.6631 11.7083C30.6902 11.6617 30.702 11.6315 30.7212 11.6228C30.7404 11.6141 30.7872 11.6036 30.7872 11.5956C30.7872 11.5877 30.768 11.5188 30.7796 11.4909C30.8667 11.3064 30.9694 11.1297 31.0868 10.9628C31.2227 10.78 31.2498 10.5199 31.2498 10.5199L31.844 10.2209L33.5139 9.83691L34.5975 9.90296L34.4616 10.6525L33.8216 11.9612L33.274 13.1534L32.6486 13.8838L32.0739 14.3031H32.0736Z" fill="#543E26"/>
<path fill-rule="evenodd" clip-rule="evenodd" d="M34.7811 11.0593C34.7811 11.0593 34.1286 11.867 33.9461 11.9914C34.0625 11.7428 34.7811 10.2631 35.0412 9.8515C34.9831 9.8049 34.9053 9.8049 35.0878 9.0835C34.9327 9.4483 34.8782 9.63876 34.7502 9.73578C34.6222 9.83281 34.6063 9.80183 34.5198 9.80183C34.5361 9.77228 34.5428 9.73836 34.539 9.70481C34.539 9.70481 33.9914 9.63876 33.6174 9.63876C33.2433 9.63876 32.503 9.84074 32.0911 10.0038C31.7649 10.1398 31.5824 10.1398 31.4659 10.225C31.3494 10.322 31.2834 10.427 31.225 10.4541C31.1784 10.4813 30.9573 10.5511 30.9066 10.6249C30.86 10.7017 30.7824 10.7879 30.7824 10.8074C30.7824 10.8269 30.763 10.8542 30.8213 10.8345C30.8405 10.8269 30.9844 10.749 31.1475 10.652C31.3686 10.5278 31.6367 10.3842 31.831 10.2987C32.3863 10.0773 32.5611 10.1162 32.8094 10.0696C33.0695 10.023 33.4425 9.91422 33.6908 9.91422C33.9394 9.90654 34.4094 9.91422 34.5182 9.93367C34.4716 9.97258 34.4327 10.0192 34.4522 10.1822C34.4522 10.2288 34.4133 10.2793 34.3754 10.3919C34.2591 10.7104 34.0377 11.2385 33.9146 11.5065C33.7438 11.8713 33.5498 12.1783 33.4538 12.3685C33.3578 12.5587 33.1466 13.0597 32.9374 13.3277C32.7283 13.5958 32.619 13.7588 32.5534 13.8172C32.4879 13.8756 32.0174 14.2209 32.0524 14.3453C32.1379 14.3182 32.6778 14.1149 33.0698 13.6736C33.4617 13.2322 33.5398 12.9629 33.8465 12.722C34.1532 12.4811 34.3941 12.0774 34.5377 11.7436C34.658 11.4328 34.6309 11.3358 34.7822 11.0601L34.7811 11.0593Z" fill="#806031"/>
<path fill-rule="evenodd" clip-rule="evenodd" d="M20.7187 17.0877C20.7187 17.0877 20.6332 17.441 20.4389 17.6158C20.2487 17.7869 19.9107 17.9343 19.8721 18.2218C19.8255 18.509 20.21 18.6529 20.21 18.6529C20.21 18.6529 20.0001 18.9985 20.0001 19.2586C20.0001 19.5266 19.9924 19.5771 20.0195 19.8333C19.9887 19.8531 19.9625 19.8793 19.9427 19.9101C19.9427 19.9101 19.9619 20.1587 20.1524 20.3138C20.3429 20.469 20.5057 20.5624 20.6027 20.5235C20.6175 20.5552 20.6305 20.5876 20.6416 20.6208C20.6416 20.6208 20.7855 20.2557 20.8825 19.9373C20.9795 19.6111 21.065 19.6574 21.1037 19.2187C21.1424 18.7799 21.5645 18.0265 21.5645 18.0265L21.8525 17.3826L21.3827 17.0176L20.7187 17.0875V17.0877Z" fill="#B6903C"/>
<path fill-rule="evenodd" clip-rule="evenodd" d="M21.5923 17.7202C21.4954 17.8197 21.406 17.9261 21.3248 18.0387C21.2006 18.2097 21.1036 18.3648 20.9211 18.4311C20.7386 18.4974 20.6221 18.4969 20.6336 18.6797C20.6451 18.8625 20.8161 18.9398 20.9131 19.033C21.0181 19.13 21.1036 19.2931 21.057 19.4759C21.1151 19.4487 21.2201 19.4175 21.3171 19.2078C21.4141 18.9982 22.0928 17.7205 22.0928 17.7205H21.5923V17.7202Z" fill="#685026"/>
<path fill-rule="evenodd" clip-rule="evenodd" d="M24.2685 14.7725C24.2685 14.7725 24.3266 14.6174 24.2685 14.5048C24.2101 14.3883 23.8569 14.3494 23.682 14.2173C23.4995 14.0813 23.278 13.9869 23.0955 14.0465C23.1227 13.9805 23.2315 13.8366 23.1421 13.8056C23.0566 13.7785 22.7384 13.9221 22.6529 13.9881C22.5674 14.0542 22.3731 14.1318 22.3344 14.1786C22.2958 14.2255 22.2295 14.3145 22.1906 14.2756C22.1516 14.2485 22.1324 14.1786 22.0664 14.2173C22.0003 14.2559 21.6824 14.5163 21.6238 14.6678C21.5651 14.8194 21.4333 15.1573 21.0373 15.5416C20.6412 15.9258 20.4702 16.1746 20.5867 16.3183C20.7032 16.4619 20.7577 16.3572 20.7772 16.4813C20.7921 16.6032 20.7856 16.7268 20.7577 16.8464C20.7111 17.0484 20.6336 17.2386 20.7383 17.2775C21.0063 17.363 21.2667 17.2007 21.3248 17.2504C21.4412 17.3551 21.2587 17.7319 21.5344 17.8056C21.8142 17.8824 22.0899 17.7396 22.0899 17.7396L23.1073 17.192L24.086 16.6756L24.5867 15.6852L24.3182 14.858L24.267 14.7725H24.2685Z" fill="#D4B968"/>
<path fill-rule="evenodd" clip-rule="evenodd" d="M23.3088 17.1381C23.3088 17.1381 23.1378 16.878 23.3477 16.6486C23.5577 16.4192 23.8564 16.3224 23.9729 16.1788C23.9507 16.1515 23.921 16.1313 23.8874 16.1207C23.9647 15.9824 24.0827 15.8711 24.2253 15.802C24.1672 15.7439 24.0894 15.6973 24.0041 15.6973C23.8137 15.6973 23.6969 15.8138 23.5223 15.8138C23.3516 15.8138 23.3321 15.7283 23.3321 15.7283C23.3321 15.7283 23.6196 15.7011 23.5922 15.5729C23.5651 15.4369 23.5154 15.4369 23.5154 15.4369C23.5154 15.4369 24.0707 15.2065 24.1677 15.0837C24.2647 14.9608 24.2532 14.8156 24.2727 14.7575C24.3385 14.7575 24.723 14.5555 24.8784 14.641C25.0338 14.7265 24.925 14.9595 24.925 14.9595C24.925 14.9595 25.3952 14.606 25.6348 14.2593C25.8445 14.2788 25.942 14.1157 26.0956 14.1157C26.2861 14.1157 26.5851 14.3758 26.6432 14.9311C26.6821 15.2495 26.7402 15.4321 26.6821 15.9953C26.655 16.3137 26.6627 16.9937 26.7589 17.3311C26.8247 17.5991 26.9801 17.572 26.9801 17.572C26.9563 17.6537 26.909 17.7265 26.8442 17.7816C26.7392 17.8787 26.7277 18.1352 26.7392 18.2322C26.7547 18.3031 26.7742 18.3731 26.7976 18.4419C26.7976 18.4419 26.6734 18.5855 26.6422 18.6828C26.6151 18.7798 26.4871 18.8458 26.3936 18.8458C26.3002 18.8458 26.347 18.8379 26.2229 18.8458C26.0987 18.8538 26.0598 18.873 25.982 18.8458C25.9042 18.8187 25.846 18.7875 25.8773 18.5386C25.9044 18.2901 24.918 17.7115 24.918 17.7115L23.3052 17.1368L23.3088 17.1381Z" fill="#CCA849"/>
<path fill-rule="evenodd" clip-rule="evenodd" d="M21.4564 19.592C21.4564 19.592 21.8096 20.062 23.2622 20.062C23.9534 20.062 24.1943 19.996 24.3374 19.9571C24.4928 19.9181 25.0752 19.6893 25.6617 18.9978C26.1898 18.3727 26.0733 18.1164 26.0733 18.1164L25.7661 18.0698L24.7677 18.2058L21.8135 19.464L21.4551 19.592H21.4564Z" fill="#585136"/>
<path fill-rule="evenodd" clip-rule="evenodd" d="M22.5395 19.7089C22.5395 19.7089 21.2812 19.9887 21.2812 19.1926C21.2812 18.4158 22.058 17.6002 22.2523 17.4566C22.4542 17.3127 22.9358 17.1494 22.9358 17.1494H24.097L24.3182 17.7359L24.2212 19.0018L22.5395 19.7086V19.7089Z" fill="#252211"/>
<path fill-rule="evenodd" clip-rule="evenodd" d="M23.7006 17.3867C23.7006 17.3867 23.4599 17.1653 22.9123 17.4635C22.3648 17.7617 21.9219 18.3851 21.8947 18.9511C21.8676 19.4518 22.3064 19.8248 22.9899 19.8443C23.4986 19.8635 23.8055 19.8054 23.9609 19.7675C23.922 19.7209 23.72 19.4685 23.72 19.4685L23.7008 17.387L23.7006 17.3867Z" fill="#C3B378"/>
<path fill-rule="evenodd" clip-rule="evenodd" d="M23.4643 17.5102C23.4643 17.5102 23.4062 17.4636 23.2339 17.5568C23.0903 17.6336 22.8806 17.8366 22.7175 17.9802C22.6126 18.0657 22.5465 18.1044 22.4871 18.1704C22.2462 18.4579 22.0443 18.9279 22.161 19.1609C22.2777 19.3938 22.662 19.6619 23.6407 19.4793L23.4615 17.5104L23.4643 17.5102Z" fill="#E6D89C"/>
<path fill-rule="evenodd" clip-rule="evenodd" d="M23.1462 17.9922C23.1462 17.9922 22.9908 18.2331 22.9908 18.6176C22.9908 19.0098 23.2122 19.635 24.0278 19.6816C24.653 19.7205 25.0723 18.7807 25.5267 18.4157C25.8723 18.1361 26.082 18.1282 26.082 18.1282C26.082 18.1282 25.7287 17.7442 24.7851 17.2468C23.853 16.7458 22.8083 16.6797 22.2412 17.4487C22.5092 17.4293 23.3753 17.2078 23.3753 17.2078L23.7987 17.3438L23.1462 17.9925V17.9922Z" fill="#252211"/>
<path fill-rule="evenodd" clip-rule="evenodd" d="M24.3647 18.501C24.3375 18.4429 24.3181 18.3651 24.4307 18.3459C24.5433 18.3267 24.5938 18.338 24.6327 18.4227C24.6716 18.5074 24.7095 18.5781 24.6519 18.6132C24.5938 18.6441 24.4422 18.6132 24.3644 18.5005L24.3647 18.501ZM24.1821 17.9535C24.1821 17.9535 24.1432 17.9806 24.1627 17.9263C24.1704 17.8605 24.221 17.7438 24.3452 17.7712C24.4694 17.7986 24.4425 17.9343 24.422 17.9732C24.4015 18.0121 24.2978 18.0779 24.22 18.05C24.2 18.0448 24.1836 18.0305 24.1759 18.0113C24.1683 17.9922 24.1702 17.9705 24.1811 17.9529L24.1821 17.9535Z" fill="#6F674D"/>
<path fill-rule="evenodd" clip-rule="evenodd" d="M13.6699 18.2017C13.6699 18.2017 13.9771 18.4321 14.334 18.4231C14.6873 18.4152 15.1417 18.0504 15.3513 17.8172C15.4755 17.6812 15.5817 17.5376 15.6969 17.425C15.7942 17.3279 15.86 17.2813 15.9066 17.2153C15.9726 17.1385 16.0425 16.9941 16.0776 16.9473C15.9921 17.0133 15.8679 17.13 15.7397 17.2076C15.6155 17.2844 15.3475 17.4288 15.2387 17.4677C15.134 17.5066 14.0465 18.0821 14.0465 18.0821L13.6699 18.2017Z" fill="#AC924C"/>
<path fill-rule="evenodd" clip-rule="evenodd" d="M14.1396 15.3323C14.1396 15.3323 14.3104 15.2158 14.6406 15.1418C14.9591 15.065 15.5999 15.0059 15.5999 15.0059L16.128 15.2363L16.3377 16.0324L15.9537 16.8598L15.4644 17.167L14.9089 16.2738L14.1409 15.3338L14.1396 15.3323Z" fill="#9F8E57"/>
<path fill-rule="evenodd" clip-rule="evenodd" d="M13.4484 16.0425L13.2656 16.179C13.2656 16.179 13.3125 16.0935 13.3511 15.8334C13.3898 15.5733 13.592 14.9402 13.8872 14.5751C14.1824 14.2101 14.1747 14.2295 14.1747 14.2295C14.1197 14.2195 14.0631 14.2336 14.0193 14.2682C14.0582 14.1822 14.3068 13.875 14.5554 13.7214C14.8039 13.5678 14.901 13.5194 15.161 13.6446C15.4211 13.7697 15.4872 13.8348 15.6777 13.8271C15.8681 13.8194 16.0309 13.6174 16.0309 13.6174C16.0309 13.6174 16.0698 13.7416 15.9262 14.0291C15.7826 14.3166 15.2156 14.9028 15.2156 14.9028L14.0349 15.7105L13.4484 16.0433V16.0425Z" fill="#EAC970"/>
<path fill-rule="evenodd" clip-rule="evenodd" d="M14.3223 15.235C14.3223 15.235 15.1768 15.3515 15.4369 15.1108C15.4446 15.138 15.4758 15.138 15.4758 15.1574C15.4738 15.1721 15.4669 15.1856 15.4564 15.1961C15.4847 15.1915 15.5133 15.189 15.5419 15.1884C15.5761 15.1986 15.6113 15.2051 15.6469 15.2078C15.6755 15.2072 15.7041 15.2046 15.7324 15.1999C15.7269 15.2389 15.7058 15.274 15.674 15.2972C15.7129 15.2972 15.7508 15.3049 15.7508 15.3358C15.7508 15.3668 15.7585 15.4603 15.7119 15.4797C15.6733 15.4904 15.6322 15.4876 15.5954 15.4718C15.5985 15.5453 15.6185 15.6171 15.6538 15.6817C15.7306 15.8253 15.8944 15.9889 16.1146 15.9418C16.1146 15.9418 16.2308 16.2213 15.7416 16.8427C15.6758 16.9282 15.6056 17.0446 15.5204 17.1417C15.4867 17.2151 15.461 17.2919 15.4436 17.3708C15.4436 17.3708 16.271 17.0523 16.5078 16.326C16.7487 15.5959 16.7953 14.8776 16.7487 14.2059C16.7407 14.0154 16.7098 13.8797 16.6632 13.7824C16.5467 13.5415 16.2203 13.5804 16.0885 13.7164C15.898 13.9068 15.5795 14.3804 15.1369 14.7066C14.6863 15.0327 14.6671 15.0906 14.3213 15.235H14.3223Z" fill="#D7BC6B"/>
<path fill-rule="evenodd" clip-rule="evenodd" d="M13.2971 16.2836C13.2971 16.2836 13.134 16.3806 13.0485 16.7444C12.963 17.1171 13.1253 17.5715 13.2193 17.7152C13.3132 17.8588 13.5265 18.2512 13.9688 18.2707C14.0783 18.2701 14.1866 18.2476 14.2873 18.2046C14.4417 18.1338 14.5866 18.0438 14.7184 17.9366C14.9089 17.793 15.064 17.6688 15.0445 17.657C14.998 17.6376 13.8718 16.7055 13.8718 16.7055L13.4484 16.2329L13.2968 16.2841L13.2971 16.2836Z" fill="#585136"/>
<path fill-rule="evenodd" clip-rule="evenodd" d="M14.3618 17.8292C14.3618 17.8292 14.5909 17.81 14.7268 17.7245C14.8628 17.639 13.9307 16.7148 13.9307 16.7148L13.9967 17.7132L14.3618 17.8292Z" fill="#453A25"/>
<path fill-rule="evenodd" clip-rule="evenodd" d="M13.3713 16.2136C13.3713 16.2136 13.2548 16.435 13.2548 16.4934C13.2354 16.6836 13.2937 17.2816 13.3403 17.4718C13.3869 17.6738 13.6393 17.9805 13.9657 17.9805C14.1675 17.9805 14.4473 17.8563 14.4473 17.8254C14.4473 17.7864 14.1598 17.7486 14.0822 17.6039C14.0356 17.5271 14.0162 17.3361 14.0054 17.1431C13.9977 17.019 13.9977 16.883 14.0443 16.8359C14.1493 16.7194 14.1685 16.3854 14.1685 16.3854L14.5412 15.6929H14.051L13.4645 16.0579L13.3713 16.2136Z" fill="#84754B"/>
<path fill-rule="evenodd" clip-rule="evenodd" d="M13.2275 16.4275C13.2275 16.4275 13.6115 15.9188 13.9577 15.8021C14.3038 15.6853 14.4586 15.7555 14.4586 15.7555L14.2567 16.2721L13.9692 16.5905L13.9886 16.7536C13.9886 16.7536 13.9418 17.1847 14.2293 17.4837C14.5168 17.7827 14.7303 17.7712 14.8547 17.7712C14.9791 17.7712 15.3362 17.6663 15.5187 17.2352C15.6818 16.8314 15.8177 16.3136 15.4916 15.7944C15.1729 15.2778 14.6099 15.2578 14.5011 15.2578C14.3923 15.2578 13.5381 15.3006 13.2275 16.4267V16.4275Z" fill="#252211"/>
<path fill-rule="evenodd" clip-rule="evenodd" d="M23.0875 18.1552C22.9439 18.0891 23.0798 17.6854 23.2234 17.561C23.367 17.4366 23.5496 17.2932 23.8683 17.2735C23.9845 17.2658 24.0971 17.3395 24.0779 17.4174C24.0508 17.561 23.8488 17.763 23.6663 17.9066C23.4139 18.1047 23.2506 18.2289 23.0875 18.1552Z" fill="#F7F7E7"/>
<path fill-rule="evenodd" clip-rule="evenodd" d="M15.3199 15.9536C15.4248 15.9459 15.5608 16.0304 15.5879 16.1441C15.615 16.2682 15.5218 16.5168 15.3199 16.5168C15.1568 16.5168 15.0713 16.3148 15.0713 16.2567C15.0731 16.2089 15.0865 16.1623 15.1102 16.1208C15.1179 16.109 15.1373 15.9731 15.3199 15.9536Z" fill="#F8F6DE"/>
<path fill-rule="evenodd" clip-rule="evenodd" d="M13.8056 16.043C13.8056 16.043 13.5376 16.1671 13.4134 16.427C13.3247 16.6188 13.2979 16.8336 13.3366 17.0414C13.3561 17.1384 13.4531 17.379 13.5191 17.4645C13.5852 17.55 13.6745 17.6084 13.7406 17.6005C13.8066 17.5925 13.9423 17.4179 13.9423 17.3132C13.9423 17.2085 13.9502 16.7657 14.0782 16.5248C14.1909 16.2841 13.8064 16.0432 13.8064 16.0432L13.8056 16.043Z" fill="#D4C38B"/>
<path fill-rule="evenodd" clip-rule="evenodd" d="M13.8443 16.0234C13.7977 16.0505 13.7201 16.0894 13.7393 16.1399C13.7588 16.1865 13.9219 16.2167 13.9802 16.3303C14.0463 16.4468 14.0463 16.571 14.0268 16.6293C14.0775 16.6052 14.1236 16.5723 14.1627 16.532C14.2483 16.435 14.353 16.3032 14.4423 16.3032C14.5007 16.3032 14.5588 16.3303 14.6133 16.3303C14.6988 16.3303 14.7841 16.3032 14.7958 16.2138C14.815 16.0974 14.6328 15.9924 14.5278 16.0119C14.5473 15.9351 14.5744 15.8217 14.4889 15.7438C14.4034 15.666 14.1356 15.8022 14.0772 15.8411C14.0189 15.88 13.8443 16.0236 13.8443 16.0236V16.0234Z" fill="#E2D59D"/>
<path fill-rule="evenodd" clip-rule="evenodd" d="M20.0154 24.1824L20.5901 24.0127L20.7532 24.1292C20.7532 24.1292 20.8694 24.3778 21.0522 24.4087C20.9938 24.5329 20.8422 24.6391 20.8502 24.7272C20.8581 24.8153 20.9357 24.8826 20.9357 24.8826C20.9357 24.8826 20.4191 25.7369 21.4367 26.5978C21.1958 26.6948 20.8891 26.8282 20.726 26.905C20.8422 26.9321 21.0908 26.9818 21.1958 27.076C21.3007 27.1702 21.3007 27.2002 21.3978 27.2585C21.4948 27.3169 21.5529 27.3945 21.5337 27.4293C21.4676 27.3904 21.2462 27.2741 21.2076 27.3827C21.1689 27.4912 20.2483 27.4487 20.2483 27.4487L18.6949 27.7477C18.6949 27.7477 18.753 27.5923 18.59 27.4487C18.3997 27.278 18.1668 27.4564 17.9182 27.2662C17.5921 27.0176 17.5803 26.7301 17.4756 26.6216C17.5803 26.5555 17.794 26.4585 18.3027 26.3912C18.2833 26.3523 18.2172 26.2358 18.2561 26.1311C18.3027 25.9952 18.4968 25.9097 18.4387 25.7471C18.5242 25.7276 18.5628 25.7276 18.7766 25.4596C18.9786 25.1916 19.1027 25.1335 19.2581 25.114C19.4135 25.0946 19.5067 25.114 19.7942 24.846C19.9959 24.6558 19.9301 24.4927 19.9301 24.4927C19.9301 24.4927 20.062 24.4499 20.0156 24.1819L20.0154 24.1824Z" fill="#CBAC5A"/>
<path fill-rule="evenodd" clip-rule="evenodd" d="M18.3183 24.2688C18.326 24.2299 18.3572 24.2105 18.5669 24.2299C18.7765 24.2494 20.1047 24.1058 20.4659 24.0863C20.8309 24.0592 22.1163 24.0784 22.7417 24.2105C23.3671 24.3426 23.9999 24.498 24.3066 24.5755C24.6138 24.661 24.7106 24.6918 24.6988 24.7307C24.6911 24.7696 24.622 24.8075 24.5823 24.7967C24.5437 24.789 23.5261 24.4782 23.2117 24.4127C22.8974 24.3472 21.8096 24.1718 21.2149 24.1823C20.6597 24.1902 20.4382 24.1746 19.9685 24.2289C19.4984 24.2873 18.7217 24.3648 18.4888 24.3339C18.2584 24.3067 18.306 24.3067 18.3178 24.2678L18.3183 24.2688Z" fill="#D6BC6F"/>
<path fill-rule="evenodd" clip-rule="evenodd" d="M21.4442 27.3129C21.4442 27.3129 22.2403 27.744 22.5278 28.2721C22.7375 28.6643 22.4036 28.8586 22.4036 28.8586C22.4036 28.8586 22.8542 28.8586 22.7958 29.1072C22.7687 29.2623 22.0191 29.6816 21.5181 29.9031C21.0095 30.1245 21.0289 30.113 20.7804 30.1516C20.5395 30.1906 19.8792 30.0748 19.7433 30.2681C19.6074 30.4614 19.6665 30.6606 19.7044 30.6916C19.7433 30.7187 20.0579 30.7576 20.0579 30.7576C20.0579 30.7576 19.9919 30.9401 19.3396 30.9596C18.6873 30.979 18.524 31.0254 18.4851 31.0955C18.4461 31.1613 18.6092 31.1227 18.9085 31.1723C19.2075 31.2189 19.6268 31.2491 19.6268 31.2491C19.6268 31.2491 19.4909 31.3656 19.1376 31.4588C18.7336 31.5635 18.1005 31.6608 17.9103 31.7773C18.0074 31.8433 18.1512 31.9403 18.2175 31.948C18.0545 31.9869 17.8251 32.0724 17.7864 32.1034C17.8445 32.1423 17.9224 32.1889 17.9224 32.1889C17.9224 32.1889 17.596 32.5811 17.4058 32.6784C17.2156 32.7757 16.1204 33.2841 15.7436 33.187C14.8038 32.9385 14.6873 31.9093 14.4582 31.8318C14.1126 31.7153 13.9495 31.948 13.6426 31.7849C13.7785 31.6879 13.8525 31.6298 13.9961 31.5637C13.8407 31.4869 13.0369 30.9773 13.0369 30.9773C12.9528 30.794 12.8595 30.6152 12.7573 30.4414C12.6019 30.1734 12.3733 29.816 12.2018 29.5014C11.8291 28.8102 11.8096 28.4917 11.4717 28.0996C11.53 28.0228 11.7318 28.0335 11.7318 28.0335L14.5631 28.9656L19.5836 29.111L20.8892 27.2471L21.4444 27.3131L21.4442 27.3129Z" fill="#DFC677"/>
<path fill-rule="evenodd" clip-rule="evenodd" d="M14.0078 30.1552C14.0381 30.1889 14.0734 30.2178 14.1125 30.2407C14.2098 30.3068 14.3534 30.3846 14.4504 30.5008C14.4893 30.4427 14.5864 30.3377 14.7576 30.5008C14.9289 30.6639 15.1416 30.5477 15.274 30.5863C15.4099 30.6332 15.4176 30.6524 15.4176 30.6524C15.4176 30.6524 15.4944 30.5863 15.6662 30.5164C15.7711 30.4775 15.8953 30.4504 16.0312 30.4117C16.1554 30.3846 16.2913 30.3457 16.3848 30.3457C16.4703 30.4038 16.777 30.7297 18.0081 30.2486C19.1693 29.7981 19.4371 29.7477 19.6314 29.8173C19.6508 29.7707 19.6703 29.6813 19.9693 29.6931C19.9693 29.569 19.7207 29.1455 19.7207 29.1455L18.3498 28.6758H17.6L15.3516 29.0874L14.1056 29.7983L14.0086 30.1567L14.0078 30.1552Z" fill="#C4A859"/>
<path fill-rule="evenodd" clip-rule="evenodd" d="M13.2578 29.3669C13.2578 29.3669 13.2849 29.5766 13.5957 29.798C13.9029 30.0192 13.9994 30.1513 13.9994 30.1513C13.9994 30.1513 14.0578 30.0745 14.1044 29.9961C14.151 29.9106 14.1899 29.8136 14.2675 29.7865C14.4229 29.7204 14.7761 29.8446 14.854 29.8251C14.92 29.8059 14.9006 29.67 14.9705 29.67C15.1335 29.6621 15.2382 29.7747 15.2966 29.7747C15.355 29.7747 15.4983 29.767 15.5178 29.736C15.5372 29.7051 15.5449 29.3825 15.7664 29.2271C16.0073 29.0564 16.3024 29.1301 16.3808 29.169C16.3808 29.2271 16.3884 29.371 16.5438 29.3787C16.6992 29.3863 16.7146 29.3592 16.851 29.4058C16.9875 29.4524 17.15 29.3981 17.2238 29.627C17.2898 29.6078 17.4452 29.5883 17.4063 29.3669C17.4831 29.3088 17.5502 29.2699 17.7135 29.0407C17.7524 28.9826 17.8182 28.9166 17.8689 28.8311C18.0048 28.8311 18.1679 28.8039 18.3852 28.9942C18.3192 29.0407 18.2803 29.071 18.2611 29.1183C18.3179 29.1746 18.3698 29.2357 18.4162 29.3008C18.4746 29.3776 18.5135 29.4719 18.5872 29.4913C18.7503 29.5379 19.0183 29.4719 19.3173 29.4913C19.6048 29.5108 19.8455 29.6155 19.9504 29.6815C19.9893 29.6623 19.9893 29.6544 20.0864 29.6738C20.1834 29.6933 20.2571 29.701 20.1524 29.5768C20.2105 29.6039 20.2766 29.6623 20.3349 29.6039C20.3933 29.5456 20.4396 29.4603 20.6027 29.4409C20.7658 29.4214 20.8241 29.4486 20.8902 29.2778C20.9757 29.0681 20.6805 29.0681 20.6805 29.0681C20.6805 29.0681 20.8165 28.9437 20.968 28.7807C21.1505 28.6099 21.3602 28.3885 21.4106 28.1166C21.4961 27.6156 21.0069 27.5498 21.0069 27.5498L18.6341 28.2799L15.7331 28.136L13.2593 29.3671L13.2578 29.3669Z" fill="#927D49"/>
<path fill-rule="evenodd" clip-rule="evenodd" d="M11.1265 22.5126C11.1265 22.5126 11.0497 22.6096 11.0024 22.8387C10.955 23.0678 10.9752 23.0407 10.9363 23.2038C10.8974 23.3668 10.4194 24.9901 10.5986 25.5377C10.7778 26.0853 11.0881 26.2873 11.2822 26.7299C11.3211 26.8269 11.359 26.8853 11.3792 26.9708C11.4452 27.258 11.3871 27.4795 11.4647 27.767C11.4918 27.864 11.562 27.9766 11.6667 28.0931C11.8971 28.3337 12.2726 28.5629 12.4347 28.7259C12.6635 28.9668 12.9899 29.4563 13.4054 29.5026C13.6269 29.5298 13.9415 29.4366 14.2016 29.2815C14.432 29.1376 14.5743 28.9359 14.816 28.8207C14.9867 28.7352 15.1693 28.7042 15.3323 28.6653C15.6703 28.5992 15.9772 28.5885 16.1597 28.6264C16.4393 28.6847 17.0995 28.8867 17.4653 28.8867C17.7512 28.8821 18.0354 28.843 18.3119 28.7702C18.8672 28.6072 19.5389 28.3273 19.9818 28.2032C20.2419 28.1264 20.4516 28.1062 20.6653 28.0596C21.0304 27.9741 21.3371 27.8576 21.5119 27.6361C21.3954 27.5002 21.2518 27.2905 20.4749 27.2982C19.5935 27.3177 18.5759 27.8069 18.0749 27.8847C17.5739 27.9625 17.3565 28.0283 16.7972 27.8264C16.2488 27.6223 16.2306 27.4874 16.2306 27.4874C16.2306 27.4874 15.6549 27.0847 15.414 26.0582C15.1731 25.0316 15.414 24.2836 16.0394 23.5727C16.2025 23.3901 16.1636 23.2271 16.1636 23.2271C16.1636 23.2271 16.5752 22.6718 16.4626 22.1519C16.3384 21.6352 15.5423 21.7402 15.5423 21.7402L11.1268 22.5126H11.1265Z" fill="#6E6342"/>
<path fill-rule="evenodd" clip-rule="evenodd" d="M11.7903 24.2407C11.7561 24.3051 11.7399 24.3776 11.7437 24.4504C11.7514 24.5551 11.7826 24.691 12.097 24.998C12.365 25.2657 12.3066 25.5648 12.3066 25.5648C12.3066 25.5648 12.4416 25.5919 12.8076 25.4206C13.0951 25.2847 13.1916 25.5256 13.1916 25.5256C13.2753 25.4817 13.366 25.4528 13.4597 25.4401C13.5445 25.4323 13.6266 25.4061 13.7003 25.3633C13.7003 25.3633 14.0382 25.7089 14.3334 25.8719C14.6014 26.0158 14.7568 26.1128 14.8889 26.0158C15.0131 25.9303 15.0131 25.7555 15.0051 25.6779C14.9743 25.6063 14.9353 25.5385 14.8889 25.4759C14.8034 25.3518 14.6675 25.2079 14.6585 25.0919C14.6391 24.8241 14.8605 24.5054 14.8136 24.4279C14.7668 24.3503 14.5925 24.3308 14.1614 24.4862C13.7149 24.6337 11.7885 24.2415 11.7885 24.2415L11.7903 24.2407Z" fill="#39331F"/>
<path fill-rule="evenodd" clip-rule="evenodd" d="M12.8076 25.9769C12.8076 25.9769 12.5864 25.7672 12.664 24.7496C12.7579 24.7483 12.8516 24.7574 12.9435 24.7768C12.9435 24.7768 13.0641 25.5653 12.8076 25.9769Z" fill="#292311"/>
<path fill-rule="evenodd" clip-rule="evenodd" d="M11.2315 21.7358C11.2624 21.713 11.291 21.6872 11.317 21.659C11.2402 21.8026 10.8857 22.3773 11.1732 23.2823C11.4607 24.1832 12.1828 24.8549 13.0722 24.8861C13.9615 24.9174 14.429 24.4822 14.9635 23.8299C15.1732 23.5698 15.4141 23.2434 15.6276 23.0222C15.946 22.6763 16.1946 22.5793 16.1946 22.2455C16.1946 21.562 15.4955 21.255 14.4664 20.9483C13.4372 20.6417 12.509 20.6795 12.0274 20.8895C11.5577 21.1183 11.3557 21.3592 11.2313 21.7361L11.2315 21.7358Z" fill="#252211"/>
<path fill-rule="evenodd" clip-rule="evenodd" d="M14.5359 26.2834L14.6127 26.2445C14.6127 26.2445 14.6319 25.9373 14.7563 25.9455C14.8805 25.9649 14.9389 26.1283 14.9271 26.1864C14.9194 26.2445 14.8884 26.3418 14.764 26.33C14.6009 26.3338 14.5352 26.2834 14.5352 26.2834H14.5359Z" fill="#3F3824"/>
<path fill-rule="evenodd" clip-rule="evenodd" d="M14.1904 24.9787C14.1904 24.9787 14.2672 24.9515 14.3612 25.0447C14.438 25.0447 14.7728 25.0058 14.8778 25.0718C14.9828 25.1379 15.0137 25.196 15.0137 25.196C15.0137 25.196 14.6215 25.2815 14.4078 25.196C14.1904 25.1223 14.1904 24.9787 14.1904 24.9787H14.1904Z" fill="#2D2815"/>
<path fill-rule="evenodd" clip-rule="evenodd" d="M15.9185 25.0368C15.9185 25.0173 15.7089 24.8737 15.4874 24.8269C15.4485 24.8192 15.4406 24.8463 15.4106 24.8463C15.3912 24.8386 15.3835 24.7803 15.3835 24.7803L15.2576 24.8466C15.2576 24.8466 15.2381 24.8737 15.3041 24.9234C15.3623 24.97 15.4595 25.0089 15.4867 25.0865C15.5138 25.164 15.5138 25.1912 15.5256 25.2029C15.5333 25.2106 15.6692 25.2029 15.7353 25.164C15.8013 25.1251 15.9257 25.0616 15.9178 25.036L15.9185 25.0368Z" fill="#82764F"/>
<path fill-rule="evenodd" clip-rule="evenodd" d="M13.957 25.8255C13.957 25.8255 13.9957 25.5577 14.256 25.546C14.5238 25.5265 14.5745 25.7866 14.5745 25.7866L14.4191 25.942C14.4191 25.9382 14.3026 25.7751 13.9583 25.8255H13.957Z" fill="#2D2816"/>
<path fill-rule="evenodd" clip-rule="evenodd" d="M15.6465 24.6715C15.6465 24.6715 15.5026 24.8269 15.1844 24.8735C15.1573 24.8346 15.0989 24.7571 15.1844 24.6329C15.2699 24.5087 15.367 24.4698 15.464 24.5085C15.5514 24.5226 15.6226 24.5863 15.6465 24.6715Z" fill="#574F35"/>
<path fill-rule="evenodd" clip-rule="evenodd" d="M16.2328 24.8621C16.2407 24.8232 16.2136 24.8155 16.2328 24.7961C16.252 24.7766 16.3572 24.738 16.3767 24.7572C16.3843 24.7651 16.3767 24.7961 16.3767 24.834C16.3767 24.8718 16.3767 24.9108 16.3572 24.9387C16.3301 24.9776 16.2525 24.997 16.2136 24.9855C16.1747 24.974 16.167 24.9195 16.167 24.9087C16.1862 24.901 16.2328 24.8816 16.2328 24.8621ZM16.8955 24.4426C16.8955 24.4232 16.9616 24.3843 17.0005 24.3843C17.0586 24.3843 17.0586 24.4309 17.0665 24.4426C17.0857 24.4503 17.0857 24.4347 17.1052 24.4698C17.1246 24.5049 17.152 24.5668 17.1323 24.6057C17.1126 24.6446 17.0353 24.6715 17.0161 24.6638C16.9889 24.6444 16.9034 24.4698 16.8955 24.4426Z" fill="#82764F"/>
<path fill-rule="evenodd" clip-rule="evenodd" d="M15.5615 24.9514C15.5615 24.9514 15.647 24.9706 15.7635 25.0679C15.7246 25.095 15.6662 25.126 15.6662 25.126C15.6662 25.126 15.6585 25.0367 15.5615 24.9512V24.9514Z" fill="#6E6342"/>
<path fill-rule="evenodd" clip-rule="evenodd" d="M15.3712 24.0966C15.3518 24.0774 15.4293 24.0308 15.4759 24.0384C15.5225 24.0461 15.542 24.0774 15.5924 24.085C15.6428 24.0927 15.6508 24.0656 15.6692 24.0461C15.6876 24.0267 15.7547 24.0384 15.7662 24.0461C15.7734 24.0547 15.7799 24.0637 15.7857 24.0733C15.7873 24.0434 15.8013 24.0156 15.8244 23.9965C15.8545 23.9743 15.8932 23.9671 15.9293 23.977C15.937 24.0041 15.9759 24.1012 15.9682 24.1206C15.9605 24.1401 15.8441 24.1675 15.8244 24.1478C15.8438 24.1946 15.9293 24.2916 15.9408 24.3108C15.9524 24.33 15.8553 24.3769 15.8167 24.3692C15.7624 24.3654 15.4283 24.1711 15.3702 24.0973L15.3712 24.0966ZM15.8799 23.4522C15.8727 23.4326 15.859 23.4161 15.841 23.4056C15.8139 23.3979 15.7245 23.4056 15.7245 23.4522C15.7245 23.4988 15.8013 23.7594 15.8876 23.8951C15.9849 24.031 16.0507 24.1434 16.1167 24.1746C16.1597 24.1942 16.2106 24.1772 16.2332 24.1357C16.2409 24.1162 16.2603 23.9726 16.2526 23.6347C16.245 23.2968 16.2332 22.9706 16.2137 22.9512C16.1943 22.9317 16.1167 22.932 16.0896 22.9706C16.0624 23.0093 15.8876 23.3941 15.8797 23.4522H15.8799Z" fill="#585136"/>
<path fill-rule="evenodd" clip-rule="evenodd" d="M15.534 25.4406C15.534 25.4406 15.3981 25.3551 15.266 25.4135C15.1418 25.4718 15.1495 25.7009 15.1495 25.7009C15.2062 25.7231 15.2702 25.7159 15.3205 25.6815C15.406 25.6234 15.5146 25.5264 15.534 25.4408V25.4406Z" fill="#574F35"/>
<path fill-rule="evenodd" clip-rule="evenodd" d="M15.7907 25.7475C15.783 25.6707 15.7139 25.6707 15.7139 25.631C15.7237 25.592 15.7589 25.5647 15.7991 25.5649C15.838 25.5649 15.8759 25.6115 15.9235 25.6417C15.9701 25.6689 16.04 25.7185 16.0477 25.7777C16.0554 25.8368 15.9709 25.9989 15.8769 25.9989C15.783 25.9989 15.8109 25.824 15.7914 25.7464L15.7907 25.7475ZM16.54 25.6427C16.54 25.6427 16.3846 25.6893 16.3961 25.6427C16.4076 25.5962 16.443 25.5846 16.4934 25.5846C16.519 25.5578 16.5535 25.5412 16.5904 25.5378C16.6115 25.5367 16.6323 25.5437 16.6485 25.5572C16.6485 25.5572 16.7535 25.5107 16.7845 25.5378C16.8154 25.5649 16.7924 25.5649 16.8116 25.5962C16.8361 25.6308 16.8521 25.6707 16.8585 25.7126C16.8585 25.7436 16.742 25.8097 16.6485 25.7981C16.54 25.7748 16.5592 25.6622 16.54 25.6427ZM17.4452 25.468C17.4452 25.468 17.4918 25.4951 17.4531 25.5263C17.426 25.5535 17.2901 25.6031 17.1733 25.6118C17.0569 25.6118 16.9521 25.631 16.9521 25.5924C16.9521 25.5537 17.0492 25.4759 17.1073 25.4565C17.1309 25.4269 17.1667 25.4097 17.2046 25.4099C17.2512 25.4099 17.4334 25.3904 17.4841 25.3827C17.5307 25.3748 17.5696 25.4019 17.5422 25.4408C17.5307 25.468 17.4452 25.468 17.4452 25.468ZM17.7126 24.2688C17.7126 24.2688 17.6542 24.3929 17.5884 24.3929C17.5224 24.3852 17.5224 24.3658 17.5224 24.3463C17.5224 24.3192 17.5884 24.2493 17.5805 24.2298C17.5613 24.2298 17.5144 24.2298 17.5224 24.1833C17.5224 24.1443 17.5884 24.0977 17.6465 24.1065C17.6905 24.0704 17.7451 24.0499 17.8019 24.0483C17.868 24.0483 17.9261 24.0675 17.9261 24.1065C17.9261 24.1454 17.8493 24.2306 17.8211 24.2503C17.7902 24.2813 17.7512 24.3015 17.7126 24.2695V24.2688ZM16.8278 26.5638C16.8278 26.5638 16.751 26.5718 16.751 26.6104C16.751 26.6299 16.7702 26.6299 16.7976 26.6184C16.8133 26.6175 16.829 26.6148 16.8442 26.6104C16.8518 26.6184 16.8518 26.657 16.9102 26.657C16.9581 26.6506 17.0043 26.6347 17.0461 26.6104C17.0927 26.5912 17.1317 26.5715 17.1317 26.5336C17.1122 26.4676 17.0733 26.4363 17.0152 26.4363C16.9854 26.4345 16.9557 26.4412 16.9297 26.4558C16.9297 26.4558 16.9102 26.4169 16.8442 26.4558C16.7781 26.4947 16.7858 26.4947 16.8052 26.5142C16.8401 26.5451 16.8285 26.5654 16.8285 26.5654L16.8278 26.5638ZM16.3887 26.9678C16.3887 26.9483 16.4857 26.9094 16.5128 26.9212C16.54 26.9288 16.6175 27.0763 16.6175 27.0919C16.6175 27.1114 16.5205 27.158 16.4816 27.158C16.4427 27.158 16.3769 27.0919 16.3769 27.0812C16.3769 27.0735 16.4235 27.062 16.4235 27.054C16.435 27.0348 16.3887 26.988 16.3887 26.9685V26.9678ZM16.0813 26.4009C16.1008 26.3933 16.1008 26.3738 16.1279 26.3543C16.1451 26.3429 16.1667 26.3401 16.1863 26.3467C16.2001 26.3219 16.2244 26.3047 16.2523 26.2998C16.2989 26.2921 16.3378 26.2998 16.3291 26.3193C16.3291 26.3776 16.368 26.4163 16.368 26.4629C16.368 26.5095 16.3409 26.5678 16.2439 26.6068C16.1468 26.6339 16.0147 26.6339 15.9953 26.6262C15.9758 26.6185 15.9564 26.5407 15.9758 26.5018C15.9953 26.4629 16.0496 26.4204 16.0808 26.4009H16.0813Z" fill="#82764F"/>
<path fill-rule="evenodd" clip-rule="evenodd" d="M16.2047 26.4272C16.2047 26.4272 16.1387 26.4662 16.1387 26.4856C16.1328 26.5044 16.1302 26.5241 16.131 26.5437C16.131 26.5552 16.2165 26.536 16.228 26.5243C16.2319 26.5166 16.2047 26.4475 16.2047 26.4272Z" fill="#6E6342"/>
<path fill-rule="evenodd" clip-rule="evenodd" d="M15.6275 26.2444C15.6661 26.2524 15.7322 26.2444 15.7826 26.2639C15.8215 26.2833 15.8487 26.3222 15.8097 26.3688C15.7708 26.4154 15.7329 26.4853 15.6467 26.4735C15.5496 26.4659 15.4565 26.4154 15.4565 26.3765C15.4532 26.3268 15.47 26.2778 15.5031 26.2406C15.542 26.2096 15.5612 26.2291 15.6272 26.2444H15.6275Z" fill="#585136"/>
<path fill-rule="evenodd" clip-rule="evenodd" d="M15.5808 26.2837C15.5808 26.2837 15.4566 26.3807 15.4254 26.4276C15.3865 26.4742 15.1963 26.7148 15.1382 26.7652C15.1575 26.7312 15.1795 26.6987 15.204 26.6682C15.1271 26.7173 15.0696 26.7913 15.0409 26.8779C14.9943 27.0217 15.3012 27.0993 15.503 27.1577C15.7047 27.216 15.7828 27.2345 15.7828 27.2345C15.7085 27.1229 15.6447 27.0046 15.5923 26.8812C15.5155 26.6987 15.4758 26.6792 15.5263 26.5937C15.5652 26.5082 15.6235 26.4501 15.6235 26.384C15.6002 26.3226 15.5808 26.2837 15.5808 26.2837Z" fill="#574F35"/>
<path fill-rule="evenodd" clip-rule="evenodd" d="M11.1538 26.5903C11.1821 26.5955 11.2111 26.5955 11.2393 26.5903C11.2974 26.5823 11.9034 26.3599 12.5365 26.3998C13.0104 26.4285 13.4802 26.5057 13.9383 26.6302C14.7345 26.8399 15.7247 27.2554 16.3655 27.4924C16.5362 27.5582 16.7034 27.6749 16.8263 27.7213C17.3158 27.9117 17.335 27.9117 17.6224 27.9622C17.9604 28.0088 18.306 27.8961 18.6672 27.8186C19.1098 27.7213 19.8671 27.6747 20.5311 27.5777C20.7458 27.5479 20.9576 27.4999 21.1642 27.4341C21.1642 27.4341 20.6361 27.9622 19.3699 28.1524C18.8581 28.2301 18.338 28.2366 17.8244 28.1718C17.4205 28.1329 17.1527 28.0746 16.9507 28.0165C16.7216 27.9504 16.2516 27.7756 15.673 27.6325C15.269 27.5275 14.8185 27.4499 14.3021 27.3529C13.0283 27.1197 11.6459 26.8519 11.1533 26.5918L11.1538 26.5903Z" fill="#252211"/>
<path fill-rule="evenodd" clip-rule="evenodd" d="M9.72369 24.1904C9.41649 24.4505 9.0906 24.6991 8.77239 24.9397L7.81316 25.6768C7.48701 25.9174 7.16855 26.166 6.84215 26.4069C6.51575 26.6478 6.18986 26.8766 5.84375 27.0981C6.15095 26.838 6.47684 26.5971 6.80298 26.3603C7.12913 26.1235 7.4673 25.8913 7.78193 25.6512L8.74116 24.9131C9.07114 24.6725 9.38961 24.4239 9.72369 24.1909V24.1904ZM8.02662 26.9087C8.02662 26.9087 8.37222 26.6212 8.80333 26.2175C9.33914 25.7167 9.99552 25.0757 10.2052 24.9595L8.02637 26.9089L8.02662 26.9087Z" fill="#CFB66C"/>
<path fill-rule="evenodd" clip-rule="evenodd" d="M8.02734 26.9085C8.19835 26.7378 8.38088 26.5709 8.56341 26.4076L8.84296 26.1669C8.92846 26.0901 9.02574 26.0038 9.11099 25.9183C9.28174 25.7476 9.44891 25.5648 9.61966 25.3902C9.70429 25.3024 9.79378 25.2194 9.88769 25.1416C9.93465 25.1001 9.98679 25.0648 10.0428 25.0367C10.0897 25.0095 10.1401 24.9599 10.2059 24.9512C10.1672 25.0095 10.1207 25.0367 10.0817 25.0871C10.0352 25.126 9.99624 25.1726 9.95758 25.2113C9.87208 25.2968 9.77505 25.3743 9.68955 25.4522C9.50702 25.6076 9.31681 25.7594 9.13429 25.9219C8.95176 26.0845 8.78101 26.2598 8.59822 26.4229C8.40034 26.5901 8.21781 26.7532 8.02734 26.9093V26.9085ZM10.3495 25.355C10.3495 25.355 9.08359 26.594 8.82324 26.7957L10.3495 25.355Z" fill="#CFB66C"/>
<path fill-rule="evenodd" clip-rule="evenodd" d="M10.3495 25.3555C10.2356 25.4873 10.1135 25.6118 9.98395 25.7282L9.59995 26.0933C9.47579 26.2174 9.35905 26.3418 9.22721 26.466C9.09127 26.5825 8.96711 26.6964 8.82324 26.8039L9.19598 26.4389C9.32039 26.3147 9.45633 26.21 9.58843 26.0856L9.96116 25.7205C10.0892 25.5925 10.2136 25.4681 10.3495 25.3555ZM10.4076 26.0273C10.2909 26.353 10.1534 26.6709 9.99592 26.9789C9.66977 27.6314 9.18056 28.4468 8.9668 28.8625L10.4076 26.0273Z" fill="#CFB66C"/>
<path fill-rule="evenodd" clip-rule="evenodd" d="M10.4076 26.0272C10.4076 26.1708 10.3687 26.2953 10.3221 26.4194C10.2767 26.5437 10.2249 26.6655 10.167 26.7845C10.1086 26.901 10.0426 27.0254 9.97653 27.138C9.91048 27.2506 9.83291 27.3669 9.77454 27.4836L9.38235 28.1748C9.24642 28.4052 9.11432 28.6369 8.9707 28.8583C9.06773 28.6098 9.19982 28.3768 9.32424 28.1477C9.46018 27.9173 9.58434 27.6869 9.70824 27.4485C9.76873 27.3298 9.82316 27.208 9.87131 27.0837C9.92942 26.9593 9.98754 26.8428 10.0344 26.7302C10.0925 26.606 10.1391 26.4893 10.1975 26.3769C10.2632 26.2563 10.3178 26.1399 10.4071 26.0272L10.4076 26.0272Z" fill="#CFB66C"/>
<path fill-rule="evenodd" clip-rule="evenodd" d="M11.7907 29.2114C11.7907 29.2114 11.4067 29.7201 11.4451 30.3647C11.5498 30.027 11.6819 29.5104 11.7907 29.2114ZM12.1558 29.7212C12.1558 29.7212 12.0199 31.1036 11.9072 31.7833C12.0665 30.9976 12.0974 31.0637 12.1558 29.7212ZM14.6998 31.865C14.6998 31.865 14.1251 33.5546 14.1133 34.0242C14.2377 33.5413 14.4783 32.555 14.6998 31.8638V31.865Z" fill="#DEC270"/>
<path fill-rule="evenodd" clip-rule="evenodd" d="M16.043 29.1074C16.043 29.1074 16.9751 30.6452 17.6742 31.9577C17.485 31.2972 17.0498 30.0859 16.043 29.1074Z" fill="#CBAF59"/>
<path fill-rule="evenodd" clip-rule="evenodd" d="M18.5479 31.3711C19.0596 32.2757 19.5211 33.2079 19.9303 34.1633C19.8527 33.5031 19.6428 32.3731 18.5479 31.3711Z" fill="#E3C677"/>
<path fill-rule="evenodd" clip-rule="evenodd" d="M25.9105 33.6383C26.0656 33.5413 26.3726 33.0129 26.6406 32.8811C26.9084 32.7452 27.1104 32.718 27.3513 32.45C27.5919 32.1702 27.6585 31.9994 28.1861 31.7782C28.9241 31.4595 28.4165 31.0479 28.4165 31.0479C28.4978 30.968 28.5847 30.8941 28.6766 30.8267C28.867 30.6831 29.0882 30.5082 29.069 30.2013C29.0419 29.6849 28.9449 28.9354 28.5214 28.5004C28.9331 28.4149 29.7213 28.3568 30.211 28.2326C30.7778 28.0888 31.0382 27.8868 31.0382 27.8868C31.0382 27.8868 30.712 27.3315 31.2402 26.7724C31.7683 26.2133 32.1994 25.8792 32.5179 25.2538C32.1528 25.2072 31.5962 25.0132 30.176 25.5528C30.2526 25.5889 30.3266 25.6304 30.3974 25.677C30.3974 25.677 29.5237 25.9179 29.2052 26.1859C28.6497 26.6557 28.5798 27.0402 27.9779 27.3277C27.3761 27.6152 26.7701 27.5373 26.2694 27.7703C25.7687 28.0033 25.6947 28.2014 25.5119 28.2869C25.5508 28.3335 25.5042 28.4111 25.5779 28.4771C25.5314 28.5432 25.2595 28.9858 24.9838 28.9858C25.0109 29.0908 25.2439 29.1683 25.2439 29.1683C25.2439 29.1683 25.0731 29.2927 24.6382 29.3237C24.8594 29.5541 25.0693 29.8053 25.6478 30.1703C25.6012 30.2673 25.4069 30.4112 25.4848 30.5937C25.5703 30.7763 25.792 31.0248 26.677 31.2268C26.2264 31.246 25.6985 31.351 24.9874 31.254C24.2767 31.1685 24.1602 31.118 23.7214 31.2268C23.768 31.2734 23.8922 31.2734 24.001 31.3976C23.8845 31.4053 23.1544 31.3121 22.9058 31.6385C22.6457 31.9761 22.5331 32.5317 22.5525 32.9044C22.4166 32.9704 22.2845 33.0869 22.3506 33.3278C22.4166 33.5687 22.7622 33.6463 22.9836 33.7976C23.2048 33.9606 23.2243 34.0188 23.4342 33.9801C23.6554 33.9335 23.9815 33.7123 24.172 33.7123C24.3625 33.7123 24.4981 33.8559 24.4981 33.8559C24.4981 33.8559 25.0147 33.6074 25.0652 33.654C25.1118 33.7006 25.0729 33.9996 25.1233 34.0462C25.1745 34.0812 25.7564 33.7356 25.9118 33.6383H25.9105Z" fill="#ECD592"/>
<path fill-rule="evenodd" clip-rule="evenodd" d="M37.2003 18.0971C34.7731 11.8292 28.773 10.668 28.773 10.668H11.6546L11.7206 17.0524H15.1298V31.3087H11.6543V37.6816H28.2992C32.3107 37.6816 35.5263 33.6504 35.5263 33.6504C40.6757 26.3418 37.2 18.0971 37.2 18.0971H37.2003ZM28.389 29.3551C28.389 29.3551 27.0834 31.2387 25.6628 31.2387H22.8212L22.7539 17.0679H26.4006C26.4006 17.0679 28.0902 17.4212 29.2706 20.7648C29.2706 20.7648 30.8356 25.552 28.389 29.3551Z" fill="white" fill-opacity="0.8"/>
</svg>
