<svg width="48" height="49" viewBox="0 0 48 49" fill="none" xmlns="http://www.w3.org/2000/svg">
<circle cx="24" cy="24.6001" r="24" fill="#EDF0F4"/>
<g clip-path="url(#clip0_3701_55960)">
<path d="M12 26.5838C16.3513 28.8946 20.8918 31.3135 24.3987 33.1851L36.6959 26.5838C32.2433 33.1986 28.5333 38.7055 24.3987 44.8C20.2567 38.7189 15.6825 32.0088 12 26.5838ZM12.473 24.7592L24.4121 18.3884L36.1959 24.7127L24.4189 31.0905L12.473 24.7592ZM24.3987 16.3473L12 22.8743L24.3446 4.80005L36.6959 22.9148L24.3987 16.3473Z" fill="#3AB83A"/>
<path d="M24.3988 33.1851L36.696 26.5838C32.2434 33.1986 24.3988 44.8 24.3988 44.8V33.1851ZM24.4123 18.3884L36.196 24.7127L24.419 31.0905L24.4123 18.3884ZM24.3988 16.3477L24.3447 4.80005L36.696 22.9148L24.3988 16.3477Z" fill="#0B8311"/>
<path d="M12.4731 24.7594L24.413 25.7392L36.1967 24.7189L24.419 31.0972L12.4731 24.7594Z" fill="#0B8311"/>
<path d="M24.4121 25.7392L36.1959 24.7189L24.4188 31.0972L24.4121 25.7392Z" fill="#146714"/>
</g>
<defs>
<clipPath id="clip0_3701_55960">
<rect width="24.6959" height="40" fill="white" transform="translate(12 4.80005)"/>
</clipPath>
</defs>
</svg>
