<svg width="48" height="48" viewBox="0 0 48 48" fill="none" xmlns="http://www.w3.org/2000/svg">
<g clip-path="url(#clip0_3388_31813)">
<circle cx="24" cy="24" r="24" fill="#EDF0F4"/>
<path fill-rule="evenodd" clip-rule="evenodd" d="M15.2002 22.5067L24.054 17.8458L32.8353 22.5357L24.0153 9.6001L15.2002 22.5067ZM15.5381 23.8528L24.0637 19.3035L32.4784 23.8196L24.0685 28.3739L15.5381 23.8528ZM15.2002 25.1558C18.3074 26.8059 21.5497 28.5332 24.054 29.8697L32.8353 25.1558C29.6557 29.8793 27.0064 33.8117 24.054 38.1638L22.3468 35.6577C19.8819 32.0394 17.3318 28.296 15.2002 25.1558Z" fill="#3AB83A"/>
<path fill-rule="evenodd" clip-rule="evenodd" d="M24.0151 9.6001L24.0538 17.8462L32.8351 22.5357L24.0151 9.6001ZM24.0635 19.3035L32.4781 23.8196L24.0683 28.3739L24.0635 19.3035ZM24.0537 29.8697L32.835 25.1558C29.6555 29.8793 24.0537 38.1638 24.0537 38.1638V29.8697Z" fill="#0B8311"/>
<path d="M15.5381 23.8529L24.0642 24.5526L32.4789 23.824L24.0685 28.3787L15.5381 23.8529Z" fill="#0B8311"/>
<path d="M24.0635 24.5526L32.4781 23.824L24.0683 28.3787L24.0635 24.5526Z" fill="#146714"/>
</g>
<defs>
<clipPath id="clip0_3388_31813">
<rect width="48" height="48" fill="white"/>
</clipPath>
</defs>
</svg>
