<svg width="48" height="48" viewBox="0 0 48 48" fill="none" xmlns="http://www.w3.org/2000/svg">
<circle cx="24" cy="24" r="24" fill="#EDF0F4"/>
<path d="M26.855 18.7744C25.8777 19.3804 23.9203 20.5956 23.9083 20.6076L14.9184 15.3142L23.9121 10.3318L35.0201 16.4988L37.2132 15.2504L23.927 8L10.5771 15.2429L23.8558 22.9132L29.0106 20.0527L26.855 18.7744Z" fill="black"/>
<path d="M18.1478 23.6297V21.3225L23.2385 24.151V39.99L9.59961 31.5425V16.2651L11.7496 17.6179V30.4152L21.0897 36.1829V25.359L18.1478 23.6297Z" fill="black"/>
<path d="M24.5513 40.0001V37.4716L35.9677 30.4399V20.0284L26.7106 25.4277V28.8628L24.5498 30.2483V24.1668L38.2185 16.1887V31.5576L24.5513 40.0001Z" fill="black"/>
</svg>
