<svg width="48" height="48" viewBox="0 0 48 48" fill="none" xmlns="http://www.w3.org/2000/svg">
<path fill-rule="evenodd" clip-rule="evenodd" d="M0 24C0 10.7452 10.7451 0 23.9999 0H24.1394C30.486 0.0184676 36.5654 2.55741 41.0402 7.05829C45.5149 11.5592 48.0183 17.6533 47.9998 24C47.9998 37.2548 37.2547 48 23.9999 48C10.7451 48 0 37.2548 0 24ZM21.9081 33.2396L24.4069 24.8135L28.3003 23.7094L29.1139 20.92L25.2785 22.0822L29.3463 8.25173V8.03091C29.3403 7.85209 29.2634 7.68302 29.1326 7.56094C29.0018 7.43886 28.8278 7.37379 28.649 7.38006H23.4771C23.0742 7.36764 22.7147 7.6313 22.6054 8.01928L17.7822 24.4067L13.9469 25.5689L13.0752 28.242L16.9105 27.0798L13.482 38.7602H33.9371C34.3413 38.7769 34.7032 38.5115 34.8088 38.121L35.971 34.1113V33.8905C35.9649 33.7117 35.888 33.5426 35.7572 33.4205C35.6264 33.2984 35.4525 33.2334 35.2736 33.2396H21.9081Z" fill="#345D9D"/>
</svg>
