<svg width="48" height="48" viewBox="0 0 48 48" fill="none" xmlns="http://www.w3.org/2000/svg">
<circle cx="24" cy="24" r="24" fill="white"/>
<path d="M48.0001 23.9976C48.0001 37.2507 37.2572 47.9951 24.0032 47.9951C10.7492 47.9951 0.00634766 37.2507 0.00634766 23.9976C0.00634766 10.7445 10.7495 0 24.0032 0C37.2569 0 48.0001 10.7435 48.0001 23.9976Z" fill="white"/>
<path d="M24.0031 0C10.7539 0 -0.00805795 10.7597 0.00880886 23.9969C0.0121311 26.6452 0.43444 29.1927 1.22705 31.5757H8.40669V11.3883L24.0031 26.9846L39.5988 11.3883V31.5761H46.78C47.5737 29.1933 47.9939 26.6457 47.9986 23.9973C48.0212 10.7463 37.2538 0.00319447 24.0031 0.00319447V0Z" fill="#F26822"/>
<path d="M20.4162 30.57L13.6098 23.7632V36.4662H8.40602L3.49561 36.4671C7.70758 43.3774 15.3196 47.9999 24.003 47.9999C32.6863 47.9999 40.2987 43.3763 44.5115 36.4661H34.3946V23.7632L27.5878 30.57L24.0022 34.1556L20.4165 30.57H20.4162Z" fill="#4D4D4D"/>
</svg>
