<svg width="48" height="49" viewBox="0 0 48 49" fill="none" xmlns="http://www.w3.org/2000/svg">
<circle cx="24" cy="24.6001" r="24" fill="#F2BB15"/>
<path d="M8.57228 17.2736C8.33383 16.8321 8.16692 15.6547 8.09538 14.2811L8 12H14.9627V14.3302C14.9627 16.4642 15.0104 16.734 15.5589 17.3962C16.1073 18.0585 16.2981 18.1321 17.5142 18.1321C18.5633 18.1321 19.1118 18.2547 19.7317 18.6717C20.1848 18.9906 20.7571 19.6283 20.9717 20.0943C21.2101 20.5604 21.4009 21.3698 21.4009 21.8849C21.4009 22.3755 21.5201 23.0132 21.6393 23.283C21.7586 23.5528 22.1878 23.9453 22.5931 24.1415C22.9985 24.3377 23.6185 24.5094 24.0238 24.5094C24.4292 24.5094 25.0492 24.3377 25.4545 24.1415C25.8599 23.9453 26.2891 23.5528 26.4083 23.283C26.5276 23.0132 26.6468 22.3755 26.6468 21.8849C26.6468 21.3698 26.8376 20.5604 27.076 20.0943C27.2906 19.6283 27.8629 18.9906 28.3159 18.6717C28.9359 18.2547 29.4844 18.1321 30.5097 18.1321C31.7496 18.1321 31.9404 18.0585 32.4888 17.3962C33.0373 16.734 33.0849 16.4642 33.0849 12H40V14.0358C40 15.434 39.8569 16.3415 39.5469 17.0283C39.2847 17.666 38.8316 18.1566 38.307 18.4264C37.854 18.6472 36.9955 18.917 36.3517 18.9906C35.5887 19.0642 34.9925 19.334 34.4918 19.8C33.9911 20.266 33.7288 20.7566 33.6572 21.4434C33.5857 22.0075 33.6811 22.6698 33.848 23.0132C34.0149 23.3321 34.468 23.8472 34.8256 24.117C35.2072 24.4113 36.1133 24.7057 36.8525 24.8038C37.8778 24.9509 38.3785 25.1717 38.8793 25.6623C39.237 26.0547 39.6662 26.7415 39.7854 27.2075C39.9762 27.8208 39.9762 28.3604 39.7854 29.1208C39.6185 29.734 39.237 30.3962 38.8077 30.7642C38.4024 31.1075 37.687 31.4509 37.1863 31.5245C36.7094 31.5981 36.0417 31.7208 35.7079 31.7943C35.3741 31.8679 34.8256 32.2358 34.4441 32.6283C33.8241 33.2906 33.8003 33.4623 33.8003 38H26.8852L26.9568 35.6208C27.0045 33.7075 27.1237 33.0698 27.4814 32.5057C27.7437 32.1132 28.2444 31.6472 28.6021 31.4755C28.9836 31.2792 29.6751 31.1321 30.152 31.1321C30.6528 31.1321 31.4158 30.9113 31.8212 30.6415C32.2504 30.3717 32.775 29.783 32.9896 29.366C33.2519 28.8264 33.3234 28.2623 33.228 27.6491C33.1326 27.0113 32.8227 26.4962 32.2504 25.9811C31.5589 25.3679 31.2012 25.2453 30.2235 25.2453C29.2697 25.2453 28.8882 25.3679 28.2921 25.9321C27.7198 26.4717 27.5529 26.8642 27.4098 27.9925C27.3145 28.7774 27.0283 29.6604 26.7422 30.0774C26.456 30.4453 25.7407 30.9849 24.0238 31.7453L22.927 31.2547C22.307 30.9849 21.5917 30.4453 21.3055 30.0774C21.0194 29.6604 20.7332 28.7774 20.6379 27.9925C20.4948 26.8642 20.3279 26.4717 19.7556 25.9321C19.1595 25.3679 18.7779 25.2453 17.8241 25.2453C16.8465 25.2453 16.4888 25.3679 15.7973 25.9811C15.225 26.4962 14.9151 27.0113 14.8197 27.6491C14.7243 28.2623 14.7958 28.8264 15.0581 29.366C15.2727 29.783 15.7973 30.3717 16.2027 30.6415C16.6319 30.9113 17.3949 31.1321 17.8718 31.1321C18.3726 31.1321 19.0641 31.2792 19.4218 31.4755C19.8033 31.6472 20.304 32.1132 20.5663 32.5057C20.924 33.0698 21.0432 33.7075 21.1624 38H14.2474V35.6698C14.2474 33.4623 14.2235 33.2906 13.5797 32.6283C13.2221 32.2358 12.6736 31.8679 12.3398 31.7943C12.006 31.7208 11.3383 31.5981 10.8376 31.5245C10.3607 31.4509 9.62146 31.1075 9.23994 30.7642C8.81073 30.3962 8.42921 29.734 8.2623 29.1208C8.07154 28.3604 8.07154 27.8208 8.2623 27.2075C8.38152 26.7415 8.81073 26.0547 9.16841 25.6623C9.66915 25.1717 10.1699 24.9509 11.1952 24.8038C11.9344 24.7057 12.8405 24.4113 13.2221 24.117C13.5797 23.8472 14.0328 23.3321 14.1997 23.0132C14.3666 22.6698 14.462 22.0075 14.3905 21.4434C14.3189 20.7566 14.0566 20.266 13.5559 19.8C13.0551 19.334 12.459 19.0642 11.6721 18.9906C11.0522 18.917 10.1937 18.6472 9.74069 18.4264C9.31148 18.2057 8.78689 17.6906 8.57228 17.2736Z" fill="black"/>
</svg>
