<svg width="48" height="48" viewBox="0 0 48 48" fill="none" xmlns="http://www.w3.org/2000/svg">
<circle cx="24" cy="24" r="24" fill="black"/>
<path d="M31.2569 13.2269L26.2426 20.6683C25.8959 21.175 26.5627 21.7885 27.0428 21.3617L31.977 17.0676C32.1104 16.9609 32.2971 17.0409 32.2971 17.2276V30.6434C32.2971 30.8301 32.057 30.9102 31.9504 30.7768L17.0143 12.9068C16.5342 12.3201 15.8407 12 15.0672 12H14.5338C13.1469 12 12 13.1469 12 14.5605V33.444C12 34.8576 13.1469 36.0044 14.5605 36.0044C15.4406 36.0044 16.2675 35.551 16.7475 34.7775L21.7618 27.3362C22.1085 26.8294 21.4417 26.216 20.9617 26.6427L16.0274 30.9102C15.8941 31.0169 15.7074 30.9368 15.7074 30.7501V17.361C15.7074 17.1743 15.9474 17.0943 16.0541 17.2276L30.9902 35.0976C31.4703 35.6844 32.1904 36.0044 32.9372 36.0044H33.4706C34.8842 36.0044 36.0311 34.8576 36.0311 33.444V14.5605C36.0311 13.1469 34.8842 12 33.4706 12C32.5638 12 31.737 12.4534 31.2569 13.2269Z" fill="white"/>
</svg>
