<svg width="48" height="48" viewBox="0 0 48 48" fill="none" xmlns="http://www.w3.org/2000/svg">
<circle cx="24" cy="24" r="24" fill="#EDF0F4"/>
<path d="M24.1032 8C17.43 8.02681 12.0268 13.43 12 20.1032C12 21.4397 12.2157 22.7672 12.6382 24.0347C12.9535 24.8976 13.8891 25.3622 14.7673 25.0954C15.6162 24.7699 16.0668 23.842 15.7961 22.974C15.4375 21.986 15.2779 20.938 15.3251 19.8888C15.4707 15.0689 19.4953 11.2792 24.3151 11.4247C29.135 11.5702 32.9247 15.5948 32.7792 20.4147C32.6427 24.9269 29.089 28.5916 24.5819 28.866C24.5819 28.866 22.883 28.9694 22.038 29.0728C21.7265 29.1175 21.4176 29.1788 21.1125 29.2566C21.0691 29.3013 20.9989 29.3013 20.9543 29.2579L20.953 29.2566C20.9223 29.2171 20.9223 29.1609 20.953 29.1213L21.2159 27.6866L22.8115 20.5104C23.0029 19.6144 22.4324 18.7323 21.5363 18.5409C20.6403 18.3494 19.7582 18.92 19.5668 19.816C19.5668 19.816 15.7719 37.3812 15.7719 37.5408C15.5549 38.3947 16.0706 39.2627 16.9245 39.4797C16.9335 39.4822 16.9437 39.4848 16.9526 39.4861H17.0407C17.8933 39.7069 18.7639 39.1937 18.9834 38.3411C18.9873 38.327 18.9911 38.313 18.9936 38.2977C18.9911 38.2709 18.9911 38.2441 18.9936 38.2185C19.0409 38.0118 19.5195 35.6746 19.5195 35.6746C19.882 33.9105 21.304 32.5588 23.0834 32.2856C23.4497 32.2295 24.9891 32.1261 24.9891 32.1261C31.6368 31.4636 36.4886 25.5371 35.8248 18.8893C35.2198 12.8262 30.197 8.15828 24.1032 8Z" fill="#1E1E1E"/>
<path d="M24.837 35.907C23.7456 35.6798 22.6785 36.3806 22.4513 37.4707C22.4487 37.4809 22.4475 37.4911 22.4449 37.5013C22.2088 38.585 22.8955 39.6559 23.9805 39.8921C23.9818 39.8921 23.983 39.8921 23.9843 39.8934H24.0405C25.1025 40.1499 26.1709 39.4964 26.4261 38.4357C26.4287 38.428 26.43 38.4191 26.4325 38.4114V38.3004C26.6202 37.2052 25.9207 36.1547 24.837 35.907Z" fill="#E6007A"/>
</svg>
