<svg width="49" height="48" viewBox="0 0 49 48" fill="none" xmlns="http://www.w3.org/2000/svg">
<circle cx="24.9727" cy="24" r="24" fill="#EDF0F4"/>
<path d="M32.1737 19.1799C31.662 18.8856 31.004 18.8856 30.4191 19.1799L26.3251 21.6084L23.5471 23.1538L19.5262 25.5823C19.0144 25.8767 18.3565 25.8767 17.7716 25.5823L14.628 23.6689C14.1163 23.3746 13.7507 22.7859 13.7507 22.1235V18.444C13.7507 17.8553 14.0432 17.2666 14.628 16.8986L17.7716 15.0589C18.2834 14.7645 18.9413 14.7645 19.5262 15.0589L22.6698 16.9722C23.1815 17.2666 23.5471 17.8553 23.5471 18.5176V20.9461L26.3251 19.3271V16.825C26.3251 16.2363 26.0327 15.6476 25.4479 15.2796L19.5993 11.8209C19.0875 11.5265 18.4296 11.5265 17.8447 11.8209L11.8499 15.3532C11.2651 15.6476 10.9727 16.2363 10.9727 16.825V23.7425C10.9727 24.3313 11.2651 24.92 11.8499 25.2879L17.7716 28.7467C18.2834 29.041 18.9413 29.041 19.5262 28.7467L23.5471 26.3918L26.3251 24.7728L30.346 22.4179C30.8578 22.1235 31.5157 22.1235 32.1006 22.4179L35.2442 24.2577C35.7559 24.552 36.1215 25.1408 36.1215 25.8031V29.4826C36.1215 30.0713 35.8291 30.66 35.2442 31.028L32.1737 32.8678C31.662 33.1621 31.004 33.1621 30.4191 32.8678L27.2755 31.028C26.7638 30.7336 26.3982 30.1449 26.3982 29.4826V27.1277L23.6202 28.7467V31.1752C23.6202 31.7639 23.9126 32.3526 24.4975 32.7206L30.4191 36.1793C30.9309 36.4737 31.5888 36.4737 32.1737 36.1793L38.0954 32.7206C38.6071 32.4262 38.9727 31.8375 38.9727 31.1752V24.1841C38.9727 23.5954 38.6802 23.0066 38.0954 22.6387L32.1737 19.1799Z" fill="#8247E5"/>
</svg>
