<svg width="48" height="49" viewBox="0 0 48 49" fill="none" xmlns="http://www.w3.org/2000/svg">
<circle cx="24" cy="24.6001" r="24" fill="#EDF0F4"/>
<g clip-path="url(#clip0_3701_55919)">
<path d="M14.375 7.1742L24.5346 19.0776L31.3541 15.0661C31.3541 15.0661 23.1265 4.06327 20.9325 4.84101C18.8695 5.62692 14.375 7.1742 14.375 7.1742Z" fill="black"/>
<path d="M31.6079 15.0661C31.6079 15.0661 33.1552 12.3481 33.9247 8.72144C33.9247 8.72144 41.6448 11.8242 38.6812 19.5933L31.6079 15.0661Z" fill="black"/>
<path d="M38.6812 19.6015L39.3279 27.7554L42.2833 27.3706C42.2833 27.3706 43.0528 27.1087 42.93 25.6924C42.799 24.1369 42.5453 20.9032 42.5453 20.9032C42.5453 20.9032 42.6762 20.1254 40.8752 19.8717C38.6812 19.4705 38.6812 19.6015 38.6812 19.6015Z" fill="black"/>
<path d="M39.3198 27.7554L33.4009 32.5446L36.1025 37.8495C36.1025 37.8495 36.7492 39.9207 38.6731 37.5875C40.4741 35.2543 41.2437 34.8696 41.1127 33.4451C40.9981 32.0206 40.6051 28.6559 39.3198 27.7554Z" fill="black"/>
<path d="M33.2777 32.5365L25.1729 28.9098L18.0996 43.2774C18.0996 43.2774 17.5839 44.3089 19.385 44.4399C21.186 44.7018 24.1414 45.3486 25.6887 43.7931C27.236 42.3768 33.2777 32.5365 33.2777 32.5365Z" fill="black"/>
<path d="M25.173 28.787L24.4035 19.2086L6.90861 20.3793C6.90861 20.3793 5.87709 20.5103 6.00808 22.4505C6.13907 25.0375 6.39285 27.8865 6.39285 27.8865C6.39285 27.8865 6.26187 29.049 8.57869 29.18C10.8955 29.3028 24.9193 29.3028 25.173 28.787Z" fill="black"/>
</g>
<defs>
<clipPath id="clip0_3701_55919">
<rect width="36.9464" height="40" fill="white" transform="translate(6 4.80005)"/>
</clipPath>
</defs>
</svg>
