<svg width="48" height="48" viewBox="0 0 48 48" fill="none" xmlns="http://www.w3.org/2000/svg">
<circle cx="24" cy="24" r="24" fill="#EDF0F4"/>
<path d="M30.4004 20.2814V27.6615L36.8004 23.9782V16.5846L30.4004 20.2814Z" fill="#9290B0"/>
<path d="M36.8004 31.3582L30.4004 27.6614V35.055L36.8004 38.7383V31.3582Z" fill="#A2EEE3"/>
<path d="M24.0002 16.5801V9.19995L11.2002 16.5801L17.5934 20.2769L24.0002 16.5801Z" fill="#46DDC8"/>
<path d="M24.0002 31.3582L17.5934 27.6614L11.2002 31.3582L17.5934 35.055L24.0002 38.7383V31.3582Z" fill="#262261"/>
<path d="M11.2002 16.5846V23.976V31.3538L17.6002 27.6581V20.2803L11.2002 16.5846Z" fill="#9290B0"/>
<path d="M30.4 27.6614L24 31.3582V38.7383L30.4 35.055V27.6614Z" fill="#46DDC8"/>
<path d="M30.4 20.2769L36.8 16.5801L30.4 12.8968L24 9.19995V16.5801L30.4 20.2769Z" fill="#262261"/>
</svg>
