<svg width="48" height="49" viewBox="0 0 48 49" fill="none" xmlns="http://www.w3.org/2000/svg">
<circle cx="24" cy="24.6001" r="24" fill="black"/>
<path d="M22.951 10.6842C22.951 11.7368 22.6628 12.3684 22.2017 12.3684C21.7406 12.3684 21.7983 12.5088 22.3746 12.7895C22.8357 13 23.8732 13.2105 24.6801 13.2105C25.6023 13.2526 27.0432 13.9263 28.7147 15.2316C30.1556 16.3263 31.8847 17.8 32.5187 18.4737C33.2104 19.1474 33.902 19.6526 34.1326 19.5263C34.3055 19.4 34.2478 17.8421 34.0173 16.0316L33.6138 12.7895C28.9452 12.7895 27.1585 12.7053 26.6974 12.5789C26.121 12.4386 25.8329 11.807 25.8329 10.6842C25.8329 9.16842 25.7176 9 24.3919 9C23.1239 9 22.951 9.16842 22.951 10.6842Z" fill="white"/>
<path d="M13.4986 16.1579C14.3631 15.3579 15.8617 14.2632 16.7839 13.7579C17.7637 13.2105 18.9741 12.7895 19.4352 12.7895C20.05 12.8175 19.8386 13.0982 18.8012 13.6316C17.879 14.0947 16.8991 15.1474 16.611 15.9474C16.1499 17.0842 16.2075 17.7158 16.8991 18.6842C17.4755 19.4842 18.6859 20.2421 22.951 21.6316V24.5789C22.951 26.6421 22.7205 27.5263 22.2594 27.5263C21.8559 27.5263 19.8963 26.9789 17.9366 26.2632C15.5159 25.4211 13.902 24.5368 13.1527 23.6526C12.4035 22.7263 12 21.4632 12 19.9474C12 18.0526 12.2305 17.3789 13.4986 16.1579Z" fill="white"/>
<path d="M26.8546 28.7929C27.1462 29.0971 27.6285 29.2984 28.4265 29.6316C29.5216 30.0947 30.732 30.8526 31.0202 31.3158C31.3084 31.7789 31.5965 32.5789 31.5965 33.1263C31.5389 33.6316 31.1931 34.5158 30.732 35.1053C30.2709 35.6947 29.3487 36.4105 28.5994 36.7053C27.3314 37.2526 27.3314 37.2526 29.0029 37C29.9251 36.8316 31.4236 36.3684 32.3458 35.9053C33.2104 35.4842 34.2478 34.6 34.7089 33.9684C35.1124 33.2947 35.6888 32.2421 35.8617 31.5263C36.0922 30.8526 36.0346 29.5053 35.6888 28.5789C35.3429 27.6105 34.2478 26.3053 33.2104 25.5895C32.1729 24.8316 30.4438 23.9474 29.464 23.5684C28.4265 23.1895 27.2738 22.8947 26.9856 22.8947C26.6398 22.8947 26.4092 24.1579 26.4092 25.8421C26.4092 27.6235 26.4092 28.3282 26.8546 28.7929Z" fill="white"/>
<path d="M12.5764 32.9158V37C19.4928 37.0421 21.8559 37.2105 22.2594 37.3368C22.6052 37.5053 22.951 38.3895 22.951 39.3158C22.951 40.8316 23.0663 41 24.3919 41C25.6599 41 25.8329 40.8316 25.8329 39.3158C25.8329 38.3474 26.121 37.5895 26.5245 37.4632C26.928 37.3789 25.7752 37.1263 23.9308 36.8316C21.3372 36.4526 20.1844 36.0316 18.3401 34.6842C17.072 33.7579 15.4006 32.0737 14.5937 30.8947C13.7867 29.7579 13.0375 28.7895 12.8646 28.7895C12.6916 28.7895 12.5764 30.6421 12.5764 32.9158Z" fill="white"/>
</svg>
