<svg width="32" height="32" viewBox="0 0 32 32" fill="none" xmlns="http://www.w3.org/2000/svg">
<circle cx="16" cy="16" r="16" fill="black"/>
<path d="M9.91893 19.7905C10.0298 19.6797 10.1823 19.615 10.344 19.615H25.0073C25.2752 19.615 25.4092 19.9384 25.2198 20.1278L22.3232 23.0244C22.2123 23.1353 22.0598 23.2 21.8981 23.2H7.23481C6.96686 23.2 6.83289 22.8766 7.0223 22.6872L9.91893 19.7905Z" fill="url(#paint0_linear_3063_47629)"/>
<path d="M9.91893 8.9756C10.0344 8.86473 10.1869 8.80005 10.344 8.80005H25.0073C25.2752 8.80005 25.4092 9.12344 25.2198 9.31285L22.3232 12.2095C22.2123 12.3204 22.0598 12.385 21.8981 12.385H7.23481C6.96686 12.385 6.83289 12.0616 7.0223 11.8722L9.91893 8.9756Z" fill="url(#paint1_linear_3063_47629)"/>
<path d="M22.3232 14.3484C22.2123 14.2375 22.0598 14.1729 21.8981 14.1729H7.23481C6.96686 14.1729 6.83289 14.4962 7.0223 14.6857L9.91893 17.5823C10.0298 17.6932 10.1823 17.7578 10.344 17.7578H25.0073C25.2752 17.7578 25.4092 17.4344 25.2198 17.245L22.3232 14.3484Z" fill="url(#paint2_linear_3063_47629)"/>
<defs>
<linearGradient id="paint0_linear_3063_47629" x1="-26.2081" y1="6.07963" x2="-26.5982" y2="25.7114" gradientUnits="userSpaceOnUse">
<stop stop-color="#00FFA3"/>
<stop offset="1" stop-color="#DC1FFF"/>
</linearGradient>
<linearGradient id="paint1_linear_3063_47629" x1="-30.6454" y1="3.76305" x2="-31.0356" y2="23.3948" gradientUnits="userSpaceOnUse">
<stop stop-color="#00FFA3"/>
<stop offset="1" stop-color="#DC1FFF"/>
</linearGradient>
<linearGradient id="paint2_linear_3063_47629" x1="-28.4409" y1="4.91395" x2="-28.831" y2="24.5457" gradientUnits="userSpaceOnUse">
<stop stop-color="#00FFA3"/>
<stop offset="1" stop-color="#DC1FFF"/>
</linearGradient>
</defs>
</svg>
