<svg width="48" height="49" viewBox="0 0 48 49" fill="none" xmlns="http://www.w3.org/2000/svg">
<circle cx="24" cy="24.6001" r="24" fill="#C4162F"/>
<path d="M9.77663 32.1989C8.77285 32.1989 7.87796 32.0142 7.09197 31.6449C6.31072 31.2756 5.69046 30.7666 5.23118 30.1179C4.7719 29.4692 4.53279 28.7259 4.51385 27.8878H7.4968C7.52995 28.4512 7.76669 28.9081 8.20703 29.2585C8.64737 29.6089 9.17057 29.7841 9.77663 29.7841C10.2596 29.7841 10.6857 29.6776 11.055 29.4645C11.4291 29.2467 11.7203 28.946 11.9286 28.5625C12.1417 28.1742 12.2482 27.7292 12.2482 27.2273C12.2482 26.7159 12.1393 26.2661 11.9215 25.8778C11.7085 25.4896 11.4125 25.1866 11.0337 24.9688C10.6549 24.7509 10.2217 24.6397 9.73402 24.6349C9.30788 24.6349 8.89358 24.7225 8.49112 24.8977C8.09339 25.0729 7.78326 25.312 7.56072 25.6151L4.82635 25.125L5.51527 17.4545H14.4073V19.9688H8.05078L7.67436 23.6122H7.75959C8.01527 23.2524 8.40116 22.9541 8.91726 22.7173C9.43336 22.4806 10.011 22.3622 10.6502 22.3622C11.5262 22.3622 12.3074 22.5682 12.994 22.9801C13.6805 23.392 14.2227 23.9579 14.6204 24.6776C15.0181 25.3925 15.2146 26.2164 15.2099 27.1491C15.2146 28.1293 14.9873 29.0005 14.5281 29.7628C14.0735 30.5204 13.4367 31.117 12.6175 31.5526C11.8031 31.9834 10.8562 32.1989 9.77663 32.1989ZM23.0579 32.3196C21.8363 32.3149 20.7852 32.0142 19.9045 31.4176C19.0285 30.821 18.3538 29.9569 17.8803 28.8253C17.4116 27.6937 17.1796 26.3324 17.1843 24.7415C17.1843 23.1553 17.4187 21.8035 17.8874 20.6861C18.3609 19.5687 19.0356 18.7187 19.9116 18.1364C20.7923 17.5492 21.841 17.2557 23.0579 17.2557C24.2747 17.2557 25.3211 17.5492 26.1971 18.1364C27.0778 18.7235 27.7549 19.5758 28.2283 20.6932C28.7018 21.8059 28.9362 23.1553 28.9315 24.7415C28.9315 26.3371 28.6947 27.7008 28.2212 28.8324C27.7525 29.964 27.0801 30.8281 26.2042 31.4247C25.3282 32.0213 24.2795 32.3196 23.0579 32.3196ZM23.0579 29.7699C23.8912 29.7699 24.5565 29.3509 25.0536 28.5128C25.5508 27.6747 25.797 26.4176 25.7923 24.7415C25.7923 23.6383 25.6786 22.7197 25.4513 21.9858C25.2288 21.2519 24.9116 20.7003 24.4996 20.331C24.0924 19.9616 23.6119 19.777 23.0579 19.777C22.2293 19.777 21.5664 20.1913 21.0692 21.0199C20.5721 21.8485 20.3211 23.089 20.3164 24.7415C20.3164 25.8589 20.4277 26.7917 20.6502 27.5398C20.8775 28.2831 21.1971 28.8419 21.609 29.2159C22.021 29.5852 22.5039 29.7699 23.0579 29.7699ZM36.8274 32.3196C35.6058 32.3149 34.5547 32.0142 33.674 31.4176C32.7981 30.821 32.1233 29.9569 31.6499 28.8253C31.1811 27.6937 30.9491 26.3324 30.9538 24.7415C30.9538 23.1553 31.1882 21.8035 31.657 20.6861C32.1304 19.5687 32.8052 18.7187 33.6811 18.1364C34.5618 17.5492 35.6106 17.2557 36.8274 17.2557C38.0443 17.2557 39.0907 17.5492 39.9666 18.1364C40.8473 18.7235 41.5244 19.5758 41.9979 20.6932C42.4714 21.8059 42.7057 23.1553 42.701 24.7415C42.701 26.3371 42.4643 27.7008 41.9908 28.8324C41.522 29.964 40.8497 30.8281 39.9737 31.4247C39.0978 32.0213 38.049 32.3196 36.8274 32.3196ZM36.8274 29.7699C37.6607 29.7699 38.326 29.3509 38.8232 28.5128C39.3203 27.6747 39.5665 26.4176 39.5618 24.7415C39.5618 23.6383 39.4482 22.7197 39.2209 21.9858C38.9983 21.2519 38.6811 20.7003 38.2692 20.331C37.862 19.9616 37.3814 19.777 36.8274 19.777C35.9988 19.777 35.3359 20.1913 34.8388 21.0199C34.3416 21.8485 34.0907 23.089 34.0859 24.7415C34.0859 25.8589 34.1972 26.7917 34.4197 27.5398C34.647 28.2831 34.9666 28.8419 35.3786 29.2159C35.7905 29.5852 36.2734 29.7699 36.8274 29.7699Z" fill="white"/>
</svg>
