<svg width="48" height="48" viewBox="0 0 48 48" fill="none" xmlns="http://www.w3.org/2000/svg">
<circle cx="24" cy="24" r="24" fill="black"/>
<path d="M36.2442 13.3444L32.1723 15.419L12.5097 25.4342C12.4432 24.9271 12.4097 24.4162 12.4095 23.9047C12.415 19.7525 14.6183 15.9134 18.2007 13.8141C21.7832 11.7148 26.2093 11.6689 29.8345 13.6935L32.1651 12.506L32.5128 12.3286C28.1594 9.1689 22.4017 8.71797 17.6095 11.1615C12.8174 13.6049 9.80072 18.5298 9.80128 23.909C9.80128 24.2734 9.81511 24.6363 9.84277 24.9978C9.92198 26.0446 9.36454 27.0364 8.4292 27.513L7.2002 28.1397V31.0627L10.8185 29.2185L11.9903 28.6204L13.1449 28.0324L33.8734 17.4707L36.2027 16.2846L41.0171 13.8309V10.9093L36.2442 13.3444Z" fill="white"/>
<path d="M41.0171 16.7554L14.3224 30.3474L11.9932 31.5363L7.2002 33.9786V36.8987L11.9603 34.4736L16.0321 32.399L35.7148 22.3696C35.7813 22.88 35.8148 23.3943 35.8149 23.9091C35.8124 28.0663 33.6065 31.9106 30.0188 34.0107C26.431 36.1108 21.9989 36.1519 18.3728 34.1188L18.2297 34.1946L15.7031 35.4823C20.0554 38.6421 25.8121 39.0941 30.6042 36.6523C35.3964 34.2105 38.4143 29.2874 38.416 23.9091C38.416 23.5414 38.4017 23.1737 38.3745 22.8102C38.2954 21.7639 38.8521 20.7723 39.7867 20.295L41.0171 19.6684V16.7554Z" fill="white"/>
</svg>
