<svg width="48" height="48" viewBox="0 0 48 48" fill="none" xmlns="http://www.w3.org/2000/svg">
<path d="M47.2766 29.8057C44.0712 42.663 31.0489 50.4877 18.1901 47.2815C5.33667 44.0761 -2.48802 31.053 0.718765 18.1967C3.92273 5.33806 16.9451 -2.48721 29.7999 0.718162C42.6577 3.92354 50.4819 16.9481 47.2762 29.806L47.2765 29.8057H47.2766Z" fill="#2C7DF7"/>
<path d="M27.5804 40C25.2969 40 23.6302 39.45 22.5803 38.3499C21.6077 37.4188 21.0433 36.1405 21.0104 34.7944C20.9986 34.3855 21.0934 33.9805 21.2855 33.6192C21.4646 33.3071 21.7234 33.0482 22.0353 32.8688C22.7705 32.5021 23.6352 32.5021 24.3703 32.8688C24.6818 33.0475 24.9393 33.3067 25.116 33.6192C25.3136 33.9787 25.4119 34.3843 25.4009 34.7944C25.4212 35.2841 25.2808 35.767 25.0009 36.1694C24.7676 36.4978 24.4342 36.7418 24.0505 36.8648C24.4257 37.3425 24.9565 37.6734 25.5505 37.7999C26.2151 37.993 26.9034 38.0922 27.5954 38.0948C28.5117 38.1028 29.4091 37.8345 30.1705 37.3249C30.9604 36.7668 31.5495 35.9691 31.8505 35.0499C32.2319 33.956 32.4181 32.8034 32.4005 31.645C32.4312 30.4373 32.2275 29.2351 31.8004 28.1049C31.4793 27.201 30.8696 26.4279 30.0655 25.9049C29.318 25.4319 28.4504 25.1838 27.5659 25.19C26.7952 25.2553 26.052 25.5076 25.4009 25.925L23.7954 26.7299V25.925L31.0104 16.2461H21.0104V26.29C20.9822 27.0148 21.1739 27.7312 21.5605 28.345C21.9408 28.889 22.5781 29.1943 23.2404 29.1499C23.8421 29.1377 24.4239 28.9327 24.9003 28.5649C25.4402 28.1692 25.9101 27.6859 26.2903 27.1349C26.3246 27.0383 26.3877 26.9545 26.4711 26.895C26.5381 26.8371 26.6236 26.8052 26.7122 26.805C26.8859 26.8209 27.0503 26.8908 27.1822 27.0049C27.3494 27.1917 27.4403 27.4343 27.4372 27.6849C27.4179 27.8533 27.3878 28.0203 27.3472 28.1849C26.9919 29.0447 26.3965 29.784 25.6321 30.3142C24.9221 30.7946 24.0836 31.0493 23.2263 31.045C21.0613 31.045 19.5614 30.6183 18.7267 29.765C17.8599 28.8122 17.413 27.5508 17.4866 26.2649V16.2461H12.4004V14.3799H17.5103V10.1249L16.3404 8.95417V8H19.7353L21.0104 8.66009V14.3799L34.2202 14.3397L35.5354 15.6597L27.4353 23.7991C27.9247 23.6023 28.44 23.4777 28.9652 23.4291C30.0047 23.4746 31.0189 23.7641 31.9258 24.2742C32.9759 24.7733 33.861 25.5631 34.4759 26.5499C35.027 27.3853 35.417 28.3163 35.626 29.2949C35.7978 30.0669 35.8899 30.8544 35.901 31.6452C35.9063 33.1543 35.5642 34.6444 34.901 36.0001C34.2721 37.3128 33.2136 38.3713 31.9009 39.0002C30.5571 39.6623 29.0784 40.0045 27.5804 40Z" fill="white"/>
</svg>
