<svg width="48" height="48" viewBox="0 0 48 48" fill="none" xmlns="http://www.w3.org/2000/svg">
<path fill-rule="evenodd" clip-rule="evenodd" d="M24 48C10.8 48 0 37.2002 0 23.8805C0.12 10.6808 10.8 -0.119007 24.12 0.000990408C37.32 0.120988 48 10.8008 48 24.2405C47.88 37.3202 37.2 48 24 48Z" fill="#FC070C"/>
<path fill-rule="evenodd" clip-rule="evenodd" d="M38.8944 16.8121L38.8943 16.812L38.8942 16.812L38.8941 16.8118L38.8939 16.8117C37.7825 15.7326 36.6082 14.5924 35.5718 13.6725L35.4668 13.599C35.2921 13.4587 35.0951 13.3487 34.884 13.2735L34.084 13.1242L34.0838 13.1242C28.5636 12.0942 10.6717 8.75573 10.3036 8.80049C10.1947 8.81574 10.0907 8.85521 9.9991 8.91599L9.89935 8.99474C9.77652 9.11948 9.68323 9.27018 9.62635 9.43574L9.6001 9.50399V9.87674V9.93449C10.8148 13.317 13.9704 20.8709 16.8841 27.8458L16.8841 27.8459L16.8841 27.846L16.8844 27.8466L16.8844 27.8467C19.3476 33.7432 21.6378 39.2257 22.4363 41.4239L22.4366 41.4248C22.5417 41.7505 22.7412 42.3689 23.1136 42.4004H23.1976C23.3971 42.4004 24.2476 41.2769 24.2476 41.2769C24.2476 41.2769 39.4515 22.839 40.9897 20.8755C41.1889 20.6336 41.3646 20.3734 41.5147 20.0985C41.5927 19.6608 41.4352 19.2144 41.1 18.9225C40.445 18.3177 39.6857 17.5804 38.8944 16.8121ZM28.1484 21.0697L34.6374 15.6885L38.4437 19.1955L28.1484 21.0697ZM14.4565 11.562L25.6285 20.718L32.5322 14.8958L14.4565 11.562ZM26.6365 23.1172L38.071 21.2744L24.9985 37.0244L26.6365 23.1172ZM24.6937 22.4506L12.939 12.4756L22.9927 37.035L24.6937 22.4506Z" fill="white"/>
</svg>
