<svg width="48" height="48" viewBox="0 0 48 48" fill="none" xmlns="http://www.w3.org/2000/svg">
<mask id="path-1-inside-1_3388_31733" fill="white">
<path d="M47.2766 29.8057C44.0712 42.663 31.0489 50.4877 18.1901 47.2815C5.33667 44.0761 -2.48802 31.053 0.718765 18.1967C3.92273 5.33806 16.9451 -2.48721 29.7999 0.718162C42.6577 3.92354 50.4819 16.9481 47.2762 29.806L47.2765 29.8057H47.2766Z"/>
</mask>
<path d="M47.2766 29.8057C44.0712 42.663 31.0489 50.4877 18.1901 47.2815C5.33667 44.0761 -2.48802 31.053 0.718765 18.1967C3.92273 5.33806 16.9451 -2.48721 29.7999 0.718162C42.6577 3.92354 50.4819 16.9481 47.2762 29.806L47.2765 29.8057H47.2766Z" fill="url(#paint0_linear_3388_31733)"/>
<path d="M47.2766 29.8057L51.1578 30.7733L52.3962 25.8057H47.2766V29.8057ZM18.1901 47.2815L17.2222 51.1626L17.2223 51.1627L18.1901 47.2815ZM0.718765 18.1967L4.59985 19.1648L4.60009 19.1638L0.718765 18.1967ZM29.7999 0.718162L28.8321 4.59932L28.8323 4.59938L29.7999 0.718162ZM47.2762 29.806L43.395 28.8383L39.9058 42.8332L50.1046 32.6344L47.2762 29.806ZM47.2765 29.8057V25.8057H45.6196L44.448 26.9773L47.2765 29.8057ZM43.3954 28.8381C40.7244 39.5516 29.8732 46.0721 19.1578 43.4003L17.2223 51.1627C32.2245 54.9033 47.4179 45.7744 51.1578 30.7733L43.3954 28.8381ZM19.1579 43.4003C8.4482 40.7296 1.92772 29.8776 4.59985 19.1648L-3.16232 17.2287C-6.90375 32.2283 2.22513 47.4227 17.2222 51.1626L19.1579 43.4003ZM4.60009 19.1638C7.26994 8.44878 18.1213 1.92856 28.8321 4.59932L30.7676 -3.163C15.7688 -6.90299 0.575523 2.22733 -3.16256 17.2296L4.60009 19.1638ZM28.8323 4.59938C39.5461 7.27024 46.0665 18.1235 43.395 28.8383L51.1574 30.7736C54.8974 15.7727 45.7694 0.576834 30.7674 -3.16305L28.8323 4.59938ZM50.1046 32.6344L50.1049 32.6341L44.448 26.9773L44.4478 26.9775L50.1046 32.6344ZM47.2765 33.8057H47.2766V25.8057H47.2765V33.8057Z" fill="#FFD9EC" mask="url(#path-1-inside-1_3388_31733)"/>
<path d="M20.2124 14.8232C19.8875 14.7768 19.872 14.7613 20.0267 14.7458C20.3207 14.6994 21.0015 14.7613 21.4811 14.8696C22.5951 15.1326 23.6008 15.8134 24.6683 17.0047L24.9468 17.3296L25.3491 17.2677C27.0665 16.9892 28.8302 17.2058 30.3001 17.8866C30.7023 18.0723 31.3367 18.4436 31.4141 18.5364C31.445 18.5674 31.4914 18.7685 31.5224 18.9696C31.6307 19.6968 31.5842 20.2383 31.3522 20.6561C31.2284 20.8882 31.2284 20.95 31.3057 21.1512C31.3676 21.3059 31.5533 21.4142 31.7235 21.4142C32.0948 21.4142 32.4816 20.8263 32.6673 20.0063L32.7446 19.6814L32.8839 19.8361C33.6729 20.718 34.2918 21.9402 34.3847 22.8067L34.4156 23.0388L34.2764 22.8376C34.0443 22.4818 33.8277 22.2497 33.5337 22.0486C33.0077 21.6927 32.4507 21.5844 30.9808 21.507C29.6503 21.4297 28.8921 21.3214 28.1495 21.0738C26.8808 20.6561 26.231 20.1146 24.7302 18.1187C24.0649 17.2368 23.6472 16.7572 23.2294 16.3549C22.3166 15.473 21.4037 15.0088 20.2124 14.8232Z" fill="#FF007A"/>
<path d="M31.739 16.7879C31.77 16.2 31.8473 15.8132 32.0175 15.4574C32.0794 15.3181 32.1413 15.1943 32.1568 15.1943C32.1722 15.1943 32.1413 15.3026 32.0949 15.4264C31.9711 15.7668 31.9556 16.2464 32.033 16.7879C32.1413 17.4842 32.1877 17.577 32.9304 18.3351C33.2707 18.691 33.673 19.1397 33.8277 19.3253L34.0907 19.6657L33.8277 19.4182C33.5028 19.1087 32.7602 18.5208 32.59 18.4434C32.4817 18.3815 32.4662 18.3815 32.3888 18.4589C32.327 18.5208 32.3115 18.6136 32.3115 19.0623C32.296 19.7585 32.2032 20.1918 31.9711 20.6404C31.8473 20.8725 31.8319 20.8261 31.9402 20.5631C32.0175 20.362 32.033 20.2691 32.033 19.6038C32.033 18.2578 31.8783 17.9329 30.9345 17.3913C30.7024 17.2521 30.3001 17.051 30.0681 16.9427C29.8205 16.8344 29.6348 16.7415 29.6503 16.7415C29.6813 16.7106 30.5941 16.9736 30.95 17.1283C31.4915 17.3449 31.5843 17.3604 31.6462 17.3449C31.6926 17.2985 31.7235 17.1747 31.739 16.7879Z" fill="#FF007A"/>
<path d="M20.846 19.0933C20.1962 18.1959 19.7784 16.8034 19.8713 15.7668L19.9022 15.4419L20.0569 15.4728C20.3354 15.5193 20.8151 15.7049 21.0471 15.8442C21.666 16.2155 21.9445 16.7261 22.2075 17.9948C22.2849 18.3661 22.3932 18.7993 22.4396 18.9385C22.517 19.1706 22.8109 19.7121 23.0585 20.0525C23.2287 20.3001 23.1204 20.4238 22.7336 20.3929C22.1456 20.331 21.3566 19.7895 20.846 19.0933Z" fill="#FF007A"/>
<path d="M30.9492 25.8237C27.8858 24.5859 26.8027 23.5184 26.8027 21.7081C26.8027 21.4451 26.8182 21.2285 26.8182 21.2285C26.8337 21.2285 26.942 21.3213 27.0812 21.4297C27.7001 21.9248 28.3963 22.1414 30.3303 22.4199C31.4598 22.59 32.1096 22.7138 32.6975 22.915C34.5696 23.5338 35.73 24.8025 36.0085 26.5199C36.0859 27.015 36.0395 27.9588 35.9157 28.4539C35.8074 28.8407 35.4979 29.5524 35.4206 29.5679C35.4051 29.5679 35.3742 29.4905 35.3742 29.3667C35.3432 28.7169 35.0183 28.098 34.4768 27.6184C33.827 27.0614 32.9915 26.6437 30.9492 25.8237Z" fill="#FF007A"/>
<path d="M28.784 26.3343C28.7531 26.1022 28.6757 25.8082 28.6293 25.6845L28.5519 25.4524L28.6912 25.6226C28.8923 25.8547 29.047 26.1332 29.1863 26.52C29.2946 26.8139 29.2946 26.9068 29.2946 27.3864C29.2946 27.8505 29.2791 27.9588 29.1863 28.2219C29.0316 28.6396 28.8459 28.9336 28.5365 29.2585C27.9795 29.8309 27.2523 30.1404 26.2157 30.2796C26.03 30.2951 25.504 30.3415 25.0398 30.3725C23.8794 30.4343 23.1058 30.5581 22.4096 30.8057C22.3168 30.8366 22.2239 30.8676 22.2085 30.8521C22.1775 30.8211 22.6571 30.5426 23.0439 30.357C23.5855 30.094 24.1424 29.9547 25.3647 29.7381C25.9681 29.6453 26.587 29.5215 26.7417 29.4596C28.2734 28.98 29.0316 27.7886 28.784 26.3343Z" fill="#FF007A"/>
<path d="M30.191 28.8252C29.7888 27.9433 29.6959 27.1078 29.9125 26.3188C29.9435 26.2414 29.9744 26.1641 30.0054 26.1641C30.0363 26.1641 30.1292 26.2105 30.222 26.2724C30.4076 26.3961 30.7944 26.6127 31.7846 27.1543C33.0379 27.835 33.7496 28.3611 34.2447 28.9645C34.6779 29.4905 34.9409 30.0939 35.0647 30.8366C35.142 31.2543 35.0956 32.26 34.9873 32.6777C34.6469 33.9928 33.8733 35.0449 32.7439 35.6483C32.5737 35.7412 32.4345 35.8031 32.419 35.8031C32.4035 35.8031 32.4654 35.6483 32.5582 35.4627C32.9296 34.6736 32.976 33.9155 32.6975 33.0645C32.5273 32.5385 32.1714 31.9041 31.4597 30.8366C30.6088 29.5988 30.4076 29.2739 30.191 28.8252Z" fill="#FF007A"/>
<path d="M18.6648 33.5596C19.8097 32.6003 21.2176 31.9196 22.5173 31.703C23.0742 31.6101 24.0026 31.6411 24.5131 31.7803C25.3331 31.9969 26.0758 32.4611 26.4626 33.0335C26.8339 33.5905 27.0041 34.0702 27.1743 35.1377C27.2362 35.5555 27.3135 35.9887 27.329 36.0815C27.4528 36.6385 27.7003 37.0717 28.0098 37.3038C28.4894 37.6596 29.3249 37.6751 30.1449 37.3657C30.2841 37.3193 30.4079 37.2728 30.4079 37.2883C30.4389 37.3193 30.0211 37.5978 29.7426 37.737C29.3558 37.9381 29.0464 38 28.6287 38C27.886 38 27.2517 37.6132 26.7411 36.8396C26.6328 36.6849 26.4162 36.2362 26.2305 35.8185C25.689 34.5653 25.4105 34.1939 24.7762 33.7762C24.2192 33.4203 23.5075 33.343 22.9659 33.606C22.2542 33.9464 22.0686 34.8592 22.5637 35.4162C22.7648 35.6483 23.1361 35.834 23.4456 35.8804C24.018 35.9577 24.5131 35.5091 24.5131 34.9366C24.5131 34.5653 24.3739 34.3487 24.0026 34.1785C23.5075 33.9619 22.9659 34.2094 22.9814 34.689C22.9814 34.8902 23.0742 35.014 23.2754 35.1068C23.3992 35.1687 23.3992 35.1687 23.3063 35.1532C22.8576 35.0604 22.7493 34.5034 23.1052 34.1475C23.5384 33.7143 24.4512 33.9 24.7607 34.5034C24.8845 34.7509 24.8999 35.246 24.7916 35.5555C24.5286 36.2362 23.7859 36.5921 23.0278 36.391C22.5173 36.2517 22.3006 36.1125 21.6818 35.4781C20.5987 34.3641 20.181 34.1475 18.6338 33.9154L18.3398 33.869L18.6648 33.5596Z" fill="#FF007A"/>
<path fill-rule="evenodd" clip-rule="evenodd" d="M10.5267 8.66529C14.1317 13.0438 19.6861 19.8515 19.9646 20.2228C20.1967 20.5322 20.1038 20.8262 19.717 21.0428C19.5004 21.1666 19.0517 21.2904 18.8351 21.2904C18.5876 21.2904 18.2936 21.1666 18.0925 20.9654C17.9532 20.8262 17.3498 19.9443 15.9883 17.8247C14.9517 16.2001 14.0698 14.854 14.0543 14.8386C13.9924 14.8076 13.9924 14.8076 15.88 18.1805C17.0713 20.3002 17.4581 21.0583 17.4581 21.1511C17.4581 21.3522 17.3963 21.4605 17.1487 21.739C16.731 22.2032 16.5453 22.7292 16.4061 23.8277C16.2513 25.05 15.8336 25.9165 14.6423 27.3863C13.946 28.2527 13.8377 28.4074 13.6675 28.7633C13.4509 29.1965 13.389 29.444 13.3581 30.001C13.3271 30.589 13.389 30.9603 13.5592 31.5173C13.7139 32.0124 13.8841 32.3373 14.3019 32.9716C14.6577 33.5286 14.8743 33.9464 14.8743 34.1011C14.8743 34.2249 14.9053 34.2249 15.4623 34.1011C16.7928 33.7916 17.8914 33.2656 18.4948 32.6158C18.8661 32.2135 18.9589 31.9969 18.9589 31.4399C18.9589 31.0841 18.9434 31.0067 18.8506 30.7901C18.6959 30.4497 18.4019 30.1712 17.7676 29.738C16.9321 29.1655 16.5762 28.7014 16.4834 28.0825C16.4061 27.5565 16.4989 27.2006 16.963 26.2259C17.4427 25.2202 17.5664 24.8025 17.6438 23.7813C17.6902 23.1315 17.7676 22.8685 17.9532 22.6674C18.1544 22.4507 18.3246 22.3734 18.8042 22.3115C19.5933 22.2032 20.1038 22.0021 20.5061 21.6153C20.862 21.2904 21.0167 20.9654 21.0321 20.4858L21.0476 20.13L20.8465 19.9134C20.1193 19.0779 10.0471 8 10.0007 8C9.98522 8 10.2328 8.29397 10.5267 8.66529ZM15.2766 30.6663C15.4468 30.3724 15.354 30.001 15.0755 29.8154C14.8124 29.6452 14.4102 29.7225 14.4102 29.9546C14.4102 30.0165 14.4411 30.0784 14.534 30.1093C14.6732 30.1867 14.6887 30.2641 14.5804 30.4342C14.4721 30.6044 14.4721 30.7592 14.6113 30.8675C14.8279 31.0376 15.1219 30.9448 15.2766 30.6663Z" fill="#FF007A"/>
<path fill-rule="evenodd" clip-rule="evenodd" d="M21.5428 22.5281C21.1715 22.6364 20.8156 23.0386 20.7073 23.4409C20.6454 23.6884 20.6764 24.1371 20.7847 24.2764C20.9549 24.493 21.1096 24.5549 21.5428 24.5549C22.3938 24.5549 23.1209 24.1835 23.1983 23.7349C23.2757 23.3635 22.9507 22.853 22.5021 22.6209C22.27 22.4971 21.7904 22.4507 21.5428 22.5281ZM22.533 23.3016C22.6568 23.116 22.6104 22.9149 22.3783 22.7756C21.9605 22.5126 21.3262 22.7292 21.3262 23.1315C21.3262 23.3326 21.6511 23.5492 21.9605 23.5492C22.1617 23.5492 22.4402 23.4254 22.533 23.3016Z" fill="#FF007A"/>
<defs>
<linearGradient id="paint0_linear_3388_31733" x1="0" y1="0" x2="0" y2="48" gradientUnits="userSpaceOnUse">
<stop stop-color="#FEF3F9"/>
<stop offset="1" stop-color="#FDE5F2"/>
</linearGradient>
</defs>
</svg>
