<svg width="48" height="48" viewBox="0 0 48 48" fill="none" xmlns="http://www.w3.org/2000/svg">
<path d="M47.2766 29.8057C44.0712 42.663 31.0489 50.4877 18.1901 47.2815C5.33667 44.0761 -2.48802 31.053 0.718765 18.1967C3.92273 5.33806 16.9451 -2.48721 29.7999 0.718162C42.6577 3.92354 50.4819 16.9481 47.2762 29.806L47.2765 29.8057H47.2766Z" fill="#50AF95"/>
<path fill-rule="evenodd" clip-rule="evenodd" d="M27.037 26.7205C26.8673 26.7332 25.9905 26.7855 24.0347 26.7855C22.4791 26.7855 21.3746 26.7389 20.9872 26.7205C14.9755 26.456 10.4883 25.4095 10.4883 24.1566C10.4883 22.9036 14.9755 21.8585 20.9872 21.5898V25.6782C21.3803 25.7065 22.506 25.773 24.0616 25.773C25.9283 25.773 26.8631 25.6952 27.0314 25.6797V21.5927C33.0303 21.86 37.5076 22.9064 37.5076 24.1566C37.5076 25.4067 33.0317 26.4532 27.0314 26.7191L27.037 26.7205ZM27.0368 21.17V17.5116H35.4088V11.9326H12.615V17.5116H20.9856V21.1686C14.1819 21.4812 9.06543 22.8289 9.06543 24.4439C9.06543 26.0589 14.1819 27.4052 20.9856 27.7191V39.4427H27.0354V27.7149C33.8235 27.4023 38.9315 26.056 38.9315 24.4425C38.9315 22.8289 33.8277 21.4826 27.0354 21.1686L27.0368 21.17Z" fill="white"/>
</svg>
