<svg width="48" height="48" viewBox="0 0 48 48" fill="none" xmlns="http://www.w3.org/2000/svg">
<path d="M47.2766 29.8057C44.0712 42.663 31.0489 50.4877 18.1901 47.2815C5.33667 44.0761 -2.48802 31.053 0.718765 18.1967C3.92273 5.33806 16.9451 -2.48721 29.7999 0.718162C42.6577 3.92354 50.4819 16.9481 47.2762 29.806L47.2765 29.8057H47.2766Z" fill="#23292F"/>
<path d="M35.801 10H40.6442L30.5652 19.9795C26.9151 23.5916 20.9973 23.5916 17.3447 19.9795L7.26172 10H12.1088L19.7662 17.5809C22.0877 19.8689 25.8162 19.8689 28.1377 17.5809L35.801 10Z" fill="white"/>
<path d="M12.0466 37.7501H7.2002L17.3447 27.7091C20.9947 24.097 26.9125 24.097 30.5652 27.7091L40.7096 37.7501H35.8665L28.1436 30.1077C25.8221 27.8197 22.0936 27.8197 19.7721 30.1077L12.0466 37.7501Z" fill="white"/>
</svg>
