<svg width="32" height="32" viewBox="0 0 32 32" fill="none" xmlns="http://www.w3.org/2000/svg">
<path d="M31.5177 19.8705C29.3808 28.442 20.6992 33.6584 12.1267 31.521C3.55778 29.3841 -1.65868 20.702 0.479177 12.1312C2.61515 3.5587 11.2967 -1.65814 19.8666 0.478775C28.4385 2.61569 33.6546 11.2987 31.5175 19.8706L31.5176 19.8705H31.5177Z" fill="#23292F"/>
<path d="M23.8673 6.66675H27.0961L20.3768 13.3198C17.9434 15.7278 13.9982 15.7278 11.5631 13.3198L4.84114 6.66675H8.07254L13.1775 11.7207C14.7251 13.246 17.2108 13.246 18.7585 11.7207L23.8673 6.66675Z" fill="white"/>
<path d="M8.03108 25.1668H4.80013L11.5631 18.4728C13.9965 16.0647 17.9417 16.0647 20.3768 18.4728L27.1398 25.1668H23.911L18.7624 20.0719C17.2147 18.5466 14.7291 18.5466 13.1814 20.0719L8.03108 25.1668Z" fill="white"/>
</svg>
