<svg width="48" height="48" viewBox="0 0 48 48" fill="none" xmlns="http://www.w3.org/2000/svg">
<g clip-path="url(#clip0_3388_32250)">
<circle cx="24" cy="24" r="24" fill="#EDF0F4"/>
<path fill-rule="evenodd" clip-rule="evenodd" d="M17.7741 38.7427C19.7469 39.5763 21.8418 40 24.0018 40C26.1622 40 28.256 39.5763 30.2294 38.736C34.0643 37.1102 37.1171 34.0573 38.7427 30.2224C39.5763 28.2496 40 26.1547 40 23.9947C40.0056 17.5628 36.1555 11.7542 30.2294 9.25393C28.256 8.42033 26.1552 8.00001 23.9982 8.00001C17.5663 7.99435 11.7576 11.8445 9.25728 17.7706C8.42368 19.744 8 21.8378 8 23.9982C8 26.1587 8.42368 28.2531 9.2608 30.2294C10.8865 34.0643 13.9392 37.117 17.7741 38.7427ZM15.2003 15.1968C17.5517 12.8493 20.6778 11.5533 24.0018 11.5533L24.0014 11.5536C27.3254 11.5536 30.4509 12.8491 32.8029 15.1971C35.1504 17.5485 36.4464 20.6746 36.4464 23.9986C36.4464 27.3226 35.1509 30.448 32.8029 32.8C30.4515 35.1475 27.3254 36.4435 24.0014 36.4435C20.6774 36.4435 17.552 35.148 15.2 32.8C12.8523 30.448 11.5568 27.3222 11.5568 23.9982C11.5568 20.6742 12.8483 17.5488 15.2003 15.1968Z" fill="black"/>
<path d="M23.0398 27.9822H29.9726V31.466H25.7038C25.7733 32.4628 25.8115 33.386 25.8809 34.3801H22.2893V31.5001H18.0205C18.0205 30.3609 17.8781 29.2251 18.0899 28.1587C18.1976 27.5891 18.8366 27.0924 19.2291 26.5956C20.5803 24.9944 21.9313 23.4315 23.3173 21.8302C23.8521 21.2259 24.3835 20.6563 24.988 19.9824H18.34V16.4993H22.2857V13.5851H25.7347V16.4297H30.0387C30.0387 17.6036 30.1811 18.7395 29.9693 19.8092C29.8616 20.3788 29.2225 20.8755 28.7953 21.3723C27.4441 22.9736 26.0931 24.5364 24.7072 26.1377C24.1792 26.7734 23.6478 27.3395 23.04 27.982" fill="black"/>
</g>
<defs>
<clipPath id="clip0_3388_32250">
<rect width="48" height="48" fill="white"/>
</clipPath>
</defs>
</svg>
