<svg width="24" height="24" viewBox="0 0 24 24" fill="none" xmlns="http://www.w3.org/2000/svg">
<circle cx="12.0999" cy="11.9" r="10.7" fill="white"/>
<path fill-rule="evenodd" clip-rule="evenodd" d="M0 12C0 5.37258 5.37256 0 11.9999 0H12.0697C15.243 0.0092338 18.2827 1.27871 20.5201 3.52915C22.7574 5.77959 24.0092 8.82665 23.9999 12C23.9999 18.6274 18.6273 24 11.9999 24C5.37256 24 0 18.6274 0 12ZM10.954 16.6198L12.2034 12.4067L14.1502 11.8547L14.5569 10.46L12.6393 11.0411L14.6732 4.12586V4.01545C14.6701 3.92605 14.6317 3.84151 14.5663 3.78047C14.5009 3.71943 14.4139 3.68689 14.3245 3.69003H11.7385C11.5371 3.68382 11.3573 3.81565 11.3027 4.00964L8.8911 12.2033L6.97343 12.7845L6.5376 14.121L8.45527 13.5399L6.74099 19.3801H16.9685C17.1707 19.3885 17.3516 19.2558 17.4044 19.0605L17.9855 17.0556V16.9452C17.9825 16.8558 17.944 16.7713 17.8786 16.7103C17.8132 16.6492 17.7262 16.6167 17.6368 16.6198H10.954Z" fill="#345D9D"/>
</svg>
