<svg width="24" height="24" viewBox="0 0 24 24" fill="none" xmlns="http://www.w3.org/2000/svg">
<path d="M11.9923 24C18.622 24 23.9923 18.6297 23.9923 12C23.9923 5.37025 18.622 0 11.9923 0C5.36252 0 0 5.37025 0 12C0 18.6297 5.37025 24 11.9923 24Z" fill="#008CE3"/>
<path d="M13.8234 6.74561H9.10993L8.72358 8.92461L12.9734 8.93234C15.0674 8.93234 15.6856 9.68958 15.6701 10.9491C15.6624 11.5981 15.3842 12.6877 15.2606 13.0431C14.9361 13.9858 14.2793 15.0676 11.7912 15.0598H7.65726L7.26318 17.2466H11.9612C13.6148 17.2466 14.3256 17.0534 15.0674 16.7057C16.721 15.9407 17.7101 14.3103 18.1041 12.1777C18.6991 9.00188 17.965 6.74561 13.8234 6.74561Z" fill="white"/>
<path d="M7.08558 10.9027C5.84926 10.9027 5.67154 11.7063 5.55564 12.1931C5.4011 12.8267 5.35474 13.0894 5.35474 13.0894H10.1764C11.4127 13.0894 11.5904 12.2858 11.7063 11.799C11.8609 11.1654 11.9072 10.9027 11.9072 10.9027H7.08558Z" fill="white"/>
</svg>
