<svg width="32" height="32" viewBox="0 0 32 32" fill="none" xmlns="http://www.w3.org/2000/svg">
<path d="M31.5177 19.8705C29.3808 28.442 20.6992 33.6584 12.1267 31.521C3.55778 29.3841 -1.65868 20.702 0.479177 12.1312C2.61515 3.5587 11.2967 -1.65814 19.8666 0.478775C28.4385 2.61569 33.6546 11.2987 31.5175 19.8706L31.5176 19.8705H31.5177Z" fill="#23292F"/>
<path d="M23.868 6.66602H27.0968L20.3774 13.319C17.9441 15.7271 13.9989 15.7271 11.5638 13.319L4.8418 6.66602H8.07319L13.1781 11.7199C14.7258 13.2453 17.2115 13.2453 18.7591 11.7199L23.868 6.66602Z" fill="white"/>
<path d="M8.03174 25.1661H4.80078L11.5638 18.4721C13.9971 16.064 17.9423 16.064 20.3774 18.4721L27.1404 25.1661H23.9116L18.763 20.0712C17.2154 18.5458 14.7297 18.5458 13.1821 20.0712L8.03174 25.1661Z" fill="white"/>
</svg>
