<svg width="272" height="84" viewBox="0 0 272 84" fill="none" xmlns="http://www.w3.org/2000/svg">
<g clip-path="url(#clip0_3327_33650)">
<rect y="0.0625" width="272" height="83" rx="20" fill="#080D27"/>
<g clip-path="url(#clip1_3327_33650)">
<g style="mix-blend-mode:screen">
<path fill-rule="evenodd" clip-rule="evenodd" d="M251.845 -38.1039L251.935 -38.1493C264.169 -13.5065 267.982 15.5319 260.665 44.3626L260.654 44.4059L260.65 44.422C260.649 44.4272 260.648 44.4323 260.646 44.4376C260.645 44.4426 260.644 44.4479 260.642 44.453L260.638 44.4693L260.615 44.559C253.255 73.3592 236.037 97.0069 213.532 112.765L213.475 112.682L213.318 112.481L135.762 12.6706L135.759 12.667L105.922 5.04588L105.972 4.84953L135.749 12.4554L135.825 12.4226L251.611 -38.0021L251.845 -38.1039ZM260.31 44.9387C260.215 45.305 260.118 45.6707 260.02 46.0351L259.984 46.024C259.87 46.3856 259.749 46.7435 259.621 47.0976L259.719 47.1328C252.027 74.6568 235.246 97.2825 213.513 112.532L213.538 112.434L232.629 37.4104L260.42 44.5091C260.383 44.6524 260.345 44.7954 260.306 44.9377L260.31 44.9387ZM260.47 44.3128L232.679 37.2141L251.782 -37.8559L251.807 -37.9537C263.599 -14.141 267.521 13.7725 261.12 41.6262L261.017 41.6105C260.96 41.9826 260.895 42.3549 260.823 42.7273L260.86 42.7343C260.772 43.1016 260.682 43.4687 260.59 43.8359L260.586 43.8351C260.549 43.9943 260.51 44.1536 260.47 44.3128ZM213.381 112.233L232.434 37.3606L136.078 12.7486L213.381 112.233ZM232.484 37.1643L136.069 12.537L251.548 -37.754L232.484 37.1643ZM239.829 9.11477C240.013 9.16179 240.197 9.21066 240.379 9.26115L240.326 9.45653C240.144 9.4064 239.962 9.35782 239.779 9.31111L239.829 9.11477ZM241.466 9.58394C241.827 9.69929 242.185 9.82118 242.539 9.9495L242.471 10.1401C242.119 10.0127 241.764 9.89162 241.404 9.77712L241.466 9.58394ZM243.599 10.3574C243.95 10.5006 244.298 10.6506 244.641 10.8066L244.558 10.9911C244.217 10.8362 243.872 10.6874 243.523 10.5451L243.599 10.3574ZM245.664 11.2965C246.003 11.4669 246.337 11.6437 246.667 11.8267L246.57 12.004C246.242 11.8226 245.91 11.647 245.574 11.4776L245.664 11.2965ZM247.649 12.397C247.973 12.594 248.293 12.7969 248.608 13.0058L248.497 13.175C248.184 12.9675 247.867 12.7659 247.545 12.5702L247.649 12.397ZM249.541 13.6523C249.849 13.8744 250.151 14.1021 250.449 14.3352L250.325 14.4952C250.029 14.2634 249.729 14.0373 249.424 13.817L249.541 13.6523ZM251.328 15.0539C251.617 15.2997 251.901 15.5508 252.179 15.8072L252.043 15.9567C251.767 15.7021 251.485 15.4527 251.198 15.2087L251.328 15.0539ZM253 16.5935C253.269 16.8612 253.532 17.1342 253.789 17.4117L253.642 17.5501C253.386 17.2744 253.125 17.0034 252.858 16.7377L253 16.5935ZM254.546 18.2606C254.792 18.5486 255.033 18.8413 255.269 19.1384L255.111 19.2647C254.877 18.9696 254.638 18.6789 254.393 18.3929L254.546 18.2606ZM255.957 20.0444C256.18 20.3508 256.398 20.6618 256.609 20.9768L256.442 21.0903C256.232 20.7777 256.016 20.4689 255.794 20.1644L255.957 20.0444ZM257.225 21.9339C257.424 22.2571 257.617 22.5843 257.803 22.915L257.628 23.0151C257.443 22.6868 257.251 22.362 257.054 22.041L257.225 21.9339ZM258.343 23.9179C258.516 24.2554 258.683 24.5967 258.843 24.9412L258.66 25.0274C258.501 24.6853 258.336 24.3464 258.164 24.0111L258.343 23.9179ZM259.303 25.9837C259.449 26.3338 259.589 26.6871 259.722 27.0433L259.533 27.115C259.401 26.7613 259.263 26.4103 259.117 26.0627L259.303 25.9837ZM260.099 28.1187C260.218 28.4795 260.33 28.8428 260.434 29.2087L260.241 29.265C260.137 28.9018 260.026 28.541 259.908 28.183L260.099 28.1187ZM260.727 30.311C260.817 30.6801 260.9 31.0511 260.976 31.4242L260.779 31.4652C260.703 31.0948 260.621 30.7262 260.531 30.3599L260.727 30.311ZM261.181 32.5462C261.242 32.9209 261.295 33.2975 261.342 33.6756L261.142 33.7008C261.096 33.3254 261.043 32.9514 260.982 32.5794L261.181 32.5462ZM261.458 34.8108C261.489 35.1894 261.513 35.5692 261.53 35.9501L261.329 35.9594C261.312 35.581 261.289 35.2038 261.258 34.8281L261.458 34.8108ZM261.557 37.0918C261.558 37.471 261.552 37.8513 261.539 38.2323L261.337 38.2257C261.351 37.8473 261.357 37.4695 261.355 37.0929L261.557 37.0918ZM261.476 39.3719C261.447 39.7503 261.412 40.1292 261.368 40.5087L261.168 40.486C261.211 40.1093 261.247 39.7329 261.275 39.3572L261.476 39.3719ZM259.403 48.2332C259.259 48.5872 259.11 48.937 258.954 49.2826L258.77 49.1995C258.925 48.8561 259.074 48.5086 259.216 48.1572L259.403 48.2332ZM258.464 50.3132C258.294 50.6544 258.118 50.9912 257.935 51.3234L257.759 51.2257C257.94 50.8957 258.115 50.5615 258.284 50.2228L258.464 50.3132ZM257.366 52.3127C257.17 52.6395 256.967 52.9614 256.759 53.2788L256.591 53.1674C256.798 52.8524 256.999 52.5326 257.194 52.208L257.366 52.3127ZM256.114 54.2196C255.893 54.5293 255.666 54.8342 255.433 55.1339L255.274 55.0095C255.505 54.7119 255.731 54.4091 255.951 54.1016L256.114 54.2196ZM254.717 56.0203C254.472 56.3118 254.222 56.5977 253.966 56.8783L253.818 56.7418C254.072 56.4631 254.32 56.179 254.563 55.8897L254.717 56.0203ZM253.183 57.706C252.916 57.977 252.644 58.2423 252.368 58.5019L252.23 58.354C252.505 58.096 252.775 57.8327 253.04 57.5635L253.183 57.706ZM251.522 59.2652C251.235 59.5142 250.944 59.7573 250.648 59.9945L250.523 59.8361C250.817 59.6004 251.106 59.3591 251.391 59.1119L251.522 59.2652ZM249.746 60.6889C249.441 60.9145 249.131 61.1341 248.818 61.3476L248.705 61.1799C249.017 60.9679 249.324 60.75 249.627 60.5259L249.746 60.6889ZM247.865 61.9693C247.543 62.1702 247.218 62.3648 246.889 62.553L246.79 62.3769C247.116 62.1901 247.44 61.9968 247.759 61.7973L247.865 61.9693ZM245.891 63.0982C245.555 63.2734 245.215 63.4419 244.872 63.6038L244.787 63.4206C245.127 63.2598 245.465 63.0923 245.798 62.9185L245.891 63.0982ZM243.835 64.0689C243.487 64.2172 243.135 64.3585 242.781 64.493L242.71 64.3034C243.062 64.1699 243.411 64.0295 243.757 63.8824L243.835 64.0689ZM241.711 64.8752C241.352 64.9955 240.991 65.1087 240.627 65.2149L240.572 65.0205C240.933 64.9149 241.292 64.8026 241.648 64.6832L241.711 64.8752ZM239.531 65.5118C239.164 65.6033 238.795 65.6877 238.424 65.7649L238.383 65.5665C238.752 65.4899 239.118 65.4061 239.483 65.3152L239.531 65.5118ZM237.308 65.9737C236.936 66.036 236.561 66.0908 236.185 66.1384L236.161 65.9373C236.534 65.8901 236.906 65.8356 237.276 65.774L237.308 65.9737ZM235.057 66.2581C234.68 66.2904 234.303 66.3153 233.924 66.3327L233.915 66.1303C234.291 66.113 234.666 66.0883 235.04 66.0562L235.057 66.2581ZM232.789 66.3623C232.412 66.3646 232.034 66.3594 231.656 66.3466L231.663 66.1442C232.039 66.1568 232.414 66.1621 232.789 66.1597L232.789 66.3623ZM230.523 66.2862C230.147 66.2585 229.771 66.2234 229.394 66.1806L229.417 65.9792C229.791 66.0219 230.165 66.0567 230.538 66.084L230.523 66.2862ZM228.268 66.0304C227.896 65.9732 227.524 65.9085 227.151 65.8362L227.19 65.6374C227.56 65.7091 227.93 65.7734 228.299 65.8302L228.268 66.0304ZM226.043 65.5986C225.859 65.5554 225.675 65.5102 225.49 65.4631L225.54 65.2668C225.723 65.3135 225.906 65.3585 226.089 65.4014L226.043 65.5986Z" fill="#989EBA" fill-opacity="0.3"/>
</g>
<g style="mix-blend-mode:screen">
<path fill-rule="evenodd" clip-rule="evenodd" d="M213.655 112.587L213.722 112.662C193.13 130.879 167.312 141.868 137.623 142.248L137.578 142.249L137.561 142.249C137.556 142.249 137.551 142.249 137.545 142.249C137.54 142.249 137.535 142.25 137.529 142.25L137.513 142.25L137.42 142.251C107.749 142.582 80.4934 132.039 59.4763 114.339L59.5414 114.262L59.6952 114.059L135.85 13.1712L135.852 13.1675L135.478 -17.6793L135.68 -17.6818L136.054 13.1033L136.105 13.1681L213.497 112.387L213.655 112.587ZM136.975 142.053C136.597 142.056 136.22 142.057 135.843 142.057L135.844 142.019C135.466 142.002 135.09 141.978 134.715 141.946L134.707 142.049C106.18 141.73 80.023 131.345 59.6961 114.261L59.7969 114.259L137.069 113.317L137.418 142.049C137.27 142.05 137.122 142.05 136.975 142.049L136.975 142.053ZM137.62 142.047L137.271 113.315L213.4 112.59L213.501 112.589C193.595 130.164 168.889 140.965 140.378 141.98L140.367 141.877C139.993 141.918 139.618 141.952 139.24 141.978L139.243 142.015C138.866 142.025 138.489 142.033 138.111 142.04L138.111 142.035C137.948 142.041 137.784 142.044 137.62 142.047ZM59.9506 114.056L137.066 113.116L135.856 13.4975L59.9506 114.056ZM137.269 113.113L136.058 13.4333L213.241 112.39L137.269 113.113ZM166.213 112.962C166.215 113.152 166.215 113.342 166.214 113.532L166.011 113.531C166.013 113.342 166.013 113.153 166.01 112.964L166.213 112.962ZM166.184 114.667C166.166 115.046 166.141 115.424 166.109 115.8L165.908 115.783C165.939 115.41 165.964 115.035 165.982 114.657L166.184 114.667ZM165.99 116.932C165.943 117.309 165.888 117.684 165.827 118.056L165.627 118.023C165.688 117.653 165.743 117.281 165.79 116.907L165.99 116.932ZM165.619 119.173C165.543 119.545 165.459 119.914 165.368 120.281L165.171 120.232C165.262 119.868 165.345 119.502 165.421 119.133L165.619 119.173ZM165.072 121.379C164.966 121.744 164.853 122.105 164.733 122.464L164.541 122.4C164.66 122.044 164.773 121.685 164.878 121.323L165.072 121.379ZM164.352 123.535C164.217 123.89 164.076 124.241 163.928 124.59L163.742 124.511C163.889 124.165 164.029 123.816 164.162 123.464L164.352 123.535ZM163.463 125.627C163.3 125.97 163.132 126.31 162.957 126.645L162.777 126.552C162.951 126.219 163.119 125.882 163.28 125.541L163.463 125.627ZM162.411 127.643C162.222 127.972 162.027 128.298 161.826 128.619L161.655 128.512C161.854 128.193 162.048 127.87 162.235 127.543L162.411 127.643ZM161.204 129.571C160.99 129.884 160.77 130.193 160.545 130.497L160.382 130.378C160.606 130.075 160.824 129.768 161.037 129.457L161.204 129.571ZM159.849 131.398C159.612 131.694 159.368 131.985 159.119 132.271L158.967 132.138C159.214 131.854 159.455 131.565 159.692 131.272L159.849 131.398ZM158.356 133.114C158.096 133.39 157.83 133.662 157.56 133.927L157.418 133.784C157.686 133.52 157.95 133.251 158.208 132.976L158.356 133.114ZM156.732 134.709C156.452 134.964 156.166 135.214 155.875 135.458L155.745 135.304C156.033 135.061 156.317 134.813 156.596 134.56L156.732 134.709ZM154.989 136.173C154.689 136.405 154.385 136.632 154.076 136.853L153.958 136.689C154.265 136.47 154.567 136.245 154.865 136.014L154.989 136.173ZM153.137 137.496C152.82 137.705 152.498 137.907 152.173 138.103L152.068 137.93C152.392 137.736 152.711 137.535 153.025 137.328L153.137 137.496ZM151.186 138.671C150.853 138.854 150.517 139.03 150.177 139.2L150.086 139.02C150.424 138.851 150.758 138.676 151.088 138.495L151.186 138.671ZM149.148 139.689C148.803 139.845 148.454 139.995 148.101 140.137L148.025 139.95C148.375 139.809 148.722 139.66 149.065 139.505L149.148 139.689ZM147.037 140.544C146.68 140.672 146.32 140.793 145.957 140.908L145.896 140.716C146.256 140.602 146.614 140.481 146.968 140.354L147.037 140.544ZM144.863 141.229C144.498 141.329 144.13 141.421 143.759 141.507L143.713 141.311C144.081 141.226 144.447 141.134 144.81 141.035L144.863 141.229ZM142.644 141.741C142.272 141.812 141.897 141.875 141.52 141.931L141.49 141.732C141.865 141.676 142.237 141.613 142.606 141.543L142.644 141.741ZM133.564 142.028C133.186 141.981 132.81 141.927 132.436 141.866L132.469 141.667C132.84 141.728 133.213 141.782 133.589 141.828L133.564 142.028ZM131.316 141.659C130.943 141.582 130.572 141.499 130.205 141.408L130.254 141.212C130.619 141.302 130.986 141.385 131.357 141.461L131.316 141.659ZM129.104 141.113C128.738 141.008 128.375 140.895 128.015 140.776L128.079 140.584C128.436 140.703 128.797 140.815 129.16 140.92L129.104 141.113ZM126.941 140.395C126.585 140.261 126.233 140.12 125.884 139.973L125.963 139.787C126.309 139.934 126.659 140.073 127.013 140.207L126.941 140.395ZM124.844 139.509C124.499 139.348 124.159 139.179 123.822 139.005L123.915 138.826C124.25 138.999 124.588 139.166 124.93 139.327L124.844 139.509ZM122.821 138.461C122.491 138.273 122.165 138.078 121.843 137.878L121.95 137.707C122.27 137.906 122.594 138.099 122.922 138.286L122.821 138.461ZM120.888 137.257C120.574 137.044 120.264 136.825 119.959 136.6L120.079 136.438C120.383 136.661 120.69 136.879 121.002 137.091L120.888 137.257ZM119.056 135.907C118.76 135.67 118.468 135.427 118.181 135.179L118.313 135.027C118.598 135.273 118.888 135.514 119.182 135.75L119.056 135.907ZM117.335 134.418C117.058 134.159 116.786 133.894 116.519 133.624L116.663 133.483C116.928 133.751 117.198 134.013 117.473 134.271L117.335 134.418ZM115.735 132.8C115.48 132.52 115.229 132.235 114.984 131.945L115.139 131.815C115.382 132.103 115.631 132.386 115.885 132.664L115.735 132.8ZM114.268 131.062C114.034 130.763 113.807 130.459 113.586 130.151L113.75 130.034C113.97 130.34 114.196 130.641 114.427 130.938L114.268 131.062ZM112.94 129.215C112.732 128.899 112.529 128.578 112.332 128.254L112.505 128.149C112.701 128.472 112.902 128.79 113.109 129.104L112.94 129.215ZM111.762 127.269C111.579 126.938 111.402 126.603 111.232 126.264L111.413 126.173C111.582 126.51 111.758 126.843 111.94 127.172L111.762 127.269ZM110.742 125.238C110.585 124.894 110.436 124.546 110.292 124.194L110.48 124.118C110.622 124.467 110.771 124.813 110.926 125.155L110.742 125.238ZM109.885 123.133C109.756 122.777 109.635 122.418 109.52 122.056L109.713 121.995C109.827 122.355 109.948 122.711 110.075 123.064L109.885 123.133ZM109.198 120.966C109.098 120.601 109.005 120.234 108.919 119.864L109.116 119.819C109.202 120.186 109.294 120.551 109.393 120.912L109.198 120.966ZM108.685 118.753C108.614 118.382 108.55 118.008 108.494 117.632L108.694 117.603C108.75 117.976 108.813 118.347 108.883 118.715L108.685 118.753ZM108.348 116.505C108.306 116.13 108.272 115.752 108.246 115.373L108.447 115.359C108.474 115.736 108.508 116.11 108.549 116.483L108.348 116.505ZM108.188 114.239C108.182 114.05 108.178 113.86 108.175 113.669L108.378 113.667C108.38 113.856 108.384 114.045 108.39 114.233L108.188 114.239Z" fill="#989EBA" fill-opacity="0.3"/>
</g>
<g style="mix-blend-mode:screen">
<path fill-rule="evenodd" clip-rule="evenodd" d="M59.7388 114.404L59.6836 114.488C36.7907 99.2752 19.707 76.6608 11.6556 48.0272L11.6435 47.9842L11.639 47.9682C11.6376 47.963 11.6361 47.958 11.6347 47.9527C11.6333 47.9477 11.6318 47.9424 11.6304 47.9374L11.6258 47.9212L11.6009 47.8321C3.60188 19.2034 6.71204 -9.90167 18.3374 -34.8221L18.4283 -34.7789L18.6643 -34.6828L135.641 12.9039L135.645 12.9055L165.288 4.55919L165.343 4.75426L135.759 13.0839L135.71 13.1503L59.8903 114.199L59.7388 114.404ZM11.6761 47.3501C11.5756 46.9852 11.4768 46.6202 11.3799 46.2553L11.4162 46.2472C11.3349 45.8767 11.2612 45.5061 11.1949 45.1355L11.093 45.1539C4.01762 17.4646 7.25954 -10.5365 18.4702 -34.6297L18.4974 -34.5325L39.4052 40.0034L11.7949 47.7775C11.7555 47.6348 11.7172 47.4918 11.68 47.3489L11.6761 47.3501ZM11.8494 47.9726L39.4599 40.1985L59.6697 114.157L59.6969 114.255C37.6004 99.5395 20.985 77.9531 12.6276 50.6247L12.7241 50.587C12.588 50.236 12.4582 49.8812 12.3349 49.5226L12.2998 49.5347C12.1928 49.1725 12.0873 48.8096 11.9834 48.4457L11.9873 48.4444C11.9402 48.2879 11.8942 48.1306 11.8494 47.9726ZM18.7335 -34.4364L39.599 39.9488L135.328 12.9948L18.7335 -34.4364ZM39.6537 40.1439L135.442 13.1732L59.8212 113.952L39.6537 40.1439ZM47.2907 68.1151C47.1078 68.1666 46.9247 68.2161 46.7413 68.2639L46.6904 68.0678C46.8723 68.0204 47.0543 67.9712 47.236 67.9201L47.2907 68.1151ZM45.6394 68.5286C45.2688 68.6097 44.898 68.6835 44.5273 68.7497L44.4916 68.5503C44.8596 68.4846 45.228 68.4112 45.5961 68.3305L45.6394 68.5286ZM43.4059 68.9274C43.0302 68.9793 42.6544 69.0235 42.2794 69.0604L42.2594 68.8588C42.632 68.8222 43.0048 68.7783 43.3781 68.7268L43.4059 68.9274ZM41.1488 69.1486C40.7704 69.1707 40.3927 69.1851 40.0157 69.1918L40.0116 68.9894C40.3858 68.9824 40.761 68.9683 41.1366 68.9465L41.1488 69.1486ZM38.8807 69.1898C38.5016 69.1817 38.1235 69.166 37.7466 69.1428L37.7584 68.9406C38.1326 68.9638 38.5081 68.9794 38.8846 68.9875L38.8807 69.1898ZM36.6154 69.0507C36.2384 69.0123 35.8628 68.9666 35.4889 68.9137L35.5165 68.713C35.8878 68.7658 36.2608 68.8112 36.6351 68.8491L36.6154 69.0507ZM34.3686 68.7319C33.9957 68.6638 33.6247 68.5884 33.2557 68.5058L33.299 68.3081C33.6654 68.3902 34.0338 68.465 34.404 68.5326L34.3686 68.7319ZM32.1524 68.236C31.7862 68.1387 31.4221 68.0341 31.0606 67.9228L31.1191 67.7291C31.4782 67.8398 31.8397 67.9436 32.2033 68.0401L32.1524 68.236ZM29.9817 67.5666C29.6243 67.4408 29.2695 67.3081 28.9176 67.1686L28.991 66.9802C29.3405 67.1188 29.6929 67.2507 30.0478 67.3756L29.9817 67.5666ZM27.8695 66.7287C27.5229 66.5753 27.1793 66.415 26.8391 66.248L26.927 66.0661C27.2648 66.2317 27.606 66.3909 27.9502 66.5434L27.8695 66.7287ZM25.8281 65.7276C25.4945 65.5474 25.1644 65.3606 24.838 65.1676L24.9398 64.9931C25.2639 65.1847 25.5917 65.3701 25.923 65.5491L25.8281 65.7276ZM23.8703 64.5693C23.5517 64.3638 23.237 64.1517 22.9264 63.9336L23.0413 63.7676C23.3498 63.9842 23.6623 64.1948 23.9787 64.3989L23.8703 64.5693ZM22.0078 63.2612C21.7062 63.0313 21.4089 62.7954 21.116 62.5535L21.2436 62.397C21.5343 62.6371 21.8296 62.8716 22.1291 63.0998L22.0078 63.2612ZM20.2524 61.8112C19.9696 61.5583 19.6915 61.2996 19.4182 61.0352L19.5576 60.8895C19.829 61.1519 20.1052 61.4088 20.3859 61.6598L20.2524 61.8112ZM18.6149 60.2271C18.3526 59.9526 18.0955 59.6728 17.8436 59.3877L17.994 59.2534C18.2441 59.5364 18.4995 59.8144 18.7598 60.0868L18.6149 60.2271ZM17.1061 58.5188C16.8664 58.2248 16.6319 57.9255 16.4031 57.6213L16.5636 57.4994C16.7908 57.8015 17.0236 58.0986 17.2616 58.3905L17.1061 58.5188ZM15.7358 56.6965C15.5198 56.3843 15.3095 56.0674 15.1051 55.7457L15.2747 55.6369C15.4777 55.9564 15.6865 56.2712 15.9009 56.581L15.7358 56.6965ZM14.5122 54.7704C14.3217 54.4427 14.1371 54.1104 13.9586 53.7737L14.1362 53.6786C14.3134 54.013 14.4968 54.3432 14.686 54.6686L14.5122 54.7704ZM13.4444 52.7553C13.28 52.4133 13.1219 52.0673 12.9701 51.7169L13.1547 51.6364C13.3054 51.9842 13.4624 52.328 13.6256 52.6674L13.4444 52.7553ZM10.8174 44.0426C10.7648 43.6643 10.7199 43.2864 10.6824 42.9089L10.8827 42.8891C10.9199 43.264 10.9646 43.6394 11.0168 44.015L10.8174 44.0426ZM10.5919 41.7713C10.5691 41.3905 10.5538 41.0104 10.5461 40.6313L10.7474 40.6277C10.7551 41.0042 10.7702 41.3815 10.7928 41.7595L10.5919 41.7713ZM10.5451 39.4895C10.5523 39.1081 10.567 38.7278 10.5891 38.3485L10.7901 38.361C10.7681 38.7374 10.7535 39.115 10.7464 39.4939L10.5451 39.4895ZM10.6779 37.2109C10.715 36.8318 10.7595 36.4539 10.8113 36.0779L11.0108 36.1062C10.9593 36.4796 10.9151 36.8548 10.8783 37.2312L10.6779 37.2109ZM10.9891 34.9515C11.0558 34.5764 11.1298 34.2034 11.211 33.8325L11.4076 33.8763C11.327 34.2448 11.2536 34.6153 11.1873 34.9877L10.9891 34.9515ZM11.4765 32.7231C11.5723 32.3548 11.6752 31.9889 11.7852 31.6256L11.9778 31.685C11.8687 32.046 11.7664 32.4092 11.6713 32.775L11.4765 32.7231ZM12.1364 30.5411C12.2605 30.1817 12.3916 29.8251 12.5296 29.4715L12.717 29.546C12.5801 29.8973 12.4499 30.2513 12.3266 30.6081L12.1364 30.5411ZM12.9641 28.4183C13.1158 28.0701 13.2743 27.7248 13.4393 27.3829L13.6204 27.4718C13.4566 27.8113 13.2992 28.154 13.1485 28.4999L12.9641 28.4183ZM13.9543 26.3671C14.1325 26.032 14.3172 25.7005 14.5083 25.3726L14.6821 25.4754C14.4923 25.8009 14.3088 26.1302 14.1318 26.4629L13.9543 26.3671ZM15.1006 24.4005C15.3042 24.0804 15.5142 23.7644 15.7302 23.4524L15.8955 23.5684C15.6809 23.8782 15.4725 24.1922 15.2702 24.5099L15.1006 24.4005ZM16.3962 22.5301C16.624 22.2272 16.8579 21.9287 17.0976 21.6348L17.2534 21.7635C17.0153 22.0554 16.7831 22.3519 16.5569 22.6526L16.3962 22.5301ZM17.8333 20.7678C18.084 20.484 18.3404 20.2049 18.6025 19.9307L18.7478 20.0711C18.4876 20.3435 18.2329 20.6206 17.984 20.9024L17.8333 20.7678ZM19.4039 19.1243C19.6759 18.8612 19.9534 18.6033 20.2363 18.3505L20.3702 18.5022C20.0893 18.7531 19.8137 19.0092 19.5436 19.2705L19.4039 19.1243ZM21.0981 17.6109C21.3898 17.3703 21.6866 17.1353 21.9885 16.9058L22.1101 17.0676C21.8103 17.2955 21.5156 17.5289 21.226 17.7676L21.0981 17.6109ZM22.9061 16.2367C23.2158 16.0202 23.5304 15.8095 23.8497 15.6047L23.9583 15.7756C23.6412 15.979 23.3288 16.1883 23.0213 16.4032L22.9061 16.2367ZM24.8176 15.0107C25.1429 14.8199 25.4728 14.635 25.8072 14.4564L25.902 14.6353C25.57 14.8127 25.2424 14.9962 24.9194 15.1858L24.8176 15.0107ZM26.8182 13.9414C27.1575 13.7771 27.5013 13.6187 27.8492 13.4669L27.9295 13.653C27.5841 13.8036 27.243 13.9607 26.906 14.1241L26.8182 13.9414ZM28.8986 13.0334C29.2494 12.8965 29.6043 12.7659 29.9629 12.642L30.0288 12.8334C29.6726 12.9566 29.3201 13.0863 28.9718 13.2222L28.8986 13.0334ZM31.0412 12.2925C31.2224 12.2376 31.4045 12.1845 31.5874 12.1331L31.6421 12.3281C31.4604 12.3793 31.2795 12.4321 31.0995 12.4866L31.0412 12.2925Z" fill="#989EBA" fill-opacity="0.3"/>
</g>
<path d="M244.35 22.6133H256.32C257.579 22.6133 258.6 23.6341 258.6 24.8933V65.9333C258.6 67.1925 257.579 68.2133 256.32 68.2133H215.28C214.021 68.2133 213 67.1925 213 65.9333V53.9633C217.722 53.9629 221.549 50.1351 221.549 45.4133C221.549 40.6915 217.722 36.8637 213 36.8633V24.8933C213 23.6341 214.021 22.6133 215.28 22.6133H227.25C227.25 17.8912 231.078 14.0625 235.8 14.0625C240.522 14.0625 244.35 17.8912 244.35 22.6133Z" fill="black" fill-opacity="0.5"/>
<path d="M213 53.4883L212.525 53.4883V53.9633V65.9333C212.525 67.4548 213.758 68.6883 215.28 68.6883H256.32C257.842 68.6883 259.075 67.4548 259.075 65.9333V24.8933C259.075 23.3717 257.842 22.1383 256.32 22.1383H244.813C244.566 17.3747 240.625 13.5875 235.8 13.5875C230.975 13.5875 227.034 17.3747 226.787 22.1383H215.28C213.758 22.1383 212.525 23.3717 212.525 24.8933V36.8633V37.3382L213 37.3383C217.459 37.3387 221.074 40.9538 221.074 45.4133C221.074 49.8727 217.459 53.4879 213 53.4883Z" stroke="url(#paint0_linear_3327_33650)" stroke-opacity="0.6" stroke-width="0.95"/>
<path fill-rule="evenodd" clip-rule="evenodd" d="M214.344 36.9685H213.188V38.0605H217.365C216.454 37.5182 215.433 37.1405 214.344 36.9685ZM218.307 38.71L214.644 47.0625H215.932L219.162 39.4869C218.895 39.2093 218.609 38.9496 218.307 38.71ZM221.329 43.4782C221.249 43.7417 221.209 44.0265 221.209 44.3325C221.209 44.8567 221.32 45.3252 221.543 45.7379C221.547 45.6302 221.549 45.522 221.549 45.4133C221.549 44.7477 221.473 44.1 221.329 43.4782ZM105.359 37.7945C106.432 37.7945 107.072 38.3125 107.277 39.3485H108.453C108.36 38.5925 108.052 37.9671 107.529 37.4725C107.006 36.9778 106.288 36.7305 105.373 36.7305C102.984 36.7305 101.789 38.4431 101.789 41.8685C101.789 42.9791 101.896 43.9125 102.111 44.6685C102.326 45.4245 102.704 46.0171 103.245 46.4465C103.786 46.8758 104.538 47.0905 105.499 47.0905C106.208 47.0905 106.81 46.9411 107.305 46.6425C107.809 46.3438 108.182 45.9425 108.425 45.4385C108.677 44.9345 108.803 44.3651 108.803 43.7305C108.803 42.6758 108.514 41.8498 107.935 41.2525C107.366 40.6551 106.6 40.3565 105.639 40.3565C105.023 40.3565 104.463 40.4965 103.959 40.7765C103.464 41.0471 103.11 41.4251 102.895 41.9105C102.886 40.4451 103.086 39.3951 103.497 38.7605C103.908 38.1165 104.528 37.7945 105.359 37.7945ZM104.239 41.6865C104.594 41.5185 104.972 41.4345 105.373 41.4345C106.092 41.4345 106.638 41.6445 107.011 42.0645C107.384 42.4751 107.571 43.0445 107.571 43.7725C107.571 44.4631 107.375 45.0138 106.983 45.4245C106.6 45.8258 106.082 46.0265 105.429 46.0265C104.664 46.0265 104.076 45.8071 103.665 45.3685C103.254 44.9205 103.049 44.3418 103.049 43.6325C103.049 43.1565 103.156 42.7551 103.371 42.4285C103.595 42.0925 103.884 41.8451 104.239 41.6865ZM59.5928 45.5785C59.2568 45.2891 59.0422 44.8785 58.9488 44.3465H57.7728C57.8475 45.1398 58.1508 45.7931 58.6828 46.3065C59.2148 46.8198 59.9568 47.0765 60.9088 47.0765C61.7768 47.0765 62.4582 46.8758 62.9528 46.4745C63.4568 46.0731 63.8115 45.4898 64.0168 44.7245C64.2315 43.9591 64.3388 42.9885 64.3388 41.8125C64.3388 40.1325 64.0728 38.8678 63.5408 38.0185C63.0182 37.1691 62.1035 36.7445 60.7968 36.7445C59.7328 36.7445 58.9115 37.0525 58.3328 37.6685C57.7542 38.2751 57.4648 39.0778 57.4648 40.0765C57.4648 40.7765 57.6048 41.3738 57.8848 41.8685C58.1648 42.3631 58.5475 42.7411 59.0328 43.0025C59.5275 43.2545 60.0875 43.3805 60.7128 43.3805C61.2728 43.3805 61.7815 43.2638 62.2388 43.0305C62.6962 42.7878 63.0228 42.4565 63.2188 42.0365C63.2375 43.4738 63.0602 44.4958 62.6868 45.1025C62.3228 45.7091 61.7535 46.0125 60.9788 46.0125C60.4002 46.0125 59.9382 45.8678 59.5928 45.5785ZM62.4628 41.7285C62.0615 42.1111 61.5482 42.3025 60.9228 42.3025C60.1948 42.3025 59.6395 42.0971 59.2568 41.6865C58.8742 41.2758 58.6828 40.7298 58.6828 40.0485C58.6828 39.3765 58.8742 38.8351 59.2568 38.4245C59.6488 38.0138 60.1715 37.8085 60.8248 37.8085C61.5342 37.8085 62.0848 38.0231 62.4768 38.4525C62.8688 38.8818 63.0648 39.4465 63.0648 40.1465C63.0648 40.8091 62.8642 41.3365 62.4628 41.7285ZM66.7732 40.9025C67.0532 41.2945 67.4545 41.5931 67.9772 41.7985C67.3985 41.9665 66.9412 42.2745 66.6052 42.7225C66.2692 43.1705 66.1012 43.7071 66.1012 44.3325C66.1012 44.9391 66.2505 45.4711 66.5492 45.9285C66.8479 46.3765 67.2632 46.7265 67.7952 46.9785C68.3365 47.2211 68.9619 47.3425 69.6712 47.3425C70.3805 47.3425 71.0059 47.2211 71.5472 46.9785C72.0979 46.7265 72.5225 46.3765 72.8212 45.9285C73.1199 45.4711 73.2692 44.9391 73.2692 44.3325C73.2692 43.7071 73.0965 43.1751 72.7512 42.7365C72.4152 42.2885 71.9579 41.9758 71.3792 41.7985C71.8832 41.6025 72.2799 41.3038 72.5692 40.9025C72.8585 40.4918 73.0032 40.0158 73.0032 39.4745C73.0032 38.9705 72.8725 38.5178 72.6112 38.1165C72.3592 37.7058 71.9812 37.3838 71.4772 37.1505C70.9825 36.9078 70.3805 36.7865 69.6712 36.7865C68.9619 36.7865 68.3552 36.9078 67.8512 37.1505C67.3565 37.3838 66.9832 37.7058 66.7312 38.1165C66.4792 38.5178 66.3532 38.9705 66.3532 39.4745C66.3532 40.0345 66.4932 40.5105 66.7732 40.9025ZM71.2112 38.3125C71.5845 38.6205 71.7712 39.0591 71.7712 39.6285C71.7712 40.1511 71.5752 40.5758 71.1832 40.9025C70.8005 41.2198 70.2965 41.3785 69.6712 41.3785C69.0552 41.3785 68.5512 41.2198 68.1592 40.9025C67.7765 40.5851 67.5852 40.1651 67.5852 39.6425C67.5852 39.0638 67.7719 38.6205 68.1452 38.3125C68.5185 38.0045 69.0272 37.8505 69.6712 37.8505C70.3245 37.8505 70.8379 38.0045 71.2112 38.3125ZM67.9772 42.8485C68.4159 42.5218 68.9805 42.3585 69.6712 42.3585C70.3712 42.3585 70.9359 42.5265 71.3652 42.8625C71.7945 43.1891 72.0092 43.6651 72.0092 44.2905C72.0092 44.8878 71.7992 45.3685 71.3792 45.7325C70.9592 46.0965 70.3899 46.2785 69.6712 46.2785C68.9525 46.2785 68.3785 46.0965 67.9492 45.7325C67.5292 45.3685 67.3192 44.8878 67.3192 44.2905C67.3192 43.6465 67.5385 43.1658 67.9772 42.8485ZM81.1912 37.9345L77.2992 47.0625H76.0112L79.9592 38.0605H74.5552V36.9685H81.1912V37.9345ZM82.9818 39.6145C82.5525 40.3705 82.3378 41.2245 82.3378 42.1765C82.3378 43.1285 82.5525 43.9825 82.9818 44.7385C83.4111 45.4945 83.9945 46.0871 84.7318 46.5165C85.4785 46.9365 86.3045 47.1465 87.2098 47.1465C88.2738 47.1465 89.2025 46.8945 89.9958 46.3905C90.7891 45.8771 91.3678 45.1538 91.7318 44.2205H90.2058C89.9351 44.8085 89.5431 45.2611 89.0298 45.5785C88.5258 45.8865 87.9191 46.0405 87.2098 46.0405C86.5285 46.0405 85.9171 45.8818 85.3758 45.5645C84.8345 45.2471 84.4098 44.7991 84.1018 44.2205C83.7938 43.6325 83.6398 42.9511 83.6398 42.1765C83.6398 41.3925 83.7938 40.7111 84.1018 40.1325C84.4098 39.5445 84.8345 39.0918 85.3758 38.7745C85.9171 38.4571 86.5285 38.2985 87.2098 38.2985C87.9191 38.2985 88.5258 38.4571 89.0298 38.7745C89.5431 39.0918 89.9351 39.5445 90.2058 40.1325H91.7318C91.3678 39.1898 90.7891 38.4618 89.9958 37.9485C89.2025 37.4351 88.2738 37.1785 87.2098 37.1785C86.3045 37.1785 85.4785 37.3931 84.7318 37.8225C83.9945 38.2518 83.4111 38.8491 82.9818 39.6145ZM96.7223 47.1605C96.0783 47.1605 95.4996 47.0485 94.9863 46.8245C94.4823 46.5911 94.0856 46.2738 93.7963 45.8725C93.5069 45.4618 93.3576 44.9905 93.3483 44.4585H94.7063C94.7529 44.9158 94.9396 45.3031 95.2663 45.6205C95.6023 45.9285 96.0876 46.0825 96.7223 46.0825C97.3289 46.0825 97.8049 45.9331 98.1503 45.6345C98.5049 45.3265 98.6823 44.9345 98.6823 44.4585C98.6823 44.0851 98.5796 43.7818 98.3743 43.5485C98.1689 43.3151 97.9123 43.1378 97.6043 43.0165C97.2963 42.8951 96.8809 42.7645 96.3583 42.6245C95.7143 42.4565 95.1963 42.2885 94.8043 42.1205C94.4216 41.9525 94.0903 41.6911 93.8103 41.3365C93.5396 40.9725 93.4043 40.4871 93.4043 39.8805C93.4043 39.3485 93.5396 38.8771 93.8103 38.4665C94.0809 38.0558 94.4589 37.7385 94.9443 37.5145C95.4389 37.2905 96.0036 37.1785 96.6383 37.1785C97.5529 37.1785 98.2996 37.4071 98.8783 37.8645C99.4663 38.3218 99.7976 38.9285 99.8723 39.6845H98.4723C98.4256 39.3111 98.2296 38.9845 97.8843 38.7045C97.5389 38.4151 97.0816 38.2705 96.5123 38.2705C95.9803 38.2705 95.5463 38.4105 95.2103 38.6905C94.8743 38.9611 94.7063 39.3438 94.7063 39.8385C94.7063 40.1931 94.8043 40.4825 95.0003 40.7065C95.2056 40.9305 95.4529 41.1031 95.7423 41.2245C96.0409 41.3365 96.4563 41.4671 96.9883 41.6165C97.6323 41.7938 98.1503 41.9711 98.5423 42.1485C98.9343 42.3165 99.2703 42.5825 99.5503 42.9465C99.8303 43.3011 99.9703 43.7865 99.9703 44.4025C99.9703 44.8785 99.8443 45.3265 99.5923 45.7465C99.3403 46.1665 98.9669 46.5071 98.4723 46.7685C97.9776 47.0298 97.3943 47.1605 96.7223 47.1605ZM116.976 38.0465H112.062V41.2385C112.276 40.9398 112.594 40.6971 113.014 40.5105C113.434 40.3145 113.886 40.2165 114.372 40.2165C115.146 40.2165 115.776 40.3798 116.262 40.7065C116.747 41.0238 117.092 41.4391 117.298 41.9525C117.512 42.4565 117.62 42.9931 117.62 43.5625C117.62 44.2345 117.494 44.8365 117.242 45.3685C116.99 45.9005 116.602 46.3205 116.08 46.6285C115.566 46.9365 114.927 47.0905 114.162 47.0905C113.182 47.0905 112.388 46.8385 111.782 46.3345C111.175 45.8305 110.806 45.1585 110.676 44.3185H111.922C112.043 44.8505 112.3 45.2658 112.692 45.5645C113.084 45.8631 113.578 46.0125 114.176 46.0125C114.913 46.0125 115.468 45.7931 115.842 45.3545C116.215 44.9065 116.402 44.3185 116.402 43.5905C116.402 42.8625 116.215 42.3025 115.842 41.9105C115.468 41.5091 114.918 41.3085 114.19 41.3085C113.695 41.3085 113.261 41.4298 112.888 41.6725C112.524 41.9058 112.258 42.2278 112.09 42.6385H110.886V36.9265H116.976V38.0465ZM119.005 43.8425V44.8085H124.185V47.0625H125.445V44.8085H126.845V43.7025H125.445V37.0385H123.919L119.005 43.8425ZM120.475 43.7025L124.241 38.3685V43.7025H120.475ZM134.571 38.0465H129.657V41.2385C129.872 40.9398 130.189 40.6971 130.609 40.5105C131.029 40.3145 131.482 40.2165 131.967 40.2165C132.742 40.2165 133.372 40.3798 133.857 40.7065C134.343 41.0238 134.688 41.4391 134.893 41.9525C135.108 42.4565 135.215 42.9931 135.215 43.5625C135.215 44.2345 135.089 44.8365 134.837 45.3685C134.585 45.9005 134.198 46.3205 133.675 46.6285C133.162 46.9365 132.523 47.0905 131.757 47.0905C130.777 47.0905 129.984 46.8385 129.377 46.3345C128.771 45.8305 128.402 45.1585 128.271 44.3185H129.517C129.639 44.8505 129.895 45.2658 130.287 45.5645C130.679 45.8631 131.174 46.0125 131.771 46.0125C132.509 46.0125 133.064 45.7931 133.437 45.3545C133.811 44.9065 133.997 44.3185 133.997 43.5905C133.997 42.8625 133.811 42.3025 133.437 41.9105C133.064 41.5091 132.513 41.3085 131.785 41.3085C131.291 41.3085 130.857 41.4298 130.483 41.6725C130.119 41.9058 129.853 42.2278 129.685 42.6385H128.481V36.9265H134.571V38.0465ZM140.632 37.7945C141.706 37.7945 142.345 38.3125 142.55 39.3485H143.727C143.633 38.5925 143.325 37.9671 142.802 37.4725C142.28 36.9778 141.561 36.7305 140.646 36.7305C138.257 36.7305 137.062 38.4431 137.062 41.8685C137.062 42.9791 137.17 43.9125 137.384 44.6685C137.599 45.4245 137.977 46.0171 138.519 46.4465C139.06 46.8758 139.811 47.0905 140.772 47.0905C141.482 47.0905 142.084 46.9411 142.578 46.6425C143.082 46.3438 143.456 45.9425 143.699 45.4385C143.951 44.9345 144.076 44.3651 144.076 43.7305C144.076 42.6758 143.787 41.8498 143.209 41.2525C142.639 40.6551 141.874 40.3565 140.912 40.3565C140.297 40.3565 139.736 40.4965 139.232 40.7765C138.738 41.0471 138.383 41.4251 138.169 41.9105C138.159 40.4451 138.36 39.3951 138.771 38.7605C139.181 38.1165 139.802 37.7945 140.632 37.7945ZM139.512 41.6865C139.867 41.5185 140.245 41.4345 140.646 41.4345C141.365 41.4345 141.911 41.6445 142.285 42.0645C142.658 42.4751 142.844 43.0445 142.844 43.7725C142.844 44.4631 142.648 45.0138 142.257 45.4245C141.874 45.8258 141.356 46.0265 140.702 46.0265C139.937 46.0265 139.349 45.8071 138.938 45.3685C138.528 44.9205 138.323 44.3418 138.323 43.6325C138.323 43.1565 138.43 42.7551 138.645 42.4285C138.868 42.0925 139.158 41.8451 139.512 41.6865ZM146.439 47.0625H145.109L147.587 43.2545L145.109 39.3905H146.551L148.371 42.2325L150.107 39.3905H151.437L148.973 43.1845L151.451 47.0625H150.009L148.189 44.2065L146.439 47.0625ZM160.53 47.0625L162.924 39.3905H161.664L159.928 45.8445L158.066 39.3905H156.764L154.86 45.8305L153.096 39.3905H151.794L154.202 47.0625H155.518L157.366 40.9725L159.214 47.0625H160.53ZM174.409 39.3905L172.015 47.0625H170.699L168.851 40.9725L167.003 47.0625H165.687L163.279 39.3905H164.581L166.345 45.8305L168.249 39.3905H169.551L171.413 45.8445L173.149 39.3905H174.409ZM175.841 39.6145C175.412 40.3705 175.197 41.2245 175.197 42.1765C175.197 43.1285 175.412 43.9825 175.841 44.7385C176.271 45.4945 176.854 46.0871 177.591 46.5165C178.338 46.9365 179.164 47.1465 180.069 47.1465C181.133 47.1465 182.062 46.8945 182.855 46.3905C183.649 45.8771 184.227 45.1538 184.591 44.2205H183.065C182.795 44.8085 182.403 45.2611 181.889 45.5785C181.385 45.8865 180.779 46.0405 180.069 46.0405C179.388 46.0405 178.777 45.8818 178.235 45.5645C177.694 45.2471 177.269 44.7991 176.961 44.2205C176.653 43.6325 176.499 42.9511 176.499 42.1765C176.499 41.3925 176.653 40.7111 176.961 40.1325C177.269 39.5445 177.694 39.0918 178.235 38.7745C178.777 38.4571 179.388 38.2985 180.069 38.2985C180.779 38.2985 181.385 38.4571 181.889 38.7745C182.403 39.0918 182.795 39.5445 183.065 40.1325H184.591C184.227 39.1898 183.649 38.4618 182.855 37.9485C182.062 37.4351 181.133 37.1785 180.069 37.1785C179.164 37.1785 178.338 37.3931 177.591 37.8225C176.854 38.2518 176.271 38.8491 175.841 39.6145ZM198.752 37.3045L195.924 47.0625H194.496L192.228 39.2085L189.876 47.0625L188.462 47.0765L185.732 37.3045H187.09L189.218 45.5785L191.57 37.3045H192.998L195.238 45.5505L197.38 37.3045H198.752ZM209.582 47.0625L212.41 37.3045H211.038L208.896 45.5505L206.656 37.3045H205.228L202.876 45.5785L200.748 37.3045H199.39L202.12 47.0765L203.534 47.0625L205.886 39.2085L208.154 47.0625H209.582Z" fill="#C4CBF5"/>
</g>
</g>
<defs>
<linearGradient id="paint0_linear_3327_33650" x1="235.8" y1="69.9344" x2="235.8" y2="125.212" gradientUnits="userSpaceOnUse">
<stop stop-color="white" stop-opacity="0"/>
<stop offset="1" stop-color="white"/>
</linearGradient>
<clipPath id="clip0_3327_33650">
<rect y="0.0625" width="272" height="83" rx="20" fill="white"/>
</clipPath>
<clipPath id="clip1_3327_33650">
<rect y="0.0625" width="272" height="83" rx="16" fill="white"/>
</clipPath>
</defs>
</svg>
