<svg width="32" height="32" viewBox="0 0 32 32" fill="none" xmlns="http://www.w3.org/2000/svg">
<path d="M31.5177 19.8705C29.3808 28.442 20.6992 33.6584 12.1267 31.521C3.55778 29.3841 -1.65868 20.702 0.479177 12.1312C2.61515 3.5587 11.2967 -1.65814 19.8666 0.478775C28.4385 2.61569 33.6546 11.2987 31.5175 19.8706L31.5176 19.8705H31.5177Z" fill="#F3BA2F"/>
<path fill-rule="evenodd" clip-rule="evenodd" d="M16.0009 10.1553L11.8578 14.2984L11.8578 14.2983L9.44727 11.8876L16.0009 5.33398L22.5566 11.8895L20.1459 14.3002L16.0009 10.1553ZM7.74474 13.5896L5.33398 16.0007L7.74457 18.4109L10.1553 16.0001L7.74474 13.5896ZM11.8573 17.7031L16.0004 21.846L20.1454 17.7012L22.5573 20.1106L22.5561 20.1118L16.0004 26.6673L9.44677 20.1137L9.44336 20.1103L11.8573 17.7031ZM24.2565 13.5908L21.8457 16.0016L24.2564 18.4122L26.667 16.0014L24.2565 13.5908Z" fill="white"/>
<path d="M18.4452 15.9989H18.4462L16.0002 13.5527L14.1922 15.3602L13.9845 15.568L13.5561 15.9964L13.5527 15.9998L13.5561 16.0033L16.0002 18.4476L18.4463 16.0015L18.4475 16.0001L18.4453 15.9989" fill="white"/>
</svg>
