<svg width="42" height="42" viewBox="0 0 42 42" fill="none" xmlns="http://www.w3.org/2000/svg">
<g clip-path="url(#clip0_1060_4106)">
<g clip-path="url(#clip1_1060_4106)">
<path opacity="0.15" fill-rule="evenodd" clip-rule="evenodd" d="M31 2H11C8.95778 1.99658 6.97566 2.69092 5.382 3.968L14.671 13.257C16.4555 11.7943 18.6926 10.9965 21 11C23.3074 10.9965 25.5445 11.7943 27.329 13.257L36.618 3.968C35.0243 2.69092 33.0422 1.99658 31 2ZM25.906 14.68C24.551 13.627 22.849 13 21 13C19.151 13 17.449 13.627 16.094 14.68L21 19.586L25.906 14.68ZM13.257 14.671L3.968 5.382C2.69092 6.97566 1.99658 8.95778 2 11V31C1.99658 33.0422 2.69092 35.0243 3.968 36.618L13.257 27.329C11.7943 25.5445 10.9965 23.3074 11 21C10.9965 18.6926 11.7943 16.4555 13.257 14.671ZM14.68 25.905C13.627 24.551 13 22.849 13 21C13 19.151 13.627 17.449 14.68 16.094L19.586 21L14.68 25.905ZM14.671 28.742L5.382 38.031C6.97553 39.3084 8.95766 40.0031 11 40H31C33.0422 40.0034 35.0243 39.3091 36.618 38.032L27.329 28.743C25.5445 30.2057 23.3074 31.0035 21 31C18.6926 31.0035 16.4555 30.2047 14.671 28.742ZM25.905 27.319C24.551 28.373 22.849 29 21 29C19.151 29 17.449 28.373 16.094 27.32L21 22.414L25.906 27.32L25.905 27.319ZM27.319 25.905L22.414 21L27.32 16.094C28.373 17.449 29 19.151 29 21C29 22.849 28.373 24.551 27.32 25.906L27.319 25.905ZM28.742 27.328C30.2049 25.5439 31.003 23.3072 31 21C31.0035 18.6926 30.2057 16.4555 28.743 14.671L38.032 5.382C39.3091 6.97566 40.0034 8.95778 40 11V31C40.0034 33.0422 39.3091 35.0243 38.032 36.618L28.743 27.329L28.742 27.328ZM11 0C4.925 0 0 4.925 0 11V31C0 37.075 4.925 42 11 42H31C37.075 42 42 37.075 42 31V11C42 4.925 37.075 0 31 0H11Z" fill="#2EF2FF"/>
</g>
</g>
<path d="M26.347 11.068C26.5545 11.1502 26.7285 11.2993 26.8413 11.4918C26.9542 11.6842 26.9995 11.9089 26.97 12.13L26.122 18.498H29.955L30.593 18.515C30.779 18.532 31.116 18.577 31.418 18.81C31.5921 18.9445 31.7345 19.1156 31.835 19.3112C31.9356 19.5068 31.9919 19.7222 32 19.942C32.014 20.324 31.854 20.625 31.76 20.786C31.6486 20.9677 31.5295 21.1445 31.403 21.316L31.383 21.344L24.795 30.579C24.6649 30.7595 24.4783 30.8915 24.2648 30.954C24.0512 31.0166 23.8229 31.0061 23.616 30.9243C23.4091 30.8424 23.2354 30.6939 23.1224 30.5022C23.0093 30.3106 22.9635 30.0867 22.992 29.866L23.84 23.498H20.007C19.786 23.498 19.558 23.498 19.369 23.481C19.18 23.464 18.846 23.419 18.544 23.186C18.3699 23.0515 18.2276 22.8804 18.127 22.6848C18.0264 22.4892 17.9701 22.2738 17.962 22.054C17.948 21.672 18.108 21.371 18.202 21.21C18.296 21.049 18.431 20.86 18.559 20.68L18.579 20.652L25.167 11.417C25.2967 11.2356 25.4832 11.1027 25.697 11.0395C25.9108 10.9763 26.1396 10.9863 26.347 11.068ZM17.99 25.498C18.2552 25.498 18.5096 25.6034 18.6971 25.7909C18.8847 25.9784 18.99 26.2328 18.99 26.498C18.99 26.7632 18.8847 27.0176 18.6971 27.2051C18.5096 27.3926 18.2552 27.498 17.99 27.498H12.497C12.2318 27.498 11.9775 27.3926 11.7899 27.2051C11.6024 27.0176 11.497 26.7632 11.497 26.498C11.497 26.2328 11.6024 25.9784 11.7899 25.7909C11.9775 25.6034 12.2318 25.498 12.497 25.498H17.99ZM15.493 19.998C15.7582 19.998 16.0126 20.1034 16.2001 20.2909C16.3877 20.4784 16.493 20.7328 16.493 20.998C16.493 21.2632 16.3877 21.5176 16.2001 21.7051C16.0126 21.8926 15.7582 21.998 15.493 21.998H10.999C10.7338 21.998 10.4795 21.8926 10.2919 21.7051C10.1044 21.5176 9.99902 21.2632 9.99902 20.998C9.99902 20.7328 10.1044 20.4784 10.2919 20.2909C10.4795 20.1034 10.7338 19.998 10.999 19.998H15.493ZM17.99 14.498C18.2552 14.498 18.5096 14.6034 18.6971 14.7909C18.8847 14.9784 18.99 15.2328 18.99 15.498C18.99 15.7632 18.8847 16.0176 18.6971 16.2051C18.5096 16.3926 18.2552 16.498 17.99 16.498H12.996C12.7308 16.498 12.4765 16.3926 12.2889 16.2051C12.1014 16.0176 11.996 15.7632 11.996 15.498C11.996 15.2328 12.1014 14.9784 12.2889 14.7909C12.4765 14.6034 12.7308 14.498 12.996 14.498H17.99Z" fill="#EAEDFF"/>
<defs>
<clipPath id="clip0_1060_4106">
<rect width="42" height="42" fill="white"/>
</clipPath>
<clipPath id="clip1_1060_4106">
<rect width="42" height="42" fill="white"/>
</clipPath>
</defs>
</svg>
