<svg width="33" height="32" viewBox="0 0 33 32" fill="none" xmlns="http://www.w3.org/2000/svg">
<path fill-rule="evenodd" clip-rule="evenodd" d="M16.166 32C25.0026 32 32.166 24.8366 32.166 16C32.166 7.16344 25.0026 0 16.166 0C7.32946 0 0.166016 7.16344 0.166016 16C0.166016 24.8366 7.32946 32 16.166 32Z" fill="#C4CBF5"/>
<path d="M16.166 5.75977V20.1598L22.566 16.1598L16.166 5.75977Z" fill="#E6E6E6"/>
<path d="M16.1656 5.75977L9.76562 16.1598L16.1656 20.1598V5.75977Z" fill="white"/>
<path d="M16.166 21.3598L16.166 26.5598L22.566 17.7598L16.166 21.3598Z" fill="#E6E6E6"/>
<path d="M16.1656 26.5598V21.3598L9.76562 17.7598L16.1656 26.5598Z" fill="white"/>
<path opacity="0.1" d="M16.166 20.1598L22.566 16.1598L16.166 13.7598V20.1598Z" fill="#141414"/>
<path opacity="0.1" d="M9.76562 16.1598L16.1656 20.1598V13.7598L9.76562 16.1598Z" fill="#393939"/>
</svg>
