<svg width="374" height="751" viewBox="0 0 374 751" fill="none" xmlns="http://www.w3.org/2000/svg">
<line x1="363.011" y1="628.431" x2="155.727" y2="750.431" stroke="url(#paint0_linear_5006_23989)"/>
<line x1="349.099" y1="628.431" x2="141.815" y2="750.431" stroke="url(#paint1_linear_5006_23989)"/>
<line x1="335.187" y1="628.431" x2="127.903" y2="750.431" stroke="url(#paint2_linear_5006_23989)"/>
<line x1="321.275" y1="628.431" x2="113.99" y2="750.431" stroke="url(#paint3_linear_5006_23989)"/>
<line x1="307.363" y1="628.431" x2="100.078" y2="750.431" stroke="url(#paint4_linear_5006_23989)"/>
<line x1="293.451" y1="628.431" x2="86.1662" y2="750.431" stroke="url(#paint5_linear_5006_23989)"/>
<line x1="279.539" y1="628.431" x2="72.2541" y2="750.431" stroke="url(#paint6_linear_5006_23989)"/>
<line x1="291.011" y1="480.431" x2="83.7267" y2="602.431" stroke="url(#paint7_linear_5006_23989)"/>
<line x1="277.099" y1="480.431" x2="69.8146" y2="602.431" stroke="url(#paint8_linear_5006_23989)"/>
<line x1="263.187" y1="480.431" x2="55.9025" y2="602.431" stroke="url(#paint9_linear_5006_23989)"/>
<line x1="249.275" y1="480.431" x2="41.9904" y2="602.431" stroke="url(#paint10_linear_5006_23989)"/>
<line x1="235.363" y1="480.431" x2="28.0783" y2="602.431" stroke="url(#paint11_linear_5006_23989)"/>
<line x1="221.451" y1="480.431" x2="14.1662" y2="602.431" stroke="url(#paint12_linear_5006_23989)"/>
<line x1="207.539" y1="480.431" x2="0.254084" y2="602.431" stroke="url(#paint13_linear_5006_23989)"/>
<g opacity="0.4">
<path d="M261.657 133.438C261.832 133.447 262.002 133.47 262.176 133.485C262.435 133.506 262.696 133.52 262.952 133.554C263.14 133.579 263.322 133.62 263.509 133.652C263.745 133.691 263.982 133.724 264.214 133.775C264.397 133.814 264.575 133.869 264.754 133.915C264.984 133.975 265.217 134.026 265.443 134.095C265.622 134.15 265.796 134.222 265.972 134.283C266.193 134.36 266.416 134.43 266.633 134.517C266.812 134.59 266.985 134.679 267.163 134.758C267.369 134.851 267.579 134.936 267.782 135.038C267.96 135.128 268.132 135.234 268.306 135.331C268.505 135.442 268.708 135.545 268.903 135.666L261.723 131.241L261.696 131.224C261.51 131.11 261.316 131.012 261.126 130.906C260.952 130.809 260.779 130.704 260.601 130.614C260.399 130.512 260.19 130.426 259.984 130.334C259.806 130.254 259.633 130.166 259.452 130.094C259.236 130.006 259.013 129.936 258.793 129.858C258.616 129.797 258.442 129.727 258.263 129.671C258.037 129.602 257.804 129.549 257.574 129.491C257.395 129.444 257.217 129.39 257.035 129.35C256.803 129.299 256.564 129.267 256.329 129.227C256.143 129.195 255.96 129.154 255.772 129.13C255.537 129.099 255.298 129.087 255.061 129.065C254.865 129.049 254.673 129.023 254.476 129.014C254.209 129 253.939 129.006 253.668 129.006C253.495 129.006 253.324 128.996 253.151 129.001C252.703 129.015 252.251 129.047 251.796 129.096C251.191 129.16 250.578 129.268 249.958 129.397L249.734 129.433L249.547 129.485C248.973 129.615 248.395 129.767 247.81 129.953L247.598 130.028C247.069 130.201 246.536 130.402 246.002 130.622L245.753 130.714L245.544 130.813C245.007 131.046 244.467 131.294 243.922 131.573L243.844 131.611C243.276 131.904 242.705 132.232 242.133 132.575L241.936 132.687C241.644 132.865 241.352 133.051 241.059 133.242C240.54 133.58 240.029 133.937 239.522 134.309C239.358 134.428 239.198 134.556 239.034 134.679C238.692 134.937 238.352 135.199 238.015 135.472L237.797 135.641L237.592 135.824C236.89 136.408 236.196 137.017 235.519 137.659L235.304 137.872C234.623 138.525 233.958 139.203 233.307 139.909L233.21 140.008L233.167 140.058C232.707 140.562 232.254 141.08 231.808 141.609C231.685 141.756 231.564 141.908 231.443 142.057C231.119 142.449 230.8 142.845 230.485 143.249C230.331 143.446 230.182 143.645 230.031 143.844C229.747 144.219 229.468 144.597 229.193 144.981C229.044 145.188 228.895 145.396 228.749 145.604C228.459 146.021 228.174 146.443 227.891 146.869C227.803 147.002 227.71 147.13 227.622 147.265L227.546 147.389C227.132 148.027 226.728 148.676 226.335 149.335C226.25 149.478 226.169 149.625 226.084 149.767C225.776 150.296 225.472 150.829 225.176 151.368C225.059 151.584 224.942 151.799 224.826 152.016C224.549 152.533 224.279 153.055 224.017 153.582C223.925 153.765 223.831 153.945 223.741 154.129C223.399 154.827 223.067 155.533 222.747 156.245C222.685 156.383 222.628 156.523 222.568 156.662C222.31 157.247 222.06 157.837 221.818 158.429C221.725 158.659 221.634 158.888 221.543 159.119C221.328 159.665 221.119 160.214 220.918 160.766C220.844 160.968 220.767 161.168 220.695 161.372C220.433 162.111 220.181 162.855 219.944 163.602C219.906 163.721 219.873 163.843 219.836 163.963C219.639 164.597 219.45 165.232 219.273 165.87C219.207 166.107 219.145 166.344 219.081 166.58C218.933 167.14 218.791 167.702 218.657 168.264C218.606 168.48 218.551 168.695 218.502 168.912C218.328 169.671 218.167 170.431 218.023 171.191L217.975 171.47C217.849 172.142 217.738 172.813 217.636 173.484C217.6 173.721 217.568 173.956 217.537 174.191C217.458 174.751 217.389 175.309 217.328 175.867C217.304 176.09 217.277 176.315 217.254 176.537C217.181 177.296 217.119 178.052 217.075 178.807L217.069 178.959C217.032 179.662 217.011 180.361 217.001 181.058C216.999 181.286 217 181.513 217 181.742C216.999 182.287 217.007 182.831 217.026 183.372C217.033 183.594 217.039 183.817 217.049 184.039C217.083 184.775 217.13 185.508 217.199 186.233C218.098 195.693 221.796 202.399 227.088 205.659L234.269 210.084C228.976 206.824 225.277 200.119 224.378 190.657C224.309 189.932 224.264 189.199 224.23 188.463C224.219 188.241 224.213 188.019 224.206 187.796C224.187 187.255 224.179 186.712 224.179 186.166C224.179 185.939 224.178 185.71 224.18 185.482C224.19 184.785 224.212 184.086 224.25 183.383L224.255 183.231C224.298 182.478 224.361 181.72 224.435 180.963C224.457 180.739 224.483 180.515 224.508 180.292C224.569 179.734 224.637 179.176 224.716 178.617C224.748 178.38 224.78 178.145 224.815 177.908C224.917 177.237 225.03 176.566 225.154 175.894L225.203 175.617C225.347 174.855 225.509 174.095 225.682 173.335C225.731 173.12 225.785 172.904 225.836 172.689C225.971 172.127 226.112 171.564 226.262 171.005C226.325 170.768 226.387 170.532 226.454 170.295C226.63 169.658 226.818 169.022 227.015 168.388C227.052 168.268 227.086 168.146 227.124 168.027C227.36 167.279 227.613 166.536 227.875 165.796C227.947 165.594 228.024 165.393 228.097 165.19C228.299 164.638 228.507 164.089 228.722 163.543C228.813 163.313 228.905 163.083 228.998 162.854C229.24 162.26 229.489 161.671 229.747 161.086C229.808 160.948 229.865 160.808 229.927 160.669C230.246 159.957 230.578 159.251 230.92 158.553C231.01 158.369 231.104 158.189 231.196 158.006C231.459 157.479 231.73 156.958 232.005 156.441C232.122 156.224 232.237 156.008 232.355 155.793C232.651 155.253 232.955 154.72 233.264 154.193C233.348 154.049 233.43 153.903 233.514 153.76C233.908 153.1 234.312 152.452 234.724 151.813C234.839 151.638 234.956 151.467 235.071 151.293C235.353 150.867 235.639 150.446 235.929 150.03C236.076 149.82 236.223 149.614 236.372 149.407C236.648 149.021 236.928 148.642 237.212 148.267C237.362 148.069 237.511 147.87 237.664 147.675C237.981 147.268 238.302 146.869 238.627 146.474C238.748 146.328 238.865 146.179 238.986 146.035C239.433 145.506 239.886 144.986 240.348 144.481L240.485 144.336C241.137 143.628 241.804 142.949 242.484 142.296L242.698 142.085C243.376 141.442 244.07 140.833 244.772 140.247C244.913 140.13 245.052 140.012 245.194 139.897C245.531 139.624 245.872 139.362 246.215 139.102C246.378 138.979 246.538 138.853 246.702 138.733C247.21 138.363 247.72 138.005 248.238 137.666C248.596 137.432 248.954 137.215 249.312 137.001C249.884 136.657 250.455 136.33 251.022 136.036L251.102 135.999C251.646 135.719 252.187 135.469 252.724 135.237C252.877 135.171 253.029 135.108 253.181 135.046C253.716 134.827 254.249 134.627 254.776 134.453L254.99 134.378C255.575 134.191 256.153 134.039 256.728 133.908C256.864 133.878 257 133.85 257.136 133.821C257.755 133.693 258.37 133.585 258.975 133.52C259.431 133.471 259.883 133.44 260.331 133.427L260.642 133.429C260.982 133.424 261.322 133.422 261.657 133.438Z" fill="url(#paint14_linear_5006_23989)"/>
<path d="M258.975 133.52C269.304 132.409 277.403 140.451 278.793 155.092C280.641 174.541 269.965 198.265 254.933 208.083C251.22 210.514 247.588 211.865 244.197 212.23C233.868 213.341 225.77 205.299 224.378 190.657C222.531 171.209 233.208 147.486 248.238 137.666C251.951 135.237 255.585 133.884 258.975 133.52Z" fill="#1D2D6A"/>
<path fill-rule="evenodd" clip-rule="evenodd" d="M260.366 160.818C260.014 157.488 257.348 157.898 254.002 159.564L253.922 154.7L251.334 156.251L251.412 160.987C250.732 161.394 250.036 161.826 249.346 162.256L249.268 157.488L246.681 159.038L246.76 163.901C246.2 164.249 245.65 164.591 245.113 164.913L245.113 164.898L241.543 167.034L241.595 170.196C241.595 170.196 243.506 169.01 243.475 169.069C244.523 168.441 244.876 168.933 244.985 169.474L245.076 175.015C245.148 174.972 245.243 174.919 245.35 174.872L245.275 174.917C245.211 174.955 245.144 174.995 245.076 175.036L245.203 182.799C245.163 183.204 244.979 183.922 244.247 184.362C244.28 184.376 242.365 185.488 242.365 185.488L241.909 189.332L245.277 187.315C245.646 187.094 246.011 186.88 246.373 186.668L246.374 186.667C246.626 186.519 246.877 186.372 247.126 186.224L247.208 191.143L249.793 189.595L249.714 184.728C250.424 184.319 251.111 183.914 251.782 183.512L251.86 188.357L254.448 186.807L254.368 181.896C258.715 179.004 261.74 175.926 262.041 171.025C262.285 167.079 260.71 166.326 258.229 167.127C259.715 165.354 260.628 163.252 260.367 160.818L260.366 160.818ZM256.918 173.504C256.975 176.876 252.342 179.577 250.222 180.813C250.031 180.924 249.861 181.023 249.716 181.11L249.61 174.592C249.787 174.486 250.001 174.352 250.244 174.2C252.415 172.841 256.862 170.056 256.918 173.504ZM249.987 171.36C251.755 170.335 255.613 168.097 255.564 165.031C255.512 161.895 251.806 164.229 249.995 165.368C249.792 165.497 249.612 165.61 249.464 165.698L249.561 171.609C249.683 171.536 249.826 171.453 249.987 171.36Z" fill="#2EF2FF"/>
<path d="M258.336 136.931L258.393 137.469C258.952 137.409 259.502 137.379 260.045 137.379C264.194 137.384 267.822 139.109 270.608 142.379C273.391 145.65 275.31 150.491 275.898 156.685C276.023 158.011 276.086 159.359 276.086 160.724C276.087 169.064 273.785 177.999 269.909 185.862C266.036 193.725 260.587 200.51 254.349 204.582C251.014 206.764 247.776 207.962 244.78 208.284C244.222 208.344 243.671 208.374 243.13 208.374C238.978 208.369 235.35 206.644 232.564 203.375C229.782 200.102 227.862 195.262 227.275 189.067C227.149 187.741 227.088 186.392 227.088 185.027C227.087 176.687 229.388 167.752 233.263 159.891C237.137 152.028 242.587 145.242 248.824 141.17C252.157 138.99 255.398 137.79 258.393 137.469L258.336 136.931L258.277 136.393C255.079 136.737 251.682 138.009 248.233 140.266C241.78 144.483 236.238 151.414 232.294 159.413C228.352 167.414 226.007 176.488 226.006 185.027C226.006 186.424 226.069 187.807 226.199 189.169C226.802 195.528 228.776 200.586 231.74 204.075C234.7 207.564 238.672 209.46 243.13 209.455C243.711 209.455 244.3 209.423 244.896 209.359C248.093 209.016 251.491 207.744 254.941 205.487C261.394 201.269 266.936 194.339 270.88 186.339C274.822 178.338 277.165 169.262 277.167 160.724C277.167 159.327 277.104 157.944 276.974 156.583C276.37 150.224 274.397 145.167 271.433 141.678C268.473 138.19 264.502 136.294 260.045 136.297C259.463 136.297 258.874 136.33 258.277 136.393L258.336 136.931Z" fill="#0D1B27"/>
</g>
<rect width="121.33" height="188.28" rx="12" transform="matrix(0.866025 -0.5 0.866025 0.5 43 619.82)" fill="white"/>
<path d="M53.3923 625.82C47.6528 622.507 47.6528 617.134 53.3923 613.82L137.953 564.999C143.692 561.686 152.998 561.686 158.737 564.999L284.613 637.674L179.268 698.495L53.3923 625.82Z" fill="url(#paint15_linear_5006_23989)"/>
<path d="M208.373 660.109L207.901 659.851L207.41 659.608L206.895 659.38L206.359 659.169L205.805 658.976L205.234 658.799L204.648 658.64L204.047 658.499L203.434 658.378L202.811 658.275L202.179 658.192L201.54 658.128L200.896 658.085L200.248 658.062L200.134 658.068L200.026 658.092L199.932 658.132L199.861 658.185L199.814 658.247L199.8 658.313L199.813 658.376L199.856 658.436L199.92 658.487L200.005 658.527L200.108 658.553L200.217 658.563L200.839 658.586L201.458 658.629L202.073 658.691L202.681 658.775L203.28 658.876L203.868 658.997L204.442 659.137L205.003 659.294L205.548 659.469L206.075 659.662L206.585 659.873L207.071 660.098L207.535 660.338L207.976 660.594L208.392 660.862L208.781 661.145L209.143 661.439L209.477 661.745L209.78 662.06L210.051 662.385L210.292 662.718L210.502 663.059L210.677 663.406L210.82 663.758L210.928 664.115L211.001 664.472L211.041 664.832L211.059 664.895L211.104 664.955L211.173 665.004L211.262 665.042L211.364 665.066L211.474 665.075L211.588 665.066L211.695 665.039L211.786 664.998L211.856 664.943L211.897 664.881L211.906 664.814L211.868 664.44L211.793 664.066L211.681 663.696L211.539 663.33L211.362 662.97L211.154 662.615L210.909 662.266L210.636 661.927L210.329 661.596L209.996 661.275L209.63 660.965L209.238 660.667L208.818 660.382L208.373 660.109ZM205.92 661.53L205.535 661.32L205.128 661.125L204.702 660.944L204.258 660.779L203.796 660.629L203.319 660.496L202.831 660.38L202.33 660.282L201.821 660.202L201.303 660.14L200.78 660.096L200.252 660.071L200.136 660.077L200.026 660.101L199.931 660.141L199.857 660.193L199.811 660.254L199.796 660.322L199.809 660.385L199.85 660.444L199.914 660.494L199.999 660.535L200.097 660.561L200.206 660.572L200.722 660.598L201.234 660.643L201.742 660.708L202.24 660.793L202.727 660.896L203.202 661.018L203.66 661.158L204.102 661.316L204.524 661.49L204.927 661.68L205.306 661.885L205.66 662.104L205.989 662.338L206.29 662.583L206.561 662.838L206.804 663.104L207.014 663.378L207.192 663.66L207.338 663.949L207.45 664.243L207.529 664.54L207.574 664.839L207.591 664.902L207.637 664.959L207.707 665.008L207.796 665.045L207.896 665.069L208.005 665.076L208.121 665.067L208.228 665.042L208.319 664.999L208.387 664.944L208.428 664.88L208.439 664.813L208.395 664.507L208.319 664.204L208.211 663.904L208.073 663.609L207.905 663.318L207.704 663.036L207.474 662.759L207.217 662.493L206.93 662.235L206.619 661.988L206.282 661.752L205.92 661.53ZM203.314 662.866L202.989 662.707L202.645 662.564L202.283 662.438L201.9 662.33L201.506 662.239L201.1 662.168L200.685 662.116L200.263 662.084L200.144 662.087L200.031 662.11L199.933 662.148L199.855 662.202L199.808 662.265L199.791 662.334L199.806 662.395L199.843 662.453L199.904 662.503L199.985 662.543L200.082 662.57L200.185 662.584L200.557 662.612L200.924 662.66L201.282 662.725L201.628 662.81L201.962 662.91L202.279 663.027L202.577 663.159L202.853 663.307L203.106 663.466L203.335 663.639L203.536 663.822L203.71 664.016L203.855 664.216L203.969 664.424L204.05 664.636L204.1 664.852L204.124 664.911L204.17 664.968L204.238 665.014L204.327 665.05L204.426 665.071L204.531 665.08L204.65 665.069L204.759 665.042L204.851 664.997L204.918 664.94L204.957 664.875L204.962 664.805L204.908 664.562L204.818 664.321L204.695 664.086L204.539 663.858L204.353 663.637L204.134 663.427L203.887 663.227L203.613 663.039L203.314 662.866Z" fill="#454545"/>
<path d="M285.289 658.813L285.549 658.797C285.223 659.738 284.422 660.602 283.246 661.28C279.957 663.185 274.635 663.19 271.352 661.288C268.072 659.388 268.077 656.304 271.363 654.401C272.583 653.694 274.081 653.247 275.647 653.065C275.64 653.114 275.636 653.163 275.638 653.212C275.445 654.73 276.398 656.219 278.25 657.292C280.103 658.365 282.672 658.919 285.29 658.812L285.289 658.813ZM278.726 650.137C277.549 650.814 276.746 651.677 276.418 652.618C276.506 652.614 276.594 652.611 276.673 652.612C277.967 652.557 279.266 652.663 280.481 652.924C281.697 653.186 282.801 653.595 283.718 654.126C285.568 655.197 286.524 656.685 286.342 658.203C286.333 658.253 286.324 658.303 286.314 658.353C287.939 658.165 289.432 657.701 290.601 657.02C293.89 655.115 293.899 652.032 290.616 650.131C287.335 648.231 282.011 648.234 278.725 650.137L278.726 650.137ZM276.318 653.007C276.164 653.738 276.299 654.481 276.714 655.177C277.129 655.874 277.812 656.506 278.712 657.026C279.61 657.548 280.702 657.944 281.905 658.184C283.108 658.425 284.39 658.503 285.654 658.414C285.674 658.334 285.683 658.256 285.693 658.175C285.779 657.48 285.607 656.782 285.187 656.129C284.767 655.477 284.109 654.885 283.258 654.393C282.36 653.872 281.268 653.476 280.066 653.236C278.863 652.996 277.582 652.917 276.318 653.007Z" fill="#7F7F7F"/>
<path d="M196.326 698.769L195.193 698.852C195.167 698.603 195.16 698.355 195.172 698.107C195.174 698.008 195.176 697.945 195.176 697.919C195.094 697.954 194.846 698.043 194.432 698.188C194.133 698.292 193.931 698.358 193.827 698.386L193.332 697.812C193.851 697.685 194.346 697.59 194.816 697.526C194.289 697.3 193.88 697.103 193.59 696.936L194.343 696.501C194.549 696.62 194.888 696.86 195.362 697.221C195.396 697.176 195.462 697.074 195.561 696.916C195.699 696.703 195.834 696.511 195.967 696.34L196.956 696.652C196.714 696.874 196.42 697.123 196.077 697.399L197.155 697.436C197.372 697.444 197.547 697.452 197.679 697.46L197.459 698.081L195.945 697.866C196.078 698.141 196.205 698.442 196.326 698.769ZM199.7 696.821L198.567 696.904C198.542 696.655 198.535 696.407 198.546 696.159C198.549 696.06 198.55 695.997 198.55 695.971C198.469 696.005 198.22 696.095 197.806 696.24C197.507 696.344 197.306 696.41 197.201 696.438L196.707 695.864C197.225 695.737 197.72 695.642 198.191 695.578C197.664 695.352 197.255 695.155 196.965 694.987L197.717 694.553C197.923 694.672 198.263 694.912 198.736 695.273C198.77 695.227 198.836 695.126 198.935 694.968C199.073 694.755 199.209 694.562 199.341 694.392L200.331 694.704C200.088 694.925 199.795 695.174 199.451 695.451L200.529 695.488C200.746 695.496 200.921 695.504 201.054 695.512L200.834 696.132L199.32 695.917C199.452 696.193 199.579 696.494 199.7 696.821ZM203.075 694.873L201.942 694.956C201.916 694.707 201.909 694.458 201.921 694.211C201.923 694.112 201.925 694.049 201.925 694.023C201.843 694.057 201.595 694.147 201.181 694.292C200.882 694.396 200.68 694.462 200.576 694.489L200.081 693.916C200.6 693.789 201.095 693.693 201.565 693.63C201.038 693.404 200.629 693.207 200.339 693.039L201.092 692.604C201.297 692.723 201.637 692.963 202.111 693.325C202.145 693.279 202.211 693.177 202.31 693.02C202.448 692.806 202.583 692.614 202.716 692.443L203.705 692.756C203.463 692.977 203.169 693.226 202.825 693.503L203.904 693.54C204.121 693.548 204.296 693.556 204.428 693.564L204.208 694.184L202.694 693.969C202.827 694.244 202.954 694.545 203.075 694.873ZM206.449 692.924L205.316 693.007C205.291 692.758 205.284 692.51 205.295 692.263C205.298 692.163 205.299 692.101 205.299 692.075C205.217 692.109 204.969 692.198 204.555 692.343C204.256 692.447 204.055 692.513 203.95 692.541L203.456 691.967C203.974 691.84 204.469 691.745 204.94 691.682C204.413 691.455 204.004 691.258 203.713 691.091L204.466 690.656C204.672 690.775 205.012 691.015 205.485 691.376C205.519 691.331 205.585 691.229 205.684 691.071C205.822 690.858 205.957 690.666 206.09 690.495L207.079 690.808C206.837 691.029 206.544 691.278 206.2 691.555L207.278 691.591C207.495 691.599 207.67 691.608 207.803 691.616L207.583 692.236L206.069 692.021C206.201 692.296 206.328 692.597 206.449 692.924ZM205.852 704.269L204.719 704.352C204.694 704.103 204.687 703.855 204.698 703.607C204.701 703.508 204.702 703.445 204.702 703.419C204.62 703.454 204.372 703.543 203.958 703.688C203.659 703.792 203.457 703.858 203.353 703.886L202.858 703.312C203.377 703.185 203.872 703.09 204.343 703.026C203.816 702.8 203.407 702.603 203.116 702.436L203.869 702.001C204.075 702.12 204.415 702.36 204.888 702.721C204.922 702.676 204.988 702.574 205.087 702.416C205.225 702.203 205.36 702.011 205.493 701.84L206.482 702.152C206.24 702.374 205.947 702.623 205.603 702.899L206.681 702.936C206.898 702.944 207.073 702.952 207.205 702.96L206.986 703.581L205.472 703.366C205.604 703.641 205.731 703.942 205.852 704.269ZM209.227 702.321L208.093 702.404C208.068 702.155 208.061 701.907 208.072 701.659C208.075 701.56 208.077 701.497 208.077 701.471C207.995 701.505 207.747 701.595 207.332 701.74C207.034 701.844 206.832 701.91 206.728 701.938L206.233 701.364C206.752 701.237 207.246 701.142 207.717 701.078C207.19 700.852 206.781 700.655 206.491 700.487L207.244 700.053C207.449 700.172 207.789 700.412 208.263 700.773C208.296 700.727 208.363 700.626 208.461 700.468C208.6 700.255 208.735 700.062 208.867 699.892L209.857 700.204C209.614 700.425 209.321 700.674 208.977 700.951L210.056 700.988C210.273 700.996 210.447 701.004 210.58 701.012L210.36 701.632L208.846 701.417C208.979 701.693 209.106 701.994 209.227 702.321ZM212.601 700.373L211.468 700.456C211.443 700.207 211.436 699.958 211.447 699.711C211.45 699.612 211.451 699.549 211.451 699.523C211.369 699.557 211.121 699.647 210.707 699.792C210.408 699.896 210.206 699.962 210.102 699.989L209.607 699.416C210.126 699.289 210.621 699.193 211.092 699.13C210.564 698.904 210.156 698.707 209.865 698.539L210.618 698.104C210.824 698.223 211.163 698.463 211.637 698.825C211.671 698.779 211.737 698.677 211.836 698.52C211.974 698.306 212.109 698.114 212.242 697.943L213.231 698.256C212.989 698.477 212.696 698.726 212.352 699.003L213.43 699.04C213.647 699.048 213.822 699.056 213.954 699.064L213.734 699.684L212.221 699.469C212.353 699.744 212.48 700.045 212.601 700.373ZM215.976 698.424L214.842 698.507C214.817 698.258 214.81 698.01 214.821 697.763C214.824 697.663 214.825 697.601 214.825 697.575C214.744 697.609 214.496 697.698 214.081 697.843C213.782 697.947 213.581 698.013 213.477 698.041L212.982 697.467C213.501 697.34 213.995 697.245 214.466 697.182C213.939 696.955 213.53 696.758 213.24 696.591L213.992 696.156C214.198 696.275 214.538 696.515 215.012 696.876C215.045 696.831 215.112 696.729 215.21 696.571C215.348 696.358 215.484 696.166 215.616 695.995L216.606 696.308C216.363 696.529 216.07 696.778 215.726 697.055L216.804 697.091C217.022 697.099 217.196 697.108 217.329 697.116L217.109 697.736L215.595 697.521C215.728 697.796 215.854 698.097 215.976 698.424Z" fill="#7F7F7F"/>
<path d="M234.091 681.512L235.152 680.757C235.454 680.892 235.767 680.958 236.091 680.953C236.412 680.946 236.681 680.88 236.899 680.755C237.147 680.612 237.257 680.433 237.228 680.218C237.197 680.001 236.979 679.776 236.573 679.542C236.192 679.322 235.822 679.207 235.461 679.197C235.1 679.184 234.783 679.257 234.509 679.415C234.168 679.611 234.013 679.875 234.044 680.206L232.941 680.682L230.323 678.467L233.465 676.653L234.577 677.295L232.336 678.589L233.203 679.305C233.335 679.075 233.54 678.881 233.816 678.721C234.343 678.417 234.982 678.27 235.731 678.279C236.481 678.289 237.162 678.471 237.774 678.824C238.284 679.118 238.591 679.467 238.696 679.869C238.839 680.417 238.553 680.898 237.837 681.312C237.265 681.642 236.645 681.823 235.977 681.854C235.309 681.884 234.68 681.771 234.091 681.512ZM243.529 677.903L242.341 678.589L237.863 676.004C237.834 676.489 237.623 676.958 237.228 677.41L236.15 676.788C236.359 676.55 236.504 676.245 236.586 675.872C236.665 675.498 236.583 675.162 236.34 674.866L237.304 674.31L243.529 677.903ZM243.622 675.95L244.633 675.206C244.963 675.354 245.285 675.426 245.601 675.423C245.917 675.42 246.189 675.352 246.417 675.22C246.662 675.079 246.775 674.906 246.755 674.703C246.739 674.498 246.572 674.304 246.256 674.122C245.958 673.949 245.641 673.859 245.305 673.851C244.97 673.842 244.686 673.905 244.455 674.039C244.303 674.126 244.151 674.249 243.998 674.405L243.161 673.77C243.491 673.589 243.667 673.408 243.69 673.226C243.709 673.042 243.597 672.879 243.351 672.737C243.143 672.617 242.914 672.557 242.666 672.557C242.418 672.557 242.191 672.616 241.986 672.735C241.783 672.852 241.68 672.993 241.677 673.157C241.674 673.322 241.792 673.491 242.032 673.665L240.751 674.19C240.452 673.93 240.267 673.691 240.197 673.475C240.126 673.255 240.164 673.029 240.311 672.798C240.458 672.564 240.701 672.348 241.043 672.151C241.626 671.814 242.28 671.652 243.005 671.663C243.599 671.671 244.089 671.786 244.472 672.007C245.016 672.321 245.153 672.744 244.882 673.274C245.314 673.113 245.767 673.048 246.244 673.079C246.723 673.108 247.15 673.231 247.525 673.448C248.069 673.762 248.334 674.144 248.32 674.595C248.306 675.046 248.003 675.442 247.411 675.784C246.85 676.108 246.224 676.284 245.533 676.312C244.84 676.338 244.203 676.217 243.622 675.95ZM253.039 671.138L254.143 671.775L249.978 674.18C249.606 673.913 249.346 673.607 249.2 673.262C249.05 672.916 248.999 672.372 249.047 671.631C249.084 671.034 249.074 670.649 249.018 670.477C248.936 670.241 248.775 670.053 248.536 669.915C248.271 669.762 247.996 669.686 247.711 669.688C247.426 669.686 247.159 669.758 246.908 669.903C246.66 670.046 246.537 670.203 246.54 670.374C246.543 670.545 246.706 670.737 247.03 670.95L245.728 671.565C245.144 671.147 244.896 670.748 244.984 670.369C245.071 669.99 245.394 669.639 245.952 669.317C246.564 668.964 247.209 668.781 247.889 668.77C248.568 668.759 249.153 668.895 249.644 669.178C249.923 669.339 250.138 669.522 250.291 669.727C250.443 669.929 250.549 670.172 250.608 670.457C250.647 670.646 250.651 670.948 250.62 671.363C250.589 671.778 250.58 672.047 250.591 672.171C250.605 672.293 250.635 672.403 250.68 672.5L253.039 671.138Z" fill="#7F7F7F"/>
<path fill-rule="evenodd" clip-rule="evenodd" d="M82.1218 621.82C82.1874 621.063 82.4741 620.812 81.6466 620.14C81.0992 619.693 80.4968 619.428 79.9289 619.06L74.4638 615.95C73.9555 615.603 73.4615 615.117 73.2564 614.539C72.8352 613.33 73.9455 612.057 75.3577 611.742C75.3353 612.71 76.1494 613.287 77.4071 613.895L80.6739 615.744C80.8471 615.838 80.9607 615.911 81.1247 616.02C81.8612 616.489 82.9806 616.994 83.9202 617.672C86.5924 619.591 83.7138 621.542 82.1218 621.82Z" fill="black"/>
<path fill-rule="evenodd" clip-rule="evenodd" d="M86.4307 618.571C86.4366 617.584 85.6435 617.02 84.318 616.381L80.6416 614.306C79.884 613.825 79.1768 613.588 78.5898 612.949C77.2749 611.524 79.6366 610.171 82.3935 611.606C82.8674 611.845 83.4559 612.133 83.8763 612.411L85.3278 613.244C87.5496 614.351 89.7562 615.832 87.9702 617.679C87.6362 618.03 87.111 618.409 86.4214 618.586L86.4307 618.571Z" fill="black"/>
<path fill-rule="evenodd" clip-rule="evenodd" d="M74.6898 617.73C74.9792 617.94 75.388 618.259 75.7648 618.445L77.6809 619.532C78.3038 619.927 80.1099 620.748 80.3962 621.242C80.7628 621.887 80.0403 622.443 79.2176 622.602C76.4394 623.157 72.5174 621.175 74.0642 618.525C74.1428 618.399 74.2307 618.257 74.3129 618.149C74.503 617.936 74.5365 617.818 74.6898 617.73Z" fill="black"/>
<path d="M92.0995 613.713C91.8716 613.581 91.7189 613.433 91.6414 613.269C91.5616 613.104 91.5591 612.94 91.634 612.778C91.711 612.615 91.8585 612.471 92.0766 612.345C92.3328 612.197 92.6178 612.103 92.9317 612.064C93.2456 612.025 93.5592 612.045 93.8724 612.124L93.505 612.336C93.2991 612.293 93.0963 612.285 92.8968 612.312C92.6995 612.339 92.5154 612.401 92.3446 612.5C92.1805 612.594 92.0713 612.701 92.0169 612.82C91.9625 612.939 91.9685 613.061 92.0351 613.185C92.0994 613.308 92.2254 613.423 92.413 613.532C92.5984 613.639 92.7985 613.712 93.0134 613.75C93.2261 613.787 93.4355 613.79 93.6418 613.759C93.8481 613.727 94.0333 613.664 94.1974 613.569C94.3682 613.471 94.4774 613.365 94.5251 613.252C94.5728 613.137 94.5588 613.02 94.4833 612.901L94.8508 612.689C94.9865 612.869 95.0202 613.049 94.952 613.23C94.8816 613.41 94.7183 613.574 94.4621 613.722C94.2441 613.848 93.9949 613.934 93.7146 613.98C93.4343 614.023 93.152 614.022 92.8677 613.977C92.5834 613.932 92.3273 613.844 92.0995 613.713Z" fill="black"/>
<path d="M98.4385 611.403L96.924 611.175L96.5532 611.389L97.508 611.94L97.2012 612.117L94.866 610.769L95.6245 610.331C95.8021 610.229 95.9817 610.16 96.1634 610.125C96.3473 610.088 96.521 610.082 96.6844 610.106C96.8478 610.131 96.9954 610.181 97.1272 610.257C97.288 610.35 97.3827 610.459 97.4111 610.584C97.4418 610.708 97.384 610.836 97.2377 610.967L98.806 611.191L98.4385 611.403ZM96.3086 611.248L96.7603 610.987C96.9266 610.891 97.0112 610.796 97.0139 610.701C97.0144 610.606 96.9466 610.518 96.8103 610.44C96.6718 610.36 96.523 610.322 96.3639 610.326C96.2071 610.329 96.0444 610.379 95.8758 610.476L95.4241 610.737L96.3086 611.248Z" fill="black"/>
<path d="M99.7759 607.934L100.465 609.216L101.346 609.725L101.039 609.902L100.158 609.393L97.9352 608.997L98.2757 608.801L100.038 609.149L99.4354 608.131L99.7759 607.934Z" fill="black"/>
<path d="M103.568 606.534C103.762 606.647 103.857 606.779 103.851 606.932C103.846 607.082 103.706 607.236 103.432 607.394L102.98 607.655L103.955 608.218L103.648 608.395L101.313 607.047L102.072 606.609C102.337 606.456 102.602 606.376 102.866 606.371C103.133 606.364 103.367 606.418 103.568 606.534ZM103.181 607.249C103.352 607.151 103.441 607.057 103.448 606.967C103.455 606.878 103.39 606.794 103.254 606.716C102.966 606.549 102.656 606.562 102.323 606.754L101.871 607.015L102.729 607.51L103.181 607.249Z" fill="black"/>
<path d="M105.925 604.384L106.173 604.527L105.533 604.897L107.62 606.102L107.313 606.279L105.226 605.074L104.582 605.446L104.334 605.303L105.925 604.384Z" fill="black"/>
<path d="M110.941 604.212C110.723 604.338 110.474 604.424 110.193 604.469C109.911 604.514 109.626 604.514 109.34 604.471C109.053 604.425 108.796 604.336 108.568 604.205C108.34 604.073 108.188 603.925 108.11 603.761C108.033 603.594 108.033 603.43 108.113 603.268C108.19 603.105 108.337 602.961 108.555 602.835C108.776 602.708 109.027 602.622 109.31 602.577C109.59 602.531 109.872 602.531 110.156 602.576C110.441 602.62 110.698 602.709 110.928 602.842C111.158 602.975 111.312 603.123 111.389 603.288C111.467 603.452 111.467 603.615 111.39 603.778C111.311 603.94 111.161 604.085 110.941 604.212ZM110.676 604.059C110.84 603.964 110.949 603.858 111.004 603.738C111.061 603.618 111.056 603.496 110.989 603.372C110.925 603.246 110.8 603.13 110.615 603.023C110.427 602.915 110.226 602.843 110.011 602.807C109.796 602.768 109.585 602.765 109.379 602.796C109.173 602.828 108.986 602.892 108.82 602.988C108.654 603.084 108.543 603.191 108.489 603.31C108.434 603.429 108.439 603.552 108.504 603.677C108.568 603.8 108.694 603.915 108.882 604.024C109.067 604.131 109.267 604.203 109.482 604.242C109.699 604.279 109.911 604.282 110.117 604.25C110.326 604.218 110.512 604.154 110.676 604.059Z" fill="black"/>
<path d="M91.893 609.161L89.4164 610.591L90.2151 611.579L89.433 612.03L85.8753 607.606L86.7307 607.112L94.3862 609.171L93.6041 609.622L91.893 609.161ZM91.0821 608.937L87.2057 607.885L89.0291 610.123L91.0821 608.937Z" fill="black"/>
<path d="M95.4232 607.88L97.411 606.732L98.0101 607.078L95.281 608.654L89.6378 605.396L90.3792 604.968L95.4232 607.88Z" fill="black"/>
<path d="M96.3641 601.513L96.9632 601.858L94.4948 603.284L96.3974 604.382L98.4015 603.225L99.0006 603.571L96.9965 604.728L99.5388 606.196L98.7974 606.624L93.1543 603.366L96.3641 601.513Z" fill="black"/>
<path d="M105.004 601.591L102.528 603.021L103.326 604.009L102.544 604.461L98.9864 600.036L99.8418 599.542L107.497 601.601L106.715 602.052L105.004 601.591ZM104.193 601.368L100.317 600.315L102.14 602.553L104.193 601.368Z" fill="black"/>
<path d="M168.714 673.978L180.623 667.081C181.945 666.315 183.821 666.174 184.839 666.764L186.673 667.826L182.612 670.178L181.904 673.341L185.572 675.466L185.025 677.908L188.153 679.719L183.389 682.478L180.262 680.666L176.046 680.983L171.295 678.232L171.842 675.79L168.714 673.978ZM185.037 672.397L187.413 673.773L192.176 671.014L188.508 668.889L185.423 670.675L185.037 672.397ZM168.322 678.455L168.708 676.734L166.333 675.358L161.569 678.117C160.247 678.882 160.004 679.969 161.022 680.559L162.856 681.621L168.322 678.455ZM173.123 682.049L169.454 679.925L164.691 682.683L168.359 684.808L173.123 682.049ZM178.632 682.481L175.66 682.705L170.194 685.871L172.028 686.933C173.046 687.523 174.922 687.382 176.244 686.616L181.008 683.857L178.632 682.481ZM188.545 675.242L188.159 676.964L190.534 678.34L195.298 675.581C196.62 674.815 196.863 673.728 195.845 673.139L194.011 672.076L188.545 675.242Z" fill="url(#paint16_linear_5006_23989)" fill-opacity="0.69"/>
<g style="mix-blend-mode:multiply">
<path d="M279.185 564.543C286.913 568.938 286.934 576.068 279.276 580.45L193.262 629.704C185.587 634.099 173.118 634.099 165.39 629.704L78.8135 580.45C71.107 576.068 71.0479 568.938 78.723 564.543L164.736 515.289C172.394 510.904 184.902 510.904 192.608 515.289L279.185 564.543Z" fill="#2D307D"/>
</g>
<path d="M76.7797 479.773L76.7461 535.187C76.7394 538.035 78.6179 540.887 82.3715 543.051L166.143 591.417C173.617 595.733 185.685 595.733 193.112 591.417L276.338 543.051C280.021 540.914 281.866 538.106 281.876 535.295L281.909 479.88L76.7797 479.773Z" fill="url(#paint17_linear_5006_23989)"/>
<path d="M276.254 471.869C283.769 476.184 283.79 483.186 276.342 487.489L192.691 535.853C185.226 540.169 173.099 540.169 165.584 535.853L81.3843 487.489C73.8895 483.186 73.8319 476.184 81.2963 471.869L164.948 423.504C172.395 419.198 184.56 419.198 192.055 423.504L276.254 471.869Z" fill="#4A4EAA"/>
<path d="M270.57 472.211C277.647 476.268 277.666 482.85 270.653 486.894L191.876 532.358C184.846 536.415 173.426 536.415 166.348 532.358L87.0549 486.894C79.9967 482.85 79.9426 476.268 86.972 472.211L165.749 426.748C172.763 422.701 184.218 422.701 191.276 426.748L270.57 472.211Z" fill="url(#paint18_linear_5006_23989)"/>
<path d="M268.064 471.996C274.954 475.927 274.972 482.307 268.145 486.227L191.459 530.291C184.616 534.223 173.499 534.223 166.61 530.291L89.4213 486.227C82.5506 482.307 82.4978 475.927 89.3407 471.996L166.027 427.931C172.854 424.008 184.005 424.008 190.876 427.931L268.064 471.996Z" fill="#2D307D"/>
<path opacity="0.2" d="M257.398 485.446L257.398 485.445C260.317 483.757 261.659 481.608 261.649 479.56C261.639 477.51 260.275 475.357 257.328 473.662L257.578 473.228L257.328 473.662L189.262 434.493L189.512 434.06L189.262 434.493C186.327 432.804 182.445 431.945 178.541 431.945C174.637 431.945 170.765 432.804 167.85 434.492L100.227 473.661C97.3017 475.355 95.9635 477.506 95.9767 479.554C95.9898 481.604 97.3576 483.755 100.296 485.445L100.296 485.445L168.362 524.613C171.307 526.307 175.185 527.168 179.085 527.168C182.985 527.168 186.852 526.307 189.775 524.614L257.398 485.446Z" stroke="black"/>
<rect x="151.129" y="496.475" width="32.5343" height="57.0831" transform="rotate(-90 151.129 496.475)" stroke="#989EBA" stroke-opacity="0.3"/>
<line y1="-0.5" x2="90.2123" y2="-0.5" transform="matrix(0.866025 0.5 -0.866025 0.5 139.695 457.232)" stroke="#989EBA" stroke-opacity="0.3"/>
<line y1="-0.5" x2="90.2123" y2="-0.5" transform="matrix(0.866025 -0.5 0.866025 0.5 139.695 502.338)" stroke="#989EBA" stroke-opacity="0.3"/>
<path fill-rule="evenodd" clip-rule="evenodd" d="M161.349 505.207C161.499 503.482 162.152 502.909 160.267 501.379C159.02 500.362 157.649 499.757 156.355 498.921L143.91 491.838C142.752 491.049 141.627 489.941 141.16 488.625C140.201 485.872 142.73 482.973 145.945 482.256C145.894 484.459 147.748 485.772 150.613 487.159L158.052 491.368C158.446 491.582 158.705 491.749 159.078 491.997C160.756 493.065 163.305 494.215 165.445 495.759C171.53 500.13 164.975 504.573 161.349 505.207Z" fill="white" fill-opacity="0.7"/>
<path fill-rule="evenodd" clip-rule="evenodd" d="M171.164 497.804C171.177 495.555 169.371 494.27 166.353 492.814L157.98 488.09C156.255 486.994 154.645 486.455 153.308 484.999C150.313 481.755 155.692 478.674 161.97 481.941C163.049 482.485 164.389 483.141 165.347 483.775L168.652 485.671C173.712 488.192 178.737 491.565 174.67 495.772C173.909 496.571 172.713 497.433 171.143 497.838L171.164 497.804Z" fill="white" fill-opacity="0.7"/>
<path fill-rule="evenodd" clip-rule="evenodd" d="M144.425 495.89C145.084 496.368 146.015 497.095 146.873 497.518L151.236 499.993C152.655 500.893 156.768 502.763 157.42 503.889C158.255 505.357 156.61 506.623 154.736 506.985C148.409 508.25 139.478 503.736 143 497.701C143.179 497.413 143.379 497.091 143.567 496.843C144 496.359 144.076 496.091 144.425 495.89Z" fill="white" fill-opacity="0.7"/>
<path d="M184.071 486.741C183.552 486.441 183.204 486.104 183.027 485.731C182.846 485.354 182.84 484.981 183.011 484.613C183.186 484.241 183.522 483.912 184.018 483.625C184.602 483.289 185.251 483.075 185.966 482.986C186.681 482.896 187.395 482.942 188.108 483.123L187.271 483.606C186.802 483.507 186.341 483.489 185.886 483.551C185.437 483.611 185.018 483.753 184.629 483.978C184.255 484.194 184.006 484.437 183.882 484.708C183.759 484.979 183.772 485.256 183.924 485.539C184.07 485.818 184.357 486.082 184.785 486.328C185.207 486.572 185.663 486.738 186.152 486.825C186.636 486.91 187.113 486.916 187.583 486.845C188.053 486.773 188.475 486.63 188.848 486.414C189.237 486.189 189.486 485.949 189.594 485.692C189.703 485.43 189.671 485.163 189.499 484.893L190.336 484.409C190.645 484.818 190.722 485.229 190.567 485.642C190.406 486.052 190.034 486.425 189.451 486.762C188.954 487.048 188.387 487.244 187.749 487.348C187.11 487.447 186.467 487.445 185.82 487.343C185.173 487.241 184.589 487.04 184.071 486.741Z" fill="white" fill-opacity="0.7"/>
<path d="M198.506 481.481L195.057 480.961L194.213 481.449L196.387 482.704L195.689 483.108L190.371 480.037L192.098 479.04C192.503 478.806 192.912 478.65 193.325 478.569C193.744 478.486 194.14 478.472 194.512 478.527C194.884 478.583 195.22 478.697 195.52 478.87C195.886 479.082 196.102 479.33 196.167 479.616C196.237 479.899 196.105 480.189 195.772 480.487L199.343 480.998L198.506 481.481ZM193.656 481.127L194.685 480.533C195.063 480.315 195.256 480.098 195.262 479.883C195.263 479.665 195.109 479.466 194.799 479.287C194.483 479.105 194.144 479.018 193.782 479.028C193.425 479.035 193.054 479.149 192.67 479.37L191.642 479.964L193.656 481.127Z" fill="white" fill-opacity="0.7"/>
<path d="M201.552 473.582L203.121 476.5L205.127 477.658L204.429 478.062L202.422 476.903L197.36 476.002L198.136 475.554L202.15 476.347L200.777 474.029L201.552 473.582Z" fill="white" fill-opacity="0.7"/>
<path d="M210.187 470.393C210.63 470.649 210.845 470.951 210.833 471.298C210.821 471.64 210.502 471.991 209.878 472.352L208.849 472.946L211.07 474.227L210.371 474.631L205.053 471.56L206.78 470.563C207.384 470.214 207.987 470.034 208.589 470.021C209.197 470.005 209.729 470.129 210.187 470.393ZM209.306 472.021C209.695 471.797 209.898 471.583 209.914 471.379C209.93 471.176 209.783 470.985 209.473 470.806C208.817 470.427 208.11 470.456 207.353 470.893L206.324 471.487L208.277 472.615L209.306 472.021Z" fill="white" fill-opacity="0.7"/>
<path d="M215.556 465.496L216.121 465.822L214.662 466.664L219.416 469.409L218.717 469.812L213.964 467.068L212.497 467.914L211.933 467.588L215.556 465.496Z" fill="white" fill-opacity="0.7"/>
<path d="M226.978 465.105C226.481 465.391 225.914 465.587 225.276 465.691C224.632 465.792 223.984 465.793 223.331 465.694C222.679 465.589 222.093 465.387 221.574 465.088C221.056 464.788 220.708 464.451 220.531 464.078C220.355 463.698 220.357 463.324 220.537 462.955C220.713 462.584 221.049 462.255 221.545 461.968C222.047 461.678 222.619 461.483 223.263 461.382C223.901 461.277 224.544 461.276 225.192 461.378C225.839 461.48 226.425 461.682 226.949 461.985C227.473 462.287 227.823 462.626 227.999 462.999C228.176 463.373 228.176 463.746 228.001 464.117C227.82 464.486 227.479 464.815 226.978 465.105ZM226.375 464.757C226.749 464.541 226.997 464.297 227.121 464.026C227.25 463.752 227.239 463.474 227.088 463.191C226.941 462.905 226.657 462.641 226.235 462.397C225.807 462.15 225.349 461.986 224.86 461.905C224.37 461.817 223.891 461.809 223.421 461.881C222.951 461.952 222.527 462.097 222.148 462.316C221.769 462.535 221.518 462.78 221.394 463.051C221.27 463.322 221.281 463.601 221.428 463.886C221.574 464.166 221.861 464.429 222.288 464.675C222.711 464.919 223.166 465.085 223.656 465.172C224.15 465.257 224.632 465.263 225.102 465.192C225.577 465.117 226.001 464.972 226.375 464.757Z" fill="white" fill-opacity="0.7"/>
<path d="M183.6 476.375L177.96 479.631L179.779 481.881L177.998 482.909L169.896 472.833L171.844 471.708L189.278 476.397L187.497 477.425L183.6 476.375ZM181.754 475.865L172.926 473.468L177.078 478.565L181.754 475.865Z" fill="white" fill-opacity="0.7"/>
<path d="M191.64 473.458L196.166 470.844L197.531 471.632L191.316 475.22L178.465 467.801L180.153 466.826L191.64 473.458Z" fill="white" fill-opacity="0.7"/>
<path d="M193.782 458.957L195.147 459.745L189.525 462.99L193.858 465.492L198.422 462.857L199.787 463.645L195.223 466.28L201.012 469.622L199.324 470.597L186.473 463.177L193.782 458.957Z" fill="white" fill-opacity="0.7"/>
<path d="M213.458 459.136L207.818 462.393L209.637 464.642L207.856 465.671L199.754 455.594L201.702 454.47L219.136 459.158L217.355 460.186L213.458 459.136ZM211.611 458.627L202.784 456.23L206.936 461.326L211.611 458.627Z" fill="white" fill-opacity="0.7"/>
<path d="M274.605 467.45L274.606 467.45C278.074 465.457 279.573 462.98 279.562 460.709C279.551 458.436 278.026 455.951 274.522 453.95L275.018 453.081L274.522 453.949L191.973 406.775L192.469 405.907L191.973 406.775C188.486 404.782 183.849 403.757 179.164 403.757C174.478 403.757 169.855 404.782 166.392 406.774L84.3811 453.948C80.905 455.948 79.4112 458.427 79.4259 460.698C79.4406 462.971 80.9706 465.453 84.4647 467.448L84.4649 467.449L167.014 514.623C167.014 514.623 167.014 514.623 167.014 514.623C170.511 516.621 175.144 517.648 179.824 517.648C184.504 517.648 189.123 516.621 192.594 514.624L274.605 467.45Z" stroke="url(#paint19_linear_5006_23989)" stroke-width="2"/>
<g style="mix-blend-mode:color-dodge">
<path d="M109 325.474C109 319.402 115.499 315.543 120.83 318.45L155.904 337.574C158.475 338.976 160.075 341.67 160.075 344.598V494.383C160.075 500.455 153.576 504.314 148.245 501.407L113.17 482.283C110.6 480.881 109 478.187 109 475.259V325.474Z" fill="url(#paint20_linear_5006_23989)"/>
</g>
<g style="mix-blend-mode:color-dodge">
<path d="M252.074 255.474C252.074 249.402 245.576 245.543 240.245 248.45L205.17 267.574C202.599 268.976 200.999 271.67 200.999 274.598V493.383C200.999 499.455 207.498 503.314 212.829 500.407L247.904 481.283C250.475 479.881 252.074 477.187 252.074 474.259L252.074 255.474Z" fill="url(#paint21_linear_5006_23989)"/>
</g>
<g style="mix-blend-mode:plus-lighter">
<path fill-rule="evenodd" clip-rule="evenodd" d="M147.009 407.132C146.875 407.066 146.186 406.716 144.648 405.828C143.424 405.121 142.556 404.577 142.251 404.385C137.523 401.415 133.994 398.427 133.994 397.289C133.994 396.151 137.523 397.24 142.251 399.726V403.438C142.56 403.642 143.445 404.214 144.669 404.92C146.137 405.768 146.872 406.122 147.004 406.184V402.473C151.722 405.439 155.244 408.422 155.244 409.558C155.244 410.693 151.723 409.611 147.004 407.128L147.009 407.132ZM147.009 402.092V398.769L153.593 402.571V397.504L135.667 387.155V392.221L142.25 396.022V399.343C136.899 396.537 132.875 395.438 132.875 396.905C132.875 398.371 136.899 401.917 142.25 405.291V415.938L147.008 418.685V408.034C152.346 410.833 156.363 411.93 156.363 410.464C156.363 408.999 152.349 405.459 147.008 402.09L147.009 402.092Z" fill="#2EF2FF"/>
</g>
<g style="mix-blend-mode:plus-lighter">
<path fill-rule="evenodd" clip-rule="evenodd" d="M131.564 465.581C131.43 465.515 130.741 465.165 129.202 464.277C127.979 463.57 127.11 463.027 126.806 462.834C122.078 459.864 118.549 456.876 118.549 455.738C118.549 454.601 122.078 455.689 126.806 458.175V461.887C127.115 462.092 128 462.663 129.224 463.369C130.692 464.217 131.427 464.571 131.559 464.633V460.922C136.277 463.888 139.798 466.872 139.798 468.007C139.798 469.142 136.278 468.06 131.559 465.577L131.564 465.581ZM131.565 460.541V457.219L138.149 461.02V455.954L120.223 445.604V450.67L126.806 454.471V457.792C121.456 454.987 117.432 453.887 117.432 455.354C117.432 456.82 121.456 460.366 126.806 463.741V474.387L131.564 477.134V466.484C136.903 469.282 140.92 470.379 140.92 468.913C140.92 467.448 136.906 463.908 131.564 460.539L131.565 460.541Z" fill="#2EF2FF"/>
</g>
<path d="M148.325 430.126L148.174 430.629V447.716L148.325 447.976L155.194 447.253L148.325 430.126Z" fill="#2EF2FF"/>
<path d="M148.325 430.126L141.455 439.321L148.325 447.976L148.324 439.682L148.325 430.126Z" fill="#2EF2FF"/>
<path d="M148.325 449.477L148.24 449.548V455.635L148.325 455.969L155.198 448.76L148.325 449.477Z" fill="#2EF2FF"/>
<path d="M148.325 455.969V449.477L141.455 440.825L148.325 455.969Z" fill="#2EF2FF"/>
<path d="M148.325 447.976L155.194 447.253L148.324 439.682L148.325 447.976Z" fill="#2EF2FF"/>
<path d="M141.455 439.321L148.325 447.976L148.324 439.682L141.455 439.321Z" fill="#2EF2FF"/>
<path d="M120.87 365.361L120.719 365.863V382.951L120.87 383.21L127.739 382.488L120.87 365.361Z" fill="#2EF2FF"/>
<path d="M120.87 365.361L114 374.556L120.87 383.21L120.869 374.916L120.87 365.361Z" fill="#2EF2FF"/>
<path d="M120.87 384.712L120.785 384.782V390.869L120.87 391.203L127.743 383.994L120.87 384.712Z" fill="#2EF2FF"/>
<path d="M120.87 391.203V384.712L114 376.06L120.87 391.203Z" fill="#2EF2FF"/>
<path d="M120.87 383.21L127.739 382.488L120.869 374.916L120.87 383.21Z" fill="#2EF2FF"/>
<path d="M114 374.556L120.87 383.21L120.869 374.916L114 374.556Z" fill="#2EF2FF"/>
<g style="mix-blend-mode:plus-lighter">
<path fill-rule="evenodd" clip-rule="evenodd" d="M150.822 369.317C151.196 366.643 149.291 363.989 146.685 361.449L147.53 358.022L145.467 356.237L144.644 359.573C144.101 359.104 143.544 358.635 142.99 358.169L143.819 354.811L141.757 353.026L140.911 356.451C140.462 356.074 140.021 355.703 139.593 355.333L139.596 355.322L136.75 352.858L136.201 355.087C136.201 355.087 137.732 356.376 137.699 356.382C138.535 357.106 138.686 357.832 138.661 358.323L137.698 362.227C137.756 362.277 137.831 362.345 137.913 362.431L137.853 362.379C137.802 362.335 137.749 362.289 137.695 362.242L136.345 367.711C136.243 367.945 135.984 368.235 135.4 367.731C135.42 367.777 133.9 366.433 133.9 366.433L132.875 368.569L135.561 370.893C135.855 371.147 136.145 371.403 136.433 371.655L136.433 371.656C136.634 371.832 136.834 372.007 137.032 372.18L136.178 375.647L138.239 377.431L139.085 374.002C139.648 374.503 140.195 374.982 140.73 375.444L139.887 378.856L141.951 380.642L142.805 377.183C146.324 379.983 148.97 381.201 150.084 378.169C150.981 375.728 150.039 373.477 148.188 371.295C149.536 371.714 150.552 371.277 150.823 369.317L150.822 369.317L150.822 369.317ZM146.107 374.229C145.522 376.607 141.842 373.359 140.158 371.874L140.158 371.874C140.007 371.74 139.871 371.62 139.756 371.521L140.889 366.929C141.03 367.051 141.202 367.195 141.397 367.358C143.138 368.815 146.707 371.8 146.108 374.229L146.107 374.229ZM141.746 365.125C143.15 366.368 146.213 369.08 146.746 366.921L146.746 366.921C147.291 364.712 144.315 362.232 142.861 361.021C142.698 360.885 142.553 360.765 142.436 360.663L141.408 364.828C141.505 364.912 141.619 365.012 141.746 365.125Z" fill="#2EF2FF"/>
</g>
<g style="mix-blend-mode:plus-lighter">
<path fill-rule="evenodd" clip-rule="evenodd" d="M133.013 422.355C133.068 419.465 131.008 417.013 128.31 414.808L128.72 411.038L126.608 409.53L126.209 413.201C125.653 412.805 125.085 412.412 124.519 412.021L124.921 408.326L122.81 406.82L122.4 410.588C121.942 410.272 121.491 409.961 121.054 409.648L121.055 409.636L118.142 407.556L117.876 410.007C117.876 410.007 119.439 411.088 119.41 411.101C120.265 411.712 120.485 412.45 120.515 412.974L120.048 417.269C120.107 417.311 120.184 417.369 120.27 417.444L120.209 417.4C120.156 417.363 120.102 417.324 120.047 417.285L119.392 423.302C119.323 423.568 119.114 423.921 118.516 423.496C118.54 423.541 116.981 422.399 116.981 422.399L116.263 424.84L119.011 426.802C119.312 427.018 119.61 427.234 119.905 427.448L119.905 427.448C120.111 427.598 120.316 427.746 120.519 427.893L120.105 431.706L122.215 433.213L122.625 429.44C123.203 429.866 123.763 430.271 124.311 430.662L123.901 434.416L126.014 435.924L126.428 432.118C130.003 434.431 132.594 435.233 133.297 431.83C133.863 429.091 132.742 426.888 130.783 424.923C132.081 425.12 132.977 424.472 133.014 422.356L133.013 422.355L133.013 422.355ZM129.172 428.399C128.889 431.014 125.115 428.259 123.389 426.999L123.389 426.999C123.233 426.885 123.095 426.784 122.977 426.7L123.527 421.648C123.671 421.751 123.846 421.871 124.045 422.008C125.822 423.227 129.463 425.726 129.172 428.399L129.172 428.399ZM124.125 419.588C125.565 420.644 128.707 422.946 128.966 420.57L128.966 420.57C129.23 418.14 126.194 416.067 124.712 415.054C124.545 414.941 124.398 414.84 124.277 414.754L123.779 419.336C123.878 419.407 123.995 419.492 124.125 419.588Z" fill="#2EF2FF"/>
</g>
<g style="mix-blend-mode:plus-lighter">
<path fill-rule="evenodd" clip-rule="evenodd" d="M240.009 393.476C239.875 393.565 239.186 394.011 237.648 394.899C236.424 395.605 235.556 396.064 235.251 396.223C230.523 398.713 226.994 399.8 226.994 398.662C226.994 397.524 230.523 394.538 235.251 391.564V395.277C235.56 395.124 236.445 394.673 237.669 393.967C239.137 393.119 239.872 392.624 240.004 392.534V388.822C244.722 386.341 248.244 385.259 248.244 386.394C248.244 387.529 244.723 390.512 240.004 393.478L240.009 393.476ZM240.009 388.436V385.113L246.593 381.312V376.246L228.667 386.595V391.662L235.25 387.861V391.182C229.899 394.555 225.875 398.102 225.875 399.569C225.875 401.035 229.899 399.935 235.25 397.131V407.777L240.008 405.03V394.38C245.346 391.014 249.363 387.472 249.363 386.006C249.363 384.541 245.349 385.636 240.008 388.435L240.009 388.436Z" fill="#2EF2FF"/>
</g>
<g style="mix-blend-mode:plus-lighter">
<path fill-rule="evenodd" clip-rule="evenodd" d="M224.564 469.758C224.43 469.846 223.741 470.292 222.202 471.18C220.979 471.886 220.11 472.345 219.806 472.505C215.078 474.994 211.549 476.081 211.549 474.943C211.549 473.806 215.078 470.819 219.806 467.845V471.558C220.115 471.405 221 470.955 222.224 470.248C223.692 469.401 224.427 468.906 224.559 468.815V465.104C229.277 462.622 232.798 461.54 232.798 462.675C232.798 463.81 229.278 466.793 224.559 469.759L224.564 469.758ZM224.565 464.717V461.395L231.149 457.593V452.527L213.223 462.877V467.943L219.806 464.142V467.463C214.456 470.836 210.432 474.383 210.432 475.85C210.432 477.317 214.456 476.216 219.806 473.412V484.058L224.564 481.311V470.661C229.903 467.295 233.92 463.753 233.92 462.288C233.92 460.822 229.906 461.917 224.564 464.716L224.565 464.717Z" fill="#2EF2FF"/>
</g>
<path d="M241.325 414.952L241.174 415.627V432.715L241.325 432.801L248.194 424.147L241.325 414.952Z" fill="#2EF2FF"/>
<path d="M241.325 414.952L234.455 432.079L241.325 432.801L241.324 424.508L241.325 414.952Z" fill="#2EF2FF"/>
<path d="M241.325 434.303L241.24 434.471V440.558L241.325 440.794L248.198 425.648L241.325 434.303Z" fill="#2EF2FF"/>
<path d="M241.325 440.794V434.303L234.455 433.583L241.325 440.794Z" fill="#2EF2FF"/>
<path d="M241.325 432.801L248.194 424.147L241.324 424.508L241.325 432.801Z" fill="#2EF2FF"/>
<path d="M234.455 432.079L241.325 432.801L241.324 424.508L234.455 432.079Z" fill="#2EF2FF"/>
<path d="M213.87 381.887L213.719 382.563V399.651L213.87 399.737L220.739 391.083L213.87 381.887Z" fill="#2EF2FF"/>
<path d="M213.87 381.887L207 399.015L213.87 399.737L213.869 391.443L213.87 381.887Z" fill="#2EF2FF"/>
<path d="M213.87 401.238L213.785 401.406V407.493L213.87 407.73L220.743 392.584L213.87 401.238Z" fill="#2EF2FF"/>
<path d="M213.87 407.73V401.238L207 400.519L213.87 407.73Z" fill="#2EF2FF"/>
<path d="M213.87 399.737L220.739 391.083L213.869 391.443L213.87 399.737Z" fill="#2EF2FF"/>
<path d="M207 399.015L213.87 399.737L213.869 391.443L207 399.015Z" fill="#2EF2FF"/>
<g style="mix-blend-mode:plus-lighter">
<path fill-rule="evenodd" clip-rule="evenodd" d="M243.822 351.256C244.196 348.15 242.291 347.696 239.685 348.164L240.53 343.761L238.467 344.359L237.644 348.646C237.101 348.803 236.544 348.977 235.99 349.151L236.819 344.836L234.757 345.433L233.911 349.834C233.462 349.976 233.021 350.114 232.593 350.238L232.596 350.224L229.75 351.046L229.201 353.909C229.201 353.909 230.732 353.43 230.699 353.473C231.535 353.232 231.686 353.783 231.661 354.304L230.698 359.32C230.756 359.304 230.831 359.285 230.913 359.275L230.853 359.293C230.802 359.308 230.749 359.323 230.695 359.339L229.345 366.366C229.243 366.718 228.984 367.308 228.4 367.478C228.42 367.501 226.9 367.912 226.9 367.912L225.875 371.231L228.561 370.454C228.855 370.369 229.145 370.289 229.433 370.209L229.433 370.209C229.634 370.154 229.834 370.098 230.032 370.042L229.178 374.495L231.239 373.899L232.085 369.493C232.648 369.344 233.195 369.192 233.73 369.036L232.887 373.422L234.951 372.824L235.805 368.379C239.324 367.116 241.97 365.278 243.084 360.96C243.981 357.483 243.039 356.32 241.188 356.276C242.536 355.138 243.552 353.527 243.823 351.255L243.822 351.255L243.822 351.256ZM239.107 361.613C238.522 364.666 234.842 365.668 233.158 366.127L233.158 366.127C233.007 366.168 232.871 366.205 232.756 366.238L233.889 360.338C234.03 360.298 234.202 360.243 234.397 360.181C236.138 359.627 239.707 358.491 239.108 361.613L239.107 361.613ZM234.746 357.544C236.15 357.166 239.213 356.341 239.746 353.566L239.746 353.566C240.291 350.728 237.315 351.685 235.861 352.153C235.698 352.205 235.553 352.252 235.436 352.286L234.408 357.637C234.505 357.608 234.619 357.578 234.746 357.544Z" fill="#2EF2FF"/>
</g>
<g style="mix-blend-mode:plus-lighter">
<path fill-rule="evenodd" clip-rule="evenodd" d="M226.013 424.86C226.068 421.906 224.008 421.833 221.31 422.743L221.72 418.5L219.608 419.431L219.209 423.563C218.653 423.808 218.085 424.071 217.519 424.334L217.921 420.175L215.81 421.105L215.4 425.348C214.942 425.561 214.491 425.769 214.054 425.963L214.055 425.95L211.142 427.233L210.876 429.991C210.876 429.991 212.439 429.267 212.41 429.314C213.265 428.937 213.485 429.421 213.515 429.91L213.048 434.744C213.107 434.718 213.184 434.687 213.27 434.663L213.209 434.69C213.156 434.713 213.102 434.737 213.047 434.762L212.392 441.535C212.323 441.88 212.114 442.475 211.516 442.74C211.54 442.757 209.981 443.417 209.981 443.417L209.263 446.687L212.011 445.475C212.312 445.342 212.61 445.215 212.905 445.088L212.905 445.088C213.111 445 213.316 444.912 213.519 444.824L213.105 449.116L215.215 448.186L215.625 443.939C216.203 443.699 216.763 443.457 217.311 443.215L216.901 447.442L219.014 446.51L219.428 442.226C223.003 440.411 225.594 438.222 226.297 434.007C226.863 430.614 225.742 429.706 223.783 430.003C225.081 428.7 225.977 427.019 226.014 424.859L226.013 424.859L226.013 424.86ZM222.172 435.34C221.889 438.282 218.115 439.884 216.389 440.617L216.389 440.617C216.233 440.683 216.095 440.742 215.977 440.794L216.527 435.108C216.671 435.044 216.846 434.962 217.045 434.869C218.822 434.036 222.463 432.331 222.172 435.339L222.172 435.34ZM217.125 432.356C218.565 431.749 221.707 430.424 221.966 427.749L221.966 427.749C222.23 425.014 219.194 426.446 217.712 427.145C217.545 427.224 217.398 427.294 217.277 427.347L216.779 432.504C216.878 432.46 216.995 432.411 217.125 432.356Z" fill="#2EF2FF"/>
</g>
<path d="M278.429 446.245L278.429 446.245C282.042 444.156 283.618 441.551 283.606 439.148C283.595 436.744 281.992 434.132 278.342 432.033L278.84 431.166L278.342 432.033L192.491 382.665L192.99 381.798L192.491 382.665C188.858 380.575 184.029 379.502 179.152 379.502C174.275 379.502 169.46 380.575 165.852 382.663L80.5607 432.032C76.9397 434.128 75.3694 436.735 75.3849 439.137C75.4003 441.542 77.008 444.152 80.6477 446.244L80.648 446.244L166.499 495.612C170.143 497.708 174.968 498.783 179.839 498.783C184.71 498.783 189.52 497.707 193.137 495.614L278.429 446.245Z" stroke="url(#paint22_linear_5006_23989)" stroke-width="2"/>
<path d="M282.251 423.691L282.251 423.69C286.009 421.505 287.661 418.772 287.649 416.238C287.637 413.703 285.956 410.962 282.161 408.768L282.661 407.902L282.16 408.768L193.008 357.205L193.508 356.339L193.008 357.205C189.228 355.018 184.207 353.896 179.139 353.896C174.07 353.896 169.064 355.018 165.31 357.203L76.7382 408.766C72.972 410.959 71.3257 413.694 71.3419 416.227C71.3581 418.764 73.0432 421.501 76.8286 423.689L76.8289 423.689L165.981 475.252C165.981 475.252 165.981 475.252 165.981 475.252C169.773 477.444 174.789 478.568 179.852 478.568C184.914 478.568 189.916 477.444 193.679 475.253L282.251 423.691Z" stroke="url(#paint23_linear_5006_23989)" stroke-width="2"/>
<path d="M287.387 403.832L287.387 403.832C291.315 401.548 293.051 398.687 293.039 396.026C293.026 393.362 291.26 390.493 287.292 388.201L287.792 387.335L287.292 388.2L194.287 334.444L194.759 333.627L194.287 334.443C190.336 332.159 185.09 330.989 179.797 330.989C174.504 330.989 169.273 332.159 165.349 334.442L72.9496 388.199C69.0126 390.49 67.2819 393.354 67.299 396.015C67.316 398.679 69.0871 401.545 73.0441 403.83L73.0444 403.83L166.049 457.587C170.012 459.878 175.253 461.051 180.541 461.051C185.828 461.051 191.054 459.877 194.987 457.589L287.387 403.832Z" stroke="url(#paint24_linear_5006_23989)" stroke-width="2"/>
<path d="M287.276 386.49L287.277 386.49C291.277 384.158 293.052 381.233 293.039 378.506C293.026 375.777 291.221 372.845 287.18 370.503L287.681 369.638L287.18 370.503L192.524 315.649L193.025 314.784L192.524 315.649C188.499 313.317 183.158 312.121 177.769 312.121C172.38 312.121 167.053 313.317 163.056 315.648L69.0168 370.502C65.0071 372.841 63.2386 375.769 63.256 378.495C63.2734 381.225 65.0831 384.155 69.113 386.488L69.1132 386.489L163.769 441.343C163.769 441.343 163.769 441.343 163.769 441.343C167.806 443.681 173.143 444.879 178.526 444.879C183.909 444.879 189.23 443.681 193.237 441.344L287.276 386.49Z" stroke="url(#paint25_linear_5006_23989)" stroke-width="2"/>
<path d="M292.522 365.106L292.523 365.106C296.621 362.725 298.442 359.735 298.429 356.946C298.416 354.154 296.564 351.157 292.424 348.766L292.924 347.9L292.424 348.766L195.566 292.815L196.067 291.949L195.566 292.815C191.443 290.433 185.973 289.213 180.455 289.213C174.937 289.213 169.482 290.433 165.388 292.814L69.1611 348.765C65.0531 351.153 63.2382 354.146 63.256 356.935C63.2739 359.727 65.131 362.721 69.2596 365.104L69.2598 365.105L166.117 421.056C166.117 421.056 166.117 421.056 166.117 421.056C170.252 423.444 175.718 424.666 181.229 424.666C186.741 424.666 192.191 423.444 196.296 421.057L292.522 365.106Z" stroke="url(#paint26_linear_5006_23989)" stroke-width="2"/>
<path d="M292.522 344.893L292.523 344.893C296.621 342.512 298.442 339.523 298.429 336.733C298.416 333.942 296.564 330.944 292.424 328.553L292.924 327.687L292.424 328.553L195.566 272.602L196.067 271.736L195.566 272.602C191.443 270.22 185.973 269.001 180.455 269.001C174.937 269.001 169.482 270.22 165.388 272.601L69.1611 328.552C65.0531 330.94 63.2382 333.933 63.256 336.722C63.2739 339.514 65.131 342.508 69.2596 344.891L69.2598 344.892L166.117 400.843C166.117 400.843 166.117 400.843 166.117 400.843C170.252 403.231 175.718 404.453 181.229 404.453C186.741 404.453 192.191 403.231 196.296 400.844L292.522 344.893Z" stroke="url(#paint27_linear_5006_23989)" stroke-width="2"/>
<path d="M209.271 275.561C235.983 268.857 263.776 241.892 271.344 215.331C275.137 202.026 273.135 191.349 266.835 184.846L260.222 178.061L260.583 180.424C254.426 177.516 246.285 176.968 236.684 179.379C209.972 186.08 182.179 213.045 174.608 239.606C172.008 248.732 172.134 256.622 174.502 262.778L172.334 263.135L179.048 270.019L179.132 270.103L179.404 270.383V270.363C185.711 276.628 196.131 278.858 209.271 275.561Z" fill="#071036"/>
<path d="M202.578 268.701C175.865 275.404 160.347 259.307 167.918 232.746C175.487 206.187 203.28 179.222 229.994 172.519C256.708 165.815 272.225 181.913 264.654 208.471C257.085 235.032 229.292 262 202.578 268.701Z" fill="url(#paint28_linear_5006_23989)"/>
<path d="M235.384 192.867L233.99 193.966L206.272 227.958L206.43 228.374L234.089 222.336L235.384 192.867Z" fill="#03B5C1"/>
<path d="M235.381 192.869L193.978 215.761L206.427 228.376L219.881 211.878L235.381 192.869Z" fill="#2EF2FF"/>
<path d="M203.995 231.362L203.555 231.559L193.682 243.667L193.466 244.275L231.663 225.331L203.995 231.362Z" fill="#03B5C1"/>
<path d="M193.465 244.273L203.994 231.361L191.541 218.75L193.465 244.273Z" fill="#2EF2FF"/>
<path d="M206.427 228.374L234.087 222.336L219.881 211.875L206.427 228.374Z" fill="#006066"/>
<path d="M193.978 215.76L206.427 228.375L219.881 211.877L193.978 215.76Z" fill="#00848C"/>
<path d="M238.591 177.33C235.479 177.33 232.118 177.773 228.562 178.663C205.162 184.536 180.723 208.249 174.09 231.515C170.912 242.66 172.265 252.014 177.9 257.856C183.528 263.697 192.806 265.364 204.012 262.558C227.414 256.681 251.854 232.974 258.484 209.705C261.66 198.558 260.309 189.206 254.674 183.362C250.831 179.374 245.288 177.33 238.591 177.33ZM193.981 265.129C186.946 265.129 181.096 262.956 177.011 258.718C171.06 252.544 169.601 242.762 172.902 231.178C179.646 207.528 204.478 183.432 228.264 177.464C239.922 174.536 249.614 176.329 255.563 182.503C261.514 188.676 262.973 198.456 259.672 210.042C252.93 233.693 228.098 257.789 204.311 263.756C200.656 264.673 197.194 265.129 193.981 265.129Z" fill="#2EF2FF"/>
<path d="M218.635 102.666C234.483 85.9048 241.973 54.3452 235.36 32.1768C232.048 21.0712 225.826 14.4316 218.449 12.6749L210.723 10.8599L212.042 12.3668C206.384 13.0844 200.387 16.3635 194.691 22.3888C178.841 39.1486 171.351 70.7082 177.963 92.8777C180.235 100.494 183.877 106.011 188.321 109.292L186.95 110.521L194.793 112.36L194.89 112.382L195.208 112.457L195.199 112.443C202.474 114.029 210.838 110.911 218.635 102.666Z" fill="#071036"/>
<path d="M210.82 100.834C194.969 117.597 176.761 113.214 170.15 91.0442C163.538 68.8776 171.027 37.318 186.878 20.5553C202.728 3.79267 220.936 8.17559 227.546 30.3433C234.16 52.5117 226.671 84.0731 210.82 100.834Z" fill="url(#paint29_linear_5006_23989)"/>
<path d="M199.846 32.4999L199.357 33.9041L195.084 70.393L195.383 70.6158L212.2 53.8974L199.846 32.4999Z" fill="#03B5C1"/>
<path d="M199.845 32.5022L180.908 67.313L195.382 70.6182L197.456 52.9074L199.845 32.5022Z" fill="#2EF2FF"/>
<path d="M195.009 73.8225L194.787 74.1596L193.265 87.1575L193.386 87.684L211.836 57.1051L195.009 73.8225Z" fill="#03B5C1"/>
<path d="M193.384 87.6829L195.007 73.8214L180.533 70.5215L193.384 87.6829Z" fill="#2EF2FF"/>
<path d="M195.381 70.617L212.199 53.8985L197.455 52.9062L195.381 70.617Z" fill="#006066"/>
<path d="M180.907 67.3122L195.38 70.6173L197.454 52.9065L180.907 67.3122Z" fill="#00848C"/>
<path d="M195.116 20.0809C192.918 21.4818 190.744 23.3083 188.633 25.5375C174.749 40.2219 168.164 67.9742 173.954 87.3941C176.728 96.6971 181.895 102.695 188.506 104.283C195.111 105.875 202.414 102.876 209.066 95.8478C222.949 81.1605 229.537 53.4117 223.744 33.9911C220.967 24.6875 215.803 18.6905 209.191 17.1001C204.682 16.0131 199.846 17.0656 195.116 20.0809ZM203.138 102.18C198.169 105.348 193.059 106.447 188.266 105.293C181.283 103.612 175.847 97.3592 172.964 87.6909C167.079 67.9498 173.769 39.7495 187.882 24.8251C194.798 17.508 202.451 14.4108 209.432 16.0927C216.415 17.7734 221.85 24.0243 224.734 33.6943C230.621 53.4343 223.931 81.6346 209.816 96.5601C207.648 98.853 205.408 100.734 203.138 102.18Z" fill="#2EF2FF"/>
<path d="M165.677 342.313C143.287 342.805 115.687 327.64 104.035 308.439C98.1962 298.821 97.4687 290.017 101.009 283.562L104.735 276.817L104.961 278.748C109.163 275.142 115.43 272.961 123.478 272.785C145.868 272.291 173.468 287.455 185.122 306.655C189.125 313.253 190.725 319.467 190.193 324.805L191.97 324.618L188.186 331.462L188.138 331.546L187.985 331.824L187.981 331.808C184.384 338.079 176.691 342.07 165.677 342.313Z" fill="#071036"/>
<path d="M169.448 335.493C191.841 335.001 200.545 319.037 188.891 299.837C177.239 280.638 149.639 265.473 127.247 265.966C104.855 266.459 96.1498 282.422 107.804 301.621C119.456 320.822 147.056 335.988 169.448 335.493Z" fill="url(#paint30_linear_5006_23989)"/>
<path d="M121.542 271.588C123.982 270.918 126.713 270.543 129.693 270.475C149.308 270.044 173.578 283.38 183.787 300.199C188.678 308.255 189.63 315.882 186.468 321.676C183.312 327.468 176.395 330.772 167.003 330.983C147.385 331.412 123.117 318.08 112.909 301.259C108.019 293.2 107.066 285.576 110.227 279.78C112.382 275.825 116.29 273.029 121.542 271.588ZM175.423 330.84C180.94 329.326 185.06 326.363 187.351 322.16C190.689 316.038 189.728 308.052 184.646 299.679C174.267 282.583 149.606 269.031 129.669 269.47C119.896 269.683 112.681 273.176 109.345 279.297C106.006 285.419 106.967 293.403 112.05 301.779C122.427 318.875 147.087 332.427 167.027 331.987C170.09 331.92 172.903 331.532 175.423 330.84Z" fill="#2EF2FF"/>
<path fill-rule="evenodd" clip-rule="evenodd" d="M153.701 299.328C153.654 299.484 153.391 300.277 152.621 301.94C152.008 303.264 151.5 304.161 151.318 304.473C148.534 309.346 145.118 312.211 143.144 311.071C141.169 309.931 141.29 305.164 143.235 299.806L149.676 303.525C149.875 303.217 150.424 302.32 151.036 300.997C151.771 299.409 152.017 298.543 152.059 298.386L145.62 294.668C148.404 289.809 151.816 286.952 153.785 288.09C155.755 289.227 155.641 293.986 153.696 299.331L153.701 299.328ZM144.949 294.277L139.178 290.945L142.468 283.82L133.668 278.739L124.711 298.138L133.511 303.219L136.8 296.095L142.569 299.426C140.389 305.501 140.504 311.083 143.051 312.553C145.599 314.024 149.733 310.896 152.901 305.391L171.394 316.068L173.771 310.919L155.272 300.238C157.446 294.176 157.33 288.603 154.784 287.133C152.239 285.664 148.11 288.782 144.946 294.277L144.949 294.277Z" fill="#2EF2FF"/>
<g opacity="0.2">
<path d="M91.2177 40.9424C90.9825 40.9534 90.7552 40.9847 90.5216 41.0051C90.1751 41.0333 89.8255 41.0521 89.4837 41.0976C89.2313 41.1305 88.9883 41.1854 88.7374 41.2277C88.4223 41.281 88.104 41.3249 87.7936 41.3924C87.549 41.4457 87.3107 41.5193 87.0709 41.5805C86.7636 41.6604 86.4516 41.7294 86.149 41.8219C85.9091 41.8956 85.6755 41.9912 85.4404 42.0728C85.144 42.1762 84.8461 42.2703 84.5561 42.3863C84.3162 42.4835 84.0842 42.6027 83.8459 42.7093C83.5699 42.8332 83.2893 42.9476 83.0181 43.084C82.7798 43.2047 82.5493 43.3458 82.3157 43.4759C82.0492 43.6249 81.778 43.7629 81.5161 43.9243L91.1283 38.0012L91.1644 37.9777C91.4137 37.8256 91.6739 37.6939 91.9279 37.5528C92.1615 37.4227 92.392 37.2816 92.6303 37.1609C92.9015 37.0245 93.1806 36.91 93.4565 36.7861C93.6948 36.6795 93.9269 36.5619 94.1683 36.4647C94.4583 36.3471 94.7562 36.2531 95.051 36.1496C95.2877 36.0681 95.5213 35.974 95.7612 35.8988C96.0638 35.8063 96.3758 35.7357 96.6831 35.6573C96.9229 35.5946 97.1612 35.5225 97.4042 35.4692C97.7147 35.4002 98.0345 35.3579 98.3496 35.3046C98.5989 35.2622 98.8435 35.2073 99.0959 35.1744C99.4095 35.1337 99.7293 35.1164 100.048 35.0882C100.309 35.0662 100.567 35.0318 100.83 35.0192C101.187 35.0004 101.55 35.0082 101.912 35.0082C102.144 35.0082 102.373 34.9957 102.605 35.002C103.204 35.0208 103.809 35.0631 104.419 35.129C105.228 35.2152 106.049 35.3594 106.878 35.5319L107.178 35.5805L107.429 35.6495C108.197 35.8235 108.971 36.0273 109.754 36.2766L110.038 36.377C110.746 36.609 111.46 36.8771 112.175 37.1718L112.508 37.2957L112.788 37.4274C113.507 37.7394 114.23 38.0717 114.959 38.4449L115.064 38.4966C115.824 38.8885 116.588 39.3276 117.355 39.7869L117.618 39.9359C118.008 40.1742 118.4 40.4234 118.792 40.679C119.487 41.1321 120.17 41.6103 120.849 42.1072C121.069 42.2672 121.283 42.4381 121.503 42.6027C121.961 42.9492 122.415 43.2988 122.867 43.6641L123.159 43.8914L123.433 44.136C124.374 44.9183 125.302 45.7336 126.208 46.5928L126.496 46.8781C127.407 47.7514 128.298 48.6591 129.17 49.6045L129.3 49.7378L129.358 49.8036C129.972 50.4793 130.579 51.1723 131.176 51.8809C131.341 52.0769 131.502 52.2807 131.665 52.4799C132.098 53.0051 132.526 53.535 132.948 54.0759C133.153 54.3393 133.352 54.6058 133.555 54.8723C133.936 55.374 134.309 55.8804 134.677 56.3947C134.876 56.6722 135.075 56.9497 135.271 57.2287C135.66 57.7869 136.041 58.3513 136.421 58.9219C136.538 59.1007 136.662 59.2716 136.78 59.4519L136.882 59.6181C137.437 60.4725 137.977 61.3411 138.503 62.2237C138.617 62.415 138.725 62.611 138.84 62.8022C139.252 63.5093 139.658 64.2227 140.055 64.9455C140.212 65.2339 140.368 65.5224 140.524 65.8125C140.894 66.5039 141.256 67.2031 141.607 67.9086C141.729 68.1532 141.855 68.3946 141.975 68.6407C142.433 69.5752 142.878 70.5206 143.306 71.4738C143.389 71.6588 143.466 71.8454 143.546 72.0319C143.891 72.8158 144.227 73.6044 144.55 74.3977C144.675 74.705 144.796 75.0123 144.918 75.3212C145.207 76.0518 145.486 76.7871 145.755 77.5255C145.854 77.7967 145.958 78.0648 146.053 78.3376C146.404 79.3269 146.741 80.3225 147.058 81.3227C147.11 81.4826 147.154 81.6457 147.204 81.8056C147.467 82.6553 147.72 83.5051 147.957 84.3595C148.046 84.6762 148.129 84.9929 148.214 85.3096C148.413 86.0591 148.602 86.8116 148.781 87.5642C148.85 87.8526 148.924 88.1411 148.99 88.4311C149.222 89.4471 149.438 90.4646 149.631 91.4821L149.695 91.8552C149.863 92.7551 150.012 93.6535 150.148 94.5518C150.197 94.8685 150.239 95.1837 150.282 95.4988C150.387 96.2482 150.479 96.9945 150.561 97.7423C150.594 98.0402 150.63 98.3412 150.659 98.6391C150.758 99.655 150.841 100.668 150.899 101.677L150.907 101.881C150.957 102.822 150.985 103.758 150.998 104.691C151.001 104.997 151 105.301 151 105.606C151.001 106.337 150.99 107.065 150.965 107.789C150.956 108.087 150.948 108.385 150.934 108.682C150.888 109.667 150.826 110.648 150.733 111.619C149.531 124.284 144.579 133.261 137.495 137.626L127.882 143.549C134.967 139.184 139.92 130.208 141.122 117.542C141.215 116.572 141.276 115.59 141.322 114.604C141.336 114.308 141.344 114.01 141.353 113.712C141.378 112.988 141.389 112.26 141.389 111.53C141.389 111.225 141.391 110.92 141.387 110.614C141.375 109.681 141.345 108.745 141.295 107.804L141.287 107.601C141.231 106.593 141.146 105.578 141.047 104.564C141.017 104.264 140.983 103.965 140.948 103.665C140.867 102.919 140.776 102.171 140.671 101.424C140.627 101.107 140.585 100.792 140.538 100.475C140.401 99.5766 140.251 98.6783 140.085 97.7784L140.019 97.4068C139.826 96.3877 139.609 95.3702 139.377 94.3527C139.312 94.0642 139.24 93.7758 139.171 93.4873C138.99 92.7347 138.802 91.9822 138.601 91.2328C138.517 90.9161 138.434 90.5994 138.344 90.2827C138.108 89.4298 137.857 88.5785 137.593 87.7303C137.543 87.5688 137.498 87.4058 137.448 87.2459C137.131 86.2456 136.792 85.2501 136.441 84.2592C136.345 83.9896 136.242 83.7199 136.145 83.4487C135.873 82.7102 135.596 81.9749 135.307 81.2443C135.185 80.9355 135.063 80.6282 134.937 80.3209C134.615 79.526 134.281 78.7374 133.936 77.9551C133.854 77.7701 133.777 77.5819 133.694 77.3969C133.268 76.4437 132.822 75.4983 132.365 74.5639C132.244 74.3178 132.119 74.0763 131.996 73.8318C131.644 73.1263 131.281 72.4286 130.913 71.7356C130.756 71.4455 130.602 71.1571 130.444 70.8686C130.047 70.1459 129.641 69.4325 129.228 68.727C129.115 68.5341 129.005 68.3382 128.892 68.1469C128.365 67.2642 127.824 66.3957 127.272 65.5412C127.119 65.306 126.962 65.0771 126.808 64.8451C126.431 64.2744 126.048 63.71 125.659 63.1534C125.463 62.8728 125.266 62.5969 125.067 62.3194C124.697 61.8036 124.322 61.2956 123.942 60.7939C123.742 60.529 123.541 60.2624 123.337 60.0006C122.912 59.4566 122.483 58.922 122.047 58.3936C121.886 58.1976 121.729 57.9985 121.567 57.8057C120.968 57.097 120.362 56.4009 119.744 55.7252L119.56 55.5308C118.687 54.5838 117.795 53.6745 116.884 52.7997L116.597 52.5175C115.69 51.6568 114.761 50.8415 113.821 50.0576C113.633 49.9008 113.446 49.7424 113.256 49.5888C112.805 49.2235 112.349 48.8723 111.889 48.5243C111.671 48.3597 111.456 48.1903 111.237 48.0304C110.558 47.535 109.875 47.0553 109.182 46.6022C108.702 46.2886 108.222 45.9985 107.744 45.7116C106.977 45.2507 106.214 44.8133 105.455 44.4198L105.347 44.3696C104.619 43.9949 103.895 43.661 103.175 43.3505C102.972 43.2612 102.768 43.1781 102.564 43.095C101.847 42.8018 101.134 42.5337 100.429 42.3001L100.142 42.1998C99.3593 41.9505 98.5848 41.7467 97.815 41.5711C97.6331 41.5303 97.4513 41.4927 97.2694 41.4551C96.4401 41.2826 95.617 41.1383 94.808 41.0521C94.1965 40.9863 93.5914 40.9439 92.9924 40.9267L92.5754 40.9298C92.1208 40.9236 91.6661 40.9204 91.2177 40.9424Z" fill="url(#paint31_linear_5006_23989)"/>
<path d="M94.8083 41.0521C80.9803 39.5642 70.1389 50.3303 68.2779 69.931C65.8039 95.9675 80.096 127.727 100.219 140.871C105.19 144.124 110.052 145.933 114.592 146.423C128.419 147.909 139.26 137.143 141.124 117.542C143.597 91.5072 129.303 59.7482 109.182 46.6021C104.212 43.3505 99.3471 41.5397 94.8083 41.0521Z" fill="#1D2D6A"/>
<path d="M118.053 83.3966L123.514 86.5497L112.149 93.0269C108.033 95.37 101.36 91.5173 97.241 84.4198L85.8711 64.8164L91.3368 67.9721L99.9716 82.8623C101.23 85.0254 102.925 86.8096 104.692 87.8295C106.458 88.8493 108.153 89.0228 109.412 88.3125L118.053 83.3966Z" fill="#2EF2FF"/>
<path d="M91.2658 104.189L85.8008 101.034L97.24 94.519C101.356 92.1759 108.029 96.0286 112.148 103.126L123.587 122.85L118.126 119.697L109.417 104.684C108.159 102.521 106.464 100.736 104.697 99.7164C102.931 98.6966 101.235 98.5231 99.9773 99.2335L91.2658 104.189Z" fill="#2EF2FF"/>
<path d="M95.6626 45.6157L95.5858 46.3369C94.8379 46.2553 94.101 46.2161 93.3751 46.2161C87.8204 46.2224 82.9634 48.5318 79.2336 52.9091C75.5085 57.288 72.9388 63.7693 72.1518 72.0614C71.984 73.8362 71.9009 75.6407 71.9009 77.4688C71.8994 88.6331 74.9801 100.594 80.1695 111.12C85.3543 121.646 92.6493 130.73 100.999 136.181C105.464 139.102 109.799 140.706 113.81 141.137C114.558 141.217 115.295 141.258 116.019 141.258C121.577 141.252 126.434 138.942 130.164 134.565C133.889 130.185 136.458 123.705 137.244 115.411C137.413 113.636 137.495 111.83 137.495 110.002C137.496 98.8379 134.416 86.8772 129.228 76.3525C124.041 65.8263 116.746 56.7424 108.396 51.2911C103.934 48.3719 99.5962 46.7664 95.5858 46.3369L95.6626 45.6157L95.741 44.8961C100.023 45.357 104.571 47.0596 109.188 50.0808C117.827 55.7265 125.245 65.0047 130.526 75.7128C135.803 86.4241 138.942 98.5714 138.943 110.002C138.943 111.873 138.859 113.724 138.685 115.548C137.877 124.061 135.235 130.832 131.267 135.503C127.304 140.173 121.988 142.711 116.019 142.705C115.241 142.705 114.453 142.663 113.655 142.576C109.375 142.117 104.826 140.414 100.208 137.393C91.569 131.746 84.1502 122.469 78.8698 111.76C73.5926 101.049 70.4554 88.898 70.4539 77.4688C70.4539 75.5984 70.5369 73.7468 70.711 71.925C71.5199 63.4118 74.1617 56.6421 78.1298 51.9716C82.0917 47.3011 87.4081 44.7628 93.3751 44.7675C94.1543 44.7675 94.943 44.8114 95.741 44.8961L95.6626 45.6157Z" fill="#0D1B27"/>
</g>
<path d="M121.651 214.472C96.7511 208.223 70.8425 183.087 63.787 158.326C60.2512 145.923 62.1181 135.97 67.9904 129.908L74.1551 123.583L73.819 125.786C79.5578 123.075 87.1473 122.565 96.0973 124.812C120.998 131.058 146.906 156.195 153.964 180.955C156.388 189.462 156.27 196.818 154.063 202.556L156.084 202.889L149.825 209.306L149.747 209.385L149.494 209.646V209.627C143.614 215.467 133.9 217.546 121.651 214.472Z" fill="#071036"/>
<path d="M127.89 208.077C152.793 214.326 167.258 199.32 160.2 174.56C153.145 149.802 127.236 124.666 102.334 118.417C77.4311 112.168 62.9656 127.174 70.0234 151.932C77.0789 176.692 102.987 201.831 127.89 208.077Z" fill="url(#paint32_linear_5006_23989)"/>
<path fill-rule="evenodd" clip-rule="evenodd" d="M97.1112 150.362L98.9702 144.339L124.847 152.994L122.888 158.904L97.1112 150.362ZM94.1394 159.334L95.9984 153.311L137.416 167.116L135.457 173.027L94.1394 159.334ZM130.053 154.639L128.194 160.662L138.431 164.054L140.39 158.144L130.053 154.639ZM91.1668 168.306L93.0258 162.284L134.443 176.089L132.484 181.999L91.1668 168.306Z" fill="#2EF2FF"/>
<path d="M94.3184 122.9C97.2188 122.9 100.352 123.314 103.667 124.143C125.48 129.618 148.262 151.723 154.446 173.411C157.408 183.801 156.147 192.521 150.894 197.966C145.647 203.411 136.999 204.966 126.553 202.349C104.737 196.871 81.9546 174.772 75.7738 153.08C72.8135 142.689 74.0727 133.971 79.3257 128.523C82.9076 124.806 88.0755 122.9 94.3184 122.9ZM135.903 204.746C142.462 204.746 147.915 202.721 151.722 198.77C157.27 193.015 158.63 183.896 155.553 173.097C149.266 151.051 126.118 128.588 103.945 123.025C93.0776 120.295 84.0424 121.967 78.497 127.722C72.9493 133.477 71.5889 142.594 74.6666 153.394C80.9509 175.441 104.099 197.904 126.274 203.467C129.681 204.321 132.908 204.746 135.903 204.746Z" fill="#2EF2FF"/>
<g opacity="0.3">
<path d="M317.501 609.559L294 595.949V568.729L317.501 582.338V609.559Z" fill="#213584"/>
<path d="M341.001 595.949L317.502 609.559V582.338L341.001 568.729V595.949Z" fill="#071036"/>
<path d="M317.501 582.338L294 568.729L317.501 555.119L340.999 568.729L317.501 582.338Z" fill="#304DC0"/>
<path d="M317.501 582.337L294 568.728V569.908L317.501 583.52L340.999 569.908V568.728L317.501 582.337Z" fill="#657BD2"/>
</g>
<path opacity="0.6" d="M317.501 572.818L294 559.209L317.501 545.6L340.999 559.209L317.501 572.818Z" fill="#071036"/>
<path d="M317.501 552.439L294 538.83V511.609L317.501 525.219V552.439Z" fill="#213584"/>
<path d="M341.001 538.83L317.502 552.439V525.219L341.001 511.609V538.83Z" fill="#071036"/>
<path d="M317.501 525.219L294 511.609L317.501 498L340.999 511.609L317.501 525.219Z" fill="#304DC0"/>
<path d="M317.501 525.218L294 511.608V512.789L317.501 526.4L340.999 512.789V511.608L317.501 525.218Z" fill="#657BD2"/>
<g opacity="0.3">
<path d="M121.501 720.559L98 706.949V679.729L121.501 693.338V720.559Z" fill="#213584"/>
<path d="M145.001 706.949L121.502 720.559V693.338L145.001 679.729V706.949Z" fill="#071036"/>
<path d="M121.501 693.338L98 679.729L121.501 666.119L144.999 679.729L121.501 693.338Z" fill="#304DC0"/>
<path d="M121.501 693.337L98 679.728V680.908L121.501 694.52L144.999 680.908V679.728L121.501 693.337Z" fill="#657BD2"/>
</g>
<path opacity="0.6" d="M121.501 683.818L98 670.209L121.501 656.6L144.999 670.209L121.501 683.818Z" fill="#071036"/>
<path d="M121.501 663.439L98 649.83V622.609L121.501 636.219V663.439Z" fill="#213584"/>
<path d="M145.001 649.83L121.502 663.439V636.219L145.001 622.609V649.83Z" fill="#071036"/>
<path d="M121.501 636.219L98 622.609L121.501 609L144.999 622.609L121.501 636.219Z" fill="#304DC0"/>
<path d="M121.501 636.218L98 622.608V623.789L121.501 637.4L144.999 623.789V622.608L121.501 636.218Z" fill="#657BD2"/>
<path d="M318.173 507.872L317.697 386.969C317.696 386.577 317.376 386.26 316.981 386.26C316.589 386.262 316.273 386.582 316.273 386.975L316.749 507.877C316.752 508.27 317.072 508.588 317.464 508.586C317.857 508.584 318.176 508.265 318.173 507.872Z" fill="#4C4D63"/>
<path opacity="0.45" d="M313.382 409.804C314.117 408.53 315.491 407.672 317.066 407.665C319.425 407.657 321.344 409.561 321.354 411.919L321.732 507.86C321.747 510.219 319.837 512.138 317.478 512.147C315.119 512.156 313.2 510.252 313.191 507.893L312.812 411.952C312.81 411.171 313.017 410.436 313.382 409.804Z" fill="url(#paint33_linear_5006_23989)"/>
<path d="M122.172 620.871L121.696 499.969C121.693 499.576 121.373 499.259 120.981 499.26C120.588 499.263 120.269 499.582 120.272 499.975L120.748 620.877C120.749 621.269 121.068 621.588 121.464 621.586C121.855 621.586 122.172 621.265 122.172 620.871Z" fill="#4C4D63"/>
<path d="M117.547 564.633C118.283 563.359 119.654 562.499 121.232 562.493C123.589 562.483 125.507 564.389 125.517 566.746L125.734 620.859C125.744 623.222 123.838 625.14 121.478 625.149C119.119 625.158 117.2 623.254 117.191 620.894L116.977 566.783C116.973 565.998 117.183 565.265 117.547 564.633Z" fill="url(#paint34_linear_5006_23989)"/>
<defs>
<linearGradient id="paint0_linear_5006_23989" x1="362.504" y1="627.569" x2="155.22" y2="749.569" gradientUnits="userSpaceOnUse">
<stop stop-color="#253575" stop-opacity="0"/>
<stop offset="0.334031" stop-color="#2A3C84"/>
<stop offset="0.593527" stop-color="#4360D4"/>
<stop offset="1" stop-color="#4563DB" stop-opacity="0"/>
</linearGradient>
<linearGradient id="paint1_linear_5006_23989" x1="348.592" y1="627.569" x2="141.307" y2="749.569" gradientUnits="userSpaceOnUse">
<stop stop-color="#253575" stop-opacity="0"/>
<stop offset="0.334031" stop-color="#2A3C84"/>
<stop offset="0.593527" stop-color="#4360D4"/>
<stop offset="1" stop-color="#4563DB" stop-opacity="0"/>
</linearGradient>
<linearGradient id="paint2_linear_5006_23989" x1="334.68" y1="627.569" x2="127.395" y2="749.569" gradientUnits="userSpaceOnUse">
<stop stop-color="#253575" stop-opacity="0"/>
<stop offset="0.334031" stop-color="#2A3C84"/>
<stop offset="0.593527" stop-color="#4360D4"/>
<stop offset="1" stop-color="#4563DB" stop-opacity="0"/>
</linearGradient>
<linearGradient id="paint3_linear_5006_23989" x1="320.768" y1="627.569" x2="113.483" y2="749.569" gradientUnits="userSpaceOnUse">
<stop stop-color="#253575" stop-opacity="0"/>
<stop offset="0.334031" stop-color="#2A3C84"/>
<stop offset="0.593527" stop-color="#4360D4"/>
<stop offset="1" stop-color="#4563DB" stop-opacity="0"/>
</linearGradient>
<linearGradient id="paint4_linear_5006_23989" x1="306.856" y1="627.569" x2="99.5711" y2="749.569" gradientUnits="userSpaceOnUse">
<stop stop-color="#253575" stop-opacity="0"/>
<stop offset="0.334031" stop-color="#2A3C84"/>
<stop offset="0.593527" stop-color="#4360D4"/>
<stop offset="1" stop-color="#4563DB" stop-opacity="0"/>
</linearGradient>
<linearGradient id="paint5_linear_5006_23989" x1="292.944" y1="627.569" x2="85.659" y2="749.569" gradientUnits="userSpaceOnUse">
<stop stop-color="#253575" stop-opacity="0"/>
<stop offset="0.334031" stop-color="#2A3C84"/>
<stop offset="0.593527" stop-color="#4360D4"/>
<stop offset="1" stop-color="#4563DB" stop-opacity="0"/>
</linearGradient>
<linearGradient id="paint6_linear_5006_23989" x1="279.032" y1="627.569" x2="71.7469" y2="749.569" gradientUnits="userSpaceOnUse">
<stop stop-color="#253575" stop-opacity="0"/>
<stop offset="0.334031" stop-color="#2A3C84"/>
<stop offset="0.593527" stop-color="#4360D4"/>
<stop offset="1" stop-color="#4563DB" stop-opacity="0"/>
</linearGradient>
<linearGradient id="paint7_linear_5006_23989" x1="290.504" y1="479.569" x2="83.2195" y2="601.569" gradientUnits="userSpaceOnUse">
<stop stop-color="#253575" stop-opacity="0"/>
<stop offset="0.334031" stop-color="#2A3C84"/>
<stop offset="0.593527" stop-color="#4360D4"/>
<stop offset="1" stop-color="#4563DB" stop-opacity="0"/>
</linearGradient>
<linearGradient id="paint8_linear_5006_23989" x1="276.592" y1="479.569" x2="69.3074" y2="601.569" gradientUnits="userSpaceOnUse">
<stop stop-color="#253575" stop-opacity="0"/>
<stop offset="0.334031" stop-color="#2A3C84"/>
<stop offset="0.593527" stop-color="#4360D4"/>
<stop offset="1" stop-color="#4563DB" stop-opacity="0"/>
</linearGradient>
<linearGradient id="paint9_linear_5006_23989" x1="262.68" y1="479.569" x2="55.3953" y2="601.569" gradientUnits="userSpaceOnUse">
<stop stop-color="#253575" stop-opacity="0"/>
<stop offset="0.334031" stop-color="#2A3C84"/>
<stop offset="0.593527" stop-color="#4360D4"/>
<stop offset="1" stop-color="#4563DB" stop-opacity="0"/>
</linearGradient>
<linearGradient id="paint10_linear_5006_23989" x1="248.768" y1="479.569" x2="41.4832" y2="601.569" gradientUnits="userSpaceOnUse">
<stop stop-color="#253575" stop-opacity="0"/>
<stop offset="0.334031" stop-color="#2A3C84"/>
<stop offset="0.593527" stop-color="#4360D4"/>
<stop offset="1" stop-color="#4563DB" stop-opacity="0"/>
</linearGradient>
<linearGradient id="paint11_linear_5006_23989" x1="234.856" y1="479.569" x2="27.5711" y2="601.569" gradientUnits="userSpaceOnUse">
<stop stop-color="#253575" stop-opacity="0"/>
<stop offset="0.334031" stop-color="#2A3C84"/>
<stop offset="0.593527" stop-color="#4360D4"/>
<stop offset="1" stop-color="#4563DB" stop-opacity="0"/>
</linearGradient>
<linearGradient id="paint12_linear_5006_23989" x1="220.944" y1="479.569" x2="13.659" y2="601.569" gradientUnits="userSpaceOnUse">
<stop stop-color="#253575" stop-opacity="0"/>
<stop offset="0.334031" stop-color="#2A3C84"/>
<stop offset="0.593527" stop-color="#4360D4"/>
<stop offset="1" stop-color="#4563DB" stop-opacity="0"/>
</linearGradient>
<linearGradient id="paint13_linear_5006_23989" x1="207.032" y1="479.569" x2="-0.253145" y2="601.569" gradientUnits="userSpaceOnUse">
<stop stop-color="#253575" stop-opacity="0"/>
<stop offset="0.334031" stop-color="#2A3C84"/>
<stop offset="0.593527" stop-color="#4360D4"/>
<stop offset="1" stop-color="#4563DB" stop-opacity="0"/>
</linearGradient>
<linearGradient id="paint14_linear_5006_23989" x1="261.265" y1="130.343" x2="242.952" y2="210.084" gradientUnits="userSpaceOnUse">
<stop stop-color="#223272"/>
<stop offset="0.37355" stop-color="#354892"/>
<stop offset="1" stop-color="#0F1C50"/>
</linearGradient>
<linearGradient id="paint15_linear_5006_23989" x1="95.6725" y1="589.41" x2="163.806" y2="707.421" gradientUnits="userSpaceOnUse">
<stop stop-color="#C8EA80"/>
<stop offset="1" stop-color="#00FFE0" stop-opacity="0"/>
</linearGradient>
<linearGradient id="paint16_linear_5006_23989" x1="161.289" y1="678.279" x2="194.302" y2="670.204" gradientUnits="userSpaceOnUse">
<stop stop-color="#FFB800"/>
<stop offset="0.337143" stop-color="#272727"/>
<stop offset="0.62" stop-color="#BE9733"/>
<stop offset="1" stop-color="#FFB800"/>
</linearGradient>
<linearGradient id="paint17_linear_5006_23989" x1="77.3856" y1="563.703" x2="282.018" y2="563.703" gradientUnits="userSpaceOnUse">
<stop stop-color="#4137AA"/>
<stop offset="0.122987" stop-color="#180E42"/>
<stop offset="0.466287" stop-color="#2B1230"/>
<stop offset="0.751348" stop-color="#831B58"/>
<stop offset="1" stop-color="#F558B1"/>
</linearGradient>
<linearGradient id="paint18_linear_5006_23989" x1="178.813" y1="423.713" x2="178.813" y2="535.4" gradientUnits="userSpaceOnUse">
<stop stop-color="#7F83E3"/>
<stop offset="1" stop-color="#161849"/>
</linearGradient>
<linearGradient id="paint19_linear_5006_23989" x1="179.494" y1="518.648" x2="179.494" y2="402.757" gradientUnits="userSpaceOnUse">
<stop stop-color="#405FB1"/>
<stop offset="1" stop-color="#162561"/>
</linearGradient>
<linearGradient id="paint20_linear_5006_23989" x1="152.682" y1="324.097" x2="152.682" y2="492.106" gradientUnits="userSpaceOnUse">
<stop stop-color="#19C9D8" stop-opacity="0"/>
<stop offset="1" stop-color="#19C9D8"/>
</linearGradient>
<linearGradient id="paint21_linear_5006_23989" x1="208.392" y1="287" x2="208.392" y2="491.106" gradientUnits="userSpaceOnUse">
<stop stop-color="#19C9D8" stop-opacity="0"/>
<stop offset="1" stop-color="#19C9D8"/>
</linearGradient>
<linearGradient id="paint22_linear_5006_23989" x1="179.496" y1="499.783" x2="179.496" y2="378.502" gradientUnits="userSpaceOnUse">
<stop stop-color="#405FB1"/>
<stop offset="1" stop-color="#162561"/>
</linearGradient>
<linearGradient id="paint23_linear_5006_23989" x1="179.495" y1="479.568" x2="179.495" y2="352.896" gradientUnits="userSpaceOnUse">
<stop stop-color="#405FB1"/>
<stop offset="1" stop-color="#162561"/>
</linearGradient>
<linearGradient id="paint24_linear_5006_23989" x1="180.169" y1="462.051" x2="180.169" y2="329.988" gradientUnits="userSpaceOnUse">
<stop stop-color="#405FB1"/>
<stop offset="1" stop-color="#162561"/>
</linearGradient>
<linearGradient id="paint25_linear_5006_23989" x1="178.147" y1="445.879" x2="178.147" y2="311.121" gradientUnits="userSpaceOnUse">
<stop stop-color="#405FB1"/>
<stop offset="1" stop-color="#162561"/>
</linearGradient>
<linearGradient id="paint26_linear_5006_23989" x1="180.842" y1="425.666" x2="180.842" y2="288.213" gradientUnits="userSpaceOnUse">
<stop stop-color="#405FB1"/>
<stop offset="1" stop-color="#162561"/>
</linearGradient>
<linearGradient id="paint27_linear_5006_23989" x1="180.842" y1="405.453" x2="180.842" y2="268.001" gradientUnits="userSpaceOnUse">
<stop stop-color="#405FB1"/>
<stop offset="1" stop-color="#162561"/>
</linearGradient>
<linearGradient id="paint28_linear_5006_23989" x1="174.334" y1="281.546" x2="254.297" y2="174.958" gradientUnits="userSpaceOnUse">
<stop stop-color="#192864"/>
<stop offset="1" stop-color="#3351CA"/>
</linearGradient>
<linearGradient id="paint29_linear_5006_23989" x1="196.654" y1="122.624" x2="205.142" y2="11.3358" gradientUnits="userSpaceOnUse">
<stop stop-color="#192864"/>
<stop offset="1" stop-color="#3351CA"/>
</linearGradient>
<linearGradient id="paint30_linear_5006_23989" x1="194.363" y1="339.488" x2="108.713" y2="273.11" gradientUnits="userSpaceOnUse">
<stop stop-color="#192864"/>
<stop offset="1" stop-color="#3351CA"/>
</linearGradient>
<linearGradient id="paint31_linear_5006_23989" x1="91.7422" y1="36.798" x2="116.258" y2="143.549" gradientUnits="userSpaceOnUse">
<stop stop-color="#223272"/>
<stop offset="0.37355" stop-color="#354892"/>
<stop offset="1" stop-color="#0F1C50"/>
</linearGradient>
<linearGradient id="paint32_linear_5006_23989" x1="154.219" y1="220.052" x2="79.678" y2="120.691" gradientUnits="userSpaceOnUse">
<stop stop-color="#192864"/>
<stop offset="1" stop-color="#3351CA"/>
</linearGradient>
<linearGradient id="paint33_linear_5006_23989" x1="292.659" y1="445.696" x2="341.887" y2="474.118" gradientUnits="userSpaceOnUse">
<stop stop-color="#6CFF51" stop-opacity="0"/>
<stop offset="1" stop-color="#BCF2B2"/>
</linearGradient>
<linearGradient id="paint34_linear_5006_23989" x1="105.861" y1="584.875" x2="136.851" y2="602.768" gradientUnits="userSpaceOnUse">
<stop stop-color="#6CFF51" stop-opacity="0"/>
<stop offset="1" stop-color="#BCF2B2"/>
</linearGradient>
</defs>
</svg>
