<svg width="160" height="160" viewBox="0 0 160 160" fill="none" xmlns="http://www.w3.org/2000/svg">
<path d="M55.6042 10.6021C62.0758 4.13367 70.8513 0.5 80.0014 0.5C89.1513 0.5 97.9268 4.13364 104.398 10.602L55.6042 10.6021ZM55.6042 10.6021L10.6021 55.6042C4.13367 62.0758 0.5 70.8513 0.5 80.0014C0.5 89.1514 4.13367 97.9269 10.6021 104.399L55.6014 149.398C62.0731 155.866 70.8486 159.5 79.9986 159.5C89.1487 159.5 97.9242 155.866 104.396 149.398L149.398 104.399C155.866 97.9269 159.5 89.1514 159.5 80.0014C159.5 70.8514 155.866 62.0759 149.398 55.6042C149.398 55.6042 149.398 55.6042 149.398 55.6042L104.399 10.6021H55.6042ZM76.7635 6.04161L77.3189 5.97977V6.53854V48.3406V48.7931L76.8686 48.8382C69.9255 49.5322 63.1728 52.5375 57.8524 57.8553C52.5322 63.1728 49.5295 69.928 48.8354 76.8686L48.7904 77.3189H48.3379H6.53581H5.97728L6.03886 76.7638C6.74249 70.4201 9.5298 64.2605 14.3941 59.3963L59.3963 14.3968C64.2606 9.53242 70.4202 6.74796 76.7635 6.04161ZM54.7408 77.3189H54.1744L54.2447 76.7568C54.936 71.2318 57.403 65.8886 61.6445 61.6472C65.8859 57.4058 71.2291 54.9387 76.7541 54.2474L77.3162 54.1771V54.7436V76.8189V77.3189H76.8162H54.7408ZM83.1314 48.8354L82.6811 48.7904V48.3379V6.53854V5.97977L83.2365 6.04161C89.5799 6.74797 95.7367 9.53246 100.601 14.3968L145.603 59.3963L145.25 59.7498L145.603 59.3963C150.468 64.2606 153.252 70.4174 153.958 76.7636L154.02 77.3189H153.461H111.659H111.207L111.162 76.8686C110.468 69.9254 107.462 63.1728 102.145 57.8552C96.8271 52.5375 90.0718 49.5295 83.1314 48.8354ZM105.753 76.7568L105.823 77.3189H105.256H83.1811H82.6811V76.8189V54.7436V54.1771L83.2432 54.2474C88.7682 54.9387 94.1114 57.4058 98.3528 61.6472C102.594 65.8886 105.061 71.2318 105.753 76.7568ZM111.162 83.1341L111.207 82.6838H111.659H153.461H154.02L153.958 83.2392C153.252 89.5826 150.468 95.7421 145.603 100.606L100.604 145.606C95.7394 150.47 89.5826 153.255 83.2392 153.961L82.6838 154.023V153.464V111.662V111.21L83.1341 111.165C90.0773 110.471 96.8299 107.465 102.148 102.148C107.465 96.83 110.468 90.0747 111.162 83.1341ZM83.2432 105.755L82.6811 105.826V105.259V83.1838V82.6838H83.1811H105.256H105.823L105.753 83.2459C105.061 88.7709 102.594 94.1141 98.3528 98.3555C94.1114 102.597 88.7682 105.064 83.2432 105.755ZM77.3162 105.259V105.826L76.7541 105.755C71.2291 105.064 65.8859 102.597 61.6445 98.3555C57.403 94.1141 54.936 88.7709 54.2447 83.2459L54.1744 82.6838H54.7408H76.8162H77.3162V83.1838V105.259ZM76.8659 111.165L77.3161 111.21L77.3162 111.662L77.3189 153.464L77.3189 154.023L76.7637 153.961C70.4201 153.258 64.2605 150.47 59.3963 145.606L14.3914 100.606C9.52708 95.7422 6.73978 89.5826 6.03616 83.239L5.97459 82.6838H6.53311H48.3352H48.7877L48.8327 83.1341C49.5268 90.0747 52.5295 96.83 57.8496 102.147C63.1701 107.465 69.9227 110.471 76.8659 111.165Z" stroke="#253575"/>
</svg>
