<svg width="102" height="112" viewBox="0 0 102 112" fill="none" xmlns="http://www.w3.org/2000/svg">
<circle cx="51" cy="49" r="48.5" stroke="#253688" stroke-dasharray="2 2"/>
<g filter="url(#filter0_d_3108_16865)">
<circle cx="51" cy="49" r="43" fill="#131D4E"/>
<circle cx="51" cy="49" r="42.5" stroke="#253688"/>
</g>
<g clip-path="url(#clip0_3108_16865)">
<path d="M71.25 29.875H30.75C29.7523 29.8797 28.7972 30.2799 28.0941 30.9878C27.3911 31.6958 26.9976 32.6538 27 33.6515V55.2779C26.9976 56.2757 27.3911 57.2336 28.0941 57.9416C28.7972 58.6496 29.7523 59.0498 30.75 59.0544H44.3735L49.9332 64.6794C50.0727 64.8206 50.2388 64.9327 50.4219 65.0091C50.6051 65.0856 50.8016 65.125 51 65.125C51.1985 65.125 51.395 65.0856 51.5781 65.0091C51.7612 64.9327 51.9274 64.8206 52.0669 64.6794L57.6265 59.0544H71.25C72.2477 59.0498 73.2029 58.6496 73.9059 57.9416C74.6089 57.2336 75.0024 56.2757 75 55.2779V33.6515C75.0024 32.6538 74.6089 31.6958 73.9059 30.9878C73.2029 30.2799 72.2477 29.8797 71.25 29.875ZM73.5 55.2779C73.5035 55.8782 73.2684 56.4552 72.8465 56.8821C72.4245 57.3091 71.8503 57.5509 71.25 57.5544H57L51 63.625L45 57.5544H30.75C30.1498 57.5509 29.5755 57.3091 29.1536 56.8821C28.7316 56.4552 28.4965 55.8782 28.5 55.2779V33.6515C28.4965 33.0512 28.7316 32.4742 29.1536 32.0473C29.5755 31.6204 30.1498 31.3785 30.75 31.375H71.25C71.8503 31.3785 72.4245 31.6204 72.8465 32.0473C73.2684 32.4742 73.5035 33.0512 73.5 33.6515V55.2779Z" fill="white"/>
<path d="M59.25 66.625H42.75C42.5511 66.625 42.3603 66.704 42.2197 66.8447C42.079 66.9853 42 67.1761 42 67.375C42 67.5739 42.079 67.7647 42.2197 67.9053C42.3603 68.046 42.5511 68.125 42.75 68.125H59.25C59.4489 68.125 59.6397 68.046 59.7803 67.9053C59.921 67.7647 60 67.5739 60 67.375C60 67.1761 59.921 66.9853 59.7803 66.8447C59.6397 66.704 59.4489 66.625 59.25 66.625Z" fill="white"/>
<path d="M33.375 41.9512C33.375 42.1501 33.454 42.3408 33.5947 42.4815C33.7353 42.6221 33.9261 42.7012 34.125 42.7012H38.072C38.1595 42.1947 38.277 41.6938 38.4238 41.2012H34.125C33.9261 41.2012 33.7353 41.2802 33.5947 41.4209C33.454 41.5615 33.375 41.7523 33.375 41.9512Z" fill="white"/>
<path d="M35.625 44.2012C35.4261 44.2012 35.2353 44.2802 35.0947 44.4208C34.954 44.5615 34.875 44.7523 34.875 44.9512C34.875 45.1501 34.954 45.3408 35.0947 45.4815C35.2353 45.6222 35.4261 45.7012 35.625 45.7012H37.8979C37.8838 45.4528 37.875 45.2031 37.875 44.9512C37.875 44.6994 37.8838 44.4496 37.8979 44.2012H35.625Z" fill="white"/>
<path d="M34.125 47.2012C33.9261 47.2012 33.7353 47.2802 33.5947 47.4208C33.454 47.5615 33.375 47.7523 33.375 47.9512C33.375 48.1501 33.454 48.3408 33.5947 48.4815C33.7353 48.6222 33.9261 48.7012 34.125 48.7012H38.4237C38.277 48.2086 38.1595 47.7077 38.072 47.2012H34.125Z" fill="white"/>
<path d="M67.8749 47.2012H63.928C63.8404 47.7077 63.7229 48.2086 63.5762 48.7012H67.8749C68.0738 48.7012 68.2646 48.6222 68.4052 48.4815C68.5459 48.3408 68.6249 48.1501 68.6249 47.9512C68.6249 47.7523 68.5459 47.5615 68.4052 47.4208C68.2646 47.2802 68.0738 47.2012 67.8749 47.2012Z" fill="white"/>
<path d="M66.3744 45.7012C66.5733 45.7012 66.7641 45.6222 66.9048 45.4815C67.0454 45.3408 67.1244 45.1501 67.1244 44.9512C67.1244 44.7523 67.0454 44.5615 66.9048 44.4208C66.7641 44.2802 66.5733 44.2012 66.3744 44.2012H64.1016C64.1156 44.4496 64.1244 44.6994 64.1244 44.9512C64.1244 45.2031 64.1156 45.4528 64.1016 45.7012H66.3744Z" fill="white"/>
<path d="M67.8749 41.2012H63.5762C63.723 41.6938 63.8404 42.1947 63.928 42.7012H67.8749C68.0739 42.7012 68.2646 42.6222 68.4053 42.4815C68.5459 42.3408 68.6249 42.1501 68.6249 41.9512C68.6249 41.7523 68.5459 41.5615 68.4053 41.4208C68.2646 41.2802 68.0739 41.2012 67.8749 41.2012Z" fill="white"/>
<path d="M51 33.3262C48.7008 33.3262 46.4532 34.008 44.5415 35.2853C42.6298 36.5627 41.1398 38.3783 40.2599 40.5025C39.38 42.6267 39.1498 44.9641 39.5984 47.2191C40.0469 49.4741 41.1541 51.5455 42.7799 53.1713C44.4057 54.7971 46.4771 55.9042 48.7321 56.3528C50.9871 56.8014 53.3245 56.5711 55.4487 55.6913C57.5729 54.8114 59.3885 53.3214 60.6658 51.4097C61.9432 49.498 62.625 47.2504 62.625 44.9512C62.6215 41.8691 61.3956 38.9143 59.2163 36.7349C57.0369 34.5556 54.0821 33.3297 51 33.3262ZM51 55.0762C48.9975 55.0762 47.0399 54.4824 45.3749 53.3698C43.7098 52.2573 42.4121 50.6759 41.6457 48.8258C40.8794 46.9757 40.6789 44.9399 41.0696 42.9759C41.4602 41.0118 42.4245 39.2077 43.8405 37.7917C45.2566 36.3757 47.0607 35.4114 49.0247 35.0207C50.9888 34.63 53.0246 34.8306 54.8747 35.5969C56.7248 36.3632 58.3061 37.661 59.4186 39.326C60.5312 40.9911 61.125 42.9486 61.125 44.9512C61.125 46.2808 60.8631 47.5974 60.3543 48.8258C59.8455 50.0543 59.0997 51.1704 58.1595 52.1106C57.2193 53.0508 56.1031 53.7966 54.8747 54.3055C53.6463 54.8143 52.3296 55.0762 51 55.0762Z" fill="white"/>
<path d="M52.4277 37.2988H49.5706C49.3621 37.2988 49.156 37.3422 48.9653 37.4263C48.7746 37.5104 48.6035 37.6333 48.4629 37.7872C48.3224 37.9411 48.2154 38.1225 48.1488 38.32C48.0823 38.5176 48.0576 38.7268 48.0764 38.9343L48.6902 45.6847C48.7226 46.058 48.8942 46.4056 49.1709 46.6583C49.4476 46.911 49.8092 47.0504 50.184 47.0488H51.8143C52.1891 47.0504 52.5508 46.9109 52.8275 46.6581C53.1043 46.4053 53.2758 46.0577 53.3081 45.6843L53.9219 38.9343C53.9407 38.7268 53.916 38.5176 53.8495 38.3201C53.7829 38.1225 53.676 37.9411 53.5354 37.7872C53.3948 37.6333 53.2237 37.5104 53.033 37.4263C52.8423 37.3423 52.6362 37.2988 52.4277 37.2988ZM51.8151 45.5488H50.1843L49.5706 38.7988H52.4277L51.8151 45.5488Z" fill="white"/>
<path d="M51.75 48.5488H50.25C49.8523 48.5492 49.471 48.7074 49.1898 48.9886C48.9086 49.2698 48.7504 49.6511 48.75 50.0488V51.5488C48.7504 51.9465 48.9086 52.3278 49.1898 52.6091C49.471 52.8903 49.8523 53.0484 50.25 53.0488H51.75C52.1477 53.0484 52.529 52.8903 52.8102 52.6091C53.0914 52.3278 53.2496 51.9465 53.25 51.5488V50.0488C53.2496 49.6511 53.0914 49.2698 52.8102 48.9886C52.529 48.7074 52.1477 48.5492 51.75 48.5488ZM50.25 51.5488V50.0488H51.75L51.7511 51.5488H50.25Z" fill="white"/>
</g>
<defs>
<filter id="filter0_d_3108_16865" x="0" y="6" width="102" height="106" filterUnits="userSpaceOnUse" color-interpolation-filters="sRGB">
<feFlood flood-opacity="0" result="BackgroundImageFix"/>
<feColorMatrix in="SourceAlpha" type="matrix" values="0 0 0 0 0 0 0 0 0 0 0 0 0 0 0 0 0 0 127 0" result="hardAlpha"/>
<feOffset dy="12"/>
<feGaussianBlur stdDeviation="4"/>
<feComposite in2="hardAlpha" operator="out"/>
<feColorMatrix type="matrix" values="0 0 0 0 0 0 0 0 0 0 0 0 0 0 0 0 0 0 0.5 0"/>
<feBlend mode="normal" in2="BackgroundImageFix" result="effect1_dropShadow_3108_16865"/>
<feBlend mode="normal" in="SourceGraphic" in2="effect1_dropShadow_3108_16865" result="shape"/>
</filter>
<clipPath id="clip0_3108_16865">
<rect width="48" height="48" fill="white" transform="translate(27 25)"/>
</clipPath>
</defs>
</svg>
