<svg width="66" height="24" viewBox="0 0 66 24" fill="none" xmlns="http://www.w3.org/2000/svg">
<path fill-rule="evenodd" clip-rule="evenodd" d="M6.70508 23.5475C8.01954 22.3503 8.70874 22.2074 9.02921 20.2949C9.24551 19.0255 9.10941 18.0052 9.17455 16.8485L9.09971 6.42423C9.18777 5.35896 9.52011 4.07538 10.2798 2.91641C11.8757 0.50078 15.0392 -0.550769 16.9072 0.28182C15.287 1.86975 15.1106 3.6115 15.3047 5.83239L15.367 12.0459C15.3769 12.3687 15.3639 12.6001 15.3403 12.9388C15.2684 14.4262 15.5018 16.3419 15.2781 18.3722C14.6552 24.1332 8.68401 24.614 6.70508 23.5475Z" fill="#2991B7"/>
<path fill-rule="evenodd" clip-rule="evenodd" d="M16.1896 22.2787C17.8274 20.6415 18.0029 18.9411 17.7947 16.6041L17.7152 9.62094C17.788 8.09212 17.5041 7.01919 18.0006 5.39157C19.1007 1.75802 23.5899 1.77604 23.8501 6.81076C23.9069 7.66395 23.9929 8.70799 23.9337 9.57532L23.9427 12.3549C24.2329 16.3314 23.8905 20.9153 19.1332 22.2732C18.2348 22.5359 17.1078 22.6616 16.1562 22.2946L16.1896 22.2787Z" fill="#2EF2FF"/>
<path fill-rule="evenodd" clip-rule="evenodd" d="M6.37452 9.60156C6.30373 10.2288 6.16586 11.1531 6.21819 11.8242L6.25059 15.4728C6.19166 16.729 6.55778 19.8302 6.01431 20.9275C5.29873 22.352 3.68996 22.5836 2.64247 22.0574C-0.926529 20.313 -1.39296 13.2474 4.46315 10.3239C4.74704 10.1892 5.06433 10.0385 5.32275 9.93631C5.85543 9.7653 6.08206 9.60156 6.37452 9.60156Z" fill="#13FB80"/>
<path d="M29.627 19.64C29.627 19.2023 29.7256 18.8096 29.9229 18.462C30.1202 18.1101 30.3883 17.8355 30.7272 17.6381C31.0703 17.4407 31.4499 17.342 31.866 17.342C32.3549 17.342 32.7817 17.46 33.1463 17.696C33.5109 17.932 33.7768 18.2668 33.9441 18.7002H33.2428C33.1184 18.4298 32.9383 18.2217 32.7024 18.0758C32.4707 17.9299 32.1919 17.8569 31.866 17.8569C31.5528 17.8569 31.2719 17.9299 31.0231 18.0758C30.7743 18.2217 30.5792 18.4298 30.4376 18.7002C30.2961 18.9662 30.2253 19.2795 30.2253 19.64C30.2253 19.9961 30.2961 20.3094 30.4376 20.5798C30.5792 20.8458 30.7743 21.0518 31.0231 21.1977C31.2719 21.3436 31.5528 21.4166 31.866 21.4166C32.1919 21.4166 32.4707 21.3458 32.7024 21.2041C32.9383 21.0582 33.1184 20.8501 33.2428 20.5798H33.9441C33.7768 21.0089 33.5109 21.3415 33.1463 21.5775C32.7817 21.8092 32.3549 21.9251 31.866 21.9251C31.4499 21.9251 31.0703 21.8285 30.7272 21.6354C30.3883 21.438 30.1202 21.1655 29.9229 20.8179C29.7256 20.4703 29.627 20.0777 29.627 19.64Z" fill="#EAEDFF"/>
<path d="M39.4931 21.8865L38.4251 20.0519H37.7174V21.8865H37.1319V17.3999H38.5795C38.9184 17.3999 39.2036 17.4579 39.4352 17.5737C39.6711 17.6896 39.847 17.8462 39.9628 18.0436C40.0786 18.241 40.1365 18.4663 40.1365 18.7195C40.1365 19.0285 40.0464 19.301 39.8663 19.537C39.6904 19.773 39.4245 19.9296 39.0685 20.0069L40.1944 21.8865H39.4931ZM37.7174 19.582H38.5795C38.8969 19.582 39.135 19.5048 39.2937 19.3503C39.4524 19.1915 39.5317 18.9813 39.5317 18.7195C39.5317 18.4534 39.4524 18.2474 39.2937 18.1015C39.1393 17.9556 38.9012 17.8827 38.5795 17.8827H37.7174V19.582Z" fill="#EAEDFF"/>
<path d="M46.5022 17.3999L45.0417 20.1935V21.8865H44.4562V20.1935L42.9893 17.3999H43.6391L44.7458 19.6722L45.8524 17.3999H46.5022Z" fill="#EAEDFF"/>
<path d="M52.4342 18.7131C52.4342 19.0864 52.3055 19.3975 52.0482 19.6464C51.7951 19.891 51.4069 20.0133 50.8836 20.0133H50.0215V21.8865H49.436V17.3999H50.8836C51.3898 17.3999 51.7736 17.5222 52.0353 17.7668C52.3012 18.0114 52.4342 18.3268 52.4342 18.7131ZM50.8836 19.5305C51.2096 19.5305 51.4498 19.4597 51.6042 19.3181C51.7586 19.1765 51.8358 18.9748 51.8358 18.7131C51.8358 18.1595 51.5184 17.8827 50.8836 17.8827H50.0215V19.5305H50.8836Z" fill="#EAEDFF"/>
<path d="M58.2382 17.3999V17.8763H57.0158V21.8865H56.4303V17.8763H55.2014V17.3999H58.2382Z" fill="#EAEDFF"/>
<path d="M63.3083 21.9315C62.8922 21.9315 62.5126 21.835 62.1695 21.6419C61.8263 21.4445 61.554 21.172 61.3524 20.8244C61.1551 20.4725 61.0564 20.0777 61.0564 19.64C61.0564 19.2023 61.1551 18.8096 61.3524 18.462C61.554 18.1101 61.8263 17.8376 62.1695 17.6445C62.5126 17.4471 62.8922 17.3484 63.3083 17.3484C63.7286 17.3484 64.1104 17.4471 64.4535 17.6445C64.7966 17.8376 65.0669 18.108 65.2642 18.4556C65.4615 18.8032 65.5601 19.198 65.5601 19.64C65.5601 20.082 65.4615 20.4768 65.2642 20.8244C65.0669 21.172 64.7966 21.4445 64.4535 21.6419C64.1104 21.835 63.7286 21.9315 63.3083 21.9315ZM63.3083 21.423C63.6214 21.423 63.9023 21.35 64.1511 21.2041C64.4042 21.0582 64.6015 20.8501 64.743 20.5798C64.8889 20.3094 64.9618 19.9961 64.9618 19.64C64.9618 19.2795 64.8889 18.9662 64.743 18.7002C64.6015 18.4298 64.4063 18.2217 64.1575 18.0758C63.9088 17.9299 63.6257 17.8569 63.3083 17.8569C62.9909 17.8569 62.7078 17.9299 62.459 18.0758C62.2102 18.2217 62.0129 18.4298 61.8671 18.7002C61.7255 18.9662 61.6548 19.2795 61.6548 19.64C61.6548 19.9961 61.7255 20.3094 61.8671 20.5798C62.0129 20.8501 62.2102 21.0582 62.459 21.2041C62.7121 21.35 62.9952 21.423 63.3083 21.423Z" fill="#EAEDFF"/>
<path d="M36.953 11.8682H32.2266L31.3559 14.2792H29.8634L33.7813 3.49972H35.4138L39.3163 14.2792H37.8237L36.953 11.8682ZM36.5488 10.7171L34.5898 5.24185L32.6308 10.7171H36.5488Z" fill="#EAEDFF"/>
<path d="M42.4386 13.1281H46.2322V14.2792H41.0238V3.4375H42.4386V13.1281Z" fill="#EAEDFF"/>
<path d="M53.8605 3.4375V4.58855H49.1496V8.24393H52.9743V9.39498H49.1496V14.2792H47.7347V3.4375H53.8605Z" fill="#EAEDFF"/>
<path d="M61.9748 11.8682H57.2484L56.3777 14.2792H54.8851L58.8031 3.49972H60.4356L64.338 14.2792H62.8455L61.9748 11.8682ZM61.5706 10.7171L59.6116 5.24185L57.6526 10.7171H61.5706Z" fill="#EAEDFF"/>
</svg>
