<svg width="80" height="80" viewBox="0 0 80 80" fill="none" xmlns="http://www.w3.org/2000/svg">
<rect x="1" y="1" width="78" height="78" rx="39" fill="#080D27"/>
<rect x="1" y="1" width="78" height="78" rx="39" stroke="#0C1838" stroke-width="2"/>
<path d="M59.2724 39.8699C59.7355 39.3923 59.9962 38.7544 60.0001 38.0891C60.004 37.4239 59.7509 36.7829 59.2934 36.2999L44.8394 21.1619C43.8024 20.0759 41.9984 20.8269 41.9984 22.3449V36.5849C41.9972 37.235 42.2423 37.8614 42.6844 38.3379L50.3414 46.5479C50.4918 46.7111 50.6739 46.8419 50.8766 46.9322C51.0793 47.0226 51.2983 47.0705 51.5202 47.0733C51.7421 47.076 51.9622 47.0334 52.167 46.948C52.3719 46.8627 52.5571 46.7364 52.7114 46.5769L59.2724 39.8699ZM30.2214 45.8969C29.2584 46.9269 27.6544 46.9449 26.6694 45.9379L20.7264 39.8629C19.7644 38.8789 19.7554 37.2859 20.7064 36.2909L35.1604 21.1729C36.1984 20.0869 38.0014 20.8389 38.0014 22.3569V36.5599C38.0027 37.2114 37.7564 37.8391 37.3124 38.3159L30.2214 45.8989V45.8969ZM32.4714 48.5189C31.2744 49.7429 31.2744 51.7259 32.4714 52.9489L37.8384 58.4349C39.0354 59.6579 40.9754 59.6579 42.1724 58.4349L47.4624 53.0269C48.6594 51.8039 48.6594 49.8199 47.4624 48.5969L42.0954 43.1109C40.8984 41.8879 38.9584 41.8879 37.7614 43.1109L32.4714 48.5189Z" fill="#2EF2FF"/>
</svg>
