<svg width="56" height="48" viewBox="0 0 56 48" fill="none" xmlns="http://www.w3.org/2000/svg">
<path d="M0.5 10C0.5 4.7708 4.7708 0.5 10 0.5H46C51.2292 0.5 55.5 4.7708 55.5 10V13.5H36C30.2185 13.5 25.5 18.2185 25.5 24C25.5 29.7816 30.2185 34.5001 36 34.5001H55.5V38C55.5 43.2293 51.2292 47.5001 46.0001 47.5001H10C4.7708 47.5001 0.5 43.2293 0.5 38V10ZM30.5 24C30.5 20.9176 32.9176 18.5001 36 18.5001H55.5V29.5H36C32.9176 29.5 30.5 27.0825 30.5 24ZM38.5 24C38.5 22.6193 37.3807 21.5 36 21.5C34.6193 21.5 33.5 22.6193 33.5 24C33.5 25.3808 34.6193 26.5001 36 26.5001C37.3807 26.5001 38.5 25.3808 38.5 24Z" stroke="#2EF2FF"/>
</svg>
