<svg width="56" height="48" viewBox="0 0 56 48" fill="none" xmlns="http://www.w3.org/2000/svg">
<path d="M55.5 10C55.5 4.7708 51.2292 0.5 46 0.5H10C4.7708 0.5 0.5 4.7708 0.5 10V13.5H20C25.7815 13.5 30.5 18.2185 30.5 24C30.5 29.7816 25.7815 34.5001 20 34.5001H0.5V38C0.5 43.2293 4.7708 47.5001 9.99994 47.5001H46C51.2292 47.5001 55.5 43.2293 55.5 38V10ZM25.5 24C25.5 20.9176 23.0824 18.5001 20 18.5001H0.5V29.5H20C23.0824 29.5 25.5 27.0825 25.5 24ZM17.5 24C17.5 22.6193 18.6193 21.5 20 21.5C21.3807 21.5 22.5 22.6193 22.5 24C22.5 25.3808 21.3807 26.5001 20 26.5001C18.6193 26.5001 17.5 25.3808 17.5 24Z" stroke="#2EF2FF"/>
</svg>
