<svg width="87" height="97" viewBox="0 0 87 97" fill="none" xmlns="http://www.w3.org/2000/svg">
<circle cx="43" cy="40.7539" r="39.5" stroke="#253688" stroke-dasharray="2 2"/>
<g filter="url(#filter0_d_3108_16910)">
<circle cx="43.102" cy="41.102" r="35.102" fill="#131D4E"/>
<circle cx="43.102" cy="41.102" r="34.602" stroke="#253688"/>
</g>
<g clip-path="url(#clip0_3108_16910)">
<path d="M64 23.375H47.5C46.7046 23.3759 45.9421 23.6923 45.3797 24.2547C44.8173 24.8171 44.5009 25.5796 44.5 26.375V55.625C44.5009 56.4204 44.8173 57.1829 45.3797 57.7453C45.9421 58.3077 46.7046 58.6241 47.5 58.625H64C64.7954 58.6241 65.5579 58.3077 66.1203 57.7453C66.6827 57.1829 66.9991 56.4204 67 55.625V26.375C66.9991 25.5796 66.6827 24.8171 66.1203 24.2547C65.5579 23.6923 64.7954 23.3759 64 23.375ZM65.5 55.625C65.4996 56.0227 65.3414 56.404 65.0602 56.6852C64.779 56.9664 64.3977 57.1246 64 57.125H47.5C47.1023 57.1246 46.721 56.9664 46.4398 56.6852C46.1586 56.404 46.0004 56.0227 46 55.625V26.375C46.0004 25.9773 46.1586 25.596 46.4398 25.3148C46.721 25.0336 47.1023 24.8754 47.5 24.875H64C64.3977 24.8754 64.779 25.0336 65.0602 25.3148C65.3414 25.596 65.4996 25.9773 65.5 26.375V55.625Z" fill="white"/>
<path d="M55.75 27.875C56.1642 27.875 56.5 27.5392 56.5 27.125C56.5 26.7108 56.1642 26.375 55.75 26.375C55.3358 26.375 55 26.7108 55 27.125C55 27.5392 55.3358 27.875 55.75 27.875Z" fill="white"/>
<path d="M56.875 54.125H54.625C54.4261 54.125 54.2353 54.204 54.0947 54.3447C53.954 54.4853 53.875 54.6761 53.875 54.875C53.875 55.0739 53.954 55.2647 54.0947 55.4053C54.2353 55.546 54.4261 55.625 54.625 55.625H56.875C57.0739 55.625 57.2647 55.546 57.4053 55.4053C57.546 55.2647 57.625 55.0739 57.625 54.875C57.625 54.6761 57.546 54.4853 57.4053 54.3447C57.2647 54.204 57.0739 54.125 56.875 54.125Z" fill="white"/>
<path d="M55.75 33.875C54.3408 33.875 52.9633 34.2929 51.7916 35.0758C50.6199 35.8587 49.7066 36.9715 49.1674 38.2734C48.6281 39.5753 48.487 41.0079 48.7619 42.39C49.0368 43.7721 49.7154 45.0417 50.7119 46.0381C51.7083 47.0346 52.9779 47.7132 54.36 47.9881C55.7421 48.263 57.1747 48.1219 58.4766 47.5826C59.7785 47.0434 60.8913 46.1301 61.6742 44.9584C62.4571 43.7867 62.875 42.4092 62.875 41C62.8729 39.111 62.1215 37.3 60.7858 35.9642C59.45 34.6285 57.639 33.8771 55.75 33.875ZM55.75 46.625C54.6375 46.625 53.5499 46.2951 52.6249 45.677C51.6999 45.0589 50.9789 44.1804 50.5532 43.1526C50.1274 42.1248 50.016 40.9938 50.2331 39.9026C50.4501 38.8115 50.9859 37.8092 51.7725 37.0225C52.5592 36.2359 53.5615 35.7001 54.6526 35.4831C55.7438 35.266 56.8748 35.3774 57.9026 35.8032C58.9304 36.2289 59.8089 36.9499 60.427 37.8749C61.0451 38.7999 61.375 39.8875 61.375 41C61.3733 42.4913 60.7802 43.9211 59.7256 44.9756C58.6711 46.0302 57.2413 46.6233 55.75 46.625Z" fill="white"/>
<path d="M55.9132 40.1204C55.3513 39.9636 55.0788 39.8666 55.0098 39.6564C54.9554 39.4886 55.1859 39.3506 55.279 39.3118C55.4545 39.2473 55.6427 39.2246 55.8285 39.2455C56.0144 39.2664 56.1928 39.3303 56.3496 39.4323C56.5176 39.5371 56.7202 39.5713 56.9133 39.5273C57.1064 39.4833 57.2743 39.3647 57.3803 39.1974C57.4863 39.0301 57.5218 38.8277 57.4791 38.6343C57.4364 38.4409 57.3189 38.2723 57.1523 38.1652C57.0165 38.081 56.8736 38.0089 56.7251 37.9498V37.625C56.7251 37.4261 56.6461 37.2353 56.5055 37.0947C56.3648 36.954 56.174 36.875 55.9751 36.875C55.7762 36.875 55.5855 36.954 55.4448 37.0947C55.3041 37.2353 55.2251 37.4261 55.2251 37.625V37.7796C55.0455 37.8093 54.8697 37.8589 54.7011 37.9275C54.269 38.0802 53.9122 38.3932 53.7043 38.8015C53.4964 39.2099 53.4533 39.6826 53.584 40.1218C53.9115 41.1194 54.8359 41.3772 55.5108 41.5651C55.9195 41.679 56.3055 41.7866 56.4345 41.995C56.4736 42.0524 56.4959 42.1196 56.499 42.1889C56.5021 42.2583 56.486 42.3272 56.4523 42.3879C56.2981 42.6186 55.8369 42.6732 55.4831 42.6088C55.345 42.5796 55.2156 42.5184 55.1054 42.4301C54.9487 42.3075 54.7498 42.2522 54.5523 42.2763C54.3549 42.3004 54.1751 42.4019 54.0525 42.5586C53.93 42.7153 53.8746 42.9142 53.8987 43.1116C53.9228 43.3091 54.0244 43.4889 54.1811 43.6114C54.4313 43.8072 54.7177 43.9517 55.0239 44.0365V44.375C55.0239 44.5739 55.1029 44.7647 55.2436 44.9053C55.3842 45.046 55.575 45.125 55.7739 45.125C55.9728 45.125 56.1636 45.046 56.3042 44.9053C56.4449 44.7647 56.5239 44.5739 56.5239 44.375V44.0324C57.0019 43.915 57.4202 43.6263 57.6994 43.2211C57.894 42.9213 57.9983 42.5719 58.0001 42.2146C58.002 41.8572 57.9011 41.5068 57.7097 41.2051C57.2724 40.499 56.5189 40.2888 55.9132 40.1204Z" fill="white"/>
<path d="M21.25 48.5H39.25C39.8465 48.4993 40.4185 48.2621 40.8403 47.8403C41.2621 47.4185 41.4993 46.8465 41.5 46.25V35.75C41.4993 35.1535 41.2621 34.5815 40.8403 34.1597C40.4185 33.7379 39.8465 33.5007 39.25 33.5H21.25C20.6535 33.5007 20.0815 33.7379 19.6597 34.1597C19.2379 34.5815 19.0007 35.1535 19 35.75V46.25C19.0007 46.8465 19.2379 47.4185 19.6597 47.8403C20.0815 48.2621 20.6535 48.4993 21.25 48.5ZM20.5 35.75C20.5002 35.5512 20.5793 35.3605 20.7199 35.2199C20.8605 35.0793 21.0512 35.0002 21.25 35H39.25C39.4488 35.0002 39.6395 35.0793 39.7801 35.2199C39.9207 35.3605 39.9998 35.5512 40 35.75V37.25H20.5V35.75ZM20.5 38.75H40V40.25H20.5V38.75ZM20.5 41.75H40V46.25C39.9998 46.4488 39.9207 46.6395 39.7801 46.7801C39.6395 46.9207 39.4488 46.9998 39.25 47H21.25C21.0512 46.9998 20.8605 46.9207 20.7199 46.7801C20.5793 46.6395 20.5002 46.4488 20.5 46.25V41.75Z" fill="white"/>
<path d="M32.5 31.2499V28.2499H37.75C37.75 28.3982 37.794 28.5432 37.8764 28.6666C37.9588 28.7899 38.0759 28.886 38.213 28.9428C38.35 28.9996 38.5008 29.0144 38.6463 28.9855C38.7918 28.9565 38.9254 28.8851 39.0303 28.7802L39.7798 28.0306C39.8148 27.9955 39.8463 27.957 39.8738 27.9157C39.8857 27.8978 39.8938 27.8785 39.904 27.86C39.9336 27.8148 39.9546 27.7645 39.9659 27.7117C39.9723 27.69 39.9807 27.6692 39.9852 27.6467C40.0045 27.5498 40.0045 27.45 39.9852 27.3531C39.9807 27.3306 39.9723 27.3098 39.9659 27.2881C39.9546 27.2353 39.9336 27.185 39.904 27.1398C39.8938 27.1212 39.8857 27.1019 39.8738 27.0841C39.8463 27.0428 39.8148 27.0043 39.7798 26.9691L39.0303 26.2196C38.9254 26.1147 38.7918 26.0433 38.6463 26.0144C38.5008 25.9855 38.35 26.0003 38.213 26.0571C38.076 26.1138 37.9588 26.21 37.8764 26.3333C37.794 26.4566 37.75 26.6016 37.75 26.7499H31.75C31.5511 26.7499 31.3603 26.8289 31.2197 26.9696C31.079 27.1102 31 27.301 31 27.4999V31.2499C31 31.4488 31.079 31.6396 31.2197 31.7802C31.3603 31.9209 31.5511 31.9999 31.75 31.9999C31.9489 31.9999 32.1397 31.9209 32.2803 31.7802C32.421 31.6396 32.5 31.4488 32.5 31.2499Z" fill="white"/>
<path d="M37.75 55.25C37.75 55.3983 37.794 55.5433 37.8764 55.6667C37.9588 55.79 38.0759 55.8862 38.213 55.9429C38.35 55.9997 38.5008 56.0145 38.6463 55.9856C38.7918 55.9566 38.9254 55.8852 39.0303 55.7803L39.7798 55.0308C39.8148 54.9956 39.8463 54.9571 39.8738 54.9158C39.8857 54.898 39.8938 54.8786 39.904 54.8601C39.9336 54.8149 39.9546 54.7646 39.9659 54.7118C39.9723 54.6901 39.9807 54.6693 39.9852 54.6468C40.0045 54.5499 40.0045 54.4501 39.9852 54.3532C39.9807 54.3307 39.9723 54.3099 39.9659 54.2882C39.9546 54.2354 39.9336 54.1851 39.904 54.1399C39.8938 54.1214 39.8857 54.102 39.8738 54.0842C39.8463 54.0429 39.8148 54.0044 39.7798 53.9692L39.0303 53.2197C38.9254 53.1149 38.7918 53.0434 38.6463 53.0145C38.5008 52.9856 38.35 53.0004 38.213 53.0572C38.076 53.1139 37.9588 53.2101 37.8764 53.3334C37.794 53.4567 37.75 53.6017 37.75 53.75H32.5V50.75C32.5 50.5511 32.421 50.3603 32.2803 50.2197C32.1397 50.079 31.9489 50 31.75 50C31.5511 50 31.3603 50.079 31.2197 50.2197C31.079 50.3603 31 50.5511 31 50.75V54.5C31 54.6989 31.079 54.8897 31.2197 55.0303C31.3603 55.171 31.5511 55.25 31.75 55.25H37.75Z" fill="white"/>
</g>
<defs>
<filter id="filter0_d_3108_16910" x="0" y="6" width="86.2031" height="90.2031" filterUnits="userSpaceOnUse" color-interpolation-filters="sRGB">
<feFlood flood-opacity="0" result="BackgroundImageFix"/>
<feColorMatrix in="SourceAlpha" type="matrix" values="0 0 0 0 0 0 0 0 0 0 0 0 0 0 0 0 0 0 127 0" result="hardAlpha"/>
<feOffset dy="12"/>
<feGaussianBlur stdDeviation="4"/>
<feComposite in2="hardAlpha" operator="out"/>
<feColorMatrix type="matrix" values="0 0 0 0 0 0 0 0 0 0 0 0 0 0 0 0 0 0 0.5 0"/>
<feBlend mode="normal" in2="BackgroundImageFix" result="effect1_dropShadow_3108_16910"/>
<feBlend mode="normal" in="SourceGraphic" in2="effect1_dropShadow_3108_16910" result="shape"/>
</filter>
<clipPath id="clip0_3108_16910">
<rect width="48" height="48" fill="white" transform="translate(19 17)"/>
</clipPath>
</defs>
</svg>
