<svg width="48" height="57" viewBox="0 0 48 57" fill="none" xmlns="http://www.w3.org/2000/svg">
<path d="M23.8 1C28.522 1 32.35 4.82797 32.35 9.55L44.32 9.55078C45.5792 9.55078 46.6 10.5716 46.6 11.8308V52.8708C46.6 54.13 45.5792 55.1508 44.32 55.1508H3.28C2.02079 55.1508 1 54.13 1 52.8708V40.9008C5.72168 40.9004 9.54922 37.0726 9.54922 32.3508C9.54922 27.629 5.72168 23.8012 1 23.8008V11.8308C1 10.5716 2.02079 9.55078 3.28 9.55078L15.25 9.55C15.25 4.82797 19.078 1 23.8 1Z" fill="url(#paint0_linear_3327_33657)"/>
<path d="M31.85 9.55V10.05L32.35 10.05L44.32 10.0508C45.3031 10.0508 46.1 10.8477 46.1 11.8308V52.8708C46.1 53.8538 45.3031 54.6508 44.32 54.6508H3.28C2.29693 54.6508 1.5 53.8538 1.5 52.8708V41.3872C6.26526 41.1273 10.0492 37.1809 10.0492 32.3508C10.0492 27.5206 6.26526 23.5743 1.5 23.3144V11.8308C1.5 10.8477 2.29693 10.0508 3.28 10.0508H3.28003L15.25 10.05L15.75 10.05V9.55C15.75 5.10411 19.3541 1.5 23.8 1.5C28.2459 1.5 31.85 5.10411 31.85 9.55Z" stroke="url(#paint1_linear_3327_33657)" stroke-opacity="0.6"/>
<path d="M0.999957 40.4258L0.525 40.4258V40.9008V52.8708C0.525 54.3923 1.75846 55.6258 3.28 55.6258H44.32C45.8415 55.6258 47.075 54.3923 47.075 52.8708V11.8308C47.075 10.3092 45.8415 9.07578 44.32 9.07578H32.8127C32.5657 4.31222 28.6251 0.525 23.8 0.525C18.9749 0.525 15.0343 4.31222 14.7873 9.07578H3.28C1.75846 9.07578 0.525 10.3092 0.525 11.8308V23.8008V24.2757L0.999958 24.2758C5.45932 24.2762 9.07422 27.8913 9.07422 32.3508C9.07422 36.8102 5.45932 40.4254 0.999957 40.4258Z" stroke="url(#paint2_linear_3327_33657)" stroke-opacity="0.6" stroke-width="0.95"/>
<path d="M0.999957 40.4258L0.525 40.4258V40.9008V52.8708C0.525 54.3923 1.75846 55.6258 3.28 55.6258H44.32C45.8415 55.6258 47.075 54.3923 47.075 52.8708V11.8308C47.075 10.3092 45.8415 9.07578 44.32 9.07578H32.8127C32.5657 4.31222 28.6251 0.525 23.8 0.525C18.9749 0.525 15.0343 4.31222 14.7873 9.07578H3.28C1.75846 9.07578 0.525 10.3092 0.525 11.8308V23.8008V24.2757L0.999958 24.2758C5.45932 24.2762 9.07422 27.8913 9.07422 32.3508C9.07422 36.8102 5.45932 40.4254 0.999957 40.4258Z" stroke="url(#paint3_linear_3327_33657)" stroke-opacity="0.6" stroke-width="0.95"/>
<path fill-rule="evenodd" clip-rule="evenodd" d="M4.02091 24.9967C3.10964 24.4544 2.089 24.0767 1 23.9047H6.07747V24.8707L5.53517 26.1425C5.2604 25.8821 4.96836 25.6398 4.66094 25.4174L4.84546 24.9967H4.02091ZM8.16406 33.1913C8.19113 32.9144 8.20498 32.6335 8.20498 32.3495C8.20498 31.4808 8.07543 30.6423 7.83458 29.8524C7.8751 29.7861 7.91892 29.7215 7.96605 29.6587C8.30205 29.2107 8.75937 28.9027 9.33804 28.7347C8.81538 28.5293 8.41405 28.2307 8.13405 27.8387C7.85405 27.4467 7.71405 26.9707 7.71405 26.4107C7.71405 25.9067 7.84004 25.454 8.09204 25.0527C8.34404 24.642 8.71738 24.32 9.21204 24.0867C9.71603 23.844 10.3227 23.7227 11.032 23.7227C11.7414 23.7227 12.3434 23.844 12.838 24.0867C13.342 24.32 13.72 24.642 13.972 25.0527C14.2334 25.454 14.364 25.9067 14.364 26.4107C14.364 26.952 14.2194 27.428 13.93 27.8387C13.6407 28.24 13.244 28.5387 12.74 28.7347C13.3187 28.912 13.776 29.2247 14.112 29.6727C14.4574 30.1113 14.6301 30.6433 14.6301 31.2687C14.6301 31.8753 14.4807 32.4073 14.182 32.8647C13.8834 33.3127 13.4587 33.6627 12.9081 33.9147C12.3667 34.1573 11.7414 34.2787 11.032 34.2787C10.3227 34.2787 9.69737 34.1573 9.15604 33.9147C8.76107 33.7276 8.43041 33.4865 8.16406 33.1913ZM12.572 25.2487C12.9454 25.5567 13.1321 25.9953 13.1321 26.5647C13.1321 27.0873 12.936 27.512 12.544 27.8387C12.1614 28.156 11.6574 28.3147 11.032 28.3147C10.416 28.3147 9.91205 28.156 9.52005 27.8387C9.13739 27.5213 8.94605 27.1013 8.94605 26.5787C8.94605 26 9.13271 25.5567 9.50604 25.2487C9.87938 24.9407 10.388 24.7867 11.032 24.7867C11.6854 24.7867 12.1987 24.9407 12.572 25.2487ZM9.33804 29.7847C9.7767 29.458 10.3414 29.2947 11.032 29.2947C11.732 29.2947 12.2967 29.4627 12.726 29.7987C13.1554 30.1253 13.37 30.6013 13.37 31.2267C13.37 31.824 13.16 32.3047 12.74 32.6687C12.32 33.0327 11.7507 33.2147 11.032 33.2147C10.3134 33.2147 9.73938 33.0327 9.31004 32.6687C8.89005 32.3047 8.68004 31.824 8.68004 31.2267C8.68004 30.5827 8.89938 30.102 9.33804 29.7847ZM19.2481 34.1247C18.6601 34.1247 18.1327 34.0267 17.6661 33.8307C17.1994 33.6253 16.8307 33.3453 16.5601 32.9907C16.2894 32.6267 16.1401 32.2113 16.1121 31.7447H17.4281C17.4654 32.1273 17.6427 32.44 17.9601 32.6827C18.2867 32.9253 18.7114 33.0467 19.2341 33.0467C19.7194 33.0467 20.1021 32.9393 20.3821 32.7247C20.6621 32.51 20.8021 32.2393 20.8021 31.9127C20.8021 31.5767 20.6527 31.3293 20.3541 31.1707C20.0554 31.0027 19.5934 30.8393 18.9681 30.6807C18.3987 30.5313 17.9321 30.382 17.5681 30.2327C17.2134 30.074 16.9054 29.8453 16.6441 29.5467C16.3921 29.2387 16.2661 28.8373 16.2661 28.3427C16.2661 27.9507 16.3827 27.5913 16.6161 27.2647C16.8494 26.938 17.1807 26.6813 17.6101 26.4947C18.0394 26.2987 18.5294 26.2007 19.0801 26.2007C19.9294 26.2007 20.6154 26.4153 21.1381 26.8447C21.6607 27.274 21.9407 27.862 21.9781 28.6087H20.7041C20.6761 28.2073 20.5127 27.8853 20.2141 27.6427C19.9247 27.4 19.5327 27.2787 19.0381 27.2787C18.5807 27.2787 18.2167 27.3767 17.9461 27.5727C17.6754 27.7687 17.5401 28.0253 17.5401 28.3427C17.5401 28.5947 17.6194 28.8047 17.7781 28.9727C17.9461 29.1313 18.1514 29.262 18.3941 29.3647C18.6461 29.458 18.9914 29.5653 19.4301 29.6867C19.9807 29.836 20.4287 29.9853 20.7741 30.1347C21.1194 30.2747 21.4134 30.4893 21.6561 30.7787C21.9081 31.068 22.0387 31.446 22.0481 31.9127C22.0481 32.3327 21.9314 32.7107 21.6981 33.0467C21.4647 33.3827 21.1334 33.6487 20.7041 33.8447C20.2841 34.0313 19.7987 34.1247 19.2481 34.1247ZM31.6725 33.9987L34.0665 26.3267H32.8065L31.0705 32.7807L29.2085 26.3267H27.9065L26.0025 32.7667L24.2385 26.3267H22.9365L25.3445 33.9987H26.6605L28.5085 27.9087L30.3565 33.9987H31.6725Z" fill="#C4CBF5"/>
<mask id="path-6-outside-1_3327_33657" maskUnits="userSpaceOnUse" x="0" y="-0.742188" width="48" height="57" fill="black">
<rect fill="white" y="-0.742188" width="48" height="57"/>
<path fill-rule="evenodd" clip-rule="evenodd" d="M46.6 37.2259C44.6728 43.4745 42.2731 49.4591 39.4513 55.1497H39.2264C42.1576 49.2511 44.6342 43.0355 46.6 36.5366V37.2259ZM46.6 35.6089V36.1116C46.5852 36.1449 46.5703 36.1781 46.5553 36.2112L46.3719 36.128C46.4495 35.956 46.5256 35.783 46.6 35.6089ZM46.6 31.0745V30.8654L20.2806 24.1427L26.0909 1.30933C26.0264 1.29142 25.9615 1.27424 25.8963 1.25781L20.0855 24.0929L1 19.2178V19.427L20.0356 24.2892L12.1825 55.1497H12.3902L13.0921 52.3917C13.2761 52.4387 13.4604 52.484 13.6446 52.5272L13.691 52.3299C13.508 52.287 13.3249 52.2421 13.142 52.1954L20.2306 24.339L46.6 31.0745ZM45.0783 9.67879C45.1291 9.76682 45.1795 9.85511 45.2294 9.94365L45.4046 9.84353C45.3992 9.83402 45.3938 9.82451 45.3885 9.81501C45.2892 9.76226 45.1856 9.71662 45.0783 9.67879ZM46.4443 11.8698C46.2841 11.5253 46.1174 11.184 45.9441 10.8464L45.7651 10.9397C45.9373 11.2749 46.1028 11.6139 46.2619 11.956L46.4443 11.8698ZM45.5367 38.252C45.7192 37.9198 45.8957 37.583 46.0659 37.2418L45.886 37.1513C45.717 37.49 45.5418 37.8243 45.3605 38.1543L45.5367 38.252ZM44.3602 40.2074C44.5686 39.89 44.7711 39.568 44.9677 39.2413L44.7955 39.1366C44.6003 39.4612 44.3992 39.781 44.1923 40.0959L44.3602 40.2074ZM43.0346 42.0625C43.2671 41.7628 43.4942 41.4579 43.7155 41.1482L43.5522 41.0302C43.3324 41.3377 43.1069 41.6405 42.876 41.938L43.0346 42.0625ZM41.5678 43.8068C41.8232 43.5263 42.0735 43.2403 42.3185 42.9489L42.1649 42.8183C41.9216 43.1076 41.6731 43.3917 41.4194 43.6704L41.5678 43.8068ZM39.9692 45.4305C40.2457 45.1709 40.5175 44.9055 40.7842 44.6346L40.6414 44.4921C40.3765 44.7613 40.1067 45.0246 39.832 45.2825L39.9692 45.4305ZM38.2495 46.9231C38.5455 46.6859 38.837 46.4427 39.1238 46.1938L38.9925 46.0404C38.7077 46.2876 38.4182 46.529 38.1243 46.7647L38.2495 46.9231ZM36.4194 48.2761C36.7329 48.0627 37.0424 47.843 37.3476 47.6174L37.2286 47.4545C36.9255 47.6785 36.6182 47.8964 36.3069 48.1084L36.4194 48.2761ZM34.4903 49.4816C34.8194 49.2933 35.1449 49.0988 35.4664 48.8978L35.3605 48.7259C35.0412 48.9254 34.7179 49.1187 34.3911 49.3055L34.4903 49.4816ZM32.4738 50.5324C32.8166 50.3704 33.1561 50.202 33.4922 50.0268L33.3999 49.847C33.0662 50.0208 32.729 50.1883 32.3886 50.3491L32.4738 50.5324ZM30.3825 51.4216C30.7368 51.2871 31.0883 51.1457 31.4367 50.9975L31.3587 50.8109C31.0127 50.958 30.6637 51.0985 30.3118 51.232L30.3825 51.4216ZM28.2288 52.1435C28.5926 52.0373 28.9539 51.924 29.3127 51.8038L29.2494 51.6118C28.8932 51.7312 28.5344 51.8435 28.1731 51.9491L28.2288 52.1435ZM26.0253 52.6935C26.3964 52.6163 26.7655 52.5319 27.1323 52.4403L27.0843 52.2438C26.72 52.3347 26.3535 52.4185 25.985 52.4951L26.0253 52.6935ZM23.7869 53.0669C24.1628 53.0194 24.5372 52.9645 24.9098 52.9023L24.8773 52.7025C24.5073 52.7642 24.1356 52.8187 23.7622 52.8659L23.7869 53.0669ZM21.5256 53.2613C21.9044 53.2439 22.282 53.219 22.6583 53.1866L22.6416 52.9848C22.268 53.0168 21.8931 53.0416 21.5169 53.0589L21.5256 53.2613ZM19.2573 53.2752C19.6361 53.288 20.014 53.2932 20.391 53.2909L20.3902 53.0883C20.0159 53.0907 19.6406 53.0854 19.2645 53.0728L19.2573 53.2752ZM16.9951 53.1092C17.3722 53.152 17.749 53.1871 18.1248 53.2147L18.1399 53.0126C17.7665 52.9853 17.3927 52.9504 17.0184 52.9078L16.9951 53.1092ZM14.7529 52.7648C15.1253 52.8371 15.4978 52.9018 15.87 52.959L15.9008 52.7588C15.5314 52.702 15.1613 52.6377 14.7913 52.566L14.7529 52.7648Z"/>
</mask>
<path fill-rule="evenodd" clip-rule="evenodd" d="M46.6 37.2259C44.6728 43.4745 42.2731 49.4591 39.4513 55.1497H39.2264C42.1576 49.2511 44.6342 43.0355 46.6 36.5366V37.2259ZM46.6 35.6089V36.1116C46.5852 36.1449 46.5703 36.1781 46.5553 36.2112L46.3719 36.128C46.4495 35.956 46.5256 35.783 46.6 35.6089ZM46.6 31.0745V30.8654L20.2806 24.1427L26.0909 1.30933C26.0264 1.29142 25.9615 1.27424 25.8963 1.25781L20.0855 24.0929L1 19.2178V19.427L20.0356 24.2892L12.1825 55.1497H12.3902L13.0921 52.3917C13.2761 52.4387 13.4604 52.484 13.6446 52.5272L13.691 52.3299C13.508 52.287 13.3249 52.2421 13.142 52.1954L20.2306 24.339L46.6 31.0745ZM45.0783 9.67879C45.1291 9.76682 45.1795 9.85511 45.2294 9.94365L45.4046 9.84353C45.3992 9.83402 45.3938 9.82451 45.3885 9.81501C45.2892 9.76226 45.1856 9.71662 45.0783 9.67879ZM46.4443 11.8698C46.2841 11.5253 46.1174 11.184 45.9441 10.8464L45.7651 10.9397C45.9373 11.2749 46.1028 11.6139 46.2619 11.956L46.4443 11.8698ZM45.5367 38.252C45.7192 37.9198 45.8957 37.583 46.0659 37.2418L45.886 37.1513C45.717 37.49 45.5418 37.8243 45.3605 38.1543L45.5367 38.252ZM44.3602 40.2074C44.5686 39.89 44.7711 39.568 44.9677 39.2413L44.7955 39.1366C44.6003 39.4612 44.3992 39.781 44.1923 40.0959L44.3602 40.2074ZM43.0346 42.0625C43.2671 41.7628 43.4942 41.4579 43.7155 41.1482L43.5522 41.0302C43.3324 41.3377 43.1069 41.6405 42.876 41.938L43.0346 42.0625ZM41.5678 43.8068C41.8232 43.5263 42.0735 43.2403 42.3185 42.9489L42.1649 42.8183C41.9216 43.1076 41.6731 43.3917 41.4194 43.6704L41.5678 43.8068ZM39.9692 45.4305C40.2457 45.1709 40.5175 44.9055 40.7842 44.6346L40.6414 44.4921C40.3765 44.7613 40.1067 45.0246 39.832 45.2825L39.9692 45.4305ZM38.2495 46.9231C38.5455 46.6859 38.837 46.4427 39.1238 46.1938L38.9925 46.0404C38.7077 46.2876 38.4182 46.529 38.1243 46.7647L38.2495 46.9231ZM36.4194 48.2761C36.7329 48.0627 37.0424 47.843 37.3476 47.6174L37.2286 47.4545C36.9255 47.6785 36.6182 47.8964 36.3069 48.1084L36.4194 48.2761ZM34.4903 49.4816C34.8194 49.2933 35.1449 49.0988 35.4664 48.8978L35.3605 48.7259C35.0412 48.9254 34.7179 49.1187 34.3911 49.3055L34.4903 49.4816ZM32.4738 50.5324C32.8166 50.3704 33.1561 50.202 33.4922 50.0268L33.3999 49.847C33.0662 50.0208 32.729 50.1883 32.3886 50.3491L32.4738 50.5324ZM30.3825 51.4216C30.7368 51.2871 31.0883 51.1457 31.4367 50.9975L31.3587 50.8109C31.0127 50.958 30.6637 51.0985 30.3118 51.232L30.3825 51.4216ZM28.2288 52.1435C28.5926 52.0373 28.9539 51.924 29.3127 51.8038L29.2494 51.6118C28.8932 51.7312 28.5344 51.8435 28.1731 51.9491L28.2288 52.1435ZM26.0253 52.6935C26.3964 52.6163 26.7655 52.5319 27.1323 52.4403L27.0843 52.2438C26.72 52.3347 26.3535 52.4185 25.985 52.4951L26.0253 52.6935ZM23.7869 53.0669C24.1628 53.0194 24.5372 52.9645 24.9098 52.9023L24.8773 52.7025C24.5073 52.7642 24.1356 52.8187 23.7622 52.8659L23.7869 53.0669ZM21.5256 53.2613C21.9044 53.2439 22.282 53.219 22.6583 53.1866L22.6416 52.9848C22.268 53.0168 21.8931 53.0416 21.5169 53.0589L21.5256 53.2613ZM19.2573 53.2752C19.6361 53.288 20.014 53.2932 20.391 53.2909L20.3902 53.0883C20.0159 53.0907 19.6406 53.0854 19.2645 53.0728L19.2573 53.2752ZM16.9951 53.1092C17.3722 53.152 17.749 53.1871 18.1248 53.2147L18.1399 53.0126C17.7665 52.9853 17.3927 52.9504 17.0184 52.9078L16.9951 53.1092ZM14.7529 52.7648C15.1253 52.8371 15.4978 52.9018 15.87 52.959L15.9008 52.7588C15.5314 52.702 15.1613 52.6377 14.7913 52.566L14.7529 52.7648Z" fill="#C4CBF5"/>
<path d="M46.6 37.2259L47.5078 37.5059L47.55 37.3691V37.2259H46.6ZM39.4513 55.1497V56.0997H40.0406L40.3024 55.5717L39.4513 55.1497ZM39.2264 55.1497L38.3757 54.7269L37.6935 56.0997H39.2264V55.1497ZM46.6 36.5366H47.55L45.6907 36.2616L46.6 36.5366ZM46.6 35.6089H47.55L45.7265 35.2354L46.6 35.6089ZM46.6 36.1116L47.4674 36.499L47.55 36.3141V36.1116H46.6ZM46.5553 36.2112L46.1628 37.0763L47.0298 37.4697L47.4213 36.6019L46.5553 36.2112ZM46.3719 36.128L45.506 35.7374L45.1162 36.6015L45.9794 36.9931L46.3719 36.128ZM46.6 30.8654H47.55V30.1276L46.8351 29.945L46.6 30.8654ZM46.6 31.0745L46.3649 31.995L47.55 32.2977V31.0745H46.6ZM20.2806 24.1427L19.3599 23.9084L19.1258 24.8282L20.0455 25.0631L20.2806 24.1427ZM26.0909 1.30933L27.0116 1.54361L27.2409 0.642539L26.345 0.393925L26.0909 1.30933ZM25.8963 1.25781L26.1286 0.336634L25.2094 0.104921L24.9757 1.02353L25.8963 1.25781ZM20.0855 24.0929L19.8504 25.0133L20.7717 25.2486L21.0062 24.3271L20.0855 24.0929ZM1 19.2178L1.23511 18.2974L0.05 17.9947V19.2178H1ZM1 19.427H0.05V20.1648L0.764891 20.3474L1 19.427ZM20.0356 24.2892L20.9562 24.5235L21.1903 23.6036L20.2707 23.3687L20.0356 24.2892ZM12.1825 55.1497L11.2619 54.9154L10.9605 56.0997H12.1825V55.1497ZM12.3902 55.1497V56.0997H13.1288L13.3109 55.3839L12.3902 55.1497ZM13.0921 52.3917L13.3271 51.4713L12.4059 51.236L12.1714 52.1574L13.0921 52.3917ZM13.6446 52.5272L13.4277 53.4521L14.3521 53.6689L14.5694 52.7447L13.6446 52.5272ZM13.691 52.3299L14.6158 52.5474L14.8334 51.622L13.9078 51.405L13.691 52.3299ZM13.142 52.1954L12.2214 51.9611L11.9873 52.8809L12.9069 53.1158L13.142 52.1954ZM20.2306 24.339L20.4657 23.4186L19.5444 23.1832L19.3099 24.1047L20.2306 24.339ZM45.2294 9.94365L44.4018 10.4102L44.8711 11.2426L45.7008 10.7684L45.2294 9.94365ZM45.0783 9.67879L45.3941 8.78284L42.9707 7.9285L44.2556 10.1538L45.0783 9.67879ZM45.4046 9.84353L45.876 10.6683L46.6956 10.1999L46.2323 9.37728L45.4046 9.84353ZM45.3885 9.81501L46.2156 9.3478L46.0792 9.10629L45.8343 8.97612L45.3885 9.81501ZM45.9441 10.8464L46.7892 10.4126L46.3527 9.56221L45.505 10.004L45.9441 10.8464ZM46.4443 11.8698L46.8503 12.7287L47.7037 12.3253L47.3057 11.4692L46.4443 11.8698ZM45.7651 10.9397L45.326 10.0973L44.4887 10.5337L44.92 11.3736L45.7651 10.9397ZM46.2619 11.956L45.4004 12.3564L45.8034 13.2235L46.6678 12.8149L46.2619 11.956ZM46.0659 37.2418L46.916 37.666L47.3389 36.8186L46.4928 36.3931L46.0659 37.2418ZM45.5367 38.252L45.0759 39.0827L45.91 39.5455L46.3693 38.7094L45.5367 38.252ZM45.886 37.1513L46.3129 36.3026L45.4616 35.8745L45.036 36.7271L45.886 37.1513ZM45.3605 38.1543L44.5279 37.6969L44.0725 38.5261L44.8997 38.985L45.3605 38.1543ZM44.9677 39.2413L45.7818 39.731L46.2692 38.9206L45.4611 38.4294L44.9677 39.2413ZM44.3602 40.2074L43.8347 40.9988L44.6303 41.5271L45.1544 40.7288L44.3602 40.2074ZM44.7955 39.1366L45.289 38.3248L44.4734 37.8291L43.9815 38.647L44.7955 39.1366ZM44.1923 40.0959L43.3983 39.5744L42.8794 40.3645L43.6668 40.8873L44.1923 40.0959ZM43.7155 41.1482L44.4885 41.7005L45.0381 40.9315L44.2718 40.378L43.7155 41.1482ZM43.0346 42.0625L42.448 42.8098L43.1995 43.3996L43.7851 42.6449L43.0346 42.0625ZM43.5522 41.0302L44.1084 40.26L43.3344 39.701L42.7793 40.4778L43.5522 41.0302ZM42.876 41.938L42.1255 41.3556L41.5462 42.102L42.2894 42.6853L42.876 41.938ZM42.3185 42.9489L43.0456 43.5602L43.6535 42.8371L42.9338 42.2252L42.3185 42.9489ZM41.5678 43.8068L40.9248 44.5061L41.6276 45.1523L42.2703 44.4464L41.5678 43.8068ZM42.1649 42.8183L42.7802 42.0946L42.0524 41.4757L41.4377 42.207L42.1649 42.8183ZM41.4194 43.6704L40.7169 43.0309L40.0807 43.7299L40.7764 44.3697L41.4194 43.6704ZM40.7842 44.6346L41.4613 45.301L42.1234 44.6283L41.4551 43.9619L40.7842 44.6346ZM39.9692 45.4305L39.2726 46.0764L39.9225 46.7772L40.6193 46.1232L39.9692 45.4305ZM40.6414 44.4921L41.3122 43.8194L40.6351 43.1442L39.9643 43.8257L40.6414 44.4921ZM39.832 45.2825L39.1816 44.59L38.4935 45.2363L39.1354 45.9285L39.832 45.2825ZM39.1238 46.1938L39.7465 46.9112L40.4592 46.2927L39.8454 45.5759L39.1238 46.1938ZM38.2495 46.9231L37.5042 47.5121L38.0973 48.2626L38.8437 47.6644L38.2495 46.9231ZM38.9925 46.0404L39.7141 45.4225L39.0921 44.6962L38.3699 45.323L38.9925 46.0404ZM38.1243 46.7647L37.5301 46.0235L36.7941 46.6136L37.379 47.3537L38.1243 46.7647ZM37.3476 47.6174L37.9123 48.3814L38.6718 47.8199L38.1148 47.0572L37.3476 47.6174ZM36.4194 48.2761L35.6305 48.8055L36.1634 49.5997L36.954 49.0614L36.4194 48.2761ZM37.2286 47.4545L37.9958 46.8942L37.4323 46.1225L36.6639 46.6905L37.2286 47.4545ZM36.3069 48.1084L35.7722 47.3232L34.9922 47.8542L35.518 48.6377L36.3069 48.1084ZM35.4664 48.8978L35.9698 49.7035L36.7706 49.2032L36.2752 48.3994L35.4664 48.8978ZM34.4903 49.4816L33.6625 49.9478L34.1318 50.7811L34.962 50.3062L34.4903 49.4816ZM35.3605 48.7259L36.1692 48.2275L35.6677 47.4139L34.8572 47.9202L35.3605 48.7259ZM34.3911 49.3055L33.9197 48.4808L33.1001 48.9492L33.5634 49.7717L34.3911 49.3055ZM33.4922 50.0268L33.9314 50.8692L34.7687 50.4327L34.3373 49.5928L33.4922 50.0268ZM32.4738 50.5324L31.6124 50.933L32.0155 51.7997L32.8797 51.3914L32.4738 50.5324ZM33.3999 49.847L34.245 49.413L33.8085 48.5632L32.9611 49.0045L33.3999 49.847ZM32.3886 50.3491L31.9828 49.4901L31.1289 49.8935L31.5272 50.7497L32.3886 50.3491ZM31.4367 50.9975L31.8087 51.8717L32.6774 51.502L32.3132 50.631L31.4367 50.9975ZM30.3825 51.4216L29.4924 51.7535L29.8263 52.6488L30.7196 52.3097L30.3825 51.4216ZM31.3587 50.8109L32.2352 50.4445L31.8665 49.5628L30.9871 49.9367L31.3587 50.8109ZM30.3118 51.232L29.9747 50.3439L29.0917 50.6791L29.4217 51.564L30.3118 51.232ZM29.3127 51.8038L29.6147 52.7045L30.5109 52.404L30.2149 51.5063L29.3127 51.8038ZM28.2288 52.1435L27.3155 52.4052L27.5785 53.3229L28.495 53.0554L28.2288 52.1435ZM29.2494 51.6118L30.1516 51.3143L29.8527 50.4076L28.9475 50.711L29.2494 51.6118ZM28.1731 51.9491L27.9066 51.0372L26.9995 51.3022L27.2598 52.2108L28.1731 51.9491ZM27.1323 52.4403L27.3625 53.362L28.2796 53.1331L28.0552 52.2148L27.1323 52.4403ZM26.0253 52.6935L25.0943 52.8825L25.2841 53.818L26.2188 53.6236L26.0253 52.6935ZM27.0843 52.2438L28.0072 52.0182L27.7805 51.0908L26.8542 51.3221L27.0843 52.2438ZM25.985 52.4951L25.7917 51.565L24.8659 51.7574L25.054 52.684L25.985 52.4951ZM24.9098 52.9023L25.0663 53.8393L25.9994 53.6834L25.8474 52.7497L24.9098 52.9023ZM23.7869 53.0669L22.8439 53.1824L22.9598 54.1292L23.9061 54.0094L23.7869 53.0669ZM24.8773 52.7025L25.8149 52.5499L25.6617 51.6088L24.7211 51.7655L24.8773 52.7025ZM23.7622 52.8659L23.6431 51.9234L22.7043 52.0421L22.8193 52.9813L23.7622 52.8659ZM22.6583 53.1866L22.7397 54.1331L23.683 54.0519L23.605 53.1084L22.6583 53.1866ZM21.5256 53.2613L20.5765 53.3022L20.6176 54.254L21.5692 54.2103L21.5256 53.2613ZM22.6416 52.9848L23.5883 52.9066L23.5099 51.9568L22.5604 52.0383L22.6416 52.9848ZM21.5169 53.0589L21.4732 52.1099L20.527 52.1535L20.5678 53.0998L21.5169 53.0589ZM20.391 53.2909L20.3966 54.2409L21.3445 54.2353L21.341 53.2874L20.391 53.2909ZM19.2573 53.2752L18.3079 53.2415L18.2742 54.1925L19.2252 54.2246L19.2573 53.2752ZM20.3902 53.0883L21.3402 53.0848L21.3367 52.1321L20.3841 52.1383L20.3902 53.0883ZM19.2645 53.0728L19.2964 52.1233L18.3486 52.0915L18.3151 53.0391L19.2645 53.0728ZM18.1248 53.2147L18.0551 54.1622L19.0015 54.2318L19.0722 53.2854L18.1248 53.2147ZM16.9951 53.1092L16.0514 53.0001L15.9421 53.9457L16.8879 54.0531L16.9951 53.1092ZM18.1399 53.0126L19.0873 53.0833L19.1581 52.1344L18.2092 52.0651L18.1399 53.0126ZM17.0184 52.9078L17.1259 51.9639L16.1836 51.8566L16.0747 52.7987L17.0184 52.9078ZM15.87 52.959L15.7257 53.8979L16.6642 54.0421L16.8089 53.1037L15.87 52.959ZM14.7529 52.7648L13.8202 52.5846L13.6402 53.5164L14.5718 53.6973L14.7529 52.7648ZM15.9008 52.7588L16.8397 52.9035L16.9846 51.9641L16.045 51.8198L15.9008 52.7588ZM14.7913 52.566L14.9721 51.6333L14.0388 51.4524L13.8585 52.3858L14.7913 52.566ZM45.6922 36.9459C43.7801 43.1455 41.3995 49.0826 38.6002 54.7276L40.3024 55.5717C43.1468 49.8357 45.5655 43.8035 47.5078 37.5059L45.6922 36.9459ZM39.4513 54.1997H39.2264V56.0997H39.4513V54.1997ZM40.0772 55.5724C43.0318 49.6266 45.5281 43.3616 47.5093 36.8116L45.6907 36.2616C43.7404 42.7094 41.2834 48.8756 38.3757 54.7269L40.0772 55.5724ZM45.65 36.5366V37.2259H47.55V36.5366H45.65ZM45.65 35.6089V36.1116H47.55V35.6089H45.65ZM45.7326 35.7243C45.7182 35.7564 45.7038 35.7885 45.6893 35.8206L47.4213 36.6019C47.4367 36.5676 47.4521 36.5333 47.4674 36.499L45.7326 35.7243ZM46.9478 35.3461L46.7645 35.2629L45.9794 36.9931L46.1628 37.0763L46.9478 35.3461ZM47.2379 36.5186C47.3181 36.3409 47.3966 36.1622 47.4735 35.9824L45.7265 35.2354C45.6545 35.4037 45.581 35.5711 45.506 35.7374L47.2379 36.5186ZM45.65 30.8654V31.0745H47.55V30.8654H45.65ZM46.8351 29.945L20.5157 23.2222L20.0455 25.0631L46.3649 31.7859L46.8351 29.945ZM21.2012 24.3769L27.0116 1.54361L25.1703 1.07506L19.3599 23.9084L21.2012 24.3769ZM25.6641 2.17899C25.722 2.19358 25.7796 2.20884 25.8369 2.22474L26.345 0.393925C26.2732 0.374001 26.201 0.354901 26.1286 0.336634L25.6641 2.17899ZM24.9757 1.02353L19.1649 23.8586L21.0062 24.3271L26.817 1.49209L24.9757 1.02353ZM20.3206 23.1724L1.23511 18.2974L0.764891 20.1383L19.8504 25.0133L20.3206 23.1724ZM1.95 19.427V19.2178H0.05V19.427H1.95ZM0.764891 20.3474L19.8004 25.2096L20.2707 23.3687L1.23511 18.5065L0.764891 20.3474ZM19.1149 24.0549L11.2619 54.9154L13.1032 55.3839L20.9562 24.5235L19.1149 24.0549ZM12.3902 54.1997H12.1825V56.0997H12.3902V54.1997ZM12.1714 52.1574L11.4696 54.9154L13.3109 55.3839L14.0127 52.626L12.1714 52.1574ZM13.8616 51.6023C13.6838 51.5606 13.5057 51.5169 13.3271 51.4713L12.857 53.3122C13.0466 53.3606 13.2369 53.4074 13.4277 53.4521L13.8616 51.6023ZM12.7662 52.1125L12.7198 52.3098L14.5694 52.7447L14.6158 52.5474L12.7662 52.1125ZM12.9069 53.1158C13.0955 53.164 13.2846 53.2104 13.4742 53.2549L13.9078 51.405C13.7313 51.3636 13.5543 51.3202 13.3771 51.2749L12.9069 53.1158ZM19.3099 24.1047L12.2214 51.9611L14.0627 52.4297L21.1513 24.5733L19.3099 24.1047ZM46.8351 30.1541L20.4657 23.4186L19.9955 25.2595L46.3649 31.995L46.8351 30.1541ZM46.0569 9.47715C46.0054 9.38575 45.9534 9.29462 45.901 9.20376L44.2556 10.1538C44.3047 10.239 44.3535 10.3245 44.4018 10.4102L46.0569 9.47715ZM44.9332 9.01873L44.758 9.11886L45.7008 10.7684L45.876 10.6683L44.9332 9.01873ZM44.5613 10.2822C44.5667 10.2917 44.5718 10.3008 44.5768 10.3098L46.2323 9.37728C46.2266 9.36725 46.221 9.35732 46.2156 9.3478L44.5613 10.2822ZM44.7624 10.5747C44.8246 10.5967 44.8849 10.6232 44.9426 10.6539L45.8343 8.97612C45.6935 8.90132 45.5465 8.83656 45.3941 8.78284L44.7624 10.5747ZM45.0989 11.2803C45.2665 11.6068 45.4279 11.9369 45.5829 12.2703L47.3057 11.4692C47.1404 11.1137 46.9682 10.7613 46.7892 10.4126L45.0989 11.2803ZM46.2042 11.7822L46.3831 11.6889L45.505 10.004L45.326 10.0973L46.2042 11.7822ZM47.1233 11.5556C46.9592 11.2024 46.7881 10.8523 46.6102 10.5058L44.92 11.3736C45.0864 11.6976 45.2465 12.0254 45.4004 12.3564L47.1233 11.5556ZM46.0383 11.0109L45.8559 11.0971L46.6678 12.8149L46.8503 12.7287L46.0383 11.0109ZM45.2159 36.8176C45.0512 37.1476 44.8805 37.4734 44.7041 37.7946L46.3693 38.7094C46.5578 38.3662 46.7401 38.0184 46.916 37.666L45.2159 36.8176ZM45.4592 38L45.6391 38.0905L46.4928 36.3931L46.3129 36.3026L45.4592 38ZM46.1932 38.6116C46.3804 38.2708 46.5614 37.9255 46.736 37.5756L45.036 36.7271C44.8726 37.0546 44.7031 37.3778 44.5279 37.6969L46.1932 38.6116ZM45.9975 37.4213L45.8214 37.3235L44.8997 38.985L45.0759 39.0827L45.9975 37.4213ZM44.1536 38.7516C43.9636 39.0675 43.7677 39.3789 43.5661 39.686L45.1544 40.7288C45.3695 40.4011 45.5787 40.0686 45.7818 39.731L44.1536 38.7516ZM44.3021 39.9484L44.4743 40.0531L45.4611 38.4294L45.289 38.3248L44.3021 39.9484ZM44.9864 40.6175C45.2001 40.292 45.4079 39.9617 45.6096 39.6263L43.9815 38.647C43.7927 38.9608 43.5983 39.2699 43.3983 39.5744L44.9864 40.6175ZM44.8857 39.416L44.7178 39.3045L43.6668 40.8873L43.8347 40.9988L44.8857 39.416ZM42.9426 40.5958C42.7285 40.8954 42.5089 41.1903 42.284 41.4801L43.7851 42.6449C44.0253 42.3353 44.2599 42.0203 44.4885 41.7005L42.9426 40.5958ZM42.9959 41.8003L43.1593 41.9183L44.2718 40.378L44.1084 40.26L42.9959 41.8003ZM43.6265 42.5205C43.8652 42.213 44.0981 41.9002 44.3251 41.5825L42.7793 40.4778C42.5667 40.7753 42.3487 41.068 42.1255 41.3556L43.6265 42.5205ZM43.6211 41.3152L43.4625 41.1907L42.2894 42.6853L42.448 42.8098L43.6211 41.3152ZM41.5913 42.3376C41.3544 42.6194 41.1124 42.896 40.8654 43.1673L42.2703 44.4464C42.5341 44.1566 42.7926 43.8612 43.0456 43.5602L41.5913 42.3376ZM41.5495 43.5421L41.7031 43.6727L42.9338 42.2252L42.7802 42.0946L41.5495 43.5421ZM42.122 44.3099C42.3841 44.0219 42.6408 43.7285 42.892 43.4297L41.4377 42.207C41.2025 42.4868 40.9622 42.7615 40.7169 43.0309L42.122 44.3099ZM42.2108 43.1075L42.0625 42.9711L40.7764 44.3697L40.9248 44.5061L42.2108 43.1075ZM40.1072 43.9681C39.8492 44.2302 39.5864 44.4868 39.3191 44.7378L40.6193 46.1232C40.905 45.855 41.1857 45.5809 41.4613 45.301L40.1072 43.9681ZM39.9706 45.1648L40.1134 45.3072L41.4551 43.9619L41.3122 43.8194L39.9706 45.1648ZM40.4824 45.975C40.7659 45.7087 41.0446 45.4368 41.3185 45.1585L39.9643 43.8257C39.7084 44.0858 39.4475 44.3404 39.1816 44.59L40.4824 45.975ZM40.6658 44.7845L40.5286 44.6365L39.1354 45.9285L39.2726 46.0764L40.6658 44.7845ZM38.5011 45.4763C38.2236 45.7171 37.9417 45.9524 37.6554 46.1818L38.8437 47.6644C39.1493 47.4194 39.4503 47.1683 39.7465 46.9112L38.5011 45.4763ZM38.2709 46.6584L38.4022 46.8117L39.8454 45.5759L39.7141 45.4225L38.2709 46.6584ZM38.7186 47.5058C39.022 47.2626 39.321 47.0133 39.6152 46.7579L38.3699 45.323C38.0944 45.562 37.8145 45.7955 37.5301 46.0235L38.7186 47.5058ZM38.9949 46.3341L38.8697 46.1756L37.379 47.3537L37.5042 47.5121L38.9949 46.3341ZM36.7829 46.8535C36.4876 47.0718 36.1881 47.2843 35.8847 47.4909L36.954 49.0614C37.2778 48.841 37.5973 48.6143 37.9123 48.3814L36.7829 46.8535ZM36.4614 48.0147L36.5804 48.1777L38.1148 47.0572L37.9958 46.8942L36.4614 48.0147ZM36.8415 48.8937C37.1628 48.6749 37.4802 48.4499 37.7934 48.2184L36.6639 46.6905C36.3708 46.9072 36.0736 47.118 35.7722 47.3232L36.8415 48.8937ZM37.2083 47.7468L37.0957 47.5791L35.518 48.6377L35.6305 48.8055L37.2083 47.7468ZM34.9631 48.0922C34.652 48.2865 34.3371 48.4748 34.0186 48.657L34.962 50.3062C35.3017 50.1119 35.6377 49.911 35.9698 49.7035L34.9631 48.0922ZM34.5517 49.2244L34.6577 49.3963L36.2752 48.3994L36.1692 48.2275L34.5517 49.2244ZM34.8626 50.1303C35.2002 49.9373 35.5341 49.7376 35.8638 49.5316L34.8572 47.9202C34.5482 48.1132 34.2356 48.3002 33.9197 48.4808L34.8626 50.1303ZM35.318 49.0154L35.2189 48.8393L33.5634 49.7717L33.6625 49.9478L35.318 49.0154ZM33.0531 49.1844C32.7282 49.3537 32.3998 49.5167 32.0679 49.6735L32.8797 51.3914C33.2334 51.2242 33.5841 51.0502 33.9314 50.8692L33.0531 49.1844ZM32.5549 50.2811L32.6472 50.4608L34.3373 49.5928L34.245 49.413L32.5549 50.2811ZM32.7943 51.2081C33.1461 51.042 33.4943 50.869 33.8387 50.6896L32.9611 49.0045C32.6381 49.1727 32.312 49.3347 31.9828 49.4901L32.7943 51.2081ZM33.3352 50.1318L33.25 49.9485L31.5272 50.7497L31.6124 50.933L33.3352 50.1318ZM31.0648 50.1233C30.7279 50.2666 30.3881 50.4033 30.0454 50.5334L30.7196 52.3097C31.0855 52.1708 31.4486 52.0248 31.8087 51.8717L31.0648 50.1233ZM30.4823 51.1774L30.5603 51.364L32.3132 50.631L32.2352 50.4445L30.4823 51.1774ZM30.649 52.1202C31.0125 51.9822 31.3731 51.8371 31.7304 51.6852L30.9871 49.9367C30.6524 50.0789 30.3149 50.2147 29.9747 50.3439L30.649 52.1202ZM31.2726 51.0896L31.202 50.9001L29.4217 51.564L29.4924 51.7535L31.2726 51.0896ZM29.0107 50.903C28.6639 51.0193 28.3144 51.1288 27.9626 51.2315L28.495 53.0554C28.8707 52.9457 29.244 52.8288 29.6147 52.7045L29.0107 50.903ZM28.3472 51.9092L28.4105 52.1012L30.2149 51.5063L30.1516 51.3143L28.3472 51.9092ZM28.4395 52.8609C28.8124 52.752 29.1831 52.6359 29.5513 52.5125L28.9475 50.711C28.6033 50.8264 28.2563 50.935 27.9066 51.0372L28.4395 52.8609ZM29.142 51.8818L29.0863 51.6874L27.2598 52.2108L27.3155 52.4052L29.142 51.8818ZM26.9022 51.5186C26.5476 51.6072 26.1907 51.6887 25.8318 51.7634L26.2188 53.6236C26.602 53.5438 26.9833 53.4567 27.3625 53.362L26.9022 51.5186ZM26.1615 52.4693L26.2095 52.6658L28.0552 52.2148L28.0072 52.0182L26.1615 52.4693ZM26.1783 53.4252C26.5591 53.3461 26.9378 53.2595 27.3144 53.1655L26.8542 51.3221C26.5021 51.41 26.1479 51.4909 25.7917 51.565L26.1783 53.4252ZM26.9563 52.5045L26.916 52.3061L25.054 52.684L25.0943 52.8825L26.9563 52.5045ZM24.7533 51.9653C24.3932 52.0254 24.0313 52.0785 23.6676 52.1245L23.9061 54.0094C24.2944 53.9603 24.6812 53.9036 25.0663 53.8393L24.7533 51.9653ZM23.9396 52.8552L23.9721 53.0549L25.8474 52.7497L25.8149 52.5499L23.9396 52.8552ZM23.8814 53.8084C24.2672 53.7596 24.6513 53.7033 25.0334 53.6396L24.7211 51.7655C24.3634 51.8251 24.004 51.8778 23.6431 51.9234L23.8814 53.8084ZM24.7298 52.9515L24.7052 52.7505L22.8193 52.9813L22.8439 53.1824L24.7298 52.9515ZM22.5768 52.2401C22.2132 52.2714 21.8483 52.2955 21.482 52.3123L21.5692 54.2103C21.9606 54.1923 22.3508 54.1666 22.7397 54.1331L22.5768 52.2401ZM21.6948 53.063L21.7115 53.2649L23.605 53.1084L23.5883 52.9066L21.6948 53.063ZM21.5605 54.0079C21.9493 53.99 22.3368 53.9644 22.7228 53.9313L22.5604 52.0383C22.1992 52.0693 21.8368 52.0932 21.4732 52.1099L21.5605 54.0079ZM22.4747 53.2204L22.466 53.018L20.5678 53.0998L20.5765 53.3022L22.4747 53.2204ZM20.3853 52.3409C20.0209 52.3431 19.6555 52.3381 19.2894 52.3257L19.2252 54.2246C19.6167 54.2379 20.0072 54.2432 20.3966 54.2409L20.3853 52.3409ZM19.4403 53.0918L19.441 53.2944L21.341 53.2874L21.3402 53.0848L19.4403 53.0918ZM19.2326 54.0222C19.621 54.0353 20.009 54.0407 20.3964 54.0382L20.3841 52.1383C20.0228 52.1406 19.6601 52.1355 19.2964 52.1233L19.2326 54.0222ZM20.2067 53.3088L20.2139 53.1064L18.3151 53.0391L18.3079 53.2415L20.2067 53.3088ZM18.1945 52.2673C17.831 52.2405 17.4667 52.2066 17.1023 52.1652L16.8879 54.0531C17.2777 54.0974 17.667 54.1336 18.0551 54.1622L18.1945 52.2673ZM17.1925 52.9418L17.1775 53.144L19.0722 53.2854L19.0873 53.0833L17.1925 52.9418ZM16.9109 53.8517C17.2981 53.8958 17.6846 53.9318 18.0707 53.96L18.2092 52.0651C17.8484 52.0387 17.4874 52.0051 17.1259 51.9639L16.9109 53.8517ZM17.9389 53.2182L17.9621 53.0169L16.0747 52.7987L16.0514 53.0001L17.9389 53.2182ZM16.0142 52.02C15.6543 51.9647 15.2941 51.9021 14.9341 51.8322L14.5718 53.6973C14.9565 53.7721 15.3413 53.8389 15.7257 53.8979L16.0142 52.02ZM14.9619 52.614L14.931 52.8142L16.8089 53.1037L16.8397 52.9035L14.9619 52.614ZM14.6105 53.4986C14.9925 53.5727 15.3748 53.6391 15.7566 53.6978L16.045 51.8198C15.688 51.7649 15.3301 51.7027 14.9721 51.6333L14.6105 53.4986ZM15.6857 52.9449L15.7241 52.7461L13.8585 52.3858L13.8202 52.5846L15.6857 52.9449Z" fill="url(#paint4_linear_3327_33657)" fill-opacity="0.6" mask="url(#path-6-outside-1_3327_33657)"/>
<defs>
<linearGradient id="paint0_linear_3327_33657" x1="23.8" y1="1" x2="23.8" y2="55.1508" gradientUnits="userSpaceOnUse">
<stop stop-color="#3C52D8"/>
<stop offset="1" stop-color="#0D193B"/>
</linearGradient>
<linearGradient id="paint1_linear_3327_33657" x1="23.8" y1="1" x2="23.8" y2="55.1508" gradientUnits="userSpaceOnUse">
<stop stop-color="white"/>
<stop offset="1" stop-color="white" stop-opacity="0"/>
</linearGradient>
<linearGradient id="paint2_linear_3327_33657" x1="23.8" y1="56.8719" x2="23.8" y2="112.15" gradientUnits="userSpaceOnUse">
<stop stop-color="white" stop-opacity="0"/>
<stop offset="1" stop-color="white"/>
</linearGradient>
<linearGradient id="paint3_linear_3327_33657" x1="23.8" y1="56.8719" x2="23.8" y2="112.15" gradientUnits="userSpaceOnUse">
<stop stop-color="white" stop-opacity="0"/>
<stop offset="1" stop-color="white"/>
</linearGradient>
<linearGradient id="paint4_linear_3327_33657" x1="23.8002" y1="56.8689" x2="23.8002" y2="112.144" gradientUnits="userSpaceOnUse">
<stop stop-color="white" stop-opacity="0"/>
<stop offset="1" stop-color="white"/>
</linearGradient>
</defs>
</svg>
