<svg width="531" height="276" viewBox="0 0 531 276" fill="none" xmlns="http://www.w3.org/2000/svg">
<g clip-path="url(#clip0_3108_16140)">
<rect width="531" height="276" rx="16" fill="url(#paint0_linear_3108_16140)"/>
<circle cx="265.48" cy="137.979" r="216.979" fill="#080D27" stroke="#344679" stroke-width="2"/>
<mask id="mask0_3108_16140" style="mask-type:alpha" maskUnits="userSpaceOnUse" x="55" y="-71" width="420" height="419">
<circle cx="265.025" cy="138.357" r="208.562" fill="#141414" stroke="#242424"/>
</mask>
<g mask="url(#mask0_3108_16140)">
<line x1="197.537" y1="-177.836" x2="-40.5273" y2="234.503" stroke="#1D295D"/>
<line x1="200.001" y1="-176.41" x2="-38.0625" y2="235.929" stroke="#1D295D"/>
<line x1="202.47" y1="-174.984" x2="-35.5937" y2="237.354" stroke="#1D295D"/>
<line x1="204.943" y1="-173.559" x2="-33.1211" y2="238.78" stroke="#1D295D"/>
<line x1="207.41" y1="-172.135" x2="-30.6543" y2="240.204" stroke="#1D295D"/>
<line x1="209.88" y1="-170.709" x2="-28.1836" y2="241.63" stroke="#1D295D"/>
<line x1="212.347" y1="-169.283" x2="-25.7168" y2="243.055" stroke="#1D295D"/>
<line x1="214.818" y1="-167.857" x2="-23.2461" y2="244.481" stroke="#1D295D"/>
<line x1="217.285" y1="-166.432" x2="-20.7793" y2="245.907" stroke="#1D295D"/>
<line x1="219.753" y1="-165.006" x2="-18.3105" y2="247.333" stroke="#1D295D"/>
<line x1="222.222" y1="-163.582" x2="-15.8418" y2="248.757" stroke="#1D295D"/>
<line x1="224.691" y1="-162.156" x2="-13.373" y2="250.182" stroke="#1D295D"/>
<line x1="227.163" y1="-160.73" x2="-10.9004" y2="251.608" stroke="#1D295D"/>
<line x1="229.632" y1="-159.305" x2="-8.43161" y2="253.034" stroke="#1D295D"/>
<line x1="232.099" y1="-157.879" x2="-5.96481" y2="254.46" stroke="#1D295D"/>
<line x1="234.57" y1="-156.453" x2="-3.49411" y2="255.886" stroke="#1D295D"/>
<line x1="237.037" y1="-155.029" x2="-1.02731" y2="257.309" stroke="#1D295D"/>
<line x1="239.509" y1="-153.604" x2="1.44534" y2="258.735" stroke="#1D295D"/>
<line x1="241.974" y1="-152.178" x2="3.91019" y2="260.161" stroke="#1D295D"/>
<line x1="244.443" y1="-150.752" x2="6.37894" y2="261.587" stroke="#1D295D"/>
<line x1="246.913" y1="-149.326" x2="8.84964" y2="263.012" stroke="#1D295D"/>
<line x1="249.382" y1="-147.9" x2="11.3184" y2="264.438" stroke="#1D295D"/>
<line x1="251.851" y1="-146.477" x2="13.7871" y2="265.862" stroke="#1D295D"/>
<line x1="254.32" y1="-145.051" x2="16.2559" y2="267.288" stroke="#1D295D"/>
<line x1="256.792" y1="-143.625" x2="18.7285" y2="268.714" stroke="#1D295D"/>
<line x1="259.255" y1="-142.199" x2="21.1914" y2="270.139" stroke="#1D295D"/>
<line x1="261.726" y1="-140.773" x2="23.6621" y2="271.565" stroke="#1D295D"/>
<line x1="264.195" y1="-139.348" x2="26.1309" y2="272.991" stroke="#1D295D"/>
<line x1="266.663" y1="-137.924" x2="28.5996" y2="274.415" stroke="#1D295D"/>
<line x1="269.136" y1="-136.498" x2="31.0723" y2="275.841" stroke="#1D295D"/>
<line x1="271.603" y1="-135.072" x2="33.5391" y2="277.266" stroke="#1D295D"/>
<line x1="274.07" y1="-133.646" x2="36.0059" y2="278.692" stroke="#1D295D"/>
<line x1="276.54" y1="-132.221" x2="38.4766" y2="280.118" stroke="#1D295D"/>
<line x1="279.007" y1="-130.795" x2="40.9434" y2="281.544" stroke="#1D295D"/>
<line x1="281.478" y1="-129.373" x2="43.4141" y2="282.966" stroke="#1D295D"/>
<line x1="283.947" y1="-127.947" x2="45.8828" y2="284.391" stroke="#1D295D"/>
<line x1="286.412" y1="-126.521" x2="48.3477" y2="285.817" stroke="#1D295D"/>
<line x1="288.882" y1="-125.096" x2="50.8184" y2="287.243" stroke="#1D295D"/>
<line x1="291.351" y1="-123.67" x2="53.2871" y2="288.669" stroke="#1D295D"/>
<line x1="293.822" y1="-122.244" x2="55.7578" y2="290.095" stroke="#1D295D"/>
<line x1="296.288" y1="-120.82" x2="58.2246" y2="291.518" stroke="#1D295D"/>
<line x1="298.761" y1="-119.395" x2="60.6973" y2="292.944" stroke="#1D295D"/>
<line x1="301.228" y1="-117.969" x2="63.1641" y2="294.37" stroke="#1D295D"/>
<line x1="303.697" y1="-116.543" x2="65.6328" y2="295.796" stroke="#1D295D"/>
<line x1="306.163" y1="-115.117" x2="68.0996" y2="297.221" stroke="#1D295D"/>
<line x1="308.63" y1="-113.691" x2="70.5664" y2="298.647" stroke="#1D295D"/>
<line x1="311.103" y1="-112.268" x2="73.0391" y2="300.071" stroke="#1D295D"/>
<line x1="313.572" y1="-110.842" x2="75.5078" y2="301.497" stroke="#1D295D"/>
<line x1="316.04" y1="-109.416" x2="77.9766" y2="302.923" stroke="#1D295D"/>
<line x1="318.509" y1="-107.99" x2="80.4453" y2="304.348" stroke="#1D295D"/>
<line x1="320.978" y1="-106.564" x2="82.9141" y2="305.774" stroke="#1D295D"/>
<line x1="323.451" y1="-105.141" x2="85.3867" y2="307.198" stroke="#1D295D"/>
<line x1="325.915" y1="-103.715" x2="87.8516" y2="308.624" stroke="#1D295D"/>
<line x1="328.384" y1="-102.289" x2="90.3203" y2="310.05" stroke="#1D295D"/>
<line x1="330.855" y1="-100.863" x2="92.791" y2="311.475" stroke="#1D295D"/>
<line x1="333.324" y1="-99.4375" x2="95.2598" y2="312.901" stroke="#1D295D"/>
<line x1="335.792" y1="-98.0137" x2="97.7285" y2="314.325" stroke="#1D295D"/>
<line x1="338.261" y1="-96.5879" x2="100.197" y2="315.751" stroke="#1D295D"/>
<line x1="340.734" y1="-95.1621" x2="102.67" y2="317.177" stroke="#1D295D"/>
<line x1="343.199" y1="-93.7363" x2="105.135" y2="318.602" stroke="#1D295D"/>
<line x1="345.667" y1="-92.3105" x2="107.604" y2="320.028" stroke="#1D295D"/>
<line x1="348.136" y1="-90.8848" x2="110.072" y2="321.454" stroke="#1D295D"/>
<line x1="350.605" y1="-89.459" x2="112.541" y2="322.88" stroke="#1D295D"/>
<line x1="353.078" y1="-88.0352" x2="115.014" y2="324.303" stroke="#1D295D"/>
<line x1="355.544" y1="-86.6094" x2="117.48" y2="325.729" stroke="#1D295D"/>
<line x1="358.011" y1="-85.1836" x2="119.947" y2="327.155" stroke="#1D295D"/>
<line x1="360.482" y1="-83.7578" x2="122.418" y2="328.581" stroke="#1D295D"/>
<line x1="362.951" y1="-82.334" x2="124.887" y2="330.005" stroke="#1D295D"/>
<line x1="365.427" y1="-80.9102" x2="127.363" y2="331.428" stroke="#1D295D"/>
<line x1="367.896" y1="-79.4844" x2="129.832" y2="332.854" stroke="#1D295D"/>
<line x1="370.361" y1="-78.0586" x2="132.297" y2="334.28" stroke="#1D295D"/>
<line x1="372.829" y1="-76.6328" x2="134.766" y2="335.706" stroke="#1D295D"/>
<line x1="375.3" y1="-75.207" x2="137.236" y2="337.132" stroke="#1D295D"/>
<line x1="377.771" y1="-73.7832" x2="139.707" y2="338.555" stroke="#1D295D"/>
<line x1="380.238" y1="-72.3574" x2="142.174" y2="339.981" stroke="#1D295D"/>
<line x1="382.71" y1="-70.9316" x2="144.647" y2="341.407" stroke="#1D295D"/>
<line x1="385.177" y1="-69.5059" x2="147.113" y2="342.833" stroke="#1D295D"/>
<line x1="387.646" y1="-68.0801" x2="149.582" y2="344.259" stroke="#1D295D"/>
<line x1="390.113" y1="-66.6543" x2="152.049" y2="345.684" stroke="#1D295D"/>
<line x1="392.581" y1="-65.2285" x2="154.518" y2="347.11" stroke="#1D295D"/>
<line x1="395.054" y1="-63.8047" x2="156.99" y2="348.534" stroke="#1D295D"/>
<line x1="397.521" y1="-62.3789" x2="159.457" y2="349.96" stroke="#1D295D"/>
<line x1="399.988" y1="-60.9531" x2="161.924" y2="351.386" stroke="#1D295D"/>
<line x1="402.456" y1="-59.5273" x2="164.393" y2="352.811" stroke="#1D295D"/>
<line x1="404.927" y1="-58.1035" x2="166.863" y2="354.235" stroke="#1D295D"/>
<line x1="407.396" y1="-56.6758" x2="169.332" y2="355.663" stroke="#1D295D"/>
<line x1="409.861" y1="-55.25" x2="171.797" y2="357.089" stroke="#1D295D"/>
<line x1="412.329" y1="-53.8242" x2="174.266" y2="358.514" stroke="#1D295D"/>
<line x1="414.8" y1="-52.3984" x2="176.736" y2="359.94" stroke="#1D295D"/>
<line x1="417.269" y1="-50.9727" x2="179.205" y2="361.366" stroke="#1D295D"/>
<line x1="419.738" y1="-49.5488" x2="181.674" y2="362.79" stroke="#1D295D"/>
<line x1="422.206" y1="-48.123" x2="184.143" y2="364.216" stroke="#1D295D"/>
<line x1="424.679" y1="-46.6973" x2="186.615" y2="365.641" stroke="#1D295D"/>
<line x1="427.144" y1="-45.2715" x2="189.08" y2="367.067" stroke="#1D295D"/>
<line x1="429.613" y1="-43.8457" x2="191.549" y2="368.493" stroke="#1D295D"/>
<line x1="432.081" y1="-42.4199" x2="194.018" y2="369.919" stroke="#1D295D"/>
<line x1="434.55" y1="-40.9961" x2="196.486" y2="371.343" stroke="#1D295D"/>
<line x1="437.023" y1="-39.5703" x2="198.959" y2="372.768" stroke="#1D295D"/>
<line x1="439.49" y1="-38.1445" x2="201.426" y2="374.194" stroke="#1D295D"/>
<line x1="441.956" y1="-36.7187" x2="203.893" y2="375.62" stroke="#1D295D"/>
<line x1="444.427" y1="-35.293" x2="206.363" y2="377.046" stroke="#1D295D"/>
<line x1="446.896" y1="-33.8691" x2="208.832" y2="378.47" stroke="#1D295D"/>
<line x1="449.365" y1="-32.4434" x2="211.301" y2="379.895" stroke="#1D295D"/>
<line x1="451.831" y1="-31.0176" x2="213.768" y2="381.321" stroke="#1D295D"/>
<line x1="454.298" y1="-29.5918" x2="216.234" y2="382.747" stroke="#1D295D"/>
<line x1="456.769" y1="-28.166" x2="218.705" y2="384.173" stroke="#1D295D"/>
<line x1="459.238" y1="-26.7422" x2="221.174" y2="385.596" stroke="#1D295D"/>
<line x1="461.706" y1="-25.3164" x2="223.643" y2="387.022" stroke="#1D295D"/>
<line x1="464.175" y1="-23.8906" x2="226.111" y2="388.448" stroke="#1D295D"/>
<line x1="466.646" y1="-22.4648" x2="228.582" y2="389.874" stroke="#1D295D"/>
<line x1="469.113" y1="-21.0391" x2="231.049" y2="391.3" stroke="#1D295D"/>
<line x1="471.583" y1="-19.6152" x2="233.52" y2="392.723" stroke="#1D295D"/>
<line x1="474.05" y1="-18.1895" x2="235.986" y2="394.149" stroke="#1D295D"/>
<line x1="476.519" y1="-16.7637" x2="238.455" y2="395.575" stroke="#1D295D"/>
<line x1="478.992" y1="-15.3379" x2="240.928" y2="397.001" stroke="#1D295D"/>
<line x1="481.458" y1="-13.9121" x2="243.395" y2="398.427" stroke="#1D295D"/>
<line x1="483.927" y1="-12.4863" x2="245.863" y2="399.852" stroke="#1D295D"/>
<line x1="486.398" y1="-11.0625" x2="248.334" y2="401.276" stroke="#1D295D"/>
<line x1="488.865" y1="-9.63672" x2="250.801" y2="402.702" stroke="#1D295D"/>
<line x1="491.339" y1="-8.21289" x2="253.275" y2="404.126" stroke="#1D295D"/>
<line x1="493.804" y1="-6.78711" x2="255.74" y2="405.552" stroke="#1D295D"/>
<line x1="496.273" y1="-5.36133" x2="258.209" y2="406.977" stroke="#1D295D"/>
<line x1="498.744" y1="-3.93555" x2="260.68" y2="408.403" stroke="#1D295D"/>
<line x1="501.212" y1="-2.50977" x2="263.148" y2="409.829" stroke="#1D295D"/>
<line x1="503.683" y1="-1.08594" x2="265.619" y2="411.253" stroke="#1D295D"/>
<line x1="506.15" y1="0.339844" x2="268.086" y2="412.678" stroke="#1D295D"/>
<line x1="508.622" y1="1.76563" x2="270.559" y2="414.104" stroke="#1D295D"/>
<line x1="511.087" y1="3.19141" x2="273.023" y2="415.53" stroke="#1D295D"/>
<line x1="513.556" y1="4.61719" x2="275.492" y2="416.956" stroke="#1D295D"/>
<line x1="516.025" y1="6.04297" x2="277.961" y2="418.382" stroke="#1D295D"/>
<line x1="518.494" y1="7.4668" x2="280.43" y2="419.805" stroke="#1D295D"/>
<line x1="520.966" y1="8.89258" x2="282.902" y2="421.231" stroke="#1D295D"/>
<line x1="523.433" y1="10.3184" x2="285.369" y2="422.657" stroke="#1D295D"/>
<line x1="525.9" y1="11.7441" x2="287.836" y2="424.083" stroke="#1D295D"/>
<line x1="528.371" y1="13.1699" x2="290.307" y2="425.509" stroke="#1D295D"/>
<line x1="530.839" y1="14.5938" x2="292.775" y2="426.932" stroke="#1D295D"/>
<line x1="533.308" y1="16.0195" x2="295.244" y2="428.358" stroke="#1D295D"/>
<line x1="535.777" y1="17.4453" x2="297.713" y2="429.784" stroke="#1D295D"/>
<line x1="538.246" y1="18.8711" x2="300.182" y2="431.21" stroke="#1D295D"/>
<line x1="540.712" y1="20.2969" x2="302.648" y2="432.636" stroke="#1D295D"/>
<line x1="543.181" y1="21.7227" x2="305.117" y2="434.061" stroke="#1D295D"/>
<line x1="545.65" y1="23.1465" x2="307.586" y2="435.485" stroke="#1D295D"/>
<line x1="548.119" y1="24.5723" x2="310.055" y2="436.911" stroke="#1D295D"/>
<line x1="550.591" y1="25.998" x2="312.527" y2="438.337" stroke="#1D295D"/>
<line x1="553.056" y1="27.4238" x2="314.992" y2="439.762" stroke="#1D295D"/>
<line x1="555.527" y1="28.8496" x2="317.463" y2="441.188" stroke="#1D295D"/>
<line x1="557.997" y1="30.2734" x2="319.934" y2="442.612" stroke="#1D295D"/>
<line x1="560.462" y1="31.6992" x2="322.398" y2="444.038" stroke="#1D295D"/>
<line x1="562.935" y1="33.125" x2="324.871" y2="445.464" stroke="#1D295D"/>
<line x1="565.402" y1="34.5508" x2="327.338" y2="446.889" stroke="#1D295D"/>
<line x1="567.869" y1="35.9766" x2="329.805" y2="448.315" stroke="#1D295D"/>
<line x1="570.339" y1="37.4023" x2="332.275" y2="449.741" stroke="#1D295D"/>
<line x1="572.808" y1="38.8262" x2="334.744" y2="451.165" stroke="#1D295D"/>
</g>
<path opacity="0.5" d="M385 138C385 204.274 331.274 258 265 258C198.726 258 145 204.274 145 138C145 71.7258 198.726 18 265 18C331.274 18 385 71.7258 385 138Z" fill="#080D27"/>
<path d="M17.008 4.832C18.1813 4.832 19.2107 5.06133 20.096 5.52C20.992 5.97867 21.68 6.63467 22.16 7.488C22.6507 8.33067 22.896 9.312 22.896 10.432C22.896 11.552 22.6507 12.5333 22.16 13.376C21.68 14.208 20.992 14.8533 20.096 15.312C19.2107 15.7707 18.1813 16 17.008 16H13.104V4.832H17.008ZM16.928 14.096C18.1013 14.096 19.008 13.776 19.648 13.136C20.288 12.496 20.608 11.5947 20.608 10.432C20.608 9.26933 20.288 8.36267 19.648 7.712C19.008 7.05067 18.1013 6.72 16.928 6.72H15.344V14.096H16.928ZM23.9967 11.536C23.9967 10.64 24.1727 9.84533 24.5247 9.152C24.8874 8.45867 25.3728 7.92533 25.9808 7.552C26.5994 7.17867 27.2874 6.992 28.0448 6.992C28.7061 6.992 29.2821 7.12533 29.7728 7.392C30.2741 7.65867 30.6741 7.99467 30.9728 8.4V7.136H33.2288V16H30.9728V14.704C30.6848 15.12 30.2848 15.4667 29.7728 15.744C29.2714 16.0107 28.6901 16.144 28.0288 16.144C27.2821 16.144 26.5994 15.952 25.9808 15.568C25.3728 15.184 24.8874 14.6453 24.5247 13.952C24.1727 13.248 23.9967 12.4427 23.9967 11.536ZM30.9728 11.568C30.9728 11.024 30.8661 10.56 30.6528 10.176C30.4394 9.78133 30.1514 9.48267 29.7888 9.28C29.4261 9.06667 29.0368 8.96 28.6208 8.96C28.2048 8.96 27.8208 9.06133 27.4688 9.264C27.1168 9.46667 26.8288 9.76533 26.6048 10.16C26.3914 10.544 26.2848 11.0027 26.2848 11.536C26.2848 12.0693 26.3914 12.5387 26.6048 12.944C26.8288 13.3387 27.1168 13.6427 27.4688 13.856C27.8314 14.0693 28.2154 14.176 28.6208 14.176C29.0368 14.176 29.4261 14.0747 29.7888 13.872C30.1514 13.6587 30.4394 13.36 30.6528 12.976C30.8661 12.5813 30.9728 12.112 30.9728 11.568ZM36.5525 6.08C36.1578 6.08 35.8272 5.95733 35.5605 5.712C35.3045 5.456 35.1765 5.14133 35.1765 4.768C35.1765 4.39467 35.3045 4.08533 35.5605 3.84C35.8272 3.584 36.1578 3.456 36.5525 3.456C36.9472 3.456 37.2725 3.584 37.5285 3.84C37.7952 4.08533 37.9285 4.39467 37.9285 4.768C37.9285 5.14133 37.7952 5.456 37.5285 5.712C37.2725 5.95733 36.9472 6.08 36.5525 6.08ZM37.6565 7.136V16H35.4165V7.136H37.6565ZM42.1096 4.16V16H39.8696V4.16H42.1096ZM52.8028 7.136L47.3148 20.192H44.9308L46.8508 15.776L43.2988 7.136H45.8108L48.0988 13.328L50.4188 7.136H52.8028ZM61.7268 4.832C62.9001 4.832 63.9294 5.06133 64.8148 5.52C65.7108 5.97867 66.3988 6.63467 66.8788 7.488C67.3694 8.33067 67.6148 9.312 67.6148 10.432C67.6148 11.552 67.3694 12.5333 66.8788 13.376C66.3988 14.208 65.7108 14.8533 64.8148 15.312C63.9294 15.7707 62.9001 16 61.7268 16H57.8228V4.832H61.7268ZM61.6468 14.096C62.8201 14.096 63.7268 13.776 64.3668 13.136C65.0068 12.496 65.3268 11.5947 65.3268 10.432C65.3268 9.26933 65.0068 8.36267 64.3668 7.712C63.7268 7.05067 62.8201 6.72 61.6468 6.72H60.0628V14.096H61.6468ZM70.4275 6.08C70.0328 6.08 69.7022 5.95733 69.4355 5.712C69.1795 5.456 69.0515 5.14133 69.0515 4.768C69.0515 4.39467 69.1795 4.08533 69.4355 3.84C69.7022 3.584 70.0328 3.456 70.4275 3.456C70.8222 3.456 71.1475 3.584 71.4035 3.84C71.6702 4.08533 71.8035 4.39467 71.8035 4.768C71.8035 5.14133 71.6702 5.456 71.4035 5.712C71.1475 5.95733 70.8222 6.08 70.4275 6.08ZM71.5315 7.136V16H69.2915V7.136H71.5315ZM77.1366 16.144C76.4113 16.144 75.7606 16.016 75.1846 15.76C74.6086 15.4933 74.15 15.136 73.8086 14.688C73.478 14.24 73.2966 13.744 73.2646 13.2H75.5206C75.5633 13.5413 75.7286 13.824 76.0166 14.048C76.3153 14.272 76.6833 14.384 77.1206 14.384C77.5473 14.384 77.878 14.2987 78.1126 14.128C78.358 13.9573 78.4806 13.7387 78.4806 13.472C78.4806 13.184 78.3313 12.9707 78.0326 12.832C77.7446 12.6827 77.2806 12.5227 76.6406 12.352C75.9793 12.192 75.4353 12.0267 75.0086 11.856C74.5926 11.6853 74.23 11.424 73.9206 11.072C73.622 10.72 73.4726 10.2453 73.4726 9.648C73.4726 9.15733 73.6113 8.70933 73.8886 8.304C74.1766 7.89867 74.582 7.57867 75.1046 7.344C75.638 7.10933 76.262 6.992 76.9766 6.992C78.0326 6.992 78.8753 7.25867 79.5046 7.792C80.134 8.31467 80.4806 9.024 80.5446 9.92H78.4006C78.3686 9.568 78.2193 9.29067 77.9526 9.088C77.6966 8.87467 77.35 8.768 76.9126 8.768C76.5073 8.768 76.1926 8.84267 75.9686 8.992C75.7553 9.14133 75.6486 9.34933 75.6486 9.616C75.6486 9.91467 75.798 10.144 76.0966 10.304C76.3953 10.4533 76.8593 10.608 77.4886 10.768C78.1286 10.928 78.6566 11.0933 79.0726 11.264C79.4886 11.4347 79.846 11.7013 80.1446 12.064C80.454 12.416 80.614 12.8853 80.6246 13.472C80.6246 13.984 80.4806 14.4427 80.1926 14.848C79.9153 15.2533 79.51 15.5733 78.9766 15.808C78.454 16.032 77.8406 16.144 77.1366 16.144ZM85.0714 8.976V13.264C85.0714 13.5627 85.1407 13.7813 85.2794 13.92C85.4287 14.048 85.674 14.112 86.0154 14.112H87.0554V16H85.6474C83.7594 16 82.8154 15.0827 82.8154 13.248V8.976H81.7594V7.136H82.8154V4.944H85.0714V7.136H87.0554V8.976H85.0714ZM90.9065 8.512C91.1945 8.04267 91.5678 7.67467 92.0265 7.408C92.4958 7.14133 93.0292 7.008 93.6265 7.008V9.36H93.0345C92.3305 9.36 91.7972 9.52533 91.4345 9.856C91.0825 10.1867 90.9065 10.7627 90.9065 11.584V16H88.6665V7.136H90.9065V8.512ZM96.2713 6.08C95.8766 6.08 95.5459 5.95733 95.2793 5.712C95.0233 5.456 94.8953 5.14133 94.8953 4.768C94.8953 4.39467 95.0233 4.08533 95.2793 3.84C95.5459 3.584 95.8766 3.456 96.2713 3.456C96.6659 3.456 96.9913 3.584 97.2473 3.84C97.5139 4.08533 97.6473 4.39467 97.6473 4.768C97.6473 5.14133 97.5139 5.456 97.2473 5.712C96.9913 5.95733 96.6659 6.08 96.2713 6.08ZM97.3753 7.136V16H95.1353V7.136H97.3753ZM101.828 8.432C102.116 8.00533 102.511 7.65867 103.012 7.392C103.524 7.12533 104.106 6.992 104.756 6.992C105.514 6.992 106.196 7.17867 106.804 7.552C107.423 7.92533 107.908 8.45867 108.26 9.152C108.623 9.83467 108.804 10.6293 108.804 11.536C108.804 12.4427 108.623 13.248 108.26 13.952C107.908 14.6453 107.423 15.184 106.804 15.568C106.196 15.952 105.514 16.144 104.756 16.144C104.095 16.144 103.514 16.016 103.012 15.76C102.522 15.4933 102.127 15.152 101.828 14.736V16H99.5884V4.16H101.828V8.432ZM106.516 11.536C106.516 11.0027 106.404 10.544 106.18 10.16C105.967 9.76533 105.679 9.46667 105.316 9.264C104.964 9.06133 104.58 8.96 104.164 8.96C103.759 8.96 103.375 9.06667 103.012 9.28C102.66 9.48267 102.372 9.78133 102.148 10.176C101.935 10.5707 101.828 11.0347 101.828 11.568C101.828 12.1013 101.935 12.5653 102.148 12.96C102.372 13.3547 102.66 13.6587 103.012 13.872C103.375 14.0747 103.759 14.176 104.164 14.176C104.58 14.176 104.964 14.0693 105.316 13.856C105.679 13.6427 105.967 13.3387 106.18 12.944C106.404 12.5493 106.516 12.08 106.516 11.536ZM118.8 7.136V16H116.544V14.88C116.256 15.264 115.877 15.568 115.408 15.792C114.949 16.0053 114.448 16.112 113.904 16.112C113.211 16.112 112.597 15.968 112.064 15.68C111.531 15.3813 111.109 14.9493 110.8 14.384C110.501 13.808 110.352 13.1253 110.352 12.336V7.136H112.592V12.016C112.592 12.72 112.768 13.264 113.12 13.648C113.472 14.0213 113.952 14.208 114.56 14.208C115.179 14.208 115.664 14.0213 116.016 13.648C116.368 13.264 116.544 12.72 116.544 12.016V7.136H118.8ZM123.618 8.976V13.264C123.618 13.5627 123.688 13.7813 123.826 13.92C123.976 14.048 124.221 14.112 124.562 14.112H125.602V16H124.194C122.306 16 121.362 15.0827 121.362 13.248V8.976H120.306V7.136H121.362V4.944H123.618V7.136H125.602V8.976H123.618ZM128.349 6.08C127.955 6.08 127.624 5.95733 127.357 5.712C127.101 5.456 126.973 5.14133 126.973 4.768C126.973 4.39467 127.101 4.08533 127.357 3.84C127.624 3.584 127.955 3.456 128.349 3.456C128.744 3.456 129.069 3.584 129.325 3.84C129.592 4.08533 129.725 4.39467 129.725 4.768C129.725 5.14133 129.592 5.456 129.325 5.712C129.069 5.95733 128.744 6.08 128.349 6.08ZM129.453 7.136V16H127.213V7.136H129.453ZM135.603 16.144C134.749 16.144 133.981 15.9573 133.299 15.584C132.616 15.2 132.077 14.6613 131.683 13.968C131.299 13.2747 131.107 12.4747 131.107 11.568C131.107 10.6613 131.304 9.86133 131.699 9.168C132.104 8.47467 132.653 7.94133 133.347 7.568C134.04 7.184 134.813 6.992 135.667 6.992C136.52 6.992 137.293 7.184 137.987 7.568C138.68 7.94133 139.224 8.47467 139.619 9.168C140.024 9.86133 140.227 10.6613 140.227 11.568C140.227 12.4747 140.019 13.2747 139.602 13.968C139.197 14.6613 138.643 15.2 137.939 15.584C137.245 15.9573 136.467 16.144 135.603 16.144ZM135.603 14.192C136.008 14.192 136.387 14.096 136.739 13.904C137.101 13.7013 137.389 13.4027 137.603 13.008C137.816 12.6133 137.923 12.1333 137.923 11.568C137.923 10.7253 137.699 10.08 137.251 9.632C136.813 9.17333 136.275 8.944 135.635 8.944C134.995 8.944 134.456 9.17333 134.019 9.632C133.592 10.08 133.379 10.7253 133.379 11.568C133.379 12.4107 133.587 13.0613 134.003 13.52C134.429 13.968 134.963 14.192 135.603 14.192ZM146.782 7.008C147.838 7.008 148.691 7.344 149.342 8.016C149.992 8.67733 150.318 9.60533 150.318 10.8V16H148.078V11.104C148.078 10.4 147.902 9.86133 147.55 9.488C147.198 9.104 146.718 8.912 146.11 8.912C145.491 8.912 145 9.104 144.638 9.488C144.286 9.86133 144.11 10.4 144.11 11.104V16H141.87V7.136H144.11V8.24C144.408 7.856 144.787 7.55733 145.246 7.344C145.715 7.12 146.227 7.008 146.782 7.008Z" fill="#EAEDFF"/>
<g opacity="0.5">
<line x1="483" y1="44.5" x2="529" y2="44.5" stroke="url(#paint1_linear_3108_16140)"/>
<line x1="483" y1="91.5" x2="529" y2="91.5" stroke="url(#paint2_linear_3108_16140)"/>
<line x1="483" y1="138.5" x2="529" y2="138.5" stroke="url(#paint3_linear_3108_16140)"/>
<line x1="483" y1="185.5" x2="529" y2="185.5" stroke="url(#paint4_linear_3108_16140)"/>
<line x1="483" y1="232.5" x2="529" y2="232.5" stroke="url(#paint5_linear_3108_16140)"/>
</g>
<g opacity="0.5">
<line y1="-0.5" x2="46" y2="-0.5" transform="matrix(-1 -8.74228e-08 -8.74228e-08 1 49 45)" stroke="url(#paint6_linear_3108_16140)"/>
<line y1="-0.5" x2="46" y2="-0.5" transform="matrix(-1 -8.74228e-08 -8.74228e-08 1 49 92)" stroke="url(#paint7_linear_3108_16140)"/>
<line y1="-0.5" x2="46" y2="-0.5" transform="matrix(-1 -8.74228e-08 -8.74228e-08 1 49 139)" stroke="url(#paint8_linear_3108_16140)"/>
<line y1="-0.5" x2="46" y2="-0.5" transform="matrix(-1 -8.74228e-08 -8.74228e-08 1 49 186)" stroke="url(#paint9_linear_3108_16140)"/>
<line y1="-0.5" x2="46" y2="-0.5" transform="matrix(-1 -8.74228e-08 -8.74228e-08 1 49 233)" stroke="url(#paint10_linear_3108_16140)"/>
</g>
</g>
<rect x="0.5" y="0.5" width="530" height="275" rx="15.5" stroke="#334679"/>
<defs>
<linearGradient id="paint0_linear_3108_16140" x1="265.5" y1="0" x2="265.5" y2="276" gradientUnits="userSpaceOnUse">
<stop stop-color="#243474"/>
<stop offset="1" stop-color="#0F1434"/>
</linearGradient>
<linearGradient id="paint1_linear_3108_16140" x1="483" y1="45.5" x2="529" y2="45.5" gradientUnits="userSpaceOnUse">
<stop stop-color="#253575" stop-opacity="0"/>
<stop offset="0.875204" stop-color="#4360D4"/>
<stop offset="1" stop-color="#334679"/>
</linearGradient>
<linearGradient id="paint2_linear_3108_16140" x1="483" y1="92.5" x2="529" y2="92.5" gradientUnits="userSpaceOnUse">
<stop stop-color="#253575" stop-opacity="0"/>
<stop offset="0.875204" stop-color="#4360D4"/>
<stop offset="1" stop-color="#334679"/>
</linearGradient>
<linearGradient id="paint3_linear_3108_16140" x1="483" y1="139.5" x2="529" y2="139.5" gradientUnits="userSpaceOnUse">
<stop stop-color="#253575" stop-opacity="0"/>
<stop offset="0.875204" stop-color="#4360D4"/>
<stop offset="1" stop-color="#334679"/>
</linearGradient>
<linearGradient id="paint4_linear_3108_16140" x1="483" y1="186.5" x2="529" y2="186.5" gradientUnits="userSpaceOnUse">
<stop stop-color="#253575" stop-opacity="0"/>
<stop offset="0.875204" stop-color="#4360D4"/>
<stop offset="1" stop-color="#334679"/>
</linearGradient>
<linearGradient id="paint5_linear_3108_16140" x1="483" y1="233.5" x2="529" y2="233.5" gradientUnits="userSpaceOnUse">
<stop stop-color="#253575" stop-opacity="0"/>
<stop offset="0.875204" stop-color="#4360D4"/>
<stop offset="1" stop-color="#334679"/>
</linearGradient>
<linearGradient id="paint6_linear_3108_16140" x1="0" y1="0.5" x2="46" y2="0.5" gradientUnits="userSpaceOnUse">
<stop stop-color="#253575" stop-opacity="0"/>
<stop offset="0.875204" stop-color="#4360D4"/>
<stop offset="1" stop-color="#334679"/>
</linearGradient>
<linearGradient id="paint7_linear_3108_16140" x1="0" y1="0.5" x2="46" y2="0.5" gradientUnits="userSpaceOnUse">
<stop stop-color="#253575" stop-opacity="0"/>
<stop offset="0.875204" stop-color="#4360D4"/>
<stop offset="1" stop-color="#334679"/>
</linearGradient>
<linearGradient id="paint8_linear_3108_16140" x1="0" y1="0.5" x2="46" y2="0.5" gradientUnits="userSpaceOnUse">
<stop stop-color="#253575" stop-opacity="0"/>
<stop offset="0.875204" stop-color="#4360D4"/>
<stop offset="1" stop-color="#334679"/>
</linearGradient>
<linearGradient id="paint9_linear_3108_16140" x1="0" y1="0.5" x2="46" y2="0.5" gradientUnits="userSpaceOnUse">
<stop stop-color="#253575" stop-opacity="0"/>
<stop offset="0.875204" stop-color="#4360D4"/>
<stop offset="1" stop-color="#334679"/>
</linearGradient>
<linearGradient id="paint10_linear_3108_16140" x1="0" y1="0.5" x2="46" y2="0.5" gradientUnits="userSpaceOnUse">
<stop stop-color="#253575" stop-opacity="0"/>
<stop offset="0.875204" stop-color="#4360D4"/>
<stop offset="1" stop-color="#334679"/>
</linearGradient>
<clipPath id="clip0_3108_16140">
<rect width="531" height="276" rx="16" fill="white"/>
</clipPath>
</defs>
</svg>
