<svg width="329" height="276" viewBox="0 0 329 276" fill="none" xmlns="http://www.w3.org/2000/svg">
<g clip-path="url(#clip0_6009_28943)">
<rect width="329" height="276" rx="16" fill="url(#paint0_linear_6009_28943)"/>
<circle cx="163.52" cy="149.19" r="109.479" fill="#080D27" stroke="#344679" stroke-width="2"/>
<mask id="mask0_6009_28943" style="mask-type:alpha" maskUnits="userSpaceOnUse" x="57" y="43" width="213" height="213">
<circle cx="163.522" cy="149.19" r="105.46" fill="#141414" stroke="#242424"/>
</mask>
<g mask="url(#mask0_6009_28943)">
<line x1="171.646" y1="328.012" x2="342.766" y2="156.892" stroke="#1D295D"/>
<line x1="169.525" y1="325.891" x2="340.645" y2="154.771" stroke="#1D295D"/>
<line x1="167.404" y1="323.769" x2="338.524" y2="152.65" stroke="#1D295D"/>
<line x1="165.283" y1="321.648" x2="336.403" y2="150.529" stroke="#1D295D"/>
<line x1="163.162" y1="319.527" x2="334.282" y2="148.407" stroke="#1D295D"/>
<line x1="161.039" y1="317.404" x2="332.159" y2="146.284" stroke="#1D295D"/>
<line x1="158.918" y1="315.283" x2="330.038" y2="144.163" stroke="#1D295D"/>
<line x1="156.797" y1="313.162" x2="327.917" y2="142.042" stroke="#1D295D"/>
<line x1="154.676" y1="311.041" x2="325.796" y2="139.921" stroke="#1D295D"/>
<line x1="152.555" y1="308.92" x2="323.674" y2="137.8" stroke="#1D295D"/>
<line x1="150.434" y1="306.799" x2="321.553" y2="135.679" stroke="#1D295D"/>
<line x1="148.312" y1="304.678" x2="319.432" y2="133.558" stroke="#1D295D"/>
<line x1="146.191" y1="302.557" x2="317.311" y2="131.437" stroke="#1D295D"/>
<line x1="144.068" y1="300.434" x2="315.188" y2="129.314" stroke="#1D295D"/>
<line x1="141.947" y1="298.312" x2="313.067" y2="127.193" stroke="#1D295D"/>
<line x1="139.826" y1="296.191" x2="310.946" y2="125.072" stroke="#1D295D"/>
<line x1="137.705" y1="294.07" x2="308.825" y2="122.95" stroke="#1D295D"/>
<line x1="135.584" y1="291.949" x2="305.997" y2="121.536" stroke="#1D295D"/>
<line x1="133.463" y1="289.828" x2="304.583" y2="118.708" stroke="#1D295D"/>
<line x1="131.342" y1="287.707" x2="302.462" y2="116.587" stroke="#1D295D"/>
<line x1="129.221" y1="285.586" x2="300.34" y2="114.466" stroke="#1D295D"/>
<line x1="127.1" y1="283.465" x2="298.219" y2="112.345" stroke="#1D295D"/>
<line x1="124.977" y1="281.342" x2="296.096" y2="110.222" stroke="#1D295D"/>
<line x1="122.855" y1="279.221" x2="293.975" y2="108.101" stroke="#1D295D"/>
<line x1="120.734" y1="277.1" x2="291.854" y2="105.98" stroke="#1D295D"/>
<line x1="118.613" y1="274.978" x2="289.733" y2="103.859" stroke="#1D295D"/>
<line x1="116.492" y1="272.857" x2="287.612" y2="101.738" stroke="#1D295D"/>
<line x1="114.371" y1="270.736" x2="285.491" y2="99.6164" stroke="#1D295D"/>
<line x1="112.25" y1="268.615" x2="283.37" y2="97.4953" stroke="#1D295D"/>
<line x1="110.129" y1="266.494" x2="281.249" y2="95.3743" stroke="#1D295D"/>
<line x1="108.008" y1="264.373" x2="279.128" y2="93.2532" stroke="#1D295D"/>
<line x1="105.885" y1="262.25" x2="277.005" y2="91.1301" stroke="#1D295D"/>
<line x1="103.764" y1="260.129" x2="274.883" y2="89.009" stroke="#1D295D"/>
<line x1="101.643" y1="258.008" x2="272.762" y2="86.8879" stroke="#1D295D"/>
<line x1="99.5214" y1="255.887" x2="270.641" y2="84.7668" stroke="#1D295D"/>
<line x1="97.4004" y1="253.766" x2="267.813" y2="83.3528" stroke="#1D295D"/>
<line x1="95.2793" y1="251.644" x2="266.399" y2="80.5246" stroke="#1D295D"/>
<line x1="93.1582" y1="249.523" x2="264.278" y2="78.4035" stroke="#1D295D"/>
<line x1="91.0371" y1="247.402" x2="262.157" y2="76.2825" stroke="#1D295D"/>
<line x1="88.914" y1="245.279" x2="260.034" y2="74.1594" stroke="#1D295D"/>
<line x1="86.7929" y1="243.158" x2="257.913" y2="72.0383" stroke="#1D295D"/>
<line x1="84.6718" y1="241.037" x2="255.085" y2="70.6243" stroke="#1D295D"/>
<line x1="82.5507" y1="238.916" x2="253.671" y2="67.7961" stroke="#1D295D"/>
<line x1="80.4296" y1="236.795" x2="251.549" y2="65.675" stroke="#1D295D"/>
<line x1="78.3086" y1="234.674" x2="249.428" y2="63.5539" stroke="#1D295D"/>
<line x1="76.1875" y1="232.553" x2="247.307" y2="61.4328" stroke="#1D295D"/>
<line x1="74.0664" y1="230.432" x2="245.186" y2="59.3117" stroke="#1D295D"/>
<line x1="71.9453" y1="228.311" x2="243.065" y2="57.1907" stroke="#1D295D"/>
<line x1="69.8222" y1="226.187" x2="240.942" y2="55.0676" stroke="#1D295D"/>
<line x1="67.7011" y1="224.066" x2="238.821" y2="52.9465" stroke="#1D295D"/>
<line x1="65.58" y1="221.945" x2="236.7" y2="50.8254" stroke="#1D295D"/>
<line x1="63.4589" y1="219.824" x2="234.579" y2="48.7043" stroke="#1D295D"/>
<line x1="61.3379" y1="217.703" x2="232.458" y2="46.5832" stroke="#1D295D"/>
<line x1="59.2168" y1="215.582" x2="230.337" y2="44.4621" stroke="#1D295D"/>
<line x1="57.0957" y1="213.461" x2="228.215" y2="42.341" stroke="#1D295D"/>
<line x1="54.9746" y1="211.34" x2="226.094" y2="40.22" stroke="#1D295D"/>
<line x1="52.8515" y1="209.219" x2="223.971" y2="38.0989" stroke="#1D295D"/>
<line x1="50.7304" y1="207.096" x2="221.85" y2="35.9758" stroke="#1D295D"/>
<line x1="48.6093" y1="204.975" x2="219.022" y2="34.5618" stroke="#1D295D"/>
<line x1="46.4882" y1="202.853" x2="217.608" y2="31.7336" stroke="#1D295D"/>
<line x1="44.3671" y1="200.732" x2="215.487" y2="29.6125" stroke="#1D295D"/>
<line x1="42.2461" y1="198.611" x2="213.366" y2="27.4914" stroke="#1D295D"/>
<line x1="40.125" y1="196.49" x2="211.245" y2="25.3703" stroke="#1D295D"/>
<line x1="38.0039" y1="194.369" x2="209.124" y2="23.2493" stroke="#1D295D"/>
<line x1="35.8828" y1="192.248" x2="207.003" y2="21.1282" stroke="#1D295D"/>
<line x1="33.7597" y1="190.125" x2="204.88" y2="19.0051" stroke="#1D295D"/>
<line x1="31.6386" y1="188.004" x2="202.758" y2="16.884" stroke="#1D295D"/>
<line x1="29.5175" y1="185.883" x2="200.637" y2="14.7629" stroke="#1D295D"/>
<line x1="27.3964" y1="183.762" x2="197.809" y2="13.3489" stroke="#1D295D"/>
<line x1="25.2754" y1="181.641" x2="195.688" y2="11.2278" stroke="#1D295D"/>
<line x1="23.1543" y1="179.519" x2="193.567" y2="9.10675" stroke="#1D295D"/>
<line x1="21.0332" y1="177.398" x2="191.446" y2="6.98565" stroke="#1D295D"/>
<line x1="18.9121" y1="175.277" x2="189.325" y2="4.86456" stroke="#1D295D"/>
<line x1="16.791" y1="173.156" x2="187.204" y2="2.74347" stroke="#1D295D"/>
<line x1="14.6679" y1="171.033" x2="185.081" y2="0.62042" stroke="#1D295D"/>
<line x1="12.5468" y1="168.912" x2="182.96" y2="-1.50067" stroke="#1D295D"/>
<line x1="10.4257" y1="166.791" x2="180.838" y2="-3.62177" stroke="#1D295D"/>
<line x1="8.30465" y1="164.67" x2="178.717" y2="-5.74286" stroke="#1D295D"/>
<line x1="6.18356" y1="162.549" x2="176.596" y2="-7.86396" stroke="#1D295D"/>
<line x1="4.06246" y1="160.428" x2="174.475" y2="-9.98505" stroke="#1D295D"/>
<line x1="1.94137" y1="158.307" x2="172.354" y2="-12.1061" stroke="#1D295D"/>
<line x1="-0.179725" y1="156.186" x2="170.233" y2="-14.2272" stroke="#1D295D"/>
<line x1="-2.30277" y1="154.062" x2="168.11" y2="-16.3503" stroke="#1D295D"/>
<line x1="-4.42387" y1="151.941" x2="165.989" y2="-18.4714" stroke="#1D295D"/>
<line x1="-6.54496" y1="149.82" x2="163.868" y2="-20.5925" stroke="#1D295D"/>
<line x1="-8.66605" y1="147.699" x2="161.747" y2="-22.7136" stroke="#1D295D"/>
<line x1="-10.7871" y1="145.578" x2="160.333" y2="-25.5418" stroke="#1D295D"/>
<line x1="-12.9082" y1="143.457" x2="158.212" y2="-27.6629" stroke="#1D295D"/>
<line x1="-15.0293" y1="141.336" x2="155.383" y2="-29.0768" stroke="#1D295D"/>
</g>
<path opacity="0.5" d="M248 149.365C248 195.757 210.392 233.365 164 233.365C117.608 233.365 80 195.757 80 149.365C80 102.973 117.608 65.3652 164 65.3652C210.392 65.3652 248 102.973 248 149.365Z" fill="#080D27"/>
<path d="M99.3361 14.832C100.509 14.832 101.539 15.0613 102.424 15.52C103.32 15.9787 104.008 16.6347 104.488 17.488C104.979 18.3307 105.224 19.312 105.224 20.432C105.224 21.552 104.979 22.5333 104.488 23.376C104.008 24.208 103.32 24.8533 102.424 25.312C101.539 25.7707 100.509 26 99.3361 26H95.4321V14.832H99.3361ZM99.2561 24.096C100.429 24.096 101.336 23.776 101.976 23.136C102.616 22.496 102.936 21.5947 102.936 20.432C102.936 19.2693 102.616 18.3627 101.976 17.712C101.336 17.0507 100.429 16.72 99.2561 16.72H97.6721V24.096H99.2561ZM106.325 21.536C106.325 20.64 106.501 19.8453 106.853 19.152C107.216 18.4587 107.701 17.9253 108.309 17.552C108.928 17.1787 109.616 16.992 110.373 16.992C111.034 16.992 111.61 17.1253 112.101 17.392C112.602 17.6587 113.002 17.9947 113.301 18.4V17.136H115.557V26H113.301V24.704C113.013 25.12 112.613 25.4667 112.101 25.744C111.6 26.0107 111.018 26.144 110.357 26.144C109.61 26.144 108.928 25.952 108.309 25.568C107.701 25.184 107.216 24.6453 106.853 23.952C106.501 23.248 106.325 22.4427 106.325 21.536ZM113.301 21.568C113.301 21.024 113.194 20.56 112.981 20.176C112.768 19.7813 112.48 19.4827 112.117 19.28C111.754 19.0667 111.365 18.96 110.949 18.96C110.533 18.96 110.149 19.0613 109.797 19.264C109.445 19.4667 109.157 19.7653 108.933 20.16C108.72 20.544 108.613 21.0027 108.613 21.536C108.613 22.0693 108.72 22.5387 108.933 22.944C109.157 23.3387 109.445 23.6427 109.797 23.856C110.16 24.0693 110.544 24.176 110.949 24.176C111.365 24.176 111.754 24.0747 112.117 23.872C112.48 23.6587 112.768 23.36 112.981 22.976C113.194 22.5813 113.301 22.112 113.301 21.568ZM118.881 16.08C118.486 16.08 118.155 15.9573 117.889 15.712C117.633 15.456 117.505 15.1413 117.505 14.768C117.505 14.3947 117.633 14.0853 117.889 13.84C118.155 13.584 118.486 13.456 118.881 13.456C119.275 13.456 119.601 13.584 119.857 13.84C120.123 14.0853 120.257 14.3947 120.257 14.768C120.257 15.1413 120.123 15.456 119.857 15.712C119.601 15.9573 119.275 16.08 118.881 16.08ZM119.985 17.136V26H117.745V17.136H119.985ZM124.438 14.16V26H122.198V14.16H124.438ZM135.131 17.136L129.643 30.192H127.259L129.179 25.776L125.627 17.136H128.139L130.427 23.328L132.747 17.136H135.131ZM144.055 14.832C145.228 14.832 146.258 15.0613 147.143 15.52C148.039 15.9787 148.727 16.6347 149.207 17.488C149.698 18.3307 149.943 19.312 149.943 20.432C149.943 21.552 149.698 22.5333 149.207 23.376C148.727 24.208 148.039 24.8533 147.143 25.312C146.258 25.7707 145.228 26 144.055 26H140.151V14.832H144.055ZM143.975 24.096C145.148 24.096 146.055 23.776 146.695 23.136C147.335 22.496 147.655 21.5947 147.655 20.432C147.655 19.2693 147.335 18.3627 146.695 17.712C146.055 17.0507 145.148 16.72 143.975 16.72H142.391V24.096H143.975ZM152.756 16.08C152.361 16.08 152.03 15.9573 151.764 15.712C151.508 15.456 151.38 15.1413 151.38 14.768C151.38 14.3947 151.508 14.0853 151.764 13.84C152.03 13.584 152.361 13.456 152.756 13.456C153.15 13.456 153.476 13.584 153.732 13.84C153.998 14.0853 154.132 14.3947 154.132 14.768C154.132 15.1413 153.998 15.456 153.732 15.712C153.476 15.9573 153.15 16.08 152.756 16.08ZM153.86 17.136V26H151.62V17.136H153.86ZM159.465 26.144C158.739 26.144 158.089 26.016 157.513 25.76C156.937 25.4933 156.478 25.136 156.137 24.688C155.806 24.24 155.625 23.744 155.593 23.2H157.849C157.891 23.5413 158.057 23.824 158.345 24.048C158.643 24.272 159.011 24.384 159.449 24.384C159.875 24.384 160.206 24.2987 160.441 24.128C160.686 23.9573 160.809 23.7387 160.809 23.472C160.809 23.184 160.659 22.9707 160.361 22.832C160.073 22.6827 159.609 22.5227 158.969 22.352C158.307 22.192 157.763 22.0267 157.337 21.856C156.921 21.6853 156.558 21.424 156.249 21.072C155.95 20.72 155.801 20.2453 155.801 19.648C155.801 19.1573 155.939 18.7093 156.217 18.304C156.505 17.8987 156.91 17.5787 157.433 17.344C157.966 17.1093 158.59 16.992 159.305 16.992C160.361 16.992 161.203 17.2587 161.833 17.792C162.462 18.3147 162.809 19.024 162.873 19.92H160.729C160.697 19.568 160.547 19.2907 160.281 19.088C160.025 18.8747 159.678 18.768 159.241 18.768C158.835 18.768 158.521 18.8427 158.297 18.992C158.083 19.1413 157.977 19.3493 157.977 19.616C157.977 19.9147 158.126 20.144 158.425 20.304C158.723 20.4533 159.187 20.608 159.817 20.768C160.457 20.928 160.985 21.0933 161.401 21.264C161.817 21.4347 162.174 21.7013 162.473 22.064C162.782 22.416 162.942 22.8853 162.953 23.472C162.953 23.984 162.809 24.4427 162.521 24.848C162.243 25.2533 161.838 25.5733 161.305 25.808C160.782 26.032 160.169 26.144 159.465 26.144ZM167.4 18.976V23.264C167.4 23.5627 167.469 23.7813 167.608 23.92C167.757 24.048 168.002 24.112 168.344 24.112H169.384V26H167.976C166.088 26 165.144 25.0827 165.144 23.248V18.976H164.088V17.136H165.144V14.944H167.4V17.136H169.384V18.976H167.4ZM173.235 18.512C173.523 18.0427 173.896 17.6747 174.355 17.408C174.824 17.1413 175.357 17.008 175.955 17.008V19.36H175.363C174.659 19.36 174.125 19.5253 173.763 19.856C173.411 20.1867 173.235 20.7627 173.235 21.584V26H170.995V17.136H173.235V18.512ZM178.599 16.08C178.205 16.08 177.874 15.9573 177.607 15.712C177.351 15.456 177.223 15.1413 177.223 14.768C177.223 14.3947 177.351 14.0853 177.607 13.84C177.874 13.584 178.205 13.456 178.599 13.456C178.994 13.456 179.319 13.584 179.575 13.84C179.842 14.0853 179.975 14.3947 179.975 14.768C179.975 15.1413 179.842 15.456 179.575 15.712C179.319 15.9573 178.994 16.08 178.599 16.08ZM179.703 17.136V26H177.463V17.136H179.703ZM184.157 18.432C184.445 18.0053 184.839 17.6587 185.341 17.392C185.853 17.1253 186.434 16.992 187.085 16.992C187.842 16.992 188.525 17.1787 189.133 17.552C189.751 17.9253 190.237 18.4587 190.589 19.152C190.951 19.8347 191.133 20.6293 191.133 21.536C191.133 22.4427 190.951 23.248 190.589 23.952C190.237 24.6453 189.751 25.184 189.133 25.568C188.525 25.952 187.842 26.144 187.085 26.144C186.423 26.144 185.842 26.016 185.341 25.76C184.85 25.4933 184.455 25.152 184.157 24.736V26H181.917V14.16H184.157V18.432ZM188.845 21.536C188.845 21.0027 188.733 20.544 188.509 20.16C188.295 19.7653 188.007 19.4667 187.645 19.264C187.293 19.0613 186.909 18.96 186.493 18.96C186.087 18.96 185.703 19.0667 185.341 19.28C184.989 19.4827 184.701 19.7813 184.477 20.176C184.263 20.5707 184.157 21.0347 184.157 21.568C184.157 22.1013 184.263 22.5653 184.477 22.96C184.701 23.3547 184.989 23.6587 185.341 23.872C185.703 24.0747 186.087 24.176 186.493 24.176C186.909 24.176 187.293 24.0693 187.645 23.856C188.007 23.6427 188.295 23.3387 188.509 22.944C188.733 22.5493 188.845 22.08 188.845 21.536ZM201.128 17.136V26H198.872V24.88C198.584 25.264 198.206 25.568 197.736 25.792C197.278 26.0053 196.776 26.112 196.232 26.112C195.539 26.112 194.926 25.968 194.392 25.68C193.859 25.3813 193.438 24.9493 193.128 24.384C192.83 23.808 192.68 23.1253 192.68 22.336V17.136H194.92V22.016C194.92 22.72 195.096 23.264 195.448 23.648C195.8 24.0213 196.28 24.208 196.888 24.208C197.507 24.208 197.992 24.0213 198.344 23.648C198.696 23.264 198.872 22.72 198.872 22.016V17.136H201.128ZM205.946 18.976V23.264C205.946 23.5627 206.016 23.7813 206.154 23.92C206.304 24.048 206.549 24.112 206.89 24.112H207.93V26H206.522C204.634 26 203.69 25.0827 203.69 23.248V18.976H202.634V17.136H203.69V14.944H205.946V17.136H207.93V18.976H205.946ZM210.678 16.08C210.283 16.08 209.952 15.9573 209.686 15.712C209.43 15.456 209.302 15.1413 209.302 14.768C209.302 14.3947 209.43 14.0853 209.686 13.84C209.952 13.584 210.283 13.456 210.678 13.456C211.072 13.456 211.398 13.584 211.654 13.84C211.92 14.0853 212.054 14.3947 212.054 14.768C212.054 15.1413 211.92 15.456 211.654 15.712C211.398 15.9573 211.072 16.08 210.678 16.08ZM211.782 17.136V26H209.542V17.136H211.782ZM217.931 26.144C217.077 26.144 216.309 25.9573 215.627 25.584C214.944 25.2 214.405 24.6613 214.011 23.968C213.627 23.2747 213.435 22.4747 213.435 21.568C213.435 20.6613 213.632 19.8613 214.027 19.168C214.432 18.4747 214.981 17.9413 215.675 17.568C216.368 17.184 217.141 16.992 217.995 16.992C218.848 16.992 219.621 17.184 220.315 17.568C221.008 17.9413 221.552 18.4747 221.947 19.168C222.352 19.8613 222.555 20.6613 222.555 21.568C222.555 22.4747 222.347 23.2747 221.931 23.968C221.525 24.6613 220.971 25.2 220.267 25.584C219.573 25.9573 218.795 26.144 217.931 26.144ZM217.931 24.192C218.336 24.192 218.715 24.096 219.067 23.904C219.429 23.7013 219.717 23.4027 219.931 23.008C220.144 22.6133 220.251 22.1333 220.251 21.568C220.251 20.7253 220.027 20.08 219.579 19.632C219.141 19.1733 218.603 18.944 217.963 18.944C217.323 18.944 216.784 19.1733 216.347 19.632C215.92 20.08 215.707 20.7253 215.707 21.568C215.707 22.4107 215.915 23.0613 216.331 23.52C216.757 23.968 217.291 24.192 217.931 24.192ZM229.11 17.008C230.166 17.008 231.019 17.344 231.67 18.016C232.32 18.6773 232.646 19.6053 232.646 20.8V26H230.406V21.104C230.406 20.4 230.23 19.8613 229.878 19.488C229.526 19.104 229.046 18.912 228.438 18.912C227.819 18.912 227.328 19.104 226.966 19.488C226.614 19.8613 226.438 20.4 226.438 21.104V26H224.198V17.136H226.438V18.24C226.736 17.856 227.115 17.5573 227.574 17.344C228.043 17.12 228.555 17.008 229.11 17.008Z" fill="#EAEDFF"/>
<g opacity="0.5">
<line y1="-0.5" x2="25" y2="-0.5" transform="matrix(-1 -8.74228e-08 -8.74228e-08 1 28 44.2871)" stroke="url(#paint1_linear_6009_28943)"/>
<line y1="-0.5" x2="25" y2="-0.5" transform="matrix(-1 -8.74228e-08 -8.74228e-08 1 28 91.2871)" stroke="url(#paint2_linear_6009_28943)"/>
<line y1="-0.5" x2="25" y2="-0.5" transform="matrix(-1 -8.74228e-08 -8.74228e-08 1 28 138.287)" stroke="url(#paint3_linear_6009_28943)"/>
<line y1="-0.5" x2="25" y2="-0.5" transform="matrix(-1 -8.74228e-08 -8.74228e-08 1 28 185.287)" stroke="url(#paint4_linear_6009_28943)"/>
<line y1="-0.5" x2="25" y2="-0.5" transform="matrix(-1 -8.74228e-08 -8.74228e-08 1 28 232.287)" stroke="url(#paint5_linear_6009_28943)"/>
</g>
<g opacity="0.5">
<line x1="303" y1="43.7871" x2="326" y2="43.7871" stroke="url(#paint6_linear_6009_28943)"/>
<line x1="303" y1="90.7871" x2="326" y2="90.7871" stroke="url(#paint7_linear_6009_28943)"/>
<line x1="303" y1="137.787" x2="326" y2="137.787" stroke="url(#paint8_linear_6009_28943)"/>
<line x1="303" y1="184.787" x2="326" y2="184.787" stroke="url(#paint9_linear_6009_28943)"/>
<line x1="303" y1="231.787" x2="326" y2="231.787" stroke="url(#paint10_linear_6009_28943)"/>
</g>
</g>
<rect x="1.5" y="1.5" width="326" height="273" rx="14.5" stroke="#334679" stroke-width="3"/>
<defs>
<linearGradient id="paint0_linear_6009_28943" x1="164.5" y1="0" x2="164.5" y2="276" gradientUnits="userSpaceOnUse">
<stop stop-color="#243474"/>
<stop offset="1" stop-color="#0F1434"/>
</linearGradient>
<linearGradient id="paint1_linear_6009_28943" x1="0" y1="0.5" x2="25" y2="0.5" gradientUnits="userSpaceOnUse">
<stop stop-color="#253575" stop-opacity="0"/>
<stop offset="0.875204" stop-color="#4360D4"/>
<stop offset="1" stop-color="#334679"/>
</linearGradient>
<linearGradient id="paint2_linear_6009_28943" x1="0" y1="0.5" x2="25" y2="0.5" gradientUnits="userSpaceOnUse">
<stop stop-color="#253575" stop-opacity="0"/>
<stop offset="0.875204" stop-color="#4360D4"/>
<stop offset="1" stop-color="#334679"/>
</linearGradient>
<linearGradient id="paint3_linear_6009_28943" x1="0" y1="0.5" x2="25" y2="0.5" gradientUnits="userSpaceOnUse">
<stop stop-color="#253575" stop-opacity="0"/>
<stop offset="0.875204" stop-color="#4360D4"/>
<stop offset="1" stop-color="#334679"/>
</linearGradient>
<linearGradient id="paint4_linear_6009_28943" x1="0" y1="0.5" x2="25" y2="0.5" gradientUnits="userSpaceOnUse">
<stop stop-color="#253575" stop-opacity="0"/>
<stop offset="0.875204" stop-color="#4360D4"/>
<stop offset="1" stop-color="#334679"/>
</linearGradient>
<linearGradient id="paint5_linear_6009_28943" x1="0" y1="0.5" x2="25" y2="0.5" gradientUnits="userSpaceOnUse">
<stop stop-color="#253575" stop-opacity="0"/>
<stop offset="0.875204" stop-color="#4360D4"/>
<stop offset="1" stop-color="#334679"/>
</linearGradient>
<linearGradient id="paint6_linear_6009_28943" x1="303" y1="44.7871" x2="326" y2="44.7871" gradientUnits="userSpaceOnUse">
<stop stop-color="#253575" stop-opacity="0"/>
<stop offset="0.875204" stop-color="#4360D4"/>
<stop offset="1" stop-color="#334679"/>
</linearGradient>
<linearGradient id="paint7_linear_6009_28943" x1="303" y1="91.7871" x2="326" y2="91.7871" gradientUnits="userSpaceOnUse">
<stop stop-color="#253575" stop-opacity="0"/>
<stop offset="0.875204" stop-color="#4360D4"/>
<stop offset="1" stop-color="#334679"/>
</linearGradient>
<linearGradient id="paint8_linear_6009_28943" x1="303" y1="138.787" x2="326" y2="138.787" gradientUnits="userSpaceOnUse">
<stop stop-color="#253575" stop-opacity="0"/>
<stop offset="0.875204" stop-color="#4360D4"/>
<stop offset="1" stop-color="#334679"/>
</linearGradient>
<linearGradient id="paint9_linear_6009_28943" x1="303" y1="185.787" x2="326" y2="185.787" gradientUnits="userSpaceOnUse">
<stop stop-color="#253575" stop-opacity="0"/>
<stop offset="0.875204" stop-color="#4360D4"/>
<stop offset="1" stop-color="#334679"/>
</linearGradient>
<linearGradient id="paint10_linear_6009_28943" x1="303" y1="232.787" x2="326" y2="232.787" gradientUnits="userSpaceOnUse">
<stop stop-color="#253575" stop-opacity="0"/>
<stop offset="0.875204" stop-color="#4360D4"/>
<stop offset="1" stop-color="#334679"/>
</linearGradient>
<clipPath id="clip0_6009_28943">
<rect width="329" height="276" rx="16" fill="white"/>
</clipPath>
</defs>
</svg>
