<svg width="531" height="276" viewBox="0 0 531 276" fill="none" xmlns="http://www.w3.org/2000/svg">
<g clip-path="url(#clip0_3108_16140)">
<rect width="531" height="276" rx="16" fill="url(#paint0_linear_3108_16140)"/>
<circle cx="265.48" cy="137.979" r="216.979" fill="#080D27" stroke="#344679" stroke-width="2"/>
<mask id="mask0_3108_16140" style="mask-type:alpha" maskUnits="userSpaceOnUse" x="55" y="-71" width="420" height="419">
<circle cx="265.025" cy="138.357" r="208.562" fill="#141414" stroke="#242424"/>
</mask>
<g mask="url(#mask0_3108_16140)">
<line x1="197.537" y1="-177.836" x2="-40.5273" y2="234.503" stroke="#1D295D"/>
<line x1="200.001" y1="-176.41" x2="-38.0625" y2="235.929" stroke="#1D295D"/>
<line x1="202.47" y1="-174.984" x2="-35.5937" y2="237.354" stroke="#1D295D"/>
<line x1="204.943" y1="-173.559" x2="-33.1211" y2="238.78" stroke="#1D295D"/>
<line x1="207.41" y1="-172.135" x2="-30.6543" y2="240.204" stroke="#1D295D"/>
<line x1="209.88" y1="-170.709" x2="-28.1836" y2="241.63" stroke="#1D295D"/>
<line x1="212.347" y1="-169.283" x2="-25.7168" y2="243.055" stroke="#1D295D"/>
<line x1="214.818" y1="-167.857" x2="-23.2461" y2="244.481" stroke="#1D295D"/>
<line x1="217.285" y1="-166.432" x2="-20.7793" y2="245.907" stroke="#1D295D"/>
<line x1="219.753" y1="-165.006" x2="-18.3105" y2="247.333" stroke="#1D295D"/>
<line x1="222.222" y1="-163.582" x2="-15.8418" y2="248.757" stroke="#1D295D"/>
<line x1="224.691" y1="-162.156" x2="-13.373" y2="250.182" stroke="#1D295D"/>
<line x1="227.163" y1="-160.73" x2="-10.9004" y2="251.608" stroke="#1D295D"/>
<line x1="229.632" y1="-159.305" x2="-8.43161" y2="253.034" stroke="#1D295D"/>
<line x1="232.099" y1="-157.879" x2="-5.96481" y2="254.46" stroke="#1D295D"/>
<line x1="234.57" y1="-156.453" x2="-3.49411" y2="255.886" stroke="#1D295D"/>
<line x1="237.037" y1="-155.029" x2="-1.02731" y2="257.309" stroke="#1D295D"/>
<line x1="239.509" y1="-153.604" x2="1.44534" y2="258.735" stroke="#1D295D"/>
<line x1="241.974" y1="-152.178" x2="3.91019" y2="260.161" stroke="#1D295D"/>
<line x1="244.443" y1="-150.752" x2="6.37894" y2="261.587" stroke="#1D295D"/>
<line x1="246.913" y1="-149.326" x2="8.84964" y2="263.012" stroke="#1D295D"/>
<line x1="249.382" y1="-147.9" x2="11.3184" y2="264.438" stroke="#1D295D"/>
<line x1="251.851" y1="-146.477" x2="13.7871" y2="265.862" stroke="#1D295D"/>
<line x1="254.32" y1="-145.051" x2="16.2559" y2="267.288" stroke="#1D295D"/>
<line x1="256.792" y1="-143.625" x2="18.7285" y2="268.714" stroke="#1D295D"/>
<line x1="259.255" y1="-142.199" x2="21.1914" y2="270.139" stroke="#1D295D"/>
<line x1="261.726" y1="-140.773" x2="23.6621" y2="271.565" stroke="#1D295D"/>
<line x1="264.195" y1="-139.348" x2="26.1309" y2="272.991" stroke="#1D295D"/>
<line x1="266.663" y1="-137.924" x2="28.5996" y2="274.415" stroke="#1D295D"/>
<line x1="269.136" y1="-136.498" x2="31.0723" y2="275.841" stroke="#1D295D"/>
<line x1="271.603" y1="-135.072" x2="33.5391" y2="277.266" stroke="#1D295D"/>
<line x1="274.07" y1="-133.646" x2="36.0059" y2="278.692" stroke="#1D295D"/>
<line x1="276.54" y1="-132.221" x2="38.4766" y2="280.118" stroke="#1D295D"/>
<line x1="279.007" y1="-130.795" x2="40.9434" y2="281.544" stroke="#1D295D"/>
<line x1="281.478" y1="-129.373" x2="43.4141" y2="282.966" stroke="#1D295D"/>
<line x1="283.947" y1="-127.947" x2="45.8828" y2="284.391" stroke="#1D295D"/>
<line x1="286.412" y1="-126.521" x2="48.3477" y2="285.817" stroke="#1D295D"/>
<line x1="288.882" y1="-125.096" x2="50.8184" y2="287.243" stroke="#1D295D"/>
<line x1="291.351" y1="-123.67" x2="53.2871" y2="288.669" stroke="#1D295D"/>
<line x1="293.822" y1="-122.244" x2="55.7578" y2="290.095" stroke="#1D295D"/>
<line x1="296.288" y1="-120.82" x2="58.2246" y2="291.518" stroke="#1D295D"/>
<line x1="298.761" y1="-119.395" x2="60.6973" y2="292.944" stroke="#1D295D"/>
<line x1="301.228" y1="-117.969" x2="63.1641" y2="294.37" stroke="#1D295D"/>
<line x1="303.697" y1="-116.543" x2="65.6328" y2="295.796" stroke="#1D295D"/>
<line x1="306.163" y1="-115.117" x2="68.0996" y2="297.221" stroke="#1D295D"/>
<line x1="308.63" y1="-113.691" x2="70.5664" y2="298.647" stroke="#1D295D"/>
<line x1="311.103" y1="-112.268" x2="73.0391" y2="300.071" stroke="#1D295D"/>
<line x1="313.572" y1="-110.842" x2="75.5078" y2="301.497" stroke="#1D295D"/>
<line x1="316.04" y1="-109.416" x2="77.9766" y2="302.923" stroke="#1D295D"/>
<line x1="318.509" y1="-107.99" x2="80.4453" y2="304.348" stroke="#1D295D"/>
<line x1="320.978" y1="-106.564" x2="82.9141" y2="305.774" stroke="#1D295D"/>
<line x1="323.451" y1="-105.141" x2="85.3867" y2="307.198" stroke="#1D295D"/>
<line x1="325.915" y1="-103.715" x2="87.8516" y2="308.624" stroke="#1D295D"/>
<line x1="328.384" y1="-102.289" x2="90.3203" y2="310.05" stroke="#1D295D"/>
<line x1="330.855" y1="-100.863" x2="92.791" y2="311.475" stroke="#1D295D"/>
<line x1="333.324" y1="-99.4375" x2="95.2598" y2="312.901" stroke="#1D295D"/>
<line x1="335.792" y1="-98.0137" x2="97.7285" y2="314.325" stroke="#1D295D"/>
<line x1="338.261" y1="-96.5879" x2="100.197" y2="315.751" stroke="#1D295D"/>
<line x1="340.734" y1="-95.1621" x2="102.67" y2="317.177" stroke="#1D295D"/>
<line x1="343.199" y1="-93.7363" x2="105.135" y2="318.602" stroke="#1D295D"/>
<line x1="345.667" y1="-92.3105" x2="107.604" y2="320.028" stroke="#1D295D"/>
<line x1="348.136" y1="-90.8848" x2="110.072" y2="321.454" stroke="#1D295D"/>
<line x1="350.605" y1="-89.459" x2="112.541" y2="322.88" stroke="#1D295D"/>
<line x1="353.078" y1="-88.0352" x2="115.014" y2="324.303" stroke="#1D295D"/>
<line x1="355.544" y1="-86.6094" x2="117.48" y2="325.729" stroke="#1D295D"/>
<line x1="358.011" y1="-85.1836" x2="119.947" y2="327.155" stroke="#1D295D"/>
<line x1="360.482" y1="-83.7578" x2="122.418" y2="328.581" stroke="#1D295D"/>
<line x1="362.951" y1="-82.334" x2="124.887" y2="330.005" stroke="#1D295D"/>
<line x1="365.427" y1="-80.9102" x2="127.363" y2="331.428" stroke="#1D295D"/>
<line x1="367.896" y1="-79.4844" x2="129.832" y2="332.854" stroke="#1D295D"/>
<line x1="370.361" y1="-78.0586" x2="132.297" y2="334.28" stroke="#1D295D"/>
<line x1="372.829" y1="-76.6328" x2="134.766" y2="335.706" stroke="#1D295D"/>
<line x1="375.3" y1="-75.207" x2="137.236" y2="337.132" stroke="#1D295D"/>
<line x1="377.771" y1="-73.7832" x2="139.707" y2="338.555" stroke="#1D295D"/>
<line x1="380.238" y1="-72.3574" x2="142.174" y2="339.981" stroke="#1D295D"/>
<line x1="382.71" y1="-70.9316" x2="144.647" y2="341.407" stroke="#1D295D"/>
<line x1="385.177" y1="-69.5059" x2="147.113" y2="342.833" stroke="#1D295D"/>
<line x1="387.646" y1="-68.0801" x2="149.582" y2="344.259" stroke="#1D295D"/>
<line x1="390.113" y1="-66.6543" x2="152.049" y2="345.684" stroke="#1D295D"/>
<line x1="392.581" y1="-65.2285" x2="154.518" y2="347.11" stroke="#1D295D"/>
<line x1="395.054" y1="-63.8047" x2="156.99" y2="348.534" stroke="#1D295D"/>
<line x1="397.521" y1="-62.3789" x2="159.457" y2="349.96" stroke="#1D295D"/>
<line x1="399.988" y1="-60.9531" x2="161.924" y2="351.386" stroke="#1D295D"/>
<line x1="402.456" y1="-59.5273" x2="164.393" y2="352.811" stroke="#1D295D"/>
<line x1="404.927" y1="-58.1035" x2="166.863" y2="354.235" stroke="#1D295D"/>
<line x1="407.396" y1="-56.6758" x2="169.332" y2="355.663" stroke="#1D295D"/>
<line x1="409.861" y1="-55.25" x2="171.797" y2="357.089" stroke="#1D295D"/>
<line x1="412.329" y1="-53.8242" x2="174.266" y2="358.514" stroke="#1D295D"/>
<line x1="414.8" y1="-52.3984" x2="176.736" y2="359.94" stroke="#1D295D"/>
<line x1="417.269" y1="-50.9727" x2="179.205" y2="361.366" stroke="#1D295D"/>
<line x1="419.738" y1="-49.5488" x2="181.674" y2="362.79" stroke="#1D295D"/>
<line x1="422.206" y1="-48.123" x2="184.143" y2="364.216" stroke="#1D295D"/>
<line x1="424.679" y1="-46.6973" x2="186.615" y2="365.641" stroke="#1D295D"/>
<line x1="427.144" y1="-45.2715" x2="189.08" y2="367.067" stroke="#1D295D"/>
<line x1="429.613" y1="-43.8457" x2="191.549" y2="368.493" stroke="#1D295D"/>
<line x1="432.081" y1="-42.4199" x2="194.018" y2="369.919" stroke="#1D295D"/>
<line x1="434.55" y1="-40.9961" x2="196.486" y2="371.343" stroke="#1D295D"/>
<line x1="437.023" y1="-39.5703" x2="198.959" y2="372.768" stroke="#1D295D"/>
<line x1="439.49" y1="-38.1445" x2="201.426" y2="374.194" stroke="#1D295D"/>
<line x1="441.956" y1="-36.7187" x2="203.893" y2="375.62" stroke="#1D295D"/>
<line x1="444.427" y1="-35.293" x2="206.363" y2="377.046" stroke="#1D295D"/>
<line x1="446.896" y1="-33.8691" x2="208.832" y2="378.47" stroke="#1D295D"/>
<line x1="449.365" y1="-32.4434" x2="211.301" y2="379.895" stroke="#1D295D"/>
<line x1="451.831" y1="-31.0176" x2="213.768" y2="381.321" stroke="#1D295D"/>
<line x1="454.298" y1="-29.5918" x2="216.234" y2="382.747" stroke="#1D295D"/>
<line x1="456.769" y1="-28.166" x2="218.705" y2="384.173" stroke="#1D295D"/>
<line x1="459.238" y1="-26.7422" x2="221.174" y2="385.596" stroke="#1D295D"/>
<line x1="461.706" y1="-25.3164" x2="223.643" y2="387.022" stroke="#1D295D"/>
<line x1="464.175" y1="-23.8906" x2="226.111" y2="388.448" stroke="#1D295D"/>
<line x1="466.646" y1="-22.4648" x2="228.582" y2="389.874" stroke="#1D295D"/>
<line x1="469.113" y1="-21.0391" x2="231.049" y2="391.3" stroke="#1D295D"/>
<line x1="471.583" y1="-19.6152" x2="233.52" y2="392.723" stroke="#1D295D"/>
<line x1="474.05" y1="-18.1895" x2="235.986" y2="394.149" stroke="#1D295D"/>
<line x1="476.519" y1="-16.7637" x2="238.455" y2="395.575" stroke="#1D295D"/>
<line x1="478.992" y1="-15.3379" x2="240.928" y2="397.001" stroke="#1D295D"/>
<line x1="481.458" y1="-13.9121" x2="243.395" y2="398.427" stroke="#1D295D"/>
<line x1="483.927" y1="-12.4863" x2="245.863" y2="399.852" stroke="#1D295D"/>
<line x1="486.398" y1="-11.0625" x2="248.334" y2="401.276" stroke="#1D295D"/>
<line x1="488.865" y1="-9.63672" x2="250.801" y2="402.702" stroke="#1D295D"/>
<line x1="491.339" y1="-8.21289" x2="253.275" y2="404.126" stroke="#1D295D"/>
<line x1="493.804" y1="-6.78711" x2="255.74" y2="405.552" stroke="#1D295D"/>
<line x1="496.273" y1="-5.36133" x2="258.209" y2="406.977" stroke="#1D295D"/>
<line x1="498.744" y1="-3.93555" x2="260.68" y2="408.403" stroke="#1D295D"/>
<line x1="501.212" y1="-2.50977" x2="263.148" y2="409.829" stroke="#1D295D"/>
<line x1="503.683" y1="-1.08594" x2="265.619" y2="411.253" stroke="#1D295D"/>
<line x1="506.15" y1="0.339844" x2="268.086" y2="412.678" stroke="#1D295D"/>
<line x1="508.622" y1="1.76563" x2="270.559" y2="414.104" stroke="#1D295D"/>
<line x1="511.087" y1="3.19141" x2="273.023" y2="415.53" stroke="#1D295D"/>
<line x1="513.556" y1="4.61719" x2="275.492" y2="416.956" stroke="#1D295D"/>
<line x1="516.025" y1="6.04297" x2="277.961" y2="418.382" stroke="#1D295D"/>
<line x1="518.494" y1="7.4668" x2="280.43" y2="419.805" stroke="#1D295D"/>
<line x1="520.966" y1="8.89258" x2="282.902" y2="421.231" stroke="#1D295D"/>
<line x1="523.433" y1="10.3184" x2="285.369" y2="422.657" stroke="#1D295D"/>
<line x1="525.9" y1="11.7441" x2="287.836" y2="424.083" stroke="#1D295D"/>
<line x1="528.371" y1="13.1699" x2="290.307" y2="425.509" stroke="#1D295D"/>
<line x1="530.839" y1="14.5938" x2="292.775" y2="426.932" stroke="#1D295D"/>
<line x1="533.308" y1="16.0195" x2="295.244" y2="428.358" stroke="#1D295D"/>
<line x1="535.777" y1="17.4453" x2="297.713" y2="429.784" stroke="#1D295D"/>
<line x1="538.246" y1="18.8711" x2="300.182" y2="431.21" stroke="#1D295D"/>
<line x1="540.712" y1="20.2969" x2="302.648" y2="432.636" stroke="#1D295D"/>
<line x1="543.181" y1="21.7227" x2="305.117" y2="434.061" stroke="#1D295D"/>
<line x1="545.65" y1="23.1465" x2="307.586" y2="435.485" stroke="#1D295D"/>
<line x1="548.119" y1="24.5723" x2="310.055" y2="436.911" stroke="#1D295D"/>
<line x1="550.591" y1="25.998" x2="312.527" y2="438.337" stroke="#1D295D"/>
<line x1="553.056" y1="27.4238" x2="314.992" y2="439.762" stroke="#1D295D"/>
<line x1="555.527" y1="28.8496" x2="317.463" y2="441.188" stroke="#1D295D"/>
<line x1="557.997" y1="30.2734" x2="319.934" y2="442.612" stroke="#1D295D"/>
<line x1="560.462" y1="31.6992" x2="322.398" y2="444.038" stroke="#1D295D"/>
<line x1="562.935" y1="33.125" x2="324.871" y2="445.464" stroke="#1D295D"/>
<line x1="565.402" y1="34.5508" x2="327.338" y2="446.889" stroke="#1D295D"/>
<line x1="567.869" y1="35.9766" x2="329.805" y2="448.315" stroke="#1D295D"/>
<line x1="570.339" y1="37.4023" x2="332.275" y2="449.741" stroke="#1D295D"/>
<line x1="572.808" y1="38.8262" x2="334.744" y2="451.165" stroke="#1D295D"/>
</g>
<line x1="266.018" y1="-175.73" x2="266.018" y2="451.455" stroke="#344679"/>
<path opacity="0.5" d="M385 138C385 204.274 331.274 258 265 258C198.726 258 145 204.274 145 138C145 71.7258 198.726 18 265 18C331.274 18 385 71.7258 385 138Z" fill="#080D27"/>
<path d="M25.008 23.832C26.1813 23.832 27.2107 24.0613 28.096 24.52C28.992 24.9787 29.68 25.6347 30.16 26.488C30.6507 27.3307 30.896 28.312 30.896 29.432C30.896 30.552 30.6507 31.5333 30.16 32.376C29.68 33.208 28.992 33.8533 28.096 34.312C27.2107 34.7707 26.1813 35 25.008 35H21.104V23.832H25.008ZM24.928 33.096C26.1013 33.096 27.008 32.776 27.648 32.136C28.288 31.496 28.608 30.5947 28.608 29.432C28.608 28.2693 28.288 27.3627 27.648 26.712C27.008 26.0507 26.1013 25.72 24.928 25.72H23.344V33.096H24.928ZM31.9967 30.536C31.9967 29.64 32.1727 28.8453 32.5247 28.152C32.8874 27.4587 33.3728 26.9253 33.9808 26.552C34.5994 26.1787 35.2874 25.992 36.0448 25.992C36.7061 25.992 37.2821 26.1253 37.7728 26.392C38.2741 26.6587 38.6741 26.9947 38.9728 27.4V26.136H41.2288V35H38.9728V33.704C38.6848 34.12 38.2848 34.4667 37.7728 34.744C37.2714 35.0107 36.6901 35.144 36.0288 35.144C35.2821 35.144 34.5994 34.952 33.9808 34.568C33.3728 34.184 32.8874 33.6453 32.5247 32.952C32.1727 32.248 31.9967 31.4427 31.9967 30.536ZM38.9728 30.568C38.9728 30.024 38.8661 29.56 38.6528 29.176C38.4394 28.7813 38.1514 28.4827 37.7888 28.28C37.4261 28.0667 37.0368 27.96 36.6208 27.96C36.2048 27.96 35.8208 28.0613 35.4688 28.264C35.1168 28.4667 34.8288 28.7653 34.6048 29.16C34.3914 29.544 34.2848 30.0027 34.2848 30.536C34.2848 31.0693 34.3914 31.5387 34.6048 31.944C34.8288 32.3387 35.1168 32.6427 35.4688 32.856C35.8314 33.0693 36.2154 33.176 36.6208 33.176C37.0368 33.176 37.4261 33.0747 37.7888 32.872C38.1514 32.6587 38.4394 32.36 38.6528 31.976C38.8661 31.5813 38.9728 31.112 38.9728 30.568ZM44.5525 25.08C44.1578 25.08 43.8272 24.9573 43.5605 24.712C43.3045 24.456 43.1765 24.1413 43.1765 23.768C43.1765 23.3947 43.3045 23.0853 43.5605 22.84C43.8272 22.584 44.1578 22.456 44.5525 22.456C44.9472 22.456 45.2725 22.584 45.5285 22.84C45.7952 23.0853 45.9285 23.3947 45.9285 23.768C45.9285 24.1413 45.7952 24.456 45.5285 24.712C45.2725 24.9573 44.9472 25.08 44.5525 25.08ZM45.6565 26.136V35H43.4165V26.136H45.6565ZM50.1096 23.16V35H47.8696V23.16H50.1096ZM60.8028 26.136L55.3148 39.192H52.9308L54.8508 34.776L51.2988 26.136H53.8108L56.0988 32.328L58.4188 26.136H60.8028ZM69.7268 23.832C70.9001 23.832 71.9294 24.0613 72.8148 24.52C73.7108 24.9787 74.3988 25.6347 74.8788 26.488C75.3694 27.3307 75.6148 28.312 75.6148 29.432C75.6148 30.552 75.3694 31.5333 74.8788 32.376C74.3988 33.208 73.7108 33.8533 72.8148 34.312C71.9294 34.7707 70.9001 35 69.7268 35H65.8228V23.832H69.7268ZM69.6468 33.096C70.8201 33.096 71.7268 32.776 72.3668 32.136C73.0068 31.496 73.3268 30.5947 73.3268 29.432C73.3268 28.2693 73.0068 27.3627 72.3668 26.712C71.7268 26.0507 70.8201 25.72 69.6468 25.72H68.0628V33.096H69.6468ZM78.4275 25.08C78.0328 25.08 77.7022 24.9573 77.4355 24.712C77.1795 24.456 77.0515 24.1413 77.0515 23.768C77.0515 23.3947 77.1795 23.0853 77.4355 22.84C77.7022 22.584 78.0328 22.456 78.4275 22.456C78.8222 22.456 79.1475 22.584 79.4035 22.84C79.6702 23.0853 79.8035 23.3947 79.8035 23.768C79.8035 24.1413 79.6702 24.456 79.4035 24.712C79.1475 24.9573 78.8222 25.08 78.4275 25.08ZM79.5315 26.136V35H77.2915V26.136H79.5315ZM85.1366 35.144C84.4113 35.144 83.7606 35.016 83.1846 34.76C82.6086 34.4933 82.15 34.136 81.8086 33.688C81.478 33.24 81.2966 32.744 81.2646 32.2H83.5206C83.5633 32.5413 83.7286 32.824 84.0166 33.048C84.3153 33.272 84.6833 33.384 85.1206 33.384C85.5473 33.384 85.878 33.2987 86.1126 33.128C86.358 32.9573 86.4806 32.7387 86.4806 32.472C86.4806 32.184 86.3313 31.9707 86.0326 31.832C85.7446 31.6827 85.2806 31.5227 84.6406 31.352C83.9793 31.192 83.4353 31.0267 83.0086 30.856C82.5926 30.6853 82.23 30.424 81.9206 30.072C81.622 29.72 81.4726 29.2453 81.4726 28.648C81.4726 28.1573 81.6113 27.7093 81.8886 27.304C82.1766 26.8987 82.582 26.5787 83.1046 26.344C83.638 26.1093 84.262 25.992 84.9766 25.992C86.0326 25.992 86.8753 26.2587 87.5046 26.792C88.134 27.3147 88.4806 28.024 88.5446 28.92H86.4006C86.3686 28.568 86.2193 28.2907 85.9526 28.088C85.6966 27.8747 85.35 27.768 84.9126 27.768C84.5073 27.768 84.1926 27.8427 83.9686 27.992C83.7553 28.1413 83.6486 28.3493 83.6486 28.616C83.6486 28.9147 83.798 29.144 84.0966 29.304C84.3953 29.4533 84.8593 29.608 85.4886 29.768C86.1286 29.928 86.6566 30.0933 87.0726 30.264C87.4886 30.4347 87.846 30.7013 88.1446 31.064C88.454 31.416 88.614 31.8853 88.6246 32.472C88.6246 32.984 88.4806 33.4427 88.1926 33.848C87.9153 34.2533 87.51 34.5733 86.9766 34.808C86.454 35.032 85.8406 35.144 85.1366 35.144ZM93.0714 27.976V32.264C93.0714 32.5627 93.1407 32.7813 93.2794 32.92C93.4287 33.048 93.674 33.112 94.0154 33.112H95.0554V35H93.6474C91.7594 35 90.8154 34.0827 90.8154 32.248V27.976H89.7594V26.136H90.8154V23.944H93.0714V26.136H95.0554V27.976H93.0714ZM98.9065 27.512C99.1945 27.0427 99.5678 26.6747 100.027 26.408C100.496 26.1413 101.029 26.008 101.627 26.008V28.36H101.035C100.331 28.36 99.7972 28.5253 99.4345 28.856C99.0825 29.1867 98.9065 29.7627 98.9065 30.584V35H96.6665V26.136H98.9065V27.512ZM104.271 25.08C103.877 25.08 103.546 24.9573 103.279 24.712C103.023 24.456 102.895 24.1413 102.895 23.768C102.895 23.3947 103.023 23.0853 103.279 22.84C103.546 22.584 103.877 22.456 104.271 22.456C104.666 22.456 104.991 22.584 105.247 22.84C105.514 23.0853 105.647 23.3947 105.647 23.768C105.647 24.1413 105.514 24.456 105.247 24.712C104.991 24.9573 104.666 25.08 104.271 25.08ZM105.375 26.136V35H103.135V26.136H105.375ZM109.828 27.432C110.116 27.0053 110.511 26.6587 111.012 26.392C111.524 26.1253 112.106 25.992 112.756 25.992C113.514 25.992 114.196 26.1787 114.804 26.552C115.423 26.9253 115.908 27.4587 116.26 28.152C116.623 28.8347 116.804 29.6293 116.804 30.536C116.804 31.4427 116.623 32.248 116.26 32.952C115.908 33.6453 115.423 34.184 114.804 34.568C114.196 34.952 113.514 35.144 112.756 35.144C112.095 35.144 111.514 35.016 111.012 34.76C110.522 34.4933 110.127 34.152 109.828 33.736V35H107.588V23.16H109.828V27.432ZM114.516 30.536C114.516 30.0027 114.404 29.544 114.18 29.16C113.967 28.7653 113.679 28.4667 113.316 28.264C112.964 28.0613 112.58 27.96 112.164 27.96C111.759 27.96 111.375 28.0667 111.012 28.28C110.66 28.4827 110.372 28.7813 110.148 29.176C109.935 29.5707 109.828 30.0347 109.828 30.568C109.828 31.1013 109.935 31.5653 110.148 31.96C110.372 32.3547 110.66 32.6587 111.012 32.872C111.375 33.0747 111.759 33.176 112.164 33.176C112.58 33.176 112.964 33.0693 113.316 32.856C113.679 32.6427 113.967 32.3387 114.18 31.944C114.404 31.5493 114.516 31.08 114.516 30.536ZM126.8 26.136V35H124.544V33.88C124.256 34.264 123.877 34.568 123.408 34.792C122.949 35.0053 122.448 35.112 121.904 35.112C121.211 35.112 120.597 34.968 120.064 34.68C119.531 34.3813 119.109 33.9493 118.8 33.384C118.501 32.808 118.352 32.1253 118.352 31.336V26.136H120.592V31.016C120.592 31.72 120.768 32.264 121.12 32.648C121.472 33.0213 121.952 33.208 122.56 33.208C123.179 33.208 123.664 33.0213 124.016 32.648C124.368 32.264 124.544 31.72 124.544 31.016V26.136H126.8ZM131.618 27.976V32.264C131.618 32.5627 131.688 32.7813 131.826 32.92C131.976 33.048 132.221 33.112 132.562 33.112H133.602V35H132.194C130.306 35 129.362 34.0827 129.362 32.248V27.976H128.306V26.136H129.362V23.944H131.618V26.136H133.602V27.976H131.618ZM136.349 25.08C135.955 25.08 135.624 24.9573 135.357 24.712C135.101 24.456 134.973 24.1413 134.973 23.768C134.973 23.3947 135.101 23.0853 135.357 22.84C135.624 22.584 135.955 22.456 136.349 22.456C136.744 22.456 137.069 22.584 137.325 22.84C137.592 23.0853 137.725 23.3947 137.725 23.768C137.725 24.1413 137.592 24.456 137.325 24.712C137.069 24.9573 136.744 25.08 136.349 25.08ZM137.453 26.136V35H135.213V26.136H137.453ZM143.603 35.144C142.749 35.144 141.981 34.9573 141.299 34.584C140.616 34.2 140.077 33.6613 139.683 32.968C139.299 32.2747 139.107 31.4747 139.107 30.568C139.107 29.6613 139.304 28.8613 139.699 28.168C140.104 27.4747 140.653 26.9413 141.347 26.568C142.04 26.184 142.813 25.992 143.667 25.992C144.52 25.992 145.293 26.184 145.987 26.568C146.68 26.9413 147.224 27.4747 147.619 28.168C148.024 28.8613 148.227 29.6613 148.227 30.568C148.227 31.4747 148.019 32.2747 147.602 32.968C147.197 33.6613 146.643 34.2 145.939 34.584C145.245 34.9573 144.467 35.144 143.603 35.144ZM143.603 33.192C144.008 33.192 144.387 33.096 144.739 32.904C145.101 32.7013 145.389 32.4027 145.603 32.008C145.816 31.6133 145.923 31.1333 145.923 30.568C145.923 29.7253 145.699 29.08 145.251 28.632C144.813 28.1733 144.275 27.944 143.635 27.944C142.995 27.944 142.456 28.1733 142.019 28.632C141.592 29.08 141.379 29.7253 141.379 30.568C141.379 31.4107 141.587 32.0613 142.003 32.52C142.429 32.968 142.963 33.192 143.603 33.192ZM154.782 26.008C155.838 26.008 156.691 26.344 157.342 27.016C157.992 27.6773 158.318 28.6053 158.318 29.8V35H156.078V30.104C156.078 29.4 155.902 28.8613 155.55 28.488C155.198 28.104 154.718 27.912 154.11 27.912C153.491 27.912 153 28.104 152.638 28.488C152.286 28.8613 152.11 29.4 152.11 30.104V35H149.87V26.136H152.11V27.24C152.408 26.856 152.787 26.5573 153.246 26.344C153.715 26.12 154.227 26.008 154.782 26.008Z" fill="#EAEDFF"/>
<g opacity="0.5">
<line x1="483" y1="44.5" x2="529" y2="44.5" stroke="url(#paint1_linear_3108_16140)"/>
<line x1="483" y1="91.5" x2="529" y2="91.5" stroke="url(#paint2_linear_3108_16140)"/>
<line x1="483" y1="138.5" x2="529" y2="138.5" stroke="url(#paint3_linear_3108_16140)"/>
<line x1="483" y1="185.5" x2="529" y2="185.5" stroke="url(#paint4_linear_3108_16140)"/>
<line x1="483" y1="232.5" x2="529" y2="232.5" stroke="url(#paint5_linear_3108_16140)"/>
</g>
<g opacity="0.5">
<line y1="-0.5" x2="46" y2="-0.5" transform="matrix(-1 -8.74228e-08 -8.74228e-08 1 49 45)" stroke="url(#paint6_linear_3108_16140)"/>
<line y1="-0.5" x2="46" y2="-0.5" transform="matrix(-1 -8.74228e-08 -8.74228e-08 1 49 92)" stroke="url(#paint7_linear_3108_16140)"/>
<line y1="-0.5" x2="46" y2="-0.5" transform="matrix(-1 -8.74228e-08 -8.74228e-08 1 49 139)" stroke="url(#paint8_linear_3108_16140)"/>
<line y1="-0.5" x2="46" y2="-0.5" transform="matrix(-1 -8.74228e-08 -8.74228e-08 1 49 186)" stroke="url(#paint9_linear_3108_16140)"/>
<line y1="-0.5" x2="46" y2="-0.5" transform="matrix(-1 -8.74228e-08 -8.74228e-08 1 49 233)" stroke="url(#paint10_linear_3108_16140)"/>
</g>
</g>
<rect x="0.5" y="0.5" width="530" height="275" rx="15.5" stroke="#334679"/>
<defs>
<linearGradient id="paint0_linear_3108_16140" x1="265.5" y1="0" x2="265.5" y2="276" gradientUnits="userSpaceOnUse">
<stop stop-color="#243474"/>
<stop offset="1" stop-color="#0F1434"/>
</linearGradient>
<linearGradient id="paint1_linear_3108_16140" x1="483" y1="45.5" x2="529" y2="45.5" gradientUnits="userSpaceOnUse">
<stop stop-color="#253575" stop-opacity="0"/>
<stop offset="0.875204" stop-color="#4360D4"/>
<stop offset="1" stop-color="#334679"/>
</linearGradient>
<linearGradient id="paint2_linear_3108_16140" x1="483" y1="92.5" x2="529" y2="92.5" gradientUnits="userSpaceOnUse">
<stop stop-color="#253575" stop-opacity="0"/>
<stop offset="0.875204" stop-color="#4360D4"/>
<stop offset="1" stop-color="#334679"/>
</linearGradient>
<linearGradient id="paint3_linear_3108_16140" x1="483" y1="139.5" x2="529" y2="139.5" gradientUnits="userSpaceOnUse">
<stop stop-color="#253575" stop-opacity="0"/>
<stop offset="0.875204" stop-color="#4360D4"/>
<stop offset="1" stop-color="#334679"/>
</linearGradient>
<linearGradient id="paint4_linear_3108_16140" x1="483" y1="186.5" x2="529" y2="186.5" gradientUnits="userSpaceOnUse">
<stop stop-color="#253575" stop-opacity="0"/>
<stop offset="0.875204" stop-color="#4360D4"/>
<stop offset="1" stop-color="#334679"/>
</linearGradient>
<linearGradient id="paint5_linear_3108_16140" x1="483" y1="233.5" x2="529" y2="233.5" gradientUnits="userSpaceOnUse">
<stop stop-color="#253575" stop-opacity="0"/>
<stop offset="0.875204" stop-color="#4360D4"/>
<stop offset="1" stop-color="#334679"/>
</linearGradient>
<linearGradient id="paint6_linear_3108_16140" x1="0" y1="0.5" x2="46" y2="0.5" gradientUnits="userSpaceOnUse">
<stop stop-color="#253575" stop-opacity="0"/>
<stop offset="0.875204" stop-color="#4360D4"/>
<stop offset="1" stop-color="#334679"/>
</linearGradient>
<linearGradient id="paint7_linear_3108_16140" x1="0" y1="0.5" x2="46" y2="0.5" gradientUnits="userSpaceOnUse">
<stop stop-color="#253575" stop-opacity="0"/>
<stop offset="0.875204" stop-color="#4360D4"/>
<stop offset="1" stop-color="#334679"/>
</linearGradient>
<linearGradient id="paint8_linear_3108_16140" x1="0" y1="0.5" x2="46" y2="0.5" gradientUnits="userSpaceOnUse">
<stop stop-color="#253575" stop-opacity="0"/>
<stop offset="0.875204" stop-color="#4360D4"/>
<stop offset="1" stop-color="#334679"/>
</linearGradient>
<linearGradient id="paint9_linear_3108_16140" x1="0" y1="0.5" x2="46" y2="0.5" gradientUnits="userSpaceOnUse">
<stop stop-color="#253575" stop-opacity="0"/>
<stop offset="0.875204" stop-color="#4360D4"/>
<stop offset="1" stop-color="#334679"/>
</linearGradient>
<linearGradient id="paint10_linear_3108_16140" x1="0" y1="0.5" x2="46" y2="0.5" gradientUnits="userSpaceOnUse">
<stop stop-color="#253575" stop-opacity="0"/>
<stop offset="0.875204" stop-color="#4360D4"/>
<stop offset="1" stop-color="#334679"/>
</linearGradient>
<clipPath id="clip0_3108_16140">
<rect width="531" height="276" rx="16" fill="white"/>
</clipPath>
</defs>
</svg>
