<svg width="102" height="112" viewBox="0 0 102 112" fill="none" xmlns="http://www.w3.org/2000/svg">
<circle cx="51" cy="49" r="48.5" stroke="#253688" stroke-dasharray="2 2"/>
<g filter="url(#filter0_d_3108_16886)">
<circle cx="51" cy="49" r="43" fill="#131D4E"/>
<circle cx="51" cy="49" r="42.5" stroke="#253688"/>
</g>
<g clip-path="url(#clip0_3108_16886)">
<path d="M58.125 56.875V47.875C58.125 47.4772 57.967 47.0956 57.6857 46.8143C57.4044 46.533 57.0228 46.375 56.625 46.375H55.125V43.4125C55.125 41.32 53.3325 39.625 51.1238 39.625H50.8725C48.6675 39.625 46.875 41.32 46.875 43.4125V46.375H45.375C44.9772 46.375 44.5956 46.533 44.3143 46.8143C44.033 47.0956 43.875 47.4772 43.875 47.875V56.875C43.875 57.2728 44.033 57.6544 44.3143 57.9357C44.5956 58.217 44.9772 58.375 45.375 58.375H56.625C57.0228 58.375 57.4044 58.217 57.6857 57.9357C57.967 57.6544 58.125 57.2728 58.125 56.875ZM48.375 43.4125C48.4052 42.7781 48.6852 42.1815 49.1538 41.7529C49.6225 41.3242 50.2417 41.0985 50.8762 41.125H51.1275C51.7614 41.0995 52.3797 41.3257 52.8475 41.7542C53.3154 42.1827 53.5948 42.7788 53.625 43.4125V46.375H48.375V43.4125ZM45.375 47.875H56.625V56.875H51.75V55.2438C52.2504 55.0668 52.6722 54.7187 52.9407 54.2609C53.2093 53.8031 53.3073 53.2651 53.2176 52.7419C53.1278 52.2188 52.856 51.7443 52.4502 51.4022C52.0444 51.0601 51.5308 50.8724 51 50.8724C50.4692 50.8724 49.9556 51.0601 49.5498 51.4022C49.144 51.7443 48.8722 52.2188 48.7824 52.7419C48.6927 53.2651 48.7907 53.8031 49.0593 54.2609C49.3278 54.7187 49.7496 55.0668 50.25 55.2438V56.875H45.375V47.875ZM51 53.875C50.8517 53.875 50.7067 53.831 50.5833 53.7486C50.46 53.6662 50.3639 53.5491 50.3071 53.412C50.2503 53.275 50.2355 53.1242 50.2644 52.9787C50.2933 52.8332 50.3648 52.6996 50.4697 52.5947C50.5746 52.4898 50.7082 52.4184 50.8537 52.3894C50.9992 52.3605 51.15 52.3753 51.287 52.4321C51.4241 52.4889 51.5412 52.585 51.6236 52.7083C51.706 52.8317 51.75 52.9767 51.75 53.125C51.75 53.3239 51.671 53.5147 51.5303 53.6553C51.3897 53.796 51.1989 53.875 51 53.875Z" fill="white"/>
<path d="M29.6243 30.25C30.1897 30.2501 30.7401 30.0677 31.1935 29.7299C31.6469 29.392 31.979 28.9168 32.1406 28.375H48.7493V36.625C48.7493 36.8239 48.8283 37.0147 48.969 37.1553C49.1097 37.296 49.3004 37.375 49.4993 37.375C49.6982 37.375 49.889 37.296 50.0297 37.1553C50.1703 37.0147 50.2493 36.8239 50.2493 36.625V27.625C50.2493 27.4261 50.1703 27.2353 50.0297 27.0947C49.889 26.954 49.6982 26.875 49.4993 26.875H32.1406C32.0015 26.4085 31.7354 25.9898 31.3721 25.6659C31.0088 25.3419 30.5625 25.1253 30.0832 25.0403C29.6039 24.9553 29.1104 25.0053 28.6578 25.1847C28.2053 25.364 27.8115 25.6657 27.5205 26.056C27.2296 26.4463 27.0528 26.9098 27.0101 27.3947C26.9674 27.8796 27.0604 28.3669 27.2787 28.802C27.4969 29.2371 27.8319 29.603 28.2461 29.8587C28.6603 30.1144 29.1375 30.2499 29.6243 30.25Z" fill="white"/>
<path d="M52.5 37.375C52.6989 37.375 52.8897 37.296 53.0303 37.1553C53.171 37.0147 53.25 36.8239 53.25 36.625V28.375H69.8588C70.0389 28.9793 70.4305 29.4985 70.962 29.8377C71.4935 30.1769 72.1294 30.3135 72.7533 30.2225C73.3772 30.1315 73.9475 29.8189 74.36 29.342C74.7724 28.865 74.9993 28.2555 74.9993 27.625C74.9993 26.9945 74.7724 26.385 74.36 25.9081C73.9475 25.4311 73.3772 25.1185 72.7533 25.0275C72.1294 24.9365 71.4935 25.0731 70.962 25.4123C70.4305 25.7515 70.0389 26.2708 69.8588 26.875H52.5C52.3011 26.875 52.1103 26.954 51.9697 27.0947C51.829 27.2353 51.75 27.4261 51.75 27.625V36.625C51.75 36.8239 51.829 37.0147 51.9697 37.1553C52.1103 37.296 52.3011 37.375 52.5 37.375Z" fill="white"/>
<path d="M46.4993 37.375C46.6982 37.375 46.889 37.296 47.0297 37.1553C47.1703 37.0147 47.2493 36.8239 47.2493 36.625V34C47.2493 33.8011 47.1703 33.6103 47.0297 33.4697C46.889 33.329 46.6982 33.25 46.4993 33.25H38.5156C38.3354 32.6458 37.9438 32.1265 37.4123 31.7873C36.8808 31.4481 36.245 31.3115 35.621 31.4025C34.9971 31.4935 34.4268 31.8061 34.0144 32.2831C33.602 32.76 33.375 33.3695 33.375 34C33.375 34.6305 33.602 35.24 34.0144 35.717C34.4268 36.1939 34.9971 36.5065 35.621 36.5975C36.245 36.6885 36.8808 36.5519 37.4123 36.2127C37.9438 35.8735 38.3354 35.3543 38.5156 34.75H45.7493V36.625C45.7493 36.8239 45.8283 37.0147 45.969 37.1553C46.1096 37.296 46.3004 37.375 46.4993 37.375Z" fill="white"/>
<path d="M66 36.625C66.4868 36.6249 66.964 36.4894 67.3782 36.2337C67.7924 35.978 68.1274 35.6121 68.3457 35.177C68.5639 34.7419 68.6569 34.2546 68.6142 33.7697C68.5715 33.2848 68.3948 32.8213 68.1038 32.431C67.8128 32.0407 67.4191 31.739 66.9665 31.5597C66.514 31.3803 66.0205 31.3303 65.5411 31.4153C65.0618 31.5003 64.6155 31.7169 64.2522 32.0409C63.8889 32.3648 63.6228 32.7835 63.4838 33.25H55.5C55.3011 33.25 55.1103 33.329 54.9697 33.4697C54.829 33.6103 54.75 33.8011 54.75 34V36.625C54.75 36.8239 54.829 37.0147 54.9697 37.1553C55.1103 37.296 55.3011 37.375 55.5 37.375C55.6989 37.375 55.8897 37.296 56.0303 37.1553C56.171 37.0147 56.25 36.8239 56.25 36.625V34.75H63.4838C63.6453 35.2918 63.9775 35.767 64.4309 36.1049C64.8842 36.4427 65.4346 36.6251 66 36.625Z" fill="white"/>
<path d="M49.4993 60.625C49.3004 60.625 49.1096 60.704 48.969 60.8447C48.8283 60.9853 48.7493 61.1761 48.7493 61.375V69.625H32.1406C31.9604 69.0208 31.5688 68.5015 31.0373 68.1623C30.5058 67.8231 29.87 67.6865 29.246 67.7775C28.6221 67.8685 28.0518 68.1811 27.6394 68.6581C27.227 69.135 27 69.7445 27 70.375C27 71.0055 27.227 71.615 27.6394 72.0919C28.0518 72.5689 28.6221 72.8815 29.246 72.9725C29.87 73.0635 30.5058 72.9269 31.0373 72.5877C31.5688 72.2485 31.9604 71.7292 32.1406 71.125H49.4993C49.6982 71.125 49.889 71.046 50.0297 70.9053C50.1703 70.7647 50.2493 70.5739 50.2493 70.375V61.375C50.2493 61.1761 50.1703 60.9853 50.0297 60.8447C49.889 60.704 49.6982 60.625 49.4993 60.625Z" fill="white"/>
<path d="M72.375 67.75C71.8096 67.7499 71.2592 67.9323 70.8059 68.2701C70.3525 68.608 70.0203 69.0832 69.8588 69.625H53.25V61.375C53.25 61.1761 53.171 60.9853 53.0303 60.8447C52.8897 60.704 52.6989 60.625 52.5 60.625C52.3011 60.625 52.1103 60.704 51.9697 60.8447C51.829 60.9853 51.75 61.1761 51.75 61.375V70.375C51.75 70.5739 51.829 70.7647 51.9697 70.9053C52.1103 71.046 52.3011 71.125 52.5 71.125H69.8588C69.9978 71.5915 70.2639 72.0102 70.6272 72.3341C70.9905 72.6581 71.4368 72.8747 71.9161 72.9597C72.3955 73.0447 72.889 72.9947 73.3415 72.8153C73.7941 72.636 74.1878 72.3343 74.4788 71.944C74.7698 71.5537 74.9465 71.0902 74.9892 70.6053C75.0319 70.1204 74.9389 69.6331 74.7207 69.198C74.5024 68.7629 74.1674 68.397 73.7532 68.1413C73.339 67.8856 72.8618 67.7501 72.375 67.75Z" fill="white"/>
<path d="M35.9993 61.375C35.5125 61.3751 35.0353 61.5106 34.6211 61.7663C34.2069 62.022 33.8719 62.3879 33.6537 62.823C33.4354 63.2581 33.3424 63.7454 33.3851 64.2303C33.4278 64.7152 33.6046 65.1787 33.8955 65.569C34.1865 65.9593 34.5803 66.261 35.0328 66.4403C35.4854 66.6197 35.9789 66.6697 36.4582 66.5847C36.9375 66.4997 37.3838 66.2831 37.7471 65.9591C38.1104 65.6352 38.3765 65.2165 38.5156 64.75H46.4993C46.6982 64.75 46.889 64.671 47.0297 64.5303C47.1703 64.3897 47.2493 64.1989 47.2493 64V61.375C47.2493 61.1761 47.1703 60.9853 47.0297 60.8447C46.889 60.704 46.6982 60.625 46.4993 60.625C46.3004 60.625 46.1096 60.704 45.969 60.8447C45.8283 60.9853 45.7493 61.1761 45.7493 61.375V63.25H38.5156C38.354 62.7082 38.0219 62.233 37.5685 61.8951C37.1151 61.5573 36.5647 61.3749 35.9993 61.375Z" fill="white"/>
<path d="M55.5 60.625C55.3011 60.625 55.1103 60.704 54.9697 60.8447C54.829 60.9853 54.75 61.1761 54.75 61.375V64C54.75 64.1989 54.829 64.3897 54.9697 64.5303C55.1103 64.671 55.3011 64.75 55.5 64.75H63.4838C63.6639 65.3542 64.0555 65.8735 64.587 66.2127C65.1185 66.5519 65.7544 66.6885 66.3783 66.5975C67.0022 66.5065 67.5725 66.1939 67.985 65.7169C68.3974 65.24 68.6243 64.6305 68.6243 64C68.6243 63.3695 68.3974 62.76 67.985 62.2831C67.5725 61.8061 67.0022 61.4935 66.3783 61.4025C65.7544 61.3115 65.1185 61.4481 64.587 61.7873C64.0555 62.1265 63.6639 62.6458 63.4838 63.25H56.25V61.375C56.25 61.1761 56.171 60.9853 56.0303 60.8447C55.8897 60.704 55.6989 60.625 55.5 60.625Z" fill="white"/>
<path d="M29.6243 46C30.1897 46.0001 30.7401 45.8177 31.1935 45.4799C31.6469 45.142 31.979 44.6668 32.1406 44.125H37.1243V47.125C37.1243 47.3239 37.2033 47.5147 37.344 47.6553C37.4846 47.796 37.6754 47.875 37.8743 47.875H40.8743C41.0732 47.875 41.264 47.796 41.4047 47.6553C41.5453 47.5147 41.6243 47.3239 41.6243 47.125C41.6243 46.9261 41.5453 46.7353 41.4047 46.5947C41.264 46.454 41.0732 46.375 40.8743 46.375H38.6243V43.375C38.6243 43.1761 38.5453 42.9853 38.4047 42.8447C38.264 42.704 38.0732 42.625 37.8743 42.625H32.1406C32.0015 42.1585 31.7354 41.7398 31.3721 41.4159C31.0088 41.0919 30.5625 40.8753 30.0832 40.7903C29.6039 40.7053 29.1104 40.7553 28.6578 40.9347C28.2053 41.114 27.8115 41.4157 27.5205 41.806C27.2296 42.1963 27.0528 42.6598 27.0101 43.1447C26.9674 43.6296 27.0604 44.1169 27.2787 44.552C27.4969 44.9871 27.8319 45.353 28.2461 45.6087C28.6603 45.8644 29.1375 45.9999 29.6243 46Z" fill="white"/>
<path d="M29.6243 57.25C30.1897 57.2501 30.7401 57.0677 31.1935 56.7299C31.6469 56.392 31.979 55.9168 32.1406 55.375H37.8743C38.0732 55.375 38.264 55.296 38.4047 55.1553C38.5453 55.0147 38.6243 54.8239 38.6243 54.625V51.625H40.8743C41.0732 51.625 41.264 51.546 41.4047 51.4053C41.5453 51.2647 41.6243 51.0739 41.6243 50.875C41.6243 50.6761 41.5453 50.4853 41.4047 50.3447C41.264 50.204 41.0732 50.125 40.8743 50.125H37.8743C37.6754 50.125 37.4846 50.204 37.344 50.3447C37.2033 50.4853 37.1243 50.6761 37.1243 50.875V53.875H32.1406C32.0015 53.4085 31.7354 52.9898 31.3721 52.6659C31.0088 52.3419 30.5625 52.1253 30.0832 52.0403C29.6039 51.9553 29.1104 52.0053 28.6578 52.1847C28.2053 52.364 27.8115 52.6657 27.5205 53.056C27.2296 53.4463 27.0528 53.9098 27.0101 54.3947C26.9674 54.8796 27.0604 55.3669 27.2787 55.802C27.4969 56.2371 27.8319 56.603 28.2461 56.8587C28.6603 57.1144 29.1375 57.2499 29.6243 57.25Z" fill="white"/>
<path d="M72.375 40.75C71.8096 40.7499 71.2592 40.9323 70.8059 41.2701C70.3525 41.608 70.0203 42.0832 69.8588 42.625H64.125C63.9261 42.625 63.7353 42.704 63.5947 42.8447C63.454 42.9853 63.375 43.1761 63.375 43.375V46.375H61.125C60.9261 46.375 60.7353 46.454 60.5947 46.5947C60.454 46.7353 60.375 46.9261 60.375 47.125C60.375 47.3239 60.454 47.5147 60.5947 47.6553C60.7353 47.796 60.9261 47.875 61.125 47.875H64.125C64.3239 47.875 64.5147 47.796 64.6553 47.6553C64.796 47.5147 64.875 47.3239 64.875 47.125V44.125H69.8588C69.9978 44.5915 70.2639 45.0102 70.6272 45.3341C70.9905 45.6581 71.4368 45.8747 71.9161 45.9597C72.3955 46.0447 72.889 45.9947 73.3415 45.8153C73.7941 45.636 74.1878 45.3343 74.4788 44.944C74.7698 44.5537 74.9465 44.0902 74.9892 43.6053C75.0319 43.1204 74.9389 42.6331 74.7207 42.198C74.5024 41.7629 74.1674 41.397 73.7532 41.1413C73.339 40.8856 72.8618 40.7501 72.375 40.75Z" fill="white"/>
<path d="M72.375 52C71.8096 51.9999 71.2592 52.1823 70.8059 52.5201C70.3525 52.858 70.0203 53.3332 69.8588 53.875H64.875V50.875C64.875 50.6761 64.796 50.4853 64.6553 50.3447C64.5147 50.204 64.3239 50.125 64.125 50.125H61.125C60.9261 50.125 60.7353 50.204 60.5947 50.3447C60.454 50.4853 60.375 50.6761 60.375 50.875C60.375 51.0739 60.454 51.2647 60.5947 51.4053C60.7353 51.546 60.9261 51.625 61.125 51.625H63.375V54.625C63.375 54.8239 63.454 55.0147 63.5947 55.1553C63.7353 55.296 63.9261 55.375 64.125 55.375H69.8588C69.9978 55.8415 70.2639 56.2602 70.6272 56.5841C70.9905 56.9081 71.4368 57.1247 71.9161 57.2097C72.3955 57.2947 72.889 57.2447 73.3415 57.0653C73.7941 56.886 74.1878 56.5843 74.4788 56.194C74.7698 55.8037 74.9465 55.3402 74.9892 54.8553C75.0319 54.3704 74.9389 53.8831 74.7207 53.448C74.5024 53.0129 74.1674 52.647 73.7532 52.3913C73.339 52.1356 72.8618 52.0001 72.375 52Z" fill="white"/>
</g>
<defs>
<filter id="filter0_d_3108_16886" x="0" y="6" width="102" height="106" filterUnits="userSpaceOnUse" color-interpolation-filters="sRGB">
<feFlood flood-opacity="0" result="BackgroundImageFix"/>
<feColorMatrix in="SourceAlpha" type="matrix" values="0 0 0 0 0 0 0 0 0 0 0 0 0 0 0 0 0 0 127 0" result="hardAlpha"/>
<feOffset dy="12"/>
<feGaussianBlur stdDeviation="4"/>
<feComposite in2="hardAlpha" operator="out"/>
<feColorMatrix type="matrix" values="0 0 0 0 0 0 0 0 0 0 0 0 0 0 0 0 0 0 0.5 0"/>
<feBlend mode="normal" in2="BackgroundImageFix" result="effect1_dropShadow_3108_16886"/>
<feBlend mode="normal" in="SourceGraphic" in2="effect1_dropShadow_3108_16886" result="shape"/>
</filter>
<clipPath id="clip0_3108_16886">
<rect width="48" height="48" fill="white" transform="translate(27 25)"/>
</clipPath>
</defs>
</svg>
