<svg width="32" height="32" viewBox="0 0 32 32" fill="none" xmlns="http://www.w3.org/2000/svg">
<circle cx="16" cy="16" r="16" fill="black"/>
<path d="M9.91893 19.7908C10.0298 19.6799 10.1823 19.6152 10.344 19.6152H25.0073C25.2752 19.6152 25.4092 19.9386 25.2198 20.128L22.3232 23.0247C22.2123 23.1355 22.0598 23.2002 21.8981 23.2002H7.23481C6.96686 23.2002 6.83289 22.8768 7.0223 22.6874L9.91893 19.7908Z" fill="url(#paint0_linear_3542_8863)"/>
<path d="M9.91893 8.97633C10.0344 8.86546 10.1869 8.80078 10.344 8.80078H25.0073C25.2752 8.80078 25.4092 9.12417 25.2198 9.31358L22.3232 12.2102C22.2123 12.3211 22.0598 12.3858 21.8981 12.3858H7.23481C6.96686 12.3858 6.83289 12.0624 7.0223 11.873L9.91893 8.97633Z" fill="url(#paint1_linear_3542_8863)"/>
<path d="M22.3232 14.3494C22.2123 14.2385 22.0598 14.1738 21.8981 14.1738H7.23481C6.96686 14.1738 6.83289 14.4972 7.0223 14.6866L9.91893 17.5833C10.0298 17.6941 10.1823 17.7588 10.344 17.7588H25.0073C25.2752 17.7588 25.4092 17.4354 25.2198 17.246L22.3232 14.3494Z" fill="url(#paint2_linear_3542_8863)"/>
<defs>
<linearGradient id="paint0_linear_3542_8863" x1="-26.2081" y1="6.07988" x2="-26.5982" y2="25.7117" gradientUnits="userSpaceOnUse">
<stop stop-color="#00FFA3"/>
<stop offset="1" stop-color="#DC1FFF"/>
</linearGradient>
<linearGradient id="paint1_linear_3542_8863" x1="-30.6454" y1="3.76378" x2="-31.0356" y2="23.3956" gradientUnits="userSpaceOnUse">
<stop stop-color="#00FFA3"/>
<stop offset="1" stop-color="#DC1FFF"/>
</linearGradient>
<linearGradient id="paint2_linear_3542_8863" x1="-28.4409" y1="4.91492" x2="-28.831" y2="24.5467" gradientUnits="userSpaceOnUse">
<stop stop-color="#00FFA3"/>
<stop offset="1" stop-color="#DC1FFF"/>
</linearGradient>
</defs>
</svg>
