<svg width="122" height="125" viewBox="0 0 122 125" fill="none" xmlns="http://www.w3.org/2000/svg">
<path d="M118.309 25.582C119.818 25.582 121.043 26.807 121.043 28.3164C121.043 29.8258 119.818 31.0508 118.309 31.0508C116.8 31.0508 115.575 29.8258 115.575 28.3164C115.575 26.807 116.8 25.582 118.309 25.582Z" fill="#C4CBF5"/>
<path d="M118.309 96.6758C119.818 96.6758 121.043 97.9008 121.043 99.4102C121.043 100.92 119.818 102.145 118.309 102.145C116.8 102.145 115.575 100.92 115.575 99.4102C115.575 97.9008 116.8 96.6758 118.309 96.6758Z" fill="#C4CBF5"/>
<path d="M104.637 113.082C107.659 113.082 110.106 115.529 110.106 118.551C110.106 121.572 107.659 124.02 104.637 124.02C101.616 124.02 99.1685 121.572 99.1685 118.551C99.1685 115.529 101.616 113.082 104.637 113.082Z" fill="#C8EA80"/>
<path d="M99.1685 0.972656C100.678 0.972656 101.903 2.19766 101.903 3.70703C101.903 5.21641 100.678 6.44141 99.1685 6.44141C97.6591 6.44141 96.4341 5.21641 96.4341 3.70703C96.4341 2.19766 97.6591 0.972656 99.1685 0.972656Z" fill="#C4CBF5"/>
<path d="M60.8872 9.17578C30.6833 9.17578 6.19971 33.6594 6.19971 63.8633C6.19971 94.0672 30.6833 118.551 60.8872 118.551C91.0911 118.551 115.575 94.0672 115.575 63.8633C115.575 33.6594 91.0911 9.17578 60.8872 9.17578Z" fill="url(#paint0_linear_3285_23609)"/>
<path d="M61 20C36.6988 20 17 39.6988 17 64C17 88.3012 36.6988 108 61 108C85.3012 108 105 88.3012 105 64C105 39.6988 85.3012 20 61 20Z" fill="#C8EA80"/>
<path d="M60.8872 104.879C38.2356 104.879 19.8716 86.5148 19.8716 63.8633C19.8716 41.2117 38.2356 22.8477 60.8872 22.8477C83.5388 22.8477 101.903 41.2117 101.903 63.8633C101.903 86.5148 83.5388 104.879 60.8872 104.879Z" fill="white"/>
<path d="M81.217 50.9354C83.3528 53.0709 83.3528 56.5326 81.217 58.6682L61.8822 78.0057L54.1494 85.7385L46.4139 78.0057L40.6143 72.2033C39.5481 71.1369 39.0122 69.7369 39.0122 68.3369C39.0122 66.9369 39.5481 65.5369 40.6143 64.4702C42.7501 62.3347 46.2118 62.3347 48.3471 64.4702L54.1494 70.2698L73.4845 50.9354C74.5536 49.8689 75.9509 49.333 77.3509 49.333C78.7509 49.333 80.1481 49.8689 81.217 50.9354Z" fill="#2EF2FF"/>
<path d="M43 67L54 78L78 54" stroke="url(#paint1_linear_3285_23609)" stroke-linecap="round"/>
<path d="M19.8716 118.551C21.381 118.551 22.606 119.776 22.606 121.285C22.606 122.795 21.381 124.02 19.8716 124.02C18.3619 124.02 17.1372 122.795 17.1372 121.285C17.1372 119.776 18.3619 118.551 19.8716 118.551Z" fill="#C4CBF5"/>
<path d="M13.0356 6.44141C16.8118 6.44141 19.8716 9.50117 19.8716 13.2773C19.8716 17.0535 16.8118 20.1133 13.0356 20.1133C9.2592 20.1133 6.19971 17.0535 6.19971 13.2773C6.19971 9.50117 9.2592 6.44141 13.0356 6.44141Z" fill="#C8EA80"/>
<path d="M3.46533 28.3164C4.97471 28.3164 6.19971 29.5414 6.19971 31.0508C6.19971 32.5602 4.97471 33.7852 3.46533 33.7852C1.95568 33.7852 0.730957 32.5602 0.730957 31.0508C0.730957 29.5414 1.95568 28.3164 3.46533 28.3164Z" fill="#C4CBF5"/>
<path d="M3.46533 96.6758C4.97471 96.6758 6.19971 97.9008 6.19971 99.4102C6.19971 100.92 4.97471 102.145 3.46533 102.145C1.95568 102.145 0.730957 100.92 0.730957 99.4102C0.730957 97.9008 1.95568 96.6758 3.46533 96.6758Z" fill="#C4CBF5"/>
<path d="M93.6997 63.8633C93.6997 62.3531 92.4753 61.1289 90.9653 61.1289C89.4554 61.1289 88.231 62.3531 88.231 63.8633C88.231 78.9409 75.9648 91.207 60.8872 91.207C59.377 91.207 58.1528 92.4315 58.1528 93.9414V104.786C59.0568 104.846 59.9682 104.879 60.8872 104.879C61.8062 104.879 62.7173 104.846 63.6216 104.786V96.5629C80.4396 95.1686 93.6997 81.0352 93.6997 63.8633Z" fill="#C4CBF5"/>
<path d="M28.0747 63.8633C28.0747 65.3732 29.2989 66.5977 30.8091 66.5977C32.319 66.5977 33.5435 65.3732 33.5435 63.8633C33.5435 48.7859 45.8096 36.5195 60.8872 36.5195C62.3971 36.5195 63.6216 35.2954 63.6216 33.7852V22.9406C62.7173 22.881 61.8062 22.8477 60.8872 22.8477C59.9682 22.8477 59.0568 22.881 58.1528 22.9406V31.1637C41.3348 32.558 28.0747 46.6914 28.0747 63.8633Z" fill="#C4CBF5"/>
<defs>
<linearGradient id="paint0_linear_3285_23609" x1="60.8872" y1="9.17578" x2="60.8872" y2="118.551" gradientUnits="userSpaceOnUse">
<stop stop-color="#3C52D8"/>
<stop offset="1" stop-color="#0D193B"/>
</linearGradient>
<linearGradient id="paint1_linear_3285_23609" x1="60.5" y1="54" x2="60.5" y2="78" gradientUnits="userSpaceOnUse">
<stop stop-color="#3C52D8"/>
<stop offset="1" stop-color="#0D193B"/>
</linearGradient>
</defs>
</svg>
