<svg width="102" height="112" viewBox="0 0 102 112" fill="none" xmlns="http://www.w3.org/2000/svg">
<circle cx="51" cy="49" r="48.5" stroke="#253688" stroke-dasharray="2 2"/>
<g filter="url(#filter0_d_3108_16829)">
<circle cx="51" cy="49" r="43" fill="#131D4E"/>
<circle cx="51" cy="49" r="42.5" stroke="#253688"/>
</g>
<path d="M48.375 29.5C48.7892 29.5 49.125 29.1642 49.125 28.75C49.125 28.3358 48.7892 28 48.375 28C47.9608 28 47.625 28.3358 47.625 28.75C47.625 29.1642 47.9608 29.5 48.375 29.5Z" fill="white"/>
<path d="M41.25 38.125C41.25 39.5342 41.6679 40.9117 42.4508 42.0834C43.2337 43.2551 44.3465 44.1684 45.6484 44.7076C46.9503 45.2469 48.3829 45.388 49.765 45.1131C51.1471 44.8382 52.4167 44.1596 53.4131 43.1631C54.4096 42.1667 55.0882 40.8971 55.3631 39.515C55.638 38.1329 55.4969 36.7003 54.9576 35.3984C54.4184 34.0965 53.5051 32.9837 52.3334 32.2008C51.1617 31.4179 49.7842 31 48.375 31C46.486 31.0021 44.675 31.7535 43.3392 33.0892C42.0035 34.425 41.2521 36.236 41.25 38.125ZM48.375 32.5C49.4875 32.5 50.5751 32.8299 51.5001 33.448C52.4251 34.0661 53.1461 34.9446 53.5718 35.9724C53.9976 37.0002 54.109 38.1312 53.8919 39.2224C53.6749 40.3135 53.1391 41.3158 52.3525 42.1025C51.5658 42.8891 50.5635 43.4249 49.4724 43.6419C48.3812 43.859 47.2502 43.7476 46.2224 43.3218C45.1946 42.8961 44.3161 42.1751 43.698 41.2501C43.0799 40.3251 42.75 39.2375 42.75 38.125C42.7517 36.6337 43.3448 35.2039 44.3994 34.1494C45.4539 33.0948 46.8837 32.5017 48.375 32.5Z" fill="white"/>
<path d="M48.1358 38.6901C48.5445 38.804 48.9304 38.9116 49.0595 39.12C49.0985 39.1774 49.1209 39.2446 49.124 39.314C49.1271 39.3833 49.111 39.4522 49.0773 39.5129C48.9229 39.7437 48.4622 39.7986 48.1081 39.7338C47.9699 39.7046 47.8406 39.6434 47.7304 39.5551C47.6528 39.4944 47.564 39.4495 47.4691 39.4232C47.3742 39.3968 47.2751 39.3893 47.1773 39.4013C47.0796 39.4132 46.9851 39.4443 46.8993 39.4927C46.8136 39.5412 46.7382 39.606 46.6775 39.6836C46.6168 39.7612 46.572 39.8499 46.5456 39.9448C46.5192 40.0397 46.5118 40.1389 46.5237 40.2366C46.5357 40.3344 46.5667 40.4289 46.6152 40.5146C46.6636 40.6004 46.7285 40.6758 46.8061 40.7365C47.0563 40.9322 47.3427 41.0767 47.6489 41.1615V41.5C47.6489 41.6989 47.7279 41.8897 47.8686 42.0303C48.0092 42.171 48.2 42.25 48.3989 42.25C48.5978 42.25 48.7886 42.171 48.9292 42.0303C49.0699 41.8897 49.1489 41.6989 49.1489 41.5V41.1574C49.6269 41.04 50.0451 40.7513 50.3244 40.3461C50.5189 40.0463 50.6233 39.6969 50.6251 39.3396C50.6269 38.9822 50.5261 38.6318 50.3347 38.3301C49.8974 37.624 49.1439 37.4138 48.5382 37.2454C47.9763 37.0886 47.7038 36.9916 47.6348 36.7814C47.5804 36.6136 47.8109 36.4756 47.904 36.4368C48.0795 36.3723 48.2677 36.3497 48.4535 36.3706C48.6393 36.3915 48.8177 36.4554 48.9746 36.5572C49.0578 36.6107 49.1507 36.6472 49.2481 36.6646C49.3454 36.682 49.4453 36.68 49.5419 36.6586C49.6384 36.6373 49.7298 36.5971 49.8108 36.5403C49.8917 36.4835 49.9607 36.4112 50.0136 36.3277C50.0665 36.2441 50.1024 36.1509 50.1192 36.0535C50.136 35.956 50.1333 35.8562 50.1113 35.7597C50.0894 35.6633 50.0485 35.5722 49.9912 35.4916C49.9339 35.411 49.8612 35.3425 49.7773 35.2901C49.6415 35.206 49.4986 35.134 49.3501 35.0749V34.75C49.3501 34.5511 49.2711 34.3603 49.1305 34.2197C48.9898 34.079 48.799 34 48.6001 34C48.4012 34 48.2105 34.079 48.0698 34.2197C47.9291 34.3603 47.8501 34.5511 47.8501 34.75V34.9046C47.6705 34.9343 47.4947 34.9839 47.3261 35.0525C46.894 35.2052 46.5372 35.5182 46.3293 35.9265C46.1214 36.3349 46.0783 36.8076 46.209 37.2468C46.5365 38.2444 47.4608 38.5022 48.1358 38.6901Z" fill="white"/>
<path d="M58.125 53.5C58.125 53.3011 58.046 53.1103 57.9053 52.9697C57.7647 52.829 57.5739 52.75 57.375 52.75C57.1761 52.75 56.9853 52.829 56.8447 52.9697C56.704 53.1103 56.625 53.3011 56.625 53.5C56.6248 53.6988 56.5457 53.8895 56.4051 54.0301C56.2645 54.1707 56.0738 54.2498 55.875 54.25H40.5C40.3012 54.2498 40.1105 54.1707 39.9699 54.0301C39.8293 53.8895 39.7502 53.6988 39.75 53.5C39.75 53.3011 39.671 53.1103 39.5303 52.9697C39.3897 52.829 39.1989 52.75 39 52.75C38.8011 52.75 38.6103 52.829 38.4697 52.9697C38.329 53.1103 38.25 53.3011 38.25 53.5C38.2507 54.0965 38.4879 54.6685 38.9097 55.0903C39.3315 55.5121 39.9035 55.7493 40.5 55.75H55.875C56.4715 55.7493 57.0435 55.5121 57.4653 55.0903C57.8871 54.6685 58.1243 54.0965 58.125 53.5Z" fill="white"/>
<path d="M46.875 70V68.5H46.5C46.3011 68.5 46.1103 68.579 45.9697 68.7197C45.829 68.8603 45.75 69.0511 45.75 69.25C45.75 69.4489 45.829 69.6397 45.9697 69.7803C46.1103 69.921 46.3011 70 46.5 70H46.875Z" fill="white"/>
<path d="M50.625 73H69.75C70.3465 72.9993 70.9185 72.7621 71.3403 72.3403C71.7621 71.9185 71.9993 71.3465 72 70.75V59.5C71.9993 58.9035 71.7621 58.3315 71.3403 57.9097C70.9185 57.4879 70.3465 57.2507 69.75 57.25H50.625C50.0285 57.2507 49.4565 57.4879 49.0347 57.9097C48.6129 58.3315 48.3757 58.9035 48.375 59.5V70.75C48.3757 71.3465 48.6129 71.9185 49.0347 72.3403C49.4565 72.7621 50.0285 72.9993 50.625 73ZM49.875 59.5C49.8752 59.3012 49.9543 59.1105 50.0949 58.9699C50.2355 58.8293 50.4262 58.7502 50.625 58.75H69.75C69.9488 58.7502 70.1395 58.8293 70.2801 58.9699C70.4207 59.1105 70.4998 59.3012 70.5 59.5V61H49.875V59.5ZM49.875 62.5H70.5V64H49.875V62.5ZM49.875 65.5H70.5V70.75C70.4998 70.9488 70.4207 71.1395 70.2801 71.2801C70.1395 71.4207 69.9488 71.4998 69.75 71.5H50.625C50.4262 71.4998 50.2355 71.4207 50.0949 71.2801C49.9543 71.1395 49.8752 70.9488 49.875 70.75V65.5Z" fill="white"/>
<path d="M42.498 73H47.6319C47.2957 72.5571 47.0628 72.0446 46.9503 71.5H43.893C43.5632 72.1105 43.0831 72.6268 42.498 73Z" fill="white"/>
<path d="M58.5 25H38.25C37.4546 25.0009 36.6921 25.3173 36.1297 25.8797C35.5673 26.4421 35.2509 27.2046 35.25 28V58.039C35.623 58.0131 35.9991 58 36.375 58C36.5 58 36.625 58.0014 36.75 58.0043V28C36.7504 27.6023 36.9086 27.221 37.1898 26.9398C37.471 26.6586 37.8523 26.5004 38.25 26.5H58.5C58.8977 26.5004 59.279 26.6586 59.5602 26.9398C59.8414 27.221 59.9996 27.6023 60 28V55.75H61.5V28C61.4991 27.2046 61.1827 26.4421 60.6203 25.8797C60.0579 25.3173 59.2954 25.0009 58.5 25Z" fill="white"/>
<path d="M30.0157 62.3475C30.0053 62.3977 30 62.4488 30 62.5V70C30 71.9695 33.2071 73 36.375 73C39.5429 73 42.75 71.9695 42.75 70V62.5C42.75 62.4488 42.7447 62.3977 42.7343 62.3475C42.5705 60.4791 39.4586 59.5 36.375 59.5C33.2914 59.5 30.1795 60.4791 30.0157 62.3475ZM36.375 61C39.5914 61 41.25 62.0514 41.25 62.5C41.25 62.9486 39.5914 64 36.375 64C33.1586 64 31.5 62.9486 31.5 62.5C31.5 62.0514 33.1586 61 36.375 61ZM31.5 64.498C32.7302 65.1591 34.5575 65.5 36.375 65.5C38.1925 65.5 40.0198 65.1591 41.25 64.498V66.25C41.25 66.6986 39.5914 67.75 36.375 67.75C33.1586 67.75 31.5 66.6986 31.5 66.25V64.498ZM31.5 68.248C32.7302 68.9091 34.5575 69.25 36.375 69.25C38.1925 69.25 40.0198 68.9091 41.25 68.248V70C41.25 70.4486 39.5914 71.5 36.375 71.5C33.1586 71.5 31.5 70.4486 31.5 70V68.248Z" fill="white"/>
<path d="M40.5 48.25V52C40.5 52.1989 40.579 52.3897 40.7197 52.5303C40.8603 52.671 41.0511 52.75 41.25 52.75C41.4489 52.75 41.6397 52.671 41.7803 52.5303C41.921 52.3897 42 52.1989 42 52V50.9867H43.125C43.6221 50.9861 44.0987 50.7884 44.4502 50.4369C44.8017 50.0854 44.9994 49.6088 45 49.1117V48.625C44.9994 48.1279 44.8017 47.6513 44.4502 47.2998C44.0987 46.9483 43.6221 46.7506 43.125 46.75H42C41.6023 46.7504 41.221 46.9086 40.9398 47.1898C40.6586 47.471 40.5004 47.8523 40.5 48.25ZM42 48.25H43.125C43.2244 48.2501 43.3198 48.2896 43.3901 48.3599C43.4604 48.4302 43.4999 48.5256 43.5 48.625V49.1117C43.4999 49.2111 43.4604 49.3064 43.3901 49.3767C43.3198 49.4471 43.2244 49.4866 43.125 49.4867H42V48.25Z" fill="white"/>
<path d="M50.25 52.75C50.4489 52.75 50.6397 52.671 50.7803 52.5303C50.921 52.3897 51 52.1989 51 52V49C51 48.4033 50.7629 47.831 50.341 47.409C49.919 46.9871 49.3467 46.75 48.75 46.75C48.1533 46.75 47.581 46.9871 47.159 47.409C46.7371 47.831 46.5 48.4033 46.5 49V52C46.5 52.1989 46.579 52.3897 46.7197 52.5303C46.8603 52.671 47.0511 52.75 47.25 52.75C47.4489 52.75 47.6397 52.671 47.7803 52.5303C47.921 52.3897 48 52.1989 48 52V50.875H49.5V52C49.5 52.1989 49.579 52.3897 49.7197 52.5303C49.8603 52.671 50.0511 52.75 50.25 52.75ZM48 49.375V49C48 48.8011 48.079 48.6103 48.2197 48.4697C48.3603 48.329 48.5511 48.25 48.75 48.25C48.9489 48.25 49.1397 48.329 49.2803 48.4697C49.421 48.6103 49.5 48.8011 49.5 49V49.375H48Z" fill="white"/>
<path d="M52.8641 52.643C52.9486 52.6937 53.0422 52.7272 53.1396 52.7417C53.237 52.7562 53.3363 52.7514 53.4318 52.7276C53.5274 52.7037 53.6173 52.6612 53.6964 52.6026C53.7755 52.544 53.8423 52.4703 53.893 52.3859L56.143 48.6359C56.2454 48.4654 56.2758 48.2611 56.2276 48.0681C56.1794 47.8751 56.0565 47.7092 55.8859 47.6068C55.7154 47.5045 55.5111 47.4741 55.3181 47.5223C55.1252 47.5705 54.9592 47.6934 54.8569 47.8639L54.3907 48.6409L53.5261 47.1279C53.4274 46.9552 53.2641 46.8288 53.0723 46.7764C52.8804 46.7241 52.6756 46.7501 52.5029 46.8488C52.3302 46.9475 52.2038 47.1107 52.1514 47.3026C52.0991 47.4945 52.1251 47.6993 52.2238 47.872L53.5059 50.1156L52.6069 51.6139C52.5562 51.6984 52.5226 51.792 52.5081 51.8894C52.4936 51.9869 52.4985 52.0862 52.5224 52.1817C52.5462 52.2773 52.5887 52.3672 52.6474 52.4464C52.706 52.5255 52.7797 52.5923 52.8641 52.643Z" fill="white"/>
<defs>
<filter id="filter0_d_3108_16829" x="0" y="6" width="102" height="106" filterUnits="userSpaceOnUse" color-interpolation-filters="sRGB">
<feFlood flood-opacity="0" result="BackgroundImageFix"/>
<feColorMatrix in="SourceAlpha" type="matrix" values="0 0 0 0 0 0 0 0 0 0 0 0 0 0 0 0 0 0 127 0" result="hardAlpha"/>
<feOffset dy="12"/>
<feGaussianBlur stdDeviation="4"/>
<feComposite in2="hardAlpha" operator="out"/>
<feColorMatrix type="matrix" values="0 0 0 0 0 0 0 0 0 0 0 0 0 0 0 0 0 0 0.5 0"/>
<feBlend mode="normal" in2="BackgroundImageFix" result="effect1_dropShadow_3108_16829"/>
<feBlend mode="normal" in="SourceGraphic" in2="effect1_dropShadow_3108_16829" result="shape"/>
</filter>
</defs>
</svg>
