<svg width="139" height="151" viewBox="0 0 139 151" fill="none" xmlns="http://www.w3.org/2000/svg">
<circle cx="69.5" cy="69.5" r="69" stroke="#253688" stroke-dasharray="2 2"/>
<g filter="url(#filter0_d_3108_16926)">
<circle cx="69.9898" cy="69.9898" r="60.9898" fill="#222F74"/>
<circle cx="69.9898" cy="69.9898" r="60.4898" stroke="url(#paint0_linear_3108_16926)"/>
</g>
<g clip-path="url(#clip0_3108_16926)">
<path d="M103.082 65.1996C102.856 65.5233 102.556 65.7878 102.207 65.9704C101.857 66.153 101.469 66.2485 101.075 66.2485C100.68 66.2485 100.292 66.1532 99.9426 65.9706C99.5931 65.788 99.293 65.5236 99.0679 65.1999L92.3729 55.5675C92.2426 55.38 92.1662 55.1604 92.1518 54.9325C92.1375 54.7047 92.1859 54.4772 92.2917 54.2749C92.3975 54.0726 92.5566 53.9031 92.7519 53.7848C92.9472 53.6665 93.1712 53.604 93.3995 53.604H95.8562C94.4457 39.7192 82.5829 35.1141 82.0629 34.9194C81.7791 34.8134 81.5435 34.6081 81.3998 34.3416C81.256 34.0751 81.2139 33.7654 81.2813 33.4701C81.3486 33.1749 81.5208 32.9141 81.766 32.7363C82.0111 32.5585 82.3124 32.4757 82.614 32.5033C100.514 34.1448 104.894 47.9176 105.937 53.604H108.75C108.978 53.604 109.202 53.6665 109.397 53.7848C109.593 53.9031 109.752 54.0726 109.858 54.2749C109.964 54.4772 110.012 54.7047 109.998 54.9325C109.983 55.1604 109.907 55.38 109.776 55.5675L103.082 65.1996ZM104.874 56.104C104.573 56.104 104.281 55.9951 104.054 55.7973C103.827 55.5995 103.678 55.3262 103.636 55.0276C102.981 50.3614 100.285 40.3345 89.229 36.4367C91.9893 38.6585 94.2411 41.4465 95.8323 44.6125C97.4235 47.7785 98.3173 51.249 98.4532 54.7898C98.4604 54.9587 98.4335 55.1274 98.3741 55.2857C98.3148 55.4441 98.2242 55.5889 98.1077 55.7115C97.9913 55.8341 97.8513 55.932 97.6963 55.9994C97.5412 56.0669 97.3742 56.1024 97.2051 56.104H95.7909L101.075 63.7063L106.359 56.104H104.874Z" fill="white"/>
<path d="M77.2988 96.5721L86.9308 89.8774C87.1183 89.747 87.3378 89.6705 87.5657 89.6561C87.7936 89.6418 88.021 89.6901 88.2234 89.7959C88.4258 89.9016 88.5953 90.0608 88.7135 90.2561C88.8318 90.4514 88.8943 90.6754 88.8943 90.9037V93.3607C102.779 91.9496 107.384 80.0866 107.579 79.5672C107.685 79.2834 107.89 79.0477 108.157 78.9039C108.423 78.76 108.733 78.7179 109.028 78.7852C109.323 78.8525 109.584 79.0248 109.762 79.2699C109.94 79.5151 110.022 79.8165 109.995 80.1181C108.354 98.0193 94.5809 102.398 88.8943 103.442V106.254C88.8942 106.483 88.8317 106.706 88.7134 106.902C88.5952 107.097 88.4258 107.256 88.2236 107.362C88.0204 107.465 87.7934 107.512 87.5661 107.498C87.3387 107.483 87.1194 107.408 86.9308 107.281L77.2988 100.586C76.9752 100.361 76.7108 100.061 76.5282 99.7114C76.3456 99.3619 76.2502 98.9734 76.2502 98.5791C76.2502 98.1848 76.3456 97.7964 76.5282 97.4469C76.7108 97.0975 76.9752 96.7973 77.2988 96.5721ZM86.3943 103.863V102.378C86.3943 102.077 86.5032 101.786 86.7011 101.558C86.8989 101.331 87.1724 101.182 87.471 101.141C92.1371 100.486 102.165 97.7904 106.062 86.7322C103.841 89.4929 101.053 91.745 97.8863 93.3365C94.7201 94.928 91.2494 95.8218 87.7084 95.9578C87.5397 95.9637 87.3716 95.936 87.2138 95.8761C87.056 95.8163 86.9117 95.7256 86.7893 95.6094C86.667 95.4931 86.569 95.3537 86.5012 95.1991C86.4334 95.0446 86.397 94.8781 86.3943 94.7093V93.2948L78.7918 98.579L86.3943 103.863Z" fill="white"/>
<path d="M30.2235 84.431L36.9185 74.7989C37.1436 74.4752 37.4436 74.2107 37.7931 74.0281C38.1425 73.8454 38.5309 73.75 38.9252 73.75C39.3195 73.75 39.7079 73.8453 40.0574 74.0279C40.4069 74.2105 40.707 74.4749 40.9321 74.7986L47.6271 84.431C47.7574 84.6185 47.8338 84.8381 47.8481 85.066C47.8625 85.2938 47.8141 85.5213 47.7083 85.7236C47.6025 85.9259 47.4433 86.0954 47.248 86.2137C47.0527 86.332 46.8288 86.3945 46.6005 86.3945H44.1438C45.5543 100.279 57.4171 104.884 57.9371 105.079C58.2206 105.185 58.4561 105.39 58.5999 105.656C58.7436 105.923 58.786 106.232 58.719 106.527C58.6462 106.82 58.4727 107.077 58.2289 107.254C57.985 107.431 57.6866 107.517 57.386 107.495C39.4862 105.854 35.1063 92.0809 34.0626 86.3945H31.2501C31.0218 86.3945 30.7978 86.332 30.6025 86.2137C30.4072 86.0954 30.2481 85.9259 30.1423 85.7236C30.0365 85.5213 29.9881 85.2938 30.0024 85.066C30.0168 84.8381 30.0932 84.6185 30.2235 84.431ZM35.1258 83.8945C35.4273 83.8945 35.7186 84.0034 35.946 84.2012C36.1735 84.399 36.3218 84.6723 36.3636 84.9708C37.0185 89.637 39.7151 99.664 50.771 103.562C48.0106 101.34 45.7589 98.552 44.1677 95.386C42.5764 92.2199 41.6827 88.7494 41.5467 85.2086C41.5398 85.0397 41.5668 84.8711 41.6263 84.7129C41.6857 84.5546 41.7763 84.4099 41.8927 84.2874C42.0091 84.1648 42.149 84.0669 42.304 83.9994C42.4589 83.9319 42.6259 83.8962 42.7949 83.8945H44.2091L38.9253 76.2921L33.6415 83.8945L35.1258 83.8945Z" fill="white"/>
<path d="M90.9183 68.4748C90.5902 68.5153 90.2592 68.4254 89.9968 68.2244C89.7343 68.0233 89.5613 67.7273 89.5151 67.3999C89.4888 67.2055 89.4599 67.0119 89.4284 66.8192C89.401 66.6568 89.406 66.4906 89.443 66.3302C89.48 66.1698 89.5484 66.0183 89.6441 65.8843C89.7399 65.7504 89.8612 65.6367 90.001 65.5498C90.1408 65.4628 90.2964 65.4044 90.4589 65.3778C90.6214 65.3512 90.7875 65.3569 90.9478 65.3947C91.108 65.4325 91.2592 65.5015 91.3927 65.5979C91.5262 65.6943 91.6393 65.8161 91.7256 65.9564C91.8118 66.0966 91.8696 66.2525 91.8954 66.4151C91.9308 66.6327 91.9644 66.8515 91.9931 67.0715C92.0146 67.2342 92.004 67.3996 91.9616 67.5582C91.9193 67.7168 91.8461 67.8655 91.7463 67.9958C91.6465 68.1261 91.522 68.2354 91.3799 68.3176C91.2379 68.3998 91.081 68.4532 90.9183 68.4748Z" fill="white"/>
<path d="M90.3664 78.7519C90.2295 79.052 89.9813 79.287 89.6742 79.4075C89.3672 79.5279 89.0253 79.5243 88.7209 79.3974C88.4171 79.2647 88.1784 79.0168 88.0573 78.7081C87.9362 78.3995 87.9426 78.0554 88.0752 77.7515C88.1533 77.573 88.2288 77.393 88.3016 77.2117C88.3624 77.0589 88.4527 76.9197 88.5674 76.8019C88.682 76.6841 88.8188 76.5901 88.9698 76.5252C89.1209 76.4604 89.2833 76.4259 89.4476 76.4239C89.612 76.4219 89.7752 76.4523 89.9278 76.5135C90.0804 76.5746 90.2194 76.6652 90.3369 76.7802C90.4545 76.8951 90.5481 77.0321 90.6126 77.1833C90.6772 77.3345 90.7112 77.4969 90.7128 77.6613C90.7145 77.8257 90.6837 77.9888 90.6222 78.1412C90.5398 78.3466 90.4545 78.5502 90.3664 78.7519Z" fill="white"/>
<path d="M85.3701 57.808C85.2474 57.6563 85.1223 57.5065 84.9948 57.3584C84.887 57.2343 84.8048 57.0902 84.7528 56.9343C84.7008 56.7784 84.6801 56.6137 84.6918 56.4498C84.7036 56.2859 84.7475 56.1259 84.8211 55.9789C84.8948 55.832 84.9967 55.701 85.121 55.5935C85.2453 55.486 85.3896 55.4041 85.5456 55.3524C85.7016 55.3008 85.8663 55.2804 86.0302 55.2924C86.1941 55.3045 86.354 55.3487 86.5008 55.4227C86.6476 55.4966 86.7784 55.5988 86.8856 55.7233C87.0315 55.8914 87.1741 56.0618 87.3135 56.2345C87.522 56.4922 87.6196 56.8221 87.5849 57.1518C87.5503 57.4815 87.3861 57.7839 87.1285 57.9926C86.8695 58.1977 86.5404 58.2933 86.2117 58.2588C85.883 58.2243 85.581 58.0624 85.3701 57.808Z" fill="white"/>
<path d="M87.2624 83.8304C87.049 84.0814 86.7467 84.2401 86.4189 84.2732C86.0911 84.3063 85.7632 84.2113 85.5039 84.008C85.3768 83.9042 85.2713 83.7763 85.1935 83.6317C85.1158 83.4871 85.0673 83.3286 85.0508 83.1653C85.0343 83.0019 85.0501 82.8369 85.0974 82.6797C85.1447 82.5225 85.2225 82.3761 85.3263 82.249C85.4502 82.0973 85.5717 81.9438 85.6907 81.7884C85.8928 81.5259 86.1907 81.3543 86.5192 81.3114C86.8477 81.2684 87.1798 81.3575 87.4425 81.5592C87.7053 81.7608 87.8774 82.0586 87.9208 82.387C87.9643 82.7154 87.8756 83.0476 87.6744 83.3107C87.5395 83.4862 87.4021 83.6594 87.2624 83.8304Z" fill="white"/>
<path d="M88.466 60.1203C88.6147 60.0506 88.7756 60.0108 88.9396 60.0033C89.1037 59.9957 89.2676 60.0206 89.422 60.0765C89.5764 60.1324 89.7183 60.2181 89.8395 60.3288C89.9608 60.4396 90.059 60.5731 90.1286 60.7218C90.222 60.9223 90.3136 61.1247 90.4014 61.3285C90.5329 61.6329 90.5381 61.9769 90.4158 62.2851C90.2936 62.5932 90.0539 62.8402 89.7496 62.9716C89.4453 63.1031 89.1012 63.1082 88.7931 62.986C88.4849 62.8637 88.238 62.6241 88.1065 62.3198C88.0284 62.1391 87.9476 61.9601 87.8642 61.7827C87.7237 61.4824 87.7082 61.1386 87.8211 60.8269C87.9339 60.5152 88.1659 60.2611 88.466 60.1203Z" fill="white"/>
<path d="M92.0615 72.3596C92.0377 72.5821 92.0104 72.803 91.9797 73.0224C91.929 73.3484 91.7536 73.6418 91.4905 73.8407C91.2273 74.0395 90.8972 74.1283 90.5698 74.0881C90.4072 74.0655 90.2506 74.0111 90.109 73.928C89.9675 73.8449 89.8437 73.7346 89.7447 73.6037C89.6457 73.4727 89.5735 73.3235 89.5323 73.1646C89.491 73.0057 89.4814 72.8402 89.5041 72.6776C89.5304 72.4853 89.5548 72.2921 89.5749 72.0977C89.5921 71.9345 89.6413 71.7762 89.7197 71.6319C89.798 71.4877 89.904 71.3602 90.0316 71.257C90.1593 71.1537 90.306 71.0765 90.4634 71.0299C90.6208 70.9833 90.7859 70.9682 90.9491 70.9854C91.1124 71.0026 91.2707 71.0518 91.415 71.1301C91.5592 71.2085 91.6866 71.3145 91.7899 71.4421C91.8932 71.5697 91.9704 71.7164 92.017 71.8739C92.0635 72.0313 92.0787 72.1963 92.0615 72.3596Z" fill="white"/>
<path d="M71.7844 50.6764C71.7551 50.6764 71.304 50.6486 71.1069 50.6407C70.7757 50.627 70.4635 50.4824 70.2389 50.2386C70.0144 49.9948 69.8958 49.6718 69.9094 49.3406C69.9138 49.1758 69.9512 49.0136 70.0194 48.8636C70.0876 48.7135 70.1852 48.5787 70.3064 48.467C70.4276 48.3553 70.5699 48.269 70.725 48.2133C70.8802 48.1575 71.0449 48.1335 71.2094 48.1425C71.431 48.1516 71.6515 48.1639 71.871 48.1794C72.1941 48.2022 72.4956 48.3494 72.7123 48.5901C72.9289 48.8307 73.0437 49.1461 73.0325 49.4697C73.0212 49.7933 72.8848 50.0999 72.652 50.325C72.4192 50.5501 72.1082 50.676 71.7844 50.6764Z" fill="white"/>
<path d="M66.3515 88.9715C66.5426 89.0112 66.7348 89.0481 66.9271 89.082C67.0888 89.1104 67.2433 89.1703 67.3818 89.2583C67.5203 89.3464 67.6401 89.4609 67.7344 89.5953C67.8286 89.7297 67.8955 89.8813 67.9311 90.0416C67.9668 90.2018 67.9705 90.3675 67.9421 90.5292C67.8791 90.8528 67.6932 91.1393 67.4233 91.3286C67.1534 91.5179 66.8206 91.5952 66.4949 91.5442C66.277 91.506 66.0596 91.4643 65.8425 91.419C65.6818 91.3856 65.5292 91.3209 65.3935 91.2285C65.2578 91.1361 65.1417 91.0179 65.0517 90.8806C64.9617 90.7434 64.8996 90.5897 64.869 90.4284C64.8383 90.2672 64.8398 90.1015 64.8732 89.9408C64.9066 89.78 64.9714 89.6275 65.0638 89.4918C65.1561 89.3561 65.2743 89.24 65.4116 89.15C65.5489 89.06 65.7025 88.9979 65.8638 88.9673C66.0251 88.9366 66.1908 88.9381 66.3515 88.9715Z" fill="white"/>
<path d="M77.2773 51.8247C76.9393 51.7924 76.6088 51.7051 76.299 51.5663C75.9849 51.4629 75.7246 51.2394 75.575 50.9445C75.4254 50.6497 75.3987 50.3076 75.5007 49.9932C75.6028 49.6787 75.8252 49.4174 76.1194 49.2666C76.4136 49.1158 76.7556 49.0876 77.0705 49.1883C77.2816 49.257 77.4912 49.3285 77.6991 49.4028C78.0112 49.5147 78.266 49.7459 78.4076 50.0456C78.5492 50.3453 78.5659 50.689 78.4541 51.001C78.3621 51.2397 78.2009 51.4456 77.9913 51.5923C77.7817 51.739 77.5331 51.8199 77.2773 51.8247Z" fill="white"/>
<path d="M66.4293 51.0145C66.2377 51.0532 65.664 51.1735 65.5687 51.1735C65.2624 51.1731 64.9668 51.0603 64.7382 50.8564C64.5095 50.6525 64.3637 50.3717 64.3284 50.0674C64.2931 49.7631 64.3707 49.4564 64.5466 49.2056C64.7225 48.9547 64.9843 48.7772 65.2825 48.7067C65.4979 48.6557 65.715 48.6081 65.9337 48.5639C66.2587 48.4982 66.5965 48.5642 66.8727 48.7475C67.149 48.9308 67.3411 49.2164 67.4068 49.5414C67.4726 49.8663 67.4065 50.2041 67.2232 50.4804C67.0399 50.7566 66.7543 50.9487 66.4293 51.0145Z" fill="white"/>
<path d="M82.4293 51.7839C82.6124 51.9063 82.7939 52.0313 82.9738 52.159C83.2441 52.3509 83.427 52.6424 83.4824 52.9692C83.5378 53.2961 83.4611 53.6316 83.2692 53.9019C83.075 54.1694 82.7838 54.3501 82.4579 54.4053C82.1319 54.4605 81.7974 54.3857 81.526 54.197C81.3661 54.0834 81.2046 53.9723 81.0414 53.8634C80.9045 53.7724 80.7869 53.6553 80.6953 53.5189C80.6038 53.3824 80.54 53.2292 80.5077 53.068C80.4754 52.9068 80.4752 52.7409 80.5071 52.5797C80.539 52.4184 80.6024 52.2651 80.6936 52.1284C80.7849 51.9917 80.9022 51.8743 81.0389 51.783C81.1755 51.6916 81.3288 51.6282 81.4901 51.5962C81.6513 51.5642 81.8172 51.5643 81.9784 51.5965C82.1396 51.6287 82.2928 51.6924 82.4293 51.7839Z" fill="white"/>
<path d="M61.386 87.2007C61.5594 87.2911 61.7351 87.3787 61.9115 87.4641C62.2099 87.6085 62.4388 87.8655 62.5477 88.1786C62.6567 88.4917 62.6368 88.8353 62.4926 89.1337C62.3444 89.4287 62.0872 89.6543 61.7754 89.7627C61.4636 89.8712 61.1219 89.8539 60.8227 89.7145C60.6243 89.6187 60.4276 89.5201 60.2325 89.4188C59.9388 89.2655 59.718 89.002 59.6185 88.6861C59.519 88.3702 59.549 88.0277 59.7018 87.7338C59.8546 87.44 60.1178 87.2188 60.4336 87.1188C60.7494 87.0189 61.092 87.0483 61.386 87.2007Z" fill="white"/>
<path d="M76.7808 88.2703C76.9664 88.2047 77.1503 88.1363 77.3326 88.0652C77.6416 87.9453 77.9856 87.9529 78.2889 88.0865C78.5923 88.2201 78.8302 88.4687 78.9502 88.7777C79.0703 89.0866 79.0628 89.4306 78.9293 89.734C78.7958 90.0374 78.5473 90.2754 78.2383 90.3956C78.0314 90.4758 77.8231 90.5532 77.6133 90.6275C77.4585 90.6825 77.2943 90.7065 77.1302 90.698C76.966 90.6895 76.8052 90.6487 76.6569 90.578C76.5085 90.5072 76.3756 90.4079 76.2657 90.2857C76.1557 90.1636 76.071 90.0209 76.0162 89.866C75.9615 89.711 75.9379 89.5468 75.9467 89.3827C75.9555 89.2185 75.9966 89.0578 76.0676 88.9096C76.1386 88.7614 76.2382 88.6286 76.3606 88.5189C76.483 88.4092 76.6257 88.3248 76.7808 88.2703Z" fill="white"/>
<path d="M53.7005 82.29C53.422 82.4681 53.0848 82.5298 52.7613 82.4618C52.4379 82.3938 52.154 82.2016 51.9708 81.9265C51.8493 81.7407 51.7315 81.5527 51.6155 81.3628C51.4432 81.0796 51.3905 80.7394 51.469 80.4173C51.5474 80.0951 51.7506 79.8173 52.0339 79.645C52.3172 79.4727 52.6573 79.4199 52.9795 79.4984C53.3017 79.5769 53.5795 79.7801 53.7518 80.0634C53.8531 80.2306 53.9573 80.3961 54.0643 80.5599C54.154 80.6974 54.2158 80.8512 54.2461 81.0125C54.2764 81.1739 54.2746 81.3396 54.2408 81.5003C54.2071 81.661 54.1419 81.8134 54.0492 81.9489C53.9565 82.0844 53.838 82.2003 53.7005 82.29Z" fill="white"/>
<path d="M57.2038 54.028C57.3154 54.1483 57.4022 54.2895 57.4593 54.4434C57.5163 54.5974 57.5424 54.761 57.5362 54.9251C57.53 55.0891 57.4915 55.2503 57.4229 55.3995C57.3544 55.5486 57.2571 55.6828 57.1367 55.7943C56.9932 55.9268 56.8524 56.0615 56.7143 56.1984C56.4768 56.4281 56.1588 56.5558 55.8283 56.5541C55.4979 56.5524 55.1812 56.4214 54.9461 56.1892C54.713 55.9536 54.583 55.635 54.5847 55.3036C54.5864 54.9721 54.7197 54.6549 54.9553 54.4216C55.1133 54.2651 55.2741 54.1113 55.4374 53.9602C55.5578 53.8486 55.699 53.7617 55.853 53.7047C56.0069 53.6477 56.1706 53.6216 56.3347 53.6279C56.4987 53.6342 56.6599 53.6727 56.8091 53.7414C56.9582 53.81 57.0923 53.9074 57.2038 54.028Z" fill="white"/>
<path d="M60.3109 50.5409C60.6057 50.3892 60.9487 50.3608 61.2644 50.462C61.5801 50.5632 61.8426 50.7856 61.9943 51.0804C62.146 51.3752 62.1743 51.7182 62.0732 52.0338C61.972 52.3495 61.7495 52.6121 61.4547 52.7638C61.2802 52.8538 61.107 52.9464 60.9353 53.0415C60.6454 53.2005 60.3042 53.2381 59.9866 53.1462C59.6689 53.0542 59.4006 52.8401 59.2405 52.5508C59.0803 52.2615 59.0413 51.9205 59.132 51.6025C59.2227 51.2844 59.4357 51.0153 59.7244 50.854C59.9179 50.7469 60.1134 50.6425 60.3109 50.5409Z" fill="white"/>
<path d="M50.9964 77.3557C50.68 77.4516 50.3385 77.4195 50.0455 77.2662C49.7525 77.1129 49.5313 76.8507 49.4297 76.536C49.3637 76.3248 49.3009 76.1125 49.2411 75.8991C49.1519 75.5797 49.1932 75.238 49.356 74.9491C49.5187 74.6602 49.7896 74.4478 50.109 74.3586C50.4284 74.2694 50.7701 74.3107 51.059 74.4735C51.3479 74.6363 51.5603 74.9071 51.6495 75.2265C51.702 75.4154 51.7576 75.6031 51.8161 75.7896C51.915 76.1059 51.8842 76.4486 51.7305 76.7423C51.5768 77.036 51.3128 77.2566 50.9964 77.3557Z" fill="white"/>
<path d="M48.4479 70.6628C48.4412 70.4428 48.4388 69.916 48.4388 69.916C48.4388 69.5845 48.5705 69.2666 48.8049 69.0321C49.0393 68.7977 49.3573 68.666 49.6888 68.666C50.0203 68.666 50.3382 68.7977 50.5727 69.0321C50.8071 69.2666 50.9388 69.5845 50.9388 69.916C50.9388 69.916 50.9412 70.3939 50.9467 70.5895C50.9516 70.7536 50.924 70.917 50.8657 71.0705C50.8073 71.2239 50.7194 71.3644 50.6067 71.4838C50.4941 71.6032 50.3591 71.6993 50.2093 71.7665C50.0596 71.8337 49.898 71.8708 49.734 71.8756C49.4038 71.8808 49.0847 71.757 48.8445 71.5305C48.6044 71.304 48.4621 70.9926 48.4479 70.6628Z" fill="white"/>
<path d="M82.9038 87.8891C82.6309 88.0741 82.2968 88.146 81.9719 88.0895C81.647 88.0329 81.3568 87.8524 81.1625 87.586C81.068 87.4518 81.0008 87.3002 80.9649 87.14C80.929 86.9798 80.925 86.8141 80.9532 86.6523C80.9814 86.4906 81.0412 86.336 81.1291 86.1973C81.2171 86.0587 81.3315 85.9388 81.4658 85.8444C81.6257 85.7318 81.7836 85.6168 81.9394 85.4995C82.2043 85.3001 82.5375 85.214 82.8658 85.2603C83.194 85.3065 83.4905 85.4813 83.6899 85.7461C83.8894 86.0109 83.9754 86.3441 83.9292 86.6724C83.8829 87.0007 83.7082 87.2972 83.4433 87.4966C83.2657 87.6303 83.0859 87.7611 82.9038 87.8891Z" fill="white"/>
<path d="M51.6712 64.6986C51.6181 64.8875 51.5675 65.0775 51.5192 65.2684C51.432 65.5862 51.2252 65.858 50.9422 66.0268C50.6592 66.1956 50.3218 66.2484 50.0007 66.1742C49.6793 66.0929 49.4034 65.8874 49.2335 65.6027C49.0637 65.3181 49.0138 64.9776 49.0949 64.6562C49.1492 64.4414 49.2064 64.2282 49.2664 64.0168C49.3111 63.8589 49.3865 63.7113 49.4883 63.5824C49.5901 63.4536 49.7162 63.3461 49.8596 63.2661C50.0029 63.186 50.1606 63.135 50.3236 63.1159C50.4867 63.0968 50.6519 63.11 50.8099 63.1548C50.9678 63.1996 51.1154 63.275 51.2441 63.3769C51.3729 63.4787 51.4804 63.6049 51.5604 63.7483C51.6404 63.8916 51.6913 64.0493 51.7103 64.2124C51.7294 64.3755 51.7161 64.5407 51.6712 64.6986Z" fill="white"/>
<path d="M51.6598 58.5655C51.7454 58.4253 51.8579 58.3032 51.9907 58.2065C52.1235 58.1097 52.2741 58.0401 52.4338 58.0016C52.5936 57.9631 52.7594 57.9565 52.9217 57.9821C53.084 58.0077 53.2397 58.0651 53.3798 58.151C53.5199 58.2369 53.6417 58.3495 53.7382 58.4825C53.8347 58.6155 53.9041 58.7662 53.9423 58.926C53.9805 59.0858 53.9868 59.2516 53.9609 59.4139C53.935 59.5762 53.8773 59.7317 53.7912 59.8717C53.6886 60.0392 53.5883 60.2083 53.4903 60.3789C53.322 60.6629 53.0493 60.87 52.7305 60.9559C52.4117 61.0418 52.072 60.9998 51.7837 60.8388C51.6414 60.757 51.5166 60.6479 51.4164 60.5178C51.3163 60.3877 51.2427 60.2392 51.2 60.0807C51.1573 59.9222 51.1462 59.7568 51.1674 59.594C51.1886 59.4312 51.2416 59.2742 51.3235 59.1319C51.4328 58.9418 51.5449 58.753 51.6598 58.5655Z" fill="white"/>
<path d="M57.0829 84.1558C57.2251 84.2891 57.3695 84.4204 57.5162 84.5494C57.64 84.6577 57.7412 84.7893 57.814 84.9366C57.8869 85.084 57.9299 85.2444 57.9407 85.4084C57.9514 85.5725 57.9298 85.7371 57.8768 85.8927C57.8239 86.0484 57.7408 86.1921 57.6322 86.3155C57.5237 86.439 57.3918 86.5399 57.2442 86.6123C57.0967 86.6848 56.9362 86.7274 56.7721 86.7377C56.608 86.7481 56.4435 86.726 56.288 86.6726C56.1325 86.6193 55.989 86.5358 55.8658 86.4269C55.6986 86.2801 55.5342 86.131 55.3727 85.9795C55.1312 85.7526 54.9897 85.4392 54.9792 85.108C54.9687 84.7768 55.0901 84.455 55.3168 84.2133C55.5434 83.9716 55.8567 83.8298 56.1879 83.819C56.5191 83.8082 56.841 83.9293 57.0829 84.1558Z" fill="white"/>
<path d="M71.6143 89.3332C71.809 89.3204 72.0037 89.3045 72.1972 89.2856C72.3607 89.2691 72.5259 89.2851 72.6832 89.3325C72.8406 89.38 72.987 89.458 73.1142 89.5621C73.2414 89.6663 73.3467 89.7944 73.4243 89.9393C73.5019 90.0842 73.5501 90.243 73.5662 90.4066C73.5824 90.5701 73.5661 90.7353 73.5183 90.8925C73.4705 91.0498 73.3922 91.1961 73.2879 91.323C73.1835 91.45 73.0551 91.5551 72.9101 91.6324C72.765 91.7097 72.6061 91.7576 72.4426 91.7734C72.2222 91.7954 71.7223 91.8305 71.6949 91.8305C71.3706 91.83 71.0592 91.7036 70.8265 91.4779C70.5937 91.2522 70.4577 90.9449 70.4472 90.6208C70.4368 90.2967 70.5527 89.9812 70.7704 89.741C70.9882 89.5008 71.2908 89.3545 71.6143 89.3332Z" fill="white"/>
<path d="M70.3121 53.75C73.5261 53.75 76.6679 54.703 79.3403 56.4886C82.0126 58.2741 84.0955 60.812 85.3255 63.7814C86.5554 66.7507 86.8773 70.0181 86.2503 73.1703C85.6233 76.3226 84.0756 79.2181 81.803 81.4908C79.5304 83.7634 76.6349 85.3111 73.4826 85.9382C70.3304 86.5652 67.063 86.2434 64.0937 85.0135C61.1243 83.7835 58.5864 81.7007 56.8008 79.0284C55.0151 76.356 54.0621 73.2142 54.0621 70.0002C54.0669 65.6919 55.7805 61.5614 58.8269 58.5149C61.8733 55.4685 66.0038 53.7549 70.3121 53.75ZM70.3121 83.7504C73.0316 83.7504 75.6901 82.944 77.9513 81.4331C80.2125 79.9223 81.975 77.7748 83.0157 75.2623C84.0565 72.7498 84.3288 69.9851 83.7982 67.3178C83.2677 64.6505 81.9581 62.2004 80.0352 60.2774C78.1122 58.3544 75.6621 57.0448 72.9948 56.5142C70.3276 55.9837 67.5629 56.256 65.0503 57.2967C62.5378 58.3374 60.3903 60.0998 58.8794 62.361C57.3685 64.6222 56.5621 67.2807 56.5621 70.0002C56.5662 73.6457 58.0161 77.1407 60.5939 79.7185C63.1716 82.2962 66.6666 83.7462 70.3121 83.7504Z" fill="white"/>
<path d="M70.9528 68.8743H69.6668C68.3857 68.8743 67.8126 68.1343 67.8126 67.4007C67.8125 66.3924 68.8015 65.9861 69.6668 65.9861H73.2673C73.5988 65.9861 73.9167 65.8544 74.1512 65.62C74.3856 65.3855 74.5173 65.0676 74.5173 64.7361C74.5173 64.4045 74.3856 64.0866 74.1512 63.8522C73.9167 63.6177 73.5988 63.486 73.2673 63.486H72.3285V61.875C72.3285 61.5435 72.1968 61.2255 71.9624 60.9911C71.728 60.7567 71.41 60.625 71.0785 60.625C70.747 60.625 70.4291 60.7567 70.1946 60.9911C69.9602 61.2255 69.8285 61.5435 69.8285 61.875V63.486H69.6668C69.0813 63.4623 68.4968 63.5546 67.9471 63.7576C67.3974 63.9606 66.8933 64.2703 66.4637 64.6689C66.0971 65.0228 65.806 65.4473 65.6082 65.9168C65.4103 66.3863 65.3098 66.8911 65.3126 67.4006C65.3126 69.3269 66.8384 71.3743 69.6668 71.3743H70.9528C72.3235 71.3743 72.8125 72.1036 72.8126 72.7862C72.8127 73.793 71.8309 74.2687 70.9528 74.2687H67.9767C67.6452 74.2687 67.3273 74.4004 67.0928 74.6348C66.8584 74.8692 66.7267 75.1871 66.7267 75.5187C66.7267 75.8502 66.8584 76.1681 67.0928 76.4026C67.3273 76.637 67.6452 76.7687 67.9767 76.7687H69.8285V78.1252C69.8285 78.4567 69.9602 78.7747 70.1947 79.0091C70.4291 79.2435 70.747 79.3752 71.0785 79.3752C71.4101 79.3752 71.728 79.2435 71.9624 79.0091C72.1968 78.7747 72.3285 78.4567 72.3285 78.1252V76.5856C73.1745 76.3686 73.9253 75.8788 74.4648 75.192C75.0042 74.5052 75.3022 73.6597 75.3125 72.7864C75.3125 70.8424 73.8147 68.8743 70.9528 68.8743Z" fill="white"/>
<path d="M62.6994 43.4323L53.0672 50.1273C52.8797 50.2576 52.6601 50.334 52.4322 50.3483C52.2043 50.3627 51.9769 50.3143 51.7746 50.2085C51.5722 50.1027 51.4027 49.9435 51.2845 49.7482C51.1662 49.5529 51.1037 49.329 51.1037 49.1007V46.644C37.2191 48.0545 32.614 59.9175 32.4193 60.4375C32.3134 60.7212 32.1081 60.9568 31.8415 61.1006C31.575 61.2443 31.2653 61.2865 30.9701 61.2191C30.6748 61.1518 30.4141 60.9795 30.2363 60.7344C30.0584 60.4893 29.9756 60.1879 30.0032 59.8864C31.6448 41.9864 45.4173 37.6064 51.1037 36.5627V33.7502C51.1037 33.5218 51.1662 33.2979 51.2845 33.1026C51.4027 32.9073 51.5722 32.7481 51.7746 32.6423C51.9769 32.5365 52.2043 32.4881 52.4322 32.5025C52.6601 32.5168 52.8797 32.5932 53.0672 32.7235L62.6991 39.4185C63.0229 39.6436 63.2873 39.9437 63.47 40.2931C63.6526 40.6426 63.748 41.031 63.748 41.4253C63.7481 41.8196 63.6527 42.2081 63.4701 42.5575C63.2875 42.907 63.0231 43.2071 62.6994 43.4323ZM53.6037 36.1415V37.6259C53.6037 37.9273 53.4947 38.2186 53.2969 38.4461C53.0991 38.6735 52.8258 38.8219 52.5273 38.8637C47.8612 39.5186 37.8343 42.2152 33.9366 53.2712C36.1583 50.5109 38.9463 48.2591 42.1123 46.6678C45.2783 45.0766 48.7487 44.1828 52.2895 44.0468C52.4584 44.0397 52.6271 44.0666 52.7854 44.126C52.9438 44.1853 53.0885 44.2759 53.2111 44.3924C53.3337 44.5088 53.4317 44.6488 53.4991 44.8038C53.5665 44.9589 53.6021 45.1259 53.6037 45.295V46.7092L61.2059 41.4254L53.6037 36.1415Z" fill="white"/>
</g>
<defs>
<filter id="filter0_d_3108_16926" x="1" y="9" width="137.98" height="141.98" filterUnits="userSpaceOnUse" color-interpolation-filters="sRGB">
<feFlood flood-opacity="0" result="BackgroundImageFix"/>
<feColorMatrix in="SourceAlpha" type="matrix" values="0 0 0 0 0 0 0 0 0 0 0 0 0 0 0 0 0 0 127 0" result="hardAlpha"/>
<feOffset dy="12"/>
<feGaussianBlur stdDeviation="4"/>
<feComposite in2="hardAlpha" operator="out"/>
<feColorMatrix type="matrix" values="0 0 0 0 0 0 0 0 0 0 0 0 0 0 0 0 0 0 0.5 0"/>
<feBlend mode="normal" in2="BackgroundImageFix" result="effect1_dropShadow_3108_16926"/>
<feBlend mode="normal" in="SourceGraphic" in2="effect1_dropShadow_3108_16926" result="shape"/>
</filter>
<linearGradient id="paint0_linear_3108_16926" x1="69.9898" y1="9" x2="115.99" y2="115.49" gradientUnits="userSpaceOnUse">
<stop stop-color="#3346A1"/>
<stop offset="0.378507" stop-color="#C8EA80"/>
<stop offset="0.892518" stop-color="#1B2762"/>
</linearGradient>
<clipPath id="clip0_3108_16926">
<rect width="80" height="80" fill="white" transform="matrix(-1 0 0 1 110 30)"/>
</clipPath>
</defs>
</svg>
