<svg width="25" height="10" viewBox="0 0 25 10" fill="none" xmlns="http://www.w3.org/2000/svg">
<path d="M0.832031 5.49847H23.191C23.151 5.57347 23.118 5.65247 23.059 5.71847C22.849 5.95547 22.643 6.18147 22.494 6.33147L20.25 8.61447C20.056 8.81147 20.059 9.12847 20.256 9.32147C20.354 9.41747 20.48 9.46547 20.607 9.46547C20.736 9.46547 20.866 9.41547 20.963 9.31647L23.205 7.03547C23.363 6.87747 23.583 6.63647 23.809 6.38247C24.508 5.59447 24.508 4.40447 23.809 3.61747C23.583 3.36247 23.363 3.12147 23.207 2.96547L20.963 0.682469C20.769 0.485469 20.453 0.483468 20.256 0.676468C20.059 0.869469 20.056 1.18647 20.25 1.38347L22.497 3.66847C22.644 3.81647 22.85 4.04247 23.06 4.28047C23.118 4.34647 23.152 4.42447 23.192 4.49947H0.832031C0.556031 4.49947 0.332031 4.72347 0.332031 4.99947C0.332031 5.27547 0.556031 5.49947 0.832031 5.49947V5.49847Z" fill="#C8EA80"/>
</svg>
