<svg width="33" height="32" viewBox="0 0 33 32" fill="none" xmlns="http://www.w3.org/2000/svg">
<g clip-path="url(#clip0_3108_16403)">
<path d="M0.5 0H32.5V32H0.5V0Z" fill="#003399"/>
<path d="M16.4985 6.66016L16.7978 7.58096H17.7709L16.9872 8.15038L17.2822 9.07216L16.4985 8.50273L15.7148 9.07216L16.0142 8.15087L15.2305 7.58145H16.1992L16.4985 6.66016ZM12.4985 7.72682L12.7978 8.64762H13.7709L12.9872 9.21705L13.2822 10.1388L12.4985 9.5694L11.7148 10.1388L12.0142 9.21753L11.2305 8.64811H12.1992L12.4985 7.72682ZM9.56518 10.6602L9.86451 11.581H10.8376L10.0539 12.1504L10.3489 13.0722L9.56518 12.5027L8.78145 13.0722L9.08082 12.1509L8.29714 11.5814H9.26585L9.56518 10.6602ZM8.49851 14.6601L8.79785 15.581H9.77091L8.98722 16.1504L9.28225 17.0722L8.49851 16.5027L7.71478 17.0722L8.01416 16.1508L7.23047 15.5814H8.19918L8.49851 14.6601ZM9.56518 18.6602L9.86451 19.581H10.8376L10.0539 20.1504L10.3489 21.0722L9.56518 20.5028L8.78145 21.0722L9.08082 20.1509L8.29714 19.5814H9.26585L9.56518 18.6602ZM12.4985 21.5935L12.7978 22.5143H13.7709L12.9872 23.0837L13.2822 24.0055L12.4985 23.4361L11.7148 24.0055L12.0142 23.0842L11.2305 22.5148H12.1992L12.4985 21.5935ZM20.4985 7.72682L20.7978 8.64762H21.7709L20.9872 9.21705L21.2822 10.1388L20.4985 9.5694L19.7147 10.1388L20.0142 9.21753L19.2305 8.64811H20.1991L20.4985 7.72682ZM23.4318 10.6602L23.7312 11.581H24.7043L23.9206 12.1504L24.2155 13.0722L23.4318 12.5027L22.6481 13.0722L22.9475 12.1509L22.1638 11.5814H23.1325L23.4318 10.6602ZM24.4985 14.6602L24.7978 15.581H25.7709L24.9872 16.1504L25.2822 17.0722L24.4985 16.5027L23.7148 17.0722L24.0142 16.1508L23.2305 15.5814H24.1992L24.4985 14.6602ZM23.4318 18.6602L23.7312 19.581H24.7043L23.9206 20.1504L24.2156 21.0722L23.4318 20.5028L22.6481 21.0722L22.9475 20.1509L22.1638 19.5814H23.1325L23.4318 18.6602ZM16.4985 22.6602L16.7978 23.581H17.7709L16.9872 24.1504L17.2822 25.0722L16.4985 24.5028L15.7148 25.0722L16.0142 24.1509L15.2305 23.5814H16.1992L16.4985 22.6602ZM20.4985 21.5934L20.7978 22.5143H21.7709L20.9872 23.0837L21.2823 24.0055L20.4985 23.4361L19.7148 24.0055L20.0142 23.0842L19.2305 22.5148H20.1992L20.4985 21.5934Z" fill="#FFCC00"/>
</g>
<defs>
<clipPath id="clip0_3108_16403">
<rect x="0.5" width="32" height="32" rx="4" fill="white"/>
</clipPath>
</defs>
</svg>
