<svg width="24" height="18" viewBox="0 0 24 18" fill="none" xmlns="http://www.w3.org/2000/svg">
<path d="M15.379 0C17.116 0.291 18.777 0.803 20.33 1.508C23.046 5.438 24.396 9.871 23.898 14.984C21.82 16.49 19.804 17.403 17.822 18.001C17.331 17.349 16.897 16.654 16.521 15.926C17.232 15.664 17.9187 15.3401 18.573 14.958C18.4024 14.834 18.235 14.7056 18.071 14.573C14.169 16.363 9.87901 16.363 5.92902 14.573C5.76701 14.706 5.59902 14.835 5.42702 14.958C6.08021 15.3391 6.76549 15.6623 7.47502 15.924C7.10043 16.651 6.66523 17.3451 6.17402 17.999C3.99313 17.3462 1.93941 16.3266 0.101015 14.984C-0.323985 10.574 0.526015 6.1 3.65902 1.512C5.21402 0.805 6.87702 0.291 8.61502 0C8.83002 0.374 9.08502 0.876 9.25702 1.276C11.069 1.007 12.898 1.007 14.744 1.276C14.9337 0.840073 15.1456 0.414178 15.379 0ZM8.01301 7.513C6.80701 7.513 5.85502 8.587 5.85502 9.893C5.85502 11.199 6.82701 12.271 8.01301 12.271C9.21902 12.271 10.173 11.199 10.171 9.893C10.192 8.585 9.22001 7.513 8.01301 7.513ZM15.987 7.513C14.781 7.513 13.829 8.587 13.829 9.893C13.829 11.199 14.801 12.271 15.987 12.271C17.193 12.271 18.145 11.199 18.145 9.893C18.166 8.585 17.194 7.513 15.987 7.513Z" fill="#EAEDFF"/>
</svg>
