<svg width="16" height="16" viewBox="0 0 16 16" fill="none" xmlns="http://www.w3.org/2000/svg">
<g clip-path="url(#clip0_1051_6476)">
<path d="M12 14H3.33333C1.49333 14 0 12.5067 0 10.6667V6C0 5.63333 0.3 5.33333 0.666667 5.33333C1.03333 5.33333 1.33333 5.63333 1.33333 6V10.6667C1.33333 11.7667 2.23333 12.6667 3.33333 12.6667H12C12.3667 12.6667 12.6667 12.9667 12.6667 13.3333C12.6667 13.7 12.3667 14 12 14ZM9.33333 6C8.96667 6 8.66667 6.3 8.66667 6.66667C8.66667 7.03333 8.96667 7.33333 9.33333 7.33333C9.7 7.33333 10 7.03333 10 6.66667C10 6.3 9.7 6 9.33333 6ZM16 4.66667V8.66667C16 10.14 14.8067 11.3333 13.3333 11.3333H5.33333C3.86 11.3333 2.66667 10.14 2.66667 8.66667V4.66667C2.66667 3.19333 3.86 2 5.33333 2H13.3333C14.8067 2 16 3.19333 16 4.66667ZM11.3333 6.66667C11.3333 5.56667 10.4333 4.66667 9.33333 4.66667C8.23333 4.66667 7.33333 5.56667 7.33333 6.66667C7.33333 7.76667 8.23333 8.66667 9.33333 8.66667C10.4333 8.66667 11.3333 7.76667 11.3333 6.66667Z" fill="#8F92A5"/>
</g>
<defs>
<clipPath id="clip0_1051_6476">
<rect width="16" height="16" fill="white"/>
</clipPath>
</defs>
</svg>
