<svg width="102" height="112" viewBox="0 0 102 112" fill="none" xmlns="http://www.w3.org/2000/svg">
<circle cx="51" cy="49" r="48.5" stroke="#253688" stroke-dasharray="2 2"/>
<g filter="url(#filter0_d_3108_16851)">
<circle cx="51" cy="49" r="43" fill="#131D4E"/>
<circle cx="51" cy="49" r="42.5" stroke="#253688"/>
</g>
<g clip-path="url(#clip0_3108_16851)">
<path d="M49.7197 48.2397V40.8589C49.7197 40.6316 49.6294 40.4137 49.4687 40.2529C49.308 40.0922 49.09 40.002 48.8627 40.002C48.6355 40.002 48.4175 40.0922 48.2568 40.2529C48.0961 40.4137 48.0058 40.6316 48.0058 40.8589V48.2397C47.3094 48.4457 46.7106 48.8957 46.3189 49.5072C45.9272 50.1187 45.7689 50.8508 45.873 51.5695C45.9771 52.2882 46.3365 52.9454 46.8856 53.4206C47.4347 53.8959 48.1365 54.1575 48.8627 54.1575C49.5889 54.1575 50.2908 53.8959 50.8399 53.4206C51.3889 52.9454 51.7484 52.2882 51.8525 51.5695C51.9566 50.8508 51.7983 50.1187 51.4066 49.5072C51.0149 48.8957 50.416 48.4457 49.7197 48.2397ZM48.8627 52.4436C48.5176 52.4384 48.1882 52.2977 47.946 52.0518C47.7037 51.8058 47.5679 51.4745 47.5679 51.1292C47.5679 50.784 47.7037 50.4527 47.946 50.2067C48.1883 49.9608 48.5176 49.8201 48.8628 49.815C49.208 49.8201 49.5373 49.9609 49.7795 50.2068C50.0218 50.4527 50.1576 50.7841 50.1576 51.1293C50.1576 51.4745 50.0218 51.8059 49.7795 52.0518C49.5372 52.2977 49.2079 52.4384 48.8627 52.4436Z" fill="white"/>
<path d="M74.9838 57.8533C74.9838 57.7408 74.9617 57.6293 74.9186 57.5253C74.8756 57.4213 74.8125 57.3269 74.7329 57.2473C74.6533 57.1677 74.5588 57.1046 74.4548 57.0615C74.3509 57.0185 74.2394 56.9963 74.1269 56.9963C73.5968 56.9958 73.0886 56.7849 72.7137 56.4101C72.3388 56.0354 72.1279 55.5272 72.1272 54.9971C72.1272 54.8845 72.1051 54.7731 72.062 54.6691C72.019 54.5651 71.9558 54.4706 71.8762 54.3911C71.7967 54.3115 71.7022 54.2484 71.5982 54.2053C71.4942 54.1623 71.3828 54.1401 71.2702 54.1401H70.4921C70.6391 53.1442 70.7164 52.1392 70.7233 51.1325C70.7214 47.4408 69.785 43.8097 68.0014 40.5775C66.2178 37.3453 63.6451 34.6172 60.5229 32.6473L61.7803 30.4692C62.1059 30.5965 63.5447 31.6206 63.8912 31.5557C64.0779 31.5521 64.2584 31.4878 64.4055 31.3727C64.5526 31.2576 64.6583 31.0978 64.7068 30.9174C64.7552 30.737 64.7437 30.5458 64.674 30.3724C64.6044 30.1991 64.4803 30.0531 64.3204 29.9565L59.4692 27.1555C59.2726 27.0469 59.0413 27.0198 58.825 27.08C58.6087 27.1402 58.4246 27.2829 58.3123 27.4773C58.2001 27.6718 58.1686 27.9026 58.2247 28.12C58.2808 28.3374 58.42 28.5242 58.6123 28.6401L60.2958 29.6121L59.0407 31.7864C57.2806 30.855 55.4007 30.1705 53.4538 29.7521V26.7948C53.4533 26.32 53.2645 25.8649 52.9289 25.5292C52.5932 25.1934 52.1381 25.0045 51.6634 25.0039H46.0614C45.5867 25.0045 45.1315 25.1934 44.7959 25.5292C44.4602 25.8649 44.2715 26.3201 44.2709 26.7948V29.7521C39.3846 30.8098 35.0071 33.5073 31.8656 37.3966C28.7242 41.2859 27.0079 46.1329 27.0018 51.1325C26.7857 67.7778 45.7358 78.6295 59.9379 69.9565C61.5003 71.4701 63.4514 72.5211 65.5749 72.993C67.804 72.5021 69.8419 71.3727 71.4398 69.7426C72.65 68.4522 73.5876 66.931 74.1965 65.2699C74.8055 63.6088 75.0732 61.8421 74.9838 60.0751V57.8533ZM45.9848 26.7948C45.9848 26.7847 45.9868 26.7747 45.9906 26.7654C45.9944 26.7561 46 26.7476 46.0072 26.7404C46.0143 26.7333 46.0227 26.7276 46.032 26.7237C46.0413 26.7198 46.0513 26.7178 46.0614 26.7178H51.6634C51.6734 26.7178 51.6834 26.7198 51.6927 26.7237C51.702 26.7276 51.7105 26.7333 51.7176 26.7404C51.7247 26.7476 51.7304 26.756 51.7342 26.7654C51.738 26.7747 51.74 26.7847 51.7399 26.7948V29.4582C49.8302 29.2002 47.8945 29.2002 45.9848 29.4582L45.9848 26.7948ZM48.8624 71.2791C43.5202 71.2756 38.398 69.151 34.6218 65.3723C30.8455 61.5936 28.7243 56.47 28.7243 51.1279C28.7243 45.7857 30.8455 40.6621 34.6218 36.8834C38.398 33.1047 43.5202 30.9801 48.8624 30.9766C61.0282 30.8678 70.7325 42.1232 68.7633 54.1402L65.7951 54.1401C68.5894 37.5392 48.6242 27.2394 36.7419 38.9447C30.0606 45.2906 30.0187 56.8611 36.6768 63.2486C39.3222 65.9131 42.768 67.6371 46.4867 68.1564C50.2053 68.6756 53.9916 67.9616 57.2657 66.1237C57.6606 67.027 58.1655 67.8782 58.7689 68.6578C55.7507 70.3778 52.3363 71.2813 48.8624 71.2791ZM56.1648 60.0266C56.0976 61.5283 56.2723 63.0311 56.6821 64.4773C54.5631 65.7255 52.1751 66.446 49.7193 66.5781V65.755C49.7193 65.5277 49.629 65.3097 49.4683 65.149C49.3076 64.9883 49.0897 64.898 48.8624 64.898C48.6351 64.898 48.4171 64.9883 48.2564 65.149C48.0957 65.3097 48.0054 65.5277 48.0054 65.755V66.5652C44.501 66.3745 41.1668 64.9929 38.5547 62.649C39.0736 62.1531 39.7706 61.5784 39.1267 60.8651C39.0471 60.7855 38.9527 60.7224 38.8487 60.6793C38.7448 60.6363 38.6333 60.6141 38.5208 60.6141C38.4083 60.6141 38.2968 60.6363 38.1929 60.6794C38.0889 60.7225 37.9945 60.7856 37.9149 60.8652L37.3424 61.4377C34.9951 58.8269 33.6113 55.4918 33.4207 51.9861H34.2374C34.4646 51.9861 34.6826 51.8958 34.8433 51.7351C35.004 51.5744 35.0943 51.3564 35.0943 51.1291C35.0943 50.9018 35.004 50.6839 34.8433 50.5232C34.6826 50.3624 34.4646 50.2722 34.2374 50.2722H33.421C33.6127 46.767 34.9962 43.4325 37.3423 40.8212C37.8379 41.3397 38.4132 42.0383 39.1267 41.3938C39.2063 41.3143 39.2695 41.2198 39.3125 41.1159C39.3556 41.0119 39.3778 40.9005 39.3778 40.788C39.3778 40.6754 39.3556 40.564 39.3125 40.4601C39.2695 40.3561 39.2063 40.2616 39.1267 40.1821L38.5542 39.6095C41.1658 37.2642 44.5004 35.8815 48.0054 35.6906V36.5041C48.0054 36.7314 48.0957 36.9493 48.2564 37.11C48.4171 37.2708 48.6351 37.361 48.8624 37.361C49.0897 37.361 49.3076 37.2708 49.4683 37.11C49.629 36.9493 49.7193 36.7314 49.7193 36.5041V35.6906C53.2244 35.8815 56.5591 37.2642 59.1708 39.6095C58.6524 40.1047 57.9536 40.6807 58.5981 41.3939C58.6776 41.4735 58.7721 41.5366 58.876 41.5797C58.98 41.6228 59.0914 41.6449 59.2039 41.6449C59.3165 41.6449 59.4279 41.6228 59.5319 41.5797C59.6358 41.5366 59.7303 41.4735 59.8098 41.3939L60.3827 40.8212C62.7288 43.4324 64.1124 46.767 64.3041 50.2722H63.4878C63.2605 50.2722 63.0425 50.3625 62.8818 50.5232C62.7211 50.6839 62.6308 50.9018 62.6308 51.1291C62.6308 51.3564 62.7211 51.5744 62.8818 51.7351C63.0425 51.8958 63.2605 51.9861 63.4878 51.9861H64.3221C64.2809 52.7096 64.1891 53.4294 64.0475 54.1401H59.8768C59.7642 54.1401 59.6528 54.1623 59.5488 54.2053C59.4448 54.2484 59.3503 54.3115 59.2707 54.3911C59.1912 54.4706 59.128 54.5651 59.085 54.6691C59.0419 54.7731 59.0198 54.8845 59.0198 54.9971C59.0192 55.5271 58.8084 56.0353 58.4336 56.4101C58.0588 56.7849 57.5506 56.9957 57.0205 56.9963C56.908 56.9963 56.7966 57.0185 56.6926 57.0615C56.5886 57.1046 56.4941 57.1677 56.4145 57.2473C56.3349 57.3269 56.2718 57.4213 56.2288 57.5253C56.1857 57.6293 56.1636 57.7408 56.1636 57.8533L56.1648 60.0266ZM70.2212 68.5375C68.9318 69.8265 67.3307 70.7598 65.5737 71.2465C63.8165 70.76 62.2152 69.8267 60.9257 68.5375C59.8696 67.4079 59.0547 66.075 58.5306 64.6201C58.0065 63.1652 57.7843 61.6188 57.8775 60.0752V58.6107C58.5466 58.4505 59.1584 58.1082 59.6449 57.6216C60.1314 57.135 60.4737 56.5232 60.6337 55.854H70.5133C70.6733 56.5234 71.0157 57.1352 71.5024 57.6218C71.989 58.1084 72.601 58.4507 73.2703 58.6107L73.2712 60.1204C73.355 61.6564 73.128 63.1935 72.604 64.6398C72.0799 66.086 71.2695 67.4117 70.2212 68.5375Z" fill="white"/>
<path d="M67.11 60.9122L64.8596 63.1634L64.037 62.3407C63.9574 62.2611 63.8629 62.198 63.759 62.1549C63.655 62.1119 63.5436 62.0897 63.4311 62.0897C63.3186 62.0897 63.2071 62.1119 63.1032 62.1549C62.9992 62.198 62.9048 62.2611 62.8252 62.3407C62.7456 62.4203 62.6825 62.5147 62.6394 62.6187C62.5964 62.7226 62.5742 62.8341 62.5742 62.9466C62.5742 63.0591 62.5964 63.1705 62.6394 63.2745C62.6825 63.3784 62.7456 63.4729 62.8252 63.5525L64.2537 64.981C64.3333 65.0606 64.4277 65.1237 64.5317 65.1668C64.6356 65.2099 64.7471 65.2321 64.8596 65.2321C64.9721 65.2321 65.0836 65.2099 65.1875 65.1668C65.2915 65.1237 65.3859 65.0606 65.4655 64.981L68.3217 62.1239C68.4768 61.9621 68.5624 61.746 68.56 61.5218C68.5577 61.2977 68.4676 61.0834 68.3091 60.9249C68.1506 60.7664 67.9363 60.6763 67.7121 60.6739C67.488 60.6715 67.2718 60.757 67.11 60.9122Z" fill="white"/>
</g>
<defs>
<filter id="filter0_d_3108_16851" x="0" y="6" width="102" height="106" filterUnits="userSpaceOnUse" color-interpolation-filters="sRGB">
<feFlood flood-opacity="0" result="BackgroundImageFix"/>
<feColorMatrix in="SourceAlpha" type="matrix" values="0 0 0 0 0 0 0 0 0 0 0 0 0 0 0 0 0 0 127 0" result="hardAlpha"/>
<feOffset dy="12"/>
<feGaussianBlur stdDeviation="4"/>
<feComposite in2="hardAlpha" operator="out"/>
<feColorMatrix type="matrix" values="0 0 0 0 0 0 0 0 0 0 0 0 0 0 0 0 0 0 0.5 0"/>
<feBlend mode="normal" in2="BackgroundImageFix" result="effect1_dropShadow_3108_16851"/>
<feBlend mode="normal" in="SourceGraphic" in2="effect1_dropShadow_3108_16851" result="shape"/>
</filter>
<clipPath id="clip0_3108_16851">
<rect width="48" height="48" fill="white" transform="translate(27 25)"/>
</clipPath>
</defs>
</svg>
