<svg width="24" height="24" viewBox="0 0 24 24" fill="none" xmlns="http://www.w3.org/2000/svg">
<path d="M13.168 0.000976562L16.049 0.0359766L16.265 0.0439766L16.961 0.0749766C18.237 0.130977 19.109 0.337977 19.874 0.632977C20.6746 0.933671 21.3998 1.40568 21.999 2.01598C22.6136 2.61294 23.0835 3.34254 23.373 4.14898C23.668 4.90798 23.875 5.78498 23.931 7.05998L24.001 10.845L24.002 11.689V12.005V12.321L24.001 13.165L23.968 16.042L23.956 16.366L23.931 16.95C23.875 18.225 23.668 19.097 23.373 19.861C23.068 20.648 22.655 21.319 21.989 21.985C21.3898 22.5953 20.6646 23.0673 19.864 23.368C19.104 23.663 18.227 23.87 16.951 23.926L16.366 23.951L16.042 23.963L12.618 23.997H11.388L7.96395 23.963L7.74895 23.955L7.05595 23.926C5.77995 23.87 4.90795 23.664 4.14295 23.368C3.34233 23.0673 2.61708 22.5953 2.01795 21.985C1.34695 21.319 0.938953 20.649 0.629953 19.857C0.334953 19.098 0.127953 18.221 0.0719531 16.946L0.0469531 16.362L0.0349531 16.038L0.00195312 13.161V10.841L0.0349531 7.96198L0.0429531 7.74598L0.0719531 7.05098C0.127953 5.77598 0.334953 4.90398 0.629953 4.13998C0.939953 3.35298 1.34795 2.68198 2.01795 2.01698C2.61715 1.4039 3.34356 0.92975 4.14595 0.627977C4.90595 0.332977 5.78295 0.126977 7.05895 0.0699766L10.847 0.000976562H13.168ZM12.319 2.16098H11.696H11.403L10.867 2.16198L8.04995 2.19498L7.83895 2.20298L7.15795 2.23198C5.98995 2.28398 5.35195 2.47998 4.92995 2.64398C4.40883 2.83482 3.93747 3.14074 3.55095 3.53898C3.15301 3.92554 2.84683 4.39643 2.65495 4.91698C2.49095 5.33898 2.29395 5.97198 2.24195 7.14398L2.21295 7.82398L2.20495 8.03498L2.17195 10.606L2.17095 11.11V11.386V12.594V12.87L2.17195 13.373L2.20095 15.837L2.20795 16.049L2.24095 16.837C2.29295 18.004 2.48995 18.642 2.65395 19.064C2.84522 19.5848 3.15148 20.0559 3.54995 20.442C3.93691 20.8397 4.40814 21.1455 4.92895 21.337C5.35095 21.501 5.98395 21.698 7.15695 21.75L7.83795 21.779L8.04895 21.787L11.402 21.821H12.611L16.857 21.751C18.025 21.699 18.663 21.503 19.085 21.338C19.6061 21.1471 20.0774 20.8412 20.464 20.443C20.8619 20.0564 21.1681 19.5855 21.36 19.065C21.524 18.643 21.721 18.01 21.773 16.838L21.843 12.872V11.112L21.773 7.14498C21.721 5.97798 21.524 5.33998 21.36 4.91798C21.1687 4.39712 20.8624 3.9261 20.464 3.53998C20.077 3.14227 19.6058 2.83643 19.085 2.64498C18.663 2.48098 18.03 2.28398 16.857 2.23298L16.176 2.20398L15.965 2.19598L13.148 2.16298L12.612 2.16198H12.007L12.319 2.16098ZM12.007 5.83598C13.642 5.83651 15.2099 6.48597 16.3664 7.64171C17.5229 8.79746 18.1734 10.365 18.175 12C18.1734 13.635 17.5229 15.2025 16.3664 16.3582C15.2099 17.514 13.642 18.1634 12.007 18.164C10.372 18.1634 8.80401 17.514 7.64752 16.3582C6.49102 15.2025 5.84054 13.635 5.83895 12C5.84054 10.365 6.49102 8.79746 7.64752 7.64171C8.80401 6.48597 10.372 5.83651 12.007 5.83598ZM12.007 8.00198C10.9463 8.00171 9.92889 8.42275 9.17859 9.17249C8.42828 9.92223 8.00648 10.9393 8.00595 12C8.00595 12.5254 8.10944 13.0457 8.31051 13.5311C8.51158 14.0165 8.80629 14.4576 9.17782 14.8291C9.54935 15.2006 9.99041 15.4953 10.4758 15.6964C10.9613 15.8975 11.4815 16.001 12.007 16.001C12.5324 16.001 13.0526 15.8975 13.5381 15.6964C14.0235 15.4953 14.4646 15.2006 14.8361 14.8291C15.2076 14.4576 15.5023 14.0165 15.7034 13.5311C15.9045 13.0457 16.008 12.5254 16.008 12C16.0074 10.9393 15.5856 9.92223 14.8353 9.17249C14.085 8.42275 13.0676 8.00171 12.007 8.00198ZM18.419 4.15398C19.212 4.15398 19.859 4.80098 19.859 5.59298C19.8587 5.97472 19.7069 6.34073 19.4368 6.61056C19.1668 6.8804 18.8007 7.03198 18.419 7.03198C18.0372 7.03198 17.6711 6.8804 17.4011 6.61056C17.131 6.34073 16.9792 5.97472 16.979 5.59298C16.9792 5.21124 17.131 4.84523 17.4011 4.57539C17.6711 4.30555 18.0372 4.15398 18.419 4.15398Z" fill="#EAEDFF"/>
</svg>
