<svg width="532" height="276" viewBox="0 0 532 276" fill="none" xmlns="http://www.w3.org/2000/svg">
<g clip-path="url(#clip0_3108_16140)">
<rect x="0.5" width="531" height="276" rx="16" fill="url(#paint0_linear_3108_16140)"/>
<circle cx="265.979" cy="137.979" r="216.979" fill="#080D27" stroke="#344679" stroke-width="2"/>
<mask id="mask0_3108_16140" style="mask-type:alpha" maskUnits="userSpaceOnUse" x="56" y="-71" width="419" height="419">
<circle cx="265.523" cy="138.357" r="208.562" fill="#141414" stroke="#242424"/>
</mask>
<g mask="url(#mask0_3108_16140)">
<line x1="198.035" y1="-177.836" x2="-40.0293" y2="234.503" stroke="#1D295D"/>
<line x1="200.499" y1="-176.41" x2="-37.5644" y2="235.929" stroke="#1D295D"/>
<line x1="202.968" y1="-174.984" x2="-35.0957" y2="237.354" stroke="#1D295D"/>
<line x1="205.441" y1="-173.559" x2="-32.623" y2="238.78" stroke="#1D295D"/>
<line x1="207.908" y1="-172.135" x2="-30.1562" y2="240.204" stroke="#1D295D"/>
<line x1="210.378" y1="-170.709" x2="-27.6855" y2="241.63" stroke="#1D295D"/>
<line x1="212.845" y1="-169.283" x2="-25.2187" y2="243.055" stroke="#1D295D"/>
<line x1="215.316" y1="-167.857" x2="-22.748" y2="244.481" stroke="#1D295D"/>
<line x1="217.783" y1="-166.432" x2="-20.2812" y2="245.907" stroke="#1D295D"/>
<line x1="220.251" y1="-165.006" x2="-17.8125" y2="247.333" stroke="#1D295D"/>
<line x1="222.72" y1="-163.582" x2="-15.3437" y2="248.757" stroke="#1D295D"/>
<line x1="225.189" y1="-162.156" x2="-12.875" y2="250.182" stroke="#1D295D"/>
<line x1="227.662" y1="-160.73" x2="-10.4023" y2="251.608" stroke="#1D295D"/>
<line x1="230.13" y1="-159.305" x2="-7.93356" y2="253.034" stroke="#1D295D"/>
<line x1="232.597" y1="-157.879" x2="-5.46677" y2="254.46" stroke="#1D295D"/>
<line x1="235.068" y1="-156.453" x2="-2.99606" y2="255.886" stroke="#1D295D"/>
<line x1="237.535" y1="-155.029" x2="-0.529268" y2="257.309" stroke="#1D295D"/>
<line x1="240.007" y1="-153.604" x2="1.94339" y2="258.735" stroke="#1D295D"/>
<line x1="242.472" y1="-152.178" x2="4.40823" y2="260.161" stroke="#1D295D"/>
<line x1="244.941" y1="-150.752" x2="6.87698" y2="261.587" stroke="#1D295D"/>
<line x1="247.412" y1="-149.326" x2="9.34769" y2="263.012" stroke="#1D295D"/>
<line x1="249.88" y1="-147.9" x2="11.8164" y2="264.438" stroke="#1D295D"/>
<line x1="252.349" y1="-146.477" x2="14.2852" y2="265.862" stroke="#1D295D"/>
<line x1="254.818" y1="-145.051" x2="16.7539" y2="267.288" stroke="#1D295D"/>
<line x1="257.29" y1="-143.625" x2="19.2266" y2="268.714" stroke="#1D295D"/>
<line x1="259.753" y1="-142.199" x2="21.6895" y2="270.139" stroke="#1D295D"/>
<line x1="262.224" y1="-140.773" x2="24.1602" y2="271.565" stroke="#1D295D"/>
<line x1="264.693" y1="-139.348" x2="26.6289" y2="272.991" stroke="#1D295D"/>
<line x1="267.162" y1="-137.924" x2="29.0977" y2="274.415" stroke="#1D295D"/>
<line x1="269.634" y1="-136.498" x2="31.5703" y2="275.841" stroke="#1D295D"/>
<line x1="272.101" y1="-135.072" x2="34.0371" y2="277.266" stroke="#1D295D"/>
<line x1="274.568" y1="-133.646" x2="36.5039" y2="278.692" stroke="#1D295D"/>
<line x1="277.038" y1="-132.221" x2="38.9746" y2="280.118" stroke="#1D295D"/>
<line x1="279.505" y1="-130.795" x2="41.4414" y2="281.544" stroke="#1D295D"/>
<line x1="281.976" y1="-129.373" x2="43.9121" y2="282.966" stroke="#1D295D"/>
<line x1="284.445" y1="-127.947" x2="46.3809" y2="284.391" stroke="#1D295D"/>
<line x1="286.91" y1="-126.521" x2="48.8457" y2="285.817" stroke="#1D295D"/>
<line x1="289.38" y1="-125.096" x2="51.3164" y2="287.243" stroke="#1D295D"/>
<line x1="291.849" y1="-123.67" x2="53.7852" y2="288.669" stroke="#1D295D"/>
<line x1="294.32" y1="-122.244" x2="56.2559" y2="290.095" stroke="#1D295D"/>
<line x1="296.787" y1="-120.82" x2="58.7227" y2="291.518" stroke="#1D295D"/>
<line x1="299.259" y1="-119.395" x2="61.1953" y2="292.944" stroke="#1D295D"/>
<line x1="301.726" y1="-117.969" x2="63.6621" y2="294.37" stroke="#1D295D"/>
<line x1="304.195" y1="-116.543" x2="66.1309" y2="295.796" stroke="#1D295D"/>
<line x1="306.662" y1="-115.117" x2="68.5977" y2="297.221" stroke="#1D295D"/>
<line x1="309.128" y1="-113.691" x2="71.0645" y2="298.647" stroke="#1D295D"/>
<line x1="311.601" y1="-112.268" x2="73.5371" y2="300.071" stroke="#1D295D"/>
<line x1="314.07" y1="-110.842" x2="76.0059" y2="301.497" stroke="#1D295D"/>
<line x1="316.538" y1="-109.416" x2="78.4746" y2="302.923" stroke="#1D295D"/>
<line x1="319.007" y1="-107.99" x2="80.9434" y2="304.348" stroke="#1D295D"/>
<line x1="321.476" y1="-106.564" x2="83.4121" y2="305.774" stroke="#1D295D"/>
<line x1="323.949" y1="-105.141" x2="85.8848" y2="307.198" stroke="#1D295D"/>
<line x1="326.413" y1="-103.715" x2="88.3496" y2="308.624" stroke="#1D295D"/>
<line x1="328.882" y1="-102.289" x2="90.8184" y2="310.05" stroke="#1D295D"/>
<line x1="331.353" y1="-100.863" x2="93.2891" y2="311.475" stroke="#1D295D"/>
<line x1="333.822" y1="-99.4375" x2="95.7578" y2="312.901" stroke="#1D295D"/>
<line x1="336.29" y1="-98.0137" x2="98.2266" y2="314.325" stroke="#1D295D"/>
<line x1="338.759" y1="-96.5879" x2="100.695" y2="315.751" stroke="#1D295D"/>
<line x1="341.232" y1="-95.1621" x2="103.168" y2="317.177" stroke="#1D295D"/>
<line x1="343.697" y1="-93.7363" x2="105.633" y2="318.602" stroke="#1D295D"/>
<line x1="346.165" y1="-92.3105" x2="108.102" y2="320.028" stroke="#1D295D"/>
<line x1="348.634" y1="-90.8848" x2="110.57" y2="321.454" stroke="#1D295D"/>
<line x1="351.103" y1="-89.459" x2="113.039" y2="322.88" stroke="#1D295D"/>
<line x1="353.576" y1="-88.0352" x2="115.512" y2="324.303" stroke="#1D295D"/>
<line x1="356.042" y1="-86.6094" x2="117.979" y2="325.729" stroke="#1D295D"/>
<line x1="358.509" y1="-85.1836" x2="120.445" y2="327.155" stroke="#1D295D"/>
<line x1="360.98" y1="-83.7578" x2="122.916" y2="328.581" stroke="#1D295D"/>
<line x1="363.449" y1="-82.334" x2="125.385" y2="330.005" stroke="#1D295D"/>
<line x1="365.925" y1="-80.9102" x2="127.861" y2="331.428" stroke="#1D295D"/>
<line x1="368.394" y1="-79.4844" x2="130.33" y2="332.854" stroke="#1D295D"/>
<line x1="370.859" y1="-78.0586" x2="132.795" y2="334.28" stroke="#1D295D"/>
<line x1="373.328" y1="-76.6328" x2="135.264" y2="335.706" stroke="#1D295D"/>
<line x1="375.798" y1="-75.207" x2="137.734" y2="337.132" stroke="#1D295D"/>
<line x1="378.269" y1="-73.7832" x2="140.205" y2="338.555" stroke="#1D295D"/>
<line x1="380.736" y1="-72.3574" x2="142.672" y2="339.981" stroke="#1D295D"/>
<line x1="383.208" y1="-70.9316" x2="145.145" y2="341.407" stroke="#1D295D"/>
<line x1="385.675" y1="-69.5059" x2="147.611" y2="342.833" stroke="#1D295D"/>
<line x1="388.144" y1="-68.0801" x2="150.08" y2="344.259" stroke="#1D295D"/>
<line x1="390.611" y1="-66.6543" x2="152.547" y2="345.684" stroke="#1D295D"/>
<line x1="393.079" y1="-65.2285" x2="155.016" y2="347.11" stroke="#1D295D"/>
<line x1="395.552" y1="-63.8047" x2="157.488" y2="348.534" stroke="#1D295D"/>
<line x1="398.019" y1="-62.3789" x2="159.955" y2="349.96" stroke="#1D295D"/>
<line x1="400.486" y1="-60.9531" x2="162.422" y2="351.386" stroke="#1D295D"/>
<line x1="402.954" y1="-59.5273" x2="164.891" y2="352.811" stroke="#1D295D"/>
<line x1="405.425" y1="-58.1035" x2="167.361" y2="354.235" stroke="#1D295D"/>
<line x1="407.894" y1="-56.6758" x2="169.83" y2="355.663" stroke="#1D295D"/>
<line x1="410.359" y1="-55.25" x2="172.295" y2="357.089" stroke="#1D295D"/>
<line x1="412.828" y1="-53.8242" x2="174.764" y2="358.514" stroke="#1D295D"/>
<line x1="415.298" y1="-52.3984" x2="177.234" y2="359.94" stroke="#1D295D"/>
<line x1="417.767" y1="-50.9727" x2="179.703" y2="361.366" stroke="#1D295D"/>
<line x1="420.236" y1="-49.5488" x2="182.172" y2="362.79" stroke="#1D295D"/>
<line x1="422.704" y1="-48.123" x2="184.641" y2="364.216" stroke="#1D295D"/>
<line x1="425.177" y1="-46.6973" x2="187.113" y2="365.641" stroke="#1D295D"/>
<line x1="427.642" y1="-45.2715" x2="189.578" y2="367.067" stroke="#1D295D"/>
<line x1="430.111" y1="-43.8457" x2="192.047" y2="368.493" stroke="#1D295D"/>
<line x1="432.579" y1="-42.4199" x2="194.516" y2="369.919" stroke="#1D295D"/>
<line x1="435.048" y1="-40.9961" x2="196.984" y2="371.343" stroke="#1D295D"/>
<line x1="437.521" y1="-39.5703" x2="199.457" y2="372.768" stroke="#1D295D"/>
<line x1="439.988" y1="-38.1445" x2="201.924" y2="374.194" stroke="#1D295D"/>
<line x1="442.454" y1="-36.7187" x2="204.391" y2="375.62" stroke="#1D295D"/>
<line x1="444.925" y1="-35.293" x2="206.861" y2="377.046" stroke="#1D295D"/>
<line x1="447.394" y1="-33.8691" x2="209.33" y2="378.47" stroke="#1D295D"/>
<line x1="449.863" y1="-32.4434" x2="211.799" y2="379.895" stroke="#1D295D"/>
<line x1="452.329" y1="-31.0176" x2="214.266" y2="381.321" stroke="#1D295D"/>
<line x1="454.796" y1="-29.5918" x2="216.732" y2="382.747" stroke="#1D295D"/>
<line x1="457.267" y1="-28.166" x2="219.203" y2="384.173" stroke="#1D295D"/>
<line x1="459.736" y1="-26.7422" x2="221.672" y2="385.596" stroke="#1D295D"/>
<line x1="462.204" y1="-25.3164" x2="224.141" y2="387.022" stroke="#1D295D"/>
<line x1="464.673" y1="-23.8906" x2="226.609" y2="388.448" stroke="#1D295D"/>
<line x1="467.144" y1="-22.4648" x2="229.08" y2="389.874" stroke="#1D295D"/>
<line x1="469.611" y1="-21.0391" x2="231.547" y2="391.3" stroke="#1D295D"/>
<line x1="472.081" y1="-19.6152" x2="234.018" y2="392.723" stroke="#1D295D"/>
<line x1="474.548" y1="-18.1895" x2="236.484" y2="394.149" stroke="#1D295D"/>
<line x1="477.017" y1="-16.7637" x2="238.953" y2="395.575" stroke="#1D295D"/>
<line x1="479.49" y1="-15.3379" x2="241.426" y2="397.001" stroke="#1D295D"/>
<line x1="481.956" y1="-13.9121" x2="243.893" y2="398.427" stroke="#1D295D"/>
<line x1="484.425" y1="-12.4863" x2="246.361" y2="399.852" stroke="#1D295D"/>
<line x1="486.896" y1="-11.0625" x2="248.832" y2="401.276" stroke="#1D295D"/>
<line x1="489.363" y1="-9.63672" x2="251.299" y2="402.702" stroke="#1D295D"/>
<line x1="491.837" y1="-8.21289" x2="253.773" y2="404.126" stroke="#1D295D"/>
<line x1="494.302" y1="-6.78711" x2="256.238" y2="405.552" stroke="#1D295D"/>
<line x1="496.771" y1="-5.36133" x2="258.707" y2="406.977" stroke="#1D295D"/>
<line x1="499.242" y1="-3.93555" x2="261.178" y2="408.403" stroke="#1D295D"/>
<line x1="501.71" y1="-2.50977" x2="263.647" y2="409.829" stroke="#1D295D"/>
<line x1="504.181" y1="-1.08594" x2="266.117" y2="411.253" stroke="#1D295D"/>
<line x1="506.648" y1="0.339844" x2="268.584" y2="412.678" stroke="#1D295D"/>
<line x1="509.121" y1="1.76563" x2="271.057" y2="414.104" stroke="#1D295D"/>
<line x1="511.585" y1="3.19141" x2="273.522" y2="415.53" stroke="#1D295D"/>
<line x1="514.054" y1="4.61719" x2="275.99" y2="416.956" stroke="#1D295D"/>
<line x1="516.523" y1="6.04297" x2="278.459" y2="418.382" stroke="#1D295D"/>
<line x1="518.992" y1="7.4668" x2="280.928" y2="419.805" stroke="#1D295D"/>
<line x1="521.464" y1="8.89258" x2="283.4" y2="421.231" stroke="#1D295D"/>
<line x1="523.931" y1="10.3184" x2="285.867" y2="422.657" stroke="#1D295D"/>
<line x1="526.398" y1="11.7441" x2="288.334" y2="424.083" stroke="#1D295D"/>
<line x1="528.869" y1="13.1699" x2="290.805" y2="425.509" stroke="#1D295D"/>
<line x1="531.337" y1="14.5938" x2="293.273" y2="426.932" stroke="#1D295D"/>
<line x1="533.806" y1="16.0195" x2="295.742" y2="428.358" stroke="#1D295D"/>
<line x1="536.275" y1="17.4453" x2="298.211" y2="429.784" stroke="#1D295D"/>
<line x1="538.744" y1="18.8711" x2="300.68" y2="431.21" stroke="#1D295D"/>
<line x1="541.21" y1="20.2969" x2="303.147" y2="432.636" stroke="#1D295D"/>
<line x1="543.679" y1="21.7227" x2="305.615" y2="434.061" stroke="#1D295D"/>
<line x1="546.148" y1="23.1465" x2="308.084" y2="435.485" stroke="#1D295D"/>
<line x1="548.617" y1="24.5723" x2="310.553" y2="436.911" stroke="#1D295D"/>
<line x1="551.089" y1="25.998" x2="313.025" y2="438.337" stroke="#1D295D"/>
<line x1="553.554" y1="27.4238" x2="315.49" y2="439.762" stroke="#1D295D"/>
<line x1="556.025" y1="28.8496" x2="317.961" y2="441.188" stroke="#1D295D"/>
<line x1="558.496" y1="30.2734" x2="320.432" y2="442.612" stroke="#1D295D"/>
<line x1="560.96" y1="31.6992" x2="322.897" y2="444.038" stroke="#1D295D"/>
<line x1="563.433" y1="33.125" x2="325.369" y2="445.464" stroke="#1D295D"/>
<line x1="565.9" y1="34.5508" x2="327.836" y2="446.889" stroke="#1D295D"/>
<line x1="568.367" y1="35.9766" x2="330.303" y2="448.315" stroke="#1D295D"/>
<line x1="570.837" y1="37.4023" x2="332.773" y2="449.741" stroke="#1D295D"/>
<line x1="573.306" y1="38.8262" x2="335.242" y2="451.165" stroke="#1D295D"/>
</g>
<line x1="266.516" y1="-175.73" x2="266.516" y2="451.455" stroke="#344679"/>
<path opacity="0.5" d="M385.5 138C385.5 204.274 331.774 258 265.5 258C199.226 258 145.5 204.274 145.5 138C145.5 71.7258 199.226 18 265.5 18C331.774 18 385.5 71.7258 385.5 138Z" fill="#080D27"/>
<path d="M25.508 23.832C26.6813 23.832 27.7107 24.0613 28.596 24.52C29.492 24.9787 30.18 25.6347 30.66 26.488C31.1507 27.3307 31.396 28.312 31.396 29.432C31.396 30.552 31.1507 31.5333 30.66 32.376C30.18 33.208 29.492 33.8533 28.596 34.312C27.7107 34.7707 26.6813 35 25.508 35H21.604V23.832H25.508ZM25.428 33.096C26.6013 33.096 27.508 32.776 28.148 32.136C28.788 31.496 29.108 30.5947 29.108 29.432C29.108 28.2693 28.788 27.3627 28.148 26.712C27.508 26.0507 26.6013 25.72 25.428 25.72H23.844V33.096H25.428ZM32.4967 30.536C32.4967 29.64 32.6727 28.8453 33.0247 28.152C33.3874 27.4587 33.8728 26.9253 34.4808 26.552C35.0994 26.1787 35.7874 25.992 36.5448 25.992C37.2061 25.992 37.7821 26.1253 38.2728 26.392C38.7741 26.6587 39.1741 26.9947 39.4728 27.4V26.136H41.7288V35H39.4728V33.704C39.1848 34.12 38.7848 34.4667 38.2728 34.744C37.7714 35.0107 37.1901 35.144 36.5288 35.144C35.7821 35.144 35.0994 34.952 34.4808 34.568C33.8728 34.184 33.3874 33.6453 33.0247 32.952C32.6727 32.248 32.4967 31.4427 32.4967 30.536ZM39.4728 30.568C39.4728 30.024 39.3661 29.56 39.1528 29.176C38.9394 28.7813 38.6514 28.4827 38.2888 28.28C37.9261 28.0667 37.5368 27.96 37.1208 27.96C36.7048 27.96 36.3208 28.0613 35.9688 28.264C35.6168 28.4667 35.3288 28.7653 35.1048 29.16C34.8914 29.544 34.7848 30.0027 34.7848 30.536C34.7848 31.0693 34.8914 31.5387 35.1048 31.944C35.3288 32.3387 35.6168 32.6427 35.9688 32.856C36.3314 33.0693 36.7154 33.176 37.1208 33.176C37.5368 33.176 37.9261 33.0747 38.2888 32.872C38.6514 32.6587 38.9394 32.36 39.1528 31.976C39.3661 31.5813 39.4728 31.112 39.4728 30.568ZM45.0525 25.08C44.6578 25.08 44.3272 24.9573 44.0605 24.712C43.8045 24.456 43.6765 24.1413 43.6765 23.768C43.6765 23.3947 43.8045 23.0853 44.0605 22.84C44.3272 22.584 44.6578 22.456 45.0525 22.456C45.4472 22.456 45.7725 22.584 46.0285 22.84C46.2952 23.0853 46.4285 23.3947 46.4285 23.768C46.4285 24.1413 46.2952 24.456 46.0285 24.712C45.7725 24.9573 45.4472 25.08 45.0525 25.08ZM46.1565 26.136V35H43.9165V26.136H46.1565ZM50.6096 23.16V35H48.3696V23.16H50.6096ZM61.3028 26.136L55.8148 39.192H53.4308L55.3508 34.776L51.7988 26.136H54.3108L56.5988 32.328L58.9188 26.136H61.3028ZM70.2268 23.832C71.4001 23.832 72.4294 24.0613 73.3148 24.52C74.2108 24.9787 74.8988 25.6347 75.3788 26.488C75.8694 27.3307 76.1148 28.312 76.1148 29.432C76.1148 30.552 75.8694 31.5333 75.3788 32.376C74.8988 33.208 74.2108 33.8533 73.3148 34.312C72.4294 34.7707 71.4001 35 70.2268 35H66.3228V23.832H70.2268ZM70.1468 33.096C71.3201 33.096 72.2268 32.776 72.8668 32.136C73.5068 31.496 73.8268 30.5947 73.8268 29.432C73.8268 28.2693 73.5068 27.3627 72.8668 26.712C72.2268 26.0507 71.3201 25.72 70.1468 25.72H68.5628V33.096H70.1468ZM78.9275 25.08C78.5328 25.08 78.2022 24.9573 77.9355 24.712C77.6795 24.456 77.5515 24.1413 77.5515 23.768C77.5515 23.3947 77.6795 23.0853 77.9355 22.84C78.2022 22.584 78.5328 22.456 78.9275 22.456C79.3222 22.456 79.6475 22.584 79.9035 22.84C80.1702 23.0853 80.3035 23.3947 80.3035 23.768C80.3035 24.1413 80.1702 24.456 79.9035 24.712C79.6475 24.9573 79.3222 25.08 78.9275 25.08ZM80.0315 26.136V35H77.7915V26.136H80.0315ZM85.6366 35.144C84.9113 35.144 84.2606 35.016 83.6846 34.76C83.1086 34.4933 82.65 34.136 82.3086 33.688C81.978 33.24 81.7966 32.744 81.7646 32.2H84.0206C84.0633 32.5413 84.2286 32.824 84.5166 33.048C84.8153 33.272 85.1833 33.384 85.6206 33.384C86.0473 33.384 86.378 33.2987 86.6126 33.128C86.858 32.9573 86.9806 32.7387 86.9806 32.472C86.9806 32.184 86.8313 31.9707 86.5326 31.832C86.2446 31.6827 85.7806 31.5227 85.1406 31.352C84.4793 31.192 83.9353 31.0267 83.5086 30.856C83.0926 30.6853 82.73 30.424 82.4206 30.072C82.122 29.72 81.9726 29.2453 81.9726 28.648C81.9726 28.1573 82.1113 27.7093 82.3886 27.304C82.6766 26.8987 83.082 26.5787 83.6046 26.344C84.138 26.1093 84.762 25.992 85.4766 25.992C86.5326 25.992 87.3753 26.2587 88.0046 26.792C88.634 27.3147 88.9806 28.024 89.0446 28.92H86.9006C86.8686 28.568 86.7193 28.2907 86.4526 28.088C86.1966 27.8747 85.85 27.768 85.4126 27.768C85.0073 27.768 84.6926 27.8427 84.4686 27.992C84.2553 28.1413 84.1486 28.3493 84.1486 28.616C84.1486 28.9147 84.298 29.144 84.5966 29.304C84.8953 29.4533 85.3593 29.608 85.9886 29.768C86.6286 29.928 87.1566 30.0933 87.5726 30.264C87.9886 30.4347 88.346 30.7013 88.6446 31.064C88.954 31.416 89.114 31.8853 89.1246 32.472C89.1246 32.984 88.9806 33.4427 88.6926 33.848C88.4153 34.2533 88.01 34.5733 87.4766 34.808C86.954 35.032 86.3406 35.144 85.6366 35.144ZM93.5714 27.976V32.264C93.5714 32.5627 93.6407 32.7813 93.7794 32.92C93.9287 33.048 94.174 33.112 94.5154 33.112H95.5554V35H94.1474C92.2594 35 91.3154 34.0827 91.3154 32.248V27.976H90.2594V26.136H91.3154V23.944H93.5714V26.136H95.5554V27.976H93.5714ZM99.4065 27.512C99.6945 27.0427 100.068 26.6747 100.527 26.408C100.996 26.1413 101.529 26.008 102.127 26.008V28.36H101.535C100.831 28.36 100.297 28.5253 99.9345 28.856C99.5825 29.1867 99.4065 29.7627 99.4065 30.584V35H97.1665V26.136H99.4065V27.512ZM104.771 25.08C104.377 25.08 104.046 24.9573 103.779 24.712C103.523 24.456 103.395 24.1413 103.395 23.768C103.395 23.3947 103.523 23.0853 103.779 22.84C104.046 22.584 104.377 22.456 104.771 22.456C105.166 22.456 105.491 22.584 105.747 22.84C106.014 23.0853 106.147 23.3947 106.147 23.768C106.147 24.1413 106.014 24.456 105.747 24.712C105.491 24.9573 105.166 25.08 104.771 25.08ZM105.875 26.136V35H103.635V26.136H105.875ZM110.328 27.432C110.616 27.0053 111.011 26.6587 111.512 26.392C112.024 26.1253 112.606 25.992 113.256 25.992C114.014 25.992 114.696 26.1787 115.304 26.552C115.923 26.9253 116.408 27.4587 116.76 28.152C117.123 28.8347 117.304 29.6293 117.304 30.536C117.304 31.4427 117.123 32.248 116.76 32.952C116.408 33.6453 115.923 34.184 115.304 34.568C114.696 34.952 114.014 35.144 113.256 35.144C112.595 35.144 112.014 35.016 111.512 34.76C111.022 34.4933 110.627 34.152 110.328 33.736V35H108.088V23.16H110.328V27.432ZM115.016 30.536C115.016 30.0027 114.904 29.544 114.68 29.16C114.467 28.7653 114.179 28.4667 113.816 28.264C113.464 28.0613 113.08 27.96 112.664 27.96C112.259 27.96 111.875 28.0667 111.512 28.28C111.16 28.4827 110.872 28.7813 110.648 29.176C110.435 29.5707 110.328 30.0347 110.328 30.568C110.328 31.1013 110.435 31.5653 110.648 31.96C110.872 32.3547 111.16 32.6587 111.512 32.872C111.875 33.0747 112.259 33.176 112.664 33.176C113.08 33.176 113.464 33.0693 113.816 32.856C114.179 32.6427 114.467 32.3387 114.68 31.944C114.904 31.5493 115.016 31.08 115.016 30.536ZM127.3 26.136V35H125.044V33.88C124.756 34.264 124.377 34.568 123.908 34.792C123.449 35.0053 122.948 35.112 122.404 35.112C121.711 35.112 121.097 34.968 120.564 34.68C120.031 34.3813 119.609 33.9493 119.3 33.384C119.001 32.808 118.852 32.1253 118.852 31.336V26.136H121.092V31.016C121.092 31.72 121.268 32.264 121.62 32.648C121.972 33.0213 122.452 33.208 123.06 33.208C123.679 33.208 124.164 33.0213 124.516 32.648C124.868 32.264 125.044 31.72 125.044 31.016V26.136H127.3ZM132.118 27.976V32.264C132.118 32.5627 132.188 32.7813 132.326 32.92C132.476 33.048 132.721 33.112 133.062 33.112H134.102V35H132.694C130.806 35 129.862 34.0827 129.862 32.248V27.976H128.806V26.136H129.862V23.944H132.118V26.136H134.102V27.976H132.118ZM136.849 25.08C136.455 25.08 136.124 24.9573 135.857 24.712C135.601 24.456 135.473 24.1413 135.473 23.768C135.473 23.3947 135.601 23.0853 135.857 22.84C136.124 22.584 136.455 22.456 136.849 22.456C137.244 22.456 137.569 22.584 137.825 22.84C138.092 23.0853 138.225 23.3947 138.225 23.768C138.225 24.1413 138.092 24.456 137.825 24.712C137.569 24.9573 137.244 25.08 136.849 25.08ZM137.953 26.136V35H135.713V26.136H137.953ZM144.103 35.144C143.249 35.144 142.481 34.9573 141.799 34.584C141.116 34.2 140.577 33.6613 140.183 32.968C139.799 32.2747 139.607 31.4747 139.607 30.568C139.607 29.6613 139.804 28.8613 140.199 28.168C140.604 27.4747 141.153 26.9413 141.847 26.568C142.54 26.184 143.313 25.992 144.167 25.992C145.02 25.992 145.793 26.184 146.487 26.568C147.18 26.9413 147.724 27.4747 148.119 28.168C148.524 28.8613 148.727 29.6613 148.727 30.568C148.727 31.4747 148.519 32.2747 148.102 32.968C147.697 33.6613 147.143 34.2 146.439 34.584C145.745 34.9573 144.967 35.144 144.103 35.144ZM144.103 33.192C144.508 33.192 144.887 33.096 145.239 32.904C145.601 32.7013 145.889 32.4027 146.103 32.008C146.316 31.6133 146.423 31.1333 146.423 30.568C146.423 29.7253 146.199 29.08 145.751 28.632C145.313 28.1733 144.775 27.944 144.135 27.944C143.495 27.944 142.956 28.1733 142.519 28.632C142.092 29.08 141.879 29.7253 141.879 30.568C141.879 31.4107 142.087 32.0613 142.503 32.52C142.929 32.968 143.463 33.192 144.103 33.192ZM155.282 26.008C156.338 26.008 157.191 26.344 157.842 27.016C158.492 27.6773 158.818 28.6053 158.818 29.8V35H156.578V30.104C156.578 29.4 156.402 28.8613 156.05 28.488C155.698 28.104 155.218 27.912 154.61 27.912C153.991 27.912 153.5 28.104 153.138 28.488C152.786 28.8613 152.61 29.4 152.61 30.104V35H150.37V26.136H152.61V27.24C152.908 26.856 153.287 26.5573 153.746 26.344C154.215 26.12 154.727 26.008 155.282 26.008Z" fill="#EAEDFF"/>
<path d="M387.516 72.28V74.944H391.416V76H386.4V67.6H391.356V68.656H387.516V71.236H391.056V72.28H387.516ZM395.919 70V71.008H394.323V74.26C394.323 74.556 394.379 74.768 394.491 74.896C394.611 75.016 394.791 75.08 395.031 75.088C395.271 75.088 395.567 75.08 395.919 75.064V76C394.999 76.12 394.327 76.044 393.903 75.772C393.487 75.5 393.279 74.996 393.279 74.26V71.008H392.091V70H393.279V68.632L394.323 68.32V70H395.919ZM400.143 69.844C400.847 69.844 401.411 70.068 401.835 70.516C402.259 70.956 402.471 71.556 402.471 72.316V76H401.427V72.376C401.427 71.896 401.295 71.52 401.031 71.248C400.767 70.976 400.403 70.84 399.939 70.84C399.403 70.84 398.979 71.008 398.667 71.344C398.355 71.672 398.199 72.164 398.199 72.82V76H397.155V67.6H398.199V70.864C398.615 70.184 399.263 69.844 400.143 69.844ZM409.689 73.48H404.661C404.765 74.008 405.009 74.424 405.393 74.728C405.777 75.024 406.257 75.172 406.833 75.172C407.625 75.172 408.201 74.88 408.561 74.296L409.449 74.8C408.857 75.704 407.977 76.156 406.809 76.156C405.865 76.156 405.089 75.86 404.481 75.268C403.889 74.66 403.593 73.904 403.593 73C403.593 72.088 403.885 71.336 404.469 70.744C405.053 70.144 405.809 69.844 406.737 69.844C407.617 69.844 408.333 70.156 408.885 70.78C409.445 71.388 409.725 72.132 409.725 73.012C409.725 73.164 409.713 73.32 409.689 73.48ZM406.737 70.828C406.185 70.828 405.721 70.984 405.345 71.296C404.977 71.608 404.749 72.032 404.661 72.568H408.669C408.581 72.016 408.361 71.588 408.009 71.284C407.657 70.98 407.233 70.828 406.737 70.828ZM411.969 70V71.008C412.313 70.264 412.937 69.892 413.841 69.892V70.984C413.329 70.96 412.889 71.096 412.521 71.392C412.153 71.688 411.969 72.164 411.969 72.82V76H410.925V70H411.969ZM420.294 73.48H415.266C415.37 74.008 415.614 74.424 415.998 74.728C416.382 75.024 416.862 75.172 417.438 75.172C418.23 75.172 418.806 74.88 419.166 74.296L420.054 74.8C419.462 75.704 418.582 76.156 417.414 76.156C416.47 76.156 415.694 75.86 415.086 75.268C414.494 74.66 414.198 73.904 414.198 73C414.198 72.088 414.49 71.336 415.074 70.744C415.658 70.144 416.414 69.844 417.342 69.844C418.222 69.844 418.938 70.156 419.49 70.78C420.05 71.388 420.33 72.132 420.33 73.012C420.33 73.164 420.318 73.32 420.294 73.48ZM417.342 70.828C416.79 70.828 416.326 70.984 415.95 71.296C415.582 71.608 415.354 72.032 415.266 72.568H419.274C419.186 72.016 418.966 71.588 418.614 71.284C418.262 70.98 417.838 70.828 417.342 70.828ZM425.67 73.18V70H426.714V76H425.67V75.136C425.254 75.816 424.606 76.156 423.726 76.156C423.022 76.156 422.458 75.936 422.034 75.496C421.61 75.048 421.398 74.444 421.398 73.684V70H422.442V73.624C422.442 74.104 422.574 74.48 422.838 74.752C423.102 75.024 423.466 75.16 423.93 75.16C424.466 75.16 424.89 74.996 425.202 74.668C425.514 74.332 425.67 73.836 425.67 73.18ZM434.784 69.844C435.464 69.844 436.008 70.064 436.416 70.504C436.832 70.944 437.04 71.532 437.04 72.268V76H435.996V72.304C435.996 71.848 435.876 71.492 435.636 71.236C435.404 70.972 435.084 70.84 434.676 70.84C434.212 70.84 433.848 70.996 433.584 71.308C433.328 71.612 433.2 72.064 433.2 72.664V76H432.156V72.304C432.156 71.848 432.04 71.492 431.808 71.236C431.584 70.972 431.276 70.84 430.884 70.84C430.428 70.84 430.056 71 429.768 71.32C429.488 71.632 429.348 72.08 429.348 72.664V76H428.304V70H429.348V70.804C429.756 70.164 430.352 69.844 431.136 69.844C431.944 69.844 432.532 70.184 432.9 70.864C433.316 70.184 433.944 69.844 434.784 69.844Z" fill="#C4CBF5"/>
<path d="M342 98.5L385.5 80.5H440" stroke="url(#paint1_linear_3108_16140)"/>
<path d="M378.792 183.18V177.6H379.908V183.132C379.908 183.732 380.084 184.204 380.436 184.548C380.796 184.892 381.3 185.064 381.948 185.064C382.596 185.064 383.096 184.892 383.448 184.548C383.808 184.204 383.988 183.732 383.988 183.132V177.6H385.092V183.18C385.092 184.092 384.8 184.816 384.216 185.352C383.632 185.888 382.876 186.156 381.948 186.156C381.012 186.156 380.252 185.888 379.668 185.352C379.084 184.816 378.792 184.092 378.792 183.18ZM389.51 186.156C388.726 186.156 388.054 185.976 387.494 185.616C386.942 185.248 386.554 184.74 386.33 184.092L387.29 183.54C387.61 184.556 388.358 185.064 389.534 185.064C390.102 185.064 390.538 184.948 390.842 184.716C391.154 184.484 391.31 184.168 391.31 183.768C391.31 183.376 391.158 183.076 390.854 182.868C390.582 182.684 390.074 182.472 389.33 182.232L388.526 181.968C388.35 181.896 388.118 181.792 387.83 181.656C387.55 181.512 387.346 181.368 387.218 181.224C386.866 180.84 386.69 180.372 386.69 179.82C386.69 179.084 386.946 178.508 387.458 178.092C387.97 177.66 388.594 177.444 389.33 177.444C389.986 177.444 390.562 177.608 391.058 177.936C391.554 178.264 391.926 178.712 392.174 179.28L391.238 179.82C390.878 178.956 390.242 178.524 389.33 178.524C388.874 178.524 388.506 178.636 388.226 178.86C387.946 179.084 387.806 179.388 387.806 179.772C387.806 180.14 387.938 180.42 388.202 180.612C388.474 180.812 388.93 181.012 389.57 181.212L390.062 181.368C390.334 181.472 390.482 181.528 390.506 181.536C390.762 181.632 391.042 181.764 391.346 181.932C391.562 182.052 391.778 182.236 391.994 182.484C392.274 182.764 392.414 183.184 392.414 183.744C392.414 184.48 392.146 185.068 391.61 185.508C391.066 185.94 390.366 186.156 389.51 186.156ZM393.677 177.6H396.953C398.089 177.6 399.037 178.008 399.797 178.824C400.557 179.632 400.937 180.624 400.937 181.8C400.937 182.968 400.557 183.964 399.797 184.788C399.037 185.596 398.089 186 396.953 186H393.677V177.6ZM394.793 184.944H396.953C397.809 184.944 398.509 184.644 399.053 184.044C399.597 183.436 399.869 182.688 399.869 181.8C399.869 180.912 399.597 180.164 399.053 179.556C398.509 178.956 397.809 178.656 396.953 178.656H394.793V184.944ZM401.126 177.6H407.186V178.656H404.702V186H403.598V178.656H401.126V177.6Z" fill="#C4CBF5"/>
<path d="M334 190.5H378H432.5" stroke="url(#paint2_linear_3108_16140)"/>
<path d="M180.802 238.644C181.194 238.836 181.502 239.104 181.726 239.448C181.95 239.792 182.062 240.184 182.062 240.624C182.062 241.296 181.826 241.86 181.354 242.316C180.882 242.772 180.306 243 179.626 243H176.002V234.6H179.362C180.026 234.6 180.582 234.82 181.03 235.26C181.486 235.7 181.714 236.244 181.714 236.892C181.714 237.644 181.41 238.228 180.802 238.644ZM179.362 235.644H177.118V238.212H179.362C179.714 238.212 180.01 238.088 180.25 237.84C180.49 237.592 180.61 237.288 180.61 236.928C180.61 236.576 180.486 236.276 180.238 236.028C179.998 235.772 179.706 235.644 179.362 235.644ZM177.118 241.956H179.626C180.002 241.956 180.318 241.824 180.574 241.56C180.83 241.296 180.958 240.972 180.958 240.588C180.958 240.212 180.826 239.892 180.562 239.628C180.314 239.364 180.002 239.232 179.626 239.232H177.118V241.956ZM188.604 240.864V234.6H189.72V243H188.82L184.5 236.724V243H183.384V234.6H184.284L188.604 240.864ZM196.317 238.644C196.709 238.836 197.017 239.104 197.241 239.448C197.465 239.792 197.577 240.184 197.577 240.624C197.577 241.296 197.341 241.86 196.869 242.316C196.397 242.772 195.821 243 195.141 243H191.517V234.6H194.877C195.541 234.6 196.097 234.82 196.545 235.26C197.001 235.7 197.229 236.244 197.229 236.892C197.229 237.644 196.925 238.228 196.317 238.644ZM194.877 235.644H192.633V238.212H194.877C195.229 238.212 195.525 238.088 195.765 237.84C196.005 237.592 196.125 237.288 196.125 236.928C196.125 236.576 196.001 236.276 195.753 236.028C195.513 235.772 195.221 235.644 194.877 235.644ZM192.633 241.956H195.141C195.517 241.956 195.833 241.824 196.089 241.56C196.345 241.296 196.473 240.972 196.473 240.588C196.473 240.212 196.341 239.892 196.077 239.628C195.829 239.364 195.517 239.232 195.141 239.232H192.633V241.956Z" fill="#C4CBF5"/>
<path d="M243 221L198 247.5H143.5" stroke="url(#paint3_linear_3108_16140)"/>
<path d="M138.276 193.156C137.492 193.156 136.82 192.976 136.26 192.616C135.708 192.248 135.32 191.74 135.096 191.092L136.056 190.54C136.376 191.556 137.124 192.064 138.3 192.064C138.868 192.064 139.304 191.948 139.608 191.716C139.92 191.484 140.076 191.168 140.076 190.768C140.076 190.376 139.924 190.076 139.62 189.868C139.348 189.684 138.84 189.472 138.096 189.232L137.292 188.968C137.116 188.896 136.884 188.792 136.596 188.656C136.316 188.512 136.112 188.368 135.984 188.224C135.632 187.84 135.456 187.372 135.456 186.82C135.456 186.084 135.712 185.508 136.224 185.092C136.736 184.66 137.36 184.444 138.096 184.444C138.752 184.444 139.328 184.608 139.824 184.936C140.32 185.264 140.692 185.712 140.94 186.28L140.004 186.82C139.644 185.956 139.008 185.524 138.096 185.524C137.64 185.524 137.272 185.636 136.992 185.86C136.712 186.084 136.572 186.388 136.572 186.772C136.572 187.14 136.704 187.42 136.968 187.612C137.24 187.812 137.696 188.012 138.336 188.212L138.828 188.368C139.1 188.472 139.248 188.528 139.272 188.536C139.528 188.632 139.808 188.764 140.112 188.932C140.328 189.052 140.544 189.236 140.76 189.484C141.04 189.764 141.18 190.184 141.18 190.744C141.18 191.48 140.912 192.068 140.376 192.508C139.832 192.94 139.132 193.156 138.276 193.156ZM141.999 188.8C141.999 187.584 142.419 186.556 143.259 185.716C144.099 184.868 145.127 184.444 146.343 184.444C147.559 184.444 148.587 184.868 149.427 185.716C150.275 186.556 150.699 187.584 150.699 188.8C150.699 190.008 150.275 191.036 149.427 191.884C148.587 192.732 147.559 193.156 146.343 193.156C145.127 193.156 144.099 192.732 143.259 191.884C142.419 191.028 141.999 190 141.999 188.8ZM149.583 188.8C149.583 187.872 149.271 187.096 148.647 186.472C148.039 185.84 147.271 185.524 146.343 185.524C145.423 185.524 144.651 185.84 144.027 186.472C143.411 187.104 143.103 187.88 143.103 188.8C143.103 189.712 143.411 190.488 144.027 191.128C144.651 191.752 145.423 192.064 146.343 192.064C147.271 192.064 148.039 191.752 148.647 191.128C149.271 190.488 149.583 189.712 149.583 188.8ZM153.157 184.6V191.944H156.781V193H152.041V184.6H153.157Z" fill="#C4CBF5"/>
<path d="M190.5 179.5L157 197.5H102.5" stroke="url(#paint4_linear_3108_16140)"/>
<path d="M127.684 135.168L130.384 139.5H129.112L127.048 136.188L124.984 139.5H123.724L126.424 135.18L123.88 131.1H125.14L127.048 134.16L128.956 131.1H130.216L127.684 135.168ZM137.702 139.5H136.466L134.582 136.284H132.602V139.5H131.486V131.1H134.846C135.566 131.1 136.182 131.356 136.694 131.868C137.206 132.372 137.462 132.984 137.462 133.704C137.462 134.248 137.298 134.744 136.97 135.192C136.634 135.648 136.218 135.964 135.722 136.14L137.702 139.5ZM134.846 132.144H132.602V135.276H134.846C135.262 135.276 135.614 135.124 135.902 134.82C136.198 134.516 136.346 134.144 136.346 133.704C136.346 133.264 136.198 132.896 135.902 132.6C135.614 132.296 135.262 132.144 134.846 132.144ZM138.822 131.1H141.87C142.638 131.1 143.282 131.36 143.802 131.88C144.322 132.4 144.582 133.04 144.582 133.8C144.582 134.56 144.322 135.2 143.802 135.72C143.282 136.24 142.638 136.5 141.87 136.5H139.938V139.5H138.822V131.1ZM139.938 135.456H141.87C142.342 135.456 142.726 135.3 143.022 134.988C143.326 134.66 143.478 134.264 143.478 133.8C143.478 133.32 143.326 132.924 143.022 132.612C142.718 132.3 142.334 132.144 141.87 132.144H139.938V135.456Z" fill="#C4CBF5"/>
<path d="M180.5 136.5L145 144H90.5" stroke="url(#paint5_linear_3108_16140)"/>
<path d="M88.8973 101.864V95.6H90.0133V104H89.1133L84.7933 97.724V104H83.6773V95.6H84.5773L88.8973 101.864ZM96.6702 99.032V98H97.7142V104H96.6702V102.968C96.1582 103.76 95.4022 104.156 94.4022 104.156C93.5542 104.156 92.8382 103.852 92.2542 103.244C91.6622 102.628 91.3662 101.88 91.3662 101C91.3662 100.128 91.6622 99.384 92.2542 98.768C92.8462 98.152 93.5622 97.844 94.4022 97.844C95.4022 97.844 96.1582 98.24 96.6702 99.032ZM94.5342 103.148C95.1422 103.148 95.6502 102.944 96.0582 102.536C96.4662 102.112 96.6702 101.6 96.6702 101C96.6702 100.392 96.4662 99.884 96.0582 99.476C95.6502 99.06 95.1422 98.852 94.5342 98.852C93.9342 98.852 93.4302 99.06 93.0222 99.476C92.6142 99.884 92.4102 100.392 92.4102 101C92.4102 101.6 92.6142 102.112 93.0222 102.536C93.4302 102.944 93.9342 103.148 94.5342 103.148ZM100.184 99.62C100.184 100.004 100.58 100.304 101.372 100.52C101.668 100.584 101.916 100.652 102.116 100.724C102.324 100.788 102.548 100.888 102.788 101.024C103.036 101.16 103.224 101.34 103.352 101.564C103.48 101.788 103.544 102.052 103.544 102.356C103.544 102.9 103.332 103.336 102.908 103.664C102.484 103.992 101.948 104.156 101.3 104.156C100.724 104.156 100.224 104.032 99.8002 103.784C99.3842 103.528 99.0882 103.184 98.9122 102.752L99.8122 102.236C99.9082 102.524 100.088 102.752 100.352 102.92C100.616 103.088 100.932 103.172 101.3 103.172C101.66 103.172 101.948 103.104 102.164 102.968C102.38 102.832 102.488 102.628 102.488 102.356C102.488 101.948 102.092 101.652 101.3 101.468C101.036 101.396 100.836 101.34 100.7 101.3C100.564 101.26 100.376 101.188 100.136 101.084C99.9042 100.98 99.7282 100.872 99.6082 100.76C99.4882 100.64 99.3762 100.484 99.2722 100.292C99.1762 100.092 99.1282 99.872 99.1282 99.632C99.1282 99.112 99.3282 98.684 99.7282 98.348C100.136 98.012 100.644 97.844 101.252 97.844C101.74 97.844 102.172 97.956 102.548 98.18C102.932 98.396 103.22 98.7 103.412 99.092L102.536 99.584C102.32 99.072 101.892 98.816 101.252 98.816C100.948 98.816 100.692 98.888 100.484 99.032C100.284 99.176 100.184 99.372 100.184 99.62ZM109.584 99.032V95.6H110.628V104H109.584V102.968C109.072 103.76 108.316 104.156 107.316 104.156C106.468 104.156 105.752 103.852 105.168 103.244C104.576 102.628 104.28 101.88 104.28 101C104.28 100.128 104.576 99.384 105.168 98.768C105.76 98.152 106.476 97.844 107.316 97.844C108.316 97.844 109.072 98.24 109.584 99.032ZM107.448 103.148C108.056 103.148 108.564 102.944 108.972 102.536C109.38 102.112 109.584 101.6 109.584 101C109.584 100.392 109.38 99.884 108.972 99.476C108.564 99.06 108.056 98.852 107.448 98.852C106.848 98.852 106.344 99.06 105.936 99.476C105.528 99.884 105.324 100.392 105.324 101C105.324 101.6 105.528 102.112 105.936 102.536C106.344 102.944 106.848 103.148 107.448 103.148ZM117.178 99.032V98H118.222V104H117.178V102.968C116.666 103.76 115.91 104.156 114.91 104.156C114.062 104.156 113.346 103.852 112.762 103.244C112.17 102.628 111.874 101.88 111.874 101C111.874 100.128 112.17 99.384 112.762 98.768C113.354 98.152 114.07 97.844 114.91 97.844C115.91 97.844 116.666 98.24 117.178 99.032ZM115.042 103.148C115.65 103.148 116.158 102.944 116.566 102.536C116.974 102.112 117.178 101.6 117.178 101C117.178 100.392 116.974 99.884 116.566 99.476C116.158 99.06 115.65 98.852 115.042 98.852C114.442 98.852 113.938 99.06 113.53 99.476C113.122 99.884 112.918 100.392 112.918 101C112.918 101.6 113.122 102.112 113.53 102.536C113.938 102.944 114.442 103.148 115.042 103.148ZM124.772 99.032V98H125.816V106.4H124.772V102.968C124.26 103.76 123.504 104.156 122.504 104.156C121.656 104.156 120.94 103.852 120.356 103.244C119.764 102.628 119.468 101.88 119.468 101C119.468 100.128 119.764 99.384 120.356 98.768C120.948 98.152 121.664 97.844 122.504 97.844C123.504 97.844 124.26 98.24 124.772 99.032ZM122.636 103.148C123.244 103.148 123.752 102.944 124.16 102.536C124.568 102.112 124.772 101.6 124.772 101C124.772 100.392 124.568 99.884 124.16 99.476C123.752 99.06 123.244 98.852 122.636 98.852C122.036 98.852 121.532 99.06 121.124 99.476C120.716 99.884 120.512 100.392 120.512 101C120.512 101.6 120.716 102.112 121.124 102.536C121.532 102.944 122.036 103.148 122.636 103.148ZM129.773 96.368L131.981 95.6H132.941V104H131.837V96.8L130.049 97.328L129.773 96.368ZM140.051 102.968C139.491 103.76 138.695 104.156 137.663 104.156C136.631 104.156 135.835 103.76 135.275 102.968C134.707 102.168 134.423 101.112 134.423 99.8C134.423 98.488 134.707 97.432 135.275 96.632C135.835 95.84 136.631 95.444 137.663 95.444C138.695 95.444 139.491 95.84 140.051 96.632C140.619 97.432 140.903 98.488 140.903 99.8C140.903 101.112 140.619 102.168 140.051 102.968ZM135.539 99.8C135.539 100.84 135.723 101.644 136.091 102.212C136.459 102.78 136.983 103.064 137.663 103.064C138.343 103.064 138.867 102.78 139.235 102.212C139.611 101.644 139.799 100.84 139.799 99.8C139.799 98.76 139.611 97.956 139.235 97.388C138.867 96.812 138.343 96.524 137.663 96.524C136.983 96.524 136.459 96.808 136.091 97.376C135.723 97.944 135.539 98.752 135.539 99.8ZM147.609 102.968C147.049 103.76 146.253 104.156 145.221 104.156C144.189 104.156 143.393 103.76 142.833 102.968C142.265 102.168 141.981 101.112 141.981 99.8C141.981 98.488 142.265 97.432 142.833 96.632C143.393 95.84 144.189 95.444 145.221 95.444C146.253 95.444 147.049 95.84 147.609 96.632C148.177 97.432 148.461 98.488 148.461 99.8C148.461 101.112 148.177 102.168 147.609 102.968ZM143.097 99.8C143.097 100.84 143.281 101.644 143.649 102.212C144.017 102.78 144.541 103.064 145.221 103.064C145.901 103.064 146.425 102.78 146.793 102.212C147.169 101.644 147.357 100.84 147.357 99.8C147.357 98.76 147.169 97.956 146.793 97.388C146.425 96.812 145.901 96.524 145.221 96.524C144.541 96.524 144.017 96.808 143.649 97.376C143.281 97.944 143.097 98.752 143.097 99.8Z" fill="#C4CBF5"/>
<path d="M184.5 114L149 108.5H94.5" stroke="url(#paint6_linear_3108_16140)"/>
<path d="M127.358 65.156C126.574 65.156 125.902 64.976 125.342 64.616C124.79 64.248 124.402 63.74 124.178 63.092L125.138 62.54C125.458 63.556 126.206 64.064 127.382 64.064C127.95 64.064 128.386 63.948 128.69 63.716C129.002 63.484 129.158 63.168 129.158 62.768C129.158 62.376 129.006 62.076 128.702 61.868C128.43 61.684 127.922 61.472 127.178 61.232L126.374 60.968C126.198 60.896 125.966 60.792 125.678 60.656C125.398 60.512 125.194 60.368 125.066 60.224C124.714 59.84 124.538 59.372 124.538 58.82C124.538 58.084 124.794 57.508 125.306 57.092C125.818 56.66 126.442 56.444 127.178 56.444C127.834 56.444 128.41 56.608 128.906 56.936C129.402 57.264 129.774 57.712 130.022 58.28L129.086 58.82C128.726 57.956 128.09 57.524 127.178 57.524C126.722 57.524 126.354 57.636 126.074 57.86C125.794 58.084 125.654 58.388 125.654 58.772C125.654 59.14 125.786 59.42 126.05 59.612C126.322 59.812 126.778 60.012 127.418 60.212L127.91 60.368C128.182 60.472 128.33 60.528 128.354 60.536C128.61 60.632 128.89 60.764 129.194 60.932C129.41 61.052 129.626 61.236 129.842 61.484C130.122 61.764 130.262 62.184 130.262 62.744C130.262 63.48 129.994 64.068 129.458 64.508C128.914 64.94 128.214 65.156 127.358 65.156ZM137.107 63.464L138.223 64.652L137.287 65.192L136.435 64.28C135.819 64.864 135.019 65.156 134.035 65.156C133.187 65.156 132.507 64.94 131.995 64.508C131.475 64.06 131.215 63.468 131.215 62.732C131.215 62.212 131.347 61.74 131.611 61.316C131.875 60.884 132.255 60.548 132.751 60.308C132.391 59.852 132.211 59.344 132.211 58.784C132.211 58.088 132.451 57.524 132.931 57.092C133.427 56.66 134.011 56.444 134.683 56.444C135.243 56.444 135.751 56.6 136.207 56.912C136.663 57.216 136.991 57.632 137.191 58.16L136.255 58.7C136.135 58.332 135.935 58.044 135.655 57.836C135.383 57.628 135.067 57.524 134.707 57.524C134.315 57.524 133.987 57.644 133.723 57.884C133.459 58.116 133.327 58.412 133.327 58.772C133.327 59.02 133.383 59.248 133.495 59.456C133.615 59.664 133.807 59.912 134.071 60.2L136.363 62.648C136.571 62.224 136.715 61.716 136.795 61.124L137.755 61.676C137.643 62.34 137.427 62.936 137.107 63.464ZM134.059 64.1C134.723 64.1 135.275 63.904 135.715 63.512L133.447 61.076C133.079 61.228 132.799 61.448 132.607 61.736C132.423 62.016 132.331 62.324 132.331 62.66C132.331 63.108 132.483 63.46 132.787 63.716C133.091 63.972 133.515 64.1 134.059 64.1ZM139.4 56.6H142.448C143.216 56.6 143.86 56.86 144.38 57.38C144.9 57.9 145.16 58.54 145.16 59.3C145.16 60.06 144.9 60.7 144.38 61.22C143.86 61.74 143.216 62 142.448 62H140.516V65H139.4V56.6ZM140.516 60.956H142.448C142.92 60.956 143.304 60.8 143.6 60.488C143.904 60.16 144.056 59.764 144.056 59.3C144.056 58.82 143.904 58.424 143.6 58.112C143.296 57.8 142.912 57.644 142.448 57.644H140.516V60.956ZM150.594 59.876H151.818C152.61 59.876 153.278 60.112 153.822 60.584C154.374 61.056 154.65 61.7 154.65 62.516C154.65 63.34 154.37 63.984 153.81 64.448C153.242 64.92 152.562 65.156 151.77 65.156C151.114 65.156 150.534 65 150.03 64.688C149.534 64.368 149.19 63.924 148.998 63.356L149.946 62.816C150.058 63.216 150.274 63.524 150.594 63.74C150.914 63.956 151.306 64.064 151.77 64.064C152.306 64.064 152.734 63.928 153.054 63.656C153.382 63.376 153.546 62.996 153.546 62.516C153.546 62.036 153.382 61.656 153.054 61.376C152.734 61.096 152.314 60.956 151.794 60.956H149.418L149.73 56.6H154.326V57.644H150.738L150.594 59.876ZM161.051 63.968C160.491 64.76 159.695 65.156 158.663 65.156C157.631 65.156 156.835 64.76 156.275 63.968C155.707 63.168 155.423 62.112 155.423 60.8C155.423 59.488 155.707 58.432 156.275 57.632C156.835 56.84 157.631 56.444 158.663 56.444C159.695 56.444 160.491 56.84 161.051 57.632C161.619 58.432 161.903 59.488 161.903 60.8C161.903 62.112 161.619 63.168 161.051 63.968ZM156.539 60.8C156.539 61.84 156.723 62.644 157.091 63.212C157.459 63.78 157.983 64.064 158.663 64.064C159.343 64.064 159.867 63.78 160.235 63.212C160.611 62.644 160.799 61.84 160.799 60.8C160.799 59.76 160.611 58.956 160.235 58.388C159.867 57.812 159.343 57.524 158.663 57.524C157.983 57.524 157.459 57.808 157.091 58.376C156.723 58.944 156.539 59.752 156.539 60.8ZM168.609 63.968C168.049 64.76 167.253 65.156 166.221 65.156C165.189 65.156 164.393 64.76 163.833 63.968C163.265 63.168 162.981 62.112 162.981 60.8C162.981 59.488 163.265 58.432 163.833 57.632C164.393 56.84 165.189 56.444 166.221 56.444C167.253 56.444 168.049 56.84 168.609 57.632C169.177 58.432 169.461 59.488 169.461 60.8C169.461 62.112 169.177 63.168 168.609 63.968ZM164.097 60.8C164.097 61.84 164.281 62.644 164.649 63.212C165.017 63.78 165.541 64.064 166.221 64.064C166.901 64.064 167.425 63.78 167.793 63.212C168.169 62.644 168.357 61.84 168.357 60.8C168.357 59.76 168.169 58.956 167.793 58.388C167.425 57.812 166.901 57.524 166.221 57.524C165.541 57.524 165.017 57.808 164.649 58.376C164.281 58.944 164.097 59.752 164.097 60.8Z" fill="#C4CBF5"/>
<path d="M219 67L170 69.5H115.5" stroke="url(#paint7_linear_3108_16140)"/>
<path opacity="0.6" d="M436.766 26.0174H438.238L441.698 34.4691H441.817L445.278 26.0174H446.749V36.1992H445.596V28.4634H445.496L442.314 36.1992H441.201L438.019 28.4634H437.92V36.1992H436.766V26.0174ZM452.164 36.3583C451.475 36.3583 450.87 36.1942 450.35 35.8661C449.833 35.538 449.428 35.079 449.137 34.489C448.848 33.899 448.704 33.2096 448.704 32.4208C448.704 31.6254 448.848 30.931 449.137 30.3377C449.428 29.7444 449.833 29.2837 450.35 28.9556C450.87 28.6275 451.475 28.4634 452.164 28.4634C452.854 28.4634 453.457 28.6275 453.974 28.9556C454.494 29.2837 454.899 29.7444 455.187 30.3377C455.479 30.931 455.625 31.6254 455.625 32.4208C455.625 33.2096 455.479 33.899 455.187 34.489C454.899 35.079 454.494 35.538 453.974 35.8661C453.457 36.1942 452.854 36.3583 452.164 36.3583ZM452.164 35.3043C452.688 35.3043 453.119 35.1701 453.457 34.9016C453.795 34.6332 454.045 34.2802 454.208 33.8427C454.37 33.4052 454.451 32.9312 454.451 32.4208C454.451 31.9104 454.37 31.4348 454.208 30.994C454.045 30.5531 453.795 30.1969 453.457 29.9251C453.119 29.6533 452.688 29.5174 452.164 29.5174C451.641 29.5174 451.21 29.6533 450.872 29.9251C450.534 30.1969 450.283 30.5531 450.121 30.994C449.959 31.4348 449.877 31.9104 449.877 32.4208C449.877 32.9312 449.959 33.4052 450.121 33.8427C450.283 34.2802 450.534 34.6332 450.872 34.9016C451.21 35.1701 451.641 35.3043 452.164 35.3043ZM457.416 36.1992V28.5629H458.549V29.7163H458.629C458.768 29.3384 459.02 29.0318 459.384 28.7965C459.749 28.5612 460.16 28.4435 460.617 28.4435C460.704 28.4435 460.811 28.4452 460.941 28.4485C461.07 28.4518 461.168 28.4568 461.234 28.4634V29.6566C461.194 29.6467 461.103 29.6317 460.96 29.6119C460.821 29.5887 460.674 29.5771 460.518 29.5771C460.147 29.5771 459.815 29.6549 459.524 29.8107C459.235 29.9632 459.007 30.1753 458.838 30.4471C458.672 30.7156 458.589 31.0221 458.589 31.3668V36.1992H457.416ZM465.594 36.3583C464.858 36.3583 464.223 36.1959 463.69 35.8711C463.16 35.543 462.75 35.0856 462.462 34.4989C462.177 33.909 462.034 33.2229 462.034 32.4407C462.034 31.6585 462.177 30.9691 462.462 30.3725C462.75 29.7726 463.151 29.3053 463.665 28.9705C464.182 28.6325 464.785 28.4634 465.475 28.4634C465.872 28.4634 466.265 28.5297 466.653 28.6623C467.041 28.7949 467.394 29.0103 467.712 29.3086C468.03 29.6036 468.284 29.9947 468.472 30.4819C468.661 30.9691 468.756 31.569 468.756 32.2816V32.7788H462.869V31.7646H467.563C467.563 31.3337 467.477 30.9492 467.304 30.6112C467.135 30.2731 466.893 30.0063 466.578 29.8107C466.267 29.6152 465.899 29.5174 465.475 29.5174C465.007 29.5174 464.603 29.6334 464.262 29.8654C463.923 30.0941 463.663 30.3924 463.481 30.7603C463.299 31.1282 463.208 31.5226 463.208 31.9435V32.6197C463.208 33.1964 463.307 33.6853 463.506 34.0863C463.708 34.484 463.988 34.7873 464.346 34.9961C464.704 35.2016 465.12 35.3043 465.594 35.3043C465.902 35.3043 466.181 35.2612 466.429 35.1751C466.681 35.0856 466.898 34.953 467.08 34.7773C467.263 34.5984 467.404 34.3763 467.503 34.1112L468.637 34.4293C468.517 34.8138 468.317 35.1519 468.035 35.4435C467.753 35.7319 467.405 35.9573 466.991 36.1197C466.577 36.2788 466.111 36.3583 465.594 36.3583Z" fill="#EAEDFF"/>
<path d="M501.5 28.1992L505.5 32.1992L501.5 36.1992" stroke="#2EF2FF" stroke-width="1.5" stroke-linecap="round" stroke-linejoin="round"/>
<path fill-rule="evenodd" clip-rule="evenodd" d="M266 224C313.22 224 351.5 185.72 351.5 138.5C351.5 91.2797 313.22 53 266 53C218.78 53 180.5 91.2797 180.5 138.5C180.5 185.72 218.78 224 266 224ZM266 191C294.995 191 318.5 167.495 318.5 138.5C318.5 109.505 294.995 86 266 86C237.005 86 213.5 109.505 213.5 138.5C213.5 167.495 237.005 191 266 191Z" fill="#2F7AF2"/>
<path fill-rule="evenodd" clip-rule="evenodd" d="M337.091 186.001C346.486 171.941 351.5 155.41 351.5 138.5H318.5C318.5 167.495 294.995 191 266 191C237.005 191 213.5 167.495 213.5 138.5C213.5 109.505 237.005 86 266 86V53C249.09 53 232.559 58.0145 218.499 67.4093C204.438 76.8042 193.48 90.1575 187.008 105.781C180.537 121.404 178.844 138.595 182.143 155.18C185.442 171.766 193.585 187 205.542 198.958C217.5 210.915 232.734 219.058 249.32 222.357C265.905 225.656 283.096 223.963 298.719 217.492C314.343 211.02 327.696 200.062 337.091 186.001Z" fill="#2EF2FF"/>
<path fill-rule="evenodd" clip-rule="evenodd" d="M266 191C294.995 191 318.5 167.495 318.5 138.5H351.5C351.5 151.307 348.623 163.95 343.081 175.496C337.539 187.042 329.475 197.196 319.483 205.207C309.491 213.218 297.826 218.882 285.352 221.781C272.877 224.68 259.911 224.739 247.41 221.954C234.909 219.17 223.194 213.612 213.129 205.693C203.064 197.773 194.907 187.694 189.26 176.199C183.613 164.704 180.621 152.087 180.504 139.281C180.387 126.474 183.148 113.805 188.584 102.209L218.453 116.211C215.276 122.976 213.5 130.531 213.5 138.5C213.5 167.495 237.005 191 266 191Z" fill="#2364E5"/>
<path fill-rule="evenodd" clip-rule="evenodd" d="M266 191C294.995 191 318.5 167.495 318.5 138.5H351.5C351.5 150.267 349.071 161.908 344.365 172.694C339.659 183.479 332.777 193.177 324.15 201.18C315.524 209.183 305.338 215.32 294.23 219.205C283.123 223.09 271.333 224.641 259.598 223.76C247.864 222.879 236.438 219.585 226.035 214.085C215.632 208.584 206.477 200.996 199.142 191.794C191.807 182.592 186.451 171.975 183.408 160.608C180.365 149.241 179.701 137.368 181.459 125.732L214.082 130.659C213.699 133.217 213.5 135.835 213.5 138.5C213.5 167.495 237.005 191 266 191Z" fill="#76FA4D"/>
<path fill-rule="evenodd" clip-rule="evenodd" d="M266.002 191C294.996 191 318.502 167.495 318.502 138.5H351.502C351.502 160.401 343.097 181.466 328.022 197.353C312.947 213.239 292.351 222.735 270.48 223.883C248.609 225.03 227.132 217.741 210.478 203.518C193.824 189.296 183.262 169.225 180.971 147.445L213.785 143.993C216.532 170.406 238.862 191 266.002 191Z" fill="#E88D4B"/>
<path fill-rule="evenodd" clip-rule="evenodd" d="M266 191C294.995 191 318.5 167.495 318.5 138.5H351.5C351.5 154.74 346.875 170.644 338.165 184.352C329.456 198.059 317.023 209.003 302.321 215.902C287.619 222.801 271.257 225.37 255.148 223.309C239.039 221.247 223.85 214.641 211.359 204.262L232.448 178.881C241.546 186.449 253.241 191 266 191Z" fill="#C8EA80"/>
<path fill-rule="evenodd" clip-rule="evenodd" d="M279.049 189.366C301.731 183.564 318.501 162.991 318.501 138.5H351.501C351.501 157.478 345.187 175.917 333.553 190.911C321.92 205.905 305.628 216.603 287.245 221.319L279.049 189.366Z" fill="#B860DA"/>
<circle cx="266.5" cy="139" r="37.5" stroke="#253688" stroke-dasharray="2 2"/>
<g filter="url(#filter0_d_3108_16140)">
<circle cx="266.499" cy="138.999" r="33.3469" fill="#131D4E"/>
<circle cx="266.499" cy="138.999" r="32.8469" stroke="#253688"/>
</g>
<g opacity="0.5">
<line x1="483.5" y1="44.5" x2="529.5" y2="44.5" stroke="url(#paint8_linear_3108_16140)"/>
<line x1="483.5" y1="91.5" x2="529.5" y2="91.5" stroke="url(#paint9_linear_3108_16140)"/>
<line x1="483.5" y1="138.5" x2="529.5" y2="138.5" stroke="url(#paint10_linear_3108_16140)"/>
<line x1="483.5" y1="185.5" x2="529.5" y2="185.5" stroke="url(#paint11_linear_3108_16140)"/>
<line x1="483.5" y1="232.5" x2="529.5" y2="232.5" stroke="url(#paint12_linear_3108_16140)"/>
</g>
<g opacity="0.5">
<line y1="-0.5" x2="46" y2="-0.5" transform="matrix(-1 -8.74228e-08 -8.74228e-08 1 49.5 45)" stroke="url(#paint13_linear_3108_16140)"/>
<line y1="-0.5" x2="46" y2="-0.5" transform="matrix(-1 -8.74228e-08 -8.74228e-08 1 49.5 92)" stroke="url(#paint14_linear_3108_16140)"/>
<line y1="-0.5" x2="46" y2="-0.5" transform="matrix(-1 -8.74228e-08 -8.74228e-08 1 49.5 139)" stroke="url(#paint15_linear_3108_16140)"/>
<line y1="-0.5" x2="46" y2="-0.5" transform="matrix(-1 -8.74228e-08 -8.74228e-08 1 49.5 186)" stroke="url(#paint16_linear_3108_16140)"/>
<line y1="-0.5" x2="46" y2="-0.5" transform="matrix(-1 -8.74228e-08 -8.74228e-08 1 49.5 233)" stroke="url(#paint17_linear_3108_16140)"/>
</g>
</g>
<rect x="1" y="0.5" width="530" height="275" rx="15.5" stroke="#334679"/>
<defs>
<filter id="filter0_d_3108_16140" x="225.152" y="105.652" width="82.6934" height="86.6934" filterUnits="userSpaceOnUse" color-interpolation-filters="sRGB">
<feFlood flood-opacity="0" result="BackgroundImageFix"/>
<feColorMatrix in="SourceAlpha" type="matrix" values="0 0 0 0 0 0 0 0 0 0 0 0 0 0 0 0 0 0 127 0" result="hardAlpha"/>
<feOffset dy="12"/>
<feGaussianBlur stdDeviation="4"/>
<feComposite in2="hardAlpha" operator="out"/>
<feColorMatrix type="matrix" values="0 0 0 0 0 0 0 0 0 0 0 0 0 0 0 0 0 0 0.5 0"/>
<feBlend mode="normal" in2="BackgroundImageFix" result="effect1_dropShadow_3108_16140"/>
<feBlend mode="normal" in="SourceGraphic" in2="effect1_dropShadow_3108_16140" result="shape"/>
</filter>
<linearGradient id="paint0_linear_3108_16140" x1="266" y1="0" x2="266" y2="276" gradientUnits="userSpaceOnUse">
<stop stop-color="#243474"/>
<stop offset="1" stop-color="#0F1434"/>
</linearGradient>
<linearGradient id="paint1_linear_3108_16140" x1="381.5" y1="96.5" x2="439.5" y2="86" gradientUnits="userSpaceOnUse">
<stop stop-color="#3C52D8"/>
<stop offset="1" stop-color="#0D193B"/>
</linearGradient>
<linearGradient id="paint2_linear_3108_16140" x1="374" y1="206.5" x2="432" y2="196" gradientUnits="userSpaceOnUse">
<stop stop-color="#3C52D8"/>
<stop offset="1" stop-color="#0D193B"/>
</linearGradient>
<linearGradient id="paint3_linear_3108_16140" x1="202" y1="263.5" x2="144" y2="253" gradientUnits="userSpaceOnUse">
<stop stop-color="#3C52D8"/>
<stop offset="1" stop-color="#0D193B"/>
</linearGradient>
<linearGradient id="paint4_linear_3108_16140" x1="161" y1="213.5" x2="103" y2="203" gradientUnits="userSpaceOnUse">
<stop stop-color="#3C52D8"/>
<stop offset="1" stop-color="#0D193B"/>
</linearGradient>
<linearGradient id="paint5_linear_3108_16140" x1="149" y1="160" x2="91" y2="149.5" gradientUnits="userSpaceOnUse">
<stop stop-color="#3C52D8"/>
<stop offset="1" stop-color="#0D193B"/>
</linearGradient>
<linearGradient id="paint6_linear_3108_16140" x1="153" y1="124.5" x2="95" y2="114" gradientUnits="userSpaceOnUse">
<stop stop-color="#3C52D8"/>
<stop offset="1" stop-color="#0D193B"/>
</linearGradient>
<linearGradient id="paint7_linear_3108_16140" x1="174" y1="85.4999" x2="116" y2="74.9999" gradientUnits="userSpaceOnUse">
<stop stop-color="#3C52D8"/>
<stop offset="1" stop-color="#0D193B"/>
</linearGradient>
<linearGradient id="paint8_linear_3108_16140" x1="483.5" y1="45.5" x2="529.5" y2="45.5" gradientUnits="userSpaceOnUse">
<stop stop-color="#253575" stop-opacity="0"/>
<stop offset="0.875204" stop-color="#4360D4"/>
<stop offset="1" stop-color="#334679"/>
</linearGradient>
<linearGradient id="paint9_linear_3108_16140" x1="483.5" y1="92.5" x2="529.5" y2="92.5" gradientUnits="userSpaceOnUse">
<stop stop-color="#253575" stop-opacity="0"/>
<stop offset="0.875204" stop-color="#4360D4"/>
<stop offset="1" stop-color="#334679"/>
</linearGradient>
<linearGradient id="paint10_linear_3108_16140" x1="483.5" y1="139.5" x2="529.5" y2="139.5" gradientUnits="userSpaceOnUse">
<stop stop-color="#253575" stop-opacity="0"/>
<stop offset="0.875204" stop-color="#4360D4"/>
<stop offset="1" stop-color="#334679"/>
</linearGradient>
<linearGradient id="paint11_linear_3108_16140" x1="483.5" y1="186.5" x2="529.5" y2="186.5" gradientUnits="userSpaceOnUse">
<stop stop-color="#253575" stop-opacity="0"/>
<stop offset="0.875204" stop-color="#4360D4"/>
<stop offset="1" stop-color="#334679"/>
</linearGradient>
<linearGradient id="paint12_linear_3108_16140" x1="483.5" y1="233.5" x2="529.5" y2="233.5" gradientUnits="userSpaceOnUse">
<stop stop-color="#253575" stop-opacity="0"/>
<stop offset="0.875204" stop-color="#4360D4"/>
<stop offset="1" stop-color="#334679"/>
</linearGradient>
<linearGradient id="paint13_linear_3108_16140" x1="0" y1="0.5" x2="46" y2="0.5" gradientUnits="userSpaceOnUse">
<stop stop-color="#253575" stop-opacity="0"/>
<stop offset="0.875204" stop-color="#4360D4"/>
<stop offset="1" stop-color="#334679"/>
</linearGradient>
<linearGradient id="paint14_linear_3108_16140" x1="0" y1="0.5" x2="46" y2="0.5" gradientUnits="userSpaceOnUse">
<stop stop-color="#253575" stop-opacity="0"/>
<stop offset="0.875204" stop-color="#4360D4"/>
<stop offset="1" stop-color="#334679"/>
</linearGradient>
<linearGradient id="paint15_linear_3108_16140" x1="0" y1="0.5" x2="46" y2="0.5" gradientUnits="userSpaceOnUse">
<stop stop-color="#253575" stop-opacity="0"/>
<stop offset="0.875204" stop-color="#4360D4"/>
<stop offset="1" stop-color="#334679"/>
</linearGradient>
<linearGradient id="paint16_linear_3108_16140" x1="0" y1="0.5" x2="46" y2="0.5" gradientUnits="userSpaceOnUse">
<stop stop-color="#253575" stop-opacity="0"/>
<stop offset="0.875204" stop-color="#4360D4"/>
<stop offset="1" stop-color="#334679"/>
</linearGradient>
<linearGradient id="paint17_linear_3108_16140" x1="0" y1="0.5" x2="46" y2="0.5" gradientUnits="userSpaceOnUse">
<stop stop-color="#253575" stop-opacity="0"/>
<stop offset="0.875204" stop-color="#4360D4"/>
<stop offset="1" stop-color="#334679"/>
</linearGradient>
<clipPath id="clip0_3108_16140">
<rect x="0.5" width="531" height="276" rx="16" fill="white"/>
</clipPath>
</defs>
</svg>
