<svg width="329" height="277" viewBox="0 0 329 277" fill="none" xmlns="http://www.w3.org/2000/svg">
<g clip-path="url(#clip0_3767_16057)">
<rect y="0.712891" width="329" height="276" rx="16" fill="url(#paint0_linear_3767_16057)"/>
<circle cx="163.52" cy="149.903" r="109.479" fill="#080D27" stroke="#344679" stroke-width="2"/>
<mask id="mask0_3767_16057" style="mask-type:alpha" maskUnits="userSpaceOnUse" x="57" y="43" width="213" height="213">
<circle cx="163.522" cy="149.903" r="105.46" fill="#141414" stroke="#242424"/>
</mask>
<g mask="url(#mask0_3767_16057)">
<line x1="171.646" y1="328.725" x2="342.766" y2="157.605" stroke="#1D295D"/>
<line x1="169.525" y1="326.603" x2="340.645" y2="155.484" stroke="#1D295D"/>
<line x1="167.404" y1="324.482" x2="338.524" y2="153.363" stroke="#1D295D"/>
<line x1="165.283" y1="322.361" x2="336.403" y2="151.241" stroke="#1D295D"/>
<line x1="163.162" y1="320.24" x2="334.282" y2="149.12" stroke="#1D295D"/>
<line x1="161.039" y1="318.117" x2="332.159" y2="146.997" stroke="#1D295D"/>
<line x1="158.918" y1="315.996" x2="330.038" y2="144.876" stroke="#1D295D"/>
<line x1="156.797" y1="313.875" x2="327.917" y2="142.755" stroke="#1D295D"/>
<line x1="154.676" y1="311.754" x2="325.796" y2="140.634" stroke="#1D295D"/>
<line x1="152.555" y1="309.633" x2="323.674" y2="138.513" stroke="#1D295D"/>
<line x1="150.434" y1="307.512" x2="321.553" y2="136.392" stroke="#1D295D"/>
<line x1="148.312" y1="305.391" x2="319.432" y2="134.271" stroke="#1D295D"/>
<line x1="146.191" y1="303.269" x2="317.311" y2="132.15" stroke="#1D295D"/>
<line x1="144.068" y1="301.146" x2="315.188" y2="130.027" stroke="#1D295D"/>
<line x1="141.947" y1="299.025" x2="313.067" y2="127.906" stroke="#1D295D"/>
<line x1="139.826" y1="296.904" x2="310.946" y2="125.784" stroke="#1D295D"/>
<line x1="137.705" y1="294.783" x2="308.825" y2="123.663" stroke="#1D295D"/>
<line x1="135.584" y1="292.662" x2="305.997" y2="122.249" stroke="#1D295D"/>
<line x1="133.463" y1="290.541" x2="304.583" y2="119.421" stroke="#1D295D"/>
<line x1="131.342" y1="288.42" x2="302.462" y2="117.3" stroke="#1D295D"/>
<line x1="129.221" y1="286.299" x2="300.34" y2="115.179" stroke="#1D295D"/>
<line x1="127.1" y1="284.178" x2="298.219" y2="113.058" stroke="#1D295D"/>
<line x1="124.977" y1="282.055" x2="296.096" y2="110.935" stroke="#1D295D"/>
<line x1="122.855" y1="279.934" x2="293.975" y2="108.814" stroke="#1D295D"/>
<line x1="120.734" y1="277.812" x2="291.854" y2="106.693" stroke="#1D295D"/>
<line x1="118.613" y1="275.691" x2="289.733" y2="104.572" stroke="#1D295D"/>
<line x1="116.492" y1="273.57" x2="287.612" y2="102.45" stroke="#1D295D"/>
<line x1="114.371" y1="271.449" x2="285.491" y2="100.329" stroke="#1D295D"/>
<line x1="112.25" y1="269.328" x2="283.37" y2="98.2082" stroke="#1D295D"/>
<line x1="110.129" y1="267.207" x2="281.249" y2="96.0871" stroke="#1D295D"/>
<line x1="108.008" y1="265.086" x2="279.128" y2="93.966" stroke="#1D295D"/>
<line x1="105.885" y1="262.963" x2="277.005" y2="91.843" stroke="#1D295D"/>
<line x1="103.764" y1="260.842" x2="274.883" y2="89.7219" stroke="#1D295D"/>
<line x1="101.643" y1="258.721" x2="272.762" y2="87.6008" stroke="#1D295D"/>
<line x1="99.5214" y1="256.6" x2="270.641" y2="85.4797" stroke="#1D295D"/>
<line x1="97.4004" y1="254.478" x2="267.813" y2="84.0657" stroke="#1D295D"/>
<line x1="95.2793" y1="252.357" x2="266.399" y2="81.2375" stroke="#1D295D"/>
<line x1="93.1582" y1="250.236" x2="264.278" y2="79.1164" stroke="#1D295D"/>
<line x1="91.0371" y1="248.115" x2="262.157" y2="76.9953" stroke="#1D295D"/>
<line x1="88.914" y1="245.992" x2="260.034" y2="74.8723" stroke="#1D295D"/>
<line x1="86.7929" y1="243.871" x2="257.913" y2="72.7512" stroke="#1D295D"/>
<line x1="84.6718" y1="241.75" x2="255.085" y2="71.3372" stroke="#1D295D"/>
<line x1="82.5507" y1="239.629" x2="253.671" y2="68.509" stroke="#1D295D"/>
<line x1="80.4296" y1="237.508" x2="251.549" y2="66.3879" stroke="#1D295D"/>
<line x1="78.3086" y1="235.387" x2="249.428" y2="64.2668" stroke="#1D295D"/>
<line x1="76.1875" y1="233.266" x2="247.307" y2="62.1457" stroke="#1D295D"/>
<line x1="74.0664" y1="231.144" x2="245.186" y2="60.0246" stroke="#1D295D"/>
<line x1="71.9453" y1="229.023" x2="243.065" y2="57.9035" stroke="#1D295D"/>
<line x1="69.8222" y1="226.9" x2="240.942" y2="55.7805" stroke="#1D295D"/>
<line x1="67.7011" y1="224.779" x2="238.821" y2="53.6594" stroke="#1D295D"/>
<line x1="65.58" y1="222.658" x2="236.7" y2="51.5383" stroke="#1D295D"/>
<line x1="63.4589" y1="220.537" x2="234.579" y2="49.4172" stroke="#1D295D"/>
<line x1="61.3379" y1="218.416" x2="232.458" y2="47.2961" stroke="#1D295D"/>
<line x1="59.2168" y1="216.295" x2="230.337" y2="45.175" stroke="#1D295D"/>
<line x1="57.0957" y1="214.174" x2="228.215" y2="43.0539" stroke="#1D295D"/>
<line x1="54.9746" y1="212.053" x2="226.094" y2="40.9328" stroke="#1D295D"/>
<line x1="52.8515" y1="209.932" x2="223.971" y2="38.8117" stroke="#1D295D"/>
<line x1="50.7304" y1="207.809" x2="221.85" y2="36.6887" stroke="#1D295D"/>
<line x1="48.6093" y1="205.687" x2="219.022" y2="35.2747" stroke="#1D295D"/>
<line x1="46.4882" y1="203.566" x2="217.608" y2="32.4465" stroke="#1D295D"/>
<line x1="44.3671" y1="201.445" x2="215.487" y2="30.3254" stroke="#1D295D"/>
<line x1="42.2461" y1="199.324" x2="213.366" y2="28.2043" stroke="#1D295D"/>
<line x1="40.125" y1="197.203" x2="211.245" y2="26.0832" stroke="#1D295D"/>
<line x1="38.0039" y1="195.082" x2="209.124" y2="23.9621" stroke="#1D295D"/>
<line x1="35.8828" y1="192.961" x2="207.003" y2="21.841" stroke="#1D295D"/>
<line x1="33.7597" y1="190.838" x2="204.88" y2="19.718" stroke="#1D295D"/>
<line x1="31.6386" y1="188.717" x2="202.758" y2="17.5969" stroke="#1D295D"/>
<line x1="29.5175" y1="186.596" x2="200.637" y2="15.4758" stroke="#1D295D"/>
<line x1="27.3964" y1="184.475" x2="197.809" y2="14.0618" stroke="#1D295D"/>
<line x1="25.2754" y1="182.353" x2="195.688" y2="11.9407" stroke="#1D295D"/>
<line x1="23.1543" y1="180.232" x2="193.567" y2="9.81964" stroke="#1D295D"/>
<line x1="21.0332" y1="178.111" x2="191.446" y2="7.69854" stroke="#1D295D"/>
<line x1="18.9121" y1="175.99" x2="189.325" y2="5.57745" stroke="#1D295D"/>
<line x1="16.791" y1="173.869" x2="187.204" y2="3.45636" stroke="#1D295D"/>
<line x1="14.6679" y1="171.746" x2="185.081" y2="1.33331" stroke="#1D295D"/>
<line x1="12.5468" y1="169.625" x2="182.96" y2="-0.787784" stroke="#1D295D"/>
<line x1="10.4257" y1="167.504" x2="180.838" y2="-2.90888" stroke="#1D295D"/>
<line x1="8.30465" y1="165.383" x2="178.717" y2="-5.02997" stroke="#1D295D"/>
<line x1="6.18356" y1="163.262" x2="176.596" y2="-7.15106" stroke="#1D295D"/>
<line x1="4.06246" y1="161.141" x2="174.475" y2="-9.27216" stroke="#1D295D"/>
<line x1="1.94137" y1="159.019" x2="172.354" y2="-11.3933" stroke="#1D295D"/>
<line x1="-0.179725" y1="156.898" x2="170.233" y2="-13.5143" stroke="#1D295D"/>
<line x1="-2.30277" y1="154.775" x2="168.11" y2="-15.6374" stroke="#1D295D"/>
<line x1="-4.42387" y1="152.654" x2="165.989" y2="-17.7585" stroke="#1D295D"/>
<line x1="-6.54496" y1="150.533" x2="163.868" y2="-19.8796" stroke="#1D295D"/>
<line x1="-8.66605" y1="148.412" x2="161.747" y2="-22.0007" stroke="#1D295D"/>
<line x1="-10.7871" y1="146.291" x2="160.333" y2="-24.8289" stroke="#1D295D"/>
<line x1="-12.9082" y1="144.17" x2="158.212" y2="-26.95" stroke="#1D295D"/>
<line x1="-15.0293" y1="142.049" x2="155.383" y2="-28.364" stroke="#1D295D"/>
</g>
<line x1="164.271" y1="-9.28711" x2="164.271" y2="308.592" stroke="#344679"/>
<path opacity="0.5" d="M248 150.078C248 196.47 210.392 234.078 164 234.078C117.608 234.078 80 196.47 80 150.078C80 103.686 117.608 66.0781 164 66.0781C210.392 66.0781 248 103.686 248 150.078Z" fill="#080D27"/>
<path fill-rule="evenodd" clip-rule="evenodd" d="M163.887 216.441C200.483 216.441 230.15 186.774 230.15 150.179C230.15 113.583 200.483 83.916 163.887 83.916C127.292 83.916 97.625 113.583 97.625 150.179C97.625 186.774 127.292 216.441 163.887 216.441ZM163.887 190.866C186.359 190.866 204.575 172.65 204.575 150.179C204.575 127.707 186.359 109.491 163.887 109.491C141.416 109.491 123.2 127.707 123.2 150.179C123.2 172.65 141.416 190.866 163.887 190.866Z" fill="#2F7AF2"/>
<path fill-rule="evenodd" clip-rule="evenodd" d="M218.983 186.992C226.264 176.095 230.15 163.284 230.15 150.179H204.575C204.575 172.65 186.359 190.866 163.888 190.866C141.416 190.866 123.2 172.65 123.2 150.179C123.2 127.707 141.416 109.491 163.888 109.491V83.916C150.782 83.916 137.971 87.8022 127.074 95.0833C116.177 102.364 107.684 112.713 102.669 124.821C97.6537 136.929 96.3415 150.252 98.8982 163.106C101.455 175.959 107.766 187.766 117.033 197.033C126.3 206.3 138.107 212.611 150.96 215.168C163.814 217.725 177.137 216.412 189.245 211.397C201.353 206.382 211.702 197.889 218.983 186.992Z" fill="#2EF2FF"/>
<path fill-rule="evenodd" clip-rule="evenodd" d="M163.887 190.866C186.359 190.866 204.575 172.649 204.575 150.178L230.15 150.178C230.15 160.104 227.92 169.902 223.625 178.85C219.331 187.798 213.08 195.667 205.337 201.876C197.593 208.085 188.553 212.474 178.885 214.721C169.217 216.967 159.168 217.013 149.48 214.855C139.792 212.697 130.713 208.39 122.912 202.253C115.112 196.115 108.79 188.303 104.414 179.395C100.038 170.486 97.7184 160.708 97.6278 150.783C97.5371 140.858 99.6772 131.04 103.89 122.053L127.038 132.904C124.576 138.147 123.2 144.002 123.2 150.178C123.2 172.649 141.416 190.866 163.887 190.866Z" fill="#2364E5"/>
<path fill-rule="evenodd" clip-rule="evenodd" d="M163.887 190.866C186.359 190.866 204.575 172.649 204.575 150.178L230.15 150.178C230.15 159.298 228.267 168.319 224.62 176.678C220.973 185.037 215.64 192.553 208.954 198.755C202.268 204.958 194.374 209.713 185.766 212.725C177.158 215.736 168.02 216.937 158.926 216.255C149.832 215.572 140.977 213.019 132.915 208.756C124.852 204.493 117.757 198.612 112.072 191.481C106.388 184.349 102.237 176.121 99.8785 167.312C97.5204 158.502 97.0061 149.301 98.368 140.283L123.651 144.101C123.354 146.084 123.2 148.113 123.2 150.178C123.2 172.649 141.416 190.866 163.887 190.866Z" fill="#76FA4D"/>
<path fill-rule="evenodd" clip-rule="evenodd" d="M163.889 190.865C186.36 190.865 204.577 172.649 204.577 150.178L230.152 150.178C230.152 167.151 223.638 183.477 211.955 195.789C200.272 208.101 184.31 215.46 167.36 216.349C150.41 217.238 133.766 211.589 120.858 200.567C107.951 189.545 99.7659 173.99 97.9902 157.11L123.422 154.435C125.55 174.905 142.856 190.865 163.889 190.865Z" fill="#E88D4B"/>
<path fill-rule="evenodd" clip-rule="evenodd" d="M163.887 190.865C186.358 190.865 204.575 172.649 204.575 150.178L230.15 150.178C230.15 162.764 226.565 175.09 219.816 185.713C213.066 196.336 203.43 204.817 192.036 210.164C180.642 215.511 167.961 217.502 155.477 215.904C142.993 214.307 131.222 209.187 121.541 201.143L137.885 181.473C144.935 187.338 153.999 190.865 163.887 190.865Z" fill="#C8EA80"/>
<path fill-rule="evenodd" clip-rule="evenodd" d="M174 189.599C191.579 185.103 204.575 169.158 204.575 150.178L230.15 150.178C230.15 164.886 225.257 179.176 216.241 190.796C207.225 202.417 194.599 210.707 180.352 214.362L174 189.599Z" fill="#B860DA"/>
<circle cx="164.274" cy="150.565" r="28.95" stroke="#253688" stroke-dasharray="2 2"/>
<g filter="url(#filter0_d_3767_16057)">
<circle cx="164.274" cy="150.565" r="25.8439" fill="#131D4E"/>
<circle cx="164.274" cy="150.565" r="25.3439" stroke="#253688"/>
</g>
<path d="M240.516 85.071V87.735H244.416V88.791H239.4V80.391H244.356V81.447H240.516V84.027H244.056V85.071H240.516ZM248.919 82.791V83.799H247.323V87.051C247.323 87.347 247.379 87.559 247.491 87.687C247.611 87.807 247.791 87.871 248.031 87.879C248.271 87.879 248.567 87.871 248.919 87.855V88.791C247.999 88.911 247.327 88.835 246.903 88.563C246.487 88.291 246.279 87.787 246.279 87.051V83.799H245.091V82.791H246.279V81.423L247.323 81.111V82.791H248.919ZM253.143 82.635C253.847 82.635 254.411 82.859 254.835 83.307C255.259 83.747 255.471 84.347 255.471 85.107V88.791H254.427V85.167C254.427 84.687 254.295 84.311 254.031 84.039C253.767 83.767 253.403 83.631 252.939 83.631C252.403 83.631 251.979 83.799 251.667 84.135C251.355 84.463 251.199 84.955 251.199 85.611V88.791H250.155V80.391H251.199V83.655C251.615 82.975 252.263 82.635 253.143 82.635ZM262.689 86.271H257.661C257.765 86.799 258.009 87.215 258.393 87.519C258.777 87.815 259.257 87.963 259.833 87.963C260.625 87.963 261.201 87.671 261.561 87.087L262.449 87.591C261.857 88.495 260.977 88.947 259.809 88.947C258.865 88.947 258.089 88.651 257.481 88.059C256.889 87.451 256.593 86.695 256.593 85.791C256.593 84.879 256.885 84.127 257.469 83.535C258.053 82.935 258.809 82.635 259.737 82.635C260.617 82.635 261.333 82.947 261.885 83.571C262.445 84.179 262.725 84.923 262.725 85.803C262.725 85.955 262.713 86.111 262.689 86.271ZM259.737 83.619C259.185 83.619 258.721 83.775 258.345 84.087C257.977 84.399 257.749 84.823 257.661 85.359H261.669C261.581 84.807 261.361 84.379 261.009 84.075C260.657 83.771 260.233 83.619 259.737 83.619ZM264.969 82.791V83.799C265.313 83.055 265.937 82.683 266.841 82.683V83.775C266.329 83.751 265.889 83.887 265.521 84.183C265.153 84.479 264.969 84.955 264.969 85.611V88.791H263.925V82.791H264.969ZM273.294 86.271H268.266C268.37 86.799 268.614 87.215 268.998 87.519C269.382 87.815 269.862 87.963 270.438 87.963C271.23 87.963 271.806 87.671 272.166 87.087L273.054 87.591C272.462 88.495 271.582 88.947 270.414 88.947C269.47 88.947 268.694 88.651 268.086 88.059C267.494 87.451 267.198 86.695 267.198 85.791C267.198 84.879 267.49 84.127 268.074 83.535C268.658 82.935 269.414 82.635 270.342 82.635C271.222 82.635 271.938 82.947 272.49 83.571C273.05 84.179 273.33 84.923 273.33 85.803C273.33 85.955 273.318 86.111 273.294 86.271ZM270.342 83.619C269.79 83.619 269.326 83.775 268.95 84.087C268.582 84.399 268.354 84.823 268.266 85.359H272.274C272.186 84.807 271.966 84.379 271.614 84.075C271.262 83.771 270.838 83.619 270.342 83.619ZM278.67 85.971V82.791H279.714V88.791H278.67V87.927C278.254 88.607 277.606 88.947 276.726 88.947C276.022 88.947 275.458 88.727 275.034 88.287C274.61 87.839 274.398 87.235 274.398 86.475V82.791H275.442V86.415C275.442 86.895 275.574 87.271 275.838 87.543C276.102 87.815 276.466 87.951 276.93 87.951C277.466 87.951 277.89 87.787 278.202 87.459C278.514 87.123 278.67 86.627 278.67 85.971ZM287.784 82.635C288.464 82.635 289.008 82.855 289.416 83.295C289.832 83.735 290.04 84.323 290.04 85.059V88.791H288.996V85.095C288.996 84.639 288.876 84.283 288.636 84.027C288.404 83.763 288.084 83.631 287.676 83.631C287.212 83.631 286.848 83.787 286.584 84.099C286.328 84.403 286.2 84.855 286.2 85.455V88.791H285.156V85.095C285.156 84.639 285.04 84.283 284.808 84.027C284.584 83.763 284.276 83.631 283.884 83.631C283.428 83.631 283.056 83.791 282.768 84.111C282.488 84.423 282.348 84.871 282.348 85.455V88.791H281.304V82.791H282.348V83.595C282.756 82.955 283.352 82.635 284.136 82.635C284.944 82.635 285.532 82.975 285.9 83.655C286.316 82.975 286.944 82.635 287.784 82.635Z" fill="#C4CBF5"/>
<path d="M211 103.791L238.5 93.291H293" stroke="url(#paint1_linear_3767_16057)"/>
<path d="M249.792 194.971V189.391H250.908V194.923C250.908 195.523 251.084 195.995 251.436 196.339C251.796 196.683 252.3 196.855 252.948 196.855C253.596 196.855 254.096 196.683 254.448 196.339C254.808 195.995 254.988 195.523 254.988 194.923V189.391H256.092V194.971C256.092 195.883 255.8 196.607 255.216 197.143C254.632 197.679 253.876 197.947 252.948 197.947C252.012 197.947 251.252 197.679 250.668 197.143C250.084 196.607 249.792 195.883 249.792 194.971ZM260.51 197.947C259.726 197.947 259.054 197.767 258.494 197.407C257.942 197.039 257.554 196.531 257.33 195.883L258.29 195.331C258.61 196.347 259.358 196.855 260.534 196.855C261.102 196.855 261.538 196.739 261.842 196.507C262.154 196.275 262.31 195.959 262.31 195.559C262.31 195.167 262.158 194.867 261.854 194.659C261.582 194.475 261.074 194.263 260.33 194.023L259.526 193.759C259.35 193.687 259.118 193.583 258.83 193.447C258.55 193.303 258.346 193.159 258.218 193.015C257.866 192.631 257.69 192.163 257.69 191.611C257.69 190.875 257.946 190.299 258.458 189.883C258.97 189.451 259.594 189.235 260.33 189.235C260.986 189.235 261.562 189.399 262.058 189.727C262.554 190.055 262.926 190.503 263.174 191.071L262.238 191.611C261.878 190.747 261.242 190.315 260.33 190.315C259.874 190.315 259.506 190.427 259.226 190.651C258.946 190.875 258.806 191.179 258.806 191.563C258.806 191.931 258.938 192.211 259.202 192.403C259.474 192.603 259.93 192.803 260.57 193.003L261.062 193.159C261.334 193.263 261.482 193.319 261.506 193.327C261.762 193.423 262.042 193.555 262.346 193.723C262.562 193.843 262.778 194.027 262.994 194.275C263.274 194.555 263.414 194.975 263.414 195.535C263.414 196.271 263.146 196.859 262.61 197.299C262.066 197.731 261.366 197.947 260.51 197.947ZM264.677 189.391H267.953C269.089 189.391 270.037 189.799 270.797 190.615C271.557 191.423 271.937 192.415 271.937 193.591C271.937 194.759 271.557 195.755 270.797 196.579C270.037 197.387 269.089 197.791 267.953 197.791H264.677V189.391ZM265.793 196.735H267.953C268.809 196.735 269.509 196.435 270.053 195.835C270.597 195.227 270.869 194.479 270.869 193.591C270.869 192.703 270.597 191.955 270.053 191.347C269.509 190.747 268.809 190.447 267.953 190.447H265.793V196.735ZM272.126 189.391H278.186V190.447H275.702V197.791H274.598V190.447H272.126V189.391Z" fill="#C4CBF5"/>
<path d="M215.5 191.791L240.5 202.291H279" stroke="url(#paint2_linear_3767_16057)"/>
<path d="M108.802 239.935C109.194 240.127 109.502 240.395 109.726 240.739C109.95 241.083 110.062 241.475 110.062 241.915C110.062 242.587 109.826 243.151 109.354 243.607C108.882 244.063 108.306 244.291 107.626 244.291H104.002V235.891H107.362C108.026 235.891 108.582 236.111 109.03 236.551C109.486 236.991 109.714 237.535 109.714 238.183C109.714 238.935 109.41 239.519 108.802 239.935ZM107.362 236.935H105.118V239.503H107.362C107.714 239.503 108.01 239.379 108.25 239.131C108.49 238.883 108.61 238.579 108.61 238.219C108.61 237.867 108.486 237.567 108.238 237.319C107.998 237.063 107.706 236.935 107.362 236.935ZM105.118 243.247H107.626C108.002 243.247 108.318 243.115 108.574 242.851C108.83 242.587 108.958 242.263 108.958 241.879C108.958 241.503 108.826 241.183 108.562 240.919C108.314 240.655 108.002 240.523 107.626 240.523H105.118V243.247ZM116.604 242.155V235.891H117.72V244.291H116.82L112.5 238.015V244.291H111.384V235.891H112.284L116.604 242.155ZM124.317 239.935C124.709 240.127 125.017 240.395 125.241 240.739C125.465 241.083 125.577 241.475 125.577 241.915C125.577 242.587 125.341 243.151 124.869 243.607C124.397 244.063 123.821 244.291 123.141 244.291H119.517V235.891H122.877C123.541 235.891 124.097 236.111 124.545 236.551C125.001 236.991 125.229 237.535 125.229 238.183C125.229 238.935 124.925 239.519 124.317 239.935ZM122.877 236.935H120.633V239.503H122.877C123.229 239.503 123.525 239.379 123.765 239.131C124.005 238.883 124.125 238.579 124.125 238.219C124.125 237.867 124.001 237.567 123.753 237.319C123.513 237.063 123.221 236.935 122.877 236.935ZM120.633 243.247H123.141C123.517 243.247 123.833 243.115 124.089 242.851C124.345 242.587 124.473 242.263 124.473 241.879C124.473 241.503 124.341 241.183 124.077 240.919C123.829 240.655 123.517 240.523 123.141 240.523H120.633V243.247Z" fill="#C4CBF5"/>
<path d="M148 214.791L135 248.791H103.5" stroke="url(#paint3_linear_3767_16057)"/>
<path d="M57.2761 188.447C56.4921 188.447 55.8201 188.267 55.2601 187.907C54.7081 187.539 54.3201 187.031 54.0961 186.383L55.0561 185.831C55.3761 186.847 56.1241 187.355 57.3001 187.355C57.8681 187.355 58.3041 187.239 58.6081 187.007C58.9201 186.775 59.0761 186.459 59.0761 186.059C59.0761 185.667 58.9241 185.367 58.6201 185.159C58.3481 184.975 57.8401 184.763 57.0961 184.523L56.2921 184.259C56.1161 184.187 55.8841 184.083 55.5961 183.947C55.3161 183.803 55.1121 183.659 54.9841 183.515C54.6321 183.131 54.4561 182.663 54.4561 182.111C54.4561 181.375 54.7121 180.799 55.2241 180.383C55.7361 179.951 56.3601 179.735 57.0961 179.735C57.7521 179.735 58.3281 179.899 58.8241 180.227C59.3201 180.555 59.6921 181.003 59.9401 181.571L59.0041 182.111C58.6441 181.247 58.0081 180.815 57.0961 180.815C56.6401 180.815 56.2721 180.927 55.9921 181.151C55.7121 181.375 55.5721 181.679 55.5721 182.063C55.5721 182.431 55.7041 182.711 55.9681 182.903C56.2401 183.103 56.6961 183.303 57.3361 183.503L57.8281 183.659C58.1001 183.763 58.2481 183.819 58.2721 183.827C58.5281 183.923 58.8081 184.055 59.1121 184.223C59.3281 184.343 59.5441 184.527 59.7601 184.775C60.0401 185.055 60.1801 185.475 60.1801 186.035C60.1801 186.771 59.9121 187.359 59.3761 187.799C58.8321 188.231 58.1321 188.447 57.2761 188.447ZM60.999 184.091C60.999 182.875 61.419 181.847 62.259 181.007C63.099 180.159 64.127 179.735 65.343 179.735C66.559 179.735 67.587 180.159 68.427 181.007C69.275 181.847 69.699 182.875 69.699 184.091C69.699 185.299 69.275 186.327 68.427 187.175C67.587 188.023 66.559 188.447 65.343 188.447C64.127 188.447 63.099 188.023 62.259 187.175C61.419 186.319 60.999 185.291 60.999 184.091ZM68.583 184.091C68.583 183.163 68.271 182.387 67.647 181.763C67.039 181.131 66.271 180.815 65.343 180.815C64.423 180.815 63.651 181.131 63.027 181.763C62.411 182.395 62.103 183.171 62.103 184.091C62.103 185.003 62.411 185.779 63.027 186.419C63.651 187.043 64.423 187.355 65.343 187.355C66.271 187.355 67.039 187.043 67.647 186.419C68.271 185.779 68.583 185.003 68.583 184.091ZM72.1566 179.891V187.235H75.7806V188.291H71.0406V179.891H72.1566Z" fill="#C4CBF5"/>
<path d="M104 179.291L81 192.791H53" stroke="url(#paint4_linear_3767_16057)"/>
<path d="M52.1838 146.459L54.8838 150.791H53.6118L51.5478 147.479L49.4838 150.791H48.2238L50.9238 146.471L48.3798 142.391H49.6398L51.5478 145.451L53.4558 142.391H54.7158L52.1838 146.459ZM62.2019 150.791H60.9659L59.0819 147.575H57.1019V150.791H55.9859V142.391H59.3459C60.0659 142.391 60.6819 142.647 61.1939 143.159C61.7059 143.663 61.9619 144.275 61.9619 144.995C61.9619 145.539 61.7979 146.035 61.4699 146.483C61.1339 146.939 60.7179 147.255 60.2219 147.431L62.2019 150.791ZM59.3459 143.435H57.1019V146.567H59.3459C59.7619 146.567 60.1139 146.415 60.4019 146.111C60.6979 145.807 60.8459 145.435 60.8459 144.995C60.8459 144.555 60.6979 144.187 60.4019 143.891C60.1139 143.587 59.7619 143.435 59.3459 143.435ZM63.3219 142.391H66.3699C67.1379 142.391 67.7819 142.651 68.3019 143.171C68.8219 143.691 69.0819 144.331 69.0819 145.091C69.0819 145.851 68.8219 146.491 68.3019 147.011C67.7819 147.531 67.1379 147.791 66.3699 147.791H64.4379V150.791H63.3219V142.391ZM64.4379 146.747H66.3699C66.8419 146.747 67.2259 146.591 67.5219 146.279C67.8259 145.951 67.9779 145.555 67.9779 145.091C67.9779 144.611 67.8259 144.215 67.5219 143.903C67.2179 143.591 66.8339 143.435 66.3699 143.435H64.4379V146.747Z" fill="#C4CBF5"/>
<path d="M97.5 148.791L69.5 155.291H48" stroke="url(#paint5_linear_3767_16057)"/>
<path d="M18.8973 113.655V107.391H20.0133V115.791H19.1133L14.7933 109.515V115.791H13.6773V107.391H14.5773L18.8973 113.655ZM26.6702 110.823V109.791H27.7142V115.791H26.6702V114.759C26.1582 115.551 25.4022 115.947 24.4022 115.947C23.5542 115.947 22.8382 115.643 22.2542 115.035C21.6622 114.419 21.3662 113.671 21.3662 112.791C21.3662 111.919 21.6622 111.175 22.2542 110.559C22.8462 109.943 23.5622 109.635 24.4022 109.635C25.4022 109.635 26.1582 110.031 26.6702 110.823ZM24.5342 114.939C25.1422 114.939 25.6502 114.735 26.0582 114.327C26.4662 113.903 26.6702 113.391 26.6702 112.791C26.6702 112.183 26.4662 111.675 26.0582 111.267C25.6502 110.851 25.1422 110.643 24.5342 110.643C23.9342 110.643 23.4302 110.851 23.0222 111.267C22.6142 111.675 22.4102 112.183 22.4102 112.791C22.4102 113.391 22.6142 113.903 23.0222 114.327C23.4302 114.735 23.9342 114.939 24.5342 114.939ZM30.1842 111.411C30.1842 111.795 30.5802 112.095 31.3722 112.311C31.6682 112.375 31.9162 112.443 32.1162 112.515C32.3242 112.579 32.5482 112.679 32.7882 112.815C33.0362 112.951 33.2242 113.131 33.3522 113.355C33.4802 113.579 33.5442 113.843 33.5442 114.147C33.5442 114.691 33.3322 115.127 32.9082 115.455C32.4842 115.783 31.9482 115.947 31.3002 115.947C30.7242 115.947 30.2242 115.823 29.8002 115.575C29.3842 115.319 29.0882 114.975 28.9122 114.543L29.8122 114.027C29.9082 114.315 30.0882 114.543 30.3522 114.711C30.6162 114.879 30.9322 114.963 31.3002 114.963C31.6602 114.963 31.9482 114.895 32.1642 114.759C32.3802 114.623 32.4882 114.419 32.4882 114.147C32.4882 113.739 32.0922 113.443 31.3002 113.259C31.0362 113.187 30.8362 113.131 30.7002 113.091C30.5642 113.051 30.3762 112.979 30.1362 112.875C29.9042 112.771 29.7282 112.663 29.6082 112.551C29.4882 112.431 29.3762 112.275 29.2722 112.083C29.1762 111.883 29.1282 111.663 29.1282 111.423C29.1282 110.903 29.3282 110.475 29.7282 110.139C30.1362 109.803 30.6442 109.635 31.2522 109.635C31.7402 109.635 32.1722 109.747 32.5482 109.971C32.9322 110.187 33.2202 110.491 33.4122 110.883L32.5362 111.375C32.3202 110.863 31.8922 110.607 31.2522 110.607C30.9482 110.607 30.6922 110.679 30.4842 110.823C30.2842 110.967 30.1842 111.163 30.1842 111.411ZM39.5842 110.823V107.391H40.6282V115.791H39.5842V114.759C39.0722 115.551 38.3162 115.947 37.3162 115.947C36.4682 115.947 35.7522 115.643 35.1682 115.035C34.5762 114.419 34.2802 113.671 34.2802 112.791C34.2802 111.919 34.5762 111.175 35.1682 110.559C35.7602 109.943 36.4762 109.635 37.3162 109.635C38.3162 109.635 39.0722 110.031 39.5842 110.823ZM37.4482 114.939C38.0562 114.939 38.5642 114.735 38.9722 114.327C39.3802 113.903 39.5842 113.391 39.5842 112.791C39.5842 112.183 39.3802 111.675 38.9722 111.267C38.5642 110.851 38.0562 110.643 37.4482 110.643C36.8482 110.643 36.3442 110.851 35.9362 111.267C35.5282 111.675 35.3242 112.183 35.3242 112.791C35.3242 113.391 35.5282 113.903 35.9362 114.327C36.3442 114.735 36.8482 114.939 37.4482 114.939ZM47.178 110.823V109.791H48.222V115.791H47.178V114.759C46.666 115.551 45.91 115.947 44.91 115.947C44.062 115.947 43.346 115.643 42.762 115.035C42.17 114.419 41.874 113.671 41.874 112.791C41.874 111.919 42.17 111.175 42.762 110.559C43.354 109.943 44.07 109.635 44.91 109.635C45.91 109.635 46.666 110.031 47.178 110.823ZM45.042 114.939C45.65 114.939 46.158 114.735 46.566 114.327C46.974 113.903 47.178 113.391 47.178 112.791C47.178 112.183 46.974 111.675 46.566 111.267C46.158 110.851 45.65 110.643 45.042 110.643C44.442 110.643 43.938 110.851 43.53 111.267C43.122 111.675 42.918 112.183 42.918 112.791C42.918 113.391 43.122 113.903 43.53 114.327C43.938 114.735 44.442 114.939 45.042 114.939ZM54.7717 110.823V109.791H55.8157V118.191H54.7717V114.759C54.2597 115.551 53.5037 115.947 52.5037 115.947C51.6557 115.947 50.9397 115.643 50.3557 115.035C49.7637 114.419 49.4677 113.671 49.4677 112.791C49.4677 111.919 49.7637 111.175 50.3557 110.559C50.9477 109.943 51.6637 109.635 52.5037 109.635C53.5037 109.635 54.2597 110.031 54.7717 110.823ZM52.6357 114.939C53.2437 114.939 53.7517 114.735 54.1597 114.327C54.5677 113.903 54.7717 113.391 54.7717 112.791C54.7717 112.183 54.5677 111.675 54.1597 111.267C53.7517 110.851 53.2437 110.643 52.6357 110.643C52.0357 110.643 51.5317 110.851 51.1237 111.267C50.7157 111.675 50.5117 112.183 50.5117 112.791C50.5117 113.391 50.7157 113.903 51.1237 114.327C51.5317 114.735 52.0357 114.939 52.6357 114.939ZM59.7735 108.159L61.9815 107.391H62.9415V115.791H61.8375V108.591L60.0495 109.119L59.7735 108.159ZM70.0508 114.759C69.4908 115.551 68.6948 115.947 67.6628 115.947C66.6308 115.947 65.8348 115.551 65.2748 114.759C64.7068 113.959 64.4228 112.903 64.4228 111.591C64.4228 110.279 64.7068 109.223 65.2748 108.423C65.8348 107.631 66.6308 107.235 67.6628 107.235C68.6948 107.235 69.4908 107.631 70.0508 108.423C70.6188 109.223 70.9028 110.279 70.9028 111.591C70.9028 112.903 70.6188 113.959 70.0508 114.759ZM65.5388 111.591C65.5388 112.631 65.7228 113.435 66.0908 114.003C66.4588 114.571 66.9828 114.855 67.6628 114.855C68.3428 114.855 68.8668 114.571 69.2348 114.003C69.6108 113.435 69.7988 112.631 69.7988 111.591C69.7988 110.551 69.6108 109.747 69.2348 109.179C68.8668 108.603 68.3428 108.315 67.6628 108.315C66.9828 108.315 66.4588 108.599 66.0908 109.167C65.7228 109.735 65.5388 110.543 65.5388 111.591ZM77.6094 114.759C77.0494 115.551 76.2534 115.947 75.2214 115.947C74.1894 115.947 73.3934 115.551 72.8334 114.759C72.2654 113.959 71.9814 112.903 71.9814 111.591C71.9814 110.279 72.2654 109.223 72.8334 108.423C73.3934 107.631 74.1894 107.235 75.2214 107.235C76.2534 107.235 77.0494 107.631 77.6094 108.423C78.1774 109.223 78.4614 110.279 78.4614 111.591C78.4614 112.903 78.1774 113.959 77.6094 114.759ZM73.0974 111.591C73.0974 112.631 73.2814 113.435 73.6494 114.003C74.0174 114.571 74.5414 114.855 75.2214 114.855C75.9014 114.855 76.4254 114.571 76.7934 114.003C77.1694 113.435 77.3574 112.631 77.3574 111.591C77.3574 110.551 77.1694 109.747 76.7934 109.179C76.4254 108.603 75.9014 108.315 75.2214 108.315C74.5414 108.315 74.0174 108.599 73.6494 109.167C73.2814 109.735 73.0974 110.543 73.0974 111.591Z" fill="#C4CBF5"/>
<path d="M100 130.291L75 120.291H24.5" stroke="url(#paint6_linear_3767_16057)"/>
<path d="M61.8581 76.947C61.0741 76.947 60.4021 76.767 59.8421 76.407C59.2901 76.039 58.9021 75.531 58.6781 74.883L59.6381 74.331C59.9581 75.347 60.7061 75.855 61.8821 75.855C62.4501 75.855 62.8861 75.739 63.1901 75.507C63.5021 75.275 63.6581 74.959 63.6581 74.559C63.6581 74.167 63.5061 73.867 63.2021 73.659C62.9301 73.475 62.4221 73.263 61.6781 73.023L60.8741 72.759C60.6981 72.687 60.4661 72.583 60.1781 72.447C59.8981 72.303 59.6941 72.159 59.5661 72.015C59.2141 71.631 59.0381 71.163 59.0381 70.611C59.0381 69.875 59.2941 69.299 59.8061 68.883C60.3181 68.451 60.9421 68.235 61.6781 68.235C62.3341 68.235 62.9101 68.399 63.4061 68.727C63.9021 69.055 64.2741 69.503 64.5221 70.071L63.5861 70.611C63.2261 69.747 62.5901 69.315 61.6781 69.315C61.2221 69.315 60.8541 69.427 60.5741 69.651C60.2941 69.875 60.1541 70.179 60.1541 70.563C60.1541 70.931 60.2861 71.211 60.5501 71.403C60.8221 71.603 61.2781 71.803 61.9181 72.003L62.4101 72.159C62.6821 72.263 62.8301 72.319 62.8541 72.327C63.1101 72.423 63.3901 72.555 63.6941 72.723C63.9101 72.843 64.1261 73.027 64.3421 73.275C64.6221 73.555 64.7621 73.975 64.7621 74.535C64.7621 75.271 64.4941 75.859 63.9581 76.299C63.4141 76.731 62.7141 76.947 61.8581 76.947ZM71.6067 75.255L72.7227 76.443L71.7867 76.983L70.9347 76.071C70.3187 76.655 69.5187 76.947 68.5347 76.947C67.6867 76.947 67.0067 76.731 66.4947 76.299C65.9747 75.851 65.7147 75.259 65.7147 74.523C65.7147 74.003 65.8467 73.531 66.1107 73.107C66.3747 72.675 66.7547 72.339 67.2507 72.099C66.8907 71.643 66.7107 71.135 66.7107 70.575C66.7107 69.879 66.9507 69.315 67.4307 68.883C67.9267 68.451 68.5107 68.235 69.1827 68.235C69.7427 68.235 70.2507 68.391 70.7067 68.703C71.1627 69.007 71.4907 69.423 71.6907 69.951L70.7547 70.491C70.6347 70.123 70.4347 69.835 70.1547 69.627C69.8827 69.419 69.5667 69.315 69.2067 69.315C68.8147 69.315 68.4867 69.435 68.2227 69.675C67.9587 69.907 67.8267 70.203 67.8267 70.563C67.8267 70.811 67.8827 71.039 67.9947 71.247C68.1147 71.455 68.3067 71.703 68.5707 71.991L70.8627 74.439C71.0707 74.015 71.2147 73.507 71.2947 72.915L72.2547 73.467C72.1427 74.131 71.9267 74.727 71.6067 75.255ZM68.5587 75.891C69.2227 75.891 69.7747 75.695 70.2147 75.303L67.9467 72.867C67.5787 73.019 67.2987 73.239 67.1067 73.527C66.9227 73.807 66.8307 74.115 66.8307 74.451C66.8307 74.899 66.9827 75.251 67.2867 75.507C67.5907 75.763 68.0147 75.891 68.5587 75.891ZM73.9 68.391H76.948C77.716 68.391 78.36 68.651 78.88 69.171C79.4 69.691 79.66 70.331 79.66 71.091C79.66 71.851 79.4 72.491 78.88 73.011C78.36 73.531 77.716 73.791 76.948 73.791H75.016V76.791H73.9V68.391ZM75.016 72.747H76.948C77.42 72.747 77.804 72.591 78.1 72.279C78.404 71.951 78.556 71.555 78.556 71.091C78.556 70.611 78.404 70.215 78.1 69.903C77.796 69.591 77.412 69.435 76.948 69.435H75.016V72.747ZM85.0941 71.667H86.3181C87.1101 71.667 87.7781 71.903 88.3221 72.375C88.8741 72.847 89.1501 73.491 89.1501 74.307C89.1501 75.131 88.8701 75.775 88.3101 76.239C87.7421 76.711 87.0621 76.947 86.2701 76.947C85.6141 76.947 85.0341 76.791 84.5301 76.479C84.0341 76.159 83.6901 75.715 83.4981 75.147L84.4461 74.607C84.5581 75.007 84.7741 75.315 85.0941 75.531C85.4141 75.747 85.8061 75.855 86.2701 75.855C86.8061 75.855 87.2341 75.719 87.5541 75.447C87.8821 75.167 88.0461 74.787 88.0461 74.307C88.0461 73.827 87.8821 73.447 87.5541 73.167C87.2341 72.887 86.8141 72.747 86.2941 72.747H83.9181L84.2301 68.391H88.8261V69.435H85.2381L85.0941 71.667ZM95.5508 75.759C94.9908 76.551 94.1948 76.947 93.1628 76.947C92.1308 76.947 91.3348 76.551 90.7748 75.759C90.2068 74.959 89.9228 73.903 89.9228 72.591C89.9228 71.279 90.2068 70.223 90.7748 69.423C91.3348 68.631 92.1308 68.235 93.1628 68.235C94.1948 68.235 94.9908 68.631 95.5508 69.423C96.1188 70.223 96.4028 71.279 96.4028 72.591C96.4028 73.903 96.1188 74.959 95.5508 75.759ZM91.0388 72.591C91.0388 73.631 91.2228 74.435 91.5908 75.003C91.9588 75.571 92.4828 75.855 93.1628 75.855C93.8428 75.855 94.3668 75.571 94.7348 75.003C95.1108 74.435 95.2988 73.631 95.2988 72.591C95.2988 71.551 95.1108 70.747 94.7348 70.179C94.3668 69.603 93.8428 69.315 93.1628 69.315C92.4828 69.315 91.9588 69.599 91.5908 70.167C91.2228 70.735 91.0388 71.543 91.0388 72.591ZM103.109 75.759C102.549 76.551 101.753 76.947 100.721 76.947C99.6894 76.947 98.8934 76.551 98.3334 75.759C97.7654 74.959 97.4814 73.903 97.4814 72.591C97.4814 71.279 97.7654 70.223 98.3334 69.423C98.8934 68.631 99.6894 68.235 100.721 68.235C101.753 68.235 102.549 68.631 103.109 69.423C103.677 70.223 103.961 71.279 103.961 72.591C103.961 73.903 103.677 74.959 103.109 75.759ZM98.5974 72.591C98.5974 73.631 98.7814 74.435 99.1494 75.003C99.5174 75.571 100.041 75.855 100.721 75.855C101.401 75.855 101.925 75.571 102.293 75.003C102.669 74.435 102.857 73.631 102.857 72.591C102.857 71.551 102.669 70.747 102.293 70.179C101.925 69.603 101.401 69.315 100.721 69.315C100.041 69.315 99.5174 69.599 99.1494 70.167C98.7814 70.735 98.5974 71.543 98.5974 72.591Z" fill="#C4CBF5"/>
<path d="M126.5 95.291L101.5 81.291H50" stroke="url(#paint7_linear_3767_16057)"/>
<path d="M99.3361 15.5449C100.509 15.5449 101.539 15.7742 102.424 16.2329C103.32 16.6916 104.008 17.3476 104.488 18.2009C104.979 19.0436 105.224 20.0249 105.224 21.1449C105.224 22.2649 104.979 23.2462 104.488 24.0889C104.008 24.9209 103.32 25.5662 102.424 26.0249C101.539 26.4836 100.509 26.7129 99.3361 26.7129H95.4321V15.5449H99.3361ZM99.2561 24.8089C100.429 24.8089 101.336 24.4889 101.976 23.8489C102.616 23.2089 102.936 22.3076 102.936 21.1449C102.936 19.9822 102.616 19.0756 101.976 18.4249C101.336 17.7636 100.429 17.4329 99.2561 17.4329H97.6721V24.8089H99.2561ZM106.325 22.2489C106.325 21.3529 106.501 20.5582 106.853 19.8649C107.216 19.1716 107.701 18.6382 108.309 18.2649C108.928 17.8916 109.616 17.7049 110.373 17.7049C111.034 17.7049 111.61 17.8382 112.101 18.1049C112.602 18.3716 113.002 18.7076 113.301 19.1129V17.8489H115.557V26.7129H113.301V25.4169C113.013 25.8329 112.613 26.1796 112.101 26.4569C111.6 26.7236 111.018 26.8569 110.357 26.8569C109.61 26.8569 108.928 26.6649 108.309 26.2809C107.701 25.8969 107.216 25.3582 106.853 24.6649C106.501 23.9609 106.325 23.1556 106.325 22.2489ZM113.301 22.2809C113.301 21.7369 113.194 21.2729 112.981 20.8889C112.768 20.4942 112.48 20.1956 112.117 19.9929C111.754 19.7796 111.365 19.6729 110.949 19.6729C110.533 19.6729 110.149 19.7742 109.797 19.9769C109.445 20.1796 109.157 20.4782 108.933 20.8729C108.72 21.2569 108.613 21.7156 108.613 22.2489C108.613 22.7822 108.72 23.2516 108.933 23.6569C109.157 24.0516 109.445 24.3556 109.797 24.5689C110.16 24.7822 110.544 24.8889 110.949 24.8889C111.365 24.8889 111.754 24.7876 112.117 24.5849C112.48 24.3716 112.768 24.0729 112.981 23.6889C113.194 23.2942 113.301 22.8249 113.301 22.2809ZM118.881 16.7929C118.486 16.7929 118.155 16.6702 117.889 16.4249C117.633 16.1689 117.505 15.8542 117.505 15.4809C117.505 15.1076 117.633 14.7982 117.889 14.5529C118.155 14.2969 118.486 14.1689 118.881 14.1689C119.275 14.1689 119.601 14.2969 119.857 14.5529C120.123 14.7982 120.257 15.1076 120.257 15.4809C120.257 15.8542 120.123 16.1689 119.857 16.4249C119.601 16.6702 119.275 16.7929 118.881 16.7929ZM119.985 17.8489V26.7129H117.745V17.8489H119.985ZM124.438 14.8729V26.7129H122.198V14.8729H124.438ZM135.131 17.8489L129.643 30.9049H127.259L129.179 26.4889L125.627 17.8489H128.139L130.427 24.0409L132.747 17.8489H135.131ZM144.055 15.5449C145.228 15.5449 146.258 15.7742 147.143 16.2329C148.039 16.6916 148.727 17.3476 149.207 18.2009C149.698 19.0436 149.943 20.0249 149.943 21.1449C149.943 22.2649 149.698 23.2462 149.207 24.0889C148.727 24.9209 148.039 25.5662 147.143 26.0249C146.258 26.4836 145.228 26.7129 144.055 26.7129H140.151V15.5449H144.055ZM143.975 24.8089C145.148 24.8089 146.055 24.4889 146.695 23.8489C147.335 23.2089 147.655 22.3076 147.655 21.1449C147.655 19.9822 147.335 19.0756 146.695 18.4249C146.055 17.7636 145.148 17.4329 143.975 17.4329H142.391V24.8089H143.975ZM152.756 16.7929C152.361 16.7929 152.03 16.6702 151.764 16.4249C151.508 16.1689 151.38 15.8542 151.38 15.4809C151.38 15.1076 151.508 14.7982 151.764 14.5529C152.03 14.2969 152.361 14.1689 152.756 14.1689C153.15 14.1689 153.476 14.2969 153.732 14.5529C153.998 14.7982 154.132 15.1076 154.132 15.4809C154.132 15.8542 153.998 16.1689 153.732 16.4249C153.476 16.6702 153.15 16.7929 152.756 16.7929ZM153.86 17.8489V26.7129H151.62V17.8489H153.86ZM159.465 26.8569C158.739 26.8569 158.089 26.7289 157.513 26.4729C156.937 26.2062 156.478 25.8489 156.137 25.4009C155.806 24.9529 155.625 24.4569 155.593 23.9129H157.849C157.891 24.2542 158.057 24.5369 158.345 24.7609C158.643 24.9849 159.011 25.0969 159.449 25.0969C159.875 25.0969 160.206 25.0116 160.441 24.8409C160.686 24.6702 160.809 24.4516 160.809 24.1849C160.809 23.8969 160.659 23.6836 160.361 23.5449C160.073 23.3956 159.609 23.2356 158.969 23.0649C158.307 22.9049 157.763 22.7396 157.337 22.5689C156.921 22.3982 156.558 22.1369 156.249 21.7849C155.95 21.4329 155.801 20.9582 155.801 20.3609C155.801 19.8702 155.939 19.4222 156.217 19.0169C156.505 18.6116 156.91 18.2916 157.433 18.0569C157.966 17.8222 158.59 17.7049 159.305 17.7049C160.361 17.7049 161.203 17.9716 161.833 18.5049C162.462 19.0276 162.809 19.7369 162.873 20.6329H160.729C160.697 20.2809 160.547 20.0036 160.281 19.8009C160.025 19.5876 159.678 19.4809 159.241 19.4809C158.835 19.4809 158.521 19.5556 158.297 19.7049C158.083 19.8542 157.977 20.0622 157.977 20.3289C157.977 20.6276 158.126 20.8569 158.425 21.0169C158.723 21.1662 159.187 21.3209 159.817 21.4809C160.457 21.6409 160.985 21.8062 161.401 21.9769C161.817 22.1476 162.174 22.4142 162.473 22.7769C162.782 23.1289 162.942 23.5982 162.953 24.1849C162.953 24.6969 162.809 25.1556 162.521 25.5609C162.243 25.9662 161.838 26.2862 161.305 26.5209C160.782 26.7449 160.169 26.8569 159.465 26.8569ZM167.4 19.6889V23.9769C167.4 24.2756 167.469 24.4942 167.608 24.6329C167.757 24.7609 168.002 24.8249 168.344 24.8249H169.384V26.7129H167.976C166.088 26.7129 165.144 25.7956 165.144 23.9609V19.6889H164.088V17.8489H165.144V15.6569H167.4V17.8489H169.384V19.6889H167.4ZM173.235 19.2249C173.523 18.7556 173.896 18.3876 174.355 18.1209C174.824 17.8542 175.357 17.7209 175.955 17.7209V20.0729H175.363C174.659 20.0729 174.125 20.2382 173.763 20.5689C173.411 20.8996 173.235 21.4756 173.235 22.2969V26.7129H170.995V17.8489H173.235V19.2249ZM178.599 16.7929C178.205 16.7929 177.874 16.6702 177.607 16.4249C177.351 16.1689 177.223 15.8542 177.223 15.4809C177.223 15.1076 177.351 14.7982 177.607 14.5529C177.874 14.2969 178.205 14.1689 178.599 14.1689C178.994 14.1689 179.319 14.2969 179.575 14.5529C179.842 14.7982 179.975 15.1076 179.975 15.4809C179.975 15.8542 179.842 16.1689 179.575 16.4249C179.319 16.6702 178.994 16.7929 178.599 16.7929ZM179.703 17.8489V26.7129H177.463V17.8489H179.703ZM184.157 19.1449C184.445 18.7182 184.839 18.3716 185.341 18.1049C185.853 17.8382 186.434 17.7049 187.085 17.7049C187.842 17.7049 188.525 17.8916 189.133 18.2649C189.751 18.6382 190.237 19.1716 190.589 19.8649C190.951 20.5476 191.133 21.3422 191.133 22.2489C191.133 23.1556 190.951 23.9609 190.589 24.6649C190.237 25.3582 189.751 25.8969 189.133 26.2809C188.525 26.6649 187.842 26.8569 187.085 26.8569C186.423 26.8569 185.842 26.7289 185.341 26.4729C184.85 26.2062 184.455 25.8649 184.157 25.4489V26.7129H181.917V14.8729H184.157V19.1449ZM188.845 22.2489C188.845 21.7156 188.733 21.2569 188.509 20.8729C188.295 20.4782 188.007 20.1796 187.645 19.9769C187.293 19.7742 186.909 19.6729 186.493 19.6729C186.087 19.6729 185.703 19.7796 185.341 19.9929C184.989 20.1956 184.701 20.4942 184.477 20.8889C184.263 21.2836 184.157 21.7476 184.157 22.2809C184.157 22.8142 184.263 23.2782 184.477 23.6729C184.701 24.0676 184.989 24.3716 185.341 24.5849C185.703 24.7876 186.087 24.8889 186.493 24.8889C186.909 24.8889 187.293 24.7822 187.645 24.5689C188.007 24.3556 188.295 24.0516 188.509 23.6569C188.733 23.2622 188.845 22.7929 188.845 22.2489ZM201.128 17.8489V26.7129H198.872V25.5929C198.584 25.9769 198.206 26.2809 197.736 26.5049C197.278 26.7182 196.776 26.8249 196.232 26.8249C195.539 26.8249 194.926 26.6809 194.392 26.3929C193.859 26.0942 193.438 25.6622 193.128 25.0969C192.83 24.5209 192.68 23.8382 192.68 23.0489V17.8489H194.92V22.7289C194.92 23.4329 195.096 23.9769 195.448 24.3609C195.8 24.7342 196.28 24.9209 196.888 24.9209C197.507 24.9209 197.992 24.7342 198.344 24.3609C198.696 23.9769 198.872 23.4329 198.872 22.7289V17.8489H201.128ZM205.946 19.6889V23.9769C205.946 24.2756 206.016 24.4942 206.154 24.6329C206.304 24.7609 206.549 24.8249 206.89 24.8249H207.93V26.7129H206.522C204.634 26.7129 203.69 25.7956 203.69 23.9609V19.6889H202.634V17.8489H203.69V15.6569H205.946V17.8489H207.93V19.6889H205.946ZM210.678 16.7929C210.283 16.7929 209.952 16.6702 209.686 16.4249C209.43 16.1689 209.302 15.8542 209.302 15.4809C209.302 15.1076 209.43 14.7982 209.686 14.5529C209.952 14.2969 210.283 14.1689 210.678 14.1689C211.072 14.1689 211.398 14.2969 211.654 14.5529C211.92 14.7982 212.054 15.1076 212.054 15.4809C212.054 15.8542 211.92 16.1689 211.654 16.4249C211.398 16.6702 211.072 16.7929 210.678 16.7929ZM211.782 17.8489V26.7129H209.542V17.8489H211.782ZM217.931 26.8569C217.077 26.8569 216.309 26.6702 215.627 26.2969C214.944 25.9129 214.405 25.3742 214.011 24.6809C213.627 23.9876 213.435 23.1876 213.435 22.2809C213.435 21.3742 213.632 20.5742 214.027 19.8809C214.432 19.1876 214.981 18.6542 215.675 18.2809C216.368 17.8969 217.141 17.7049 217.995 17.7049C218.848 17.7049 219.621 17.8969 220.315 18.2809C221.008 18.6542 221.552 19.1876 221.947 19.8809C222.352 20.5742 222.555 21.3742 222.555 22.2809C222.555 23.1876 222.347 23.9876 221.931 24.6809C221.525 25.3742 220.971 25.9129 220.267 26.2969C219.573 26.6702 218.795 26.8569 217.931 26.8569ZM217.931 24.9049C218.336 24.9049 218.715 24.8089 219.067 24.6169C219.429 24.4142 219.717 24.1156 219.931 23.7209C220.144 23.3262 220.251 22.8462 220.251 22.2809C220.251 21.4382 220.027 20.7929 219.579 20.3449C219.141 19.8862 218.603 19.6569 217.963 19.6569C217.323 19.6569 216.784 19.8862 216.347 20.3449C215.92 20.7929 215.707 21.4382 215.707 22.2809C215.707 23.1236 215.915 23.7742 216.331 24.2329C216.757 24.6809 217.291 24.9049 217.931 24.9049ZM229.11 17.7209C230.166 17.7209 231.019 18.0569 231.67 18.7289C232.32 19.3902 232.646 20.3182 232.646 21.5129V26.7129H230.406V21.8169C230.406 21.1129 230.23 20.5742 229.878 20.2009C229.526 19.8169 229.046 19.6249 228.438 19.6249C227.819 19.6249 227.328 19.8169 226.966 20.2009C226.614 20.5742 226.438 21.1129 226.438 21.8169V26.7129H224.198V17.8489H226.438V18.9529C226.736 18.5689 227.115 18.2702 227.574 18.0569C228.043 17.8329 228.555 17.7209 229.11 17.7209Z" fill="#EAEDFF"/>
<path opacity="0.6" d="M266.266 16.5311H267.738L271.198 24.9828H271.317L274.778 16.5311H276.249V26.7129H275.096V18.9771H274.996L271.814 26.7129H270.701L267.519 18.9771H267.42V26.7129H266.266V16.5311ZM281.664 26.872C280.975 26.872 280.37 26.7079 279.85 26.3798C279.333 26.0517 278.928 25.5926 278.637 25.0027C278.348 24.4127 278.204 23.7233 278.204 22.9345C278.204 22.139 278.348 21.4447 278.637 20.8514C278.928 20.2581 279.333 19.7974 279.85 19.4693C280.37 19.1412 280.975 18.9771 281.664 18.9771C282.354 18.9771 282.957 19.1412 283.474 19.4693C283.994 19.7974 284.399 20.2581 284.687 20.8514C284.979 21.4447 285.125 22.139 285.125 22.9345C285.125 23.7233 284.979 24.4127 284.687 25.0027C284.399 25.5926 283.994 26.0517 283.474 26.3798C282.957 26.7079 282.354 26.872 281.664 26.872ZM281.664 25.818C282.188 25.818 282.619 25.6838 282.957 25.4153C283.295 25.1468 283.545 24.7939 283.708 24.3564C283.87 23.9189 283.951 23.4449 283.951 22.9345C283.951 22.4241 283.87 21.9484 283.708 21.5076C283.545 21.0668 283.295 20.7105 282.957 20.4387C282.619 20.167 282.188 20.0311 281.664 20.0311C281.141 20.0311 280.71 20.167 280.372 20.4387C280.034 20.7105 279.783 21.0668 279.621 21.5076C279.459 21.9484 279.377 22.4241 279.377 22.9345C279.377 23.4449 279.459 23.9189 279.621 24.3564C279.783 24.7939 280.034 25.1468 280.372 25.4153C280.71 25.6838 281.141 25.818 281.664 25.818ZM286.916 26.7129V19.0765H288.049V20.2299H288.129C288.268 19.8521 288.52 19.5455 288.884 19.3102C289.249 19.0749 289.66 18.9572 290.117 18.9572C290.204 18.9572 290.311 18.9589 290.441 18.9622C290.57 18.9655 290.668 18.9705 290.734 18.9771V20.1703C290.694 20.1603 290.603 20.1454 290.46 20.1255C290.321 20.1023 290.174 20.0907 290.018 20.0907C289.647 20.0907 289.315 20.1686 289.024 20.3244C288.735 20.4769 288.507 20.689 288.338 20.9608C288.172 21.2292 288.089 21.5358 288.089 21.8805V26.7129H286.916ZM295.094 26.872C294.358 26.872 293.723 26.7096 293.19 26.3848C292.66 26.0566 292.25 25.5993 291.962 25.0126C291.677 24.4226 291.534 23.7366 291.534 22.9544C291.534 22.1722 291.677 21.4828 291.962 20.8862C292.25 20.2863 292.651 19.819 293.165 19.4842C293.682 19.1461 294.285 18.9771 294.975 18.9771C295.372 18.9771 295.765 19.0434 296.153 19.176C296.541 19.3085 296.894 19.524 297.212 19.8223C297.53 20.1172 297.784 20.5083 297.972 20.9956C298.161 21.4828 298.256 22.0827 298.256 22.7953V23.2924H292.369V22.2782H297.063C297.063 21.8474 296.977 21.4629 296.804 21.1248C296.635 20.7868 296.393 20.5199 296.078 20.3244C295.767 20.1288 295.399 20.0311 294.975 20.0311C294.507 20.0311 294.103 20.1471 293.762 20.3791C293.423 20.6078 293.163 20.9061 292.981 21.274C292.799 21.6419 292.708 22.0363 292.708 22.4572V23.1333C292.708 23.71 292.807 24.1989 293.006 24.6C293.208 24.9977 293.488 25.301 293.846 25.5098C294.204 25.7153 294.62 25.818 295.094 25.818C295.402 25.818 295.681 25.7749 295.929 25.6887C296.181 25.5993 296.398 25.4667 296.58 25.291C296.763 25.112 296.904 24.89 297.003 24.6248L298.137 24.943C298.017 25.3275 297.817 25.6655 297.535 25.9572C297.253 26.2456 296.905 26.4709 296.491 26.6333C296.077 26.7924 295.611 26.872 295.094 26.872Z" fill="#EAEDFF"/>
<g opacity="0.5">
<line y1="-0.5" x2="25" y2="-0.5" transform="matrix(-1 -8.74228e-08 -8.74228e-08 1 28 45)" stroke="url(#paint8_linear_3767_16057)"/>
<line y1="-0.5" x2="25" y2="-0.5" transform="matrix(-1 -8.74228e-08 -8.74228e-08 1 28 92)" stroke="url(#paint9_linear_3767_16057)"/>
<line y1="-0.5" x2="25" y2="-0.5" transform="matrix(-1 -8.74228e-08 -8.74228e-08 1 28 139)" stroke="url(#paint10_linear_3767_16057)"/>
<line y1="-0.5" x2="25" y2="-0.5" transform="matrix(-1 -8.74228e-08 -8.74228e-08 1 28 186)" stroke="url(#paint11_linear_3767_16057)"/>
<line y1="-0.5" x2="25" y2="-0.5" transform="matrix(-1 -8.74228e-08 -8.74228e-08 1 28 233)" stroke="url(#paint12_linear_3767_16057)"/>
</g>
<g opacity="0.5">
<line x1="303" y1="44.5" x2="326" y2="44.5" stroke="url(#paint13_linear_3767_16057)"/>
<line x1="303" y1="91.5" x2="326" y2="91.5" stroke="url(#paint14_linear_3767_16057)"/>
<line x1="303" y1="138.5" x2="326" y2="138.5" stroke="url(#paint15_linear_3767_16057)"/>
<line x1="303" y1="185.5" x2="326" y2="185.5" stroke="url(#paint16_linear_3767_16057)"/>
<line x1="303" y1="232.5" x2="326" y2="232.5" stroke="url(#paint17_linear_3767_16057)"/>
</g>
</g>
<rect x="1.5" y="2.21289" width="326" height="273" rx="14.5" stroke="#334679" stroke-width="3"/>
<defs>
<filter id="filter0_d_3767_16057" x="130.43" y="124.721" width="67.6875" height="71.6875" filterUnits="userSpaceOnUse" color-interpolation-filters="sRGB">
<feFlood flood-opacity="0" result="BackgroundImageFix"/>
<feColorMatrix in="SourceAlpha" type="matrix" values="0 0 0 0 0 0 0 0 0 0 0 0 0 0 0 0 0 0 127 0" result="hardAlpha"/>
<feOffset dy="12"/>
<feGaussianBlur stdDeviation="4"/>
<feComposite in2="hardAlpha" operator="out"/>
<feColorMatrix type="matrix" values="0 0 0 0 0 0 0 0 0 0 0 0 0 0 0 0 0 0 0.5 0"/>
<feBlend mode="normal" in2="BackgroundImageFix" result="effect1_dropShadow_3767_16057"/>
<feBlend mode="normal" in="SourceGraphic" in2="effect1_dropShadow_3767_16057" result="shape"/>
</filter>
<linearGradient id="paint0_linear_3767_16057" x1="164.5" y1="0.712891" x2="164.5" y2="276.713" gradientUnits="userSpaceOnUse">
<stop stop-color="#243474"/>
<stop offset="1" stop-color="#0F1434"/>
</linearGradient>
<linearGradient id="paint1_linear_3767_16057" x1="234.5" y1="109.291" x2="292.5" y2="98.791" gradientUnits="userSpaceOnUse">
<stop stop-color="#3C52D8"/>
<stop offset="1" stop-color="#0D193B"/>
</linearGradient>
<linearGradient id="paint2_linear_3767_16057" x1="245" y1="218.291" x2="303" y2="207.791" gradientUnits="userSpaceOnUse">
<stop stop-color="#3C52D8"/>
<stop offset="1" stop-color="#0D193B"/>
</linearGradient>
<linearGradient id="paint3_linear_3767_16057" x1="139" y1="264.791" x2="81" y2="254.291" gradientUnits="userSpaceOnUse">
<stop stop-color="#3C52D8"/>
<stop offset="1" stop-color="#0D193B"/>
</linearGradient>
<linearGradient id="paint4_linear_3767_16057" x1="71.5" y1="208.791" x2="13.4999" y2="198.291" gradientUnits="userSpaceOnUse">
<stop stop-color="#3C52D8"/>
<stop offset="1" stop-color="#0D193B"/>
</linearGradient>
<linearGradient id="paint5_linear_3767_16057" x1="73.5" y1="171.291" x2="15.5" y2="160.791" gradientUnits="userSpaceOnUse">
<stop stop-color="#3C52D8"/>
<stop offset="1" stop-color="#0D193B"/>
</linearGradient>
<linearGradient id="paint6_linear_3767_16057" x1="83" y1="136.291" x2="25" y2="125.791" gradientUnits="userSpaceOnUse">
<stop stop-color="#3C52D8"/>
<stop offset="1" stop-color="#0D193B"/>
</linearGradient>
<linearGradient id="paint7_linear_3767_16057" x1="108.5" y1="97.2909" x2="50.5" y2="86.7909" gradientUnits="userSpaceOnUse">
<stop stop-color="#3C52D8"/>
<stop offset="1" stop-color="#0D193B"/>
</linearGradient>
<linearGradient id="paint8_linear_3767_16057" x1="0" y1="0.5" x2="25" y2="0.5" gradientUnits="userSpaceOnUse">
<stop stop-color="#253575" stop-opacity="0"/>
<stop offset="0.875204" stop-color="#4360D4"/>
<stop offset="1" stop-color="#334679"/>
</linearGradient>
<linearGradient id="paint9_linear_3767_16057" x1="0" y1="0.5" x2="25" y2="0.5" gradientUnits="userSpaceOnUse">
<stop stop-color="#253575" stop-opacity="0"/>
<stop offset="0.875204" stop-color="#4360D4"/>
<stop offset="1" stop-color="#334679"/>
</linearGradient>
<linearGradient id="paint10_linear_3767_16057" x1="0" y1="0.5" x2="25" y2="0.5" gradientUnits="userSpaceOnUse">
<stop stop-color="#253575" stop-opacity="0"/>
<stop offset="0.875204" stop-color="#4360D4"/>
<stop offset="1" stop-color="#334679"/>
</linearGradient>
<linearGradient id="paint11_linear_3767_16057" x1="0" y1="0.5" x2="25" y2="0.5" gradientUnits="userSpaceOnUse">
<stop stop-color="#253575" stop-opacity="0"/>
<stop offset="0.875204" stop-color="#4360D4"/>
<stop offset="1" stop-color="#334679"/>
</linearGradient>
<linearGradient id="paint12_linear_3767_16057" x1="0" y1="0.5" x2="25" y2="0.5" gradientUnits="userSpaceOnUse">
<stop stop-color="#253575" stop-opacity="0"/>
<stop offset="0.875204" stop-color="#4360D4"/>
<stop offset="1" stop-color="#334679"/>
</linearGradient>
<linearGradient id="paint13_linear_3767_16057" x1="303" y1="45.5" x2="326" y2="45.5" gradientUnits="userSpaceOnUse">
<stop stop-color="#253575" stop-opacity="0"/>
<stop offset="0.875204" stop-color="#4360D4"/>
<stop offset="1" stop-color="#334679"/>
</linearGradient>
<linearGradient id="paint14_linear_3767_16057" x1="303" y1="92.5" x2="326" y2="92.5" gradientUnits="userSpaceOnUse">
<stop stop-color="#253575" stop-opacity="0"/>
<stop offset="0.875204" stop-color="#4360D4"/>
<stop offset="1" stop-color="#334679"/>
</linearGradient>
<linearGradient id="paint15_linear_3767_16057" x1="303" y1="139.5" x2="326" y2="139.5" gradientUnits="userSpaceOnUse">
<stop stop-color="#253575" stop-opacity="0"/>
<stop offset="0.875204" stop-color="#4360D4"/>
<stop offset="1" stop-color="#334679"/>
</linearGradient>
<linearGradient id="paint16_linear_3767_16057" x1="303" y1="186.5" x2="326" y2="186.5" gradientUnits="userSpaceOnUse">
<stop stop-color="#253575" stop-opacity="0"/>
<stop offset="0.875204" stop-color="#4360D4"/>
<stop offset="1" stop-color="#334679"/>
</linearGradient>
<linearGradient id="paint17_linear_3767_16057" x1="303" y1="233.5" x2="326" y2="233.5" gradientUnits="userSpaceOnUse">
<stop stop-color="#253575" stop-opacity="0"/>
<stop offset="0.875204" stop-color="#4360D4"/>
<stop offset="1" stop-color="#334679"/>
</linearGradient>
<clipPath id="clip0_3767_16057">
<rect y="0.712891" width="329" height="276" rx="16" fill="white"/>
</clipPath>
</defs>
</svg>
