<svg width="32" height="32" viewBox="0 0 32 32" fill="none" xmlns="http://www.w3.org/2000/svg">
<path d="M31.5177 19.8705C29.3808 28.442 20.6992 33.6584 12.1267 31.521C3.55778 29.3841 -1.65868 20.702 0.479177 12.1312C2.61515 3.5587 11.2967 -1.65814 19.8666 0.478775C28.4385 2.61569 33.6546 11.2987 31.5175 19.8706L31.5176 19.8705H31.5177Z" fill="#50AF95"/>
<path fill-rule="evenodd" clip-rule="evenodd" d="M18.0247 17.8137C17.9115 17.8221 17.327 17.857 16.0231 17.857C14.9861 17.857 14.2498 17.8259 13.9914 17.8137C9.98365 17.6374 6.99219 16.9397 6.99219 16.1044C6.99219 15.2691 9.98365 14.5724 13.9914 14.3932V17.1188C14.2535 17.1377 15.004 17.182 16.0411 17.182C17.2855 17.182 17.9087 17.1301 18.0209 17.1198V14.3951C22.0202 14.5733 25.0051 15.271 25.0051 16.1044C25.0051 16.9378 22.0212 17.6355 18.0209 17.8127L18.0247 17.8137ZM18.0246 14.1134V11.6744H23.6059V7.95508H8.41002V11.6744H13.9904V14.1124C9.45463 14.3208 6.04362 15.2193 6.04362 16.2959C6.04362 17.3726 9.45463 18.2701 13.9904 18.4794V26.2951H18.0236V18.4766C22.549 18.2682 25.9543 17.3707 25.9543 16.295C25.9543 15.2193 22.5518 14.3217 18.0236 14.1124L18.0246 14.1134Z" fill="white"/>
</svg>
