<svg width="22" height="24" viewBox="0 0 22 24" fill="none" xmlns="http://www.w3.org/2000/svg">
<path d="M16.7672 11.124L16.4522 10.981C16.2672 7.568 14.4022 5.614 11.2702 5.594H11.2282C9.3552 5.594 7.79719 6.394 6.83819 7.849L8.5602 9.029C9.2762 7.942 10.4012 7.711 11.2282 7.711H11.2572C12.2882 7.718 13.0662 8.017 13.5702 8.602C13.9372 9.028 14.1822 9.616 14.3032 10.358C13.3892 10.203 12.4002 10.155 11.3432 10.215C8.3652 10.387 6.4512 12.123 6.5802 14.536C6.60781 15.1316 6.7782 15.7119 7.07702 16.2279C7.37583 16.744 7.79432 17.1806 8.2972 17.501C9.17819 18.082 10.3132 18.367 11.4922 18.303C13.0492 18.218 14.2712 17.623 15.1232 16.537C15.7702 15.712 16.1802 14.643 16.3602 13.296C17.1022 13.744 17.6522 14.333 17.9562 15.042C18.4732 16.246 18.5032 18.226 16.8882 19.839C15.4732 21.252 13.7722 21.864 11.2022 21.883C8.3512 21.862 6.1952 20.947 4.7932 19.165C3.4792 17.496 2.8012 15.085 2.7762 12C2.8012 8.915 3.4802 6.504 4.7932 4.835C6.1952 3.053 8.3512 2.138 11.2022 2.117C14.0742 2.138 16.2682 3.057 17.7232 4.848C18.4372 5.726 18.9752 6.831 19.3302 8.118L21.3482 7.579C20.9182 5.994 20.2412 4.628 19.3212 3.495C17.4552 1.201 14.7252 0.024 11.2092 0H11.1952C7.68519 0.024 4.9872 1.205 3.1742 3.51C1.5602 5.561 0.728195 8.414 0.700195 11.992V12V12.008C0.728195 15.585 1.5602 18.439 3.1742 20.49C4.9872 22.795 7.6862 23.976 11.1952 24H11.2092C14.3292 23.978 16.5282 23.162 18.3402 21.351C20.7102 18.983 20.6392 16.014 19.8582 14.192C19.2972 12.885 18.2292 11.824 16.7682 11.123L16.7672 11.124ZM11.3802 16.189C10.0752 16.262 8.7192 15.677 8.6522 14.422C8.6022 13.492 9.3142 12.454 11.4602 12.33L12.1842 12.309C12.9632 12.309 13.6922 12.385 14.3552 12.53C14.1082 15.618 12.6582 16.119 11.3802 16.189Z" fill="#EAEDFF"/>
</svg>
